<?xml version="1.0" ?>
<svg xmlns="http://www.w3.org/2000/svg" width="3600" height="3600" padding="720">
  <text fill="#fcfcfc" stroke="none" font-size="600.0" font-family="p22" x="1800.0" y="1800.0" text-anchor="middle" dominant-baseline="center">@nuuuwan</text>
  <text fill="black" stroke="none" font-size="160" font-family="p22" x="1800.0" y="360.0" text-anchor="middle" dominant-baseline="hanging">1874</text>
  <text fill="gray" stroke="none" font-size="80" font-family="p22" x="1800.0" y="518.0" text-anchor="middle" dominant-baseline="hanging">Sri Lanka's Railway Network</text>
  <text fill="gray" stroke="none" font-size="40" font-family="p22" x="1800.0" y="3280.0" text-anchor="middle" dominant-baseline="text-top">data from railway.gov.lk et al ~ music by @bensound ~ visualization by @nuuuwan</text>
  <g>
    <path fill="none" stroke-width="29.400000000000002" stroke-opacity="1" d="M 720.0,2340.0 L 990.0,2070.0 L 1260.0,1800.0 L 1520.4540584539816,1539.5459415460184 C 1523.6360389693211,1536.3639610306789 1539.0,1530.0 1543.5,1530.0 L 1800.0,1530.0 L 2070.0,1530.0 L 2326.5,1530.0 C 2331.0,1530.0 2346.363961030679,1536.3639610306789 2349.545941546018,1539.5459415460184 L 2610.0,1800.0 L 2880.0,2070.0" stroke="red"/>
    <rect stroke="none" fill-opacity="1" x="2866" y="2042" width="28" height="56" fill="red"/>
  </g>
  <g>
    <path fill="none" stroke-width="29.400000000000002" stroke-opacity="1" d="M 2340.0,1530.0 L 2610.0,1260.0" stroke="purple"/>
    <rect stroke="none" fill-opacity="1" x="2596" y="1232" width="28" height="56" fill="purple"/>
  </g>
  <g>
    <text fill="black" stroke="none" font-size="56.0" font-family="p22" font-weight="100" text-anchor="start" dominant-baseline="central" x="769.0" y="2340" transform="translate(720,2340) rotate(0) translate(-720,-2340)">C. Terminus</text>
  </g>
  <g>
    <text fill="black" stroke="none" font-size="56.0" font-family="p22" font-weight="100" text-anchor="start" dominant-baseline="central" x="2929.0" y="2070" transform="translate(2880,2070) rotate(0) translate(-2880,-2070)">Nawalapitiya</text>
  </g>
  <g>
    <text fill="black" stroke="none" font-size="56.0" font-family="p22" font-weight="100" text-anchor="start" dominant-baseline="central" x="2659.0" y="1260" transform="translate(2610,1260) rotate(0) translate(-2610,-1260)">Kandy</text>
  </g>
  <g>
    <circle r="28" fill="white" stroke="black" stroke-width="7.0" cx="2340" cy="1530"/>
    <text fill="black" stroke="none" font-size="48.0" font-family="p22" font-weight="100" text-anchor="start" dominant-baseline="central" x="2385.0" y="1530" transform="translate(2340,1530) rotate(0) translate(-2340,-1530)">Peradeniya</text>
  </g>
  <g>
    <text fill="gray" stroke="none" font-size="44.0" font-family="p22" font-weight="100" text-anchor="start" dominant-baseline="central" x="1303.0" y="1800" transform="translate(1260,1800) rotate(0) translate(-1260,-1800)">Gampaha</text>
  </g>
  <g>
    <text fill="gray" stroke="none" font-size="40" font-family="p22" font-weight="100" text-anchor="start" dominant-baseline="central" x="1031.0" y="2070" transform="translate(990,2070) rotate(0) translate(-990,-2070)">Ragama</text>
  </g>
  <g>
    <text fill="gray" stroke="none" font-size="40" font-family="p22" font-weight="100" text-anchor="end" dominant-baseline="central" x="1489.0" y="1530" transform="translate(1530,1530) rotate(0) translate(-1530,-1530)">Ambepussa</text>
  </g>
  <g>
    <text fill="gray" stroke="none" font-size="40" font-family="p22" font-weight="100" text-anchor="start" dominant-baseline="central" x="1841.0" y="1530" transform="translate(1800,1530) rotate(-90) translate(-1800,-1530)">Polgahawela</text>
  </g>
  <g>
    <text fill="gray" stroke="none" font-size="40" font-family="p22" font-weight="100" text-anchor="start" dominant-baseline="central" x="2111.0" y="1530" transform="translate(2070,1530) rotate(-90) translate(-2070,-1530)">Rambukkana</text>
  </g>
  <g>
    <text fill="gray" stroke="none" font-size="40" font-family="p22" font-weight="100" text-anchor="start" dominant-baseline="central" x="2651.0" y="1800" transform="translate(2610,1800) rotate(0) translate(-2610,-1800)">Gampola</text>
  </g>
</svg>
