<?xml version="1.0" ?>
<svg xmlns="http://www.w3.org/2000/svg" width="3600" height="3600" padding="720">
  <text fill="#fcfcfc" stroke="none" font-size="600.0" font-family="p22" x="1800.0" y="1800.0" text-anchor="middle" dominant-baseline="center">@nuuuwan</text>
  <text fill="black" stroke="none" font-size="160" font-family="p22" x="1800.0" y="360.0" text-anchor="middle" dominant-baseline="hanging">1880</text>
  <text fill="gray" stroke="none" font-size="80" font-family="p22" x="1800.0" y="518.0" text-anchor="middle" dominant-baseline="hanging">Sri Lanka's Railway Network</text>
  <text fill="gray" stroke="none" font-size="40" font-family="p22" x="1800.0" y="3280.0" text-anchor="middle" dominant-baseline="text-top">data from railway.gov.lk et al ~ music by @bensound ~ visualization by @nuuuwan</text>
  <g>
    <path fill="none" stroke-width="29.400000000000002" stroke-opacity="1" d="M 720.0,1920.0 L 960.0,1680.0 L 1200.0,1440.0 L 1431.5147186257614,1208.4852813742386 C 1434.3431457505076,1205.6568542494924 1448.0,1200.0 1452.0,1200.0 L 1680.0,1200.0 L 1920.0,1200.0 L 2148.0,1200.0 C 2152.0,1200.0 2165.6568542494924,1205.6568542494924 2168.4852813742386,1208.4852813742386 L 2400.0,1440.0 L 2640.0,1680.0 L 2880.0,1920.0" stroke="red"/>
    <rect stroke="none" fill-opacity="1" x="2866" y="1892" width="28" height="56" fill="red"/>
  </g>
  <g>
    <path fill="none" stroke-width="29.400000000000002" stroke-opacity="1" d="M 2160.0,1200.0 L 2391.5147186257614,968.4852813742385 C 2394.3431457505076,965.6568542494924 2408.0,960.0 2412.0,960.0 L 2640.0,960.0 L 2880.0,960.0" stroke="purple"/>
    <rect stroke="none" fill-opacity="1" x="2866" y="932" width="28" height="56" fill="purple"/>
  </g>
  <g>
    <path fill="none" stroke-width="29.400000000000002" stroke-opacity="1" d="M 720.0,1920.0 L 720.0,2160.0 L 720.0,2400.0 L 720.0,2640.0" stroke="cyan"/>
    <rect stroke="none" fill-opacity="1" x="692" y="2626" width="56" height="28" fill="cyan"/>
  </g>
  <g>
    <text fill="black" stroke="none" font-size="56.0" font-family="p22" font-weight="100" text-anchor="start" dominant-baseline="central" x="2929.0" y="1920" transform="translate(2880,1920) rotate(0) translate(-2880,-1920)">Talawakele</text>
  </g>
  <g>
    <text fill="black" stroke="none" font-size="56.0" font-family="p22" font-weight="100" text-anchor="start" dominant-baseline="central" x="2929.0" y="960" transform="translate(2880,960) rotate(0) translate(-2880,-960)">Matale</text>
  </g>
  <g>
    <text fill="black" stroke="none" font-size="56.0" font-family="p22" font-weight="100" text-anchor="start" dominant-baseline="central" x="769.0" y="2640" transform="translate(720,2640) rotate(0) translate(-720,-2640)">Wadduwa</text>
  </g>
  <g>
    <circle r="28" fill="white" stroke="black" stroke-width="7.0" cx="720" cy="1920"/>
    <text fill="black" stroke="none" font-size="48.0" font-family="p22" font-weight="100" text-anchor="start" dominant-baseline="central" x="765.0" y="1920" transform="translate(720,1920) rotate(0) translate(-720,-1920)">C. Terminus</text>
  </g>
  <g>
    <circle r="28" fill="white" stroke="black" stroke-width="7.0" cx="2160" cy="1200"/>
    <text fill="black" stroke="none" font-size="48.0" font-family="p22" font-weight="100" text-anchor="start" dominant-baseline="central" x="2205.0" y="1200" transform="translate(2160,1200) rotate(0) translate(-2160,-1200)">Peradeniya</text>
  </g>
  <g>
    <text fill="gray" stroke="none" font-size="44.0" font-family="p22" font-weight="100" text-anchor="start" dominant-baseline="central" x="1243.0" y="1440" transform="translate(1200,1440) rotate(0) translate(-1200,-1440)">Gampaha</text>
  </g>
  <g>
    <text fill="gray" stroke="none" font-size="44.0" font-family="p22" font-weight="100" text-anchor="end" dominant-baseline="central" x="2357.0" y="960" transform="translate(2400,960) rotate(0) translate(-2400,-960)">Kandy</text>
  </g>
  <g>
    <text fill="gray" stroke="none" font-size="40" font-family="p22" font-weight="100" text-anchor="start" dominant-baseline="central" x="1001.0" y="1680" transform="translate(960,1680) rotate(0) translate(-960,-1680)">Ragama</text>
  </g>
  <g>
    <text fill="gray" stroke="none" font-size="40" font-family="p22" font-weight="100" text-anchor="end" dominant-baseline="central" x="1399.0" y="1200" transform="translate(1440,1200) rotate(0) translate(-1440,-1200)">Ambepussa</text>
  </g>
  <g>
    <text fill="gray" stroke="none" font-size="40" font-family="p22" font-weight="100" text-anchor="start" dominant-baseline="central" x="1721.0" y="1200" transform="translate(1680,1200) rotate(-90) translate(-1680,-1200)">Polgahawela</text>
  </g>
  <g>
    <text fill="gray" stroke="none" font-size="40" font-family="p22" font-weight="100" text-anchor="start" dominant-baseline="central" x="1961.0" y="1200" transform="translate(1920,1200) rotate(-90) translate(-1920,-1200)">Rambukkana</text>
  </g>
  <g>
    <text fill="gray" stroke="none" font-size="40" font-family="p22" font-weight="100" text-anchor="start" dominant-baseline="central" x="2441.0" y="1440" transform="translate(2400,1440) rotate(0) translate(-2400,-1440)">Gampola</text>
  </g>
  <g>
    <text fill="gray" stroke="none" font-size="40" font-family="p22" font-weight="100" text-anchor="start" dominant-baseline="central" x="2681.0" y="1680" transform="translate(2640,1680) rotate(0) translate(-2640,-1680)">Nawalapitiya</text>
  </g>
  <g>
    <text fill="gray" stroke="none" font-size="40" font-family="p22" font-weight="100" text-anchor="start" dominant-baseline="central" x="2681.0" y="960" transform="translate(2640,960) rotate(-90) translate(-2640,-960)">Wattegama</text>
  </g>
  <g>
    <text fill="gray" stroke="none" font-size="40" font-family="p22" font-weight="100" text-anchor="start" dominant-baseline="central" x="761.0" y="2160" transform="translate(720,2160) rotate(0) translate(-720,-2160)">Panadura</text>
  </g>
  <g>
    <text fill="gray" stroke="none" font-size="40" font-family="p22" font-weight="100" text-anchor="start" dominant-baseline="central" x="761.0" y="2400" transform="translate(720,2400) rotate(0) translate(-720,-2400)">Kalutara N.</text>
  </g>
</svg>
