<?xml version="1.0" ?>
<svg xmlns="http://www.w3.org/2000/svg" width="3600" height="3600" padding="720">
  <text fill="#fcfcfc" stroke="none" font-size="600.0" font-family="p22" x="1800.0" y="1800.0" text-anchor="middle" dominant-baseline="center">@nuuuwan</text>
  <text fill="black" stroke="none" font-size="160" font-family="p22" x="1800.0" y="360.0" text-anchor="middle" dominant-baseline="hanging">1893</text>
  <text fill="gray" stroke="none" font-size="80" font-family="p22" x="1800.0" y="518.0" text-anchor="middle" dominant-baseline="hanging">Sri Lanka's Railway Network</text>
  <text fill="gray" stroke="none" font-size="40" font-family="p22" x="1800.0" y="3280.0" text-anchor="middle" dominant-baseline="text-top">data from railway.gov.lk et al ~ music by @bensound ~ visualization by @nuuuwan</text>
  <g>
    <path fill="none" stroke-width="29.400000000000002" stroke-opacity="1" d="M 720.0,1620.0 L 900.0,1440.0 L 1080.0,1260.0 L 1253.6360389693211,1086.3639610306789 C 1255.7573593128807,1084.2426406871193 1266.0,1080.0 1269.0,1080.0 L 1440.0,1080.0 L 1620.0,1080.0 L 1791.0,1080.0 C 1794.0,1080.0 1804.2426406871193,1084.2426406871193 1806.3639610306789,1086.3639610306789 L 1980.0,1260.0 L 2160.0,1440.0 L 2340.0,1620.0 L 2513.636038969321,1793.6360389693211 C 2515.757359312881,1795.7573593128807 2526.0,1800.0 2529.0,1800.0 L 2700.0,1800.0 L 2880.0,1800.0" stroke="red"/>
    <rect stroke="none" fill-opacity="1" x="2866" y="1772" width="28" height="56" fill="red"/>
  </g>
  <g>
    <path fill="none" stroke-width="29.400000000000002" stroke-opacity="1" d="M 1800.0,1080.0 L 1973.6360389693211,906.363961030679 C 1975.7573593128807,904.2426406871193 1986.0,900.0 1989.0,900.0 L 2160.0,900.0 L 2340.0,900.0" stroke="purple"/>
    <rect stroke="none" fill-opacity="1" x="2326" y="872" width="28" height="56" fill="purple"/>
  </g>
  <g>
    <path fill="none" stroke-width="29.400000000000002" stroke-opacity="1" d="M 720.0,1620.0 L 720.0,1800.0 L 720.0,1980.0 L 720.0,2151.0 C 720.0,2154.0 724.2426406871193,2164.242640687119 726.363961030679,2166.363961030679 L 900.0,2340.0 L 1080.0,2520.0 L 1260.0,2700.0" stroke="cyan"/>
    <rect stroke="none" fill-opacity="1" x="1246" y="2672" width="28" height="56" fill="cyan"/>
  </g>
  <g>
    <text fill="black" stroke="none" font-size="56.0" font-family="p22" font-weight="100" text-anchor="start" dominant-baseline="central" x="2929.0" y="1800" transform="translate(2880,1800) rotate(0) translate(-2880,-1800)">Haputale</text>
  </g>
  <g>
    <text fill="black" stroke="none" font-size="56.0" font-family="p22" font-weight="100" text-anchor="start" dominant-baseline="central" x="2389.0" y="900" transform="translate(2340,900) rotate(0) translate(-2340,-900)">Matale</text>
  </g>
  <g>
    <text fill="black" stroke="none" font-size="56.0" font-family="p22" font-weight="100" text-anchor="start" dominant-baseline="central" x="1309.0" y="2700" transform="translate(1260,2700) rotate(0) translate(-1260,-2700)">Ambalangoda</text>
  </g>
  <g>
    <circle r="28" fill="white" stroke="black" stroke-width="7.0" cx="720" cy="1620"/>
    <text fill="black" stroke="none" font-size="48.0" font-family="p22" font-weight="100" text-anchor="start" dominant-baseline="central" x="765.0" y="1620" transform="translate(720,1620) rotate(0) translate(-720,-1620)">C. Terminus</text>
  </g>
  <g>
    <circle r="28" fill="white" stroke="black" stroke-width="7.0" cx="1800" cy="1080"/>
    <text fill="black" stroke="none" font-size="48.0" font-family="p22" font-weight="100" text-anchor="start" dominant-baseline="central" x="1845.0" y="1080" transform="translate(1800,1080) rotate(0) translate(-1800,-1080)">Peradeniya</text>
  </g>
  <g>
    <text fill="gray" stroke="none" font-size="44.0" font-family="p22" font-weight="100" text-anchor="start" dominant-baseline="central" x="1123.0" y="1260" transform="translate(1080,1260) rotate(0) translate(-1080,-1260)">Gampaha</text>
  </g>
  <g>
    <text fill="gray" stroke="none" font-size="44.0" font-family="p22" font-weight="100" text-anchor="end" dominant-baseline="central" x="1937.0" y="900" transform="translate(1980,900) rotate(0) translate(-1980,-900)">Kandy</text>
  </g>
  <g>
    <text fill="gray" stroke="none" font-size="40" font-family="p22" font-weight="100" text-anchor="start" dominant-baseline="central" x="941.0" y="1440" transform="translate(900,1440) rotate(0) translate(-900,-1440)">Ragama</text>
  </g>
  <g>
    <text fill="gray" stroke="none" font-size="40" font-family="p22" font-weight="100" text-anchor="end" dominant-baseline="central" x="1219.0" y="1080" transform="translate(1260,1080) rotate(0) translate(-1260,-1080)">Ambepussa</text>
  </g>
  <g>
    <text fill="gray" stroke="none" font-size="40" font-family="p22" font-weight="100" text-anchor="start" dominant-baseline="central" x="1481.0" y="1080" transform="translate(1440,1080) rotate(-90) translate(-1440,-1080)">Polgahawela</text>
  </g>
  <g>
    <text fill="gray" stroke="none" font-size="40" font-family="p22" font-weight="100" text-anchor="start" dominant-baseline="central" x="1661.0" y="1080" transform="translate(1620,1080) rotate(-90) translate(-1620,-1080)">Rambukkana</text>
  </g>
  <g>
    <text fill="gray" stroke="none" font-size="40" font-family="p22" font-weight="100" text-anchor="start" dominant-baseline="central" x="2021.0" y="1260" transform="translate(1980,1260) rotate(0) translate(-1980,-1260)">Gampola</text>
  </g>
  <g>
    <text fill="gray" stroke="none" font-size="40" font-family="p22" font-weight="100" text-anchor="start" dominant-baseline="central" x="2201.0" y="1440" transform="translate(2160,1440) rotate(0) translate(-2160,-1440)">Nawalapitiya</text>
  </g>
  <g>
    <text fill="gray" stroke="none" font-size="40" font-family="p22" font-weight="100" text-anchor="start" dominant-baseline="central" x="2381.0" y="1620" transform="translate(2340,1620) rotate(0) translate(-2340,-1620)">Talawakele</text>
  </g>
  <g>
    <text fill="gray" stroke="none" font-size="40" font-family="p22" font-weight="100" text-anchor="end" dominant-baseline="central" x="2479.0" y="1800" transform="translate(2520,1800) rotate(0) translate(-2520,-1800)">Nanu Oya</text>
  </g>
  <g>
    <text fill="gray" stroke="none" font-size="40" font-family="p22" font-weight="100" text-anchor="start" dominant-baseline="central" x="2741.0" y="1800" transform="translate(2700,1800) rotate(-90) translate(-2700,-1800)">Ambewela</text>
  </g>
  <g>
    <text fill="gray" stroke="none" font-size="40" font-family="p22" font-weight="100" text-anchor="start" dominant-baseline="central" x="2201.0" y="900" transform="translate(2160,900) rotate(-90) translate(-2160,-900)">Wattegama</text>
  </g>
  <g>
    <text fill="gray" stroke="none" font-size="40" font-family="p22" font-weight="100" text-anchor="start" dominant-baseline="central" x="761.0" y="1800" transform="translate(720,1800) rotate(0) translate(-720,-1800)">Panadura</text>
  </g>
  <g>
    <text fill="gray" stroke="none" font-size="40" font-family="p22" font-weight="100" text-anchor="start" dominant-baseline="central" x="761.0" y="1980" transform="translate(720,1980) rotate(0) translate(-720,-1980)">Kalutara N.</text>
  </g>
  <g>
    <text fill="gray" stroke="none" font-size="40" font-family="p22" font-weight="100" text-anchor="start" dominant-baseline="central" x="761.0" y="2160" transform="translate(720,2160) rotate(0) translate(-720,-2160)">Wadduwa</text>
  </g>
  <g>
    <text fill="gray" stroke="none" font-size="40" font-family="p22" font-weight="100" text-anchor="start" dominant-baseline="central" x="941.0" y="2340" transform="translate(900,2340) rotate(0) translate(-900,-2340)">Aluthgama</text>
  </g>
  <g>
    <text fill="gray" stroke="none" font-size="40" font-family="p22" font-weight="100" text-anchor="start" dominant-baseline="central" x="1121.0" y="2520" transform="translate(1080,2520) rotate(0) translate(-1080,-2520)">Kosgoda</text>
  </g>
</svg>
