<?xml version="1.0" ?>
<svg xmlns="http://www.w3.org/2000/svg" width="3600" height="3600" padding="720">
  <text fill="#fcfcfc" stroke="none" font-size="600.0" font-family="p22" x="1800.0" y="1800.0" text-anchor="middle" dominant-baseline="center">@nuuuwan</text>
  <text fill="black" stroke="none" font-size="160" font-family="p22" x="1800.0" y="360.0" text-anchor="middle" dominant-baseline="hanging">1926</text>
  <text fill="gray" stroke="none" font-size="80" font-family="p22" x="1800.0" y="518.0" text-anchor="middle" dominant-baseline="hanging">Sri Lanka's Railway Network</text>
  <text fill="gray" stroke="none" font-size="40" font-family="p22" x="1800.0" y="3280.0" text-anchor="middle" dominant-baseline="text-top">data from railway.gov.lk et al ~ music by @bensound ~ visualization by @nuuuwan</text>
  <g>
    <path fill="none" stroke-width="29.400000000000002" stroke-opacity="1" d="M 1044.0,2340.0 L 1152.0,2232.0 L 1260.0,2124.0 L 1368.0,2016.0 L 1472.1816233815925,1911.8183766184075 C 1473.4544155877284,1910.5455844122716 1479.6,1908.0 1481.4,1908.0 L 1584.0,1908.0 L 1692.0,1908.0 L 1794.6,1908.0 C 1796.4,1908.0 1802.5455844122716,1910.5455844122716 1803.8183766184075,1911.8183766184075 L 1908.0,2016.0 L 2016.0,2124.0 L 2124.0,2232.0 L 2228.1816233815925,2336.1816233815925 C 2229.4544155877284,2337.4544155877284 2235.6,2340.0 2237.4,2340.0 L 2340.0,2340.0 L 2448.0,2340.0 L 2550.6,2340.0 C 2552.4,2340.0 2558.5455844122716,2337.4544155877284 2559.8183766184075,2336.1816233815925 L 2664.0,2232.0" stroke="red"/>
    <rect stroke="none" fill-opacity="1" x="2650" y="2204" width="28" height="56" fill="red"/>
  </g>
  <g>
    <path fill="none" stroke-width="29.400000000000002" stroke-opacity="1" d="M 1800.0,1908.0 L 1904.1816233815925,1803.8183766184075 C 1905.4544155877284,1802.5455844122716 1911.6,1800.0 1913.4,1800.0 L 2016.0,1800.0 L 2124.0,1800.0" stroke="purple"/>
    <rect stroke="none" fill-opacity="1" x="2110" y="1772" width="28" height="56" fill="purple"/>
  </g>
  <g>
    <path fill="none" stroke-width="29.400000000000002" stroke-opacity="1" d="M 1044.0,2340.0 L 1044.0,2448.0 L 1044.0,2550.6 C 1044.0,2552.4 1046.5455844122716,2558.5455844122716 1047.8183766184075,2559.8183766184075 L 1152.0,2664.0 L 1260.0,2772.0 L 1364.1816233815925,2876.1816233815925 C 1365.4544155877284,2877.4544155877284 1371.6,2880.0 1373.4,2880.0 L 1476.0,2880.0 L 1584.0,2880.0 L 1692.0,2880.0" stroke="cyan"/>
    <rect stroke="none" fill-opacity="1" x="1678" y="2852" width="28" height="56" fill="cyan"/>
  </g>
  <g>
    <path fill="none" stroke-width="29.400000000000002" stroke-opacity="1" d="M 1584.0,1908.0 L 1584.0,1800.0 L 1584.0,1692.0 L 1584.0,1584.0 L 1584.0,1476.0 L 1584.0,1368.0 L 1584.0,1260.0 L 1584.0,1152.0 L 1584.0,1049.4 C 1584.0,1047.6 1581.4544155877284,1041.4544155877284 1580.1816233815925,1040.1816233815925 L 1476.0,936.0 L 1371.8183766184075,831.8183766184073 C 1370.5455844122716,830.5455844122715 1368.0,824.4 1368.0,822.6 L 1368.0,720.0" stroke="orange"/>
    <rect stroke="none" fill-opacity="1" x="1340" y="706" width="56" height="28" fill="orange"/>
  </g>
  <g>
    <path fill="none" stroke-width="29.400000000000002" stroke-opacity="1" d="M 1152.0,2232.0 L 1256.1816233815925,2336.1816233815925 C 1257.4544155877284,2337.4544155877284 1263.6,2340.0 1265.4,2340.0 L 1362.87,2340.0 C 1364.58,2340.0 1370.418305191658,2337.581694808342 1371.627457787487,2336.372542212513 L 1476.0,2232.0" stroke="darkblue"/>
    <rect stroke="none" fill-opacity="1" x="1462" y="2204" width="28" height="56" fill="darkblue"/>
  </g>
  <g>
    <path fill="none" stroke-width="29.400000000000002" stroke-opacity="1" d="M 2232.0,2340.0 L 2232.0,2237.4 C 2232.0,2235.6 2234.5455844122716,2229.4544155877284 2235.8183766184075,2228.1816233815925 L 2336.1816233815925,2127.8183766184075 C 2337.4544155877284,2126.5455844122716 2343.6,2124.0 2345.4,2124.0 L 2448.0,2124.0" stroke="gray"/>
    <rect stroke="none" fill-opacity="1" x="2434" y="2096" width="28" height="56" fill="gray"/>
  </g>
  <g>
    <path fill="none" stroke-width="29.400000000000002" stroke-opacity="1" d="M 1260.0,2124.0 L 1152.0,2016.0 L 1044.0,1908.0 L 939.8183766184073,1803.8183766184075 C 938.5455844122715,1802.5455844122716 936.0,1796.4 936.0,1794.6 L 936.0,1692.0 L 936.0,1584.0 L 936.0,1476.0 L 936.0,1368.0 L 936.0,1260.0" stroke="green"/>
    <rect stroke="none" fill-opacity="1" x="908" y="1246" width="56" height="28" fill="green"/>
  </g>
  <g>
    <path fill="none" stroke-width="29.400000000000002" stroke-opacity="1" d="M 1368.0,2340.0 L 1472.1816233815925,2444.1816233815925 C 1473.4544155877284,2445.4544155877284 1479.6,2448.0 1481.4,2448.0 L 1584.0,2448.0" stroke="lightblue"/>
    <rect stroke="none" fill-opacity="1" x="1570" y="2420" width="28" height="56" fill="lightblue"/>
  </g>
  <g>
    <path fill="none" stroke-width="29.400000000000002" stroke-opacity="1" d="M 1584.0,1368.0 L 1476.0,1260.0 L 1371.8183766184075,1155.8183766184075 C 1370.5455844122716,1154.5455844122716 1364.4,1152.0 1362.6,1152.0 L 1260.0,1152.0" stroke="blue"/>
    <rect stroke="none" fill-opacity="1" x="1246" y="1124" width="28" height="56" fill="blue"/>
  </g>
  <g>
    <path fill="none" stroke-width="29.400000000000002" stroke-opacity="1" d="M 1584.0,1692.0 L 1692.0,1584.0" stroke="darkgreen"/>
    <rect stroke="none" fill-opacity="1" x="1678" y="1556" width="28" height="56" fill="darkgreen"/>
  </g>
  <g>
    <text fill="black" stroke="none" font-size="56.0" font-family="p22" font-weight="100" text-anchor="start" dominant-baseline="central" x="2713.0" y="2232" transform="translate(2664,2232) rotate(0) translate(-2664,-2232)">Badulla</text>
  </g>
  <g>
    <text fill="black" stroke="none" font-size="56.0" font-family="p22" font-weight="100" text-anchor="start" dominant-baseline="central" x="2173.0" y="1800" transform="translate(2124,1800) rotate(0) translate(-2124,-1800)">Matale</text>
  </g>
  <g>
    <text fill="black" stroke="none" font-size="56.0" font-family="p22" font-weight="100" text-anchor="start" dominant-baseline="central" x="1741.0" y="2880" transform="translate(1692,2880) rotate(0) translate(-1692,-2880)">Matara</text>
  </g>
  <g>
    <text fill="black" stroke="none" font-size="56.0" font-family="p22" font-weight="100" text-anchor="start" dominant-baseline="central" x="1417.0" y="720" transform="translate(1368,720) rotate(0) translate(-1368,-720)">Kankesanthurai</text>
  </g>
  <g>
    <text fill="black" stroke="none" font-size="56.0" font-family="p22" font-weight="100" text-anchor="start" dominant-baseline="central" x="1525.0" y="2232" transform="translate(1476,2232) rotate(0) translate(-1476,-2232)">Yatiyantota</text>
  </g>
  <g>
    <text fill="black" stroke="none" font-size="56.0" font-family="p22" font-weight="100" text-anchor="start" dominant-baseline="central" x="2497.0" y="2124" transform="translate(2448,2124) rotate(0) translate(-2448,-2124)">Ragala</text>
  </g>
  <g>
    <text fill="black" stroke="none" font-size="56.0" font-family="p22" font-weight="100" text-anchor="start" dominant-baseline="central" x="985.0" y="1260" transform="translate(936,1260) rotate(0) translate(-936,-1260)">Puttalam</text>
  </g>
  <g>
    <text fill="black" stroke="none" font-size="56.0" font-family="p22" font-weight="100" text-anchor="start" dominant-baseline="central" x="1633.0" y="2448" transform="translate(1584,2448) rotate(0) translate(-1584,-2448)">Opanayaka</text>
  </g>
  <g>
    <text fill="black" stroke="none" font-size="56.0" font-family="p22" font-weight="100" text-anchor="end" dominant-baseline="central" x="1211.0" y="1152" transform="translate(1260,1152) rotate(0) translate(-1260,-1152)">Talaimanar Pier</text>
  </g>
  <g>
    <text fill="black" stroke="none" font-size="56.0" font-family="p22" font-weight="100" text-anchor="start" dominant-baseline="central" x="1741.0" y="1584" transform="translate(1692,1584) rotate(0) translate(-1692,-1584)">Gal Oya</text>
  </g>
  <g>
    <circle r="28" fill="white" stroke="black" stroke-width="7.0" cx="1044" cy="2340"/>
    <text fill="black" stroke="none" font-size="48.0" font-family="p22" font-weight="100" text-anchor="start" dominant-baseline="central" x="1089.0" y="2340" transform="translate(1044,2340) rotate(0) translate(-1044,-2340)">C. Fort</text>
  </g>
  <g>
    <circle r="28" fill="white" stroke="black" stroke-width="7.0" cx="1152" cy="2232"/>
    <text fill="black" stroke="none" font-size="48.0" font-family="p22" font-weight="100" text-anchor="start" dominant-baseline="central" x="1197.0" y="2232" transform="translate(1152,2232) rotate(0) translate(-1152,-2232)">Maradana</text>
  </g>
  <g>
    <circle r="28" fill="white" stroke="black" stroke-width="7.0" cx="1260" cy="2124"/>
    <text fill="black" stroke="none" font-size="48.0" font-family="p22" font-weight="100" text-anchor="start" dominant-baseline="central" x="1305.0" y="2124" transform="translate(1260,2124) rotate(0) translate(-1260,-2124)">Ragama</text>
  </g>
  <g>
    <circle r="28" fill="white" stroke="black" stroke-width="7.0" cx="1584" cy="1908"/>
    <text fill="black" stroke="none" font-size="48.0" font-family="p22" font-weight="100" text-anchor="end" dominant-baseline="central" x="1539.0" y="1908" transform="translate(1584,1908) rotate(-90) translate(-1584,-1908)">Polgahawela</text>
  </g>
  <g>
    <circle r="28" fill="white" stroke="black" stroke-width="7.0" cx="1800" cy="1908"/>
    <text fill="black" stroke="none" font-size="48.0" font-family="p22" font-weight="100" text-anchor="start" dominant-baseline="central" x="1845.0" y="1908" transform="translate(1800,1908) rotate(0) translate(-1800,-1908)">Peradeniya</text>
  </g>
  <g>
    <circle r="28" fill="white" stroke="black" stroke-width="7.0" cx="2232" cy="2340"/>
    <text fill="black" stroke="none" font-size="48.0" font-family="p22" font-weight="100" text-anchor="end" dominant-baseline="central" x="2187.0" y="2340" transform="translate(2232,2340) rotate(0) translate(-2232,-2340)">Nanu Oya</text>
  </g>
  <g>
    <circle r="28" fill="white" stroke="black" stroke-width="7.0" cx="1584" cy="1692"/>
    <text fill="black" stroke="none" font-size="48.0" font-family="p22" font-weight="100" text-anchor="start" dominant-baseline="central" x="1629.0" y="1692" transform="translate(1584,1692) rotate(0) translate(-1584,-1692)">Maho</text>
  </g>
  <g>
    <circle r="28" fill="white" stroke="black" stroke-width="7.0" cx="1584" cy="1368"/>
    <text fill="black" stroke="none" font-size="48.0" font-family="p22" font-weight="100" text-anchor="start" dominant-baseline="central" x="1629.0" y="1368" transform="translate(1584,1368) rotate(0) translate(-1584,-1368)">Medavachchiya</text>
  </g>
  <g>
    <circle r="28" fill="white" stroke="black" stroke-width="7.0" cx="1368" cy="2340"/>
    <text fill="black" stroke="none" font-size="48.0" font-family="p22" font-weight="100" text-anchor="start" dominant-baseline="central" x="1413.0" y="2340" transform="translate(1368,2340) rotate(0) translate(-1368,-2340)">Avissawella</text>
  </g>
  <g>
    <text fill="gray" stroke="none" font-size="44.0" font-family="p22" font-weight="100" text-anchor="start" dominant-baseline="central" x="1411.0" y="2016" transform="translate(1368,2016) rotate(0) translate(-1368,-2016)">Gampaha</text>
  </g>
  <g>
    <text fill="gray" stroke="none" font-size="44.0" font-family="p22" font-weight="100" text-anchor="end" dominant-baseline="central" x="1865.0" y="1800" transform="translate(1908,1800) rotate(0) translate(-1908,-1800)">Kandy</text>
  </g>
  <g>
    <text fill="gray" stroke="none" font-size="44.0" font-family="p22" font-weight="100" text-anchor="start" dominant-baseline="central" x="1627.0" y="2880" transform="translate(1584,2880) rotate(-90) translate(-1584,-2880)">Galle</text>
  </g>
  <g>
    <text fill="gray" stroke="none" font-size="44.0" font-family="p22" font-weight="100" text-anchor="start" dominant-baseline="central" x="1627.0" y="1800" transform="translate(1584,1800) rotate(0) translate(-1584,-1800)">Kurunegala</text>
  </g>
  <g>
    <text fill="gray" stroke="none" font-size="44.0" font-family="p22" font-weight="100" text-anchor="end" dominant-baseline="central" x="1541.0" y="1584" transform="translate(1584,1584) rotate(0) translate(-1584,-1584)">Anuradhapura</text>
  </g>
  <g>
    <text fill="gray" stroke="none" font-size="44.0" font-family="p22" font-weight="100" text-anchor="start" dominant-baseline="central" x="1627.0" y="1260" transform="translate(1584,1260) rotate(0) translate(-1584,-1260)">Vavuniya</text>
  </g>
  <g>
    <text fill="gray" stroke="none" font-size="44.0" font-family="p22" font-weight="100" text-anchor="start" dominant-baseline="central" x="1627.0" y="1044" transform="translate(1584,1044) rotate(0) translate(-1584,-1044)">Kilinochchi</text>
  </g>
  <g>
    <text fill="gray" stroke="none" font-size="44.0" font-family="p22" font-weight="100" text-anchor="start" dominant-baseline="central" x="1411.0" y="828" transform="translate(1368,828) rotate(0) translate(-1368,-828)">Jaffna</text>
  </g>
  <g>
    <text fill="gray" stroke="none" font-size="44.0" font-family="p22" font-weight="100" text-anchor="start" dominant-baseline="central" x="2275.0" y="2232" transform="translate(2232,2232) rotate(0) translate(-2232,-2232)">Nuwara Eliya</text>
  </g>
  <g>
    <text fill="gray" stroke="none" font-size="44.0" font-family="p22" font-weight="100" text-anchor="end" dominant-baseline="central" x="1433.0" y="2448" transform="translate(1476,2448) rotate(0) translate(-1476,-2448)">Ratnapura</text>
  </g>
  <g>
    <text fill="gray" stroke="none" font-size="44.0" font-family="p22" font-weight="100" text-anchor="start" dominant-baseline="central" x="1411.0" y="1152" transform="translate(1368,1152) rotate(0) translate(-1368,-1152)">Mannar</text>
  </g>
  <g>
    <text fill="gray" stroke="none" font-size="40" font-family="p22" font-weight="100" text-anchor="end" dominant-baseline="central" x="1435.0" y="1908" transform="translate(1476,1908) rotate(0) translate(-1476,-1908)">Ambepussa</text>
  </g>
  <g>
    <text fill="gray" stroke="none" font-size="40" font-family="p22" font-weight="100" text-anchor="end" dominant-baseline="central" x="1651.0" y="1908" transform="translate(1692,1908) rotate(-90) translate(-1692,-1908)">Rambukkana</text>
  </g>
  <g>
    <text fill="gray" stroke="none" font-size="40" font-family="p22" font-weight="100" text-anchor="start" dominant-baseline="central" x="1949.0" y="2016" transform="translate(1908,2016) rotate(0) translate(-1908,-2016)">Gampola</text>
  </g>
  <g>
    <text fill="gray" stroke="none" font-size="40" font-family="p22" font-weight="100" text-anchor="start" dominant-baseline="central" x="2057.0" y="2124" transform="translate(2016,2124) rotate(0) translate(-2016,-2124)">Nawalapitiya</text>
  </g>
  <g>
    <text fill="gray" stroke="none" font-size="40" font-family="p22" font-weight="100" text-anchor="end" dominant-baseline="central" x="2083.0" y="2232" transform="translate(2124,2232) rotate(0) translate(-2124,-2232)">Talawakele</text>
  </g>
  <g>
    <text fill="gray" stroke="none" font-size="40" font-family="p22" font-weight="100" text-anchor="end" dominant-baseline="central" x="2299.0" y="2340" transform="translate(2340,2340) rotate(-90) translate(-2340,-2340)">Ambewela</text>
  </g>
  <g>
    <text fill="gray" stroke="none" font-size="40" font-family="p22" font-weight="100" text-anchor="start" dominant-baseline="central" x="2489.0" y="2340" transform="translate(2448,2340) rotate(-90) translate(-2448,-2340)">Haputale</text>
  </g>
  <g>
    <text fill="gray" stroke="none" font-size="40" font-family="p22" font-weight="100" text-anchor="start" dominant-baseline="central" x="2597.0" y="2340" transform="translate(2556,2340) rotate(0) translate(-2556,-2340)">Bandarawela</text>
  </g>
  <g>
    <text fill="gray" stroke="none" font-size="40" font-family="p22" font-weight="100" text-anchor="start" dominant-baseline="central" x="2057.0" y="1800" transform="translate(2016,1800) rotate(-90) translate(-2016,-1800)">Wattegama</text>
  </g>
  <g>
    <text fill="gray" stroke="none" font-size="40" font-family="p22" font-weight="100" text-anchor="start" dominant-baseline="central" x="1085.0" y="2448" transform="translate(1044,2448) rotate(0) translate(-1044,-2448)">Panadura</text>
  </g>
  <g>
    <text fill="gray" stroke="none" font-size="40" font-family="p22" font-weight="100" text-anchor="start" dominant-baseline="central" x="1085.0" y="2556" transform="translate(1044,2556) rotate(0) translate(-1044,-2556)">Kalutara N.</text>
  </g>
  <g>
    <text fill="gray" stroke="none" font-size="40" font-family="p22" font-weight="100" text-anchor="start" dominant-baseline="central" x="1193.0" y="2664" transform="translate(1152,2664) rotate(0) translate(-1152,-2664)">Wadduwa</text>
  </g>
  <g>
    <text fill="gray" stroke="none" font-size="40" font-family="p22" font-weight="100" text-anchor="start" dominant-baseline="central" x="1301.0" y="2772" transform="translate(1260,2772) rotate(0) translate(-1260,-2772)">Aluthgama</text>
  </g>
  <g>
    <text fill="gray" stroke="none" font-size="40" font-family="p22" font-weight="100" text-anchor="end" dominant-baseline="central" x="1327.0" y="2880" transform="translate(1368,2880) rotate(0) translate(-1368,-2880)">Kosgoda</text>
  </g>
  <g>
    <text fill="gray" stroke="none" font-size="40" font-family="p22" font-weight="100" text-anchor="start" dominant-baseline="central" x="1517.0" y="2880" transform="translate(1476,2880) rotate(-90) translate(-1476,-2880)">Ambalangoda</text>
  </g>
  <g>
    <text fill="gray" stroke="none" font-size="40" font-family="p22" font-weight="100" text-anchor="start" dominant-baseline="central" x="1625.0" y="1476" transform="translate(1584,1476) rotate(0) translate(-1584,-1476)">Mihintale Junction</text>
  </g>
  <g>
    <text fill="gray" stroke="none" font-size="40" font-family="p22" font-weight="100" text-anchor="start" dominant-baseline="central" x="1625.0" y="1152" transform="translate(1584,1152) rotate(0) translate(-1584,-1152)">Omanthai</text>
  </g>
  <g>
    <text fill="gray" stroke="none" font-size="40" font-family="p22" font-weight="100" text-anchor="start" dominant-baseline="central" x="1517.0" y="936" transform="translate(1476,936) rotate(0) translate(-1476,-936)">Pallai</text>
  </g>
  <g>
    <text fill="gray" stroke="none" font-size="40" font-family="p22" font-weight="100" text-anchor="end" dominant-baseline="central" x="1219.0" y="2340" transform="translate(1260,2340) rotate(-90) translate(-1260,-2340)">Homagama</text>
  </g>
  <g>
    <text fill="gray" stroke="none" font-size="40" font-family="p22" font-weight="100" text-anchor="end" dominant-baseline="central" x="2299.0" y="2124" transform="translate(2340,2124) rotate(0) translate(-2340,-2124)">Kandapola</text>
  </g>
  <g>
    <text fill="gray" stroke="none" font-size="40" font-family="p22" font-weight="100" text-anchor="start" dominant-baseline="central" x="1193.0" y="2016" transform="translate(1152,2016) rotate(0) translate(-1152,-2016)">Ja-Ela</text>
  </g>
  <g>
    <text fill="gray" stroke="none" font-size="40" font-family="p22" font-weight="100" text-anchor="start" dominant-baseline="central" x="1085.0" y="1908" transform="translate(1044,1908) rotate(0) translate(-1044,-1908)">Katunayake S.</text>
  </g>
  <g>
    <text fill="gray" stroke="none" font-size="40" font-family="p22" font-weight="100" text-anchor="start" dominant-baseline="central" x="977.0" y="1800" transform="translate(936,1800) rotate(0) translate(-936,-1800)">Negombo</text>
  </g>
  <g>
    <text fill="gray" stroke="none" font-size="40" font-family="p22" font-weight="100" text-anchor="start" dominant-baseline="central" x="977.0" y="1692" transform="translate(936,1692) rotate(0) translate(-936,-1692)">Nattandiya</text>
  </g>
  <g>
    <text fill="gray" stroke="none" font-size="40" font-family="p22" font-weight="100" text-anchor="start" dominant-baseline="central" x="977.0" y="1584" transform="translate(936,1584) rotate(0) translate(-936,-1584)">Madampe</text>
  </g>
  <g>
    <text fill="gray" stroke="none" font-size="40" font-family="p22" font-weight="100" text-anchor="start" dominant-baseline="central" x="977.0" y="1476" transform="translate(936,1476) rotate(0) translate(-936,-1476)">Chilaw</text>
  </g>
  <g>
    <text fill="gray" stroke="none" font-size="40" font-family="p22" font-weight="100" text-anchor="start" dominant-baseline="central" x="977.0" y="1368" transform="translate(936,1368) rotate(0) translate(-936,-1368)">Bangadeniya</text>
  </g>
  <g>
    <text fill="gray" stroke="none" font-size="40" font-family="p22" font-weight="100" text-anchor="end" dominant-baseline="central" x="1435.0" y="1260" transform="translate(1476,1260) rotate(0) translate(-1476,-1260)">Madhu Road</text>
  </g>
</svg>
