<?xml version="1.0" ?>
<svg xmlns="http://www.w3.org/2000/svg" width="3600" height="3600" padding="720">
  <text fill="#fcfcfc" stroke="none" font-size="600.0" font-family="p22" x="1800.0" y="1800.0" text-anchor="middle" dominant-baseline="center">@nuuuwan</text>
  <text fill="black" stroke="none" font-size="160" font-family="p22" x="1800.0" y="360.0" text-anchor="middle" dominant-baseline="hanging">2003</text>
  <text fill="gray" stroke="none" font-size="80" font-family="p22" x="1800.0" y="518.0" text-anchor="middle" dominant-baseline="hanging">Sri Lanka's Railway Network</text>
  <text fill="gray" stroke="none" font-size="40" font-family="p22" x="1800.0" y="3280.0" text-anchor="middle" dominant-baseline="text-top">data from railway.gov.lk et al ~ music by @bensound ~ visualization by @nuuuwan</text>
  <g>
    <path fill="none" stroke-width="29.400000000000002" stroke-opacity="1" d="M 855.0,2205.0 L 990.0,2070.0 L 1125.0,1935.0 L 1260.0,1800.0 L 1390.227029226991,1669.772970773009 C 1391.8180194846605,1668.1819805153395 1399.5,1665.0 1401.75,1665.0 L 1530.0,1665.0 L 1665.0,1665.0 L 1793.25,1665.0 C 1795.5,1665.0 1803.1819805153395,1668.1819805153395 1804.772970773009,1669.772970773009 L 1935.0,1800.0 L 2070.0,1935.0 L 2205.0,2070.0 L 2335.227029226991,2200.227029226991 C 2336.8180194846605,2201.8180194846605 2344.5,2205.0 2346.75,2205.0 L 2475.0,2205.0 L 2610.0,2205.0 L 2738.25,2205.0 C 2740.5,2205.0 2748.1819805153395,2201.8180194846605 2749.772970773009,2200.227029226991 L 2880.0,2070.0" stroke="red"/>
    <rect stroke="none" fill-opacity="1" x="2866" y="2042" width="28" height="56" fill="red"/>
  </g>
  <g>
    <path fill="none" stroke-width="29.400000000000002" stroke-opacity="1" d="M 1800.0,1665.0 L 1930.227029226991,1534.772970773009 C 1931.8180194846605,1533.1819805153395 1939.5,1530.0 1941.75,1530.0 L 2070.0,1530.0 L 2205.0,1530.0" stroke="purple"/>
    <rect stroke="none" fill-opacity="1" x="2191" y="1502" width="28" height="56" fill="purple"/>
  </g>
  <g>
    <path fill="none" stroke-width="29.400000000000002" stroke-opacity="1" d="M 855.0,2205.0 L 855.0,2340.0 L 855.0,2468.25 C 855.0,2470.5 858.1819805153394,2478.1819805153395 859.7729707730092,2479.772970773009 L 990.0,2610.0 L 1125.0,2745.0 L 1255.227029226991,2875.227029226991 C 1256.8180194846605,2876.8180194846605 1264.5,2880.0 1266.75,2880.0 L 1395.0,2880.0 L 1530.0,2880.0 L 1665.0,2880.0" stroke="cyan"/>
    <rect stroke="none" fill-opacity="1" x="1651" y="2852" width="28" height="56" fill="cyan"/>
  </g>
  <g>
    <path fill="none" stroke-width="29.400000000000002" stroke-opacity="1" d="M 1530.0,1665.0 L 1530.0,1530.0 L 1530.0,1395.0 L 1530.0,1260.0 L 1530.0,1125.0 L 1530.0,990.0 L 1530.0,855.0" stroke="orange"/>
    <rect stroke="none" fill-opacity="1" x="1502" y="841" width="56" height="28" fill="orange"/>
  </g>
  <g>
    <path fill="none" stroke-width="29.400000000000002" stroke-opacity="1" d="M 990.0,2070.0 L 1120.227029226991,2200.227029226991 C 1121.8180194846605,2201.8180194846605 1129.5,2205.0 1131.75,2205.0 L 1260.0,2205.0" stroke="darkblue"/>
    <rect stroke="none" fill-opacity="1" x="1246" y="2177" width="28" height="56" fill="darkblue"/>
  </g>
  <g>
    <path fill="none" stroke-width="29.400000000000002" stroke-opacity="1" d="M 1125.0,1935.0 L 990.0,1800.0 L 855.0,1665.0 L 724.7729707730092,1534.772970773009 C 723.1819805153394,1533.1819805153395 720.0,1525.5 720.0,1523.25 L 720.0,1395.0 L 720.0,1260.0 L 720.0,1125.0 L 720.0,990.0 L 720.0,855.0 L 720.0,720.0" stroke="green"/>
    <rect stroke="none" fill-opacity="1" x="692" y="706" width="56" height="28" fill="green"/>
  </g>
  <g>
    <path fill="none" stroke-width="29.400000000000002" stroke-opacity="1" d="M 1530.0,1395.0 L 1658.25,1266.75 C 1660.5,1264.5 1669.5,1264.5 1671.75,1266.75 L 1795.227029226991,1390.227029226991 C 1796.8180194846605,1391.8180194846605 1804.5,1395.0 1806.75,1395.0 L 1935.0,1395.0" stroke="darkgreen"/>
    <rect stroke="none" fill-opacity="1" x="1921" y="1367" width="28" height="56" fill="darkgreen"/>
  </g>
  <g>
    <path fill="none" stroke-width="29.400000000000002" stroke-opacity="1" d="M 1665.0,1260.0 L 1800.0,1125.0" stroke="silver"/>
    <rect stroke="none" fill-opacity="1" x="1786" y="1097" width="28" height="56" fill="silver"/>
  </g>
  <g>
    <path fill="none" stroke-width="29.400000000000002" stroke-opacity="1" d="M 855.0,1665.0 L 855.0,1530.0" stroke="pink"/>
    <rect stroke="none" fill-opacity="1" x="827" y="1516" width="56" height="28" fill="pink"/>
  </g>
  <g>
    <path fill="none" stroke-width="29.400000000000002" stroke-opacity="1" d="M 1530.0,1125.0 L 1665.0,1125.0" stroke="maroon"/>
    <rect stroke="none" fill-opacity="1" x="1651" y="1097" width="28" height="56" fill="maroon"/>
  </g>
  <g>
    <text fill="black" stroke="none" font-size="56.0" font-family="p22" font-weight="100" text-anchor="start" dominant-baseline="central" x="2929.0" y="2070" transform="translate(2880,2070) rotate(0) translate(-2880,-2070)">Badulla</text>
  </g>
  <g>
    <text fill="black" stroke="none" font-size="56.0" font-family="p22" font-weight="100" text-anchor="start" dominant-baseline="central" x="2254.0" y="1530" transform="translate(2205,1530) rotate(0) translate(-2205,-1530)">Matale</text>
  </g>
  <g>
    <text fill="black" stroke="none" font-size="56.0" font-family="p22" font-weight="100" text-anchor="start" dominant-baseline="central" x="1714.0" y="2880" transform="translate(1665,2880) rotate(0) translate(-1665,-2880)">Matara</text>
  </g>
  <g>
    <text fill="black" stroke="none" font-size="56.0" font-family="p22" font-weight="100" text-anchor="start" dominant-baseline="central" x="1579.0" y="855" transform="translate(1530,855) rotate(0) translate(-1530,-855)">Vavuniya</text>
  </g>
  <g>
    <text fill="black" stroke="none" font-size="56.0" font-family="p22" font-weight="100" text-anchor="start" dominant-baseline="central" x="1309.0" y="2205" transform="translate(1260,2205) rotate(0) translate(-1260,-2205)">Avissawella</text>
  </g>
  <g>
    <text fill="black" stroke="none" font-size="56.0" font-family="p22" font-weight="100" text-anchor="start" dominant-baseline="central" x="769.0" y="720" transform="translate(720,720) rotate(0) translate(-720,-720)">Periyanagavillu</text>
  </g>
  <g>
    <text fill="black" stroke="none" font-size="56.0" font-family="p22" font-weight="100" text-anchor="start" dominant-baseline="central" x="1984.0" y="1395" transform="translate(1935,1395) rotate(0) translate(-1935,-1395)">Batticaloa</text>
  </g>
  <g>
    <text fill="black" stroke="none" font-size="56.0" font-family="p22" font-weight="100" text-anchor="start" dominant-baseline="central" x="1849.0" y="1125" transform="translate(1800,1125) rotate(0) translate(-1800,-1125)">Trincomalee</text>
  </g>
  <g>
    <text fill="black" stroke="none" font-size="56.0" font-family="p22" font-weight="100" text-anchor="start" dominant-baseline="central" x="904.0" y="1530" transform="translate(855,1530) rotate(0) translate(-855,-1530)">CMB Airport</text>
  </g>
  <g>
    <text fill="black" stroke="none" font-size="56.0" font-family="p22" font-weight="100" text-anchor="start" dominant-baseline="central" x="1714.0" y="1125" transform="translate(1665,1125) rotate(-90) translate(-1665,-1125)">Mihintale</text>
  </g>
  <g>
    <circle r="28" fill="white" stroke="black" stroke-width="7.0" cx="855" cy="2205"/>
    <text fill="black" stroke="none" font-size="48.0" font-family="p22" font-weight="100" text-anchor="start" dominant-baseline="central" x="900.0" y="2205" transform="translate(855,2205) rotate(0) translate(-855,-2205)">C. Fort</text>
  </g>
  <g>
    <circle r="28" fill="white" stroke="black" stroke-width="7.0" cx="990" cy="2070"/>
    <text fill="black" stroke="none" font-size="48.0" font-family="p22" font-weight="100" text-anchor="start" dominant-baseline="central" x="1035.0" y="2070" transform="translate(990,2070) rotate(0) translate(-990,-2070)">Maradana</text>
  </g>
  <g>
    <circle r="28" fill="white" stroke="black" stroke-width="7.0" cx="1125" cy="1935"/>
    <text fill="black" stroke="none" font-size="48.0" font-family="p22" font-weight="100" text-anchor="start" dominant-baseline="central" x="1170.0" y="1935" transform="translate(1125,1935) rotate(0) translate(-1125,-1935)">Ragama</text>
  </g>
  <g>
    <circle r="28" fill="white" stroke="black" stroke-width="7.0" cx="1530" cy="1665"/>
    <text fill="black" stroke="none" font-size="48.0" font-family="p22" font-weight="100" text-anchor="end" dominant-baseline="central" x="1485.0" y="1665" transform="translate(1530,1665) rotate(-90) translate(-1530,-1665)">Polgahawela</text>
  </g>
  <g>
    <circle r="28" fill="white" stroke="black" stroke-width="7.0" cx="1800" cy="1665"/>
    <text fill="black" stroke="none" font-size="48.0" font-family="p22" font-weight="100" text-anchor="start" dominant-baseline="central" x="1845.0" y="1665" transform="translate(1800,1665) rotate(0) translate(-1800,-1665)">Peradeniya</text>
  </g>
  <g>
    <circle r="28" fill="white" stroke="black" stroke-width="7.0" cx="1530" cy="1395"/>
    <text fill="black" stroke="none" font-size="48.0" font-family="p22" font-weight="100" text-anchor="start" dominant-baseline="central" x="1575.0" y="1395" transform="translate(1530,1395) rotate(0) translate(-1530,-1395)">Maho</text>
  </g>
  <g>
    <circle r="28" fill="white" stroke="black" stroke-width="7.0" cx="1530" cy="1125"/>
    <text fill="black" stroke="none" font-size="48.0" font-family="p22" font-weight="100" text-anchor="end" dominant-baseline="central" x="1485.0" y="1125" transform="translate(1530,1125) rotate(0) translate(-1530,-1125)">Mihintale Junction</text>
  </g>
  <g>
    <circle r="28" fill="white" stroke="black" stroke-width="7.0" cx="855" cy="1665"/>
    <text fill="black" stroke="none" font-size="48.0" font-family="p22" font-weight="100" text-anchor="start" dominant-baseline="central" x="900.0" y="1665" transform="translate(855,1665) rotate(0) translate(-855,-1665)">Katunayake S.</text>
  </g>
  <g>
    <circle r="28" fill="white" stroke="black" stroke-width="7.0" cx="1665" cy="1260"/>
    <text fill="black" stroke="none" font-size="48.0" font-family="p22" font-weight="100" text-anchor="start" dominant-baseline="central" x="1710.0" y="1260" transform="translate(1665,1260) rotate(0) translate(-1665,-1260)">Gal Oya</text>
  </g>
  <g>
    <text fill="gray" stroke="none" font-size="44.0" font-family="p22" font-weight="100" text-anchor="start" dominant-baseline="central" x="1303.0" y="1800" transform="translate(1260,1800) rotate(0) translate(-1260,-1800)">Gampaha</text>
  </g>
  <g>
    <text fill="gray" stroke="none" font-size="44.0" font-family="p22" font-weight="100" text-anchor="end" dominant-baseline="central" x="1892.0" y="1530" transform="translate(1935,1530) rotate(0) translate(-1935,-1530)">Kandy</text>
  </g>
  <g>
    <text fill="gray" stroke="none" font-size="44.0" font-family="p22" font-weight="100" text-anchor="start" dominant-baseline="central" x="1573.0" y="2880" transform="translate(1530,2880) rotate(-90) translate(-1530,-2880)">Galle</text>
  </g>
  <g>
    <text fill="gray" stroke="none" font-size="44.0" font-family="p22" font-weight="100" text-anchor="start" dominant-baseline="central" x="1573.0" y="1530" transform="translate(1530,1530) rotate(0) translate(-1530,-1530)">Kurunegala</text>
  </g>
  <g>
    <text fill="gray" stroke="none" font-size="44.0" font-family="p22" font-weight="100" text-anchor="end" dominant-baseline="central" x="1487.0" y="1260" transform="translate(1530,1260) rotate(0) translate(-1530,-1260)">Anuradhapura</text>
  </g>
  <g>
    <text fill="gray" stroke="none" font-size="44.0" font-family="p22" font-weight="100" text-anchor="start" dominant-baseline="central" x="763.0" y="855" transform="translate(720,855) rotate(0) translate(-720,-855)">Puttalam</text>
  </g>
  <g>
    <text fill="gray" stroke="none" font-size="44.0" font-family="p22" font-weight="100" text-anchor="start" dominant-baseline="central" x="1843.0" y="1395" transform="translate(1800,1395) rotate(-45) translate(-1800,-1395)">Polonnaruwa</text>
  </g>
  <g>
    <text fill="gray" stroke="none" font-size="40" font-family="p22" font-weight="100" text-anchor="end" dominant-baseline="central" x="1354.0" y="1665" transform="translate(1395,1665) rotate(0) translate(-1395,-1665)">Ambepussa</text>
  </g>
  <g>
    <text fill="gray" stroke="none" font-size="40" font-family="p22" font-weight="100" text-anchor="end" dominant-baseline="central" x="1624.0" y="1665" transform="translate(1665,1665) rotate(-90) translate(-1665,-1665)">Rambukkana</text>
  </g>
  <g>
    <text fill="gray" stroke="none" font-size="40" font-family="p22" font-weight="100" text-anchor="start" dominant-baseline="central" x="1976.0" y="1800" transform="translate(1935,1800) rotate(0) translate(-1935,-1800)">Gampola</text>
  </g>
  <g>
    <text fill="gray" stroke="none" font-size="40" font-family="p22" font-weight="100" text-anchor="start" dominant-baseline="central" x="2111.0" y="1935" transform="translate(2070,1935) rotate(0) translate(-2070,-1935)">Nawalapitiya</text>
  </g>
  <g>
    <text fill="gray" stroke="none" font-size="40" font-family="p22" font-weight="100" text-anchor="start" dominant-baseline="central" x="2246.0" y="2070" transform="translate(2205,2070) rotate(0) translate(-2205,-2070)">Talawakele</text>
  </g>
  <g>
    <text fill="gray" stroke="none" font-size="40" font-family="p22" font-weight="100" text-anchor="end" dominant-baseline="central" x="2299.0" y="2205" transform="translate(2340,2205) rotate(0) translate(-2340,-2205)">Nanu Oya</text>
  </g>
  <g>
    <text fill="gray" stroke="none" font-size="40" font-family="p22" font-weight="100" text-anchor="start" dominant-baseline="central" x="2516.0" y="2205" transform="translate(2475,2205) rotate(-90) translate(-2475,-2205)">Ambewela</text>
  </g>
  <g>
    <text fill="gray" stroke="none" font-size="40" font-family="p22" font-weight="100" text-anchor="start" dominant-baseline="central" x="2651.0" y="2205" transform="translate(2610,2205) rotate(-90) translate(-2610,-2205)">Haputale</text>
  </g>
  <g>
    <text fill="gray" stroke="none" font-size="40" font-family="p22" font-weight="100" text-anchor="start" dominant-baseline="central" x="2786.0" y="2205" transform="translate(2745,2205) rotate(0) translate(-2745,-2205)">Bandarawela</text>
  </g>
  <g>
    <text fill="gray" stroke="none" font-size="40" font-family="p22" font-weight="100" text-anchor="end" dominant-baseline="central" x="2029.0" y="1530" transform="translate(2070,1530) rotate(-90) translate(-2070,-1530)">Wattegama</text>
  </g>
  <g>
    <text fill="gray" stroke="none" font-size="40" font-family="p22" font-weight="100" text-anchor="start" dominant-baseline="central" x="896.0" y="2340" transform="translate(855,2340) rotate(0) translate(-855,-2340)">Panadura</text>
  </g>
  <g>
    <text fill="gray" stroke="none" font-size="40" font-family="p22" font-weight="100" text-anchor="start" dominant-baseline="central" x="896.0" y="2475" transform="translate(855,2475) rotate(0) translate(-855,-2475)">Kalutara N.</text>
  </g>
  <g>
    <text fill="gray" stroke="none" font-size="40" font-family="p22" font-weight="100" text-anchor="start" dominant-baseline="central" x="1031.0" y="2610" transform="translate(990,2610) rotate(0) translate(-990,-2610)">Wadduwa</text>
  </g>
  <g>
    <text fill="gray" stroke="none" font-size="40" font-family="p22" font-weight="100" text-anchor="start" dominant-baseline="central" x="1166.0" y="2745" transform="translate(1125,2745) rotate(0) translate(-1125,-2745)">Aluthgama</text>
  </g>
  <g>
    <text fill="gray" stroke="none" font-size="40" font-family="p22" font-weight="100" text-anchor="end" dominant-baseline="central" x="1219.0" y="2880" transform="translate(1260,2880) rotate(0) translate(-1260,-2880)">Kosgoda</text>
  </g>
  <g>
    <text fill="gray" stroke="none" font-size="40" font-family="p22" font-weight="100" text-anchor="start" dominant-baseline="central" x="1436.0" y="2880" transform="translate(1395,2880) rotate(-90) translate(-1395,-2880)">Ambalangoda</text>
  </g>
  <g>
    <text fill="gray" stroke="none" font-size="40" font-family="p22" font-weight="100" text-anchor="end" dominant-baseline="central" x="1489.0" y="990" transform="translate(1530,990) rotate(0) translate(-1530,-990)">Medavachchiya</text>
  </g>
  <g>
    <text fill="gray" stroke="none" font-size="40" font-family="p22" font-weight="100" text-anchor="end" dominant-baseline="central" x="1084.0" y="2205" transform="translate(1125,2205) rotate(-90) translate(-1125,-2205)">Homagama</text>
  </g>
  <g>
    <text fill="gray" stroke="none" font-size="40" font-family="p22" font-weight="100" text-anchor="start" dominant-baseline="central" x="1031.0" y="1800" transform="translate(990,1800) rotate(0) translate(-990,-1800)">Ja-Ela</text>
  </g>
  <g>
    <text fill="gray" stroke="none" font-size="40" font-family="p22" font-weight="100" text-anchor="end" dominant-baseline="central" x="679.0" y="1530" transform="translate(720,1530) rotate(0) translate(-720,-1530)">Negombo</text>
  </g>
  <g>
    <text fill="gray" stroke="none" font-size="40" font-family="p22" font-weight="100" text-anchor="start" dominant-baseline="central" x="761.0" y="1395" transform="translate(720,1395) rotate(0) translate(-720,-1395)">Nattandiya</text>
  </g>
  <g>
    <text fill="gray" stroke="none" font-size="40" font-family="p22" font-weight="100" text-anchor="start" dominant-baseline="central" x="761.0" y="1260" transform="translate(720,1260) rotate(0) translate(-720,-1260)">Madampe</text>
  </g>
  <g>
    <text fill="gray" stroke="none" font-size="40" font-family="p22" font-weight="100" text-anchor="start" dominant-baseline="central" x="761.0" y="1125" transform="translate(720,1125) rotate(0) translate(-720,-1125)">Chilaw</text>
  </g>
  <g>
    <text fill="gray" stroke="none" font-size="40" font-family="p22" font-weight="100" text-anchor="start" dominant-baseline="central" x="761.0" y="990" transform="translate(720,990) rotate(0) translate(-720,-990)">Bangadeniya</text>
  </g>
</svg>
