<?xml version="1.0" ?>
<svg xmlns="http://www.w3.org/2000/svg" width="3600" height="3600" padding="720">
  <text fill="#fcfcfc" stroke="none" font-size="600.0" font-family="p22" x="1800.0" y="1800.0" text-anchor="middle" dominant-baseline="center">@nuuuwan</text>
  <text fill="black" stroke="none" font-size="160" font-family="p22" x="1800.0" y="360.0" text-anchor="middle" dominant-baseline="hanging">2014</text>
  <text fill="gray" stroke="none" font-size="80" font-family="p22" x="1800.0" y="518.0" text-anchor="middle" dominant-baseline="hanging">Sri Lanka's Railway Network</text>
  <text fill="gray" stroke="none" font-size="40" font-family="p22" x="1800.0" y="3280.0" text-anchor="middle" dominant-baseline="text-top">data from railway.gov.lk et al ~ music by @bensound ~ visualization by @nuuuwan</text>
  <g>
    <path fill="none" stroke-width="29.400000000000002" stroke-opacity="1" d="M 1004.0,2311.0 L 1111.35,2202.7 C 1113.2333333333333,2200.8 1120.8,2193.233333333333 1122.7,2191.35 L 1225.585,2089.3675 C 1227.39,2087.5783333333334 1234.594201541681,2080.405798458319 1236.3913023125215,2078.6086976874785 L 1339.5695651156261,1975.4304348843739 C 1341.3797100770842,1973.6202899229158 1348.6043065357549,1966.3637969462297 1350.4064598036323,1964.5456954193444 L 1453.9872858282383,1860.0482249166446 C 1455.3248572188254,1858.6988166110964 1461.8,1856.0 1463.7,1856.0 L 1572.0,1856.0 L 1686.0,1856.0 L 1794.3,1856.0 C 1796.2,1856.0 1802.6751427811746,1858.6988166110964 1804.0127141717617,1860.0482249166446 L 1907.550635708588,1964.5024112458323 C 1909.367090472392,1966.3349408305548 1916.6490197554492,1973.6490197554492 1918.473529633174,1975.473529633174 L 2021.5736764816586,2078.573676481659 C 2023.3824509877725,2080.3824509877722 2030.633450095298,2087.601577726041 2032.450175142947,2089.402366589062 L 2135.5725087571473,2191.620118329453 C 2137.381672504765,2193.4134122196356 2144.5865877803644,2200.618327495235 2146.379881670547,2202.4274912428527 L 2249.9872858282383,2306.951775083355 C 2251.3248572188254,2308.3011833889036 2257.8,2311.0 2259.7,2311.0 L 2368.0,2311.0 L 2482.0,2311.0 L 2589.35,2311.0 C 2591.233333333333,2311.0 2597.6634355424694,2308.3365644575306 2598.995153313704,2307.004846686296 L 2709.0,2197.0" stroke="red"/>
    <rect stroke="none" fill-opacity="1" x="2695" y="2169" width="28" height="56" fill="red"/>
  </g>
  <g>
    <path fill="none" stroke-width="29.400000000000002" stroke-opacity="1" d="M 1800.0,1856.0 L 1908.9694913472367,1747.0305086527633 C 1910.312994231491,1745.687005768509 1916.8,1743.0 1918.7,1743.0 L 2027.0,1743.0 L 2141.0,1743.0" stroke="purple"/>
    <rect stroke="none" fill-opacity="1" x="2127" y="1715" width="28" height="56" fill="purple"/>
  </g>
  <g>
    <path fill="none" stroke-width="29.400000000000002" stroke-opacity="1" d="M 1004.0,2311.0 L 1004.0,2425.0 L 1004.0,2532.35 C 1004.0,2534.233333333333 1006.6516766164274,2540.6751427811746 1007.977514924641,2542.0127141717617 L 1111.548875746232,2646.500635708588 C 1113.3659171641548,2648.333757139059 1120.6501982667512,2655.6501982667514 1122.475297400127,2657.475297400127 L 1231.0,2766.0 L 1341.004846686296,2876.004846686296 C 1342.3365644575306,2877.3365644575306 1348.7666666666667,2880.0 1350.65,2880.0 L 1458.0,2880.0 L 1572.0,2880.0 L 1686.0,2880.0" stroke="cyan"/>
    <rect stroke="none" fill-opacity="1" x="1672" y="2852" width="28" height="56" fill="cyan"/>
  </g>
  <g>
    <path fill="none" stroke-width="29.400000000000002" stroke-opacity="1" d="M 1572.0,1856.0 L 1572.0,1743.0 L 1572.0,1629.0 L 1572.0,1515.0 L 1572.0,1402.0 L 1572.0,1288.0 L 1572.0,1174.0 L 1572.0,1061.0 L 1572.0,952.7 C 1572.0,950.8 1569.312994231491,944.3129942314911 1567.9694913472367,942.9694913472367 L 1458.0,833.0 L 1345.0,720.0" stroke="orange"/>
    <rect stroke="none" fill-opacity="1" x="1331" y="692" width="28" height="56" fill="orange"/>
  </g>
  <g>
    <path fill="none" stroke-width="29.400000000000002" stroke-opacity="1" d="M 1117.0,2197.0 L 1226.9694913472367,2306.9694913472367 C 1228.312994231491,2308.3129942314913 1234.8,2311.0 1236.7,2311.0 L 1345.0,2311.0" stroke="darkblue"/>
    <rect stroke="none" fill-opacity="1" x="1331" y="2283" width="28" height="56" fill="darkblue"/>
  </g>
  <g>
    <path fill="none" stroke-width="29.400000000000002" stroke-opacity="1" d="M 1231.0,2084.0 L 1122.675055065812,1975.675055065812 C 1120.7833700438748,1973.7833700438748 1113.2333333333333,1966.2 1111.35,1964.3 L 1009.3675,1861.415 C 1007.5783333333334,1859.61 1000.39,1852.4216666666666 998.585,1850.6325 L 894.0482249166446,1747.0127141717617 C 892.6988166110964,1745.6751427811746 890.0,1739.2 890.0,1737.3 L 890.0,1629.0 L 890.0,1515.0 L 890.0,1402.0 L 890.0,1288.0 L 890.0,1174.0 L 890.0,1061.0" stroke="green"/>
    <rect stroke="none" fill-opacity="1" x="862" y="1047" width="56" height="28" fill="green"/>
  </g>
  <g>
    <path fill="none" stroke-width="29.400000000000002" stroke-opacity="1" d="M 1572.0,1629.0 L 1680.3,1520.7 C 1682.2,1518.8 1689.8,1518.8 1691.7,1520.7 L 1796.004846686296,1625.004846686296 C 1797.3365644575306,1626.3365644575306 1803.7666666666667,1629.0 1805.65,1629.0 L 1913.0,1629.0" stroke="darkgreen"/>
    <rect stroke="none" fill-opacity="1" x="1899" y="1601" width="28" height="56" fill="darkgreen"/>
  </g>
  <g>
    <path fill="none" stroke-width="29.400000000000002" stroke-opacity="1" d="M 1686.0,1515.0 L 1800.0,1402.0" stroke="silver"/>
    <rect stroke="none" fill-opacity="1" x="1786" y="1374" width="28" height="56" fill="silver"/>
  </g>
  <g>
    <path fill="none" stroke-width="29.400000000000002" stroke-opacity="1" d="M 1004.0,1856.0 L 1004.0,1743.0" stroke="pink"/>
    <rect stroke="none" fill-opacity="1" x="976" y="1729" width="56" height="28" fill="pink"/>
  </g>
  <g>
    <path fill="none" stroke-width="29.400000000000002" stroke-opacity="1" d="M 1572.0,1402.0 L 1686.0,1402.0" stroke="maroon"/>
    <rect stroke="none" fill-opacity="1" x="1672" y="1374" width="28" height="56" fill="maroon"/>
  </g>
  <g>
    <path fill="none" stroke-width="29.400000000000002" stroke-opacity="1" d="M 1572.0,1288.0 L 1458.0,1174.0" stroke="blue"/>
    <rect stroke="none" fill-opacity="1" x="1444" y="1146" width="28" height="56" fill="blue"/>
  </g>
  <g>
    <text fill="black" stroke="none" font-size="56.0" font-family="p22" font-weight="100" text-anchor="start" dominant-baseline="central" x="2758.0" y="2197" transform="translate(2709,2197) rotate(0) translate(-2709,-2197)">Badulla</text>
  </g>
  <g>
    <text fill="black" stroke="none" font-size="56.0" font-family="p22" font-weight="100" text-anchor="start" dominant-baseline="central" x="2190.0" y="1743" transform="translate(2141,1743) rotate(0) translate(-2141,-1743)">Matale</text>
  </g>
  <g>
    <text fill="black" stroke="none" font-size="56.0" font-family="p22" font-weight="100" text-anchor="start" dominant-baseline="central" x="1735.0" y="2880" transform="translate(1686,2880) rotate(0) translate(-1686,-2880)">Matara</text>
  </g>
  <g>
    <text fill="black" stroke="none" font-size="56.0" font-family="p22" font-weight="100" text-anchor="start" dominant-baseline="central" x="1394.0" y="720" transform="translate(1345,720) rotate(0) translate(-1345,-720)">Jaffna</text>
  </g>
  <g>
    <text fill="black" stroke="none" font-size="56.0" font-family="p22" font-weight="100" text-anchor="start" dominant-baseline="central" x="1394.0" y="2311" transform="translate(1345,2311) rotate(0) translate(-1345,-2311)">Avissawella</text>
  </g>
  <g>
    <text fill="black" stroke="none" font-size="56.0" font-family="p22" font-weight="100" text-anchor="start" dominant-baseline="central" x="939.0" y="1061" transform="translate(890,1061) rotate(0) translate(-890,-1061)">Periyanagavillu</text>
  </g>
  <g>
    <text fill="black" stroke="none" font-size="56.0" font-family="p22" font-weight="100" text-anchor="start" dominant-baseline="central" x="1962.0" y="1629" transform="translate(1913,1629) rotate(0) translate(-1913,-1629)">Batticaloa</text>
  </g>
  <g>
    <text fill="black" stroke="none" font-size="56.0" font-family="p22" font-weight="100" text-anchor="start" dominant-baseline="central" x="1849.0" y="1402" transform="translate(1800,1402) rotate(0) translate(-1800,-1402)">Trincomalee</text>
  </g>
  <g>
    <text fill="black" stroke="none" font-size="56.0" font-family="p22" font-weight="100" text-anchor="start" dominant-baseline="central" x="1053.0" y="1743" transform="translate(1004,1743) rotate(0) translate(-1004,-1743)">CMB Airport</text>
  </g>
  <g>
    <text fill="black" stroke="none" font-size="56.0" font-family="p22" font-weight="100" text-anchor="start" dominant-baseline="central" x="1735.0" y="1402" transform="translate(1686,1402) rotate(-90) translate(-1686,-1402)">Mihintale</text>
  </g>
  <g>
    <text fill="black" stroke="none" font-size="56.0" font-family="p22" font-weight="100" text-anchor="end" dominant-baseline="central" x="1409.0" y="1174" transform="translate(1458,1174) rotate(0) translate(-1458,-1174)">Madhu Road</text>
  </g>
  <g>
    <circle r="28" fill="white" stroke="black" stroke-width="7.0" cx="1004" cy="2311"/>
    <text fill="black" stroke="none" font-size="48.0" font-family="p22" font-weight="100" text-anchor="start" dominant-baseline="central" x="1049.0" y="2311" transform="translate(1004,2311) rotate(0) translate(-1004,-2311)">C. Fort</text>
  </g>
  <g>
    <circle r="28" fill="white" stroke="black" stroke-width="7.0" cx="1117" cy="2197"/>
    <text fill="black" stroke="none" font-size="48.0" font-family="p22" font-weight="100" text-anchor="start" dominant-baseline="central" x="1162.0" y="2197" transform="translate(1117,2197) rotate(0) translate(-1117,-2197)">Maradana</text>
  </g>
  <g>
    <circle r="28" fill="white" stroke="black" stroke-width="7.0" cx="1231" cy="2084"/>
    <text fill="black" stroke="none" font-size="48.0" font-family="p22" font-weight="100" text-anchor="start" dominant-baseline="central" x="1276.0" y="2084" transform="translate(1231,2084) rotate(0) translate(-1231,-2084)">Ragama</text>
  </g>
  <g>
    <circle r="28" fill="white" stroke="black" stroke-width="7.0" cx="1572" cy="1856"/>
    <text fill="black" stroke="none" font-size="48.0" font-family="p22" font-weight="100" text-anchor="end" dominant-baseline="central" x="1527.0" y="1856" transform="translate(1572,1856) rotate(-90) translate(-1572,-1856)">Polgahawela</text>
  </g>
  <g>
    <circle r="28" fill="white" stroke="black" stroke-width="7.0" cx="1800" cy="1856"/>
    <text fill="black" stroke="none" font-size="48.0" font-family="p22" font-weight="100" text-anchor="start" dominant-baseline="central" x="1845.0" y="1856" transform="translate(1800,1856) rotate(0) translate(-1800,-1856)">Peradeniya</text>
  </g>
  <g>
    <circle r="28" fill="white" stroke="black" stroke-width="7.0" cx="1572" cy="1629"/>
    <text fill="black" stroke="none" font-size="48.0" font-family="p22" font-weight="100" text-anchor="start" dominant-baseline="central" x="1617.0" y="1629" transform="translate(1572,1629) rotate(0) translate(-1572,-1629)">Maho</text>
  </g>
  <g>
    <circle r="28" fill="white" stroke="black" stroke-width="7.0" cx="1572" cy="1402"/>
    <text fill="black" stroke="none" font-size="48.0" font-family="p22" font-weight="100" text-anchor="end" dominant-baseline="central" x="1527.0" y="1402" transform="translate(1572,1402) rotate(0) translate(-1572,-1402)">Mihintale Junction</text>
  </g>
  <g>
    <circle r="28" fill="white" stroke="black" stroke-width="7.0" cx="1572" cy="1288"/>
    <text fill="black" stroke="none" font-size="48.0" font-family="p22" font-weight="100" text-anchor="end" dominant-baseline="central" x="1527.0" y="1288" transform="translate(1572,1288) rotate(0) translate(-1572,-1288)">Medavachchiya</text>
  </g>
  <g>
    <circle r="28" fill="white" stroke="black" stroke-width="7.0" cx="1004" cy="1856"/>
    <text fill="black" stroke="none" font-size="48.0" font-family="p22" font-weight="100" text-anchor="start" dominant-baseline="central" x="1049.0" y="1856" transform="translate(1004,1856) rotate(0) translate(-1004,-1856)">Katunayake S.</text>
  </g>
  <g>
    <circle r="28" fill="white" stroke="black" stroke-width="7.0" cx="1686" cy="1515"/>
    <text fill="black" stroke="none" font-size="48.0" font-family="p22" font-weight="100" text-anchor="start" dominant-baseline="central" x="1731.0" y="1515" transform="translate(1686,1515) rotate(0) translate(-1686,-1515)">Gal Oya</text>
  </g>
  <g>
    <text fill="gray" stroke="none" font-size="44.0" font-family="p22" font-weight="100" text-anchor="start" dominant-baseline="central" x="1388.0" y="1970" transform="translate(1345,1970) rotate(0) translate(-1345,-1970)">Gampaha</text>
  </g>
  <g>
    <text fill="gray" stroke="none" font-size="44.0" font-family="p22" font-weight="100" text-anchor="end" dominant-baseline="central" x="1870.0" y="1743" transform="translate(1913,1743) rotate(0) translate(-1913,-1743)">Kandy</text>
  </g>
  <g>
    <text fill="gray" stroke="none" font-size="44.0" font-family="p22" font-weight="100" text-anchor="start" dominant-baseline="central" x="1615.0" y="2880" transform="translate(1572,2880) rotate(-90) translate(-1572,-2880)">Galle</text>
  </g>
  <g>
    <text fill="gray" stroke="none" font-size="44.0" font-family="p22" font-weight="100" text-anchor="start" dominant-baseline="central" x="1615.0" y="1743" transform="translate(1572,1743) rotate(0) translate(-1572,-1743)">Kurunegala</text>
  </g>
  <g>
    <text fill="gray" stroke="none" font-size="44.0" font-family="p22" font-weight="100" text-anchor="end" dominant-baseline="central" x="1529.0" y="1515" transform="translate(1572,1515) rotate(0) translate(-1572,-1515)">Anuradhapura</text>
  </g>
  <g>
    <text fill="gray" stroke="none" font-size="44.0" font-family="p22" font-weight="100" text-anchor="start" dominant-baseline="central" x="1615.0" y="1174" transform="translate(1572,1174) rotate(0) translate(-1572,-1174)">Vavuniya</text>
  </g>
  <g>
    <text fill="gray" stroke="none" font-size="44.0" font-family="p22" font-weight="100" text-anchor="start" dominant-baseline="central" x="1615.0" y="947" transform="translate(1572,947) rotate(0) translate(-1572,-947)">Kilinochchi</text>
  </g>
  <g>
    <text fill="gray" stroke="none" font-size="44.0" font-family="p22" font-weight="100" text-anchor="start" dominant-baseline="central" x="933.0" y="1174" transform="translate(890,1174) rotate(0) translate(-890,-1174)">Puttalam</text>
  </g>
  <g>
    <text fill="gray" stroke="none" font-size="44.0" font-family="p22" font-weight="100" text-anchor="start" dominant-baseline="central" x="1843.0" y="1629" transform="translate(1800,1629) rotate(-45) translate(-1800,-1629)">Polonnaruwa</text>
  </g>
  <g>
    <text fill="gray" stroke="none" font-size="40" font-family="p22" font-weight="100" text-anchor="end" dominant-baseline="central" x="1417.0" y="1856" transform="translate(1458,1856) rotate(0) translate(-1458,-1856)">Ambepussa</text>
  </g>
  <g>
    <text fill="gray" stroke="none" font-size="40" font-family="p22" font-weight="100" text-anchor="end" dominant-baseline="central" x="1645.0" y="1856" transform="translate(1686,1856) rotate(-90) translate(-1686,-1856)">Rambukkana</text>
  </g>
  <g>
    <text fill="gray" stroke="none" font-size="40" font-family="p22" font-weight="100" text-anchor="start" dominant-baseline="central" x="1954.0" y="1970" transform="translate(1913,1970) rotate(0) translate(-1913,-1970)">Gampola</text>
  </g>
  <g>
    <text fill="gray" stroke="none" font-size="40" font-family="p22" font-weight="100" text-anchor="start" dominant-baseline="central" x="2068.0" y="2084" transform="translate(2027,2084) rotate(0) translate(-2027,-2084)">Nawalapitiya</text>
  </g>
  <g>
    <text fill="gray" stroke="none" font-size="40" font-family="p22" font-weight="100" text-anchor="start" dominant-baseline="central" x="2182.0" y="2197" transform="translate(2141,2197) rotate(0) translate(-2141,-2197)">Talawakele</text>
  </g>
  <g>
    <text fill="gray" stroke="none" font-size="40" font-family="p22" font-weight="100" text-anchor="end" dominant-baseline="central" x="2213.0" y="2311" transform="translate(2254,2311) rotate(0) translate(-2254,-2311)">Nanu Oya</text>
  </g>
  <g>
    <text fill="gray" stroke="none" font-size="40" font-family="p22" font-weight="100" text-anchor="start" dominant-baseline="central" x="2409.0" y="2311" transform="translate(2368,2311) rotate(-90) translate(-2368,-2311)">Ambewela</text>
  </g>
  <g>
    <text fill="gray" stroke="none" font-size="40" font-family="p22" font-weight="100" text-anchor="start" dominant-baseline="central" x="2523.0" y="2311" transform="translate(2482,2311) rotate(-90) translate(-2482,-2311)">Haputale</text>
  </g>
  <g>
    <text fill="gray" stroke="none" font-size="40" font-family="p22" font-weight="100" text-anchor="start" dominant-baseline="central" x="2636.0" y="2311" transform="translate(2595,2311) rotate(0) translate(-2595,-2311)">Bandarawela</text>
  </g>
  <g>
    <text fill="gray" stroke="none" font-size="40" font-family="p22" font-weight="100" text-anchor="end" dominant-baseline="central" x="1986.0" y="1743" transform="translate(2027,1743) rotate(-90) translate(-2027,-1743)">Wattegama</text>
  </g>
  <g>
    <text fill="gray" stroke="none" font-size="40" font-family="p22" font-weight="100" text-anchor="start" dominant-baseline="central" x="1045.0" y="2425" transform="translate(1004,2425) rotate(0) translate(-1004,-2425)">Panadura</text>
  </g>
  <g>
    <text fill="gray" stroke="none" font-size="40" font-family="p22" font-weight="100" text-anchor="start" dominant-baseline="central" x="1045.0" y="2538" transform="translate(1004,2538) rotate(0) translate(-1004,-2538)">Kalutara N.</text>
  </g>
  <g>
    <text fill="gray" stroke="none" font-size="40" font-family="p22" font-weight="100" text-anchor="start" dominant-baseline="central" x="1158.0" y="2652" transform="translate(1117,2652) rotate(0) translate(-1117,-2652)">Wadduwa</text>
  </g>
  <g>
    <text fill="gray" stroke="none" font-size="40" font-family="p22" font-weight="100" text-anchor="start" dominant-baseline="central" x="1272.0" y="2766" transform="translate(1231,2766) rotate(0) translate(-1231,-2766)">Aluthgama</text>
  </g>
  <g>
    <text fill="gray" stroke="none" font-size="40" font-family="p22" font-weight="100" text-anchor="end" dominant-baseline="central" x="1304.0" y="2880" transform="translate(1345,2880) rotate(0) translate(-1345,-2880)">Kosgoda</text>
  </g>
  <g>
    <text fill="gray" stroke="none" font-size="40" font-family="p22" font-weight="100" text-anchor="start" dominant-baseline="central" x="1499.0" y="2880" transform="translate(1458,2880) rotate(-90) translate(-1458,-2880)">Ambalangoda</text>
  </g>
  <g>
    <text fill="gray" stroke="none" font-size="40" font-family="p22" font-weight="100" text-anchor="start" dominant-baseline="central" x="1613.0" y="1061" transform="translate(1572,1061) rotate(0) translate(-1572,-1061)">Omanthai</text>
  </g>
  <g>
    <text fill="gray" stroke="none" font-size="40" font-family="p22" font-weight="100" text-anchor="start" dominant-baseline="central" x="1499.0" y="833" transform="translate(1458,833) rotate(0) translate(-1458,-833)">Pallai</text>
  </g>
  <g>
    <text fill="gray" stroke="none" font-size="40" font-family="p22" font-weight="100" text-anchor="end" dominant-baseline="central" x="1190.0" y="2311" transform="translate(1231,2311) rotate(-90) translate(-1231,-2311)">Homagama</text>
  </g>
  <g>
    <text fill="gray" stroke="none" font-size="40" font-family="p22" font-weight="100" text-anchor="start" dominant-baseline="central" x="1158.0" y="1970" transform="translate(1117,1970) rotate(0) translate(-1117,-1970)">Ja-Ela</text>
  </g>
  <g>
    <text fill="gray" stroke="none" font-size="40" font-family="p22" font-weight="100" text-anchor="end" dominant-baseline="central" x="849.0" y="1743" transform="translate(890,1743) rotate(0) translate(-890,-1743)">Negombo</text>
  </g>
  <g>
    <text fill="gray" stroke="none" font-size="40" font-family="p22" font-weight="100" text-anchor="start" dominant-baseline="central" x="931.0" y="1629" transform="translate(890,1629) rotate(0) translate(-890,-1629)">Nattandiya</text>
  </g>
  <g>
    <text fill="gray" stroke="none" font-size="40" font-family="p22" font-weight="100" text-anchor="start" dominant-baseline="central" x="931.0" y="1515" transform="translate(890,1515) rotate(0) translate(-890,-1515)">Madampe</text>
  </g>
  <g>
    <text fill="gray" stroke="none" font-size="40" font-family="p22" font-weight="100" text-anchor="start" dominant-baseline="central" x="931.0" y="1402" transform="translate(890,1402) rotate(0) translate(-890,-1402)">Chilaw</text>
  </g>
  <g>
    <text fill="gray" stroke="none" font-size="40" font-family="p22" font-weight="100" text-anchor="start" dominant-baseline="central" x="931.0" y="1288" transform="translate(890,1288) rotate(0) translate(-890,-1288)">Bangadeniya</text>
  </g>
</svg>
