<?xml version="1.0" ?>
<svg xmlns="http://www.w3.org/2000/svg" width="2880" height="2880" padding="288">
  <text fill="#fcfcfc" stroke="none" font-size="480.0" font-family="p22" x="1440.0" y="1440.0" text-anchor="middle" dominant-baseline="center">@nuuuwan</text>
  <text fill="black" stroke="none" font-size="80" font-family="p22" x="1440.0" y="144.0" text-anchor="middle" dominant-baseline="hanging">1867</text>
  <text fill="gray" stroke="none" font-size="40" font-family="p22" x="1440.0" y="194.0" text-anchor="middle" dominant-baseline="hanging">History of the Railways in Sri Lanka</text>
  <text fill="gray" stroke="none" font-size="38.4" font-family="p22" x="1440.0" y="2776.0" text-anchor="middle" dominant-baseline="text-top">data from multiple sources ~ music by @bensound ~ visualization by @nuuuwan</text>
  <g>
    <path fill="none" stroke-width="29.400000000000002" stroke-opacity="1" d="M 288.0,2262.0 L 617.0,1933.0 L 946.0,1604.0 L 1275.0,1275.0 L 1592.3680934494812,957.6319065505187 C 1596.2453956329875,953.7546043670125 1614.9666666666667,946.0 1620.45,946.0 L 1933.0,946.0 L 2262.0,946.0" stroke="red"/>
    <rect stroke="none" fill-opacity="1" x="2248" y="918" width="28" height="56" fill="red"/>
  </g>
  <g>
    <path fill="none" stroke-width="29.400000000000002" stroke-opacity="1" d="M 2262.0,946.0 L 2592.0,617.0" stroke="purple"/>
    <rect stroke="none" fill-opacity="1" x="2578" y="589" width="28" height="56" fill="purple"/>
  </g>
  <g>
    <text fill="black" stroke="none" font-size="56.0" font-family="p22" font-weight="100" text-anchor="start" dominant-baseline="central" x="337.0" y="2262" transform="translate(288,2262) rotate(0) translate(-288,-2262)">COLOMBO Fort</text>
  </g>
  <g>
    <text fill="black" stroke="none" font-size="56.0" font-family="p22" font-weight="100" text-anchor="start" dominant-baseline="central" x="2641.0" y="617" transform="translate(2592,617) rotate(0) translate(-2592,-617)">KANDY</text>
  </g>
  <g>
    <circle r="28" fill="white" stroke="black" stroke-width="7.0" cx="2262" cy="946"/>
    <text fill="black" stroke="none" font-size="48.0" font-family="p22" font-weight="100" text-anchor="start" dominant-baseline="central" x="2307.0" y="946" transform="translate(2262,946) rotate(0) translate(-2262,-946)">Peradeniya</text>
  </g>
  <g>
    <text fill="gray" stroke="none" font-size="44.0" font-family="p22" font-weight="100" text-anchor="start" dominant-baseline="central" x="1318.0" y="1275" transform="translate(1275,1275) rotate(0) translate(-1275,-1275)">GAMPAHA</text>
  </g>
  <g>
    <text fill="gray" stroke="none" font-size="40" font-family="p22" font-weight="100" text-anchor="start" dominant-baseline="central" x="658.0" y="1933" transform="translate(617,1933) rotate(0) translate(-617,-1933)">Maradana</text>
  </g>
  <g>
    <text fill="gray" stroke="none" font-size="40" font-family="p22" font-weight="100" text-anchor="start" dominant-baseline="central" x="987.0" y="1604" transform="translate(946,1604) rotate(0) translate(-946,-1604)">Ragama</text>
  </g>
  <g>
    <text fill="gray" stroke="none" font-size="40" font-family="p22" font-weight="100" text-anchor="end" dominant-baseline="central" x="1563.0" y="946" transform="translate(1604,946) rotate(0) translate(-1604,-946)">Ambepussa</text>
  </g>
  <g>
    <text fill="gray" stroke="none" font-size="40" font-family="p22" font-weight="100" text-anchor="start" dominant-baseline="central" x="1974.0" y="946" transform="translate(1933,946) rotate(-45) translate(-1933,-946)">Polgahawela</text>
  </g>
</svg>
