<?xml version="1.0" ?>
<svg xmlns="http://www.w3.org/2000/svg" width="1320" height="1320" padding="148">
  <text fill="gray" stroke="none" font-size="72" font-family="p22" x="660.0" y="92.0" text-anchor="middle" dominant-baseline="hanging">1867</text>
  <text fill="gray" stroke="none" font-size="18" font-family="p22" x="660.0" y="1264.0" text-anchor="middle" dominant-baseline="text-top">History of the Railways in Sri Lanka</text>
  <g>
    <path fill="none" stroke-width="10.5" stroke-opacity="1" d="M 404.0,916.0 L 452.4748762873132,866.5746359423473 C 453.3165841915421,865.7164239615649 456.7,862.3 457.55,861.45 L 506.0,813.0 L 557.0,762.0 L 606.161522368915,712.838477631085 C 606.7743482459433,712.2256517540567 609.7333333333333,711.0 610.6,711.0 L 660.0,711.0 L 711.0,711.0" stroke="red"/>
    <rect stroke="none" fill-opacity="1" x="706" y="701" width="10" height="20" fill="red"/>
  </g>
  <g>
    <path fill="none" stroke-width="10.5" stroke-opacity="1" d="M 711.0,711.0 L 762.0,660.0" stroke="purple"/>
    <rect stroke="none" fill-opacity="1" x="757" y="650" width="10" height="20" fill="purple"/>
  </g>
  <g>
    <text fill="black" stroke="none" font-size="25.2" font-family="p22" font-weight="100" text-anchor="start" dominant-baseline="central" x="424.1" y="916" transform="translate(404,916) rotate(0) translate(-404,-916)">COLOMBO Fort</text>
  </g>
  <g>
    <text fill="black" stroke="none" font-size="25.2" font-family="p22" font-weight="100" text-anchor="start" dominant-baseline="central" x="782.1" y="660" transform="translate(762,660) rotate(0) translate(-762,-660)">KANDY</text>
  </g>
  <g>
    <circle r="10" fill="white" stroke="black" stroke-width="2.5" cx="711" cy="711"/>
    <text fill="black" stroke="none" font-size="21.599999999999998" font-family="p22" font-weight="100" text-anchor="start" dominant-baseline="central" x="729.3" y="711" transform="translate(711,711) rotate(0) translate(-711,-711)">Peradeniya</text>
  </g>
  <g>
    <text fill="gray" stroke="none" font-size="19.8" font-family="p22" font-weight="100" text-anchor="start" dominant-baseline="central" x="574.4" y="762" transform="translate(557,762) rotate(0) translate(-557,-762)">GAMPAHA</text>
  </g>
  <g>
    <text fill="gray" stroke="none" font-size="18" font-family="p22" font-weight="100" text-anchor="start" dominant-baseline="central" x="471.5" y="864" transform="translate(455,864) rotate(0) translate(-455,-864)">Maradana</text>
  </g>
  <g>
    <text fill="gray" stroke="none" font-size="18" font-family="p22" font-weight="100" text-anchor="start" dominant-baseline="central" x="522.5" y="813" transform="translate(506,813) rotate(0) translate(-506,-813)">Ragama</text>
  </g>
  <g>
    <text fill="gray" stroke="none" font-size="18" font-family="p22" font-weight="100" text-anchor="end" dominant-baseline="central" x="591.5" y="711" transform="translate(608,711) rotate(0) translate(-608,-711)">Ambepussa</text>
  </g>
  <g>
    <text fill="gray" stroke="none" font-size="18" font-family="p22" font-weight="100" text-anchor="start" dominant-baseline="central" x="676.5" y="711" transform="translate(660,711) rotate(-45) translate(-660,-711)">Polgahawela</text>
  </g>
</svg>
