<?xml version="1.0" ?>
<svg xmlns="http://www.w3.org/2000/svg" width="3600" height="3600" padding="720">
  <text fill="#fcfcfc" stroke="none" font-size="600.0" font-family="p22" x="1800.0" y="1800.0" text-anchor="middle" dominant-baseline="center">@nuuuwan</text>
  <text fill="black" stroke="none" font-size="160" font-family="p22" x="1800.0" y="360.0" text-anchor="middle" dominant-baseline="hanging">1873</text>
  <text fill="gray" stroke="none" font-size="40" font-family="p22" x="1800.0" y="410.0" text-anchor="middle" dominant-baseline="hanging"/>
  <text fill="gray" stroke="none" font-size="40" font-family="p22" x="1800.0" y="3280.0" text-anchor="middle" dominant-baseline="text-top">data from multiple sources ~ music by @bensound ~ visualization by @nuuuwan</text>
  <g>
    <path fill="none" stroke-width="29.400000000000002" stroke-opacity="1" d="M 720.0,2417.0 L 1012.6,2123.45 C 1017.7333333333333,2118.3 1038.3,2097.733333333333 1043.45,2092.6 L 1322.3225,1814.6299999999999 C 1327.215,1809.7533333333333 1346.7533333333333,1790.215 1351.63,1785.3225 L 1634.092920876638,1501.9424917179185 C 1637.7286139177586,1498.2949944786124 1655.3,1491.0 1660.45,1491.0 L 1954.0,1491.0 L 2262.0,1491.0 L 2555.55,1491.0 C 2560.7,1491.0 2578.2831998462216,1498.2831998462214 2581.9247997693324,1501.9247997693321 L 2880.0,1800.0" stroke="red"/>
    <rect stroke="none" fill-opacity="1" x="2866" y="1772" width="28" height="56" fill="red"/>
  </g>
  <g>
    <path fill="none" stroke-width="29.400000000000002" stroke-opacity="1" d="M 2571.0,1491.0 L 2880.0,1182.0" stroke="purple"/>
    <rect stroke="none" fill-opacity="1" x="2866" y="1154" width="28" height="56" fill="purple"/>
  </g>
  <g>
    <text fill="black" stroke="none" font-size="56.0" font-family="p22" font-weight="100" text-anchor="start" dominant-baseline="central" x="769.0" y="2417" transform="translate(720,2417) rotate(0) translate(-720,-2417)">C. Terminus</text>
  </g>
  <g>
    <text fill="black" stroke="none" font-size="56.0" font-family="p22" font-weight="100" text-anchor="start" dominant-baseline="central" x="2929.0" y="1800" transform="translate(2880,1800) rotate(0) translate(-2880,-1800)">Gampola</text>
  </g>
  <g>
    <text fill="black" stroke="none" font-size="56.0" font-family="p22" font-weight="100" text-anchor="start" dominant-baseline="central" x="2929.0" y="1182" transform="translate(2880,1182) rotate(0) translate(-2880,-1182)">Kandy</text>
  </g>
  <g>
    <circle r="28" fill="white" stroke="black" stroke-width="7.0" cx="2571" cy="1491"/>
    <text fill="black" stroke="none" font-size="48.0" font-family="p22" font-weight="100" text-anchor="start" dominant-baseline="central" x="2616.0" y="1491" transform="translate(2571,1491) rotate(0) translate(-2571,-1491)">Peradeniya</text>
  </g>
  <g>
    <text fill="gray" stroke="none" font-size="44.0" font-family="p22" font-weight="100" text-anchor="start" dominant-baseline="central" x="1380.0" y="1800" transform="translate(1337,1800) rotate(0) translate(-1337,-1800)">Gampaha</text>
  </g>
  <g>
    <text fill="gray" stroke="none" font-size="40" font-family="p22" font-weight="100" text-anchor="start" dominant-baseline="central" x="1069.0" y="2108" transform="translate(1028,2108) rotate(0) translate(-1028,-2108)">Ragama</text>
  </g>
  <g>
    <text fill="gray" stroke="none" font-size="40" font-family="p22" font-weight="100" text-anchor="end" dominant-baseline="central" x="1604.0" y="1491" transform="translate(1645,1491) rotate(0) translate(-1645,-1491)">Ambepussa</text>
  </g>
  <g>
    <text fill="gray" stroke="none" font-size="40" font-family="p22" font-weight="100" text-anchor="start" dominant-baseline="central" x="1995.0" y="1491" transform="translate(1954,1491) rotate(-90) translate(-1954,-1491)">Polgahawela</text>
  </g>
  <g>
    <text fill="gray" stroke="none" font-size="40" font-family="p22" font-weight="100" text-anchor="start" dominant-baseline="central" x="2303.0" y="1491" transform="translate(2262,1491) rotate(-90) translate(-2262,-1491)">Rambukkana</text>
  </g>
</svg>
