<?xml version="1.0" ?>
<svg xmlns="http://www.w3.org/2000/svg" width="3600" height="3600" padding="720">
  <text fill="#fcfcfc" stroke="none" font-size="600.0" font-family="p22" x="1800.0" y="1800.0" text-anchor="middle" dominant-baseline="center">@nuuuwan</text>
  <text fill="black" stroke="none" font-size="160" font-family="p22" x="1800.0" y="360.0" text-anchor="middle" dominant-baseline="hanging">1873</text>
  <text fill="gray" stroke="none" font-size="40" font-family="p22" x="1800.0" y="410.0" text-anchor="middle" dominant-baseline="hanging"/>
  <text fill="gray" stroke="none" font-size="40" font-family="p22" x="1800.0" y="3280.0" text-anchor="middle" dominant-baseline="text-top">data from multiple sources ~ music by @bensound ~ visualization by @nuuuwan</text>
  <g>
    <path fill="none" stroke-width="29.400000000000002" stroke-opacity="1" d="M 720.0,2520.0 L 1080.0,2160.0 L 1440.0,1800.0 L 1787.272077938642,1452.727922061358 C 1791.5147186257614,1448.4852813742386 1812.0,1440.0 1818.0,1440.0 L 2160.0,1440.0 L 2502.0,1440.0 C 2508.0,1440.0 2528.4852813742386,1448.4852813742386 2532.7279220613577,1452.727922061358 L 2880.0,1800.0" stroke="red"/>
    <rect stroke="none" fill-opacity="1" x="2866" y="1772" width="28" height="56" fill="red"/>
  </g>
  <g>
    <path fill="none" stroke-width="29.400000000000002" stroke-opacity="1" d="M 2520.0,1440.0 L 2880.0,1080.0" stroke="purple"/>
    <rect stroke="none" fill-opacity="1" x="2866" y="1052" width="28" height="56" fill="purple"/>
  </g>
  <g>
    <text fill="black" stroke="none" font-size="56.0" font-family="p22" font-weight="100" text-anchor="start" dominant-baseline="central" x="769.0" y="2520" transform="translate(720,2520) rotate(0) translate(-720,-2520)">C. Terminus</text>
  </g>
  <g>
    <text fill="black" stroke="none" font-size="56.0" font-family="p22" font-weight="100" text-anchor="start" dominant-baseline="central" x="2929.0" y="1800" transform="translate(2880,1800) rotate(0) translate(-2880,-1800)">Gampola</text>
  </g>
  <g>
    <text fill="black" stroke="none" font-size="56.0" font-family="p22" font-weight="100" text-anchor="start" dominant-baseline="central" x="2929.0" y="1080" transform="translate(2880,1080) rotate(0) translate(-2880,-1080)">Kandy</text>
  </g>
  <g>
    <circle r="28" fill="white" stroke="black" stroke-width="7.0" cx="2520" cy="1440"/>
    <text fill="black" stroke="none" font-size="48.0" font-family="p22" font-weight="100" text-anchor="start" dominant-baseline="central" x="2565.0" y="1440" transform="translate(2520,1440) rotate(0) translate(-2520,-1440)">Peradeniya</text>
  </g>
  <g>
    <text fill="gray" stroke="none" font-size="44.0" font-family="p22" font-weight="100" text-anchor="start" dominant-baseline="central" x="1483.0" y="1800" transform="translate(1440,1800) rotate(0) translate(-1440,-1800)">Gampaha</text>
  </g>
  <g>
    <text fill="gray" stroke="none" font-size="40" font-family="p22" font-weight="100" text-anchor="start" dominant-baseline="central" x="1121.0" y="2160" transform="translate(1080,2160) rotate(0) translate(-1080,-2160)">Ragama</text>
  </g>
  <g>
    <text fill="gray" stroke="none" font-size="40" font-family="p22" font-weight="100" text-anchor="end" dominant-baseline="central" x="1759.0" y="1440" transform="translate(1800,1440) rotate(0) translate(-1800,-1440)">Ambepussa</text>
  </g>
  <g>
    <text fill="gray" stroke="none" font-size="40" font-family="p22" font-weight="100" text-anchor="start" dominant-baseline="central" x="2201.0" y="1440" transform="translate(2160,1440) rotate(-45) translate(-2160,-1440)">Polgahawela</text>
  </g>
</svg>
