<?xml version="1.0" ?>
<svg xmlns="http://www.w3.org/2000/svg" width="1440" height="1440" padding="144">
  <text fill="#fcfcfc" stroke="none" font-size="240.0" font-family="p22" x="720.0" y="720.0" text-anchor="middle" dominant-baseline="center">@nuuuwan</text>
  <text fill="gray" stroke="none" font-size="80" font-family="p22" x="720.0" y="92.0" text-anchor="middle" dominant-baseline="hanging">1874</text>
  <text fill="gray" stroke="none" font-size="20" font-family="p22" x="720.0" y="1388.0" text-anchor="middle" dominant-baseline="text-top">History of the Railways in Sri Lanka</text>
  <g>
    <path fill="none" stroke-width="12.600000000000001" stroke-opacity="1" d="M 432.0,1008.0 L 486.15,952.9 C 487.1,951.9333333333333 490.91673912906504,948.083260870935 491.8751086935975,947.1248913064024 L 547.0,892.0 L 604.0,835.0 L 659.949390334559,779.050609665441 C 660.632926889706,778.367073110294 663.9333333333333,777.0 664.9,777.0 L 720.0,777.0 L 774.15,777.0 C 775.1,777.0 778.3435028842545,778.3435028842545 779.0152543263816,779.0152543263816 L 835.0,835.0" stroke="red"/>
    <rect stroke="none" fill-opacity="1" x="829" y="823" width="12" height="24" fill="red"/>
  </g>
  <g>
    <path fill="none" stroke-width="12.600000000000001" stroke-opacity="1" d="M 777.0,777.0 L 835.0,720.0" stroke="purple"/>
    <rect stroke="none" fill-opacity="1" x="829" y="708" width="12" height="24" fill="purple"/>
  </g>
  <g>
    <text fill="black" stroke="none" font-size="28.0" font-family="p22" font-weight="100" text-anchor="start" dominant-baseline="central" x="455.0" y="1008" transform="translate(432,1008) rotate(0) translate(-432,-1008)">COLOMBO Fort</text>
  </g>
  <g>
    <text fill="black" stroke="none" font-size="28.0" font-family="p22" font-weight="100" text-anchor="start" dominant-baseline="central" x="858.0" y="835" transform="translate(835,835) rotate(0) translate(-835,-835)">Nawalapitiya</text>
  </g>
  <g>
    <text fill="black" stroke="none" font-size="28.0" font-family="p22" font-weight="100" text-anchor="start" dominant-baseline="central" x="858.0" y="720" transform="translate(835,720) rotate(0) translate(-835,-720)">KANDY</text>
  </g>
  <g>
    <circle r="12" fill="white" stroke="black" stroke-width="3.0" cx="777" cy="777"/>
    <text fill="black" stroke="none" font-size="24.0" font-family="p22" font-weight="100" text-anchor="start" dominant-baseline="central" x="798.0" y="777" transform="translate(777,777) rotate(0) translate(-777,-777)">Peradeniya</text>
  </g>
  <g>
    <text fill="gray" stroke="none" font-size="22.0" font-family="p22" font-weight="100" text-anchor="start" dominant-baseline="central" x="624.0" y="835" transform="translate(604,835) rotate(0) translate(-604,-835)">GAMPAHA</text>
  </g>
  <g>
    <text fill="gray" stroke="none" font-size="20" font-family="p22" font-weight="100" text-anchor="start" dominant-baseline="central" x="508.0" y="950" transform="translate(489,950) rotate(0) translate(-489,-950)">Maradana</text>
  </g>
  <g>
    <text fill="gray" stroke="none" font-size="20" font-family="p22" font-weight="100" text-anchor="start" dominant-baseline="central" x="566.0" y="892" transform="translate(547,892) rotate(0) translate(-547,-892)">Ragama</text>
  </g>
  <g>
    <text fill="gray" stroke="none" font-size="20" font-family="p22" font-weight="100" text-anchor="end" dominant-baseline="central" x="643.0" y="777" transform="translate(662,777) rotate(0) translate(-662,-777)">Ambepussa</text>
  </g>
  <g>
    <text fill="gray" stroke="none" font-size="20" font-family="p22" font-weight="100" text-anchor="start" dominant-baseline="central" x="739.0" y="777" transform="translate(720,777) rotate(-45) translate(-720,-777)">Polgahawela</text>
  </g>
</svg>
