<?xml version="1.0" ?>
<svg xmlns="http://www.w3.org/2000/svg" width="3600" height="3600" padding="360">
  <text fill="#fcfcfc" stroke="none" font-size="600.0" font-family="p22" x="1800.0" y="1800.0" text-anchor="middle" dominant-baseline="center">@nuuuwan</text>
  <text fill="black" stroke="none" font-size="120" font-family="p22" x="1800.0" y="180.0" text-anchor="middle" dominant-baseline="hanging">1874</text>
  <text fill="gray" stroke="none" font-size="40" font-family="p22" x="1800.0" y="230.0" text-anchor="middle" dominant-baseline="hanging">Railways in Sri Lanka</text>
  <text fill="gray" stroke="none" font-size="40" font-family="p22" x="1800.0" y="3460.0" text-anchor="middle" dominant-baseline="text-top">data from multiple sources ~ music by @bensound ~ visualization by @nuuuwan</text>
  <g>
    <path fill="none" stroke-width="29.400000000000002" stroke-opacity="1" d="M 360.0,2700.0 L 720.0,2340.0 L 1080.0,1980.0 L 1440.0,1620.0 L 1787.272077938642,1272.727922061358 C 1791.5147186257614,1268.4852813742386 1812.0,1260.0 1818.0,1260.0 L 2160.0,1260.0 L 2502.0,1260.0 C 2508.0,1260.0 2528.4852813742386,1268.4852813742386 2532.7279220613577,1272.727922061358 L 2880.0,1620.0 L 3240.0,1980.0" stroke="red"/>
    <rect stroke="none" fill-opacity="1" x="3226" y="1952" width="28" height="56" fill="red"/>
  </g>
  <g>
    <path fill="none" stroke-width="29.400000000000002" stroke-opacity="1" d="M 2520.0,1260.0 L 2880.0,900.0" stroke="purple"/>
    <rect stroke="none" fill-opacity="1" x="2866" y="872" width="28" height="56" fill="purple"/>
  </g>
  <g>
    <text fill="black" stroke="none" font-size="56.0" font-family="p22" font-weight="100" text-anchor="start" dominant-baseline="central" x="409.0" y="2700" transform="translate(360,2700) rotate(0) translate(-360,-2700)">COLOMBO Fort</text>
  </g>
  <g>
    <text fill="black" stroke="none" font-size="56.0" font-family="p22" font-weight="100" text-anchor="start" dominant-baseline="central" x="3289.0" y="1980" transform="translate(3240,1980) rotate(0) translate(-3240,-1980)">Nawalapitiya</text>
  </g>
  <g>
    <text fill="black" stroke="none" font-size="56.0" font-family="p22" font-weight="100" text-anchor="start" dominant-baseline="central" x="2929.0" y="900" transform="translate(2880,900) rotate(0) translate(-2880,-900)">KANDY</text>
  </g>
  <g>
    <circle r="28" fill="white" stroke="black" stroke-width="7.0" cx="2520" cy="1260"/>
    <text fill="black" stroke="none" font-size="48.0" font-family="p22" font-weight="100" text-anchor="start" dominant-baseline="central" x="2565.0" y="1260" transform="translate(2520,1260) rotate(0) translate(-2520,-1260)">Peradeniya</text>
  </g>
  <g>
    <text fill="gray" stroke="none" font-size="44.0" font-family="p22" font-weight="100" text-anchor="start" dominant-baseline="central" x="1483.0" y="1620" transform="translate(1440,1620) rotate(0) translate(-1440,-1620)">GAMPAHA</text>
  </g>
  <g>
    <text fill="gray" stroke="none" font-size="40" font-family="p22" font-weight="100" text-anchor="start" dominant-baseline="central" x="761.0" y="2340" transform="translate(720,2340) rotate(0) translate(-720,-2340)">Maradana</text>
  </g>
  <g>
    <text fill="gray" stroke="none" font-size="40" font-family="p22" font-weight="100" text-anchor="start" dominant-baseline="central" x="1121.0" y="1980" transform="translate(1080,1980) rotate(0) translate(-1080,-1980)">Ragama</text>
  </g>
  <g>
    <text fill="gray" stroke="none" font-size="40" font-family="p22" font-weight="100" text-anchor="end" dominant-baseline="central" x="1759.0" y="1260" transform="translate(1800,1260) rotate(0) translate(-1800,-1260)">Ambepussa</text>
  </g>
  <g>
    <text fill="gray" stroke="none" font-size="40" font-family="p22" font-weight="100" text-anchor="start" dominant-baseline="central" x="2201.0" y="1260" transform="translate(2160,1260) rotate(-45) translate(-2160,-1260)">Polgahawela</text>
  </g>
  <g>
    <text fill="gray" stroke="none" font-size="40" font-family="p22" font-weight="100" text-anchor="start" dominant-baseline="central" x="2921.0" y="1620" transform="translate(2880,1620) rotate(0) translate(-2880,-1620)">Gampola</text>
  </g>
</svg>
