<?xml version="1.0" ?>
<svg xmlns="http://www.w3.org/2000/svg" width="3600" height="3600" padding="360">
  <text fill="#fcfcfc" stroke="none" font-size="600.0" font-family="p22" x="1800.0" y="1800.0" text-anchor="middle" dominant-baseline="center">@nuuuwan</text>
  <text fill="black" stroke="none" font-size="120" font-family="p22" x="1800.0" y="180.0" text-anchor="middle" dominant-baseline="hanging">1875</text>
  <text fill="gray" stroke="none" font-size="40" font-family="p22" x="1800.0" y="230.0" text-anchor="middle" dominant-baseline="hanging">Railways in Sri Lanka</text>
  <text fill="gray" stroke="none" font-size="40" font-family="p22" x="1800.0" y="3460.0" text-anchor="middle" dominant-baseline="text-top">data from multiple sources ~ music by @bensound ~ visualization by @nuuuwan</text>
  <g>
    <path fill="none" stroke-width="29.400000000000002" stroke-opacity="1" d="M 360.0,2600.0 L 680.0,2280.0 L 1000.0,1960.0 L 1320.0,1640.0 L 1628.6862915010151,1331.3137084989849 C 1632.4575276673436,1327.5424723326564 1650.6666666666667,1320.0 1656.0,1320.0 L 1960.0,1320.0 L 2264.0,1320.0 C 2269.3333333333335,1320.0 2287.5424723326564,1327.5424723326564 2291.313708498985,1331.3137084989849 L 2600.0,1640.0 L 2920.0,1960.0 L 3240.0,2280.0" stroke="red"/>
    <rect stroke="none" fill-opacity="1" x="3226" y="2252" width="28" height="56" fill="red"/>
  </g>
  <g>
    <path fill="none" stroke-width="29.400000000000002" stroke-opacity="1" d="M 2280.0,1320.0 L 2600.0,1000.0" stroke="purple"/>
    <rect stroke="none" fill-opacity="1" x="2586" y="972" width="28" height="56" fill="purple"/>
  </g>
  <g>
    <text fill="black" stroke="none" font-size="56.0" font-family="p22" font-weight="100" text-anchor="start" dominant-baseline="central" x="409.0" y="2600" transform="translate(360,2600) rotate(0) translate(-360,-2600)">COLOMBO Fort</text>
  </g>
  <g>
    <text fill="black" stroke="none" font-size="56.0" font-family="p22" font-weight="100" text-anchor="start" dominant-baseline="central" x="3289.0" y="2280" transform="translate(3240,2280) rotate(0) translate(-3240,-2280)">Talawakele</text>
  </g>
  <g>
    <text fill="black" stroke="none" font-size="56.0" font-family="p22" font-weight="100" text-anchor="start" dominant-baseline="central" x="2649.0" y="1000" transform="translate(2600,1000) rotate(0) translate(-2600,-1000)">KANDY</text>
  </g>
  <g>
    <circle r="28" fill="white" stroke="black" stroke-width="7.0" cx="2280" cy="1320"/>
    <text fill="black" stroke="none" font-size="48.0" font-family="p22" font-weight="100" text-anchor="start" dominant-baseline="central" x="2325.0" y="1320" transform="translate(2280,1320) rotate(0) translate(-2280,-1320)">Peradeniya</text>
  </g>
  <g>
    <text fill="gray" stroke="none" font-size="44.0" font-family="p22" font-weight="100" text-anchor="start" dominant-baseline="central" x="1363.0" y="1640" transform="translate(1320,1640) rotate(0) translate(-1320,-1640)">GAMPAHA</text>
  </g>
  <g>
    <text fill="gray" stroke="none" font-size="40" font-family="p22" font-weight="100" text-anchor="start" dominant-baseline="central" x="721.0" y="2280" transform="translate(680,2280) rotate(0) translate(-680,-2280)">Maradana</text>
  </g>
  <g>
    <text fill="gray" stroke="none" font-size="40" font-family="p22" font-weight="100" text-anchor="start" dominant-baseline="central" x="1041.0" y="1960" transform="translate(1000,1960) rotate(0) translate(-1000,-1960)">Ragama</text>
  </g>
  <g>
    <text fill="gray" stroke="none" font-size="40" font-family="p22" font-weight="100" text-anchor="end" dominant-baseline="central" x="1599.0" y="1320" transform="translate(1640,1320) rotate(0) translate(-1640,-1320)">Ambepussa</text>
  </g>
  <g>
    <text fill="gray" stroke="none" font-size="40" font-family="p22" font-weight="100" text-anchor="start" dominant-baseline="central" x="2001.0" y="1320" transform="translate(1960,1320) rotate(-45) translate(-1960,-1320)">Polgahawela</text>
  </g>
  <g>
    <text fill="gray" stroke="none" font-size="40" font-family="p22" font-weight="100" text-anchor="start" dominant-baseline="central" x="2641.0" y="1640" transform="translate(2600,1640) rotate(0) translate(-2600,-1640)">Gampola</text>
  </g>
  <g>
    <text fill="gray" stroke="none" font-size="40" font-family="p22" font-weight="100" text-anchor="start" dominant-baseline="central" x="2961.0" y="1960" transform="translate(2920,1960) rotate(0) translate(-2920,-1960)">Nawalapitiya</text>
  </g>
</svg>
