<?xml version="1.0" ?>
<svg xmlns="http://www.w3.org/2000/svg" width="3600" height="3600" padding="360">
  <text fill="#fcfcfc" stroke="none" font-size="600.0" font-family="p22" x="1800.0" y="1800.0" text-anchor="middle" dominant-baseline="center">@nuuuwan</text>
  <text fill="black" stroke="none" font-size="160" font-family="p22" x="1800.0" y="180.0" text-anchor="middle" dominant-baseline="hanging">1877</text>
  <text fill="gray" stroke="none" font-size="40" font-family="p22" x="1800.0" y="230.0" text-anchor="middle" dominant-baseline="hanging"/>
  <text fill="gray" stroke="none" font-size="40" font-family="p22" x="1800.0" y="3460.0" text-anchor="middle" dominant-baseline="text-top">data from multiple sources ~ music by @bensound ~ visualization by @nuuuwan</text>
  <g>
    <path fill="none" stroke-width="29.400000000000002" stroke-opacity="1" d="M 360.0,2440.0 L 680.0,2120.0 L 1000.0,1800.0 L 1320.0,1480.0 L 1628.6862915010151,1171.3137084989849 C 1632.4575276673436,1167.5424723326564 1650.6666666666667,1160.0 1656.0,1160.0 L 1960.0,1160.0 L 2264.0,1160.0 C 2269.3333333333335,1160.0 2287.5424723326564,1167.5424723326564 2291.313708498985,1171.3137084989849 L 2600.0,1480.0 L 2920.0,1800.0 L 3240.0,2120.0" stroke="red"/>
    <rect stroke="none" fill-opacity="1" x="3226" y="2092" width="28" height="56" fill="red"/>
  </g>
  <g>
    <path fill="none" stroke-width="29.400000000000002" stroke-opacity="1" d="M 2280.0,1160.0 L 2600.0,840.0" stroke="purple"/>
    <rect stroke="none" fill-opacity="1" x="2586" y="812" width="28" height="56" fill="purple"/>
  </g>
  <g>
    <path fill="none" stroke-width="29.400000000000002" stroke-opacity="1" d="M 360.0,2440.0 L 360.0,2760.0" stroke="cyan"/>
    <rect stroke="none" fill-opacity="1" x="332" y="2746" width="56" height="28" fill="cyan"/>
  </g>
  <g>
    <text fill="black" stroke="none" font-size="56.0" font-family="p22" font-weight="100" text-anchor="start" dominant-baseline="central" x="3289.0" y="2120" transform="translate(3240,2120) rotate(0) translate(-3240,-2120)">Talawakele</text>
  </g>
  <g>
    <text fill="black" stroke="none" font-size="56.0" font-family="p22" font-weight="100" text-anchor="start" dominant-baseline="central" x="2649.0" y="840" transform="translate(2600,840) rotate(0) translate(-2600,-840)">KANDY</text>
  </g>
  <g>
    <text fill="black" stroke="none" font-size="56.0" font-family="p22" font-weight="100" text-anchor="start" dominant-baseline="central" x="409.0" y="2760" transform="translate(360,2760) rotate(0) translate(-360,-2760)">Panadura</text>
  </g>
  <g>
    <circle r="28" fill="white" stroke="black" stroke-width="7.0" cx="360" cy="2440"/>
    <text fill="black" stroke="none" font-size="48.0" font-family="p22" font-weight="100" text-anchor="start" dominant-baseline="central" x="405.0" y="2440" transform="translate(360,2440) rotate(0) translate(-360,-2440)">COLOMBO Fort</text>
  </g>
  <g>
    <circle r="28" fill="white" stroke="black" stroke-width="7.0" cx="2280" cy="1160"/>
    <text fill="black" stroke="none" font-size="48.0" font-family="p22" font-weight="100" text-anchor="start" dominant-baseline="central" x="2325.0" y="1160" transform="translate(2280,1160) rotate(0) translate(-2280,-1160)">Peradeniya</text>
  </g>
  <g>
    <text fill="gray" stroke="none" font-size="44.0" font-family="p22" font-weight="100" text-anchor="start" dominant-baseline="central" x="1363.0" y="1480" transform="translate(1320,1480) rotate(0) translate(-1320,-1480)">GAMPAHA</text>
  </g>
  <g>
    <text fill="gray" stroke="none" font-size="40" font-family="p22" font-weight="100" text-anchor="start" dominant-baseline="central" x="721.0" y="2120" transform="translate(680,2120) rotate(0) translate(-680,-2120)">Maradana</text>
  </g>
  <g>
    <text fill="gray" stroke="none" font-size="40" font-family="p22" font-weight="100" text-anchor="start" dominant-baseline="central" x="1041.0" y="1800" transform="translate(1000,1800) rotate(0) translate(-1000,-1800)">Ragama</text>
  </g>
  <g>
    <text fill="gray" stroke="none" font-size="40" font-family="p22" font-weight="100" text-anchor="end" dominant-baseline="central" x="1599.0" y="1160" transform="translate(1640,1160) rotate(0) translate(-1640,-1160)">Ambepussa</text>
  </g>
  <g>
    <text fill="gray" stroke="none" font-size="40" font-family="p22" font-weight="100" text-anchor="start" dominant-baseline="central" x="2001.0" y="1160" transform="translate(1960,1160) rotate(-45) translate(-1960,-1160)">Polgahawela</text>
  </g>
  <g>
    <text fill="gray" stroke="none" font-size="40" font-family="p22" font-weight="100" text-anchor="start" dominant-baseline="central" x="2641.0" y="1480" transform="translate(2600,1480) rotate(0) translate(-2600,-1480)">Gampola</text>
  </g>
  <g>
    <text fill="gray" stroke="none" font-size="40" font-family="p22" font-weight="100" text-anchor="start" dominant-baseline="central" x="2961.0" y="1800" transform="translate(2920,1800) rotate(0) translate(-2920,-1800)">Nawalapitiya</text>
  </g>
</svg>
