<?xml version="1.0" ?>
<svg xmlns="http://www.w3.org/2000/svg" width="1300" height="1300" padding="200">
  <text fill="gray" stroke="none" font-size="72" font-family="GIL_____" x="650.0" y="118.0" text-anchor="middle" dominant-baseline="hanging">1877</text>
  <text fill="gray" stroke="none" font-size="18" font-family="GIL_____" x="650.0" y="1218.0" text-anchor="middle" dominant-baseline="text-top">History of the Railways in Sri Lanka</text>
  <g>
    <path fill="none" stroke-width="10.5" stroke-opacity="1" d="M 200.0,907.0 L 321.6,784.45 C 323.73333333333335,782.3 332.3,773.7333333333333 334.45,771.6 L 450.8725,656.08 C 452.915,654.0533333333333 461.05333333333334,645.915 463.08,643.8725 L 578.904,527.143625 C 580.936,525.09575 589.0799058850971,516.9200941149029 591.1198588276457,514.8801411723543 L 709.4745166004061,396.5254833995939 C 710.9830110669374,395.0169889330626 718.2666666666667,392.0 720.4,392.0 L 842.0,392.0 L 964.55,392.0 C 966.7,392.0 974.0405591591021,395.04055915910214 975.5608387386533,396.5608387386532 L 1100.0,521.0" stroke="red"/>
    <rect stroke="none" fill-opacity="1" x="1095" y="511" width="10" height="20" fill="red"/>
  </g>
  <g>
    <path fill="none" stroke-width="10.5" stroke-opacity="1" d="M 971.0,392.0 L 1100.0,264.0" stroke="purple"/>
    <rect stroke="none" fill-opacity="1" x="1095" y="254" width="10" height="20" fill="purple"/>
  </g>
  <g>
    <path fill="none" stroke-width="10.5" stroke-opacity="1" d="M 200.0,907.0 L 200.0,1035.0" stroke="cyan"/>
    <rect stroke="none" fill-opacity="1" x="190" y="1030" width="20" height="10" fill="cyan"/>
  </g>
  <g>
    <text fill="black" stroke="none" font-size="25.2" font-family="GIL_____" font-weight="100" text-anchor="start" dominant-baseline="central" x="1120.1" y="521" transform="translate(1100,521) rotate(0) translate(-1100,-521)">Nawalapitiya</text>
  </g>
  <g>
    <text fill="black" stroke="none" font-size="25.2" font-family="GIL_____" font-weight="100" text-anchor="start" dominant-baseline="central" x="1120.1" y="264" transform="translate(1100,264) rotate(0) translate(-1100,-264)">KANDY</text>
  </g>
  <g>
    <text fill="black" stroke="none" font-size="25.2" font-family="GIL_____" font-weight="100" text-anchor="start" dominant-baseline="central" x="220.1" y="1035" transform="translate(200,1035) rotate(0) translate(-200,-1035)">Panadura</text>
  </g>
  <g>
    <circle r="10" fill="white" stroke="black" stroke-width="2.5" cx="200" cy="907"/>
    <text fill="black" stroke="none" font-size="21.599999999999998" font-family="GIL_____" font-weight="100" text-anchor="start" dominant-baseline="central" x="218.3" y="907" transform="translate(200,907) rotate(0) translate(-200,-907)">COLOMBO Fort</text>
  </g>
  <g>
    <circle r="10" fill="white" stroke="black" stroke-width="2.5" cx="971" cy="392"/>
    <text fill="black" stroke="none" font-size="21.599999999999998" font-family="GIL_____" font-weight="100" text-anchor="start" dominant-baseline="central" x="989.3" y="392" transform="translate(971,392) rotate(0) translate(-971,-392)">Peradeniya</text>
  </g>
  <g>
    <text fill="black" stroke="none" font-size="19.8" font-family="GIL_____" font-weight="100" text-anchor="start" dominant-baseline="central" x="602.4" y="521" transform="translate(585,521) rotate(0) translate(-585,-521)">GAMPAHA</text>
  </g>
  <g>
    <text fill="black" stroke="none" font-size="18" font-family="GIL_____" font-weight="100" text-anchor="start" dominant-baseline="central" x="344.5" y="778" transform="translate(328,778) rotate(0) translate(-328,-778)">Maradana</text>
  </g>
  <g>
    <text fill="black" stroke="none" font-size="18" font-family="GIL_____" font-weight="100" text-anchor="start" dominant-baseline="central" x="473.5" y="650" transform="translate(457,650) rotate(0) translate(-457,-650)">Ragama</text>
  </g>
  <g>
    <text fill="black" stroke="none" font-size="18" font-family="GIL_____" font-weight="100" text-anchor="end" dominant-baseline="central" x="697.5" y="392" transform="translate(714,392) rotate(0) translate(-714,-392)">Ambepussa</text>
  </g>
  <g>
    <text fill="black" stroke="none" font-size="18" font-family="GIL_____" font-weight="100" text-anchor="start" dominant-baseline="central" x="858.5" y="392" transform="translate(842,392) rotate(-45) translate(-842,-392)">Polgahawela</text>
  </g>
</svg>
