<?xml version="1.0" ?>
<svg xmlns="http://www.w3.org/2000/svg" width="2880" height="2880" padding="288">
  <text fill="#fcfcfc" stroke="none" font-size="480.0" font-family="p22" x="1440.0" y="1440.0" text-anchor="middle" dominant-baseline="center">@nuuuwan</text>
  <text fill="black" stroke="none" font-size="80" font-family="p22" x="1440.0" y="144.0" text-anchor="middle" dominant-baseline="hanging">1877</text>
  <text fill="gray" stroke="none" font-size="40" font-family="p22" x="1440.0" y="194.0" text-anchor="middle" dominant-baseline="hanging">History of the Railways in Sri Lanka</text>
  <text fill="gray" stroke="none" font-size="38.4" font-family="p22" x="1440.0" y="2776.0" text-anchor="middle" dominant-baseline="text-top">data from multiple sources ~ music by @bensound ~ visualization by @nuuuwan</text>
  <g>
    <path fill="none" stroke-width="29.400000000000002" stroke-opacity="1" d="M 288.0,1952.0 L 544.0,1696.0 L 800.0,1440.0 L 1056.0,1184.0 L 1302.9490332008122,937.0509667991878 C 1305.9660221338747,934.0339778661252 1320.5333333333333,928.0 1324.8,928.0 L 1568.0,928.0 L 1811.2,928.0 C 1815.4666666666667,928.0 1830.0339778661253,934.0339778661252 1833.0509667991878,937.0509667991878 L 2080.0,1184.0 L 2336.0,1440.0 L 2592.0,1696.0" stroke="red"/>
    <rect stroke="none" fill-opacity="1" x="2578" y="1668" width="28" height="56" fill="red"/>
  </g>
  <g>
    <path fill="none" stroke-width="29.400000000000002" stroke-opacity="1" d="M 1824.0,928.0 L 2080.0,672.0" stroke="purple"/>
    <rect stroke="none" fill-opacity="1" x="2066" y="644" width="28" height="56" fill="purple"/>
  </g>
  <g>
    <path fill="none" stroke-width="29.400000000000002" stroke-opacity="1" d="M 288.0,1952.0 L 288.0,2208.0" stroke="cyan"/>
    <rect stroke="none" fill-opacity="1" x="260" y="2194" width="56" height="28" fill="cyan"/>
  </g>
  <g>
    <text fill="black" stroke="none" font-size="56.0" font-family="p22" font-weight="100" text-anchor="start" dominant-baseline="central" x="2641.0" y="1696" transform="translate(2592,1696) rotate(0) translate(-2592,-1696)">Talawakele</text>
  </g>
  <g>
    <text fill="black" stroke="none" font-size="56.0" font-family="p22" font-weight="100" text-anchor="start" dominant-baseline="central" x="2129.0" y="672" transform="translate(2080,672) rotate(0) translate(-2080,-672)">KANDY</text>
  </g>
  <g>
    <text fill="black" stroke="none" font-size="56.0" font-family="p22" font-weight="100" text-anchor="start" dominant-baseline="central" x="337.0" y="2208" transform="translate(288,2208) rotate(0) translate(-288,-2208)">Panadura</text>
  </g>
  <g>
    <circle r="28" fill="white" stroke="black" stroke-width="7.0" cx="288" cy="1952"/>
    <text fill="black" stroke="none" font-size="48.0" font-family="p22" font-weight="100" text-anchor="start" dominant-baseline="central" x="333.0" y="1952" transform="translate(288,1952) rotate(0) translate(-288,-1952)">COLOMBO Fort</text>
  </g>
  <g>
    <circle r="28" fill="white" stroke="black" stroke-width="7.0" cx="1824" cy="928"/>
    <text fill="black" stroke="none" font-size="48.0" font-family="p22" font-weight="100" text-anchor="start" dominant-baseline="central" x="1869.0" y="928" transform="translate(1824,928) rotate(0) translate(-1824,-928)">Peradeniya</text>
  </g>
  <g>
    <text fill="gray" stroke="none" font-size="44.0" font-family="p22" font-weight="100" text-anchor="start" dominant-baseline="central" x="1099.0" y="1184" transform="translate(1056,1184) rotate(0) translate(-1056,-1184)">GAMPAHA</text>
  </g>
  <g>
    <text fill="gray" stroke="none" font-size="40" font-family="p22" font-weight="100" text-anchor="start" dominant-baseline="central" x="585.0" y="1696" transform="translate(544,1696) rotate(0) translate(-544,-1696)">Maradana</text>
  </g>
  <g>
    <text fill="gray" stroke="none" font-size="40" font-family="p22" font-weight="100" text-anchor="start" dominant-baseline="central" x="841.0" y="1440" transform="translate(800,1440) rotate(0) translate(-800,-1440)">Ragama</text>
  </g>
  <g>
    <text fill="gray" stroke="none" font-size="40" font-family="p22" font-weight="100" text-anchor="end" dominant-baseline="central" x="1271.0" y="928" transform="translate(1312,928) rotate(0) translate(-1312,-928)">Ambepussa</text>
  </g>
  <g>
    <text fill="gray" stroke="none" font-size="40" font-family="p22" font-weight="100" text-anchor="start" dominant-baseline="central" x="1609.0" y="928" transform="translate(1568,928) rotate(-45) translate(-1568,-928)">Polgahawela</text>
  </g>
  <g>
    <text fill="gray" stroke="none" font-size="40" font-family="p22" font-weight="100" text-anchor="start" dominant-baseline="central" x="2121.0" y="1184" transform="translate(2080,1184) rotate(0) translate(-2080,-1184)">Gampola</text>
  </g>
  <g>
    <text fill="gray" stroke="none" font-size="40" font-family="p22" font-weight="100" text-anchor="start" dominant-baseline="central" x="2377.0" y="1440" transform="translate(2336,1440) rotate(0) translate(-2336,-1440)">Nawalapitiya</text>
  </g>
</svg>
