<?xml version="1.0" ?>
<svg xmlns="http://www.w3.org/2000/svg" width="3600" height="3600" padding="720">
  <text fill="#fcfcfc" stroke="none" font-size="600.0" font-family="p22" x="1800.0" y="1800.0" text-anchor="middle" dominant-baseline="center">@nuuuwan</text>
  <text fill="black" stroke="none" font-size="160" font-family="p22" x="1800.0" y="360.0" text-anchor="middle" dominant-baseline="hanging">1878</text>
  <text fill="gray" stroke="none" font-size="40" font-family="p22" x="1800.0" y="410.0" text-anchor="middle" dominant-baseline="hanging"/>
  <text fill="gray" stroke="none" font-size="40" font-family="p22" x="1800.0" y="3280.0" text-anchor="middle" dominant-baseline="text-top">data from multiple sources ~ music by @bensound ~ visualization by @nuuuwan</text>
  <g>
    <path fill="none" stroke-width="29.400000000000002" stroke-opacity="1" d="M 720.0,2070.0 L 990.0,1800.0 L 1260.0,1530.0 L 1520.4540584539816,1269.5459415460184 C 1523.6360389693211,1266.3639610306789 1539.0,1260.0 1543.5,1260.0 L 1800.0,1260.0 L 2056.5,1260.0 C 2061.0,1260.0 2076.363961030679,1266.3639610306789 2079.545941546018,1269.5459415460184 L 2340.0,1530.0 L 2610.0,1800.0 L 2880.0,2070.0" stroke="red"/>
    <rect stroke="none" fill-opacity="1" x="2866" y="2042" width="28" height="56" fill="red"/>
  </g>
  <g>
    <path fill="none" stroke-width="29.400000000000002" stroke-opacity="1" d="M 2070.0,1260.0 L 2340.0,990.0" stroke="purple"/>
    <rect stroke="none" fill-opacity="1" x="2326" y="962" width="28" height="56" fill="purple"/>
  </g>
  <g>
    <path fill="none" stroke-width="29.400000000000002" stroke-opacity="1" d="M 720.0,2070.0 L 720.0,2340.0 L 720.0,2610.0" stroke="cyan"/>
    <rect stroke="none" fill-opacity="1" x="692" y="2596" width="56" height="28" fill="cyan"/>
  </g>
  <g>
    <text fill="black" stroke="none" font-size="56.0" font-family="p22" font-weight="100" text-anchor="start" dominant-baseline="central" x="2929.0" y="2070" transform="translate(2880,2070) rotate(0) translate(-2880,-2070)">Talawakele</text>
  </g>
  <g>
    <text fill="black" stroke="none" font-size="56.0" font-family="p22" font-weight="100" text-anchor="start" dominant-baseline="central" x="2389.0" y="990" transform="translate(2340,990) rotate(0) translate(-2340,-990)">Kandy</text>
  </g>
  <g>
    <text fill="black" stroke="none" font-size="56.0" font-family="p22" font-weight="100" text-anchor="start" dominant-baseline="central" x="769.0" y="2610" transform="translate(720,2610) rotate(0) translate(-720,-2610)">Kalutara N.</text>
  </g>
  <g>
    <circle r="28" fill="white" stroke="black" stroke-width="7.0" cx="720" cy="2070"/>
    <text fill="black" stroke="none" font-size="48.0" font-family="p22" font-weight="100" text-anchor="start" dominant-baseline="central" x="765.0" y="2070" transform="translate(720,2070) rotate(0) translate(-720,-2070)">C. Terminus</text>
  </g>
  <g>
    <circle r="28" fill="white" stroke="black" stroke-width="7.0" cx="2070" cy="1260"/>
    <text fill="black" stroke="none" font-size="48.0" font-family="p22" font-weight="100" text-anchor="start" dominant-baseline="central" x="2115.0" y="1260" transform="translate(2070,1260) rotate(0) translate(-2070,-1260)">Peradeniya</text>
  </g>
  <g>
    <text fill="gray" stroke="none" font-size="44.0" font-family="p22" font-weight="100" text-anchor="start" dominant-baseline="central" x="1303.0" y="1530" transform="translate(1260,1530) rotate(0) translate(-1260,-1530)">Gampaha</text>
  </g>
  <g>
    <text fill="gray" stroke="none" font-size="40" font-family="p22" font-weight="100" text-anchor="start" dominant-baseline="central" x="1031.0" y="1800" transform="translate(990,1800) rotate(0) translate(-990,-1800)">Ragama</text>
  </g>
  <g>
    <text fill="gray" stroke="none" font-size="40" font-family="p22" font-weight="100" text-anchor="end" dominant-baseline="central" x="1489.0" y="1260" transform="translate(1530,1260) rotate(0) translate(-1530,-1260)">Ambepussa</text>
  </g>
  <g>
    <text fill="gray" stroke="none" font-size="40" font-family="p22" font-weight="100" text-anchor="start" dominant-baseline="central" x="1841.0" y="1260" transform="translate(1800,1260) rotate(-45) translate(-1800,-1260)">Polgahawela</text>
  </g>
  <g>
    <text fill="gray" stroke="none" font-size="40" font-family="p22" font-weight="100" text-anchor="start" dominant-baseline="central" x="2381.0" y="1530" transform="translate(2340,1530) rotate(0) translate(-2340,-1530)">Gampola</text>
  </g>
  <g>
    <text fill="gray" stroke="none" font-size="40" font-family="p22" font-weight="100" text-anchor="start" dominant-baseline="central" x="2651.0" y="1800" transform="translate(2610,1800) rotate(0) translate(-2610,-1800)">Nawalapitiya</text>
  </g>
  <g>
    <text fill="gray" stroke="none" font-size="40" font-family="p22" font-weight="100" text-anchor="start" dominant-baseline="central" x="761.0" y="2340" transform="translate(720,2340) rotate(0) translate(-720,-2340)">Panadura</text>
  </g>
</svg>
