<?xml version="1.0" ?>
<svg xmlns="http://www.w3.org/2000/svg" width="3600" height="3600" padding="720">
  <text fill="#fcfcfc" stroke="none" font-size="600.0" font-family="p22" x="1800.0" y="1800.0" text-anchor="middle" dominant-baseline="center">@nuuuwan</text>
  <text fill="black" stroke="none" font-size="160" font-family="p22" x="1800.0" y="360.0" text-anchor="middle" dominant-baseline="hanging">1879</text>
  <text fill="gray" stroke="none" font-size="40" font-family="p22" x="1800.0" y="410.0" text-anchor="middle" dominant-baseline="hanging"/>
  <text fill="gray" stroke="none" font-size="40" font-family="p22" x="1800.0" y="3280.0" text-anchor="middle" dominant-baseline="text-top">data from multiple sources ~ music by @bensound ~ visualization by @nuuuwan</text>
  <g>
    <path fill="none" stroke-width="29.400000000000002" stroke-opacity="1" d="M 720.0,1935.0 L 990.0,1665.0 L 1260.0,1395.0 L 1520.4540584539816,1134.5459415460184 C 1523.6360389693211,1131.3639610306789 1539.0,1125.0 1543.5,1125.0 L 1800.0,1125.0 L 2056.5,1125.0 C 2061.0,1125.0 2076.363961030679,1131.3639610306789 2079.545941546018,1134.5459415460184 L 2340.0,1395.0 L 2610.0,1665.0 L 2880.0,1935.0" stroke="red"/>
    <rect stroke="none" fill-opacity="1" x="2866" y="1907" width="28" height="56" fill="red"/>
  </g>
  <g>
    <path fill="none" stroke-width="29.400000000000002" stroke-opacity="1" d="M 2070.0,1125.0 L 2340.0,855.0" stroke="purple"/>
    <rect stroke="none" fill-opacity="1" x="2326" y="827" width="28" height="56" fill="purple"/>
  </g>
  <g>
    <path fill="none" stroke-width="29.400000000000002" stroke-opacity="1" d="M 720.0,1935.0 L 720.0,2205.0 L 720.0,2475.0 L 720.0,2745.0" stroke="cyan"/>
    <rect stroke="none" fill-opacity="1" x="692" y="2731" width="56" height="28" fill="cyan"/>
  </g>
  <g>
    <text fill="black" stroke="none" font-size="56.0" font-family="p22" font-weight="100" text-anchor="start" dominant-baseline="central" x="2929.0" y="1935" transform="translate(2880,1935) rotate(0) translate(-2880,-1935)">Talawakele</text>
  </g>
  <g>
    <text fill="black" stroke="none" font-size="56.0" font-family="p22" font-weight="100" text-anchor="start" dominant-baseline="central" x="2389.0" y="855" transform="translate(2340,855) rotate(0) translate(-2340,-855)">Kandy</text>
  </g>
  <g>
    <text fill="black" stroke="none" font-size="56.0" font-family="p22" font-weight="100" text-anchor="start" dominant-baseline="central" x="769.0" y="2745" transform="translate(720,2745) rotate(0) translate(-720,-2745)">Wadduwa</text>
  </g>
  <g>
    <circle r="28" fill="white" stroke="black" stroke-width="7.0" cx="720" cy="1935"/>
    <text fill="black" stroke="none" font-size="48.0" font-family="p22" font-weight="100" text-anchor="start" dominant-baseline="central" x="765.0" y="1935" transform="translate(720,1935) rotate(0) translate(-720,-1935)">C. Terminus</text>
  </g>
  <g>
    <circle r="28" fill="white" stroke="black" stroke-width="7.0" cx="2070" cy="1125"/>
    <text fill="black" stroke="none" font-size="48.0" font-family="p22" font-weight="100" text-anchor="start" dominant-baseline="central" x="2115.0" y="1125" transform="translate(2070,1125) rotate(0) translate(-2070,-1125)">Peradeniya</text>
  </g>
  <g>
    <text fill="gray" stroke="none" font-size="44.0" font-family="p22" font-weight="100" text-anchor="start" dominant-baseline="central" x="1303.0" y="1395" transform="translate(1260,1395) rotate(0) translate(-1260,-1395)">Gampaha</text>
  </g>
  <g>
    <text fill="gray" stroke="none" font-size="40" font-family="p22" font-weight="100" text-anchor="start" dominant-baseline="central" x="1031.0" y="1665" transform="translate(990,1665) rotate(0) translate(-990,-1665)">Ragama</text>
  </g>
  <g>
    <text fill="gray" stroke="none" font-size="40" font-family="p22" font-weight="100" text-anchor="end" dominant-baseline="central" x="1489.0" y="1125" transform="translate(1530,1125) rotate(0) translate(-1530,-1125)">Ambepussa</text>
  </g>
  <g>
    <text fill="gray" stroke="none" font-size="40" font-family="p22" font-weight="100" text-anchor="start" dominant-baseline="central" x="1841.0" y="1125" transform="translate(1800,1125) rotate(-45) translate(-1800,-1125)">Polgahawela</text>
  </g>
  <g>
    <text fill="gray" stroke="none" font-size="40" font-family="p22" font-weight="100" text-anchor="start" dominant-baseline="central" x="2381.0" y="1395" transform="translate(2340,1395) rotate(0) translate(-2340,-1395)">Gampola</text>
  </g>
  <g>
    <text fill="gray" stroke="none" font-size="40" font-family="p22" font-weight="100" text-anchor="start" dominant-baseline="central" x="2651.0" y="1665" transform="translate(2610,1665) rotate(0) translate(-2610,-1665)">Nawalapitiya</text>
  </g>
  <g>
    <text fill="gray" stroke="none" font-size="40" font-family="p22" font-weight="100" text-anchor="start" dominant-baseline="central" x="761.0" y="2205" transform="translate(720,2205) rotate(0) translate(-720,-2205)">Panadura</text>
  </g>
  <g>
    <text fill="gray" stroke="none" font-size="40" font-family="p22" font-weight="100" text-anchor="start" dominant-baseline="central" x="761.0" y="2475" transform="translate(720,2475) rotate(0) translate(-720,-2475)">Kalutara N.</text>
  </g>
</svg>
