<?xml version="1.0" ?>
<svg xmlns="http://www.w3.org/2000/svg" width="3600" height="3600" padding="480">
  <text fill="#fcfcfc" stroke="none" font-size="600.0" font-family="p22" x="1800.0" y="1800.0" text-anchor="middle" dominant-baseline="center">@nuuuwan</text>
  <text fill="black" stroke="none" font-size="160" font-family="p22" x="1800.0" y="240.0" text-anchor="middle" dominant-baseline="hanging">1885</text>
  <text fill="gray" stroke="none" font-size="40" font-family="p22" x="1800.0" y="290.0" text-anchor="middle" dominant-baseline="hanging"/>
  <text fill="gray" stroke="none" font-size="40" font-family="p22" x="1800.0" y="3400.0" text-anchor="middle" dominant-baseline="text-top">data from multiple sources ~ music by @bensound ~ visualization by @nuuuwan</text>
  <g>
    <path fill="none" stroke-width="29.400000000000002" stroke-opacity="1" d="M 480.0,1946.0 L 773.0,1653.0 L 1066.0,1360.0 L 1349.640885655617,1076.359114344383 C 1353.0939237704115,1072.9060762295885 1369.7666666666667,1066.0 1374.65,1066.0 L 1653.0,1066.0 L 1931.35,1066.0 C 1936.2333333333333,1066.0 1952.9060762295885,1072.9060762295885 1956.359114344383,1076.359114344383 L 2240.0,1360.0 L 2533.0,1653.0 L 2826.0,1946.0 L 3120.0,2240.0" stroke="red"/>
    <rect stroke="none" fill-opacity="1" x="3106" y="2212" width="28" height="56" fill="red"/>
  </g>
  <g>
    <path fill="none" stroke-width="29.400000000000002" stroke-opacity="1" d="M 1946.0,1066.0 L 2229.623253158931,783.341451783786 C 2233.082168772621,779.8943011891907 2249.766666666667,773.0 2254.65,773.0 L 2533.0,773.0" stroke="purple"/>
    <rect stroke="none" fill-opacity="1" x="2519" y="745" width="28" height="56" fill="purple"/>
  </g>
  <g>
    <path fill="none" stroke-width="29.400000000000002" stroke-opacity="1" d="M 480.0,1946.0 L 480.0,2240.0 L 480.0,2533.0 L 480.0,2826.0" stroke="cyan"/>
    <rect stroke="none" fill-opacity="1" x="452" y="2812" width="56" height="28" fill="cyan"/>
  </g>
  <g>
    <text fill="black" stroke="none" font-size="56.0" font-family="p22" font-weight="100" text-anchor="start" dominant-baseline="central" x="3169.0" y="2240" transform="translate(3120,2240) rotate(0) translate(-3120,-2240)">Nanu Oya</text>
  </g>
  <g>
    <text fill="black" stroke="none" font-size="56.0" font-family="p22" font-weight="100" text-anchor="start" dominant-baseline="central" x="2582.0" y="773" transform="translate(2533,773) rotate(0) translate(-2533,-773)">Matale</text>
  </g>
  <g>
    <text fill="black" stroke="none" font-size="56.0" font-family="p22" font-weight="100" text-anchor="start" dominant-baseline="central" x="529.0" y="2826" transform="translate(480,2826) rotate(0) translate(-480,-2826)">Wadduwa</text>
  </g>
  <g>
    <circle r="28" fill="white" stroke="black" stroke-width="7.0" cx="480" cy="1946"/>
    <text fill="black" stroke="none" font-size="48.0" font-family="p22" font-weight="100" text-anchor="start" dominant-baseline="central" x="525.0" y="1946" transform="translate(480,1946) rotate(0) translate(-480,-1946)">C. Terminus</text>
  </g>
  <g>
    <circle r="28" fill="white" stroke="black" stroke-width="7.0" cx="1946" cy="1066"/>
    <text fill="black" stroke="none" font-size="48.0" font-family="p22" font-weight="100" text-anchor="start" dominant-baseline="central" x="1991.0" y="1066" transform="translate(1946,1066) rotate(0) translate(-1946,-1066)">Peradeniya</text>
  </g>
  <g>
    <text fill="gray" stroke="none" font-size="44.0" font-family="p22" font-weight="100" text-anchor="start" dominant-baseline="central" x="1109.0" y="1360" transform="translate(1066,1360) rotate(0) translate(-1066,-1360)">Gampaha</text>
  </g>
  <g>
    <text fill="gray" stroke="none" font-size="44.0" font-family="p22" font-weight="100" text-anchor="end" dominant-baseline="central" x="2197.0" y="773" transform="translate(2240,773) rotate(0) translate(-2240,-773)">Kandy</text>
  </g>
  <g>
    <text fill="gray" stroke="none" font-size="40" font-family="p22" font-weight="100" text-anchor="start" dominant-baseline="central" x="814.0" y="1653" transform="translate(773,1653) rotate(0) translate(-773,-1653)">Ragama</text>
  </g>
  <g>
    <text fill="gray" stroke="none" font-size="40" font-family="p22" font-weight="100" text-anchor="end" dominant-baseline="central" x="1319.0" y="1066" transform="translate(1360,1066) rotate(0) translate(-1360,-1066)">Ambepussa</text>
  </g>
  <g>
    <text fill="gray" stroke="none" font-size="40" font-family="p22" font-weight="100" text-anchor="end" dominant-baseline="central" x="1612.0" y="1066" transform="translate(1653,1066) rotate(45) translate(-1653,-1066)">Polgahawela</text>
  </g>
  <g>
    <text fill="gray" stroke="none" font-size="40" font-family="p22" font-weight="100" text-anchor="start" dominant-baseline="central" x="2281.0" y="1360" transform="translate(2240,1360) rotate(0) translate(-2240,-1360)">Gampola</text>
  </g>
  <g>
    <text fill="gray" stroke="none" font-size="40" font-family="p22" font-weight="100" text-anchor="start" dominant-baseline="central" x="2574.0" y="1653" transform="translate(2533,1653) rotate(0) translate(-2533,-1653)">Nawalapitiya</text>
  </g>
  <g>
    <text fill="gray" stroke="none" font-size="40" font-family="p22" font-weight="100" text-anchor="start" dominant-baseline="central" x="2867.0" y="1946" transform="translate(2826,1946) rotate(0) translate(-2826,-1946)">Talawakele</text>
  </g>
  <g>
    <text fill="gray" stroke="none" font-size="40" font-family="p22" font-weight="100" text-anchor="start" dominant-baseline="central" x="521.0" y="2240" transform="translate(480,2240) rotate(0) translate(-480,-2240)">Panadura</text>
  </g>
  <g>
    <text fill="gray" stroke="none" font-size="40" font-family="p22" font-weight="100" text-anchor="start" dominant-baseline="central" x="521.0" y="2533" transform="translate(480,2533) rotate(0) translate(-480,-2533)">Kalutara N.</text>
  </g>
</svg>
