<?xml version="1.0" ?>
<svg xmlns="http://www.w3.org/2000/svg" width="3600" height="3600" padding="360">
  <text fill="#fcfcfc" stroke="none" font-size="600.0" font-family="p22" x="1800.0" y="1800.0" text-anchor="middle" dominant-baseline="center">@nuuuwan</text>
  <text fill="black" stroke="none" font-size="160" font-family="p22" x="1800.0" y="180.0" text-anchor="middle" dominant-baseline="hanging">1885</text>
  <text fill="gray" stroke="none" font-size="40" font-family="p22" x="1800.0" y="230.0" text-anchor="middle" dominant-baseline="hanging"/>
  <text fill="gray" stroke="none" font-size="40" font-family="p22" x="1800.0" y="3460.0" text-anchor="middle" dominant-baseline="text-top">data from multiple sources ~ music by @bensound ~ visualization by @nuuuwan</text>
  <g>
    <path fill="none" stroke-width="29.400000000000002" stroke-opacity="1" d="M 360.0,2088.0 L 648.0,1800.0 L 936.0,1512.0 L 1224.0,1224.0 L 1501.8176623509137,946.1823376490863 C 1505.211774900609,942.7882250993908 1521.6,936.0 1526.4,936.0 L 1800.0,936.0 L 2073.6,936.0 C 2078.4,936.0 2094.7882250993907,942.7882250993908 2098.182337649086,946.1823376490863 L 2376.0,1224.0 L 2664.0,1512.0 L 2952.0,1800.0 L 3240.0,2088.0" stroke="red"/>
    <rect stroke="none" fill-opacity="1" x="3226" y="2060" width="28" height="56" fill="red"/>
  </g>
  <g>
    <path fill="none" stroke-width="29.400000000000002" stroke-opacity="1" d="M 2088.0,936.0 L 2365.817662350914,658.1823376490863 C 2369.2117749006093,654.7882250993908 2385.6,648.0 2390.4,648.0 L 2664.0,648.0" stroke="purple"/>
    <rect stroke="none" fill-opacity="1" x="2650" y="620" width="28" height="56" fill="purple"/>
  </g>
  <g>
    <path fill="none" stroke-width="29.400000000000002" stroke-opacity="1" d="M 360.0,2088.0 L 360.0,2376.0 L 360.0,2664.0 L 360.0,2952.0" stroke="cyan"/>
    <rect stroke="none" fill-opacity="1" x="332" y="2938" width="56" height="28" fill="cyan"/>
  </g>
  <g>
    <text fill="black" stroke="none" font-size="56.0" font-family="p22" font-weight="100" text-anchor="start" dominant-baseline="central" x="3289.0" y="2088" transform="translate(3240,2088) rotate(0) translate(-3240,-2088)">Nanu Oya</text>
  </g>
  <g>
    <text fill="black" stroke="none" font-size="56.0" font-family="p22" font-weight="100" text-anchor="start" dominant-baseline="central" x="2713.0" y="648" transform="translate(2664,648) rotate(0) translate(-2664,-648)">MATALE</text>
  </g>
  <g>
    <text fill="black" stroke="none" font-size="56.0" font-family="p22" font-weight="100" text-anchor="start" dominant-baseline="central" x="409.0" y="2952" transform="translate(360,2952) rotate(0) translate(-360,-2952)">Wadduwa</text>
  </g>
  <g>
    <circle r="28" fill="white" stroke="black" stroke-width="7.0" cx="360" cy="2088"/>
    <text fill="black" stroke="none" font-size="48.0" font-family="p22" font-weight="100" text-anchor="start" dominant-baseline="central" x="405.0" y="2088" transform="translate(360,2088) rotate(0) translate(-360,-2088)">COLOMBO Fort</text>
  </g>
  <g>
    <circle r="28" fill="white" stroke="black" stroke-width="7.0" cx="2088" cy="936"/>
    <text fill="black" stroke="none" font-size="48.0" font-family="p22" font-weight="100" text-anchor="start" dominant-baseline="central" x="2133.0" y="936" transform="translate(2088,936) rotate(0) translate(-2088,-936)">Peradeniya</text>
  </g>
  <g>
    <text fill="gray" stroke="none" font-size="44.0" font-family="p22" font-weight="100" text-anchor="start" dominant-baseline="central" x="1267.0" y="1224" transform="translate(1224,1224) rotate(0) translate(-1224,-1224)">GAMPAHA</text>
  </g>
  <g>
    <text fill="gray" stroke="none" font-size="44.0" font-family="p22" font-weight="100" text-anchor="end" dominant-baseline="central" x="2333.0" y="648" transform="translate(2376,648) rotate(0) translate(-2376,-648)">KANDY</text>
  </g>
  <g>
    <text fill="gray" stroke="none" font-size="40" font-family="p22" font-weight="100" text-anchor="start" dominant-baseline="central" x="689.0" y="1800" transform="translate(648,1800) rotate(0) translate(-648,-1800)">Maradana</text>
  </g>
  <g>
    <text fill="gray" stroke="none" font-size="40" font-family="p22" font-weight="100" text-anchor="start" dominant-baseline="central" x="977.0" y="1512" transform="translate(936,1512) rotate(0) translate(-936,-1512)">Ragama</text>
  </g>
  <g>
    <text fill="gray" stroke="none" font-size="40" font-family="p22" font-weight="100" text-anchor="end" dominant-baseline="central" x="1471.0" y="936" transform="translate(1512,936) rotate(0) translate(-1512,-936)">Ambepussa</text>
  </g>
  <g>
    <text fill="gray" stroke="none" font-size="40" font-family="p22" font-weight="100" text-anchor="end" dominant-baseline="central" x="1759.0" y="936" transform="translate(1800,936) rotate(45) translate(-1800,-936)">Polgahawela</text>
  </g>
  <g>
    <text fill="gray" stroke="none" font-size="40" font-family="p22" font-weight="100" text-anchor="start" dominant-baseline="central" x="2417.0" y="1224" transform="translate(2376,1224) rotate(0) translate(-2376,-1224)">Gampola</text>
  </g>
  <g>
    <text fill="gray" stroke="none" font-size="40" font-family="p22" font-weight="100" text-anchor="start" dominant-baseline="central" x="2705.0" y="1512" transform="translate(2664,1512) rotate(0) translate(-2664,-1512)">Nawalapitiya</text>
  </g>
  <g>
    <text fill="gray" stroke="none" font-size="40" font-family="p22" font-weight="100" text-anchor="start" dominant-baseline="central" x="2993.0" y="1800" transform="translate(2952,1800) rotate(0) translate(-2952,-1800)">Talawakele</text>
  </g>
  <g>
    <text fill="gray" stroke="none" font-size="40" font-family="p22" font-weight="100" text-anchor="start" dominant-baseline="central" x="401.0" y="2376" transform="translate(360,2376) rotate(0) translate(-360,-2376)">Panadura</text>
  </g>
  <g>
    <text fill="gray" stroke="none" font-size="40" font-family="p22" font-weight="100" text-anchor="start" dominant-baseline="central" x="401.0" y="2664" transform="translate(360,2664) rotate(0) translate(-360,-2664)">KALUTARA North</text>
  </g>
</svg>
