<?xml version="1.0" ?>
<svg xmlns="http://www.w3.org/2000/svg" width="2880" height="2880" padding="288">
  <text fill="#fcfcfc" stroke="none" font-size="480.0" font-family="p22" x="1440.0" y="1440.0" text-anchor="middle" dominant-baseline="center">@nuuuwan</text>
  <text fill="black" stroke="none" font-size="80" font-family="p22" x="1440.0" y="144.0" text-anchor="middle" dominant-baseline="hanging">1885</text>
  <text fill="gray" stroke="none" font-size="40" font-family="p22" x="1440.0" y="194.0" text-anchor="middle" dominant-baseline="hanging">History of the Railways in Sri Lanka</text>
  <text fill="gray" stroke="none" font-size="38.4" font-family="p22" x="1440.0" y="2776.0" text-anchor="middle" dominant-baseline="text-top">data from multiple sources ~ music by @bensound ~ visualization by @nuuuwan</text>
  <g>
    <path fill="none" stroke-width="29.400000000000002" stroke-opacity="1" d="M 288.0,1785.0 L 506.5,1566.5 C 510.3333333333333,1562.6666666666667 525.6500181550471,1547.3167208964528 529.4750272325706,1543.4750813446792 L 737.0737513616285,1334.973754067234 C 740.7158342410856,1331.3158360448226 755.3158360448226,1316.7158342410858 758.9737540672339,1313.0737513616286 L 967.9986877033617,1104.9536875680815 C 971.6657918022411,1101.302458378721 986.3183505061259,1086.6816494938741 989.9775257591888,1083.022474240811 L 1200.8329166772953,872.1670833227046 C 1203.5552777848636,869.4447222151364 1216.7,864.0 1220.55,864.0 L 1440.0,864.0 L 1658.5,864.0 C 1662.3333333333333,864.0 1675.4211519890969,869.4211519890969 1678.1317279836453,872.1317279836453 L 1888.9065863991823,1082.9065863991823 C 1892.6043909327882,1086.6043909327882 1907.4116341657539,1101.3795491693654 1911.117451248631,1105.0693237540481 L 2120.0058725624317,1313.0534661877025 C 2123.6705817082875,1316.7023107918017 2138.2976892081983,1331.3294182917123 2141.9465338122977,1334.9941274375685 L 2350.0473266906147,1543.9997063718783 C 2353.6982177937434,1547.6664709145857 2368.3335290854143,1562.3017822062568 2372.0002936281217,1565.952673309385 L 2592.0,1785.0" stroke="red"/>
    <rect stroke="none" fill-opacity="1" x="2578" y="1757" width="28" height="56" fill="red"/>
  </g>
  <g>
    <path fill="none" stroke-width="29.400000000000002" stroke-opacity="1" d="M 1670.0,864.0 L 1891.8506518661993,641.1847800822086 C 1894.5671012441328,638.4565200548058 1907.7,633.0 1911.55,633.0 L 2131.0,633.0" stroke="purple"/>
    <rect stroke="none" fill-opacity="1" x="2117" y="605" width="28" height="56" fill="purple"/>
  </g>
  <g>
    <path fill="none" stroke-width="29.400000000000002" stroke-opacity="1" d="M 288.0,1785.0 L 288.0,2016.0 L 288.0,2246.0" stroke="cyan"/>
    <rect stroke="none" fill-opacity="1" x="260" y="2232" width="56" height="28" fill="cyan"/>
  </g>
  <g>
    <text fill="black" stroke="none" font-size="56.0" font-family="p22" font-weight="100" text-anchor="start" dominant-baseline="central" x="2641.0" y="1785" transform="translate(2592,1785) rotate(0) translate(-2592,-1785)">Nanu Oya</text>
  </g>
  <g>
    <text fill="black" stroke="none" font-size="56.0" font-family="p22" font-weight="100" text-anchor="start" dominant-baseline="central" x="2180.0" y="633" transform="translate(2131,633) rotate(0) translate(-2131,-633)">MATALE</text>
  </g>
  <g>
    <text fill="black" stroke="none" font-size="56.0" font-family="p22" font-weight="100" text-anchor="start" dominant-baseline="central" x="337.0" y="2246" transform="translate(288,2246) rotate(0) translate(-288,-2246)">KALUTARA North</text>
  </g>
  <g>
    <circle r="28" fill="white" stroke="black" stroke-width="7.0" cx="288" cy="1785"/>
    <text fill="black" stroke="none" font-size="48.0" font-family="p22" font-weight="100" text-anchor="start" dominant-baseline="central" x="333.0" y="1785" transform="translate(288,1785) rotate(0) translate(-288,-1785)">COLOMBO Fort</text>
  </g>
  <g>
    <circle r="28" fill="white" stroke="black" stroke-width="7.0" cx="1670" cy="864"/>
    <text fill="black" stroke="none" font-size="48.0" font-family="p22" font-weight="100" text-anchor="start" dominant-baseline="central" x="1715.0" y="864" transform="translate(1670,864) rotate(0) translate(-1670,-864)">Peradeniya</text>
  </g>
  <g>
    <text fill="gray" stroke="none" font-size="44.0" font-family="p22" font-weight="100" text-anchor="start" dominant-baseline="central" x="1022.0" y="1094" transform="translate(979,1094) rotate(0) translate(-979,-1094)">GAMPAHA</text>
  </g>
  <g>
    <text fill="gray" stroke="none" font-size="44.0" font-family="p22" font-weight="100" text-anchor="end" dominant-baseline="central" x="1857.0" y="633" transform="translate(1900,633) rotate(0) translate(-1900,-633)">KANDY</text>
  </g>
  <g>
    <text fill="gray" stroke="none" font-size="40" font-family="p22" font-weight="100" text-anchor="start" dominant-baseline="central" x="559.0" y="1555" transform="translate(518,1555) rotate(0) translate(-518,-1555)">Maradana</text>
  </g>
  <g>
    <text fill="gray" stroke="none" font-size="40" font-family="p22" font-weight="100" text-anchor="start" dominant-baseline="central" x="789.0" y="1324" transform="translate(748,1324) rotate(0) translate(-748,-1324)">Ragama</text>
  </g>
  <g>
    <text fill="gray" stroke="none" font-size="40" font-family="p22" font-weight="100" text-anchor="end" dominant-baseline="central" x="1168.0" y="864" transform="translate(1209,864) rotate(0) translate(-1209,-864)">Ambepussa</text>
  </g>
  <g/>
  <g>
    <text fill="gray" stroke="none" font-size="40" font-family="p22" font-weight="100" text-anchor="start" dominant-baseline="central" x="1941.0" y="1094" transform="translate(1900,1094) rotate(0) translate(-1900,-1094)">Gampola</text>
  </g>
  <g>
    <text fill="gray" stroke="none" font-size="40" font-family="p22" font-weight="100" text-anchor="start" dominant-baseline="central" x="2172.0" y="1324" transform="translate(2131,1324) rotate(0) translate(-2131,-1324)">Nawalapitiya</text>
  </g>
  <g>
    <text fill="gray" stroke="none" font-size="40" font-family="p22" font-weight="100" text-anchor="start" dominant-baseline="central" x="2402.0" y="1555" transform="translate(2361,1555) rotate(0) translate(-2361,-1555)">Talawakele</text>
  </g>
  <g>
    <text fill="gray" stroke="none" font-size="40" font-family="p22" font-weight="100" text-anchor="start" dominant-baseline="central" x="329.0" y="2016" transform="translate(288,2016) rotate(0) translate(-288,-2016)">Panadura</text>
  </g>
</svg>
