<?xml version="1.0" ?>
<svg xmlns="http://www.w3.org/2000/svg" width="3600" height="3600" padding="720">
  <text fill="#fcfcfc" stroke="none" font-size="600.0" font-family="p22" x="1800.0" y="1800.0" text-anchor="middle" dominant-baseline="center">@nuuuwan</text>
  <text fill="black" stroke="none" font-size="160" font-family="p22" x="1800.0" y="360.0" text-anchor="middle" dominant-baseline="hanging">1885</text>
  <text fill="gray" stroke="none" font-size="40" font-family="p22" x="1800.0" y="410.0" text-anchor="middle" dominant-baseline="hanging"/>
  <text fill="gray" stroke="none" font-size="40" font-family="p22" x="1800.0" y="3280.0" text-anchor="middle" dominant-baseline="text-top">data from multiple sources ~ music by @bensound ~ visualization by @nuuuwan</text>
  <g>
    <path fill="none" stroke-width="29.400000000000002" stroke-opacity="1" d="M 720.0,1908.0 L 936.0,1692.0 L 1152.0,1476.0 L 1360.3632467631853,1267.6367532368147 C 1362.908831175457,1265.091168824543 1375.2,1260.0 1378.8,1260.0 L 1584.0,1260.0 L 1800.0,1260.0 L 2005.2,1260.0 C 2008.8,1260.0 2021.091168824543,1265.091168824543 2023.6367532368147,1267.6367532368147 L 2232.0,1476.0 L 2448.0,1692.0 L 2664.0,1908.0 L 2880.0,2124.0" stroke="red"/>
    <rect stroke="none" fill-opacity="1" x="2866" y="2096" width="28" height="56" fill="red"/>
  </g>
  <g>
    <path fill="none" stroke-width="29.400000000000002" stroke-opacity="1" d="M 2016.0,1260.0 L 2224.363246763185,1051.6367532368147 C 2226.9088311754567,1049.091168824543 2239.2,1044.0 2242.8,1044.0 L 2448.0,1044.0 L 2664.0,1044.0" stroke="purple"/>
    <rect stroke="none" fill-opacity="1" x="2650" y="1016" width="28" height="56" fill="purple"/>
  </g>
  <g>
    <path fill="none" stroke-width="29.400000000000002" stroke-opacity="1" d="M 720.0,1908.0 L 720.0,2124.0 L 720.0,2340.0 L 720.0,2556.0" stroke="cyan"/>
    <rect stroke="none" fill-opacity="1" x="692" y="2542" width="56" height="28" fill="cyan"/>
  </g>
  <g>
    <text fill="black" stroke="none" font-size="56.0" font-family="p22" font-weight="100" text-anchor="start" dominant-baseline="central" x="2929.0" y="2124" transform="translate(2880,2124) rotate(0) translate(-2880,-2124)">Nanu Oya</text>
  </g>
  <g>
    <text fill="black" stroke="none" font-size="56.0" font-family="p22" font-weight="100" text-anchor="start" dominant-baseline="central" x="2713.0" y="1044" transform="translate(2664,1044) rotate(0) translate(-2664,-1044)">Matale</text>
  </g>
  <g>
    <text fill="black" stroke="none" font-size="56.0" font-family="p22" font-weight="100" text-anchor="start" dominant-baseline="central" x="769.0" y="2556" transform="translate(720,2556) rotate(0) translate(-720,-2556)">Wadduwa</text>
  </g>
  <g>
    <circle r="28" fill="white" stroke="black" stroke-width="7.0" cx="720" cy="1908"/>
    <text fill="black" stroke="none" font-size="48.0" font-family="p22" font-weight="100" text-anchor="start" dominant-baseline="central" x="765.0" y="1908" transform="translate(720,1908) rotate(0) translate(-720,-1908)">C. Terminus</text>
  </g>
  <g>
    <circle r="28" fill="white" stroke="black" stroke-width="7.0" cx="2016" cy="1260"/>
    <text fill="black" stroke="none" font-size="48.0" font-family="p22" font-weight="100" text-anchor="start" dominant-baseline="central" x="2061.0" y="1260" transform="translate(2016,1260) rotate(0) translate(-2016,-1260)">Peradeniya</text>
  </g>
  <g>
    <text fill="gray" stroke="none" font-size="44.0" font-family="p22" font-weight="100" text-anchor="start" dominant-baseline="central" x="1195.0" y="1476" transform="translate(1152,1476) rotate(0) translate(-1152,-1476)">Gampaha</text>
  </g>
  <g>
    <text fill="gray" stroke="none" font-size="44.0" font-family="p22" font-weight="100" text-anchor="end" dominant-baseline="central" x="2189.0" y="1044" transform="translate(2232,1044) rotate(0) translate(-2232,-1044)">Kandy</text>
  </g>
  <g>
    <text fill="gray" stroke="none" font-size="40" font-family="p22" font-weight="100" text-anchor="start" dominant-baseline="central" x="977.0" y="1692" transform="translate(936,1692) rotate(0) translate(-936,-1692)">Ragama</text>
  </g>
  <g>
    <text fill="gray" stroke="none" font-size="40" font-family="p22" font-weight="100" text-anchor="end" dominant-baseline="central" x="1327.0" y="1260" transform="translate(1368,1260) rotate(0) translate(-1368,-1260)">Ambepussa</text>
  </g>
  <g>
    <text fill="gray" stroke="none" font-size="40" font-family="p22" font-weight="100" text-anchor="start" dominant-baseline="central" x="1625.0" y="1260" transform="translate(1584,1260) rotate(-90) translate(-1584,-1260)">Polgahawela</text>
  </g>
  <g>
    <text fill="gray" stroke="none" font-size="40" font-family="p22" font-weight="100" text-anchor="start" dominant-baseline="central" x="1841.0" y="1260" transform="translate(1800,1260) rotate(-90) translate(-1800,-1260)">Rambukkana</text>
  </g>
  <g>
    <text fill="gray" stroke="none" font-size="40" font-family="p22" font-weight="100" text-anchor="start" dominant-baseline="central" x="2273.0" y="1476" transform="translate(2232,1476) rotate(0) translate(-2232,-1476)">Gampola</text>
  </g>
  <g>
    <text fill="gray" stroke="none" font-size="40" font-family="p22" font-weight="100" text-anchor="start" dominant-baseline="central" x="2489.0" y="1692" transform="translate(2448,1692) rotate(0) translate(-2448,-1692)">Nawalapitiya</text>
  </g>
  <g>
    <text fill="gray" stroke="none" font-size="40" font-family="p22" font-weight="100" text-anchor="start" dominant-baseline="central" x="2705.0" y="1908" transform="translate(2664,1908) rotate(0) translate(-2664,-1908)">Talawakele</text>
  </g>
  <g>
    <text fill="gray" stroke="none" font-size="40" font-family="p22" font-weight="100" text-anchor="start" dominant-baseline="central" x="2489.0" y="1044" transform="translate(2448,1044) rotate(-90) translate(-2448,-1044)">Wattegama</text>
  </g>
  <g>
    <text fill="gray" stroke="none" font-size="40" font-family="p22" font-weight="100" text-anchor="start" dominant-baseline="central" x="761.0" y="2124" transform="translate(720,2124) rotate(0) translate(-720,-2124)">Panadura</text>
  </g>
  <g>
    <text fill="gray" stroke="none" font-size="40" font-family="p22" font-weight="100" text-anchor="start" dominant-baseline="central" x="761.0" y="2340" transform="translate(720,2340) rotate(0) translate(-720,-2340)">Kalutara N.</text>
  </g>
</svg>
