<?xml version="1.0" ?>
<svg xmlns="http://www.w3.org/2000/svg" width="1300" height="1300" padding="200">
  <text fill="gray" stroke="none" font-size="72" font-family="GIL_____" x="650.0" y="118.0" text-anchor="middle" dominant-baseline="hanging">1890</text>
  <text fill="gray" stroke="none" font-size="18" font-family="GIL_____" x="650.0" y="1218.0" text-anchor="middle" dominant-baseline="text-top">History of the Railways in Sri Lanka</text>
  <g>
    <path fill="none" stroke-width="10.5" stroke-opacity="1" d="M 200.0,762.0 L 312.0,650.0 L 425.0,537.0 L 537.0,425.0 L 646.0402020253554,315.9597979746447 C 647.3601346835702,314.6398653164298 653.7333333333333,312.0 655.6,312.0 L 762.0,312.0 L 869.35,312.0 C 871.2333333333333,312.0 877.6515718629347,314.6752466117109 878.9773577944021,316.0128699175664 L 981.59886788972,419.5506434958783 C 983.3992452598134,421.36709566391886 990.6329043360811,428.6007547401866 992.4493565041216,430.4011321102799 L 1100.0,537.0" stroke="red"/>
    <rect stroke="none" fill-opacity="1" x="1095" y="527" width="10" height="20" fill="red"/>
  </g>
  <g>
    <path fill="none" stroke-width="10.5" stroke-opacity="1" d="M 875.0,312.0 L 983.004846686296,203.99515331370398 C 984.3365644575307,202.66343554246933 990.7666666666667,200.0 992.65,200.0 L 1100.0,200.0" stroke="purple"/>
    <rect stroke="none" fill-opacity="1" x="1095" y="190" width="10" height="20" fill="purple"/>
  </g>
  <g>
    <path fill="none" stroke-width="10.5" stroke-opacity="1" d="M 200.0,762.0 L 200.0,875.0 L 200.0,981.4 C 200.0,983.2666666666667 202.62810662520963,989.6515718629347 203.94215993781444,990.9773577944021 L 312.0,1100.0" stroke="cyan"/>
    <rect stroke="none" fill-opacity="1" x="307" y="1090" width="10" height="20" fill="cyan"/>
  </g>
  <g>
    <text fill="black" stroke="none" font-size="25.2" font-family="GIL_____" font-weight="100" text-anchor="start" dominant-baseline="central" x="1120.1" y="537" transform="translate(1100,537) rotate(0) translate(-1100,-537)">Nanu Oya</text>
  </g>
  <g>
    <text fill="black" stroke="none" font-size="25.2" font-family="GIL_____" font-weight="100" text-anchor="start" dominant-baseline="central" x="1120.1" y="200" transform="translate(1100,200) rotate(0) translate(-1100,-200)">MATALE</text>
  </g>
  <g>
    <text fill="black" stroke="none" font-size="25.2" font-family="GIL_____" font-weight="100" text-anchor="start" dominant-baseline="central" x="332.1" y="1100" transform="translate(312,1100) rotate(0) translate(-312,-1100)">Aluthgama</text>
  </g>
  <g>
    <circle r="10" fill="white" stroke="black" stroke-width="2.5" cx="200" cy="762"/>
    <text fill="black" stroke="none" font-size="21.599999999999998" font-family="GIL_____" font-weight="100" text-anchor="start" dominant-baseline="central" x="218.3" y="762" transform="translate(200,762) rotate(0) translate(-200,-762)">COLOMBO Fort</text>
  </g>
  <g>
    <circle r="10" fill="white" stroke="black" stroke-width="2.5" cx="875" cy="312"/>
    <text fill="black" stroke="none" font-size="21.599999999999998" font-family="GIL_____" font-weight="100" text-anchor="start" dominant-baseline="central" x="893.3" y="312" transform="translate(875,312) rotate(0) translate(-875,-312)">Peradeniya</text>
  </g>
  <g>
    <text fill="black" stroke="none" font-size="19.8" font-family="GIL_____" font-weight="100" text-anchor="start" dominant-baseline="central" x="554.4" y="425" transform="translate(537,425) rotate(0) translate(-537,-425)">GAMPAHA</text>
  </g>
  <g>
    <text fill="black" stroke="none" font-size="19.8" font-family="GIL_____" font-weight="100" text-anchor="end" dominant-baseline="central" x="969.6" y="200" transform="translate(987,200) rotate(0) translate(-987,-200)">KANDY</text>
  </g>
  <g>
    <text fill="black" stroke="none" font-size="18" font-family="GIL_____" font-weight="100" text-anchor="start" dominant-baseline="central" x="328.5" y="650" transform="translate(312,650) rotate(0) translate(-312,-650)">Maradana</text>
  </g>
  <g>
    <text fill="black" stroke="none" font-size="18" font-family="GIL_____" font-weight="100" text-anchor="start" dominant-baseline="central" x="441.5" y="537" transform="translate(425,537) rotate(0) translate(-425,-537)">Ragama</text>
  </g>
  <g>
    <text fill="black" stroke="none" font-size="18" font-family="GIL_____" font-weight="100" text-anchor="end" dominant-baseline="central" x="633.5" y="312" transform="translate(650,312) rotate(0) translate(-650,-312)">Ambepussa</text>
  </g>
  <g>
    <text fill="black" stroke="none" font-size="18" font-family="GIL_____" font-weight="100" text-anchor="start" dominant-baseline="central" x="778.5" y="312" transform="translate(762,312) rotate(-315) translate(-762,-312)">Polgahawela</text>
  </g>
  <g>
    <text fill="black" stroke="none" font-size="18" font-family="GIL_____" font-weight="100" text-anchor="start" dominant-baseline="central" x="1003.5" y="425" transform="translate(987,425) rotate(0) translate(-987,-425)">Nawalapitiya</text>
  </g>
  <g>
    <text fill="black" stroke="none" font-size="18" font-family="GIL_____" font-weight="100" text-anchor="start" dominant-baseline="central" x="216.5" y="875" transform="translate(200,875) rotate(0) translate(-200,-875)">Panadura</text>
  </g>
  <g>
    <text fill="black" stroke="none" font-size="18" font-family="GIL_____" font-weight="100" text-anchor="start" dominant-baseline="central" x="216.5" y="987" transform="translate(200,987) rotate(0) translate(-200,-987)">KALUTARA North</text>
  </g>
</svg>
