<?xml version="1.0" ?>
<svg xmlns="http://www.w3.org/2000/svg" width="3600" height="3600" padding="480">
  <text fill="#fcfcfc" stroke="none" font-size="600.0" font-family="p22" x="1800.0" y="1800.0" text-anchor="middle" dominant-baseline="center">@nuuuwan</text>
  <text fill="black" stroke="none" font-size="160" font-family="p22" x="1800.0" y="240.0" text-anchor="middle" dominant-baseline="hanging">1890</text>
  <text fill="gray" stroke="none" font-size="40" font-family="p22" x="1800.0" y="290.0" text-anchor="middle" dominant-baseline="hanging"/>
  <text fill="gray" stroke="none" font-size="40" font-family="p22" x="1800.0" y="3400.0" text-anchor="middle" dominant-baseline="text-top">data from multiple sources ~ music by @bensound ~ visualization by @nuuuwan</text>
  <g>
    <path fill="none" stroke-width="29.400000000000002" stroke-opacity="1" d="M 480.0,1800.0 L 758.3749786327423,1520.6749361159514 C 763.2499857551616,1515.7832907439677 782.7666666666667,1496.2333333333333 787.65,1491.35 L 1052.0825,1226.9175 C 1056.7216666666666,1222.2783333333334 1075.2941262067693,1203.7374864674034 1079.941189310154,1199.1062297011051 L 1349.6232531589314,930.341451783786 C 1353.082168772621,926.8943011891907 1369.7666666666667,920.0 1374.65,920.0 L 1653.0,920.0 L 1931.35,920.0 C 1936.2333333333333,920.0 1952.917831227379,926.8943011891907 1956.3767468410686,930.341451783786 L 2225.8188373420535,1198.8670725891893 C 2230.545891561369,1203.5780483927929 2249.4380437183227,1222.438043718323 2254.1570655774844,1227.1570655774842 L 2519.057853278874,1492.0578532788743 C 2523.7052355192495,1496.7052355192495 2542.278916664478,1515.310585322036 2546.9183749967174,1519.965877983054 L 2812.045918749836,1785.9982938991527 C 2816.697279166557,1790.6655292661019 2835.3344707338983,1809.3027208334427 2840.0017061008475,1813.954081250164 L 3120.0,2093.0" stroke="red"/>
    <rect stroke="none" fill-opacity="1" x="3106" y="2065" width="28" height="56" fill="red"/>
  </g>
  <g>
    <path fill="none" stroke-width="29.400000000000002" stroke-opacity="1" d="M 1946.0,920.0 L 2229.6408856556172,636.3591143443829 C 2233.0939237704115,632.9060762295886 2249.766666666667,626.0 2254.65,626.0 L 2533.0,626.0" stroke="purple"/>
    <rect stroke="none" fill-opacity="1" x="2519" y="598" width="28" height="56" fill="purple"/>
  </g>
  <g>
    <path fill="none" stroke-width="29.400000000000002" stroke-opacity="1" d="M 480.0,1800.0 L 480.0,2093.0 L 480.0,2386.0 L 480.0,2665.3 C 480.0,2670.2 486.9296464556282,2686.9296464556282 490.39446968344225,2690.3944696834424 L 773.0,2973.0" stroke="cyan"/>
    <rect stroke="none" fill-opacity="1" x="759" y="2945" width="28" height="56" fill="cyan"/>
  </g>
  <g>
    <text fill="black" stroke="none" font-size="56.0" font-family="p22" font-weight="100" text-anchor="start" dominant-baseline="central" x="3169.0" y="2093" transform="translate(3120,2093) rotate(0) translate(-3120,-2093)">Nanu Oya</text>
  </g>
  <g>
    <text fill="black" stroke="none" font-size="56.0" font-family="p22" font-weight="100" text-anchor="start" dominant-baseline="central" x="2582.0" y="626" transform="translate(2533,626) rotate(0) translate(-2533,-626)">Matale</text>
  </g>
  <g>
    <text fill="black" stroke="none" font-size="56.0" font-family="p22" font-weight="100" text-anchor="start" dominant-baseline="central" x="822.0" y="2973" transform="translate(773,2973) rotate(0) translate(-773,-2973)">Aluthgama</text>
  </g>
  <g>
    <circle r="28" fill="white" stroke="black" stroke-width="7.0" cx="480" cy="1800"/>
    <text fill="black" stroke="none" font-size="48.0" font-family="p22" font-weight="100" text-anchor="start" dominant-baseline="central" x="525.0" y="1800" transform="translate(480,1800) rotate(0) translate(-480,-1800)">C. Terminus</text>
  </g>
  <g>
    <circle r="28" fill="white" stroke="black" stroke-width="7.0" cx="1946" cy="920"/>
    <text fill="black" stroke="none" font-size="48.0" font-family="p22" font-weight="100" text-anchor="start" dominant-baseline="central" x="1991.0" y="920" transform="translate(1946,920) rotate(0) translate(-1946,-920)">Peradeniya</text>
  </g>
  <g>
    <text fill="gray" stroke="none" font-size="44.0" font-family="p22" font-weight="100" text-anchor="start" dominant-baseline="central" x="1109.0" y="1213" transform="translate(1066,1213) rotate(0) translate(-1066,-1213)">Gampaha</text>
  </g>
  <g>
    <text fill="gray" stroke="none" font-size="44.0" font-family="p22" font-weight="100" text-anchor="end" dominant-baseline="central" x="2197.0" y="626" transform="translate(2240,626) rotate(0) translate(-2240,-626)">Kandy</text>
  </g>
  <g>
    <text fill="gray" stroke="none" font-size="40" font-family="p22" font-weight="100" text-anchor="start" dominant-baseline="central" x="814.0" y="1506" transform="translate(773,1506) rotate(0) translate(-773,-1506)">Ragama</text>
  </g>
  <g>
    <text fill="gray" stroke="none" font-size="40" font-family="p22" font-weight="100" text-anchor="end" dominant-baseline="central" x="1319.0" y="920" transform="translate(1360,920) rotate(0) translate(-1360,-920)">Ambepussa</text>
  </g>
  <g>
    <text fill="gray" stroke="none" font-size="40" font-family="p22" font-weight="100" text-anchor="end" dominant-baseline="central" x="1612.0" y="920" transform="translate(1653,920) rotate(45) translate(-1653,-920)">Polgahawela</text>
  </g>
  <g>
    <text fill="gray" stroke="none" font-size="40" font-family="p22" font-weight="100" text-anchor="start" dominant-baseline="central" x="2281.0" y="1213" transform="translate(2240,1213) rotate(0) translate(-2240,-1213)">Gampola</text>
  </g>
  <g>
    <text fill="gray" stroke="none" font-size="40" font-family="p22" font-weight="100" text-anchor="start" dominant-baseline="central" x="2574.0" y="1506" transform="translate(2533,1506) rotate(0) translate(-2533,-1506)">Nawalapitiya</text>
  </g>
  <g>
    <text fill="gray" stroke="none" font-size="40" font-family="p22" font-weight="100" text-anchor="start" dominant-baseline="central" x="2867.0" y="1800" transform="translate(2826,1800) rotate(0) translate(-2826,-1800)">Talawakele</text>
  </g>
  <g>
    <text fill="gray" stroke="none" font-size="40" font-family="p22" font-weight="100" text-anchor="start" dominant-baseline="central" x="521.0" y="2093" transform="translate(480,2093) rotate(0) translate(-480,-2093)">Panadura</text>
  </g>
  <g>
    <text fill="gray" stroke="none" font-size="40" font-family="p22" font-weight="100" text-anchor="start" dominant-baseline="central" x="521.0" y="2386" transform="translate(480,2386) rotate(0) translate(-480,-2386)">Kalutara N.</text>
  </g>
  <g>
    <text fill="gray" stroke="none" font-size="40" font-family="p22" font-weight="100" text-anchor="start" dominant-baseline="central" x="521.0" y="2680" transform="translate(480,2680) rotate(0) translate(-480,-2680)">Wadduwa</text>
  </g>
</svg>
