<?xml version="1.0" ?>
<svg xmlns="http://www.w3.org/2000/svg" width="3600" height="3600" padding="720">
  <text fill="#fcfcfc" stroke="none" font-size="600.0" font-family="p22" x="1800.0" y="1800.0" text-anchor="middle" dominant-baseline="center">@nuuuwan</text>
  <text fill="black" stroke="none" font-size="160" font-family="p22" x="1800.0" y="360.0" text-anchor="middle" dominant-baseline="hanging">1890</text>
  <text fill="gray" stroke="none" font-size="40" font-family="p22" x="1800.0" y="410.0" text-anchor="middle" dominant-baseline="hanging"/>
  <text fill="gray" stroke="none" font-size="40" font-family="p22" x="1800.0" y="3280.0" text-anchor="middle" dominant-baseline="text-top">data from multiple sources ~ music by @bensound ~ visualization by @nuuuwan</text>
  <g>
    <path fill="none" stroke-width="29.400000000000002" stroke-opacity="1" d="M 720.0,1800.0 L 936.0,1584.0 L 1152.0,1368.0 L 1360.3632467631853,1159.6367532368147 C 1362.908831175457,1157.091168824543 1375.2,1152.0 1378.8,1152.0 L 1584.0,1152.0 L 1800.0,1152.0 L 2005.2,1152.0 C 2008.8,1152.0 2021.091168824543,1157.091168824543 2023.6367532368147,1159.6367532368147 L 2232.0,1368.0 L 2448.0,1584.0 L 2664.0,1800.0 L 2880.0,2016.0" stroke="red"/>
    <rect stroke="none" fill-opacity="1" x="2866" y="1988" width="28" height="56" fill="red"/>
  </g>
  <g>
    <path fill="none" stroke-width="29.400000000000002" stroke-opacity="1" d="M 2016.0,1152.0 L 2224.363246763185,943.6367532368147 C 2226.9088311754567,941.0911688245432 2239.2,936.0 2242.8,936.0 L 2448.0,936.0 L 2664.0,936.0" stroke="purple"/>
    <rect stroke="none" fill-opacity="1" x="2650" y="908" width="28" height="56" fill="purple"/>
  </g>
  <g>
    <path fill="none" stroke-width="29.400000000000002" stroke-opacity="1" d="M 720.0,1800.0 L 720.0,2016.0 L 720.0,2232.0 L 720.0,2437.2 C 720.0,2440.8 725.0911688245432,2453.0911688245433 727.6367532368147,2455.636753236815 L 936.0,2664.0" stroke="cyan"/>
    <rect stroke="none" fill-opacity="1" x="922" y="2636" width="28" height="56" fill="cyan"/>
  </g>
  <g>
    <text fill="black" stroke="none" font-size="56.0" font-family="p22" font-weight="100" text-anchor="start" dominant-baseline="central" x="2929.0" y="2016" transform="translate(2880,2016) rotate(0) translate(-2880,-2016)">Nanu Oya</text>
  </g>
  <g>
    <text fill="black" stroke="none" font-size="56.0" font-family="p22" font-weight="100" text-anchor="start" dominant-baseline="central" x="2713.0" y="936" transform="translate(2664,936) rotate(0) translate(-2664,-936)">Matale</text>
  </g>
  <g>
    <text fill="black" stroke="none" font-size="56.0" font-family="p22" font-weight="100" text-anchor="start" dominant-baseline="central" x="985.0" y="2664" transform="translate(936,2664) rotate(0) translate(-936,-2664)">Aluthgama</text>
  </g>
  <g>
    <circle r="28" fill="white" stroke="black" stroke-width="7.0" cx="720" cy="1800"/>
    <text fill="black" stroke="none" font-size="48.0" font-family="p22" font-weight="100" text-anchor="start" dominant-baseline="central" x="765.0" y="1800" transform="translate(720,1800) rotate(0) translate(-720,-1800)">C. Terminus</text>
  </g>
  <g>
    <circle r="28" fill="white" stroke="black" stroke-width="7.0" cx="2016" cy="1152"/>
    <text fill="black" stroke="none" font-size="48.0" font-family="p22" font-weight="100" text-anchor="start" dominant-baseline="central" x="2061.0" y="1152" transform="translate(2016,1152) rotate(0) translate(-2016,-1152)">Peradeniya</text>
  </g>
  <g>
    <text fill="gray" stroke="none" font-size="44.0" font-family="p22" font-weight="100" text-anchor="start" dominant-baseline="central" x="1195.0" y="1368" transform="translate(1152,1368) rotate(0) translate(-1152,-1368)">Gampaha</text>
  </g>
  <g>
    <text fill="gray" stroke="none" font-size="44.0" font-family="p22" font-weight="100" text-anchor="end" dominant-baseline="central" x="2189.0" y="936" transform="translate(2232,936) rotate(0) translate(-2232,-936)">Kandy</text>
  </g>
  <g>
    <text fill="gray" stroke="none" font-size="40" font-family="p22" font-weight="100" text-anchor="start" dominant-baseline="central" x="977.0" y="1584" transform="translate(936,1584) rotate(0) translate(-936,-1584)">Ragama</text>
  </g>
  <g>
    <text fill="gray" stroke="none" font-size="40" font-family="p22" font-weight="100" text-anchor="end" dominant-baseline="central" x="1327.0" y="1152" transform="translate(1368,1152) rotate(0) translate(-1368,-1152)">Ambepussa</text>
  </g>
  <g>
    <text fill="gray" stroke="none" font-size="40" font-family="p22" font-weight="100" text-anchor="start" dominant-baseline="central" x="1625.0" y="1152" transform="translate(1584,1152) rotate(-90) translate(-1584,-1152)">Polgahawela</text>
  </g>
  <g>
    <text fill="gray" stroke="none" font-size="40" font-family="p22" font-weight="100" text-anchor="start" dominant-baseline="central" x="1841.0" y="1152" transform="translate(1800,1152) rotate(-90) translate(-1800,-1152)">Rambukkana</text>
  </g>
  <g>
    <text fill="gray" stroke="none" font-size="40" font-family="p22" font-weight="100" text-anchor="start" dominant-baseline="central" x="2273.0" y="1368" transform="translate(2232,1368) rotate(0) translate(-2232,-1368)">Gampola</text>
  </g>
  <g>
    <text fill="gray" stroke="none" font-size="40" font-family="p22" font-weight="100" text-anchor="start" dominant-baseline="central" x="2489.0" y="1584" transform="translate(2448,1584) rotate(0) translate(-2448,-1584)">Nawalapitiya</text>
  </g>
  <g>
    <text fill="gray" stroke="none" font-size="40" font-family="p22" font-weight="100" text-anchor="start" dominant-baseline="central" x="2705.0" y="1800" transform="translate(2664,1800) rotate(0) translate(-2664,-1800)">Talawakele</text>
  </g>
  <g>
    <text fill="gray" stroke="none" font-size="40" font-family="p22" font-weight="100" text-anchor="start" dominant-baseline="central" x="2489.0" y="936" transform="translate(2448,936) rotate(-90) translate(-2448,-936)">Wattegama</text>
  </g>
  <g>
    <text fill="gray" stroke="none" font-size="40" font-family="p22" font-weight="100" text-anchor="start" dominant-baseline="central" x="761.0" y="2016" transform="translate(720,2016) rotate(0) translate(-720,-2016)">Panadura</text>
  </g>
  <g>
    <text fill="gray" stroke="none" font-size="40" font-family="p22" font-weight="100" text-anchor="start" dominant-baseline="central" x="761.0" y="2232" transform="translate(720,2232) rotate(0) translate(-720,-2232)">Kalutara N.</text>
  </g>
  <g>
    <text fill="gray" stroke="none" font-size="40" font-family="p22" font-weight="100" text-anchor="start" dominant-baseline="central" x="761.0" y="2448" transform="translate(720,2448) rotate(0) translate(-720,-2448)">Wadduwa</text>
  </g>
</svg>
