<?xml version="1.0" ?>
<svg xmlns="http://www.w3.org/2000/svg" width="2880" height="2880" padding="288">
  <text fill="#fcfcfc" stroke="none" font-size="480.0" font-family="p22" x="1440.0" y="1440.0" text-anchor="middle" dominant-baseline="center">@nuuuwan</text>
  <text fill="black" stroke="none" font-size="80" font-family="p22" x="1440.0" y="144.0" text-anchor="middle" dominant-baseline="hanging">1892</text>
  <text fill="gray" stroke="none" font-size="40" font-family="p22" x="1440.0" y="194.0" text-anchor="middle" dominant-baseline="hanging">History of the Railways in Sri Lanka</text>
  <text fill="gray" stroke="none" font-size="38.4" font-family="p22" x="1440.0" y="2776.0" text-anchor="middle" dominant-baseline="text-top">data from multiple sources ~ music by @bensound ~ visualization by @nuuuwan</text>
  <g>
    <path fill="none" stroke-width="29.400000000000002" stroke-opacity="1" d="M 748.0,2016.0 L 864.0,1900.0 L 979.0,1785.0 L 1094.0,1670.0 L 1204.9341360081773,1559.0658639918227 C 1206.2894240054516,1557.7105759945484 1212.8333333333333,1555.0 1214.75,1555.0 L 1324.0,1555.0 L 1434.2,1555.0 C 1436.1333333333334,1555.0 1442.734146220588,1557.734146220588 1444.101219330882,1559.101219330882 L 1555.0,1670.0 L 1670.0,1785.0 L 1779.25,1894.25 C 1781.1666666666667,1896.1666666666667 1788.8167030538673,1903.8498917760749 1790.725054580801,1905.7748376641123 L 1900.0,2016.0" stroke="red"/>
    <rect stroke="none" fill-opacity="1" x="1886" y="1988" width="28" height="56" fill="red"/>
  </g>
  <g>
    <path fill="none" stroke-width="29.400000000000002" stroke-opacity="1" d="M 1440.0,1555.0 L 1550.9341360081773,1444.0658639918227 C 1552.2894240054516,1442.7105759945484 1558.8333333333333,1440.0 1560.75,1440.0 L 1670.0,1440.0" stroke="purple"/>
    <rect stroke="none" fill-opacity="1" x="1656" y="1412" width="28" height="56" fill="purple"/>
  </g>
  <g>
    <path fill="none" stroke-width="29.400000000000002" stroke-opacity="1" d="M 748.0,2016.0 L 748.0,2131.0 L 748.0,2240.25 C 748.0,2242.1666666666665 750.7222845816968,2248.698816611165 752.0834268725453,2250.0482249167476 L 858.4041713436272,2355.4524112458375 C 860.2694475624181,2357.3016074972247 867.7145072751397,2364.7145072751396 869.5717609127095,2366.5717609127096 L 979.0,2476.0" stroke="cyan"/>
    <rect stroke="none" fill-opacity="1" x="965" y="2448" width="28" height="56" fill="cyan"/>
  </g>
  <g>
    <text fill="black" stroke="none" font-size="56.0" font-family="p22" font-weight="100" text-anchor="start" dominant-baseline="central" x="1949.0" y="2016" transform="translate(1900,2016) rotate(0) translate(-1900,-2016)">Nanu Oya</text>
  </g>
  <g>
    <text fill="black" stroke="none" font-size="56.0" font-family="p22" font-weight="100" text-anchor="start" dominant-baseline="central" x="1719.0" y="1440" transform="translate(1670,1440) rotate(0) translate(-1670,-1440)">MATALE</text>
  </g>
  <g>
    <text fill="black" stroke="none" font-size="56.0" font-family="p22" font-weight="100" text-anchor="start" dominant-baseline="central" x="1028.0" y="2476" transform="translate(979,2476) rotate(0) translate(-979,-2476)">Kosgoda</text>
  </g>
  <g>
    <circle r="28" fill="white" stroke="black" stroke-width="7.0" cx="748" cy="2016"/>
    <text fill="black" stroke="none" font-size="48.0" font-family="p22" font-weight="100" text-anchor="start" dominant-baseline="central" x="793.0" y="2016" transform="translate(748,2016) rotate(0) translate(-748,-2016)">COLOMBO Fort</text>
  </g>
  <g>
    <circle r="28" fill="white" stroke="black" stroke-width="7.0" cx="1440" cy="1555"/>
    <text fill="black" stroke="none" font-size="48.0" font-family="p22" font-weight="100" text-anchor="start" dominant-baseline="central" x="1485.0" y="1555" transform="translate(1440,1555) rotate(0) translate(-1440,-1555)">Peradeniya</text>
  </g>
  <g>
    <text fill="gray" stroke="none" font-size="44.0" font-family="p22" font-weight="100" text-anchor="start" dominant-baseline="central" x="1137.0" y="1670" transform="translate(1094,1670) rotate(0) translate(-1094,-1670)">GAMPAHA</text>
  </g>
  <g>
    <text fill="gray" stroke="none" font-size="44.0" font-family="p22" font-weight="100" text-anchor="end" dominant-baseline="central" x="1512.0" y="1440" transform="translate(1555,1440) rotate(0) translate(-1555,-1440)">KANDY</text>
  </g>
  <g>
    <text fill="gray" stroke="none" font-size="40" font-family="p22" font-weight="100" text-anchor="start" dominant-baseline="central" x="905.0" y="1900" transform="translate(864,1900) rotate(0) translate(-864,-1900)">Maradana</text>
  </g>
  <g>
    <text fill="gray" stroke="none" font-size="40" font-family="p22" font-weight="100" text-anchor="start" dominant-baseline="central" x="1020.0" y="1785" transform="translate(979,1785) rotate(0) translate(-979,-1785)">Ragama</text>
  </g>
  <g>
    <text fill="gray" stroke="none" font-size="40" font-family="p22" font-weight="100" text-anchor="end" dominant-baseline="central" x="1168.0" y="1555" transform="translate(1209,1555) rotate(0) translate(-1209,-1555)">Ambepussa</text>
  </g>
  <g/>
  <g>
    <text fill="gray" stroke="none" font-size="40" font-family="p22" font-weight="100" text-anchor="start" dominant-baseline="central" x="1596.0" y="1670" transform="translate(1555,1670) rotate(0) translate(-1555,-1670)">Gampola</text>
  </g>
  <g>
    <text fill="gray" stroke="none" font-size="40" font-family="p22" font-weight="100" text-anchor="start" dominant-baseline="central" x="1711.0" y="1785" transform="translate(1670,1785) rotate(0) translate(-1670,-1785)">Nawalapitiya</text>
  </g>
  <g>
    <text fill="gray" stroke="none" font-size="40" font-family="p22" font-weight="100" text-anchor="start" dominant-baseline="central" x="1826.0" y="1900" transform="translate(1785,1900) rotate(0) translate(-1785,-1900)">Talawakele</text>
  </g>
  <g>
    <text fill="gray" stroke="none" font-size="40" font-family="p22" font-weight="100" text-anchor="start" dominant-baseline="central" x="789.0" y="2131" transform="translate(748,2131) rotate(0) translate(-748,-2131)">Panadura</text>
  </g>
  <g>
    <text fill="gray" stroke="none" font-size="40" font-family="p22" font-weight="100" text-anchor="start" dominant-baseline="central" x="789.0" y="2246" transform="translate(748,2246) rotate(0) translate(-748,-2246)">KALUTARA North</text>
  </g>
  <g>
    <text fill="gray" stroke="none" font-size="40" font-family="p22" font-weight="100" text-anchor="start" dominant-baseline="central" x="905.0" y="2361" transform="translate(864,2361) rotate(0) translate(-864,-2361)">Aluthgama</text>
  </g>
</svg>
