<?xml version="1.0" ?>
<svg xmlns="http://www.w3.org/2000/svg" width="1320" height="1320" padding="148">
  <text fill="gray" stroke="none" font-size="72" font-family="p22" x="660.0" y="92.0" text-anchor="middle" dominant-baseline="hanging">1892</text>
  <text fill="gray" stroke="none" font-size="18" font-family="p22" x="660.0" y="1264.0" text-anchor="middle" dominant-baseline="text-top">History of the Railways in Sri Lanka</text>
  <g>
    <path fill="none" stroke-width="10.5" stroke-opacity="1" d="M 204.0,716.0 L 312.3,608.65 C 314.2,606.7666666666667 321.78337004387475,599.2166299561252 323.67505506581216,597.3249449341879 L 432.0,489.0 L 546.0,375.0 L 656.004846686296,264.995153313704 C 657.3365644575307,263.6634355424693 663.7666666666667,261.0 665.65,261.0 L 773.0,261.0 L 881.3,261.0 C 883.2,261.0 889.6870057685089,263.68700576850887 891.0305086527633,265.03050865276333 L 1001.0,375.0 L 1115.0,489.0" stroke="red"/>
    <rect stroke="none" fill-opacity="1" x="1110" y="479" width="10" height="20" fill="red"/>
  </g>
  <g>
    <path fill="none" stroke-width="10.5" stroke-opacity="1" d="M 887.0,261.0 L 996.9517750833554,152.01271417176176 C 998.3011833889036,150.67514278117451 1004.8,148.0 1006.7,148.0 L 1115.0,148.0" stroke="purple"/>
    <rect stroke="none" fill-opacity="1" x="1110" y="138" width="10" height="20" fill="purple"/>
  </g>
  <g>
    <path fill="none" stroke-width="10.5" stroke-opacity="1" d="M 204.0,716.0 L 204.0,830.0 L 204.0,938.3 C 204.0,940.2 206.68700576850887,946.6870057685089 208.03050865276333,948.0305086527633 L 318.0,1058.0 L 432.0,1172.0" stroke="cyan"/>
    <rect stroke="none" fill-opacity="1" x="427" y="1162" width="10" height="20" fill="cyan"/>
  </g>
  <g>
    <text fill="black" stroke="none" font-size="25.2" font-family="p22" font-weight="100" text-anchor="start" dominant-baseline="central" x="1135.1" y="489" transform="translate(1115,489) rotate(0) translate(-1115,-489)">Nanu Oya</text>
  </g>
  <g>
    <text fill="black" stroke="none" font-size="25.2" font-family="p22" font-weight="100" text-anchor="start" dominant-baseline="central" x="1135.1" y="148" transform="translate(1115,148) rotate(0) translate(-1115,-148)">MATALE</text>
  </g>
  <g>
    <text fill="black" stroke="none" font-size="25.2" font-family="p22" font-weight="100" text-anchor="start" dominant-baseline="central" x="452.1" y="1172" transform="translate(432,1172) rotate(0) translate(-432,-1172)">Kosgoda</text>
  </g>
  <g>
    <circle r="10" fill="white" stroke="black" stroke-width="2.5" cx="204" cy="716"/>
    <text fill="black" stroke="none" font-size="21.599999999999998" font-family="p22" font-weight="100" text-anchor="start" dominant-baseline="central" x="222.3" y="716" transform="translate(204,716) rotate(0) translate(-204,-716)">COLOMBO Fort</text>
  </g>
  <g>
    <circle r="10" fill="white" stroke="black" stroke-width="2.5" cx="887" cy="261"/>
    <text fill="black" stroke="none" font-size="21.599999999999998" font-family="p22" font-weight="100" text-anchor="start" dominant-baseline="central" x="905.3" y="261" transform="translate(887,261) rotate(0) translate(-887,-261)">Peradeniya</text>
  </g>
  <g>
    <text fill="gray" stroke="none" font-size="19.8" font-family="p22" font-weight="100" text-anchor="start" dominant-baseline="central" x="563.4" y="375" transform="translate(546,375) rotate(0) translate(-546,-375)">GAMPAHA</text>
  </g>
  <g>
    <text fill="gray" stroke="none" font-size="19.8" font-family="p22" font-weight="100" text-anchor="end" dominant-baseline="central" x="983.6" y="148" transform="translate(1001,148) rotate(0) translate(-1001,-148)">KANDY</text>
  </g>
  <g>
    <text fill="gray" stroke="none" font-size="18" font-family="p22" font-weight="100" text-anchor="start" dominant-baseline="central" x="334.5" y="603" transform="translate(318,603) rotate(0) translate(-318,-603)">Maradana</text>
  </g>
  <g>
    <text fill="gray" stroke="none" font-size="18" font-family="p22" font-weight="100" text-anchor="start" dominant-baseline="central" x="448.5" y="489" transform="translate(432,489) rotate(0) translate(-432,-489)">Ragama</text>
  </g>
  <g>
    <text fill="gray" stroke="none" font-size="18" font-family="p22" font-weight="100" text-anchor="end" dominant-baseline="central" x="643.5" y="261" transform="translate(660,261) rotate(0) translate(-660,-261)">Ambepussa</text>
  </g>
  <g>
    <text fill="gray" stroke="none" font-size="18" font-family="p22" font-weight="100" text-anchor="end" dominant-baseline="central" x="756.5" y="261" transform="translate(773,261) rotate(45) translate(-773,-261)">Polgahawela</text>
  </g>
  <g>
    <text fill="gray" stroke="none" font-size="18" font-family="p22" font-weight="100" text-anchor="start" dominant-baseline="central" x="1017.5" y="375" transform="translate(1001,375) rotate(0) translate(-1001,-375)">Nawalapitiya</text>
  </g>
  <g>
    <text fill="gray" stroke="none" font-size="18" font-family="p22" font-weight="100" text-anchor="start" dominant-baseline="central" x="220.5" y="830" transform="translate(204,830) rotate(0) translate(-204,-830)">Panadura</text>
  </g>
  <g>
    <text fill="gray" stroke="none" font-size="18" font-family="p22" font-weight="100" text-anchor="start" dominant-baseline="central" x="220.5" y="944" transform="translate(204,944) rotate(0) translate(-204,-944)">KALUTARA North</text>
  </g>
  <g>
    <text fill="gray" stroke="none" font-size="18" font-family="p22" font-weight="100" text-anchor="start" dominant-baseline="central" x="334.5" y="1058" transform="translate(318,1058) rotate(0) translate(-318,-1058)">Aluthgama</text>
  </g>
</svg>
