<?xml version="1.0" ?>
<svg xmlns="http://www.w3.org/2000/svg" width="1320" height="1320" padding="148">
  <text fill="gray" stroke="none" font-size="72" font-family="p22" x="660.0" y="92.0" text-anchor="middle" dominant-baseline="hanging">1892</text>
  <text fill="gray" stroke="none" font-size="18" font-family="p22" x="660.0" y="1264.0" text-anchor="middle" dominant-baseline="text-top">History of the Railways in Sri Lanka</text>
  <g>
    <path fill="none" stroke-width="10.5" stroke-opacity="1" d="M 404.0,916.0 L 452.4748762873132,866.5746359423473 C 453.3165841915421,865.7164239615649 456.7,862.3 457.55,861.45 L 506.0,813.0 L 557.0,762.0 L 606.161522368915,712.838477631085 C 606.7743482459433,712.2256517540567 609.7333333333333,711.0 610.6,711.0 L 660.0,711.0 L 708.45,711.0 C 709.3,711.0 712.2020815280172,712.2020815280172 712.8031222920257,712.8031222920257 L 762.0,762.0 L 813.0,813.0" stroke="red"/>
    <rect stroke="none" fill-opacity="1" x="808" y="803" width="10" height="20" fill="red"/>
  </g>
  <g>
    <path fill="none" stroke-width="10.5" stroke-opacity="1" d="M 711.0,711.0 L 760.1968777079743,661.8031222920257 C 760.7979184719828,661.2020815280172 763.7,660.0 764.55,660.0 L 813.0,660.0" stroke="purple"/>
    <rect stroke="none" fill-opacity="1" x="808" y="650" width="10" height="20" fill="purple"/>
  </g>
  <g>
    <path fill="none" stroke-width="10.5" stroke-opacity="1" d="M 404.0,916.0 L 404.0,967.0 L 404.0,1015.45 C 404.0,1016.3 405.2020815280171,1019.2020815280172 405.8031222920257,1019.8031222920257 L 455.0,1069.0 L 506.0,1120.0" stroke="cyan"/>
    <rect stroke="none" fill-opacity="1" x="501" y="1110" width="10" height="20" fill="cyan"/>
  </g>
  <g>
    <text fill="black" stroke="none" font-size="25.2" font-family="p22" font-weight="100" text-anchor="start" dominant-baseline="central" x="833.1" y="813" transform="translate(813,813) rotate(0) translate(-813,-813)">Nanu Oya</text>
  </g>
  <g>
    <text fill="black" stroke="none" font-size="25.2" font-family="p22" font-weight="100" text-anchor="start" dominant-baseline="central" x="833.1" y="660" transform="translate(813,660) rotate(0) translate(-813,-660)">MATALE</text>
  </g>
  <g>
    <text fill="black" stroke="none" font-size="25.2" font-family="p22" font-weight="100" text-anchor="start" dominant-baseline="central" x="526.1" y="1120" transform="translate(506,1120) rotate(0) translate(-506,-1120)">Kosgoda</text>
  </g>
  <g>
    <circle r="10" fill="white" stroke="black" stroke-width="2.5" cx="404" cy="916"/>
    <text fill="black" stroke="none" font-size="21.599999999999998" font-family="p22" font-weight="100" text-anchor="start" dominant-baseline="central" x="422.3" y="916" transform="translate(404,916) rotate(0) translate(-404,-916)">COLOMBO Fort</text>
  </g>
  <g>
    <circle r="10" fill="white" stroke="black" stroke-width="2.5" cx="711" cy="711"/>
    <text fill="black" stroke="none" font-size="21.599999999999998" font-family="p22" font-weight="100" text-anchor="start" dominant-baseline="central" x="729.3" y="711" transform="translate(711,711) rotate(0) translate(-711,-711)">Peradeniya</text>
  </g>
  <g>
    <text fill="gray" stroke="none" font-size="19.8" font-family="p22" font-weight="100" text-anchor="start" dominant-baseline="central" x="574.4" y="762" transform="translate(557,762) rotate(0) translate(-557,-762)">GAMPAHA</text>
  </g>
  <g>
    <text fill="gray" stroke="none" font-size="19.8" font-family="p22" font-weight="100" text-anchor="end" dominant-baseline="central" x="744.6" y="660" transform="translate(762,660) rotate(0) translate(-762,-660)">KANDY</text>
  </g>
  <g>
    <text fill="gray" stroke="none" font-size="18" font-family="p22" font-weight="100" text-anchor="start" dominant-baseline="central" x="471.5" y="864" transform="translate(455,864) rotate(0) translate(-455,-864)">Maradana</text>
  </g>
  <g>
    <text fill="gray" stroke="none" font-size="18" font-family="p22" font-weight="100" text-anchor="start" dominant-baseline="central" x="522.5" y="813" transform="translate(506,813) rotate(0) translate(-506,-813)">Ragama</text>
  </g>
  <g>
    <text fill="gray" stroke="none" font-size="18" font-family="p22" font-weight="100" text-anchor="end" dominant-baseline="central" x="591.5" y="711" transform="translate(608,711) rotate(0) translate(-608,-711)">Ambepussa</text>
  </g>
  <g/>
  <g>
    <text fill="gray" stroke="none" font-size="18" font-family="p22" font-weight="100" text-anchor="start" dominant-baseline="central" x="778.5" y="762" transform="translate(762,762) rotate(0) translate(-762,-762)">Nawalapitiya</text>
  </g>
  <g>
    <text fill="gray" stroke="none" font-size="18" font-family="p22" font-weight="100" text-anchor="start" dominant-baseline="central" x="420.5" y="967" transform="translate(404,967) rotate(0) translate(-404,-967)">Panadura</text>
  </g>
  <g>
    <text fill="gray" stroke="none" font-size="18" font-family="p22" font-weight="100" text-anchor="start" dominant-baseline="central" x="420.5" y="1018" transform="translate(404,1018) rotate(0) translate(-404,-1018)">KALUTARA North</text>
  </g>
  <g>
    <text fill="gray" stroke="none" font-size="18" font-family="p22" font-weight="100" text-anchor="start" dominant-baseline="central" x="471.5" y="1069" transform="translate(455,1069) rotate(0) translate(-455,-1069)">Aluthgama</text>
  </g>
</svg>
