<?xml version="1.0" ?>
<svg xmlns="http://www.w3.org/2000/svg" width="3600" height="3600" padding="360">
  <text fill="#fcfcfc" stroke="none" font-size="600.0" font-family="p22" x="1800.0" y="1800.0" text-anchor="middle" dominant-baseline="center">@nuuuwan</text>
  <text fill="black" stroke="none" font-size="120" font-family="p22" x="1800.0" y="180.0" text-anchor="middle" dominant-baseline="hanging">1892</text>
  <text fill="gray" stroke="none" font-size="40" font-family="p22" x="1800.0" y="230.0" text-anchor="middle" dominant-baseline="hanging">Railways in Sri Lanka</text>
  <text fill="gray" stroke="none" font-size="40" font-family="p22" x="1800.0" y="3460.0" text-anchor="middle" dominant-baseline="text-top">data from multiple sources ~ music by @bensound ~ visualization by @nuuuwan</text>
  <g>
    <path fill="none" stroke-width="29.400000000000002" stroke-opacity="1" d="M 360.0,1944.0 L 648.0,1656.0 L 936.0,1368.0 L 1224.0,1080.0 L 1501.8176623509137,802.1823376490863 C 1505.211774900609,798.7882250993908 1521.6,792.0 1526.4,792.0 L 1800.0,792.0 L 2073.6,792.0 C 2078.4,792.0 2094.7882250993907,798.7882250993908 2098.182337649086,802.1823376490863 L 2376.0,1080.0 L 2664.0,1368.0 L 2952.0,1656.0 L 3240.0,1944.0" stroke="red"/>
    <rect stroke="none" fill-opacity="1" x="3226" y="1916" width="28" height="56" fill="red"/>
  </g>
  <g>
    <path fill="none" stroke-width="29.400000000000002" stroke-opacity="1" d="M 2088.0,792.0 L 2365.817662350914,514.1823376490863 C 2369.2117749006093,510.78822509939084 2385.6,504.0 2390.4,504.0 L 2664.0,504.0" stroke="purple"/>
    <rect stroke="none" fill-opacity="1" x="2650" y="476" width="28" height="56" fill="purple"/>
  </g>
  <g>
    <path fill="none" stroke-width="29.400000000000002" stroke-opacity="1" d="M 360.0,1944.0 L 360.0,2232.0 L 360.0,2505.6 C 360.0,2510.4 366.78822509939084,2526.7882250993907 370.18233764908626,2530.182337649086 L 648.0,2808.0 L 936.0,3096.0" stroke="cyan"/>
    <rect stroke="none" fill-opacity="1" x="922" y="3068" width="28" height="56" fill="cyan"/>
  </g>
  <g>
    <text fill="black" stroke="none" font-size="56.0" font-family="p22" font-weight="100" text-anchor="start" dominant-baseline="central" x="3289.0" y="1944" transform="translate(3240,1944) rotate(0) translate(-3240,-1944)">Nanu Oya</text>
  </g>
  <g>
    <text fill="black" stroke="none" font-size="56.0" font-family="p22" font-weight="100" text-anchor="start" dominant-baseline="central" x="2713.0" y="504" transform="translate(2664,504) rotate(0) translate(-2664,-504)">MATALE</text>
  </g>
  <g>
    <text fill="black" stroke="none" font-size="56.0" font-family="p22" font-weight="100" text-anchor="start" dominant-baseline="central" x="985.0" y="3096" transform="translate(936,3096) rotate(0) translate(-936,-3096)">Kosgoda</text>
  </g>
  <g>
    <circle r="28" fill="white" stroke="black" stroke-width="7.0" cx="360" cy="1944"/>
    <text fill="black" stroke="none" font-size="48.0" font-family="p22" font-weight="100" text-anchor="start" dominant-baseline="central" x="405.0" y="1944" transform="translate(360,1944) rotate(0) translate(-360,-1944)">COLOMBO Fort</text>
  </g>
  <g>
    <circle r="28" fill="white" stroke="black" stroke-width="7.0" cx="2088" cy="792"/>
    <text fill="black" stroke="none" font-size="48.0" font-family="p22" font-weight="100" text-anchor="start" dominant-baseline="central" x="2133.0" y="792" transform="translate(2088,792) rotate(0) translate(-2088,-792)">Peradeniya</text>
  </g>
  <g>
    <text fill="gray" stroke="none" font-size="44.0" font-family="p22" font-weight="100" text-anchor="start" dominant-baseline="central" x="1267.0" y="1080" transform="translate(1224,1080) rotate(0) translate(-1224,-1080)">GAMPAHA</text>
  </g>
  <g>
    <text fill="gray" stroke="none" font-size="44.0" font-family="p22" font-weight="100" text-anchor="end" dominant-baseline="central" x="2333.0" y="504" transform="translate(2376,504) rotate(0) translate(-2376,-504)">KANDY</text>
  </g>
  <g>
    <text fill="gray" stroke="none" font-size="40" font-family="p22" font-weight="100" text-anchor="start" dominant-baseline="central" x="689.0" y="1656" transform="translate(648,1656) rotate(0) translate(-648,-1656)">Maradana</text>
  </g>
  <g>
    <text fill="gray" stroke="none" font-size="40" font-family="p22" font-weight="100" text-anchor="start" dominant-baseline="central" x="977.0" y="1368" transform="translate(936,1368) rotate(0) translate(-936,-1368)">Ragama</text>
  </g>
  <g>
    <text fill="gray" stroke="none" font-size="40" font-family="p22" font-weight="100" text-anchor="end" dominant-baseline="central" x="1471.0" y="792" transform="translate(1512,792) rotate(0) translate(-1512,-792)">Ambepussa</text>
  </g>
  <g>
    <text fill="gray" stroke="none" font-size="40" font-family="p22" font-weight="100" text-anchor="end" dominant-baseline="central" x="1759.0" y="792" transform="translate(1800,792) rotate(45) translate(-1800,-792)">Polgahawela</text>
  </g>
  <g>
    <text fill="gray" stroke="none" font-size="40" font-family="p22" font-weight="100" text-anchor="start" dominant-baseline="central" x="2417.0" y="1080" transform="translate(2376,1080) rotate(0) translate(-2376,-1080)">Gampola</text>
  </g>
  <g>
    <text fill="gray" stroke="none" font-size="40" font-family="p22" font-weight="100" text-anchor="start" dominant-baseline="central" x="2705.0" y="1368" transform="translate(2664,1368) rotate(0) translate(-2664,-1368)">Nawalapitiya</text>
  </g>
  <g>
    <text fill="gray" stroke="none" font-size="40" font-family="p22" font-weight="100" text-anchor="start" dominant-baseline="central" x="2993.0" y="1656" transform="translate(2952,1656) rotate(0) translate(-2952,-1656)">Talawakele</text>
  </g>
  <g>
    <text fill="gray" stroke="none" font-size="40" font-family="p22" font-weight="100" text-anchor="start" dominant-baseline="central" x="401.0" y="2232" transform="translate(360,2232) rotate(0) translate(-360,-2232)">Panadura</text>
  </g>
  <g>
    <text fill="gray" stroke="none" font-size="40" font-family="p22" font-weight="100" text-anchor="start" dominant-baseline="central" x="401.0" y="2520" transform="translate(360,2520) rotate(0) translate(-360,-2520)">KALUTARA North</text>
  </g>
  <g>
    <text fill="gray" stroke="none" font-size="40" font-family="p22" font-weight="100" text-anchor="start" dominant-baseline="central" x="689.0" y="2808" transform="translate(648,2808) rotate(0) translate(-648,-2808)">Aluthgama</text>
  </g>
</svg>
