<?xml version="1.0" ?>
<svg xmlns="http://www.w3.org/2000/svg" width="2880" height="2880" padding="288">
  <text fill="#fcfcfc" stroke="none" font-size="480.0" font-family="p22" x="1440.0" y="1440.0" text-anchor="middle" dominant-baseline="center">@nuuuwan</text>
  <text fill="black" stroke="none" font-size="80" font-family="p22" x="1440.0" y="144.0" text-anchor="middle" dominant-baseline="hanging">1893</text>
  <text fill="gray" stroke="none" font-size="40" font-family="p22" x="1440.0" y="194.0" text-anchor="middle" dominant-baseline="hanging">History of the Railways in Sri Lanka</text>
  <text fill="gray" stroke="none" font-size="38.4" font-family="p22" x="1440.0" y="2776.0" text-anchor="middle" dominant-baseline="text-top">data from multiple sources ~ music by @bensound ~ visualization by @nuuuwan</text>
  <g>
    <path fill="none" stroke-width="29.400000000000002" stroke-opacity="1" d="M 288.0,1440.0 L 486.5749700247069,1240.4749105014907 C 490.04998001647124,1236.9832736676606 503.96666666666664,1223.0333333333333 507.45,1219.55 L 706.0,1021.0 L 916.0,811.0 L 1117.5753787975414,609.4246212024588 C 1120.0502525316942,606.9497474683059 1132.0,602.0 1135.5,602.0 L 1335.0,602.0 L 1533.55,602.0 C 1537.0333333333333,602.0 1548.9379201652841,606.9144062597352 1551.4068802479262,609.3716093896028 L 1743.8703440123963,800.9185804694802 C 1747.2468960082642,804.2790536463201 1760.72094635368,817.7531039917358 1764.08141953052,821.1296559876037 L 1953.054070976526,1011.0064827993801 C 1956.3693806510173,1014.3376551995868 1969.6623448004132,1027.6306193489827 1972.9935172006199,1030.945929023474 L 2162.999675860031,1220.0472964511737 C 2166.333117240021,1223.3648643007825 2179.6351356992177,1236.6668827599794 2182.9527035488263,1240.000324139969 L 2374.5931197520736,1432.5576801336626 C 2377.062079834716,1435.0384534224418 2389.0,1440.0 2392.5,1440.0 L 2592.0,1440.0" stroke="red"/>
    <rect stroke="none" fill-opacity="1" x="2578" y="1412" width="28" height="56" fill="red"/>
  </g>
  <g>
    <path fill="none" stroke-width="29.400000000000002" stroke-opacity="1" d="M 1544.0,602.0 L 1746.6107341366005,399.38926586339943 C 1749.0738227577338,396.9261772422663 1760.9666666666667,392.0 1764.45,392.0 L 1963.0,392.0" stroke="purple"/>
    <rect stroke="none" fill-opacity="1" x="1949" y="364" width="28" height="56" fill="purple"/>
  </g>
  <g>
    <path fill="none" stroke-width="29.400000000000002" stroke-opacity="1" d="M 288.0,1440.0 L 288.0,1649.0 L 288.0,1847.55 C 288.0,1851.0333333333333 292.9144062597352,1862.9379201652841 295.3716093896028,1865.4068802479262 L 486.91858046948016,2057.8703440123963 C 490.2790536463201,2061.2468960082642 503.7370443598154,2074.7370443598156 507.1055665397231,2078.105566539723 L 706.0,2277.0 L 916.0,2487.0" stroke="cyan"/>
    <rect stroke="none" fill-opacity="1" x="902" y="2459" width="28" height="56" fill="cyan"/>
  </g>
  <g>
    <text fill="black" stroke="none" font-size="56.0" font-family="p22" font-weight="100" text-anchor="start" dominant-baseline="central" x="2641.0" y="1440" transform="translate(2592,1440) rotate(0) translate(-2592,-1440)">Haputale</text>
  </g>
  <g>
    <text fill="black" stroke="none" font-size="56.0" font-family="p22" font-weight="100" text-anchor="start" dominant-baseline="central" x="2012.0" y="392" transform="translate(1963,392) rotate(0) translate(-1963,-392)">MATALE</text>
  </g>
  <g>
    <text fill="black" stroke="none" font-size="56.0" font-family="p22" font-weight="100" text-anchor="start" dominant-baseline="central" x="965.0" y="2487" transform="translate(916,2487) rotate(0) translate(-916,-2487)">Ambalangoda</text>
  </g>
  <g>
    <circle r="28" fill="white" stroke="black" stroke-width="7.0" cx="288" cy="1440"/>
    <text fill="black" stroke="none" font-size="48.0" font-family="p22" font-weight="100" text-anchor="start" dominant-baseline="central" x="333.0" y="1440" transform="translate(288,1440) rotate(0) translate(-288,-1440)">COLOMBO Fort</text>
  </g>
  <g>
    <circle r="28" fill="white" stroke="black" stroke-width="7.0" cx="1544" cy="602"/>
    <text fill="black" stroke="none" font-size="48.0" font-family="p22" font-weight="100" text-anchor="start" dominant-baseline="central" x="1589.0" y="602" transform="translate(1544,602) rotate(0) translate(-1544,-602)">Peradeniya</text>
  </g>
  <g>
    <text fill="gray" stroke="none" font-size="44.0" font-family="p22" font-weight="100" text-anchor="start" dominant-baseline="central" x="959.0" y="811" transform="translate(916,811) rotate(0) translate(-916,-811)">GAMPAHA</text>
  </g>
  <g>
    <text fill="gray" stroke="none" font-size="44.0" font-family="p22" font-weight="100" text-anchor="end" dominant-baseline="central" x="1711.0" y="392" transform="translate(1754,392) rotate(0) translate(-1754,-392)">KANDY</text>
  </g>
  <g>
    <text fill="gray" stroke="none" font-size="40" font-family="p22" font-weight="100" text-anchor="start" dominant-baseline="central" x="538.0" y="1230" transform="translate(497,1230) rotate(0) translate(-497,-1230)">Maradana</text>
  </g>
  <g>
    <text fill="gray" stroke="none" font-size="40" font-family="p22" font-weight="100" text-anchor="start" dominant-baseline="central" x="747.0" y="1021" transform="translate(706,1021) rotate(0) translate(-706,-1021)">Ragama</text>
  </g>
  <g>
    <text fill="gray" stroke="none" font-size="40" font-family="p22" font-weight="100" text-anchor="end" dominant-baseline="central" x="1084.0" y="602" transform="translate(1125,602) rotate(0) translate(-1125,-602)">Ambepussa</text>
  </g>
  <g/>
  <g>
    <text fill="gray" stroke="none" font-size="40" font-family="p22" font-weight="100" text-anchor="start" dominant-baseline="central" x="1795.0" y="811" transform="translate(1754,811) rotate(0) translate(-1754,-811)">Gampola</text>
  </g>
  <g>
    <text fill="gray" stroke="none" font-size="40" font-family="p22" font-weight="100" text-anchor="start" dominant-baseline="central" x="2004.0" y="1021" transform="translate(1963,1021) rotate(0) translate(-1963,-1021)">Nawalapitiya</text>
  </g>
  <g>
    <text fill="gray" stroke="none" font-size="40" font-family="p22" font-weight="100" text-anchor="start" dominant-baseline="central" x="2214.0" y="1230" transform="translate(2173,1230) rotate(0) translate(-2173,-1230)">Talawakele</text>
  </g>
  <g>
    <text fill="gray" stroke="none" font-size="40" font-family="p22" font-weight="100" text-anchor="end" dominant-baseline="central" x="2341.0" y="1440" transform="translate(2382,1440) rotate(0) translate(-2382,-1440)">Nanu Oya</text>
  </g>
  <g>
    <text fill="gray" stroke="none" font-size="40" font-family="p22" font-weight="100" text-anchor="start" dominant-baseline="central" x="329.0" y="1649" transform="translate(288,1649) rotate(0) translate(-288,-1649)">Panadura</text>
  </g>
  <g>
    <text fill="gray" stroke="none" font-size="40" font-family="p22" font-weight="100" text-anchor="start" dominant-baseline="central" x="329.0" y="1858" transform="translate(288,1858) rotate(0) translate(-288,-1858)">KALUTARA North</text>
  </g>
  <g>
    <text fill="gray" stroke="none" font-size="40" font-family="p22" font-weight="100" text-anchor="start" dominant-baseline="central" x="538.0" y="2068" transform="translate(497,2068) rotate(0) translate(-497,-2068)">Aluthgama</text>
  </g>
  <g>
    <text fill="gray" stroke="none" font-size="40" font-family="p22" font-weight="100" text-anchor="start" dominant-baseline="central" x="747.0" y="2277" transform="translate(706,2277) rotate(0) translate(-706,-2277)">Kosgoda</text>
  </g>
</svg>
