<?xml version="1.0" ?>
<svg xmlns="http://www.w3.org/2000/svg" width="3600" height="3600" padding="720">
  <text fill="#fcfcfc" stroke="none" font-size="600.0" font-family="p22" x="1800.0" y="1800.0" text-anchor="middle" dominant-baseline="center">@nuuuwan</text>
  <text fill="black" stroke="none" font-size="160" font-family="p22" x="1800.0" y="360.0" text-anchor="middle" dominant-baseline="hanging">1893</text>
  <text fill="gray" stroke="none" font-size="40" font-family="p22" x="1800.0" y="410.0" text-anchor="middle" dominant-baseline="hanging"/>
  <text fill="gray" stroke="none" font-size="40" font-family="p22" x="1800.0" y="3280.0" text-anchor="middle" dominant-baseline="text-top">data from multiple sources ~ music by @bensound ~ visualization by @nuuuwan</text>
  <g>
    <path fill="none" stroke-width="29.400000000000002" stroke-opacity="1" d="M 720.0,1584.0 L 936.0,1368.0 L 1152.0,1152.0 L 1360.3632467631853,943.6367532368147 C 1362.908831175457,941.0911688245432 1375.2,936.0 1378.8,936.0 L 1584.0,936.0 L 1789.2,936.0 C 1792.8,936.0 1805.091168824543,941.0911688245432 1807.6367532368147,943.6367532368147 L 2016.0,1152.0 L 2232.0,1368.0 L 2448.0,1584.0 L 2656.363246763185,1792.3632467631853 C 2658.9088311754567,1794.908831175457 2671.2,1800.0 2674.8,1800.0 L 2880.0,1800.0" stroke="red"/>
    <rect stroke="none" fill-opacity="1" x="2866" y="1772" width="28" height="56" fill="red"/>
  </g>
  <g>
    <path fill="none" stroke-width="29.400000000000002" stroke-opacity="1" d="M 1800.0,936.0 L 2008.3632467631853,727.6367532368147 C 2010.908831175457,725.0911688245432 2023.2,720.0 2026.8,720.0 L 2232.0,720.0" stroke="purple"/>
    <rect stroke="none" fill-opacity="1" x="2218" y="692" width="28" height="56" fill="purple"/>
  </g>
  <g>
    <path fill="none" stroke-width="29.400000000000002" stroke-opacity="1" d="M 720.0,1584.0 L 720.0,1800.0 L 720.0,2016.0 L 720.0,2221.2 C 720.0,2224.8 725.0911688245432,2237.0911688245433 727.6367532368147,2239.636753236815 L 936.0,2448.0 L 1152.0,2664.0 L 1368.0,2880.0" stroke="cyan"/>
    <rect stroke="none" fill-opacity="1" x="1354" y="2852" width="28" height="56" fill="cyan"/>
  </g>
  <g>
    <text fill="black" stroke="none" font-size="56.0" font-family="p22" font-weight="100" text-anchor="start" dominant-baseline="central" x="2929.0" y="1800" transform="translate(2880,1800) rotate(0) translate(-2880,-1800)">Haputale</text>
  </g>
  <g>
    <text fill="black" stroke="none" font-size="56.0" font-family="p22" font-weight="100" text-anchor="start" dominant-baseline="central" x="2281.0" y="720" transform="translate(2232,720) rotate(0) translate(-2232,-720)">Matale</text>
  </g>
  <g>
    <text fill="black" stroke="none" font-size="56.0" font-family="p22" font-weight="100" text-anchor="start" dominant-baseline="central" x="1417.0" y="2880" transform="translate(1368,2880) rotate(0) translate(-1368,-2880)">Ambalangoda</text>
  </g>
  <g>
    <circle r="28" fill="white" stroke="black" stroke-width="7.0" cx="720" cy="1584"/>
    <text fill="black" stroke="none" font-size="48.0" font-family="p22" font-weight="100" text-anchor="start" dominant-baseline="central" x="765.0" y="1584" transform="translate(720,1584) rotate(0) translate(-720,-1584)">C. Terminus</text>
  </g>
  <g>
    <circle r="28" fill="white" stroke="black" stroke-width="7.0" cx="1800" cy="936"/>
    <text fill="black" stroke="none" font-size="48.0" font-family="p22" font-weight="100" text-anchor="start" dominant-baseline="central" x="1845.0" y="936" transform="translate(1800,936) rotate(0) translate(-1800,-936)">Peradeniya</text>
  </g>
  <g>
    <text fill="gray" stroke="none" font-size="44.0" font-family="p22" font-weight="100" text-anchor="start" dominant-baseline="central" x="1195.0" y="1152" transform="translate(1152,1152) rotate(0) translate(-1152,-1152)">Gampaha</text>
  </g>
  <g>
    <text fill="gray" stroke="none" font-size="44.0" font-family="p22" font-weight="100" text-anchor="end" dominant-baseline="central" x="1973.0" y="720" transform="translate(2016,720) rotate(0) translate(-2016,-720)">Kandy</text>
  </g>
  <g>
    <text fill="gray" stroke="none" font-size="40" font-family="p22" font-weight="100" text-anchor="start" dominant-baseline="central" x="977.0" y="1368" transform="translate(936,1368) rotate(0) translate(-936,-1368)">Ragama</text>
  </g>
  <g>
    <text fill="gray" stroke="none" font-size="40" font-family="p22" font-weight="100" text-anchor="end" dominant-baseline="central" x="1327.0" y="936" transform="translate(1368,936) rotate(0) translate(-1368,-936)">Ambepussa</text>
  </g>
  <g>
    <text fill="gray" stroke="none" font-size="40" font-family="p22" font-weight="100" text-anchor="end" dominant-baseline="central" x="1543.0" y="936" transform="translate(1584,936) rotate(45) translate(-1584,-936)">Polgahawela</text>
  </g>
  <g>
    <text fill="gray" stroke="none" font-size="40" font-family="p22" font-weight="100" text-anchor="start" dominant-baseline="central" x="2057.0" y="1152" transform="translate(2016,1152) rotate(0) translate(-2016,-1152)">Gampola</text>
  </g>
  <g>
    <text fill="gray" stroke="none" font-size="40" font-family="p22" font-weight="100" text-anchor="start" dominant-baseline="central" x="2273.0" y="1368" transform="translate(2232,1368) rotate(0) translate(-2232,-1368)">Nawalapitiya</text>
  </g>
  <g>
    <text fill="gray" stroke="none" font-size="40" font-family="p22" font-weight="100" text-anchor="start" dominant-baseline="central" x="2489.0" y="1584" transform="translate(2448,1584) rotate(0) translate(-2448,-1584)">Talawakele</text>
  </g>
  <g>
    <text fill="gray" stroke="none" font-size="40" font-family="p22" font-weight="100" text-anchor="end" dominant-baseline="central" x="2623.0" y="1800" transform="translate(2664,1800) rotate(0) translate(-2664,-1800)">Nanu Oya</text>
  </g>
  <g>
    <text fill="gray" stroke="none" font-size="40" font-family="p22" font-weight="100" text-anchor="start" dominant-baseline="central" x="761.0" y="1800" transform="translate(720,1800) rotate(0) translate(-720,-1800)">Panadura</text>
  </g>
  <g>
    <text fill="gray" stroke="none" font-size="40" font-family="p22" font-weight="100" text-anchor="start" dominant-baseline="central" x="761.0" y="2016" transform="translate(720,2016) rotate(0) translate(-720,-2016)">Kalutara N.</text>
  </g>
  <g>
    <text fill="gray" stroke="none" font-size="40" font-family="p22" font-weight="100" text-anchor="start" dominant-baseline="central" x="761.0" y="2232" transform="translate(720,2232) rotate(0) translate(-720,-2232)">Wadduwa</text>
  </g>
  <g>
    <text fill="gray" stroke="none" font-size="40" font-family="p22" font-weight="100" text-anchor="start" dominant-baseline="central" x="977.0" y="2448" transform="translate(936,2448) rotate(0) translate(-936,-2448)">Aluthgama</text>
  </g>
  <g>
    <text fill="gray" stroke="none" font-size="40" font-family="p22" font-weight="100" text-anchor="start" dominant-baseline="central" x="1193.0" y="2664" transform="translate(1152,2664) rotate(0) translate(-1152,-2664)">Kosgoda</text>
  </g>
</svg>
