<?xml version="1.0" ?>
<svg xmlns="http://www.w3.org/2000/svg" width="3600" height="3600" padding="480">
  <text fill="#fcfcfc" stroke="none" font-size="600.0" font-family="p22" x="1800.0" y="1800.0" text-anchor="middle" dominant-baseline="center">@nuuuwan</text>
  <text fill="black" stroke="none" font-size="160" font-family="p22" x="1800.0" y="240.0" text-anchor="middle" dominant-baseline="hanging">1893</text>
  <text fill="gray" stroke="none" font-size="40" font-family="p22" x="1800.0" y="290.0" text-anchor="middle" dominant-baseline="hanging"/>
  <text fill="gray" stroke="none" font-size="40" font-family="p22" x="1800.0" y="3400.0" text-anchor="middle" dominant-baseline="text-top">data from multiple sources ~ music by @bensound ~ visualization by @nuuuwan</text>
  <g>
    <path fill="none" stroke-width="29.400000000000002" stroke-opacity="1" d="M 480.0,1536.0 L 730.8,1285.2 C 735.2,1280.8 752.7833491458698,1263.183380592214 757.1750237188047,1258.7750708883211 L 995.4587511859403,1019.588753544416 C 999.6391674572935,1015.392502362944 1016.3925623434482,998.6392276654285 1020.5888435151724,994.4588414981428 L 1262.6484961104911,753.316081526291 C 1265.7656640736607,750.2107210175274 1280.8,744.0 1285.2,744.0 L 1536.0,744.0 L 1786.8,744.0 C 1791.2,744.0 1806.2343359263393,750.2107210175274 1809.3515038895089,753.316081526291 L 2051.2675751944753,994.3158040763145 C 2055.511716796317,998.5438693842098 2072.4561915106256,1015.4882225390749 2076.684287265938,1019.7323338086123 L 2315.434214363297,1259.3866166904306 C 2319.6228095755314,1263.5910777936203 2336.393071311527,1280.393071311527 2340.5896069672904,1284.5896069672904 L 2592.0,1536.0 L 2846.6661904883376,1790.6661904883376 C 2849.7774603255584,1793.7774603255584 2864.8,1800.0 2869.2,1800.0 L 3120.0,1800.0" stroke="red"/>
    <rect stroke="none" fill-opacity="1" x="3106" y="1772" width="28" height="56" fill="red"/>
  </g>
  <g>
    <path fill="none" stroke-width="29.400000000000002" stroke-opacity="1" d="M 1800.0,744.0 L 2054.6661904883376,489.3338095116624 C 2057.7774603255584,486.22253967444163 2072.8,480.0 2077.2,480.0 L 2328.0,480.0" stroke="purple"/>
    <rect stroke="none" fill-opacity="1" x="2314" y="452" width="28" height="56" fill="purple"/>
  </g>
  <g>
    <path fill="none" stroke-width="29.400000000000002" stroke-opacity="1" d="M 480.0,1536.0 L 480.0,1800.0 L 480.0,2064.0 L 480.0,2314.8 C 480.0,2319.2 486.22253967444163,2334.2225396744416 489.3338095116624,2337.3338095116624 L 744.0,2592.0 L 1008.0,2856.0 L 1272.0,3120.0" stroke="cyan"/>
    <rect stroke="none" fill-opacity="1" x="1258" y="3092" width="28" height="56" fill="cyan"/>
  </g>
  <g>
    <text fill="black" stroke="none" font-size="56.0" font-family="p22" font-weight="100" text-anchor="start" dominant-baseline="central" x="3169.0" y="1800" transform="translate(3120,1800) rotate(0) translate(-3120,-1800)">Haputale</text>
  </g>
  <g>
    <text fill="black" stroke="none" font-size="56.0" font-family="p22" font-weight="100" text-anchor="start" dominant-baseline="central" x="2377.0" y="480" transform="translate(2328,480) rotate(0) translate(-2328,-480)">Matale</text>
  </g>
  <g>
    <text fill="black" stroke="none" font-size="56.0" font-family="p22" font-weight="100" text-anchor="start" dominant-baseline="central" x="1321.0" y="3120" transform="translate(1272,3120) rotate(0) translate(-1272,-3120)">Ambalangoda</text>
  </g>
  <g>
    <circle r="28" fill="white" stroke="black" stroke-width="7.0" cx="480" cy="1536"/>
    <text fill="black" stroke="none" font-size="48.0" font-family="p22" font-weight="100" text-anchor="start" dominant-baseline="central" x="525.0" y="1536" transform="translate(480,1536) rotate(0) translate(-480,-1536)">C. Terminus</text>
  </g>
  <g>
    <circle r="28" fill="white" stroke="black" stroke-width="7.0" cx="1800" cy="744"/>
    <text fill="black" stroke="none" font-size="48.0" font-family="p22" font-weight="100" text-anchor="start" dominant-baseline="central" x="1845.0" y="744" transform="translate(1800,744) rotate(0) translate(-1800,-744)">Peradeniya</text>
  </g>
  <g>
    <text fill="gray" stroke="none" font-size="44.0" font-family="p22" font-weight="100" text-anchor="start" dominant-baseline="central" x="1051.0" y="1007" transform="translate(1008,1007) rotate(0) translate(-1008,-1007)">Gampaha</text>
  </g>
  <g>
    <text fill="gray" stroke="none" font-size="44.0" font-family="p22" font-weight="100" text-anchor="end" dominant-baseline="central" x="2021.0" y="480" transform="translate(2064,480) rotate(0) translate(-2064,-480)">Kandy</text>
  </g>
  <g>
    <text fill="gray" stroke="none" font-size="40" font-family="p22" font-weight="100" text-anchor="start" dominant-baseline="central" x="785.0" y="1272" transform="translate(744,1272) rotate(0) translate(-744,-1272)">Ragama</text>
  </g>
  <g>
    <text fill="gray" stroke="none" font-size="40" font-family="p22" font-weight="100" text-anchor="end" dominant-baseline="central" x="1231.0" y="744" transform="translate(1272,744) rotate(0) translate(-1272,-744)">Ambepussa</text>
  </g>
  <g>
    <text fill="gray" stroke="none" font-size="40" font-family="p22" font-weight="100" text-anchor="end" dominant-baseline="central" x="1495.0" y="744" transform="translate(1536,744) rotate(45) translate(-1536,-744)">Polgahawela</text>
  </g>
  <g>
    <text fill="gray" stroke="none" font-size="40" font-family="p22" font-weight="100" text-anchor="start" dominant-baseline="central" x="2105.0" y="1007" transform="translate(2064,1007) rotate(0) translate(-2064,-1007)">Gampola</text>
  </g>
  <g>
    <text fill="gray" stroke="none" font-size="40" font-family="p22" font-weight="100" text-anchor="start" dominant-baseline="central" x="2369.0" y="1272" transform="translate(2328,1272) rotate(0) translate(-2328,-1272)">Nawalapitiya</text>
  </g>
  <g>
    <text fill="gray" stroke="none" font-size="40" font-family="p22" font-weight="100" text-anchor="start" dominant-baseline="central" x="2633.0" y="1536" transform="translate(2592,1536) rotate(0) translate(-2592,-1536)">Talawakele</text>
  </g>
  <g>
    <text fill="gray" stroke="none" font-size="40" font-family="p22" font-weight="100" text-anchor="end" dominant-baseline="central" x="2815.0" y="1800" transform="translate(2856,1800) rotate(0) translate(-2856,-1800)">Nanu Oya</text>
  </g>
  <g>
    <text fill="gray" stroke="none" font-size="40" font-family="p22" font-weight="100" text-anchor="start" dominant-baseline="central" x="521.0" y="1800" transform="translate(480,1800) rotate(0) translate(-480,-1800)">Panadura</text>
  </g>
  <g>
    <text fill="gray" stroke="none" font-size="40" font-family="p22" font-weight="100" text-anchor="start" dominant-baseline="central" x="521.0" y="2064" transform="translate(480,2064) rotate(0) translate(-480,-2064)">Kalutara N.</text>
  </g>
  <g>
    <text fill="gray" stroke="none" font-size="40" font-family="p22" font-weight="100" text-anchor="start" dominant-baseline="central" x="521.0" y="2328" transform="translate(480,2328) rotate(0) translate(-480,-2328)">Wadduwa</text>
  </g>
  <g>
    <text fill="gray" stroke="none" font-size="40" font-family="p22" font-weight="100" text-anchor="start" dominant-baseline="central" x="785.0" y="2592" transform="translate(744,2592) rotate(0) translate(-744,-2592)">Aluthgama</text>
  </g>
  <g>
    <text fill="gray" stroke="none" font-size="40" font-family="p22" font-weight="100" text-anchor="start" dominant-baseline="central" x="1049.0" y="2856" transform="translate(1008,2856) rotate(0) translate(-1008,-2856)">Kosgoda</text>
  </g>
</svg>
