<?xml version="1.0" ?>
<svg xmlns="http://www.w3.org/2000/svg" width="3600" height="3600" padding="720">
  <text fill="#fcfcfc" stroke="none" font-size="600.0" font-family="p22" x="1800.0" y="1800.0" text-anchor="middle" dominant-baseline="center">@nuuuwan</text>
  <text fill="black" stroke="none" font-size="160" font-family="p22" x="1800.0" y="360.0" text-anchor="middle" dominant-baseline="hanging">1894</text>
  <text fill="gray" stroke="none" font-size="40" font-family="p22" x="1800.0" y="410.0" text-anchor="middle" dominant-baseline="hanging"/>
  <text fill="gray" stroke="none" font-size="40" font-family="p22" x="1800.0" y="3280.0" text-anchor="middle" dominant-baseline="text-top">data from multiple sources ~ music by @bensound ~ visualization by @nuuuwan</text>
  <g>
    <path fill="none" stroke-width="29.400000000000002" stroke-opacity="1" d="M 720.0,1603.0 L 906.2,1416.8 C 909.4666666666667,1413.5333333333333 922.5166879789529,1400.4500636129912 925.7750319684293,1397.175095419487 L 1102.6887515984215,1219.3587547709744 C 1105.7925010656143,1216.2391698473161 1118.2391698473161,1203.7925010656143 1121.3587547709744,1200.6887515984215 L 1302.0527433466084,1020.9119913911916 C 1304.3684955644055,1018.6079942607944 1315.5333333333333,1014.0 1318.8,1014.0 L 1505.0,1014.0 L 1691.2,1014.0 C 1694.4666666666667,1014.0 1705.6315044355945,1018.6079942607944 1707.9472566533916,1020.9119913911916 L 1888.4973628326695,1200.5455995695595 C 1891.664908555113,1203.6970663797065 1904.3029336202935,1216.335091444887 1907.4544004304405,1219.5026371673305 L 2084.672720021522,1397.6251318583666 C 2087.7818133476812,1400.7500879055776 2100.234069554917,1413.2340695549167 2103.351104332375,1416.3511043323751 L 2290.0,1603.0 L 2480.0703535443718,1793.0703535443718 C 2482.380235696248,1795.3802356962478 2493.5333333333333,1800.0 2496.8,1800.0 L 2683.0,1800.0 L 2880.0,1800.0" stroke="red"/>
    <rect stroke="none" fill-opacity="1" x="2866" y="1772" width="28" height="56" fill="red"/>
  </g>
  <g>
    <path fill="none" stroke-width="29.400000000000002" stroke-opacity="1" d="M 1701.0,1014.0 L 1891.0527433466084,824.9119913911916 C 1893.3684955644055,822.6079942607944 1904.5333333333333,818.0 1907.8,818.0 L 2094.0,818.0" stroke="purple"/>
    <rect stroke="none" fill-opacity="1" x="2080" y="790" width="28" height="56" fill="purple"/>
  </g>
  <g>
    <path fill="none" stroke-width="29.400000000000002" stroke-opacity="1" d="M 720.0,1603.0 L 720.0,1800.0 L 720.0,1996.0 L 720.0,2182.2 C 720.0,2185.4666666666667 724.6079942607944,2196.6315044355943 726.9119913911916,2198.9472566533914 L 906.5455995695596,2379.4973628326698 C 909.6970663797064,2382.664908555113 922.3190329891886,2395.3190329891886 925.4785494837829,2398.478549483783 L 1102.6739274741892,2575.673927474189 C 1105.782618316126,2578.782618316126 1118.2331818147643,2591.201541297938 1121.3497727221466,2594.302311946907 L 1302.0527433466084,2774.088008608808 C 1304.3684955644055,2776.3920057392056 1315.5333333333333,2781.0 1318.8,2781.0 L 1505.0,2781.0" stroke="cyan"/>
    <rect stroke="none" fill-opacity="1" x="1491" y="2753" width="28" height="56" fill="cyan"/>
  </g>
  <g>
    <path fill="none" stroke-width="29.400000000000002" stroke-opacity="1" d="M 1505.0,1014.0 L 1505.0,818.0" stroke="orange"/>
    <rect stroke="none" fill-opacity="1" x="1477" y="804" width="56" height="28" fill="orange"/>
  </g>
  <g>
    <text fill="black" stroke="none" font-size="56.0" font-family="p22" font-weight="100" text-anchor="start" dominant-baseline="central" x="2929.0" y="1800" transform="translate(2880,1800) rotate(0) translate(-2880,-1800)">Bandarawela</text>
  </g>
  <g>
    <text fill="black" stroke="none" font-size="56.0" font-family="p22" font-weight="100" text-anchor="start" dominant-baseline="central" x="2143.0" y="818" transform="translate(2094,818) rotate(0) translate(-2094,-818)">Matale</text>
  </g>
  <g>
    <text fill="black" stroke="none" font-size="56.0" font-family="p22" font-weight="100" text-anchor="start" dominant-baseline="central" x="1554.0" y="2781" transform="translate(1505,2781) rotate(0) translate(-1505,-2781)">Galle</text>
  </g>
  <g>
    <text fill="black" stroke="none" font-size="56.0" font-family="p22" font-weight="100" text-anchor="start" dominant-baseline="central" x="1554.0" y="818" transform="translate(1505,818) rotate(0) translate(-1505,-818)">Kurunegala</text>
  </g>
  <g>
    <circle r="28" fill="white" stroke="black" stroke-width="7.0" cx="720" cy="1603"/>
    <text fill="black" stroke="none" font-size="48.0" font-family="p22" font-weight="100" text-anchor="start" dominant-baseline="central" x="765.0" y="1603" transform="translate(720,1603) rotate(0) translate(-720,-1603)">C. Terminus</text>
  </g>
  <g>
    <circle r="28" fill="white" stroke="black" stroke-width="7.0" cx="1505" cy="1014"/>
    <text fill="black" stroke="none" font-size="48.0" font-family="p22" font-weight="100" text-anchor="end" dominant-baseline="central" x="1460.0" y="1014" transform="translate(1505,1014) rotate(45) translate(-1505,-1014)">Polgahawela</text>
  </g>
  <g>
    <circle r="28" fill="white" stroke="black" stroke-width="7.0" cx="1701" cy="1014"/>
    <text fill="black" stroke="none" font-size="48.0" font-family="p22" font-weight="100" text-anchor="start" dominant-baseline="central" x="1746.0" y="1014" transform="translate(1701,1014) rotate(0) translate(-1701,-1014)">Peradeniya</text>
  </g>
  <g>
    <text fill="gray" stroke="none" font-size="44.0" font-family="p22" font-weight="100" text-anchor="start" dominant-baseline="central" x="1155.0" y="1210" transform="translate(1112,1210) rotate(0) translate(-1112,-1210)">Gampaha</text>
  </g>
  <g>
    <text fill="gray" stroke="none" font-size="44.0" font-family="p22" font-weight="100" text-anchor="start" dominant-baseline="central" x="1941.0" y="818" transform="translate(1898,818) rotate(-45) translate(-1898,-818)">Kandy</text>
  </g>
  <g>
    <text fill="gray" stroke="none" font-size="40" font-family="p22" font-weight="100" text-anchor="start" dominant-baseline="central" x="957.0" y="1407" transform="translate(916,1407) rotate(0) translate(-916,-1407)">Ragama</text>
  </g>
  <g>
    <text fill="gray" stroke="none" font-size="40" font-family="p22" font-weight="100" text-anchor="end" dominant-baseline="central" x="1268.0" y="1014" transform="translate(1309,1014) rotate(0) translate(-1309,-1014)">Ambepussa</text>
  </g>
  <g>
    <text fill="gray" stroke="none" font-size="40" font-family="p22" font-weight="100" text-anchor="start" dominant-baseline="central" x="1939.0" y="1210" transform="translate(1898,1210) rotate(0) translate(-1898,-1210)">Gampola</text>
  </g>
  <g>
    <text fill="gray" stroke="none" font-size="40" font-family="p22" font-weight="100" text-anchor="start" dominant-baseline="central" x="2135.0" y="1407" transform="translate(2094,1407) rotate(0) translate(-2094,-1407)">Nawalapitiya</text>
  </g>
  <g>
    <text fill="gray" stroke="none" font-size="40" font-family="p22" font-weight="100" text-anchor="start" dominant-baseline="central" x="2331.0" y="1603" transform="translate(2290,1603) rotate(0) translate(-2290,-1603)">Talawakele</text>
  </g>
  <g>
    <text fill="gray" stroke="none" font-size="40" font-family="p22" font-weight="100" text-anchor="end" dominant-baseline="central" x="2446.0" y="1800" transform="translate(2487,1800) rotate(0) translate(-2487,-1800)">Nanu Oya</text>
  </g>
  <g>
    <text fill="gray" stroke="none" font-size="40" font-family="p22" font-weight="100" text-anchor="start" dominant-baseline="central" x="2724.0" y="1800" transform="translate(2683,1800) rotate(-45) translate(-2683,-1800)">Haputale</text>
  </g>
  <g>
    <text fill="gray" stroke="none" font-size="40" font-family="p22" font-weight="100" text-anchor="start" dominant-baseline="central" x="761.0" y="1800" transform="translate(720,1800) rotate(0) translate(-720,-1800)">Panadura</text>
  </g>
  <g>
    <text fill="gray" stroke="none" font-size="40" font-family="p22" font-weight="100" text-anchor="start" dominant-baseline="central" x="761.0" y="1996" transform="translate(720,1996) rotate(0) translate(-720,-1996)">Kalutara N.</text>
  </g>
  <g>
    <text fill="gray" stroke="none" font-size="40" font-family="p22" font-weight="100" text-anchor="start" dominant-baseline="central" x="761.0" y="2192" transform="translate(720,2192) rotate(0) translate(-720,-2192)">Wadduwa</text>
  </g>
  <g>
    <text fill="gray" stroke="none" font-size="40" font-family="p22" font-weight="100" text-anchor="start" dominant-baseline="central" x="957.0" y="2389" transform="translate(916,2389) rotate(0) translate(-916,-2389)">Aluthgama</text>
  </g>
  <g>
    <text fill="gray" stroke="none" font-size="40" font-family="p22" font-weight="100" text-anchor="start" dominant-baseline="central" x="1153.0" y="2585" transform="translate(1112,2585) rotate(0) translate(-1112,-2585)">Kosgoda</text>
  </g>
  <g>
    <text fill="gray" stroke="none" font-size="40" font-family="p22" font-weight="100" text-anchor="end" dominant-baseline="central" x="1268.0" y="2781" transform="translate(1309,2781) rotate(0) translate(-1309,-2781)">Ambalangoda</text>
  </g>
</svg>
