<?xml version="1.0" ?>
<svg xmlns="http://www.w3.org/2000/svg" width="3600" height="3600" padding="360">
  <text fill="#fcfcfc" stroke="none" font-size="600.0" font-family="p22" x="1800.0" y="1800.0" text-anchor="middle" dominant-baseline="center">@nuuuwan</text>
  <text fill="black" stroke="none" font-size="120" font-family="p22" x="1800.0" y="180.0" text-anchor="middle" dominant-baseline="hanging">1894</text>
  <text fill="gray" stroke="none" font-size="40" font-family="p22" x="1800.0" y="230.0" text-anchor="middle" dominant-baseline="hanging">Railways in Sri Lanka</text>
  <text fill="gray" stroke="none" font-size="40" font-family="p22" x="1800.0" y="3460.0" text-anchor="middle" dominant-baseline="text-top">data from multiple sources ~ music by @bensound ~ visualization by @nuuuwan</text>
  <g>
    <path fill="none" stroke-width="29.400000000000002" stroke-opacity="1" d="M 360.0,1800.0 L 600.0,1560.0 L 840.0,1320.0 L 1080.0,1080.0 L 1311.5147186257614,848.4852813742385 C 1314.3431457505076,845.6568542494924 1328.0,840.0 1332.0,840.0 L 1560.0,840.0 L 1788.0,840.0 C 1792.0,840.0 1805.6568542494924,845.6568542494924 1808.4852813742386,848.4852813742385 L 2040.0,1080.0 L 2280.0,1320.0 L 2520.0,1560.0 L 2751.5147186257614,1791.5147186257614 C 2754.3431457505076,1794.3431457505076 2768.0,1800.0 2772.0,1800.0 L 3000.0,1800.0 L 3240.0,1800.0" stroke="red"/>
    <rect stroke="none" fill-opacity="1" x="3226" y="1772" width="28" height="56" fill="red"/>
  </g>
  <g>
    <path fill="none" stroke-width="29.400000000000002" stroke-opacity="1" d="M 1800.0,840.0 L 2031.5147186257614,608.4852813742385 C 2034.3431457505076,605.6568542494924 2048.0,600.0 2052.0,600.0 L 2280.0,600.0" stroke="purple"/>
    <rect stroke="none" fill-opacity="1" x="2266" y="572" width="28" height="56" fill="purple"/>
  </g>
  <g>
    <path fill="none" stroke-width="29.400000000000002" stroke-opacity="1" d="M 360.0,1800.0 L 360.0,2040.0 L 360.0,2268.0 C 360.0,2272.0 365.65685424949237,2285.6568542494924 368.4852813742386,2288.4852813742386 L 600.0,2520.0 L 840.0,2760.0 L 1071.5147186257614,2991.5147186257614 C 1074.3431457505076,2994.3431457505076 1088.0,3000.0 1092.0,3000.0 L 1320.0,3000.0" stroke="cyan"/>
    <rect stroke="none" fill-opacity="1" x="1306" y="2972" width="28" height="56" fill="cyan"/>
  </g>
  <g>
    <path fill="none" stroke-width="29.400000000000002" stroke-opacity="1" d="M 1560.0,840.0 L 1560.0,600.0" stroke="orange"/>
    <rect stroke="none" fill-opacity="1" x="1532" y="586" width="56" height="28" fill="orange"/>
  </g>
  <g>
    <text fill="black" stroke="none" font-size="56.0" font-family="p22" font-weight="100" text-anchor="start" dominant-baseline="central" x="3289.0" y="1800" transform="translate(3240,1800) rotate(0) translate(-3240,-1800)">Bandarawela</text>
  </g>
  <g>
    <text fill="black" stroke="none" font-size="56.0" font-family="p22" font-weight="100" text-anchor="start" dominant-baseline="central" x="2329.0" y="600" transform="translate(2280,600) rotate(0) translate(-2280,-600)">MATALE</text>
  </g>
  <g>
    <text fill="black" stroke="none" font-size="56.0" font-family="p22" font-weight="100" text-anchor="start" dominant-baseline="central" x="1369.0" y="3000" transform="translate(1320,3000) rotate(0) translate(-1320,-3000)">GALLE</text>
  </g>
  <g>
    <text fill="black" stroke="none" font-size="56.0" font-family="p22" font-weight="100" text-anchor="start" dominant-baseline="central" x="1609.0" y="600" transform="translate(1560,600) rotate(0) translate(-1560,-600)">KURUNEGALA</text>
  </g>
  <g>
    <circle r="28" fill="white" stroke="black" stroke-width="7.0" cx="360" cy="1800"/>
    <text fill="black" stroke="none" font-size="48.0" font-family="p22" font-weight="100" text-anchor="start" dominant-baseline="central" x="405.0" y="1800" transform="translate(360,1800) rotate(0) translate(-360,-1800)">COLOMBO Fort</text>
  </g>
  <g>
    <circle r="28" fill="white" stroke="black" stroke-width="7.0" cx="1560" cy="840"/>
    <text fill="black" stroke="none" font-size="48.0" font-family="p22" font-weight="100" text-anchor="end" dominant-baseline="central" x="1515.0" y="840" transform="translate(1560,840) rotate(45) translate(-1560,-840)">Polgahawela</text>
  </g>
  <g>
    <circle r="28" fill="white" stroke="black" stroke-width="7.0" cx="1800" cy="840"/>
    <text fill="black" stroke="none" font-size="48.0" font-family="p22" font-weight="100" text-anchor="start" dominant-baseline="central" x="1845.0" y="840" transform="translate(1800,840) rotate(0) translate(-1800,-840)">Peradeniya</text>
  </g>
  <g>
    <text fill="gray" stroke="none" font-size="44.0" font-family="p22" font-weight="100" text-anchor="start" dominant-baseline="central" x="1123.0" y="1080" transform="translate(1080,1080) rotate(0) translate(-1080,-1080)">GAMPAHA</text>
  </g>
  <g>
    <text fill="gray" stroke="none" font-size="44.0" font-family="p22" font-weight="100" text-anchor="start" dominant-baseline="central" x="2083.0" y="600" transform="translate(2040,600) rotate(-45) translate(-2040,-600)">KANDY</text>
  </g>
  <g>
    <text fill="gray" stroke="none" font-size="40" font-family="p22" font-weight="100" text-anchor="start" dominant-baseline="central" x="641.0" y="1560" transform="translate(600,1560) rotate(0) translate(-600,-1560)">Maradana</text>
  </g>
  <g>
    <text fill="gray" stroke="none" font-size="40" font-family="p22" font-weight="100" text-anchor="start" dominant-baseline="central" x="881.0" y="1320" transform="translate(840,1320) rotate(0) translate(-840,-1320)">Ragama</text>
  </g>
  <g>
    <text fill="gray" stroke="none" font-size="40" font-family="p22" font-weight="100" text-anchor="end" dominant-baseline="central" x="1279.0" y="840" transform="translate(1320,840) rotate(0) translate(-1320,-840)">Ambepussa</text>
  </g>
  <g>
    <text fill="gray" stroke="none" font-size="40" font-family="p22" font-weight="100" text-anchor="start" dominant-baseline="central" x="2081.0" y="1080" transform="translate(2040,1080) rotate(0) translate(-2040,-1080)">Gampola</text>
  </g>
  <g>
    <text fill="gray" stroke="none" font-size="40" font-family="p22" font-weight="100" text-anchor="start" dominant-baseline="central" x="2321.0" y="1320" transform="translate(2280,1320) rotate(0) translate(-2280,-1320)">Nawalapitiya</text>
  </g>
  <g>
    <text fill="gray" stroke="none" font-size="40" font-family="p22" font-weight="100" text-anchor="start" dominant-baseline="central" x="2561.0" y="1560" transform="translate(2520,1560) rotate(0) translate(-2520,-1560)">Talawakele</text>
  </g>
  <g>
    <text fill="gray" stroke="none" font-size="40" font-family="p22" font-weight="100" text-anchor="end" dominant-baseline="central" x="2719.0" y="1800" transform="translate(2760,1800) rotate(0) translate(-2760,-1800)">Nanu Oya</text>
  </g>
  <g>
    <text fill="gray" stroke="none" font-size="40" font-family="p22" font-weight="100" text-anchor="start" dominant-baseline="central" x="3041.0" y="1800" transform="translate(3000,1800) rotate(-45) translate(-3000,-1800)">Haputale</text>
  </g>
  <g>
    <text fill="gray" stroke="none" font-size="40" font-family="p22" font-weight="100" text-anchor="start" dominant-baseline="central" x="401.0" y="2040" transform="translate(360,2040) rotate(0) translate(-360,-2040)">Panadura</text>
  </g>
  <g>
    <text fill="gray" stroke="none" font-size="40" font-family="p22" font-weight="100" text-anchor="start" dominant-baseline="central" x="401.0" y="2280" transform="translate(360,2280) rotate(0) translate(-360,-2280)">KALUTARA North</text>
  </g>
  <g>
    <text fill="gray" stroke="none" font-size="40" font-family="p22" font-weight="100" text-anchor="start" dominant-baseline="central" x="641.0" y="2520" transform="translate(600,2520) rotate(0) translate(-600,-2520)">Aluthgama</text>
  </g>
  <g>
    <text fill="gray" stroke="none" font-size="40" font-family="p22" font-weight="100" text-anchor="start" dominant-baseline="central" x="881.0" y="2760" transform="translate(840,2760) rotate(0) translate(-840,-2760)">Kosgoda</text>
  </g>
  <g>
    <text fill="gray" stroke="none" font-size="40" font-family="p22" font-weight="100" text-anchor="end" dominant-baseline="central" x="1039.0" y="3000" transform="translate(1080,3000) rotate(0) translate(-1080,-3000)">Ambalangoda</text>
  </g>
</svg>
