<?xml version="1.0" ?>
<svg xmlns="http://www.w3.org/2000/svg" width="1440" height="1440" padding="144">
  <text fill="#fcfcfc" stroke="none" font-size="240.0" font-family="p22" x="720.0" y="720.0" text-anchor="middle" dominant-baseline="center">@nuuuwan</text>
  <text fill="gray" stroke="none" font-size="80" font-family="p22" x="720.0" y="92.0" text-anchor="middle" dominant-baseline="hanging">1894</text>
  <text fill="gray" stroke="none" font-size="20" font-family="p22" x="720.0" y="1388.0" text-anchor="middle" dominant-baseline="text-top">History of the Railways in Sri Lanka</text>
  <g>
    <path fill="none" stroke-width="12.600000000000001" stroke-opacity="1" d="M 432.0,1008.0 L 486.15,952.9 C 487.1,951.9333333333333 490.91673912906504,948.083260870935 491.8751086935975,947.1248913064024 L 547.0,892.0 L 604.0,835.0 L 659.949390334559,779.050609665441 C 660.632926889706,778.367073110294 663.9333333333333,777.0 664.9,777.0 L 720.0,777.0 L 774.15,777.0 C 775.1,777.0 778.3435028842545,778.3435028842545 779.0152543263816,779.0152543263816 L 835.0,835.0 L 889.949390334559,889.949390334559 C 890.632926889706,890.632926889706 893.9333333333333,892.0 894.9,892.0 L 950.0,892.0" stroke="red"/>
    <rect stroke="none" fill-opacity="1" x="944" y="880" width="12" height="24" fill="red"/>
  </g>
  <g>
    <path fill="none" stroke-width="12.600000000000001" stroke-opacity="1" d="M 777.0,777.0 L 832.967298572217,721.9976548514419 C 833.6448657148113,721.3317699009613 836.9,720.0 837.85,720.0 L 892.0,720.0" stroke="purple"/>
    <rect stroke="none" fill-opacity="1" x="886" y="708" width="12" height="24" fill="purple"/>
  </g>
  <g>
    <path fill="none" stroke-width="12.600000000000001" stroke-opacity="1" d="M 432.0,1008.0 L 432.0,1065.0 L 432.0,1120.1 C 432.0,1121.0666666666666 433.367073110294,1124.367073110294 434.050609665441,1125.050609665441 L 489.0,1180.0 L 544.1248913064024,1235.1248913064026 C 545.083260870935,1236.083260870935 548.9,1239.9333333333334 549.85,1240.9 L 601.967298572217,1293.9316371436594 C 602.6448657148113,1294.6210914291064 605.9333333333333,1296.0 606.9,1296.0 L 662.0,1296.0" stroke="cyan"/>
    <rect stroke="none" fill-opacity="1" x="656" y="1284" width="12" height="24" fill="cyan"/>
  </g>
  <g>
    <path fill="none" stroke-width="12.600000000000001" stroke-opacity="1" d="M 720.0,777.0 L 720.0,720.0" stroke="orange"/>
    <rect stroke="none" fill-opacity="1" x="708" y="714" width="24" height="12" fill="orange"/>
  </g>
  <g>
    <text fill="black" stroke="none" font-size="28.0" font-family="p22" font-weight="100" text-anchor="start" dominant-baseline="central" x="973.0" y="892" transform="translate(950,892) rotate(0) translate(-950,-892)">Bandarawela</text>
  </g>
  <g>
    <text fill="black" stroke="none" font-size="28.0" font-family="p22" font-weight="100" text-anchor="start" dominant-baseline="central" x="915.0" y="720" transform="translate(892,720) rotate(0) translate(-892,-720)">MATALE</text>
  </g>
  <g>
    <text fill="black" stroke="none" font-size="28.0" font-family="p22" font-weight="100" text-anchor="start" dominant-baseline="central" x="685.0" y="1296" transform="translate(662,1296) rotate(0) translate(-662,-1296)">GALLE</text>
  </g>
  <g>
    <text fill="black" stroke="none" font-size="28.0" font-family="p22" font-weight="100" text-anchor="end" dominant-baseline="central" x="697.0" y="720" transform="translate(720,720) rotate(0) translate(-720,-720)">KURUNEGALA</text>
  </g>
  <g>
    <circle r="12" fill="white" stroke="black" stroke-width="3.0" cx="432" cy="1008"/>
    <text fill="black" stroke="none" font-size="24.0" font-family="p22" font-weight="100" text-anchor="start" dominant-baseline="central" x="453.0" y="1008" transform="translate(432,1008) rotate(0) translate(-432,-1008)">COLOMBO Fort</text>
  </g>
  <g>
    <circle r="12" fill="white" stroke="black" stroke-width="3.0" cx="720" cy="777"/>
    <text fill="black" stroke="none" font-size="24.0" font-family="p22" font-weight="100" text-anchor="start" dominant-baseline="central" x="741.0" y="777" transform="translate(720,777) rotate(-45) translate(-720,-777)">Polgahawela</text>
  </g>
  <g>
    <circle r="12" fill="white" stroke="black" stroke-width="3.0" cx="777" cy="777"/>
    <text fill="black" stroke="none" font-size="24.0" font-family="p22" font-weight="100" text-anchor="start" dominant-baseline="central" x="798.0" y="777" transform="translate(777,777) rotate(0) translate(-777,-777)">Peradeniya</text>
  </g>
  <g>
    <text fill="gray" stroke="none" font-size="22.0" font-family="p22" font-weight="100" text-anchor="start" dominant-baseline="central" x="624.0" y="835" transform="translate(604,835) rotate(0) translate(-604,-835)">GAMPAHA</text>
  </g>
  <g>
    <text fill="gray" stroke="none" font-size="22.0" font-family="p22" font-weight="100" text-anchor="start" dominant-baseline="central" x="855.0" y="720" transform="translate(835,720) rotate(-45) translate(-835,-720)">KANDY</text>
  </g>
  <g>
    <text fill="gray" stroke="none" font-size="20" font-family="p22" font-weight="100" text-anchor="start" dominant-baseline="central" x="508.0" y="950" transform="translate(489,950) rotate(0) translate(-489,-950)">Maradana</text>
  </g>
  <g>
    <text fill="gray" stroke="none" font-size="20" font-family="p22" font-weight="100" text-anchor="start" dominant-baseline="central" x="566.0" y="892" transform="translate(547,892) rotate(0) translate(-547,-892)">Ragama</text>
  </g>
  <g>
    <text fill="gray" stroke="none" font-size="20" font-family="p22" font-weight="100" text-anchor="end" dominant-baseline="central" x="643.0" y="777" transform="translate(662,777) rotate(0) translate(-662,-777)">Ambepussa</text>
  </g>
  <g>
    <text fill="gray" stroke="none" font-size="20" font-family="p22" font-weight="100" text-anchor="start" dominant-baseline="central" x="854.0" y="835" transform="translate(835,835) rotate(0) translate(-835,-835)">Nawalapitiya</text>
  </g>
  <g>
    <text fill="gray" stroke="none" font-size="20" font-family="p22" font-weight="100" text-anchor="end" dominant-baseline="central" x="873.0" y="892" transform="translate(892,892) rotate(0) translate(-892,-892)">Nanu Oya</text>
  </g>
  <g>
    <text fill="gray" stroke="none" font-size="20" font-family="p22" font-weight="100" text-anchor="start" dominant-baseline="central" x="451.0" y="1065" transform="translate(432,1065) rotate(0) translate(-432,-1065)">Panadura</text>
  </g>
  <g>
    <text fill="gray" stroke="none" font-size="20" font-family="p22" font-weight="100" text-anchor="start" dominant-baseline="central" x="451.0" y="1123" transform="translate(432,1123) rotate(0) translate(-432,-1123)">KALUTARA North</text>
  </g>
  <g>
    <text fill="gray" stroke="none" font-size="20" font-family="p22" font-weight="100" text-anchor="start" dominant-baseline="central" x="508.0" y="1180" transform="translate(489,1180) rotate(0) translate(-489,-1180)">Aluthgama</text>
  </g>
  <g>
    <text fill="gray" stroke="none" font-size="20" font-family="p22" font-weight="100" text-anchor="start" dominant-baseline="central" x="566.0" y="1238" transform="translate(547,1238) rotate(0) translate(-547,-1238)">Kosgoda</text>
  </g>
  <g>
    <text fill="gray" stroke="none" font-size="20" font-family="p22" font-weight="100" text-anchor="end" dominant-baseline="central" x="585.0" y="1296" transform="translate(604,1296) rotate(0) translate(-604,-1296)">Ambalangoda</text>
  </g>
</svg>
