<?xml version="1.0" ?>
<svg xmlns="http://www.w3.org/2000/svg" width="3600" height="3600" padding="480">
  <text fill="#fcfcfc" stroke="none" font-size="600.0" font-family="p22" x="1800.0" y="1800.0" text-anchor="middle" dominant-baseline="center">@nuuuwan</text>
  <text fill="black" stroke="none" font-size="160" font-family="p22" x="1800.0" y="240.0" text-anchor="middle" dominant-baseline="hanging">1895</text>
  <text fill="gray" stroke="none" font-size="40" font-family="p22" x="1800.0" y="290.0" text-anchor="middle" dominant-baseline="hanging"/>
  <text fill="gray" stroke="none" font-size="40" font-family="p22" x="1800.0" y="3400.0" text-anchor="middle" dominant-baseline="text-top">data from multiple sources ~ music by @bensound ~ visualization by @nuuuwan</text>
  <g>
    <path fill="none" stroke-width="29.400000000000002" stroke-opacity="1" d="M 480.0,1560.0 L 720.0,1320.0 L 960.0,1080.0 L 1191.5147186257614,848.4852813742385 C 1194.3431457505076,845.6568542494924 1208.0,840.0 1212.0,840.0 L 1440.0,840.0 L 1668.0,840.0 C 1672.0,840.0 1685.6568542494924,845.6568542494924 1688.4852813742386,848.4852813742385 L 1920.0,1080.0 L 2160.0,1320.0 L 2400.0,1560.0 L 2631.5147186257614,1791.5147186257614 C 2634.3431457505076,1794.3431457505076 2648.0,1800.0 2652.0,1800.0 L 2880.0,1800.0 L 3120.0,1800.0" stroke="red"/>
    <rect stroke="none" fill-opacity="1" x="3106" y="1772" width="28" height="56" fill="red"/>
  </g>
  <g>
    <path fill="none" stroke-width="29.400000000000002" stroke-opacity="1" d="M 1680.0,840.0 L 1911.5147186257614,608.4852813742385 C 1914.3431457505076,605.6568542494924 1928.0,600.0 1932.0,600.0 L 2160.0,600.0" stroke="purple"/>
    <rect stroke="none" fill-opacity="1" x="2146" y="572" width="28" height="56" fill="purple"/>
  </g>
  <g>
    <path fill="none" stroke-width="29.400000000000002" stroke-opacity="1" d="M 480.0,1560.0 L 480.0,1800.0 L 480.0,2040.0 L 480.0,2268.0 C 480.0,2272.0 485.65685424949237,2285.6568542494924 488.4852813742386,2288.4852813742386 L 720.0,2520.0 L 960.0,2760.0 L 1191.5147186257614,2991.5147186257614 C 1194.3431457505076,2994.3431457505076 1208.0,3000.0 1212.0,3000.0 L 1440.0,3000.0 L 1680.0,3000.0" stroke="cyan"/>
    <rect stroke="none" fill-opacity="1" x="1666" y="2972" width="28" height="56" fill="cyan"/>
  </g>
  <g>
    <path fill="none" stroke-width="29.400000000000002" stroke-opacity="1" d="M 1440.0,840.0 L 1440.0,600.0" stroke="orange"/>
    <rect stroke="none" fill-opacity="1" x="1412" y="586" width="56" height="28" fill="orange"/>
  </g>
  <g>
    <text fill="black" stroke="none" font-size="56.0" font-family="p22" font-weight="100" text-anchor="start" dominant-baseline="central" x="3169.0" y="1800" transform="translate(3120,1800) rotate(0) translate(-3120,-1800)">Bandarawela</text>
  </g>
  <g>
    <text fill="black" stroke="none" font-size="56.0" font-family="p22" font-weight="100" text-anchor="start" dominant-baseline="central" x="2209.0" y="600" transform="translate(2160,600) rotate(0) translate(-2160,-600)">Matale</text>
  </g>
  <g>
    <text fill="black" stroke="none" font-size="56.0" font-family="p22" font-weight="100" text-anchor="start" dominant-baseline="central" x="1729.0" y="3000" transform="translate(1680,3000) rotate(0) translate(-1680,-3000)">Matara</text>
  </g>
  <g>
    <text fill="black" stroke="none" font-size="56.0" font-family="p22" font-weight="100" text-anchor="start" dominant-baseline="central" x="1489.0" y="600" transform="translate(1440,600) rotate(0) translate(-1440,-600)">Kurunegala</text>
  </g>
  <g>
    <circle r="28" fill="white" stroke="black" stroke-width="7.0" cx="480" cy="1560"/>
    <text fill="black" stroke="none" font-size="48.0" font-family="p22" font-weight="100" text-anchor="start" dominant-baseline="central" x="525.0" y="1560" transform="translate(480,1560) rotate(0) translate(-480,-1560)">C. Terminus</text>
  </g>
  <g>
    <circle r="28" fill="white" stroke="black" stroke-width="7.0" cx="1440" cy="840"/>
    <text fill="black" stroke="none" font-size="48.0" font-family="p22" font-weight="100" text-anchor="end" dominant-baseline="central" x="1395.0" y="840" transform="translate(1440,840) rotate(45) translate(-1440,-840)">Polgahawela</text>
  </g>
  <g>
    <circle r="28" fill="white" stroke="black" stroke-width="7.0" cx="1680" cy="840"/>
    <text fill="black" stroke="none" font-size="48.0" font-family="p22" font-weight="100" text-anchor="start" dominant-baseline="central" x="1725.0" y="840" transform="translate(1680,840) rotate(0) translate(-1680,-840)">Peradeniya</text>
  </g>
  <g>
    <text fill="gray" stroke="none" font-size="44.0" font-family="p22" font-weight="100" text-anchor="start" dominant-baseline="central" x="1003.0" y="1080" transform="translate(960,1080) rotate(0) translate(-960,-1080)">Gampaha</text>
  </g>
  <g>
    <text fill="gray" stroke="none" font-size="44.0" font-family="p22" font-weight="100" text-anchor="start" dominant-baseline="central" x="1963.0" y="600" transform="translate(1920,600) rotate(-45) translate(-1920,-600)">Kandy</text>
  </g>
  <g>
    <text fill="gray" stroke="none" font-size="44.0" font-family="p22" font-weight="100" text-anchor="start" dominant-baseline="central" x="1483.0" y="3000" transform="translate(1440,3000) rotate(-45) translate(-1440,-3000)">Galle</text>
  </g>
  <g>
    <text fill="gray" stroke="none" font-size="40" font-family="p22" font-weight="100" text-anchor="start" dominant-baseline="central" x="761.0" y="1320" transform="translate(720,1320) rotate(0) translate(-720,-1320)">Ragama</text>
  </g>
  <g>
    <text fill="gray" stroke="none" font-size="40" font-family="p22" font-weight="100" text-anchor="end" dominant-baseline="central" x="1159.0" y="840" transform="translate(1200,840) rotate(0) translate(-1200,-840)">Ambepussa</text>
  </g>
  <g>
    <text fill="gray" stroke="none" font-size="40" font-family="p22" font-weight="100" text-anchor="start" dominant-baseline="central" x="1961.0" y="1080" transform="translate(1920,1080) rotate(0) translate(-1920,-1080)">Gampola</text>
  </g>
  <g>
    <text fill="gray" stroke="none" font-size="40" font-family="p22" font-weight="100" text-anchor="start" dominant-baseline="central" x="2201.0" y="1320" transform="translate(2160,1320) rotate(0) translate(-2160,-1320)">Nawalapitiya</text>
  </g>
  <g>
    <text fill="gray" stroke="none" font-size="40" font-family="p22" font-weight="100" text-anchor="start" dominant-baseline="central" x="2441.0" y="1560" transform="translate(2400,1560) rotate(0) translate(-2400,-1560)">Talawakele</text>
  </g>
  <g>
    <text fill="gray" stroke="none" font-size="40" font-family="p22" font-weight="100" text-anchor="end" dominant-baseline="central" x="2599.0" y="1800" transform="translate(2640,1800) rotate(0) translate(-2640,-1800)">Nanu Oya</text>
  </g>
  <g>
    <text fill="gray" stroke="none" font-size="40" font-family="p22" font-weight="100" text-anchor="start" dominant-baseline="central" x="2921.0" y="1800" transform="translate(2880,1800) rotate(-45) translate(-2880,-1800)">Haputale</text>
  </g>
  <g>
    <text fill="gray" stroke="none" font-size="40" font-family="p22" font-weight="100" text-anchor="start" dominant-baseline="central" x="521.0" y="1800" transform="translate(480,1800) rotate(0) translate(-480,-1800)">Panadura</text>
  </g>
  <g>
    <text fill="gray" stroke="none" font-size="40" font-family="p22" font-weight="100" text-anchor="start" dominant-baseline="central" x="521.0" y="2040" transform="translate(480,2040) rotate(0) translate(-480,-2040)">Kalutara N.</text>
  </g>
  <g>
    <text fill="gray" stroke="none" font-size="40" font-family="p22" font-weight="100" text-anchor="start" dominant-baseline="central" x="521.0" y="2280" transform="translate(480,2280) rotate(0) translate(-480,-2280)">Wadduwa</text>
  </g>
  <g>
    <text fill="gray" stroke="none" font-size="40" font-family="p22" font-weight="100" text-anchor="start" dominant-baseline="central" x="761.0" y="2520" transform="translate(720,2520) rotate(0) translate(-720,-2520)">Aluthgama</text>
  </g>
  <g>
    <text fill="gray" stroke="none" font-size="40" font-family="p22" font-weight="100" text-anchor="start" dominant-baseline="central" x="1001.0" y="2760" transform="translate(960,2760) rotate(0) translate(-960,-2760)">Kosgoda</text>
  </g>
  <g>
    <text fill="gray" stroke="none" font-size="40" font-family="p22" font-weight="100" text-anchor="end" dominant-baseline="central" x="1159.0" y="3000" transform="translate(1200,3000) rotate(0) translate(-1200,-3000)">Ambalangoda</text>
  </g>
</svg>
