<?xml version="1.0" ?>
<svg xmlns="http://www.w3.org/2000/svg" width="3600" height="3600" padding="720">
  <text fill="#fcfcfc" stroke="none" font-size="600.0" font-family="p22" x="1800.0" y="1800.0" text-anchor="middle" dominant-baseline="center">@nuuuwan</text>
  <text fill="black" stroke="none" font-size="160" font-family="p22" x="1800.0" y="360.0" text-anchor="middle" dominant-baseline="hanging">1899</text>
  <text fill="gray" stroke="none" font-size="40" font-family="p22" x="1800.0" y="410.0" text-anchor="middle" dominant-baseline="hanging"/>
  <text fill="gray" stroke="none" font-size="40" font-family="p22" x="1800.0" y="3280.0" text-anchor="middle" dominant-baseline="text-top">data from multiple sources ~ music by @bensound ~ visualization by @nuuuwan</text>
  <g>
    <path fill="none" stroke-width="29.400000000000002" stroke-opacity="1" d="M 720.0,1716.0 L 886.0,1550.0 L 1052.0,1384.0 L 1212.1310137161518,1223.8689862838482 C 1214.0873424774345,1221.9126575225655 1223.5333333333333,1218.0 1226.3,1218.0 L 1384.0,1218.0 L 1550.0,1218.0 L 1707.7,1218.0 C 1710.4666666666667,1218.0 1719.92438954977,1221.9008902111486 1721.886584324655,1223.8513353167227 L 1874.9443292162327,1375.992566765836 C 1877.629552810822,1378.661711177224 1888.3543921488404,1389.3543921488404 1891.0315882232605,1392.0315882232605 L 2049.0,1550.0 L 2206.7,1707.7 C 2209.4666666666667,1710.4666666666667 2220.5166918419345,1721.5499249253198 2223.2750377629022,1724.3248873879797 L 2375.1486646832773,1877.113415675345 C 2377.0991097888514,1879.07561045023 2386.5333333333333,1883.0 2389.3,1883.0 L 2547.0,1883.0 L 2713.0,1883.0 L 2880.0,1883.0" stroke="red"/>
    <rect stroke="none" fill-opacity="1" x="2866" y="1855" width="28" height="56" fill="red"/>
  </g>
  <g>
    <path fill="none" stroke-width="29.400000000000002" stroke-opacity="1" d="M 1716.0,1218.0 L 1877.113415675345,1057.8513353167227 C 1879.07561045023,1055.9008902111486 1888.5333333333333,1052.0 1891.3,1052.0 L 2049.0,1052.0 L 2215.0,1052.0" stroke="purple"/>
    <rect stroke="none" fill-opacity="1" x="2201" y="1024" width="28" height="56" fill="purple"/>
  </g>
  <g>
    <path fill="none" stroke-width="29.400000000000002" stroke-opacity="1" d="M 720.0,1716.0 L 720.0,1883.0 L 720.0,2049.0 L 720.0,2206.7 C 720.0,2209.4666666666667 723.9126575225656,2218.9126575225655 725.8689862838484,2220.8689862838482 L 886.0,2381.0 L 1052.0,2547.0 L 1212.1310137161518,2707.1310137161518 C 1214.0873424774345,2709.0873424774345 1223.5333333333333,2713.0 1226.3,2713.0 L 1384.0,2713.0 L 1550.0,2713.0" stroke="cyan"/>
    <rect stroke="none" fill-opacity="1" x="1536" y="2685" width="28" height="56" fill="cyan"/>
  </g>
  <g>
    <path fill="none" stroke-width="29.400000000000002" stroke-opacity="1" d="M 1384.0,1218.0 L 1384.0,1052.0 L 1384.0,886.0" stroke="orange"/>
    <rect stroke="none" fill-opacity="1" x="1356" y="872" width="56" height="28" fill="orange"/>
  </g>
  <g>
    <text fill="black" stroke="none" font-size="56.0" font-family="p22" font-weight="100" text-anchor="start" dominant-baseline="central" x="2929.0" y="1883" transform="translate(2880,1883) rotate(0) translate(-2880,-1883)">Bandarawela</text>
  </g>
  <g>
    <text fill="black" stroke="none" font-size="56.0" font-family="p22" font-weight="100" text-anchor="start" dominant-baseline="central" x="2264.0" y="1052" transform="translate(2215,1052) rotate(0) translate(-2215,-1052)">Matale</text>
  </g>
  <g>
    <text fill="black" stroke="none" font-size="56.0" font-family="p22" font-weight="100" text-anchor="start" dominant-baseline="central" x="1599.0" y="2713" transform="translate(1550,2713) rotate(0) translate(-1550,-2713)">Matara</text>
  </g>
  <g>
    <text fill="black" stroke="none" font-size="56.0" font-family="p22" font-weight="100" text-anchor="start" dominant-baseline="central" x="1433.0" y="886" transform="translate(1384,886) rotate(0) translate(-1384,-886)">Maho</text>
  </g>
  <g>
    <circle r="28" fill="white" stroke="black" stroke-width="7.0" cx="720" cy="1716"/>
    <text fill="black" stroke="none" font-size="48.0" font-family="p22" font-weight="100" text-anchor="start" dominant-baseline="central" x="765.0" y="1716" transform="translate(720,1716) rotate(0) translate(-720,-1716)">C. Terminus</text>
  </g>
  <g>
    <circle r="28" fill="white" stroke="black" stroke-width="7.0" cx="1384" cy="1218"/>
    <text fill="black" stroke="none" font-size="48.0" font-family="p22" font-weight="100" text-anchor="end" dominant-baseline="central" x="1339.0" y="1218" transform="translate(1384,1218) rotate(-90) translate(-1384,-1218)">Polgahawela</text>
  </g>
  <g>
    <circle r="28" fill="white" stroke="black" stroke-width="7.0" cx="1716" cy="1218"/>
    <text fill="black" stroke="none" font-size="48.0" font-family="p22" font-weight="100" text-anchor="start" dominant-baseline="central" x="1761.0" y="1218" transform="translate(1716,1218) rotate(0) translate(-1716,-1218)">Peradeniya</text>
  </g>
  <g>
    <text fill="gray" stroke="none" font-size="44.0" font-family="p22" font-weight="100" text-anchor="start" dominant-baseline="central" x="1095.0" y="1384" transform="translate(1052,1384) rotate(0) translate(-1052,-1384)">Gampaha</text>
  </g>
  <g>
    <text fill="gray" stroke="none" font-size="44.0" font-family="p22" font-weight="100" text-anchor="end" dominant-baseline="central" x="1840.0" y="1052" transform="translate(1883,1052) rotate(0) translate(-1883,-1052)">Kandy</text>
  </g>
  <g>
    <text fill="gray" stroke="none" font-size="44.0" font-family="p22" font-weight="100" text-anchor="start" dominant-baseline="central" x="1427.0" y="2713" transform="translate(1384,2713) rotate(-90) translate(-1384,-2713)">Galle</text>
  </g>
  <g>
    <text fill="gray" stroke="none" font-size="44.0" font-family="p22" font-weight="100" text-anchor="start" dominant-baseline="central" x="1427.0" y="1052" transform="translate(1384,1052) rotate(0) translate(-1384,-1052)">Kurunegala</text>
  </g>
  <g>
    <text fill="gray" stroke="none" font-size="40" font-family="p22" font-weight="100" text-anchor="start" dominant-baseline="central" x="927.0" y="1550" transform="translate(886,1550) rotate(0) translate(-886,-1550)">Ragama</text>
  </g>
  <g>
    <text fill="gray" stroke="none" font-size="40" font-family="p22" font-weight="100" text-anchor="end" dominant-baseline="central" x="1177.0" y="1218" transform="translate(1218,1218) rotate(0) translate(-1218,-1218)">Ambepussa</text>
  </g>
  <g>
    <text fill="gray" stroke="none" font-size="40" font-family="p22" font-weight="100" text-anchor="end" dominant-baseline="central" x="1509.0" y="1218" transform="translate(1550,1218) rotate(-90) translate(-1550,-1218)">Rambukkana</text>
  </g>
  <g>
    <text fill="gray" stroke="none" font-size="40" font-family="p22" font-weight="100" text-anchor="start" dominant-baseline="central" x="1924.0" y="1384" transform="translate(1883,1384) rotate(0) translate(-1883,-1384)">Gampola</text>
  </g>
  <g>
    <text fill="gray" stroke="none" font-size="40" font-family="p22" font-weight="100" text-anchor="start" dominant-baseline="central" x="2090.0" y="1550" transform="translate(2049,1550) rotate(0) translate(-2049,-1550)">Nawalapitiya</text>
  </g>
  <g>
    <text fill="gray" stroke="none" font-size="40" font-family="p22" font-weight="100" text-anchor="start" dominant-baseline="central" x="2256.0" y="1716" transform="translate(2215,1716) rotate(0) translate(-2215,-1716)">Talawakele</text>
  </g>
  <g>
    <text fill="gray" stroke="none" font-size="40" font-family="p22" font-weight="100" text-anchor="end" dominant-baseline="central" x="2340.0" y="1883" transform="translate(2381,1883) rotate(0) translate(-2381,-1883)">Nanu Oya</text>
  </g>
  <g>
    <text fill="gray" stroke="none" font-size="40" font-family="p22" font-weight="100" text-anchor="start" dominant-baseline="central" x="2588.0" y="1883" transform="translate(2547,1883) rotate(-90) translate(-2547,-1883)">Ambewela</text>
  </g>
  <g>
    <text fill="gray" stroke="none" font-size="40" font-family="p22" font-weight="100" text-anchor="start" dominant-baseline="central" x="2754.0" y="1883" transform="translate(2713,1883) rotate(-90) translate(-2713,-1883)">Haputale</text>
  </g>
  <g>
    <text fill="gray" stroke="none" font-size="40" font-family="p22" font-weight="100" text-anchor="start" dominant-baseline="central" x="2090.0" y="1052" transform="translate(2049,1052) rotate(-90) translate(-2049,-1052)">Wattegama</text>
  </g>
  <g>
    <text fill="gray" stroke="none" font-size="40" font-family="p22" font-weight="100" text-anchor="start" dominant-baseline="central" x="761.0" y="1883" transform="translate(720,1883) rotate(0) translate(-720,-1883)">Panadura</text>
  </g>
  <g>
    <text fill="gray" stroke="none" font-size="40" font-family="p22" font-weight="100" text-anchor="start" dominant-baseline="central" x="761.0" y="2049" transform="translate(720,2049) rotate(0) translate(-720,-2049)">Kalutara N.</text>
  </g>
  <g>
    <text fill="gray" stroke="none" font-size="40" font-family="p22" font-weight="100" text-anchor="start" dominant-baseline="central" x="761.0" y="2215" transform="translate(720,2215) rotate(0) translate(-720,-2215)">Wadduwa</text>
  </g>
  <g>
    <text fill="gray" stroke="none" font-size="40" font-family="p22" font-weight="100" text-anchor="start" dominant-baseline="central" x="927.0" y="2381" transform="translate(886,2381) rotate(0) translate(-886,-2381)">Aluthgama</text>
  </g>
  <g>
    <text fill="gray" stroke="none" font-size="40" font-family="p22" font-weight="100" text-anchor="start" dominant-baseline="central" x="1093.0" y="2547" transform="translate(1052,2547) rotate(0) translate(-1052,-2547)">Kosgoda</text>
  </g>
  <g>
    <text fill="gray" stroke="none" font-size="40" font-family="p22" font-weight="100" text-anchor="end" dominant-baseline="central" x="1177.0" y="2713" transform="translate(1218,2713) rotate(0) translate(-1218,-2713)">Ambalangoda</text>
  </g>
</svg>
