<?xml version="1.0" ?>
<svg xmlns="http://www.w3.org/2000/svg" width="3600" height="3600" padding="480">
  <text fill="#fcfcfc" stroke="none" font-size="600.0" font-family="p22" x="1800.0" y="1800.0" text-anchor="middle" dominant-baseline="center">@nuuuwan</text>
  <text fill="black" stroke="none" font-size="160" font-family="p22" x="1800.0" y="240.0" text-anchor="middle" dominant-baseline="hanging">1899</text>
  <text fill="gray" stroke="none" font-size="40" font-family="p22" x="1800.0" y="290.0" text-anchor="middle" dominant-baseline="hanging"/>
  <text fill="gray" stroke="none" font-size="40" font-family="p22" x="1800.0" y="3400.0" text-anchor="middle" dominant-baseline="text-top">data from multiple sources ~ music by @bensound ~ visualization by @nuuuwan</text>
  <g>
    <path fill="none" stroke-width="29.400000000000002" stroke-opacity="1" d="M 480.0,1680.0 L 720.0,1440.0 L 948.0,1212.0 C 952.0,1208.0 967.9833507303692,1191.9833853082544 971.9750260955537,1187.9750779623814 L 1191.532377842948,967.5029039160397 C 1194.3549185619654,964.6686026106931 1208.0,959.0 1212.0,959.0 L 1440.0,959.0 L 1668.0,959.0 C 1672.0,959.0 1685.6450814380346,964.6686026106931 1688.467622157052,967.5029039160397 L 1908.4233811078525,1188.375145195802 C 1912.2822540719017,1192.2500967972014 1927.7338412791908,1207.7338412791908 1931.600761918786,1211.600761918786 L 2160.0,1440.0 L 2400.0,1680.0 L 2631.5147186257614,1911.5147186257614 C 2634.3431457505076,1914.3431457505076 2648.0,1920.0 2652.0,1920.0 L 2880.0,1920.0 L 3120.0,1920.0" stroke="red"/>
    <rect stroke="none" fill-opacity="1" x="3106" y="1892" width="28" height="56" fill="red"/>
  </g>
  <g>
    <path fill="none" stroke-width="29.400000000000002" stroke-opacity="1" d="M 1680.0,959.0 L 1911.4970225806162,728.4675483468031 C 1914.3313483870775,725.6450322312021 1928.0,720.0 1932.0,720.0 L 2160.0,720.0" stroke="purple"/>
    <rect stroke="none" fill-opacity="1" x="2146" y="692" width="28" height="56" fill="purple"/>
  </g>
  <g>
    <path fill="none" stroke-width="29.400000000000002" stroke-opacity="1" d="M 480.0,1680.0 L 480.0,1920.0 L 480.0,2160.0 L 480.0,2388.0 C 480.0,2392.0 485.65685424949237,2405.6568542494924 488.4852813742386,2408.4852813742386 L 720.0,2640.0 L 960.0,2880.0 L 1191.5147186257614,3111.5147186257614 C 1194.3431457505076,3114.3431457505076 1208.0,3120.0 1212.0,3120.0 L 1440.0,3120.0 L 1680.0,3120.0" stroke="cyan"/>
    <rect stroke="none" fill-opacity="1" x="1666" y="3092" width="28" height="56" fill="cyan"/>
  </g>
  <g>
    <path fill="none" stroke-width="29.400000000000002" stroke-opacity="1" d="M 1440.0,959.0 L 1440.0,720.0 L 1440.0,480.0" stroke="orange"/>
    <rect stroke="none" fill-opacity="1" x="1412" y="466" width="56" height="28" fill="orange"/>
  </g>
  <g>
    <text fill="black" stroke="none" font-size="56.0" font-family="p22" font-weight="100" text-anchor="start" dominant-baseline="central" x="3169.0" y="1920" transform="translate(3120,1920) rotate(0) translate(-3120,-1920)">Bandarawela</text>
  </g>
  <g>
    <text fill="black" stroke="none" font-size="56.0" font-family="p22" font-weight="100" text-anchor="start" dominant-baseline="central" x="2209.0" y="720" transform="translate(2160,720) rotate(0) translate(-2160,-720)">Matale</text>
  </g>
  <g>
    <text fill="black" stroke="none" font-size="56.0" font-family="p22" font-weight="100" text-anchor="start" dominant-baseline="central" x="1729.0" y="3120" transform="translate(1680,3120) rotate(0) translate(-1680,-3120)">Matara</text>
  </g>
  <g>
    <text fill="black" stroke="none" font-size="56.0" font-family="p22" font-weight="100" text-anchor="start" dominant-baseline="central" x="1489.0" y="480" transform="translate(1440,480) rotate(0) translate(-1440,-480)">Maho</text>
  </g>
  <g>
    <circle r="28" fill="white" stroke="black" stroke-width="7.0" cx="480" cy="1680"/>
    <text fill="black" stroke="none" font-size="48.0" font-family="p22" font-weight="100" text-anchor="start" dominant-baseline="central" x="525.0" y="1680" transform="translate(480,1680) rotate(0) translate(-480,-1680)">C. Terminus</text>
  </g>
  <g>
    <circle r="28" fill="white" stroke="black" stroke-width="7.0" cx="1440" cy="959"/>
    <text fill="black" stroke="none" font-size="48.0" font-family="p22" font-weight="100" text-anchor="start" dominant-baseline="central" x="1485.0" y="959" transform="translate(1440,959) rotate(-45) translate(-1440,-959)">Polgahawela</text>
  </g>
  <g>
    <circle r="28" fill="white" stroke="black" stroke-width="7.0" cx="1680" cy="959"/>
    <text fill="black" stroke="none" font-size="48.0" font-family="p22" font-weight="100" text-anchor="start" dominant-baseline="central" x="1725.0" y="959" transform="translate(1680,959) rotate(0) translate(-1680,-959)">Peradeniya</text>
  </g>
  <g>
    <text fill="gray" stroke="none" font-size="44.0" font-family="p22" font-weight="100" text-anchor="start" dominant-baseline="central" x="1003.0" y="1200" transform="translate(960,1200) rotate(0) translate(-960,-1200)">Gampaha</text>
  </g>
  <g>
    <text fill="gray" stroke="none" font-size="44.0" font-family="p22" font-weight="100" text-anchor="start" dominant-baseline="central" x="1963.0" y="720" transform="translate(1920,720) rotate(-45) translate(-1920,-720)">Kandy</text>
  </g>
  <g>
    <text fill="gray" stroke="none" font-size="44.0" font-family="p22" font-weight="100" text-anchor="start" dominant-baseline="central" x="1483.0" y="3120" transform="translate(1440,3120) rotate(-45) translate(-1440,-3120)">Galle</text>
  </g>
  <g>
    <text fill="gray" stroke="none" font-size="44.0" font-family="p22" font-weight="100" text-anchor="end" dominant-baseline="central" x="1397.0" y="720" transform="translate(1440,720) rotate(0) translate(-1440,-720)">Kurunegala</text>
  </g>
  <g>
    <text fill="gray" stroke="none" font-size="40" font-family="p22" font-weight="100" text-anchor="start" dominant-baseline="central" x="761.0" y="1440" transform="translate(720,1440) rotate(0) translate(-720,-1440)">Ragama</text>
  </g>
  <g>
    <text fill="gray" stroke="none" font-size="40" font-family="p22" font-weight="100" text-anchor="end" dominant-baseline="central" x="1159.0" y="959" transform="translate(1200,959) rotate(0) translate(-1200,-959)">Ambepussa</text>
  </g>
  <g>
    <text fill="gray" stroke="none" font-size="40" font-family="p22" font-weight="100" text-anchor="start" dominant-baseline="central" x="1961.0" y="1200" transform="translate(1920,1200) rotate(0) translate(-1920,-1200)">Gampola</text>
  </g>
  <g>
    <text fill="gray" stroke="none" font-size="40" font-family="p22" font-weight="100" text-anchor="start" dominant-baseline="central" x="2201.0" y="1440" transform="translate(2160,1440) rotate(0) translate(-2160,-1440)">Nawalapitiya</text>
  </g>
  <g>
    <text fill="gray" stroke="none" font-size="40" font-family="p22" font-weight="100" text-anchor="start" dominant-baseline="central" x="2441.0" y="1680" transform="translate(2400,1680) rotate(0) translate(-2400,-1680)">Talawakele</text>
  </g>
  <g>
    <text fill="gray" stroke="none" font-size="40" font-family="p22" font-weight="100" text-anchor="end" dominant-baseline="central" x="2599.0" y="1920" transform="translate(2640,1920) rotate(0) translate(-2640,-1920)">Nanu Oya</text>
  </g>
  <g>
    <text fill="gray" stroke="none" font-size="40" font-family="p22" font-weight="100" text-anchor="start" dominant-baseline="central" x="2921.0" y="1920" transform="translate(2880,1920) rotate(-45) translate(-2880,-1920)">Haputale</text>
  </g>
  <g>
    <text fill="gray" stroke="none" font-size="40" font-family="p22" font-weight="100" text-anchor="start" dominant-baseline="central" x="521.0" y="1920" transform="translate(480,1920) rotate(0) translate(-480,-1920)">Panadura</text>
  </g>
  <g>
    <text fill="gray" stroke="none" font-size="40" font-family="p22" font-weight="100" text-anchor="start" dominant-baseline="central" x="521.0" y="2160" transform="translate(480,2160) rotate(0) translate(-480,-2160)">Kalutara N.</text>
  </g>
  <g>
    <text fill="gray" stroke="none" font-size="40" font-family="p22" font-weight="100" text-anchor="start" dominant-baseline="central" x="521.0" y="2400" transform="translate(480,2400) rotate(0) translate(-480,-2400)">Wadduwa</text>
  </g>
  <g>
    <text fill="gray" stroke="none" font-size="40" font-family="p22" font-weight="100" text-anchor="start" dominant-baseline="central" x="761.0" y="2640" transform="translate(720,2640) rotate(0) translate(-720,-2640)">Aluthgama</text>
  </g>
  <g>
    <text fill="gray" stroke="none" font-size="40" font-family="p22" font-weight="100" text-anchor="start" dominant-baseline="central" x="1001.0" y="2880" transform="translate(960,2880) rotate(0) translate(-960,-2880)">Kosgoda</text>
  </g>
  <g>
    <text fill="gray" stroke="none" font-size="40" font-family="p22" font-weight="100" text-anchor="end" dominant-baseline="central" x="1159.0" y="3120" transform="translate(1200,3120) rotate(0) translate(-1200,-3120)">Ambalangoda</text>
  </g>
</svg>
