<?xml version="1.0" ?>
<svg xmlns="http://www.w3.org/2000/svg" width="1300" height="1300" padding="200">
  <text fill="gray" stroke="none" font-size="72" font-family="GIL_____" x="650.0" y="118.0" text-anchor="middle" dominant-baseline="hanging">1902</text>
  <text fill="gray" stroke="none" font-size="18" font-family="GIL_____" x="650.0" y="1218.0" text-anchor="middle" dominant-baseline="text-top">History of the Railways in Sri Lanka</text>
  <g>
    <path fill="none" stroke-width="10.5" stroke-opacity="1" d="M 281.0,609.0 L 363.0,527.0 L 445.0,445.0 L 527.0,363.0 L 606.1362175361945,283.86378246380553 C 607.0908116907963,282.90918830920367 611.7,281.0 613.05,281.0 L 690.0,281.0 L 767.9,281.0 C 769.2666666666667,281.0 773.9327585352432,282.93275853524324 774.8991378028649,283.89913780286486 L 854.0,363.0 L 933.1008621971351,442.10086219713514 C 934.0672414647568,443.06724146475676 938.7333333333333,445.0 940.1,445.0 L 1018.0,445.0" stroke="red"/>
    <rect stroke="none" fill-opacity="1" x="1013" y="435" width="10" height="20" fill="red"/>
  </g>
  <g>
    <path fill="none" stroke-width="10.5" stroke-opacity="1" d="M 772.0,281.0 L 851.0831309674662,202.8812974589663 C 852.0554206449775,201.92086497264418 856.7333333333333,200.0 858.1,200.0 L 936.0,200.0" stroke="purple"/>
    <rect stroke="none" fill-opacity="1" x="931" y="190" width="10" height="20" fill="purple"/>
  </g>
  <g>
    <path fill="none" stroke-width="10.5" stroke-opacity="1" d="M 281.0,609.0 L 281.0,690.0 L 281.0,767.9 C 281.0,769.2666666666667 282.93275853524324,773.9327585352432 283.89913780286486,774.8991378028649 L 363.0,854.0 L 445.0,936.0 L 527.0,1018.0 L 606.1362175361945,1097.1362175361944 C 607.0908116907963,1098.0908116907963 611.7,1100.0 613.05,1100.0 L 690.0,1100.0" stroke="cyan"/>
    <rect stroke="none" fill-opacity="1" x="685" y="1090" width="10" height="20" fill="cyan"/>
  </g>
  <g>
    <path fill="none" stroke-width="10.5" stroke-opacity="1" d="M 690.0,281.0 L 690.0,200.0" stroke="orange"/>
    <rect stroke="none" fill-opacity="1" x="680" y="195" width="20" height="10" fill="orange"/>
  </g>
  <g>
    <path fill="none" stroke-width="10.5" stroke-opacity="1" d="M 363.0,527.0 L 442.10086219713514,606.1008621971351 C 443.06724146475676,607.0672414647568 447.73333333333335,609.0 449.1,609.0 L 523.105,609.0 C 524.4033333333333,609.0 528.8361206084811,607.1638793915189 529.7541809127216,606.2458190872784 L 609.0,527.0" stroke="darkblue"/>
    <rect stroke="none" fill-opacity="1" x="604" y="517" width="10" height="20" fill="darkblue"/>
  </g>
  <g>
    <text fill="black" stroke="none" font-size="25.2" font-family="GIL_____" font-weight="100" text-anchor="start" dominant-baseline="central" x="1038.1" y="445" transform="translate(1018,445) rotate(0) translate(-1018,-445)">Bandarawela</text>
  </g>
  <g>
    <text fill="black" stroke="none" font-size="25.2" font-family="GIL_____" font-weight="100" text-anchor="start" dominant-baseline="central" x="956.1" y="200" transform="translate(936,200) rotate(0) translate(-936,-200)">MATALE</text>
  </g>
  <g>
    <text fill="black" stroke="none" font-size="25.2" font-family="GIL_____" font-weight="100" text-anchor="start" dominant-baseline="central" x="710.1" y="1100" transform="translate(690,1100) rotate(0) translate(-690,-1100)">MATARA</text>
  </g>
  <g>
    <text fill="black" stroke="none" font-size="25.2" font-family="GIL_____" font-weight="100" text-anchor="end" dominant-baseline="central" x="669.9" y="200" transform="translate(690,200) rotate(0) translate(-690,-200)">KURUNEGALA</text>
  </g>
  <g>
    <text fill="black" stroke="none" font-size="25.2" font-family="GIL_____" font-weight="100" text-anchor="start" dominant-baseline="central" x="629.1" y="527" transform="translate(609,527) rotate(0) translate(-609,-527)">Yatiyantota</text>
  </g>
  <g>
    <circle r="10" fill="white" stroke="black" stroke-width="2.5" cx="281" cy="609"/>
    <text fill="black" stroke="none" font-size="21.599999999999998" font-family="GIL_____" font-weight="100" text-anchor="end" dominant-baseline="central" x="262.7" y="609" transform="translate(281,609) rotate(0) translate(-281,-609)">COLOMBO Fort</text>
  </g>
  <g>
    <circle r="10" fill="white" stroke="black" stroke-width="2.5" cx="363" cy="527"/>
    <text fill="black" stroke="none" font-size="21.599999999999998" font-family="GIL_____" font-weight="100" text-anchor="start" dominant-baseline="central" x="381.3" y="527" transform="translate(363,527) rotate(0) translate(-363,-527)">Maradana</text>
  </g>
  <g>
    <circle r="10" fill="white" stroke="black" stroke-width="2.5" cx="690" cy="281"/>
    <text fill="black" stroke="none" font-size="21.599999999999998" font-family="GIL_____" font-weight="100" text-anchor="start" dominant-baseline="central" x="708.3" y="281" transform="translate(690,281) rotate(-45) translate(-690,-281)">Polgahawela</text>
  </g>
  <g>
    <circle r="10" fill="white" stroke="black" stroke-width="2.5" cx="772" cy="281"/>
    <text fill="black" stroke="none" font-size="21.599999999999998" font-family="GIL_____" font-weight="100" text-anchor="start" dominant-baseline="central" x="790.3" y="281" transform="translate(772,281) rotate(0) translate(-772,-281)">Peradeniya</text>
  </g>
  <g>
    <text fill="black" stroke="none" font-size="19.8" font-family="GIL_____" font-weight="100" text-anchor="start" dominant-baseline="central" x="544.4" y="363" transform="translate(527,363) rotate(0) translate(-527,-363)">GAMPAHA</text>
  </g>
  <g>
    <text fill="black" stroke="none" font-size="19.8" font-family="GIL_____" font-weight="100" text-anchor="start" dominant-baseline="central" x="871.4" y="200" transform="translate(854,200) rotate(-45) translate(-854,-200)">KANDY</text>
  </g>
  <g>
    <text fill="black" stroke="none" font-size="19.8" font-family="GIL_____" font-weight="100" text-anchor="end" dominant-baseline="central" x="591.6" y="1100" transform="translate(609,1100) rotate(0) translate(-609,-1100)">GALLE</text>
  </g>
  <g>
    <text fill="black" stroke="none" font-size="18" font-family="GIL_____" font-weight="100" text-anchor="start" dominant-baseline="central" x="461.5" y="445" transform="translate(445,445) rotate(0) translate(-445,-445)">Ragama</text>
  </g>
  <g>
    <text fill="black" stroke="none" font-size="18" font-family="GIL_____" font-weight="100" text-anchor="end" dominant-baseline="central" x="592.5" y="281" transform="translate(609,281) rotate(0) translate(-609,-281)">Ambepussa</text>
  </g>
  <g>
    <text fill="black" stroke="none" font-size="18" font-family="GIL_____" font-weight="100" text-anchor="start" dominant-baseline="central" x="870.5" y="363" transform="translate(854,363) rotate(0) translate(-854,-363)">Nawalapitiya</text>
  </g>
  <g>
    <text fill="black" stroke="none" font-size="18" font-family="GIL_____" font-weight="100" text-anchor="end" dominant-baseline="central" x="919.5" y="445" transform="translate(936,445) rotate(0) translate(-936,-445)">Nanu Oya</text>
  </g>
  <g>
    <text fill="black" stroke="none" font-size="18" font-family="GIL_____" font-weight="100" text-anchor="start" dominant-baseline="central" x="297.5" y="690" transform="translate(281,690) rotate(0) translate(-281,-690)">Panadura</text>
  </g>
  <g>
    <text fill="black" stroke="none" font-size="18" font-family="GIL_____" font-weight="100" text-anchor="start" dominant-baseline="central" x="297.5" y="772" transform="translate(281,772) rotate(0) translate(-281,-772)">KALUTARA North</text>
  </g>
  <g>
    <text fill="black" stroke="none" font-size="18" font-family="GIL_____" font-weight="100" text-anchor="start" dominant-baseline="central" x="379.5" y="854" transform="translate(363,854) rotate(0) translate(-363,-854)">Aluthgama</text>
  </g>
  <g>
    <text fill="black" stroke="none" font-size="18" font-family="GIL_____" font-weight="100" text-anchor="start" dominant-baseline="central" x="461.5" y="936" transform="translate(445,936) rotate(0) translate(-445,-936)">Kosgoda</text>
  </g>
  <g>
    <text fill="black" stroke="none" font-size="18" font-family="GIL_____" font-weight="100" text-anchor="start" dominant-baseline="central" x="543.5" y="1018" transform="translate(527,1018) rotate(0) translate(-527,-1018)">Ambalangoda</text>
  </g>
  <g>
    <text fill="black" stroke="none" font-size="18" font-family="GIL_____" font-weight="100" text-anchor="start" dominant-baseline="central" x="461.5" y="609" transform="translate(445,609) rotate(-315) translate(-445,-609)">Homagama</text>
  </g>
  <g>
    <text fill="black" stroke="none" font-size="18" font-family="GIL_____" font-weight="100" text-anchor="start" dominant-baseline="central" x="543.5" y="609" transform="translate(527,609) rotate(0) translate(-527,-609)">Avissawella</text>
  </g>
</svg>
