<?xml version="1.0" ?>
<svg xmlns="http://www.w3.org/2000/svg" width="3600" height="3600" padding="480">
  <text fill="#fcfcfc" stroke="none" font-size="600.0" font-family="p22" x="1800.0" y="1800.0" text-anchor="middle" dominant-baseline="center">@nuuuwan</text>
  <text fill="black" stroke="none" font-size="160" font-family="p22" x="1800.0" y="240.0" text-anchor="middle" dominant-baseline="hanging">1902</text>
  <text fill="gray" stroke="none" font-size="40" font-family="p22" x="1800.0" y="290.0" text-anchor="middle" dominant-baseline="hanging"/>
  <text fill="gray" stroke="none" font-size="40" font-family="p22" x="1800.0" y="3400.0" text-anchor="middle" dominant-baseline="text-top">data from multiple sources ~ music by @bensound ~ visualization by @nuuuwan</text>
  <g>
    <path fill="none" stroke-width="29.400000000000002" stroke-opacity="1" d="M 1108.0,2365.0 L 1227.7,2246.25 C 1229.8,2244.1666666666665 1238.1833665337329,2235.8166334662674 1240.2750498005992,2233.7249501994006 L 1354.01375249003,2119.98624750997 C 1356.0091683266867,2117.9908316733136 1363.9749003993286,2109.993300397477 1365.9623505989928,2107.9899505962153 L 1480.5630105905198,1992.4724853247562 C 1482.0420070603464,1990.9816568831707 1489.2,1988.0 1491.3,1988.0 L 1611.0,1988.0 L 1730.7,1988.0 C 1732.8,1988.0 1739.9579929396536,1990.9816568831707 1741.4369894094802,1992.4724853247562 L 1855.971849470474,2107.9236242662378 C 1857.981232980316,2109.9490828441585 1866.0348741096836,2118.0348741096836 1868.0523111645255,2120.0523111645252 L 1982.0026155582264,2234.0026155582264 C 1984.0017437054842,2236.0017437054844 1992.0141537447312,2243.982295381678 1994.0212306170968,2245.9734430725166 L 2108.0010615308547,2359.048672153626 C 2110.0007076872366,2361.032448102417 2117.9834537190072,2368.9834537190072 2119.9751805785104,2370.9751805785104 L 2235.5805826175842,2486.5805826175842 C 2237.053721745056,2488.053721745056 2244.1666666666665,2491.0 2246.25,2491.0 L 2365.0,2491.0 L 2491.0,2491.0" stroke="red"/>
    <rect stroke="none" fill-opacity="1" x="2477" y="2463" width="28" height="56" fill="red"/>
  </g>
  <g>
    <path fill="none" stroke-width="29.400000000000002" stroke-opacity="1" d="M 1737.0,1988.0 L 1857.5630105905198,1866.4724853247562 C 1859.0420070603464,1864.9816568831707 1866.2,1862.0 1868.3,1862.0 L 1988.0,1862.0" stroke="purple"/>
    <rect stroke="none" fill-opacity="1" x="1974" y="1834" width="28" height="56" fill="purple"/>
  </g>
  <g>
    <path fill="none" stroke-width="29.400000000000002" stroke-opacity="1" d="M 1108.0,2365.0 L 1108.0,2491.0 L 1108.0,2617.0 L 1108.0,2735.75 C 1108.0,2737.8333333333335 1110.946278254944,2744.946278254944 1112.419417382416,2746.4194173824158 L 1234.0,2868.0 L 1353.7249501994008,2987.7249501994006 C 1355.8166334662671,2989.8166334662674 1364.1666666666667,2998.2 1366.25,3000.3 L 1480.5630105905198,3115.5275146752438 C 1482.0420070603464,3117.0183431168293 1489.2,3120.0 1491.3,3120.0 L 1611.0,3120.0 L 1737.0,3120.0" stroke="cyan"/>
    <rect stroke="none" fill-opacity="1" x="1723" y="3092" width="28" height="56" fill="cyan"/>
  </g>
  <g>
    <path fill="none" stroke-width="29.400000000000002" stroke-opacity="1" d="M 1611.0,1988.0 L 1611.0,1862.0 L 1611.0,1737.0" stroke="orange"/>
    <rect stroke="none" fill-opacity="1" x="1583" y="1723" width="56" height="28" fill="orange"/>
  </g>
  <g>
    <path fill="none" stroke-width="29.400000000000002" stroke-opacity="1" d="M 1108.0,2365.0 L 1229.5452272785249,2486.5452272785246 C 1231.0301515190165,2488.0301515190167 1238.2,2491.0 1240.3,2491.0 L 1360.0,2491.0" stroke="darkblue"/>
    <rect stroke="none" fill-opacity="1" x="1346" y="2463" width="28" height="56" fill="darkblue"/>
  </g>
  <g>
    <path fill="none" stroke-width="29.400000000000002" stroke-opacity="1" d="M 1611.0,731.0 L 1489.419417382416,609.4194173824159 C 1487.946278254944,607.946278254944 1485.0,600.8333333333334 1485.0,598.75 L 1485.0,480.0" stroke="orange"/>
    <rect stroke="none" fill-opacity="1" x="1457" y="466" width="56" height="28" fill="orange"/>
  </g>
  <g>
    <text fill="black" stroke="none" font-size="56.0" font-family="p22" font-weight="100" text-anchor="start" dominant-baseline="central" x="2540.0" y="2491" transform="translate(2491,2491) rotate(0) translate(-2491,-2491)">Bandarawela</text>
  </g>
  <g>
    <text fill="black" stroke="none" font-size="56.0" font-family="p22" font-weight="100" text-anchor="start" dominant-baseline="central" x="2037.0" y="1862" transform="translate(1988,1862) rotate(0) translate(-1988,-1862)">Matale</text>
  </g>
  <g>
    <text fill="black" stroke="none" font-size="56.0" font-family="p22" font-weight="100" text-anchor="start" dominant-baseline="central" x="1786.0" y="3120" transform="translate(1737,3120) rotate(0) translate(-1737,-3120)">Matara</text>
  </g>
  <g>
    <text fill="black" stroke="none" font-size="56.0" font-family="p22" font-weight="100" text-anchor="start" dominant-baseline="central" x="1660.0" y="1737" transform="translate(1611,1737) rotate(0) translate(-1611,-1737)">Maho</text>
  </g>
  <g>
    <text fill="black" stroke="none" font-size="56.0" font-family="p22" font-weight="100" text-anchor="start" dominant-baseline="central" x="1409.0" y="2491" transform="translate(1360,2491) rotate(0) translate(-1360,-2491)">Avissawella</text>
  </g>
  <g>
    <text fill="black" stroke="none" font-size="56.0" font-family="p22" font-weight="100" text-anchor="start" dominant-baseline="central" x="1660.0" y="731" transform="translate(1611,731) rotate(0) translate(-1611,-731)">Pallai</text>
  </g>
  <g>
    <text fill="black" stroke="none" font-size="56.0" font-family="p22" font-weight="100" text-anchor="start" dominant-baseline="central" x="1534.0" y="480" transform="translate(1485,480) rotate(0) translate(-1485,-480)">Kankesanthurai</text>
  </g>
  <g>
    <circle r="28" fill="white" stroke="black" stroke-width="7.0" cx="1108" cy="2365"/>
    <text fill="black" stroke="none" font-size="48.0" font-family="p22" font-weight="100" text-anchor="start" dominant-baseline="central" x="1153.0" y="2365" transform="translate(1108,2365) rotate(0) translate(-1108,-2365)">C. Terminus</text>
  </g>
  <g>
    <circle r="28" fill="white" stroke="black" stroke-width="7.0" cx="1611" cy="1988"/>
    <text fill="black" stroke="none" font-size="48.0" font-family="p22" font-weight="100" text-anchor="start" dominant-baseline="central" x="1656.0" y="1988" transform="translate(1611,1988) rotate(-45) translate(-1611,-1988)">Polgahawela</text>
  </g>
  <g>
    <circle r="28" fill="white" stroke="black" stroke-width="7.0" cx="1737" cy="1988"/>
    <text fill="black" stroke="none" font-size="48.0" font-family="p22" font-weight="100" text-anchor="start" dominant-baseline="central" x="1782.0" y="1988" transform="translate(1737,1988) rotate(0) translate(-1737,-1988)">Peradeniya</text>
  </g>
  <g>
    <text fill="gray" stroke="none" font-size="44.0" font-family="p22" font-weight="100" text-anchor="start" dominant-baseline="central" x="1403.0" y="2114" transform="translate(1360,2114) rotate(0) translate(-1360,-2114)">Gampaha</text>
  </g>
  <g>
    <text fill="gray" stroke="none" font-size="44.0" font-family="p22" font-weight="100" text-anchor="start" dominant-baseline="central" x="1905.0" y="1862" transform="translate(1862,1862) rotate(-45) translate(-1862,-1862)">Kandy</text>
  </g>
  <g>
    <text fill="gray" stroke="none" font-size="44.0" font-family="p22" font-weight="100" text-anchor="start" dominant-baseline="central" x="1654.0" y="3120" transform="translate(1611,3120) rotate(-45) translate(-1611,-3120)">Galle</text>
  </g>
  <g>
    <text fill="gray" stroke="none" font-size="44.0" font-family="p22" font-weight="100" text-anchor="end" dominant-baseline="central" x="1568.0" y="1862" transform="translate(1611,1862) rotate(0) translate(-1611,-1862)">Kurunegala</text>
  </g>
  <g>
    <text fill="gray" stroke="none" font-size="44.0" font-family="p22" font-weight="100" text-anchor="start" dominant-baseline="central" x="1528.0" y="605" transform="translate(1485,605) rotate(0) translate(-1485,-605)">Jaffna</text>
  </g>
  <g>
    <text fill="gray" stroke="none" font-size="40" font-family="p22" font-weight="100" text-anchor="start" dominant-baseline="central" x="1275.0" y="2240" transform="translate(1234,2240) rotate(0) translate(-1234,-2240)">Ragama</text>
  </g>
  <g>
    <text fill="gray" stroke="none" font-size="40" font-family="p22" font-weight="100" text-anchor="end" dominant-baseline="central" x="1444.0" y="1988" transform="translate(1485,1988) rotate(0) translate(-1485,-1988)">Ambepussa</text>
  </g>
  <g>
    <text fill="gray" stroke="none" font-size="40" font-family="p22" font-weight="100" text-anchor="start" dominant-baseline="central" x="1903.0" y="2114" transform="translate(1862,2114) rotate(0) translate(-1862,-2114)">Gampola</text>
  </g>
  <g>
    <text fill="gray" stroke="none" font-size="40" font-family="p22" font-weight="100" text-anchor="start" dominant-baseline="central" x="2029.0" y="2240" transform="translate(1988,2240) rotate(0) translate(-1988,-2240)">Nawalapitiya</text>
  </g>
  <g>
    <text fill="gray" stroke="none" font-size="40" font-family="p22" font-weight="100" text-anchor="start" dominant-baseline="central" x="2155.0" y="2365" transform="translate(2114,2365) rotate(0) translate(-2114,-2365)">Talawakele</text>
  </g>
  <g>
    <text fill="gray" stroke="none" font-size="40" font-family="p22" font-weight="100" text-anchor="end" dominant-baseline="central" x="2199.0" y="2491" transform="translate(2240,2491) rotate(0) translate(-2240,-2491)">Nanu Oya</text>
  </g>
  <g>
    <text fill="gray" stroke="none" font-size="40" font-family="p22" font-weight="100" text-anchor="start" dominant-baseline="central" x="2406.0" y="2491" transform="translate(2365,2491) rotate(-45) translate(-2365,-2491)">Haputale</text>
  </g>
  <g>
    <text fill="gray" stroke="none" font-size="40" font-family="p22" font-weight="100" text-anchor="end" dominant-baseline="central" x="1067.0" y="2491" transform="translate(1108,2491) rotate(0) translate(-1108,-2491)">Panadura</text>
  </g>
  <g>
    <text fill="gray" stroke="none" font-size="40" font-family="p22" font-weight="100" text-anchor="start" dominant-baseline="central" x="1149.0" y="2617" transform="translate(1108,2617) rotate(0) translate(-1108,-2617)">Kalutara N.</text>
  </g>
  <g>
    <text fill="gray" stroke="none" font-size="40" font-family="p22" font-weight="100" text-anchor="start" dominant-baseline="central" x="1149.0" y="2742" transform="translate(1108,2742) rotate(0) translate(-1108,-2742)">Wadduwa</text>
  </g>
  <g>
    <text fill="gray" stroke="none" font-size="40" font-family="p22" font-weight="100" text-anchor="start" dominant-baseline="central" x="1275.0" y="2868" transform="translate(1234,2868) rotate(0) translate(-1234,-2868)">Aluthgama</text>
  </g>
  <g>
    <text fill="gray" stroke="none" font-size="40" font-family="p22" font-weight="100" text-anchor="start" dominant-baseline="central" x="1401.0" y="2994" transform="translate(1360,2994) rotate(0) translate(-1360,-2994)">Kosgoda</text>
  </g>
  <g>
    <text fill="gray" stroke="none" font-size="40" font-family="p22" font-weight="100" text-anchor="end" dominant-baseline="central" x="1444.0" y="3120" transform="translate(1485,3120) rotate(0) translate(-1485,-3120)">Ambalangoda</text>
  </g>
  <g>
    <text fill="gray" stroke="none" font-size="40" font-family="p22" font-weight="100" text-anchor="start" dominant-baseline="central" x="1275.0" y="2491" transform="translate(1234,2491) rotate(-45) translate(-1234,-2491)">Homagama</text>
  </g>
</svg>
