<?xml version="1.0" ?>
<svg xmlns="http://www.w3.org/2000/svg" width="3600" height="3600" padding="720">
  <text fill="#fcfcfc" stroke="none" font-size="600.0" font-family="p22" x="1800.0" y="1800.0" text-anchor="middle" dominant-baseline="center">@nuuuwan</text>
  <text fill="black" stroke="none" font-size="160" font-family="p22" x="1800.0" y="360.0" text-anchor="middle" dominant-baseline="hanging">1903</text>
  <text fill="gray" stroke="none" font-size="40" font-family="p22" x="1800.0" y="410.0" text-anchor="middle" dominant-baseline="hanging"/>
  <text fill="gray" stroke="none" font-size="40" font-family="p22" x="1800.0" y="3280.0" text-anchor="middle" dominant-baseline="text-top">data from multiple sources ~ music by @bensound ~ visualization by @nuuuwan</text>
  <g>
    <path fill="none" stroke-width="29.400000000000002" stroke-opacity="1" d="M 1234.0,2262.0 L 1331.85,2165.1 C 1333.5666666666666,2163.4 1340.4167073168314,2156.5832926831686 1342.125060975247,2154.874939024753 L 1435.1062530487623,2061.8937469512375 C 1436.7375020325082,2060.262497967492 1443.2465447171398,2053.7216264130843 1444.8698170757098,2052.0824396196263 L 1538.376207093425,1957.659320288012 C 1539.5841380622833,1956.4395468586747 1545.4333333333334,1954.0 1547.15,1954.0 L 1645.0,1954.0 L 1742.85,1954.0 C 1744.5666666666666,1954.0 1750.4277332820739,1956.4277332820739 1751.6415999231108,1957.6415999231108 L 1851.0,2057.0 L 1948.874939024753,2154.874939024753 C 1950.5832926831686,2156.5832926831686 1957.4333333333334,2163.4 1959.15,2165.1 L 2052.1075,2257.155 C 2053.7383333333332,2258.77 2060.2458719509896,2265.2458719509896 2061.868807926485,2266.868807926485 L 2156.393755415949,2361.393755415949 C 2157.595836943966,2362.595836943966 2163.4,2365.0 2165.1,2365.0 L 2262.0,2365.0 L 2365.0,2365.0" stroke="red"/>
    <rect stroke="none" fill-opacity="1" x="2351" y="2337" width="28" height="56" fill="red"/>
  </g>
  <g>
    <path fill="none" stroke-width="29.400000000000002" stroke-opacity="1" d="M 1748.0,1954.0 L 1847.3584000768892,1854.6415999231108 C 1848.5722667179261,1853.4277332820739 1854.4333333333334,1851.0 1856.15,1851.0 L 1954.0,1851.0" stroke="purple"/>
    <rect stroke="none" fill-opacity="1" x="1940" y="1823" width="28" height="56" fill="purple"/>
  </g>
  <g>
    <path fill="none" stroke-width="29.400000000000002" stroke-opacity="1" d="M 1234.0,2262.0 L 1234.0,2365.0 L 1234.0,2468.0 L 1234.0,2565.85 C 1234.0,2567.5666666666666 1236.4277332820739,2573.427733282074 1237.6415999231108,2574.641599923111 L 1337.0,2674.0 L 1434.874939024753,2771.874939024753 C 1436.5832926831686,2773.5832926831686 1443.4,2780.4333333333334 1445.1,2782.15 L 1538.376207093425,2876.340679711988 C 1539.5841380622833,2877.5604531413255 1545.4333333333334,2880.0 1547.15,2880.0 L 1645.0,2880.0 L 1748.0,2880.0" stroke="cyan"/>
    <rect stroke="none" fill-opacity="1" x="1734" y="2852" width="28" height="56" fill="cyan"/>
  </g>
  <g>
    <path fill="none" stroke-width="29.400000000000002" stroke-opacity="1" d="M 1645.0,1954.0 L 1645.0,1851.0 L 1645.0,1748.0" stroke="orange"/>
    <rect stroke="none" fill-opacity="1" x="1617" y="1734" width="56" height="28" fill="orange"/>
  </g>
  <g>
    <path fill="none" stroke-width="29.400000000000002" stroke-opacity="1" d="M 1234.0,2262.0 L 1333.3584000768892,2361.358400076889 C 1334.5722667179261,2362.572266717926 1340.4333333333334,2365.0 1342.15,2365.0 L 1435.1075,2365.0 C 1436.7383333333332,2365.0 1442.295068840831,2362.682430484259 1443.4426032612462,2361.5236457263886 L 1542.0,2262.0" stroke="darkblue"/>
    <rect stroke="none" fill-opacity="1" x="1528" y="2234" width="28" height="56" fill="darkblue"/>
  </g>
  <g>
    <path fill="none" stroke-width="29.400000000000002" stroke-opacity="1" d="M 1645.0,925.0 L 1545.6062445840514,825.6062445840514 C 1544.4041630560343,824.4041630560342 1542.0,818.6 1542.0,816.9 L 1542.0,720.0" stroke="orange"/>
    <rect stroke="none" fill-opacity="1" x="1514" y="706" width="56" height="28" fill="orange"/>
  </g>
  <g>
    <path fill="none" stroke-width="29.400000000000002" stroke-opacity="1" d="M 2160.0,2365.0 L 2160.0,2267.15 C 2160.0,2265.4333333333334 2162.427733282074,2259.572266717926 2163.641599923111,2258.358400076889 L 2262.0,2160.0" stroke="gray"/>
    <rect stroke="none" fill-opacity="1" x="2248" y="2132" width="28" height="56" fill="gray"/>
  </g>
  <g>
    <text fill="black" stroke="none" font-size="56.0" font-family="p22" font-weight="100" text-anchor="start" dominant-baseline="central" x="2414.0" y="2365" transform="translate(2365,2365) rotate(0) translate(-2365,-2365)">Bandarawela</text>
  </g>
  <g>
    <text fill="black" stroke="none" font-size="56.0" font-family="p22" font-weight="100" text-anchor="start" dominant-baseline="central" x="2003.0" y="1851" transform="translate(1954,1851) rotate(0) translate(-1954,-1851)">Matale</text>
  </g>
  <g>
    <text fill="black" stroke="none" font-size="56.0" font-family="p22" font-weight="100" text-anchor="start" dominant-baseline="central" x="1797.0" y="2880" transform="translate(1748,2880) rotate(0) translate(-1748,-2880)">Matara</text>
  </g>
  <g>
    <text fill="black" stroke="none" font-size="56.0" font-family="p22" font-weight="100" text-anchor="start" dominant-baseline="central" x="1694.0" y="1748" transform="translate(1645,1748) rotate(0) translate(-1645,-1748)">Maho</text>
  </g>
  <g>
    <text fill="black" stroke="none" font-size="56.0" font-family="p22" font-weight="100" text-anchor="start" dominant-baseline="central" x="1591.0" y="2262" transform="translate(1542,2262) rotate(0) translate(-1542,-2262)">Yatiyantota</text>
  </g>
  <g>
    <text fill="black" stroke="none" font-size="56.0" font-family="p22" font-weight="100" text-anchor="start" dominant-baseline="central" x="1694.0" y="925" transform="translate(1645,925) rotate(0) translate(-1645,-925)">Pallai</text>
  </g>
  <g>
    <text fill="black" stroke="none" font-size="56.0" font-family="p22" font-weight="100" text-anchor="start" dominant-baseline="central" x="1591.0" y="720" transform="translate(1542,720) rotate(0) translate(-1542,-720)">Kankesanthurai</text>
  </g>
  <g>
    <text fill="black" stroke="none" font-size="56.0" font-family="p22" font-weight="100" text-anchor="start" dominant-baseline="central" x="2311.0" y="2160" transform="translate(2262,2160) rotate(0) translate(-2262,-2160)">Kandapola</text>
  </g>
  <g>
    <circle r="28" fill="white" stroke="black" stroke-width="7.0" cx="1234" cy="2262"/>
    <text fill="black" stroke="none" font-size="48.0" font-family="p22" font-weight="100" text-anchor="start" dominant-baseline="central" x="1279.0" y="2262" transform="translate(1234,2262) rotate(0) translate(-1234,-2262)">C. Terminus</text>
  </g>
  <g>
    <circle r="28" fill="white" stroke="black" stroke-width="7.0" cx="1645" cy="1954"/>
    <text fill="black" stroke="none" font-size="48.0" font-family="p22" font-weight="100" text-anchor="start" dominant-baseline="central" x="1690.0" y="1954" transform="translate(1645,1954) rotate(-45) translate(-1645,-1954)">Polgahawela</text>
  </g>
  <g>
    <circle r="28" fill="white" stroke="black" stroke-width="7.0" cx="1748" cy="1954"/>
    <text fill="black" stroke="none" font-size="48.0" font-family="p22" font-weight="100" text-anchor="start" dominant-baseline="central" x="1793.0" y="1954" transform="translate(1748,1954) rotate(0) translate(-1748,-1954)">Peradeniya</text>
  </g>
  <g>
    <circle r="28" fill="white" stroke="black" stroke-width="7.0" cx="2160" cy="2365"/>
    <text fill="black" stroke="none" font-size="48.0" font-family="p22" font-weight="100" text-anchor="end" dominant-baseline="central" x="2115.0" y="2365" transform="translate(2160,2365) rotate(0) translate(-2160,-2365)">Nanu Oya</text>
  </g>
  <g>
    <text fill="gray" stroke="none" font-size="44.0" font-family="p22" font-weight="100" text-anchor="start" dominant-baseline="central" x="1483.0" y="2057" transform="translate(1440,2057) rotate(0) translate(-1440,-2057)">Gampaha</text>
  </g>
  <g>
    <text fill="gray" stroke="none" font-size="44.0" font-family="p22" font-weight="100" text-anchor="start" dominant-baseline="central" x="1894.0" y="1851" transform="translate(1851,1851) rotate(-45) translate(-1851,-1851)">Kandy</text>
  </g>
  <g>
    <text fill="gray" stroke="none" font-size="44.0" font-family="p22" font-weight="100" text-anchor="start" dominant-baseline="central" x="1688.0" y="2880" transform="translate(1645,2880) rotate(-45) translate(-1645,-2880)">Galle</text>
  </g>
  <g>
    <text fill="gray" stroke="none" font-size="44.0" font-family="p22" font-weight="100" text-anchor="end" dominant-baseline="central" x="1602.0" y="1851" transform="translate(1645,1851) rotate(0) translate(-1645,-1851)">Kurunegala</text>
  </g>
  <g>
    <text fill="gray" stroke="none" font-size="44.0" font-family="p22" font-weight="100" text-anchor="start" dominant-baseline="central" x="1585.0" y="822" transform="translate(1542,822) rotate(0) translate(-1542,-822)">Jaffna</text>
  </g>
  <g>
    <text fill="gray" stroke="none" font-size="44.0" font-family="p22" font-weight="100" text-anchor="start" dominant-baseline="central" x="2203.0" y="2262" transform="translate(2160,2262) rotate(0) translate(-2160,-2262)">Nuwara Eliya</text>
  </g>
  <g>
    <text fill="gray" stroke="none" font-size="40" font-family="p22" font-weight="100" text-anchor="start" dominant-baseline="central" x="1378.0" y="2160" transform="translate(1337,2160) rotate(0) translate(-1337,-2160)">Ragama</text>
  </g>
  <g>
    <text fill="gray" stroke="none" font-size="40" font-family="p22" font-weight="100" text-anchor="end" dominant-baseline="central" x="1501.0" y="1954" transform="translate(1542,1954) rotate(0) translate(-1542,-1954)">Ambepussa</text>
  </g>
  <g>
    <text fill="gray" stroke="none" font-size="40" font-family="p22" font-weight="100" text-anchor="start" dominant-baseline="central" x="1892.0" y="2057" transform="translate(1851,2057) rotate(0) translate(-1851,-2057)">Gampola</text>
  </g>
  <g>
    <text fill="gray" stroke="none" font-size="40" font-family="p22" font-weight="100" text-anchor="start" dominant-baseline="central" x="1995.0" y="2160" transform="translate(1954,2160) rotate(0) translate(-1954,-2160)">Nawalapitiya</text>
  </g>
  <g>
    <text fill="gray" stroke="none" font-size="40" font-family="p22" font-weight="100" text-anchor="end" dominant-baseline="central" x="2016.0" y="2262" transform="translate(2057,2262) rotate(0) translate(-2057,-2262)">Talawakele</text>
  </g>
  <g>
    <text fill="gray" stroke="none" font-size="40" font-family="p22" font-weight="100" text-anchor="start" dominant-baseline="central" x="2303.0" y="2365" transform="translate(2262,2365) rotate(-45) translate(-2262,-2365)">Haputale</text>
  </g>
  <g>
    <text fill="gray" stroke="none" font-size="40" font-family="p22" font-weight="100" text-anchor="end" dominant-baseline="central" x="1193.0" y="2365" transform="translate(1234,2365) rotate(0) translate(-1234,-2365)">Panadura</text>
  </g>
  <g>
    <text fill="gray" stroke="none" font-size="40" font-family="p22" font-weight="100" text-anchor="start" dominant-baseline="central" x="1275.0" y="2468" transform="translate(1234,2468) rotate(0) translate(-1234,-2468)">Kalutara N.</text>
  </g>
  <g>
    <text fill="gray" stroke="none" font-size="40" font-family="p22" font-weight="100" text-anchor="start" dominant-baseline="central" x="1275.0" y="2571" transform="translate(1234,2571) rotate(0) translate(-1234,-2571)">Wadduwa</text>
  </g>
  <g>
    <text fill="gray" stroke="none" font-size="40" font-family="p22" font-weight="100" text-anchor="start" dominant-baseline="central" x="1378.0" y="2674" transform="translate(1337,2674) rotate(0) translate(-1337,-2674)">Aluthgama</text>
  </g>
  <g>
    <text fill="gray" stroke="none" font-size="40" font-family="p22" font-weight="100" text-anchor="start" dominant-baseline="central" x="1481.0" y="2777" transform="translate(1440,2777) rotate(0) translate(-1440,-2777)">Kosgoda</text>
  </g>
  <g>
    <text fill="gray" stroke="none" font-size="40" font-family="p22" font-weight="100" text-anchor="end" dominant-baseline="central" x="1501.0" y="2880" transform="translate(1542,2880) rotate(0) translate(-1542,-2880)">Ambalangoda</text>
  </g>
  <g>
    <text fill="gray" stroke="none" font-size="40" font-family="p22" font-weight="100" text-anchor="start" dominant-baseline="central" x="1378.0" y="2365" transform="translate(1337,2365) rotate(-45) translate(-1337,-2365)">Homagama</text>
  </g>
  <g>
    <text fill="gray" stroke="none" font-size="40" font-family="p22" font-weight="100" text-anchor="start" dominant-baseline="central" x="1481.0" y="2365" transform="translate(1440,2365) rotate(0) translate(-1440,-2365)">Avissawella</text>
  </g>
</svg>
