<?xml version="1.0" ?>
<svg xmlns="http://www.w3.org/2000/svg" width="1320" height="1320" padding="148">
  <text fill="gray" stroke="none" font-size="72" font-family="GIL_____" x="660.0" y="92.0" text-anchor="middle" dominant-baseline="hanging">1904</text>
  <text fill="gray" stroke="none" font-size="18" font-family="GIL_____" x="660.0" y="1264.0" text-anchor="middle" dominant-baseline="text-top">History of the Railways in Sri Lanka</text>
  <g>
    <path fill="none" stroke-width="10.5" stroke-opacity="1" d="M 233.0,745.0 L 318.0,660.0 L 404.0,574.0 L 489.0,489.0 L 570.9594408408979,407.04055915910214 C 571.9729605605986,406.02703943940145 576.8666666666667,404.0 578.3,404.0 L 660.0,404.0 L 740.75,404.0 C 742.1666666666666,404.0 747.0034692133619,406.0034692133619 748.0052038200429,407.0052038200428 L 825.9002601910022,484.90026019100213 C 827.2668401273347,486.2668401273348 832.7490962565731,491.71713002103155 834.1236443848596,493.0756950315473 L 912.9772735746108,571.0124215563013 C 913.9848490497404,572.0082810375342 918.8333333333334,574.0 920.25,574.0 L 1001.0,574.0" stroke="red"/>
    <rect stroke="none" fill-opacity="1" x="996" y="564" width="10" height="20" fill="red"/>
  </g>
  <g>
    <path fill="none" stroke-width="10.5" stroke-opacity="1" d="M 745.0,404.0 L 826.9772735746108,321.05828791274683 C 827.9848490497404,320.0388586084979 832.8666666666667,318.0 834.3,318.0 L 916.0,318.0" stroke="purple"/>
    <rect stroke="none" fill-opacity="1" x="911" y="308" width="10" height="20" fill="purple"/>
  </g>
  <g>
    <path fill="none" stroke-width="10.5" stroke-opacity="1" d="M 233.0,745.0 L 233.0,830.0 L 233.0,911.7 C 233.0,913.1333333333333 235.02703943940145,918.0270394394014 236.04055915910214,919.0405591591021 L 313.9020279579551,996.902027957955 C 315.26801863863676,998.2680186386367 320.74791087366117,1003.7159584216419 322.1218663104917,1005.0739376324627 L 399.9060933155246,1081.953696881623 C 401.2707288770164,1083.3024645877488 406.6975354122512,1088.7292711229836 408.04630311837684,1090.0939066844753 L 486.01242155630126,1168.9772735746108 C 487.0082810375342,1169.9848490497404 491.8333333333333,1172.0 493.25,1172.0 L 574.0,1172.0 L 660.0,1172.0" stroke="cyan"/>
    <rect stroke="none" fill-opacity="1" x="655" y="1162" width="10" height="20" fill="cyan"/>
  </g>
  <g>
    <path fill="none" stroke-width="10.5" stroke-opacity="1" d="M 660.0,404.0 L 660.0,318.0 L 660.0,233.0 L 660.0,148.0" stroke="orange"/>
    <rect stroke="none" fill-opacity="1" x="650" y="143" width="20" height="10" fill="orange"/>
  </g>
  <g>
    <path fill="none" stroke-width="10.5" stroke-opacity="1" d="M 318.0,660.0 L 400.9772735746107,742.0124215563013 C 401.9848490497405,743.0082810375342 406.8333333333333,745.0 408.25,745.0 L 484.9625,745.0 C 486.30833333333334,745.0 490.9032957526938,743.0967042473062 491.8549436290407,742.1450563709593 L 574.0,660.0" stroke="darkblue"/>
    <rect stroke="none" fill-opacity="1" x="569" y="650" width="10" height="20" fill="darkblue"/>
  </g>
  <g>
    <path fill="none" stroke-width="10.5" stroke-opacity="1" d="M 916.0,574.0 L 916.0,493.25 C 916.0,491.8333333333333 918.0034692133619,486.9965307866381 919.0052038200429,485.9947961799572 L 997.9947961799571,407.0052038200428 C 998.9965307866381,406.0034692133619 1003.8333333333334,404.0 1005.25,404.0 L 1086.0,404.0" stroke="gray"/>
    <rect stroke="none" fill-opacity="1" x="1081" y="394" width="10" height="20" fill="gray"/>
  </g>
  <g>
    <text fill="black" stroke="none" font-size="25.2" font-family="GIL_____" font-weight="100" text-anchor="start" dominant-baseline="central" x="1021.1" y="574" transform="translate(1001,574) rotate(0) translate(-1001,-574)">Bandarawela</text>
  </g>
  <g>
    <text fill="black" stroke="none" font-size="25.2" font-family="GIL_____" font-weight="100" text-anchor="start" dominant-baseline="central" x="936.1" y="318" transform="translate(916,318) rotate(0) translate(-916,-318)">MATALE</text>
  </g>
  <g>
    <text fill="black" stroke="none" font-size="25.2" font-family="GIL_____" font-weight="100" text-anchor="start" dominant-baseline="central" x="680.1" y="1172" transform="translate(660,1172) rotate(0) translate(-660,-1172)">MATARA</text>
  </g>
  <g>
    <text fill="black" stroke="none" font-size="25.2" font-family="GIL_____" font-weight="100" text-anchor="start" dominant-baseline="central" x="680.1" y="148" transform="translate(660,148) rotate(0) translate(-660,-148)">ANURADHAPURA</text>
  </g>
  <g>
    <text fill="black" stroke="none" font-size="25.2" font-family="GIL_____" font-weight="100" text-anchor="start" dominant-baseline="central" x="594.1" y="660" transform="translate(574,660) rotate(0) translate(-574,-660)">Yatiyantota</text>
  </g>
  <g>
    <text fill="black" stroke="none" font-size="25.2" font-family="GIL_____" font-weight="100" text-anchor="start" dominant-baseline="central" x="1106.1" y="404" transform="translate(1086,404) rotate(0) translate(-1086,-404)">Ragala</text>
  </g>
  <g>
    <circle r="10" fill="white" stroke="black" stroke-width="2.5" cx="233" cy="745"/>
    <text fill="black" stroke="none" font-size="21.599999999999998" font-family="GIL_____" font-weight="100" text-anchor="end" dominant-baseline="central" x="214.7" y="745" transform="translate(233,745) rotate(0) translate(-233,-745)">COLOMBO Fort</text>
  </g>
  <g>
    <circle r="10" fill="white" stroke="black" stroke-width="2.5" cx="318" cy="660"/>
    <text fill="black" stroke="none" font-size="21.599999999999998" font-family="GIL_____" font-weight="100" text-anchor="start" dominant-baseline="central" x="336.3" y="660" transform="translate(318,660) rotate(0) translate(-318,-660)">Maradana</text>
  </g>
  <g>
    <circle r="10" fill="white" stroke="black" stroke-width="2.5" cx="660" cy="404"/>
    <text fill="black" stroke="none" font-size="21.599999999999998" font-family="GIL_____" font-weight="100" text-anchor="start" dominant-baseline="central" x="678.3" y="404" transform="translate(660,404) rotate(-45) translate(-660,-404)">Polgahawela</text>
  </g>
  <g>
    <circle r="10" fill="white" stroke="black" stroke-width="2.5" cx="745" cy="404"/>
    <text fill="black" stroke="none" font-size="21.599999999999998" font-family="GIL_____" font-weight="100" text-anchor="start" dominant-baseline="central" x="763.3" y="404" transform="translate(745,404) rotate(0) translate(-745,-404)">Peradeniya</text>
  </g>
  <g>
    <circle r="10" fill="white" stroke="black" stroke-width="2.5" cx="916" cy="574"/>
    <text fill="black" stroke="none" font-size="21.599999999999998" font-family="GIL_____" font-weight="100" text-anchor="end" dominant-baseline="central" x="897.7" y="574" transform="translate(916,574) rotate(0) translate(-916,-574)">Nanu Oya</text>
  </g>
  <g>
    <text fill="gray" stroke="none" font-size="19.8" font-family="GIL_____" font-weight="100" text-anchor="start" dominant-baseline="central" x="506.4" y="489" transform="translate(489,489) rotate(0) translate(-489,-489)">GAMPAHA</text>
  </g>
  <g>
    <text fill="gray" stroke="none" font-size="19.8" font-family="GIL_____" font-weight="100" text-anchor="start" dominant-baseline="central" x="847.4" y="318" transform="translate(830,318) rotate(-45) translate(-830,-318)">KANDY</text>
  </g>
  <g>
    <text fill="gray" stroke="none" font-size="19.8" font-family="GIL_____" font-weight="100" text-anchor="start" dominant-baseline="central" x="591.4" y="1172" transform="translate(574,1172) rotate(-45) translate(-574,-1172)">GALLE</text>
  </g>
  <g>
    <text fill="gray" stroke="none" font-size="19.8" font-family="GIL_____" font-weight="100" text-anchor="end" dominant-baseline="central" x="642.6" y="318" transform="translate(660,318) rotate(0) translate(-660,-318)">KURUNEGALA</text>
  </g>
  <g>
    <text fill="gray" stroke="none" font-size="19.8" font-family="GIL_____" font-weight="100" text-anchor="start" dominant-baseline="central" x="933.4" y="489" transform="translate(916,489) rotate(0) translate(-916,-489)">NUWARA ELIYA</text>
  </g>
  <g>
    <text fill="gray" stroke="none" font-size="18" font-family="GIL_____" font-weight="100" text-anchor="start" dominant-baseline="central" x="420.5" y="574" transform="translate(404,574) rotate(0) translate(-404,-574)">Ragama</text>
  </g>
  <g>
    <text fill="gray" stroke="none" font-size="18" font-family="GIL_____" font-weight="100" text-anchor="end" dominant-baseline="central" x="557.5" y="404" transform="translate(574,404) rotate(0) translate(-574,-404)">Ambepussa</text>
  </g>
  <g/>
  <g>
    <text fill="gray" stroke="none" font-size="18" font-family="GIL_____" font-weight="100" text-anchor="start" dominant-baseline="central" x="249.5" y="830" transform="translate(233,830) rotate(0) translate(-233,-830)">Panadura</text>
  </g>
  <g>
    <text fill="gray" stroke="none" font-size="18" font-family="GIL_____" font-weight="100" text-anchor="start" dominant-baseline="central" x="249.5" y="916" transform="translate(233,916) rotate(0) translate(-233,-916)">KALUTARA North</text>
  </g>
  <g>
    <text fill="gray" stroke="none" font-size="18" font-family="GIL_____" font-weight="100" text-anchor="start" dominant-baseline="central" x="334.5" y="1001" transform="translate(318,1001) rotate(0) translate(-318,-1001)">Aluthgama</text>
  </g>
  <g>
    <text fill="gray" stroke="none" font-size="18" font-family="GIL_____" font-weight="100" text-anchor="start" dominant-baseline="central" x="420.5" y="1086" transform="translate(404,1086) rotate(0) translate(-404,-1086)">Kosgoda</text>
  </g>
  <g>
    <text fill="gray" stroke="none" font-size="18" font-family="GIL_____" font-weight="100" text-anchor="end" dominant-baseline="central" x="472.5" y="1172" transform="translate(489,1172) rotate(0) translate(-489,-1172)">Ambalangoda</text>
  </g>
  <g>
    <text fill="gray" stroke="none" font-size="18" font-family="GIL_____" font-weight="100" text-anchor="end" dominant-baseline="central" x="643.5" y="233" transform="translate(660,233) rotate(0) translate(-660,-233)">Maho</text>
  </g>
  <g>
    <text fill="gray" stroke="none" font-size="18" font-family="GIL_____" font-weight="100" text-anchor="start" dominant-baseline="central" x="420.5" y="745" transform="translate(404,745) rotate(-315) translate(-404,-745)">Homagama</text>
  </g>
  <g>
    <text fill="gray" stroke="none" font-size="18" font-family="GIL_____" font-weight="100" text-anchor="start" dominant-baseline="central" x="505.5" y="745" transform="translate(489,745) rotate(0) translate(-489,-745)">Avissawella</text>
  </g>
  <g>
    <text fill="gray" stroke="none" font-size="18" font-family="GIL_____" font-weight="100" text-anchor="start" dominant-baseline="central" x="1017.5" y="404" transform="translate(1001,404) rotate(-22.5) translate(-1001,-404)">Kandapola</text>
  </g>
</svg>
