<?xml version="1.0" ?>
<svg xmlns="http://www.w3.org/2000/svg" width="1300" height="1300" padding="200">
  <text fill="gray" stroke="none" font-size="72" font-family="GIL_____" x="650.0" y="118.0" text-anchor="middle" dominant-baseline="hanging">1904</text>
  <text fill="gray" stroke="none" font-size="18" font-family="GIL_____" x="650.0" y="1218.0" text-anchor="middle" dominant-baseline="text-top">History of the Railways in Sri Lanka</text>
  <g>
    <path fill="none" stroke-width="10.5" stroke-opacity="1" d="M 200.0,785.0 L 290.0,695.0 L 380.0,605.0 L 470.0,515.0 L 556.8180194846606,428.1819805153395 C 557.8786796564403,427.12132034355966 563.0,425.0 564.5,425.0 L 650.0,425.0 L 735.5,425.0 C 737.0,425.0 742.1213203435597,427.12132034355966 743.1819805153394,428.1819805153395 L 830.0,515.0 L 916.8180194846606,601.8180194846606 C 917.8786796564403,602.8786796564403 923.0,605.0 924.5,605.0 L 1010.0,605.0" stroke="red"/>
    <rect stroke="none" fill-opacity="1" x="1005" y="595" width="10" height="20" fill="red"/>
  </g>
  <g>
    <path fill="none" stroke-width="10.5" stroke-opacity="1" d="M 740.0,425.0 L 826.8180194846606,338.1819805153395 C 827.8786796564403,337.12132034355966 833.0,335.0 834.5,335.0 L 920.0,335.0" stroke="purple"/>
    <rect stroke="none" fill-opacity="1" x="915" y="325" width="10" height="20" fill="purple"/>
  </g>
  <g>
    <path fill="none" stroke-width="10.5" stroke-opacity="1" d="M 200.0,785.0 L 200.0,870.5 C 200.0,872.0 202.12132034355963,877.1213203435597 203.18198051533946,878.1819805153394 L 286.8180194846605,961.8180194846606 C 287.87867965644034,962.8786796564403 293.0,965.0 294.5,965.0 L 380.0,965.0" stroke="cyan"/>
    <rect stroke="none" fill-opacity="1" x="375" y="955" width="10" height="20" fill="cyan"/>
  </g>
  <g>
    <path fill="none" stroke-width="10.5" stroke-opacity="1" d="M 290.0,695.0 L 376.8180194846605,781.8180194846606 C 377.87867965644034,782.8786796564403 383.0,785.0 384.5,785.0 L 465.725,785.0 C 467.15,785.0 472.01525432638164,782.9847456736184 473.0228814895725,781.9771185104275 L 560.0,695.0" stroke="darkblue"/>
    <rect stroke="none" fill-opacity="1" x="555" y="685" width="10" height="20" fill="darkblue"/>
  </g>
  <g>
    <path fill="none" stroke-width="10.5" stroke-opacity="1" d="M 920.0,605.0 L 920.0,519.5 C 920.0,518.0 922.1213203435597,512.8786796564403 923.1819805153394,511.8180194846605 L 1006.8180194846606,428.1819805153395 C 1007.8786796564403,427.12132034355966 1013.0,425.0 1014.5,425.0 L 1100.0,425.0" stroke="gray"/>
    <rect stroke="none" fill-opacity="1" x="1095" y="415" width="10" height="20" fill="gray"/>
  </g>
  <g>
    <text fill="black" stroke="none" font-size="25.2" font-family="GIL_____" font-weight="100" text-anchor="start" dominant-baseline="central" x="1030.1" y="605" transform="translate(1010,605) rotate(0) translate(-1010,-605)">Bandarawela</text>
  </g>
  <g>
    <text fill="black" stroke="none" font-size="25.2" font-family="GIL_____" font-weight="100" text-anchor="start" dominant-baseline="central" x="940.1" y="335" transform="translate(920,335) rotate(0) translate(-920,-335)">MATALE</text>
  </g>
  <g>
    <text fill="black" stroke="none" font-size="25.2" font-family="GIL_____" font-weight="100" text-anchor="start" dominant-baseline="central" x="400.1" y="965" transform="translate(380,965) rotate(0) translate(-380,-965)">MATARA</text>
  </g>
  <g>
    <text fill="black" stroke="none" font-size="25.2" font-family="GIL_____" font-weight="100" text-anchor="start" dominant-baseline="central" x="580.1" y="695" transform="translate(560,695) rotate(0) translate(-560,-695)">Yatiyantota</text>
  </g>
  <g>
    <text fill="black" stroke="none" font-size="25.2" font-family="GIL_____" font-weight="100" text-anchor="start" dominant-baseline="central" x="1120.1" y="425" transform="translate(1100,425) rotate(0) translate(-1100,-425)">Ragala</text>
  </g>
  <g>
    <circle r="10" fill="white" stroke="black" stroke-width="2.5" cx="200" cy="785"/>
    <text fill="black" stroke="none" font-size="21.599999999999998" font-family="GIL_____" font-weight="100" text-anchor="end" dominant-baseline="central" x="181.7" y="785" transform="translate(200,785) rotate(0) translate(-200,-785)">COLOMBO Fort</text>
  </g>
  <g>
    <circle r="10" fill="white" stroke="black" stroke-width="2.5" cx="290" cy="695"/>
    <text fill="black" stroke="none" font-size="21.599999999999998" font-family="GIL_____" font-weight="100" text-anchor="start" dominant-baseline="central" x="308.3" y="695" transform="translate(290,695) rotate(0) translate(-290,-695)">Maradana</text>
  </g>
  <g>
    <circle r="10" fill="white" stroke="black" stroke-width="2.5" cx="740" cy="425"/>
    <text fill="black" stroke="none" font-size="21.599999999999998" font-family="GIL_____" font-weight="100" text-anchor="start" dominant-baseline="central" x="758.3" y="425" transform="translate(740,425) rotate(0) translate(-740,-425)">Peradeniya</text>
  </g>
  <g>
    <circle r="10" fill="white" stroke="black" stroke-width="2.5" cx="920" cy="605"/>
    <text fill="black" stroke="none" font-size="21.599999999999998" font-family="GIL_____" font-weight="100" text-anchor="end" dominant-baseline="central" x="901.7" y="605" transform="translate(920,605) rotate(0) translate(-920,-605)">Nanu Oya</text>
  </g>
  <g>
    <text fill="black" stroke="none" font-size="19.8" font-family="GIL_____" font-weight="100" text-anchor="start" dominant-baseline="central" x="487.4" y="515" transform="translate(470,515) rotate(0) translate(-470,-515)">GAMPAHA</text>
  </g>
  <g>
    <text fill="black" stroke="none" font-size="19.8" font-family="GIL_____" font-weight="100" text-anchor="end" dominant-baseline="central" x="812.6" y="335" transform="translate(830,335) rotate(0) translate(-830,-335)">KANDY</text>
  </g>
  <g>
    <text fill="black" stroke="none" font-size="19.8" font-family="GIL_____" font-weight="100" text-anchor="end" dominant-baseline="central" x="272.6" y="965" transform="translate(290,965) rotate(0) translate(-290,-965)">GALLE</text>
  </g>
  <g>
    <text fill="black" stroke="none" font-size="19.8" font-family="GIL_____" font-weight="100" text-anchor="start" dominant-baseline="central" x="937.4" y="515" transform="translate(920,515) rotate(0) translate(-920,-515)">NUWARA ELIYA</text>
  </g>
  <g>
    <text fill="black" stroke="none" font-size="18" font-family="GIL_____" font-weight="100" text-anchor="start" dominant-baseline="central" x="396.5" y="605" transform="translate(380,605) rotate(0) translate(-380,-605)">Ragama</text>
  </g>
  <g>
    <text fill="black" stroke="none" font-size="18" font-family="GIL_____" font-weight="100" text-anchor="end" dominant-baseline="central" x="543.5" y="425" transform="translate(560,425) rotate(0) translate(-560,-425)">Ambepussa</text>
  </g>
  <g>
    <text fill="black" stroke="none" font-size="18" font-family="GIL_____" font-weight="100" text-anchor="end" dominant-baseline="central" x="633.5" y="425" transform="translate(650,425) rotate(45) translate(-650,-425)">Polgahawela</text>
  </g>
  <g/>
  <g>
    <text fill="black" stroke="none" font-size="18" font-family="GIL_____" font-weight="100" text-anchor="start" dominant-baseline="central" x="216.5" y="875" transform="translate(200,875) rotate(0) translate(-200,-875)">KALUTARA North</text>
  </g>
  <g>
    <text fill="black" stroke="none" font-size="18" font-family="GIL_____" font-weight="100" text-anchor="start" dominant-baseline="central" x="396.5" y="785" transform="translate(380,785) rotate(-337.5) translate(-380,-785)">Homagama</text>
  </g>
  <g>
    <text fill="black" stroke="none" font-size="18" font-family="GIL_____" font-weight="100" text-anchor="start" dominant-baseline="central" x="486.5" y="785" transform="translate(470,785) rotate(0) translate(-470,-785)">Avissawella</text>
  </g>
  <g>
    <text fill="black" stroke="none" font-size="18" font-family="GIL_____" font-weight="100" text-anchor="start" dominant-baseline="central" x="1026.5" y="425" transform="translate(1010,425) rotate(-22.5) translate(-1010,-425)">Kandapola</text>
  </g>
</svg>
