<?xml version="1.0" ?>
<svg xmlns="http://www.w3.org/2000/svg" width="1300" height="1300" padding="200">
  <text fill="gray" stroke="none" font-size="72" font-family="GIL_____" x="650.0" y="118.0" text-anchor="middle" dominant-baseline="hanging">1905</text>
  <text fill="gray" stroke="none" font-size="18" font-family="GIL_____" x="650.0" y="1218.0" text-anchor="middle" dominant-baseline="text-top">History of the Railways in Sri Lanka</text>
  <g>
    <path fill="none" stroke-width="10.5" stroke-opacity="1" d="M 350.0,980.0 L 410.0,920.0 L 470.0,860.0 L 530.0,800.0 L 587.8786796564403,742.1213203435597 C 588.5857864376269,741.4142135623731 592.0,740.0 593.0,740.0 L 650.0,740.0 L 707.0,740.0 C 708.0,740.0 711.4142135623731,741.4142135623731 712.1213203435597,742.1213203435597 L 770.0,800.0 L 827.8786796564403,857.8786796564403 C 828.5857864376269,858.5857864376269 832.0,860.0 833.0,860.0 L 890.0,860.0" stroke="red"/>
    <rect stroke="none" fill-opacity="1" x="885" y="850" width="10" height="20" fill="red"/>
  </g>
  <g>
    <path fill="none" stroke-width="10.5" stroke-opacity="1" d="M 710.0,740.0 L 767.8786796564403,682.1213203435597 C 768.5857864376269,681.4142135623731 772.0,680.0 773.0,680.0 L 830.0,680.0" stroke="purple"/>
    <rect stroke="none" fill-opacity="1" x="825" y="670" width="10" height="20" fill="purple"/>
  </g>
  <g>
    <path fill="none" stroke-width="10.5" stroke-opacity="1" d="M 350.0,980.0 L 350.0,1037.0 C 350.0,1038.0 351.4142135623731,1041.414213562373 352.12132034355966,1042.1213203435595 L 407.87867965644034,1097.8786796564405 C 408.5857864376269,1098.585786437627 412.0,1100.0 413.0,1100.0 L 470.0,1100.0" stroke="cyan"/>
    <rect stroke="none" fill-opacity="1" x="465" y="1090" width="10" height="20" fill="cyan"/>
  </g>
  <g>
    <path fill="none" stroke-width="10.5" stroke-opacity="1" d="M 410.0,920.0 L 467.87867965644034,977.8786796564403 C 468.5857864376269,978.5857864376269 472.0,980.0 473.0,980.0 L 527.15,980.0 C 528.1,980.0 531.3435028842545,978.6564971157455 532.0152543263816,977.9847456736184 L 590.0,920.0" stroke="darkblue"/>
    <rect stroke="none" fill-opacity="1" x="585" y="910" width="10" height="20" fill="darkblue"/>
  </g>
  <g>
    <path fill="none" stroke-width="10.5" stroke-opacity="1" d="M 830.0,860.0 L 830.0,803.0 C 830.0,802.0 831.4142135623731,798.5857864376269 832.1213203435597,797.8786796564403 L 887.8786796564403,742.1213203435597 C 888.5857864376269,741.4142135623731 892.0,740.0 893.0,740.0 L 950.0,740.0" stroke="gray"/>
    <rect stroke="none" fill-opacity="1" x="945" y="730" width="10" height="20" fill="gray"/>
  </g>
  <g>
    <path fill="none" stroke-width="10.5" stroke-opacity="1" d="M 650.0,740.0 L 650.0,680.0 L 650.0,620.0 L 650.0,560.0 L 650.0,500.0 L 650.0,440.0 L 650.0,380.0 L 650.0,323.0 C 650.0,322.0 648.5857864376269,318.5857864376269 647.8786796564403,317.87867965644034 L 592.1213203435597,262.12132034355966 C 591.4142135623731,261.4142135623731 590.0,258.0 590.0,257.0 L 590.0,200.0" stroke="orange"/>
    <rect stroke="none" fill-opacity="1" x="580" y="195" width="20" height="10" fill="orange"/>
  </g>
  <g>
    <text fill="black" stroke="none" font-size="25.2" font-family="GIL_____" font-weight="100" text-anchor="start" dominant-baseline="central" x="910.1" y="860" transform="translate(890,860) rotate(0) translate(-890,-860)">Bandarawela</text>
  </g>
  <g>
    <text fill="black" stroke="none" font-size="25.2" font-family="GIL_____" font-weight="100" text-anchor="start" dominant-baseline="central" x="850.1" y="680" transform="translate(830,680) rotate(0) translate(-830,-680)">MATALE</text>
  </g>
  <g>
    <text fill="black" stroke="none" font-size="25.2" font-family="GIL_____" font-weight="100" text-anchor="start" dominant-baseline="central" x="490.1" y="1100" transform="translate(470,1100) rotate(0) translate(-470,-1100)">MATARA</text>
  </g>
  <g>
    <text fill="black" stroke="none" font-size="25.2" font-family="GIL_____" font-weight="100" text-anchor="start" dominant-baseline="central" x="610.1" y="920" transform="translate(590,920) rotate(0) translate(-590,-920)">Yatiyantota</text>
  </g>
  <g>
    <text fill="black" stroke="none" font-size="25.2" font-family="GIL_____" font-weight="100" text-anchor="start" dominant-baseline="central" x="970.1" y="740" transform="translate(950,740) rotate(0) translate(-950,-740)">Ragala</text>
  </g>
  <g>
    <text fill="black" stroke="none" font-size="25.2" font-family="GIL_____" font-weight="100" text-anchor="start" dominant-baseline="central" x="610.1" y="200" transform="translate(590,200) rotate(0) translate(-590,-200)">Kankesanthurai</text>
  </g>
  <g>
    <circle r="10" fill="white" stroke="black" stroke-width="2.5" cx="350" cy="980"/>
    <text fill="black" stroke="none" font-size="21.599999999999998" font-family="GIL_____" font-weight="100" text-anchor="end" dominant-baseline="central" x="331.7" y="980" transform="translate(350,980) rotate(0) translate(-350,-980)">COLOMBO Fort</text>
  </g>
  <g>
    <circle r="10" fill="white" stroke="black" stroke-width="2.5" cx="410" cy="920"/>
    <text fill="black" stroke="none" font-size="21.599999999999998" font-family="GIL_____" font-weight="100" text-anchor="start" dominant-baseline="central" x="428.3" y="920" transform="translate(410,920) rotate(0) translate(-410,-920)">Maradana</text>
  </g>
  <g>
    <circle r="10" fill="white" stroke="black" stroke-width="2.5" cx="650" cy="740"/>
    <text fill="black" stroke="none" font-size="21.599999999999998" font-family="GIL_____" font-weight="100" text-anchor="start" dominant-baseline="central" x="668.3" y="740" transform="translate(650,740) rotate(-45) translate(-650,-740)">Polgahawela</text>
  </g>
  <g>
    <circle r="10" fill="white" stroke="black" stroke-width="2.5" cx="710" cy="740"/>
    <text fill="black" stroke="none" font-size="21.599999999999998" font-family="GIL_____" font-weight="100" text-anchor="start" dominant-baseline="central" x="728.3" y="740" transform="translate(710,740) rotate(0) translate(-710,-740)">Peradeniya</text>
  </g>
  <g>
    <circle r="10" fill="white" stroke="black" stroke-width="2.5" cx="830" cy="860"/>
    <text fill="black" stroke="none" font-size="21.599999999999998" font-family="GIL_____" font-weight="100" text-anchor="end" dominant-baseline="central" x="811.7" y="860" transform="translate(830,860) rotate(0) translate(-830,-860)">Nanu Oya</text>
  </g>
  <g>
    <text fill="black" stroke="none" font-size="19.8" font-family="GIL_____" font-weight="100" text-anchor="start" dominant-baseline="central" x="547.4" y="800" transform="translate(530,800) rotate(0) translate(-530,-800)">GAMPAHA</text>
  </g>
  <g>
    <text fill="black" stroke="none" font-size="19.8" font-family="GIL_____" font-weight="100" text-anchor="start" dominant-baseline="central" x="787.4" y="680" transform="translate(770,680) rotate(-45) translate(-770,-680)">KANDY</text>
  </g>
  <g>
    <text fill="black" stroke="none" font-size="19.8" font-family="GIL_____" font-weight="100" text-anchor="end" dominant-baseline="central" x="392.6" y="1100" transform="translate(410,1100) rotate(0) translate(-410,-1100)">GALLE</text>
  </g>
  <g>
    <text fill="black" stroke="none" font-size="19.8" font-family="GIL_____" font-weight="100" text-anchor="start" dominant-baseline="central" x="847.4" y="800" transform="translate(830,800) rotate(0) translate(-830,-800)">NUWARA ELIYA</text>
  </g>
  <g>
    <text fill="black" stroke="none" font-size="19.8" font-family="GIL_____" font-weight="100" text-anchor="end" dominant-baseline="central" x="632.6" y="680" transform="translate(650,680) rotate(0) translate(-650,-680)">KURUNEGALA</text>
  </g>
  <g>
    <text fill="black" stroke="none" font-size="19.8" font-family="GIL_____" font-weight="100" text-anchor="start" dominant-baseline="central" x="667.4" y="560" transform="translate(650,560) rotate(0) translate(-650,-560)">ANURADHAPURA</text>
  </g>
  <g>
    <text fill="black" stroke="none" font-size="19.8" font-family="GIL_____" font-weight="100" text-anchor="start" dominant-baseline="central" x="667.4" y="380" transform="translate(650,380) rotate(0) translate(-650,-380)">VAVUNIYA</text>
  </g>
  <g>
    <text fill="black" stroke="none" font-size="19.8" font-family="GIL_____" font-weight="100" text-anchor="start" dominant-baseline="central" x="667.4" y="320" transform="translate(650,320) rotate(0) translate(-650,-320)">KILINOCHCHI</text>
  </g>
  <g>
    <text fill="black" stroke="none" font-size="19.8" font-family="GIL_____" font-weight="100" text-anchor="start" dominant-baseline="central" x="607.4" y="260" transform="translate(590,260) rotate(0) translate(-590,-260)">JAFFNA</text>
  </g>
  <g>
    <text fill="black" stroke="none" font-size="18" font-family="GIL_____" font-weight="100" text-anchor="start" dominant-baseline="central" x="486.5" y="860" transform="translate(470,860) rotate(0) translate(-470,-860)">Ragama</text>
  </g>
  <g>
    <text fill="black" stroke="none" font-size="18" font-family="GIL_____" font-weight="100" text-anchor="end" dominant-baseline="central" x="573.5" y="740" transform="translate(590,740) rotate(0) translate(-590,-740)">Ambepussa</text>
  </g>
  <g/>
  <g>
    <text fill="black" stroke="none" font-size="18" font-family="GIL_____" font-weight="100" text-anchor="start" dominant-baseline="central" x="366.5" y="1040" transform="translate(350,1040) rotate(0) translate(-350,-1040)">KALUTARA North</text>
  </g>
  <g>
    <text fill="black" stroke="none" font-size="18" font-family="GIL_____" font-weight="100" text-anchor="start" dominant-baseline="central" x="486.5" y="980" transform="translate(470,980) rotate(-337.5) translate(-470,-980)">Homagama</text>
  </g>
  <g>
    <text fill="black" stroke="none" font-size="18" font-family="GIL_____" font-weight="100" text-anchor="start" dominant-baseline="central" x="546.5" y="980" transform="translate(530,980) rotate(0) translate(-530,-980)">Avissawella</text>
  </g>
  <g>
    <text fill="black" stroke="none" font-size="18" font-family="GIL_____" font-weight="100" text-anchor="start" dominant-baseline="central" x="906.5" y="740" transform="translate(890,740) rotate(-22.5) translate(-890,-740)">Kandapola</text>
  </g>
  <g>
    <text fill="black" stroke="none" font-size="18" font-family="GIL_____" font-weight="100" text-anchor="end" dominant-baseline="central" x="633.5" y="620" transform="translate(650,620) rotate(0) translate(-650,-620)">Maho</text>
  </g>
  <g>
    <text fill="black" stroke="none" font-size="18" font-family="GIL_____" font-weight="100" text-anchor="start" dominant-baseline="central" x="666.5" y="500" transform="translate(650,500) rotate(0) translate(-650,-500)">Mihintale Junction</text>
  </g>
  <g>
    <text fill="black" stroke="none" font-size="18" font-family="GIL_____" font-weight="100" text-anchor="start" dominant-baseline="central" x="666.5" y="440" transform="translate(650,440) rotate(0) translate(-650,-440)">Medavachchiya</text>
  </g>
</svg>
