<?xml version="1.0" ?>
<svg xmlns="http://www.w3.org/2000/svg" width="3600" height="3600" padding="720">
  <text fill="#fcfcfc" stroke="none" font-size="600.0" font-family="p22" x="1800.0" y="1800.0" text-anchor="middle" dominant-baseline="center">@nuuuwan</text>
  <text fill="black" stroke="none" font-size="160" font-family="p22" x="1800.0" y="360.0" text-anchor="middle" dominant-baseline="hanging">1905</text>
  <text fill="gray" stroke="none" font-size="40" font-family="p22" x="1800.0" y="410.0" text-anchor="middle" dominant-baseline="hanging"/>
  <text fill="gray" stroke="none" font-size="40" font-family="p22" x="1800.0" y="3280.0" text-anchor="middle" dominant-baseline="text-top">data from multiple sources ~ music by @bensound ~ visualization by @nuuuwan</text>
  <g>
    <path fill="none" stroke-width="29.400000000000002" stroke-opacity="1" d="M 1206.0,2232.0 L 1314.0,2124.0 L 1422.0,2016.0 L 1526.1816233815925,1911.8183766184075 C 1527.4544155877284,1910.5455844122716 1533.6,1908.0 1535.4,1908.0 L 1638.0,1908.0 L 1740.6,1908.0 C 1742.4,1908.0 1748.5455844122716,1910.5455844122716 1749.8183766184075,1911.8183766184075 L 1854.0,2016.0 L 1962.0,2124.0 L 2070.0,2232.0 L 2174.1816233815925,2336.1816233815925 C 2175.4544155877284,2337.4544155877284 2181.6,2340.0 2183.4,2340.0 L 2286.0,2340.0 L 2394.0,2340.0" stroke="red"/>
    <rect stroke="none" fill-opacity="1" x="2380" y="2312" width="28" height="56" fill="red"/>
  </g>
  <g>
    <path fill="none" stroke-width="29.400000000000002" stroke-opacity="1" d="M 1746.0,1908.0 L 1850.1816233815925,1803.8183766184075 C 1851.4544155877284,1802.5455844122716 1857.6,1800.0 1859.4,1800.0 L 1962.0,1800.0" stroke="purple"/>
    <rect stroke="none" fill-opacity="1" x="1948" y="1772" width="28" height="56" fill="purple"/>
  </g>
  <g>
    <path fill="none" stroke-width="29.400000000000002" stroke-opacity="1" d="M 1206.0,2232.0 L 1206.0,2340.0 L 1206.0,2448.0 L 1206.0,2550.6 C 1206.0,2552.4 1208.5455844122716,2558.5455844122716 1209.8183766184075,2559.8183766184075 L 1314.0,2664.0 L 1422.0,2772.0 L 1526.1816233815925,2876.1816233815925 C 1527.4544155877284,2877.4544155877284 1533.6,2880.0 1535.4,2880.0 L 1638.0,2880.0 L 1746.0,2880.0" stroke="cyan"/>
    <rect stroke="none" fill-opacity="1" x="1732" y="2852" width="28" height="56" fill="cyan"/>
  </g>
  <g>
    <path fill="none" stroke-width="29.400000000000002" stroke-opacity="1" d="M 1638.0,1908.0 L 1638.0,1800.0 L 1638.0,1692.0 L 1638.0,1584.0 L 1638.0,1476.0 L 1638.0,1368.0 L 1638.0,1260.0 L 1638.0,1152.0 L 1638.0,1049.4 C 1638.0,1047.6 1635.4544155877284,1041.4544155877284 1634.1816233815925,1040.1816233815925 L 1530.0,936.0 L 1425.8183766184075,831.8183766184073 C 1424.5455844122716,830.5455844122715 1422.0,824.4 1422.0,822.6 L 1422.0,720.0" stroke="orange"/>
    <rect stroke="none" fill-opacity="1" x="1394" y="706" width="56" height="28" fill="orange"/>
  </g>
  <g>
    <path fill="none" stroke-width="29.400000000000002" stroke-opacity="1" d="M 1206.0,2232.0 L 1310.1816233815925,2336.1816233815925 C 1311.4544155877284,2337.4544155877284 1317.6,2340.0 1319.4,2340.0 L 1416.87,2340.0 C 1418.58,2340.0 1424.418305191658,2337.581694808342 1425.627457787487,2336.372542212513 L 1530.0,2232.0" stroke="darkblue"/>
    <rect stroke="none" fill-opacity="1" x="1516" y="2204" width="28" height="56" fill="darkblue"/>
  </g>
  <g>
    <path fill="none" stroke-width="29.400000000000002" stroke-opacity="1" d="M 2178.0,2340.0 L 2178.0,2237.4 C 2178.0,2235.6 2180.5455844122716,2229.4544155877284 2181.8183766184075,2228.1816233815925 L 2282.1816233815925,2127.8183766184075 C 2283.4544155877284,2126.5455844122716 2289.6,2124.0 2291.4,2124.0 L 2394.0,2124.0" stroke="gray"/>
    <rect stroke="none" fill-opacity="1" x="2380" y="2096" width="28" height="56" fill="gray"/>
  </g>
  <g>
    <text fill="black" stroke="none" font-size="56.0" font-family="p22" font-weight="100" text-anchor="start" dominant-baseline="central" x="2443.0" y="2340" transform="translate(2394,2340) rotate(0) translate(-2394,-2340)">Bandarawela</text>
  </g>
  <g>
    <text fill="black" stroke="none" font-size="56.0" font-family="p22" font-weight="100" text-anchor="start" dominant-baseline="central" x="2011.0" y="1800" transform="translate(1962,1800) rotate(0) translate(-1962,-1800)">Matale</text>
  </g>
  <g>
    <text fill="black" stroke="none" font-size="56.0" font-family="p22" font-weight="100" text-anchor="start" dominant-baseline="central" x="1795.0" y="2880" transform="translate(1746,2880) rotate(0) translate(-1746,-2880)">Matara</text>
  </g>
  <g>
    <text fill="black" stroke="none" font-size="56.0" font-family="p22" font-weight="100" text-anchor="start" dominant-baseline="central" x="1471.0" y="720" transform="translate(1422,720) rotate(0) translate(-1422,-720)">Kankesanthurai</text>
  </g>
  <g>
    <text fill="black" stroke="none" font-size="56.0" font-family="p22" font-weight="100" text-anchor="start" dominant-baseline="central" x="1579.0" y="2232" transform="translate(1530,2232) rotate(0) translate(-1530,-2232)">Yatiyantota</text>
  </g>
  <g>
    <text fill="black" stroke="none" font-size="56.0" font-family="p22" font-weight="100" text-anchor="start" dominant-baseline="central" x="2443.0" y="2124" transform="translate(2394,2124) rotate(0) translate(-2394,-2124)">Ragala</text>
  </g>
  <g>
    <circle r="28" fill="white" stroke="black" stroke-width="7.0" cx="1206" cy="2232"/>
    <text fill="black" stroke="none" font-size="48.0" font-family="p22" font-weight="100" text-anchor="start" dominant-baseline="central" x="1251.0" y="2232" transform="translate(1206,2232) rotate(0) translate(-1206,-2232)">C. Terminus</text>
  </g>
  <g>
    <circle r="28" fill="white" stroke="black" stroke-width="7.0" cx="1638" cy="1908"/>
    <text fill="black" stroke="none" font-size="48.0" font-family="p22" font-weight="100" text-anchor="start" dominant-baseline="central" x="1683.0" y="1908" transform="translate(1638,1908) rotate(-45) translate(-1638,-1908)">Polgahawela</text>
  </g>
  <g>
    <circle r="28" fill="white" stroke="black" stroke-width="7.0" cx="1746" cy="1908"/>
    <text fill="black" stroke="none" font-size="48.0" font-family="p22" font-weight="100" text-anchor="start" dominant-baseline="central" x="1791.0" y="1908" transform="translate(1746,1908) rotate(0) translate(-1746,-1908)">Peradeniya</text>
  </g>
  <g>
    <circle r="28" fill="white" stroke="black" stroke-width="7.0" cx="2178" cy="2340"/>
    <text fill="black" stroke="none" font-size="48.0" font-family="p22" font-weight="100" text-anchor="end" dominant-baseline="central" x="2133.0" y="2340" transform="translate(2178,2340) rotate(0) translate(-2178,-2340)">Nanu Oya</text>
  </g>
  <g>
    <text fill="gray" stroke="none" font-size="44.0" font-family="p22" font-weight="100" text-anchor="start" dominant-baseline="central" x="1465.0" y="2016" transform="translate(1422,2016) rotate(0) translate(-1422,-2016)">Gampaha</text>
  </g>
  <g>
    <text fill="gray" stroke="none" font-size="44.0" font-family="p22" font-weight="100" text-anchor="start" dominant-baseline="central" x="1897.0" y="1800" transform="translate(1854,1800) rotate(-45) translate(-1854,-1800)">Kandy</text>
  </g>
  <g>
    <text fill="gray" stroke="none" font-size="44.0" font-family="p22" font-weight="100" text-anchor="start" dominant-baseline="central" x="1681.0" y="2880" transform="translate(1638,2880) rotate(-45) translate(-1638,-2880)">Galle</text>
  </g>
  <g>
    <text fill="gray" stroke="none" font-size="44.0" font-family="p22" font-weight="100" text-anchor="end" dominant-baseline="central" x="1595.0" y="1800" transform="translate(1638,1800) rotate(0) translate(-1638,-1800)">Kurunegala</text>
  </g>
  <g>
    <text fill="gray" stroke="none" font-size="44.0" font-family="p22" font-weight="100" text-anchor="start" dominant-baseline="central" x="1681.0" y="1584" transform="translate(1638,1584) rotate(0) translate(-1638,-1584)">Anuradhapura</text>
  </g>
  <g>
    <text fill="gray" stroke="none" font-size="44.0" font-family="p22" font-weight="100" text-anchor="start" dominant-baseline="central" x="1681.0" y="1260" transform="translate(1638,1260) rotate(0) translate(-1638,-1260)">Vavuniya</text>
  </g>
  <g>
    <text fill="gray" stroke="none" font-size="44.0" font-family="p22" font-weight="100" text-anchor="start" dominant-baseline="central" x="1681.0" y="1044" transform="translate(1638,1044) rotate(0) translate(-1638,-1044)">Kilinochchi</text>
  </g>
  <g>
    <text fill="gray" stroke="none" font-size="44.0" font-family="p22" font-weight="100" text-anchor="start" dominant-baseline="central" x="1465.0" y="828" transform="translate(1422,828) rotate(0) translate(-1422,-828)">Jaffna</text>
  </g>
  <g>
    <text fill="gray" stroke="none" font-size="44.0" font-family="p22" font-weight="100" text-anchor="start" dominant-baseline="central" x="2221.0" y="2232" transform="translate(2178,2232) rotate(0) translate(-2178,-2232)">Nuwara Eliya</text>
  </g>
  <g>
    <text fill="gray" stroke="none" font-size="40" font-family="p22" font-weight="100" text-anchor="start" dominant-baseline="central" x="1355.0" y="2124" transform="translate(1314,2124) rotate(0) translate(-1314,-2124)">Ragama</text>
  </g>
  <g>
    <text fill="gray" stroke="none" font-size="40" font-family="p22" font-weight="100" text-anchor="end" dominant-baseline="central" x="1489.0" y="1908" transform="translate(1530,1908) rotate(0) translate(-1530,-1908)">Ambepussa</text>
  </g>
  <g>
    <text fill="gray" stroke="none" font-size="40" font-family="p22" font-weight="100" text-anchor="start" dominant-baseline="central" x="1895.0" y="2016" transform="translate(1854,2016) rotate(0) translate(-1854,-2016)">Gampola</text>
  </g>
  <g>
    <text fill="gray" stroke="none" font-size="40" font-family="p22" font-weight="100" text-anchor="start" dominant-baseline="central" x="2003.0" y="2124" transform="translate(1962,2124) rotate(0) translate(-1962,-2124)">Nawalapitiya</text>
  </g>
  <g>
    <text fill="gray" stroke="none" font-size="40" font-family="p22" font-weight="100" text-anchor="end" dominant-baseline="central" x="2029.0" y="2232" transform="translate(2070,2232) rotate(0) translate(-2070,-2232)">Talawakele</text>
  </g>
  <g>
    <text fill="gray" stroke="none" font-size="40" font-family="p22" font-weight="100" text-anchor="start" dominant-baseline="central" x="2327.0" y="2340" transform="translate(2286,2340) rotate(-45) translate(-2286,-2340)">Haputale</text>
  </g>
  <g>
    <text fill="gray" stroke="none" font-size="40" font-family="p22" font-weight="100" text-anchor="end" dominant-baseline="central" x="1165.0" y="2340" transform="translate(1206,2340) rotate(0) translate(-1206,-2340)">Panadura</text>
  </g>
  <g>
    <text fill="gray" stroke="none" font-size="40" font-family="p22" font-weight="100" text-anchor="start" dominant-baseline="central" x="1247.0" y="2448" transform="translate(1206,2448) rotate(0) translate(-1206,-2448)">Kalutara N.</text>
  </g>
  <g>
    <text fill="gray" stroke="none" font-size="40" font-family="p22" font-weight="100" text-anchor="start" dominant-baseline="central" x="1247.0" y="2556" transform="translate(1206,2556) rotate(0) translate(-1206,-2556)">Wadduwa</text>
  </g>
  <g>
    <text fill="gray" stroke="none" font-size="40" font-family="p22" font-weight="100" text-anchor="start" dominant-baseline="central" x="1355.0" y="2664" transform="translate(1314,2664) rotate(0) translate(-1314,-2664)">Aluthgama</text>
  </g>
  <g>
    <text fill="gray" stroke="none" font-size="40" font-family="p22" font-weight="100" text-anchor="start" dominant-baseline="central" x="1463.0" y="2772" transform="translate(1422,2772) rotate(0) translate(-1422,-2772)">Kosgoda</text>
  </g>
  <g>
    <text fill="gray" stroke="none" font-size="40" font-family="p22" font-weight="100" text-anchor="end" dominant-baseline="central" x="1489.0" y="2880" transform="translate(1530,2880) rotate(0) translate(-1530,-2880)">Ambalangoda</text>
  </g>
  <g>
    <text fill="gray" stroke="none" font-size="40" font-family="p22" font-weight="100" text-anchor="start" dominant-baseline="central" x="1679.0" y="1692" transform="translate(1638,1692) rotate(0) translate(-1638,-1692)">Maho</text>
  </g>
  <g>
    <text fill="gray" stroke="none" font-size="40" font-family="p22" font-weight="100" text-anchor="start" dominant-baseline="central" x="1679.0" y="1476" transform="translate(1638,1476) rotate(0) translate(-1638,-1476)">Mihintale Junction</text>
  </g>
  <g>
    <text fill="gray" stroke="none" font-size="40" font-family="p22" font-weight="100" text-anchor="start" dominant-baseline="central" x="1679.0" y="1368" transform="translate(1638,1368) rotate(0) translate(-1638,-1368)">Medavachchiya</text>
  </g>
  <g>
    <text fill="gray" stroke="none" font-size="40" font-family="p22" font-weight="100" text-anchor="start" dominant-baseline="central" x="1679.0" y="1152" transform="translate(1638,1152) rotate(0) translate(-1638,-1152)">Omanthai</text>
  </g>
  <g>
    <text fill="gray" stroke="none" font-size="40" font-family="p22" font-weight="100" text-anchor="start" dominant-baseline="central" x="1571.0" y="936" transform="translate(1530,936) rotate(0) translate(-1530,-936)">Pallai</text>
  </g>
  <g>
    <text fill="gray" stroke="none" font-size="40" font-family="p22" font-weight="100" text-anchor="start" dominant-baseline="central" x="1355.0" y="2340" transform="translate(1314,2340) rotate(-45) translate(-1314,-2340)">Homagama</text>
  </g>
  <g>
    <text fill="gray" stroke="none" font-size="40" font-family="p22" font-weight="100" text-anchor="start" dominant-baseline="central" x="1463.0" y="2340" transform="translate(1422,2340) rotate(0) translate(-1422,-2340)">Avissawella</text>
  </g>
  <g>
    <text fill="gray" stroke="none" font-size="40" font-family="p22" font-weight="100" text-anchor="end" dominant-baseline="central" x="2245.0" y="2124" transform="translate(2286,2124) rotate(0) translate(-2286,-2124)">Kandapola</text>
  </g>
</svg>
