<?xml version="1.0" ?>
<svg xmlns="http://www.w3.org/2000/svg" width="3600" height="3600" padding="720">
  <text fill="#fcfcfc" stroke="none" font-size="600.0" font-family="p22" x="1800.0" y="1800.0" text-anchor="middle" dominant-baseline="center">@nuuuwan</text>
  <text fill="black" stroke="none" font-size="160" font-family="p22" x="1800.0" y="360.0" text-anchor="middle" dominant-baseline="hanging">1914</text>
  <text fill="gray" stroke="none" font-size="40" font-family="p22" x="1800.0" y="410.0" text-anchor="middle" dominant-baseline="hanging"/>
  <text fill="gray" stroke="none" font-size="40" font-family="p22" x="1800.0" y="3280.0" text-anchor="middle" dominant-baseline="text-top">data from multiple sources ~ music by @bensound ~ visualization by @nuuuwan</text>
  <g>
    <path fill="none" stroke-width="29.400000000000002" stroke-opacity="1" d="M 1314.0,2232.0 L 1422.0,2124.0 L 1530.0,2016.0 L 1634.1816233815925,1911.8183766184075 C 1635.4544155877284,1910.5455844122716 1641.6,1908.0 1643.4,1908.0 L 1746.0,1908.0 L 1848.6,1908.0 C 1850.4,1908.0 1856.5455844122716,1910.5455844122716 1857.8183766184075,1911.8183766184075 L 1962.0,2016.0 L 2070.0,2124.0 L 2178.0,2232.0 L 2282.1816233815925,2336.1816233815925 C 2283.4544155877284,2337.4544155877284 2289.6,2340.0 2291.4,2340.0 L 2394.0,2340.0 L 2502.0,2340.0" stroke="red"/>
    <rect stroke="none" fill-opacity="1" x="2488" y="2312" width="28" height="56" fill="red"/>
  </g>
  <g>
    <path fill="none" stroke-width="29.400000000000002" stroke-opacity="1" d="M 1854.0,1908.0 L 1958.1816233815925,1803.8183766184075 C 1959.4544155877284,1802.5455844122716 1965.6,1800.0 1967.4,1800.0 L 2070.0,1800.0" stroke="purple"/>
    <rect stroke="none" fill-opacity="1" x="2056" y="1772" width="28" height="56" fill="purple"/>
  </g>
  <g>
    <path fill="none" stroke-width="29.400000000000002" stroke-opacity="1" d="M 1314.0,2232.0 L 1314.0,2340.0 L 1314.0,2448.0 L 1314.0,2550.6 C 1314.0,2552.4 1316.5455844122716,2558.5455844122716 1317.8183766184075,2559.8183766184075 L 1422.0,2664.0 L 1530.0,2772.0 L 1634.1816233815925,2876.1816233815925 C 1635.4544155877284,2877.4544155877284 1641.6,2880.0 1643.4,2880.0 L 1746.0,2880.0 L 1854.0,2880.0" stroke="cyan"/>
    <rect stroke="none" fill-opacity="1" x="1840" y="2852" width="28" height="56" fill="cyan"/>
  </g>
  <g>
    <path fill="none" stroke-width="29.400000000000002" stroke-opacity="1" d="M 1746.0,1908.0 L 1746.0,1800.0 L 1746.0,1692.0 L 1746.0,1584.0 L 1746.0,1476.0 L 1746.0,1368.0 L 1746.0,1260.0 L 1746.0,1152.0 L 1746.0,1049.4 C 1746.0,1047.6 1743.4544155877284,1041.4544155877284 1742.1816233815925,1040.1816233815925 L 1638.0,936.0 L 1533.8183766184075,831.8183766184073 C 1532.5455844122716,830.5455844122715 1530.0,824.4 1530.0,822.6 L 1530.0,720.0" stroke="orange"/>
    <rect stroke="none" fill-opacity="1" x="1502" y="706" width="56" height="28" fill="orange"/>
  </g>
  <g>
    <path fill="none" stroke-width="29.400000000000002" stroke-opacity="1" d="M 1314.0,2232.0 L 1418.1816233815925,2336.1816233815925 C 1419.4544155877284,2337.4544155877284 1425.6,2340.0 1427.4,2340.0 L 1524.87,2340.0 C 1526.58,2340.0 1532.418305191658,2337.581694808342 1533.627457787487,2336.372542212513 L 1638.0,2232.0" stroke="darkblue"/>
    <rect stroke="none" fill-opacity="1" x="1624" y="2204" width="28" height="56" fill="darkblue"/>
  </g>
  <g>
    <path fill="none" stroke-width="29.400000000000002" stroke-opacity="1" d="M 2286.0,2340.0 L 2286.0,2237.4 C 2286.0,2235.6 2288.5455844122716,2229.4544155877284 2289.8183766184075,2228.1816233815925 L 2390.1816233815925,2127.8183766184075 C 2391.4544155877284,2126.5455844122716 2397.6,2124.0 2399.4,2124.0 L 2502.0,2124.0" stroke="gray"/>
    <rect stroke="none" fill-opacity="1" x="2488" y="2096" width="28" height="56" fill="gray"/>
  </g>
  <g>
    <path fill="none" stroke-width="29.400000000000002" stroke-opacity="1" d="M 1422.0,2124.0 L 1314.0,2016.0 L 1206.0,1908.0 L 1098.0,1800.0" stroke="green"/>
    <rect stroke="none" fill-opacity="1" x="1084" y="1772" width="28" height="56" fill="green"/>
  </g>
  <g>
    <path fill="none" stroke-width="29.400000000000002" stroke-opacity="1" d="M 1530.0,2340.0 L 1634.1816233815925,2444.1816233815925 C 1635.4544155877284,2445.4544155877284 1641.6,2448.0 1643.4,2448.0 L 1746.0,2448.0" stroke="lightblue"/>
    <rect stroke="none" fill-opacity="1" x="1732" y="2420" width="28" height="56" fill="lightblue"/>
  </g>
  <g>
    <path fill="none" stroke-width="29.400000000000002" stroke-opacity="1" d="M 1746.0,1368.0 L 1638.0,1260.0 L 1533.8183766184075,1155.8183766184075 C 1532.5455844122716,1154.5455844122716 1526.4,1152.0 1524.6,1152.0 L 1422.0,1152.0" stroke="blue"/>
    <rect stroke="none" fill-opacity="1" x="1408" y="1124" width="28" height="56" fill="blue"/>
  </g>
  <g>
    <text fill="black" stroke="none" font-size="56.0" font-family="p22" font-weight="100" text-anchor="start" dominant-baseline="central" x="2551.0" y="2340" transform="translate(2502,2340) rotate(0) translate(-2502,-2340)">Bandarawela</text>
  </g>
  <g>
    <text fill="black" stroke="none" font-size="56.0" font-family="p22" font-weight="100" text-anchor="start" dominant-baseline="central" x="2119.0" y="1800" transform="translate(2070,1800) rotate(0) translate(-2070,-1800)">Matale</text>
  </g>
  <g>
    <text fill="black" stroke="none" font-size="56.0" font-family="p22" font-weight="100" text-anchor="start" dominant-baseline="central" x="1903.0" y="2880" transform="translate(1854,2880) rotate(0) translate(-1854,-2880)">Matara</text>
  </g>
  <g>
    <text fill="black" stroke="none" font-size="56.0" font-family="p22" font-weight="100" text-anchor="start" dominant-baseline="central" x="1579.0" y="720" transform="translate(1530,720) rotate(0) translate(-1530,-720)">Kankesanthurai</text>
  </g>
  <g>
    <text fill="black" stroke="none" font-size="56.0" font-family="p22" font-weight="100" text-anchor="start" dominant-baseline="central" x="1687.0" y="2232" transform="translate(1638,2232) rotate(0) translate(-1638,-2232)">Yatiyantota</text>
  </g>
  <g>
    <text fill="black" stroke="none" font-size="56.0" font-family="p22" font-weight="100" text-anchor="start" dominant-baseline="central" x="2551.0" y="2124" transform="translate(2502,2124) rotate(0) translate(-2502,-2124)">Ragala</text>
  </g>
  <g>
    <text fill="black" stroke="none" font-size="56.0" font-family="p22" font-weight="100" text-anchor="start" dominant-baseline="central" x="1147.0" y="1800" transform="translate(1098,1800) rotate(0) translate(-1098,-1800)">Negombo</text>
  </g>
  <g>
    <text fill="black" stroke="none" font-size="56.0" font-family="p22" font-weight="100" text-anchor="start" dominant-baseline="central" x="1795.0" y="2448" transform="translate(1746,2448) rotate(0) translate(-1746,-2448)">Opanayaka</text>
  </g>
  <g>
    <text fill="black" stroke="none" font-size="56.0" font-family="p22" font-weight="100" text-anchor="end" dominant-baseline="central" x="1373.0" y="1152" transform="translate(1422,1152) rotate(0) translate(-1422,-1152)">Talaimanar Pier</text>
  </g>
  <g>
    <circle r="28" fill="white" stroke="black" stroke-width="7.0" cx="1314" cy="2232"/>
    <text fill="black" stroke="none" font-size="48.0" font-family="p22" font-weight="100" text-anchor="start" dominant-baseline="central" x="1359.0" y="2232" transform="translate(1314,2232) rotate(0) translate(-1314,-2232)">Maradana</text>
  </g>
  <g>
    <circle r="28" fill="white" stroke="black" stroke-width="7.0" cx="1422" cy="2124"/>
    <text fill="black" stroke="none" font-size="48.0" font-family="p22" font-weight="100" text-anchor="start" dominant-baseline="central" x="1467.0" y="2124" transform="translate(1422,2124) rotate(0) translate(-1422,-2124)">Ragama</text>
  </g>
  <g>
    <circle r="28" fill="white" stroke="black" stroke-width="7.0" cx="1746" cy="1908"/>
    <text fill="black" stroke="none" font-size="48.0" font-family="p22" font-weight="100" text-anchor="start" dominant-baseline="central" x="1791.0" y="1908" transform="translate(1746,1908) rotate(-45) translate(-1746,-1908)">Polgahawela</text>
  </g>
  <g>
    <circle r="28" fill="white" stroke="black" stroke-width="7.0" cx="1854" cy="1908"/>
    <text fill="black" stroke="none" font-size="48.0" font-family="p22" font-weight="100" text-anchor="start" dominant-baseline="central" x="1899.0" y="1908" transform="translate(1854,1908) rotate(0) translate(-1854,-1908)">Peradeniya</text>
  </g>
  <g>
    <circle r="28" fill="white" stroke="black" stroke-width="7.0" cx="2286" cy="2340"/>
    <text fill="black" stroke="none" font-size="48.0" font-family="p22" font-weight="100" text-anchor="end" dominant-baseline="central" x="2241.0" y="2340" transform="translate(2286,2340) rotate(0) translate(-2286,-2340)">Nanu Oya</text>
  </g>
  <g>
    <circle r="28" fill="white" stroke="black" stroke-width="7.0" cx="1746" cy="1368"/>
    <text fill="black" stroke="none" font-size="48.0" font-family="p22" font-weight="100" text-anchor="start" dominant-baseline="central" x="1791.0" y="1368" transform="translate(1746,1368) rotate(0) translate(-1746,-1368)">Medavachchiya</text>
  </g>
  <g>
    <circle r="28" fill="white" stroke="black" stroke-width="7.0" cx="1530" cy="2340"/>
    <text fill="black" stroke="none" font-size="48.0" font-family="p22" font-weight="100" text-anchor="start" dominant-baseline="central" x="1575.0" y="2340" transform="translate(1530,2340) rotate(0) translate(-1530,-2340)">Avissawella</text>
  </g>
  <g>
    <text fill="gray" stroke="none" font-size="44.0" font-family="p22" font-weight="100" text-anchor="start" dominant-baseline="central" x="1573.0" y="2016" transform="translate(1530,2016) rotate(0) translate(-1530,-2016)">Gampaha</text>
  </g>
  <g>
    <text fill="gray" stroke="none" font-size="44.0" font-family="p22" font-weight="100" text-anchor="start" dominant-baseline="central" x="2005.0" y="1800" transform="translate(1962,1800) rotate(-45) translate(-1962,-1800)">Kandy</text>
  </g>
  <g>
    <text fill="gray" stroke="none" font-size="44.0" font-family="p22" font-weight="100" text-anchor="start" dominant-baseline="central" x="1789.0" y="2880" transform="translate(1746,2880) rotate(-45) translate(-1746,-2880)">Galle</text>
  </g>
  <g>
    <text fill="gray" stroke="none" font-size="44.0" font-family="p22" font-weight="100" text-anchor="end" dominant-baseline="central" x="1703.0" y="1800" transform="translate(1746,1800) rotate(0) translate(-1746,-1800)">Kurunegala</text>
  </g>
  <g>
    <text fill="gray" stroke="none" font-size="44.0" font-family="p22" font-weight="100" text-anchor="start" dominant-baseline="central" x="1789.0" y="1584" transform="translate(1746,1584) rotate(0) translate(-1746,-1584)">Anuradhapura</text>
  </g>
  <g>
    <text fill="gray" stroke="none" font-size="44.0" font-family="p22" font-weight="100" text-anchor="start" dominant-baseline="central" x="1789.0" y="1260" transform="translate(1746,1260) rotate(0) translate(-1746,-1260)">Vavuniya</text>
  </g>
  <g>
    <text fill="gray" stroke="none" font-size="44.0" font-family="p22" font-weight="100" text-anchor="start" dominant-baseline="central" x="1789.0" y="1044" transform="translate(1746,1044) rotate(0) translate(-1746,-1044)">Kilinochchi</text>
  </g>
  <g>
    <text fill="gray" stroke="none" font-size="44.0" font-family="p22" font-weight="100" text-anchor="start" dominant-baseline="central" x="1573.0" y="828" transform="translate(1530,828) rotate(0) translate(-1530,-828)">Jaffna</text>
  </g>
  <g>
    <text fill="gray" stroke="none" font-size="44.0" font-family="p22" font-weight="100" text-anchor="start" dominant-baseline="central" x="2329.0" y="2232" transform="translate(2286,2232) rotate(0) translate(-2286,-2232)">Nuwara Eliya</text>
  </g>
  <g>
    <text fill="gray" stroke="none" font-size="44.0" font-family="p22" font-weight="100" text-anchor="end" dominant-baseline="central" x="1595.0" y="2448" transform="translate(1638,2448) rotate(0) translate(-1638,-2448)">Ratnapura</text>
  </g>
  <g>
    <text fill="gray" stroke="none" font-size="44.0" font-family="p22" font-weight="100" text-anchor="start" dominant-baseline="central" x="1573.0" y="1152" transform="translate(1530,1152) rotate(0) translate(-1530,-1152)">Mannar</text>
  </g>
  <g>
    <text fill="gray" stroke="none" font-size="40" font-family="p22" font-weight="100" text-anchor="end" dominant-baseline="central" x="1597.0" y="1908" transform="translate(1638,1908) rotate(0) translate(-1638,-1908)">Ambepussa</text>
  </g>
  <g>
    <text fill="gray" stroke="none" font-size="40" font-family="p22" font-weight="100" text-anchor="start" dominant-baseline="central" x="2003.0" y="2016" transform="translate(1962,2016) rotate(0) translate(-1962,-2016)">Gampola</text>
  </g>
  <g>
    <text fill="gray" stroke="none" font-size="40" font-family="p22" font-weight="100" text-anchor="start" dominant-baseline="central" x="2111.0" y="2124" transform="translate(2070,2124) rotate(0) translate(-2070,-2124)">Nawalapitiya</text>
  </g>
  <g>
    <text fill="gray" stroke="none" font-size="40" font-family="p22" font-weight="100" text-anchor="end" dominant-baseline="central" x="2137.0" y="2232" transform="translate(2178,2232) rotate(0) translate(-2178,-2232)">Talawakele</text>
  </g>
  <g>
    <text fill="gray" stroke="none" font-size="40" font-family="p22" font-weight="100" text-anchor="start" dominant-baseline="central" x="2435.0" y="2340" transform="translate(2394,2340) rotate(-45) translate(-2394,-2340)">Haputale</text>
  </g>
  <g>
    <text fill="gray" stroke="none" font-size="40" font-family="p22" font-weight="100" text-anchor="end" dominant-baseline="central" x="1273.0" y="2340" transform="translate(1314,2340) rotate(0) translate(-1314,-2340)">Panadura</text>
  </g>
  <g>
    <text fill="gray" stroke="none" font-size="40" font-family="p22" font-weight="100" text-anchor="start" dominant-baseline="central" x="1355.0" y="2448" transform="translate(1314,2448) rotate(0) translate(-1314,-2448)">Kalutara N.</text>
  </g>
  <g>
    <text fill="gray" stroke="none" font-size="40" font-family="p22" font-weight="100" text-anchor="start" dominant-baseline="central" x="1355.0" y="2556" transform="translate(1314,2556) rotate(0) translate(-1314,-2556)">Wadduwa</text>
  </g>
  <g>
    <text fill="gray" stroke="none" font-size="40" font-family="p22" font-weight="100" text-anchor="start" dominant-baseline="central" x="1463.0" y="2664" transform="translate(1422,2664) rotate(0) translate(-1422,-2664)">Aluthgama</text>
  </g>
  <g>
    <text fill="gray" stroke="none" font-size="40" font-family="p22" font-weight="100" text-anchor="start" dominant-baseline="central" x="1571.0" y="2772" transform="translate(1530,2772) rotate(0) translate(-1530,-2772)">Kosgoda</text>
  </g>
  <g>
    <text fill="gray" stroke="none" font-size="40" font-family="p22" font-weight="100" text-anchor="end" dominant-baseline="central" x="1597.0" y="2880" transform="translate(1638,2880) rotate(0) translate(-1638,-2880)">Ambalangoda</text>
  </g>
  <g>
    <text fill="gray" stroke="none" font-size="40" font-family="p22" font-weight="100" text-anchor="start" dominant-baseline="central" x="1787.0" y="1692" transform="translate(1746,1692) rotate(0) translate(-1746,-1692)">Maho</text>
  </g>
  <g>
    <text fill="gray" stroke="none" font-size="40" font-family="p22" font-weight="100" text-anchor="start" dominant-baseline="central" x="1787.0" y="1476" transform="translate(1746,1476) rotate(0) translate(-1746,-1476)">Mihintale Junction</text>
  </g>
  <g>
    <text fill="gray" stroke="none" font-size="40" font-family="p22" font-weight="100" text-anchor="start" dominant-baseline="central" x="1787.0" y="1152" transform="translate(1746,1152) rotate(0) translate(-1746,-1152)">Omanthai</text>
  </g>
  <g>
    <text fill="gray" stroke="none" font-size="40" font-family="p22" font-weight="100" text-anchor="start" dominant-baseline="central" x="1679.0" y="936" transform="translate(1638,936) rotate(0) translate(-1638,-936)">Pallai</text>
  </g>
  <g>
    <text fill="gray" stroke="none" font-size="40" font-family="p22" font-weight="100" text-anchor="start" dominant-baseline="central" x="1463.0" y="2340" transform="translate(1422,2340) rotate(-45) translate(-1422,-2340)">Homagama</text>
  </g>
  <g>
    <text fill="gray" stroke="none" font-size="40" font-family="p22" font-weight="100" text-anchor="end" dominant-baseline="central" x="2353.0" y="2124" transform="translate(2394,2124) rotate(0) translate(-2394,-2124)">Kandapola</text>
  </g>
  <g>
    <text fill="gray" stroke="none" font-size="40" font-family="p22" font-weight="100" text-anchor="start" dominant-baseline="central" x="1355.0" y="2016" transform="translate(1314,2016) rotate(0) translate(-1314,-2016)">Ja-Ela</text>
  </g>
  <g>
    <text fill="gray" stroke="none" font-size="40" font-family="p22" font-weight="100" text-anchor="start" dominant-baseline="central" x="1247.0" y="1908" transform="translate(1206,1908) rotate(0) translate(-1206,-1908)">Katunayake S.</text>
  </g>
  <g>
    <text fill="gray" stroke="none" font-size="40" font-family="p22" font-weight="100" text-anchor="end" dominant-baseline="central" x="1597.0" y="1260" transform="translate(1638,1260) rotate(0) translate(-1638,-1260)">Madhu Road</text>
  </g>
</svg>
