<?xml version="1.0" ?>
<svg xmlns="http://www.w3.org/2000/svg" width="2880" height="2880" padding="288">
  <text fill="#fcfcfc" stroke="none" font-size="480.0" font-family="p22" x="1440.0" y="1440.0" text-anchor="middle" dominant-baseline="center">@nuuuwan</text>
  <text fill="black" stroke="none" font-size="80" font-family="p22" x="1440.0" y="144.0" text-anchor="middle" dominant-baseline="hanging">1914</text>
  <text fill="gray" stroke="none" font-size="40" font-family="p22" x="1440.0" y="194.0" text-anchor="middle" dominant-baseline="hanging">History of the Railways in Sri Lanka</text>
  <text fill="gray" stroke="none" font-size="38.4" font-family="p22" x="1440.0" y="2776.0" text-anchor="middle" dominant-baseline="text-top">data from multiple sources ~ music by @bensound ~ visualization by @nuuuwan</text>
  <g>
    <path fill="none" stroke-width="29.400000000000002" stroke-opacity="1" d="M 806.0,2016.0 L 915.2749454191991,1905.7748376641123 C 917.1832969461327,1903.8498917760749 924.8333333333334,1896.1666666666667 926.75,1894.25 L 1030.5375,1790.4625 C 1032.3583333333333,1788.6416666666667 1039.657397187271,1781.374132098826 1041.4860957809067,1779.561198148239 L 1146.4743047890454,1675.478059907412 C 1148.3162031926968,1673.6520399382746 1155.6679527415338,1666.3320472584662 1157.5019291123006,1664.4980708876994 L 1262.9341360081773,1559.0658639918227 C 1264.2894240054516,1557.7105759945484 1270.8333333333333,1555.0 1272.75,1555.0 L 1382.0,1555.0 L 1491.25,1555.0 C 1493.1666666666667,1555.0 1499.7105759945484,1557.7105759945484 1501.0658639918227,1559.0658639918227 L 1606.4532931995911,1664.4532931995911 C 1608.302195466394,1666.302195466394 1615.71377754699,1673.681762223309 1617.570666320485,1675.5226433349635 L 1722.4785333160244,1779.526132166748 C 1724.3190222106828,1781.3507547778322 1731.6651458481867,1788.6651458481867 1733.4977187722802,1790.4977187722802 L 1837.524885938614,1894.524885938614 C 1839.349923959076,1896.349923959076 1846.6342407927589,1903.665842886609 1848.4513611891384,1905.4987643299135 L 1953.9517750832524,2011.9165731274547 C 1955.301183388835,2013.2777154183032 1961.8333333333333,2016.0 1963.75,2016.0 L 2073.0,2016.0 L 2188.0,2016.0" stroke="red"/>
    <rect stroke="none" fill-opacity="1" x="2174" y="1988" width="28" height="56" fill="red"/>
  </g>
  <g>
    <path fill="none" stroke-width="29.400000000000002" stroke-opacity="1" d="M 1497.0,1555.0 L 1607.898780669118,1444.101219330882 C 1609.265853779412,1442.734146220588 1615.8666666666666,1440.0 1617.8,1440.0 L 1728.0,1440.0" stroke="purple"/>
    <rect stroke="none" fill-opacity="1" x="1714" y="1412" width="28" height="56" fill="purple"/>
  </g>
  <g>
    <path fill="none" stroke-width="29.400000000000002" stroke-opacity="1" d="M 806.0,2016.0 L 806.0,2131.0 L 806.0,2240.25 C 806.0,2242.1666666666665 808.7105759945484,2248.7105759945484 810.0658639918227,2250.0658639918224 L 921.0,2361.0 L 1036.0,2476.0 L 1147.9341360081773,2587.9341360081776 C 1149.2894240054516,2589.2894240054516 1155.8333333333333,2592.0 1157.75,2592.0 L 1267.0,2592.0 L 1382.0,2592.0" stroke="cyan"/>
    <rect stroke="none" fill-opacity="1" x="1368" y="2564" width="28" height="56" fill="cyan"/>
  </g>
  <g>
    <path fill="none" stroke-width="29.400000000000002" stroke-opacity="1" d="M 1382.0,1555.0 L 1382.0,1440.0 L 1382.0,1324.0 L 1382.0,1209.0 L 1382.0,1094.0 L 1382.0,979.0 L 1382.0,864.0 L 1382.0,748.0 L 1382.0,638.75 C 1382.0,636.8333333333334 1379.2894240054516,630.2894240054516 1377.9341360081773,628.9341360081773 L 1267.0,518.0 L 1156.0658639918227,407.06586399182265 C 1154.7105759945484,405.71057599454844 1152.0,399.1666666666667 1152.0,397.25 L 1152.0,288.0" stroke="orange"/>
    <rect stroke="none" fill-opacity="1" x="1124" y="274" width="56" height="28" fill="orange"/>
  </g>
  <g>
    <path fill="none" stroke-width="29.400000000000002" stroke-opacity="1" d="M 921.0,1900.0 L 1031.9165731274547,2011.8810650676935 C 1033.2777154183032,2013.2540433784623 1039.8666666666666,2016.0 1041.8,2016.0 L 1146.49,2016.0 C 1148.3266666666666,2016.0 1154.586170352612,2013.3913412095392 1155.879255528918,2012.0870118143089 L 1267.0,1900.0" stroke="darkblue"/>
    <rect stroke="none" fill-opacity="1" x="1253" y="1872" width="28" height="56" fill="darkblue"/>
  </g>
  <g>
    <path fill="none" stroke-width="29.400000000000002" stroke-opacity="1" d="M 1958.0,2016.0 L 1958.0,1905.8 C 1958.0,1903.8666666666666 1960.734146220588,1897.265853779412 1962.101219330882,1895.898780669118 L 2068.9341360081776,1789.0658639918227 C 2070.2894240054516,1787.7105759945484 2076.8333333333335,1785.0 2078.75,1785.0 L 2188.0,1785.0" stroke="gray"/>
    <rect stroke="none" fill-opacity="1" x="2174" y="1757" width="28" height="56" fill="gray"/>
  </g>
  <g>
    <path fill="none" stroke-width="29.400000000000002" stroke-opacity="1" d="M 1036.0,1785.0 L 921.0,1670.0 L 806.0,1555.0 L 691.0,1440.0" stroke="green"/>
    <rect stroke="none" fill-opacity="1" x="677" y="1412" width="28" height="56" fill="green"/>
  </g>
  <g>
    <path fill="none" stroke-width="29.400000000000002" stroke-opacity="1" d="M 1152.0,2016.0 L 1262.9341360081773,2126.9341360081776 C 1264.2894240054516,2128.2894240054516 1270.8333333333333,2131.0 1272.75,2131.0 L 1382.0,2131.0" stroke="lightblue"/>
    <rect stroke="none" fill-opacity="1" x="1368" y="2103" width="28" height="56" fill="lightblue"/>
  </g>
  <g>
    <path fill="none" stroke-width="29.400000000000002" stroke-opacity="1" d="M 1382.0,979.0 L 1272.75,869.75 C 1270.8333333333333,867.8333333333334 1263.1832969461327,860.1501082239251 1261.274945419199,858.2251623358877 L 1156.0834268725453,752.1189349323065 C 1154.7222845816968,750.7459566215377 1148.1333333333334,748.0 1146.2,748.0 L 1036.0,748.0" stroke="blue"/>
    <rect stroke="none" fill-opacity="1" x="1022" y="720" width="28" height="56" fill="blue"/>
  </g>
  <g>
    <text fill="black" stroke="none" font-size="56.0" font-family="p22" font-weight="100" text-anchor="start" dominant-baseline="central" x="2237.0" y="2016" transform="translate(2188,2016) rotate(0) translate(-2188,-2016)">Bandarawela</text>
  </g>
  <g>
    <text fill="black" stroke="none" font-size="56.0" font-family="p22" font-weight="100" text-anchor="start" dominant-baseline="central" x="1777.0" y="1440" transform="translate(1728,1440) rotate(0) translate(-1728,-1440)">MATALE</text>
  </g>
  <g>
    <text fill="black" stroke="none" font-size="56.0" font-family="p22" font-weight="100" text-anchor="start" dominant-baseline="central" x="1431.0" y="2592" transform="translate(1382,2592) rotate(0) translate(-1382,-2592)">MATARA</text>
  </g>
  <g>
    <text fill="black" stroke="none" font-size="56.0" font-family="p22" font-weight="100" text-anchor="start" dominant-baseline="central" x="1201.0" y="288" transform="translate(1152,288) rotate(0) translate(-1152,-288)">Kankesanthurai</text>
  </g>
  <g>
    <text fill="black" stroke="none" font-size="56.0" font-family="p22" font-weight="100" text-anchor="start" dominant-baseline="central" x="1316.0" y="1900" transform="translate(1267,1900) rotate(0) translate(-1267,-1900)">Yatiyantota</text>
  </g>
  <g>
    <text fill="black" stroke="none" font-size="56.0" font-family="p22" font-weight="100" text-anchor="start" dominant-baseline="central" x="2237.0" y="1785" transform="translate(2188,1785) rotate(0) translate(-2188,-1785)">Ragala</text>
  </g>
  <g>
    <text fill="black" stroke="none" font-size="56.0" font-family="p22" font-weight="100" text-anchor="start" dominant-baseline="central" x="740.0" y="1440" transform="translate(691,1440) rotate(0) translate(-691,-1440)">Negombo</text>
  </g>
  <g>
    <text fill="black" stroke="none" font-size="56.0" font-family="p22" font-weight="100" text-anchor="start" dominant-baseline="central" x="1431.0" y="2131" transform="translate(1382,2131) rotate(0) translate(-1382,-2131)">Opanayaka</text>
  </g>
  <g>
    <text fill="black" stroke="none" font-size="56.0" font-family="p22" font-weight="100" text-anchor="end" dominant-baseline="central" x="987.0" y="748" transform="translate(1036,748) rotate(0) translate(-1036,-748)">Talaimanar Pier</text>
  </g>
  <g>
    <circle r="28" fill="white" stroke="black" stroke-width="7.0" cx="806" cy="2016"/>
    <text fill="black" stroke="none" font-size="48.0" font-family="p22" font-weight="100" text-anchor="end" dominant-baseline="central" x="761.0" y="2016" transform="translate(806,2016) rotate(0) translate(-806,-2016)">COLOMBO Fort</text>
  </g>
  <g>
    <circle r="28" fill="white" stroke="black" stroke-width="7.0" cx="921" cy="1900"/>
    <text fill="black" stroke="none" font-size="48.0" font-family="p22" font-weight="100" text-anchor="end" dominant-baseline="central" x="876.0" y="1900" transform="translate(921,1900) rotate(0) translate(-921,-1900)">Maradana</text>
  </g>
  <g>
    <circle r="28" fill="white" stroke="black" stroke-width="7.0" cx="1036" cy="1785"/>
    <text fill="black" stroke="none" font-size="48.0" font-family="p22" font-weight="100" text-anchor="start" dominant-baseline="central" x="1081.0" y="1785" transform="translate(1036,1785) rotate(0) translate(-1036,-1785)">Ragama</text>
  </g>
  <g>
    <circle r="28" fill="white" stroke="black" stroke-width="7.0" cx="1382" cy="1555"/>
    <text fill="black" stroke="none" font-size="48.0" font-family="p22" font-weight="100" text-anchor="start" dominant-baseline="central" x="1427.0" y="1555" transform="translate(1382,1555) rotate(-45) translate(-1382,-1555)">Polgahawela</text>
  </g>
  <g>
    <circle r="28" fill="white" stroke="black" stroke-width="7.0" cx="1497" cy="1555"/>
    <text fill="black" stroke="none" font-size="48.0" font-family="p22" font-weight="100" text-anchor="start" dominant-baseline="central" x="1542.0" y="1555" transform="translate(1497,1555) rotate(0) translate(-1497,-1555)">Peradeniya</text>
  </g>
  <g>
    <circle r="28" fill="white" stroke="black" stroke-width="7.0" cx="1958" cy="2016"/>
    <text fill="black" stroke="none" font-size="48.0" font-family="p22" font-weight="100" text-anchor="end" dominant-baseline="central" x="1913.0" y="2016" transform="translate(1958,2016) rotate(0) translate(-1958,-2016)">Nanu Oya</text>
  </g>
  <g>
    <circle r="28" fill="white" stroke="black" stroke-width="7.0" cx="1382" cy="979"/>
    <text fill="black" stroke="none" font-size="48.0" font-family="p22" font-weight="100" text-anchor="start" dominant-baseline="central" x="1427.0" y="979" transform="translate(1382,979) rotate(0) translate(-1382,-979)">Medavachchiya</text>
  </g>
  <g>
    <circle r="28" fill="white" stroke="black" stroke-width="7.0" cx="1152" cy="2016"/>
    <text fill="black" stroke="none" font-size="48.0" font-family="p22" font-weight="100" text-anchor="start" dominant-baseline="central" x="1197.0" y="2016" transform="translate(1152,2016) rotate(0) translate(-1152,-2016)">Avissawella</text>
  </g>
  <g>
    <text fill="gray" stroke="none" font-size="44.0" font-family="p22" font-weight="100" text-anchor="start" dominant-baseline="central" x="1195.0" y="1670" transform="translate(1152,1670) rotate(0) translate(-1152,-1670)">GAMPAHA</text>
  </g>
  <g>
    <text fill="gray" stroke="none" font-size="44.0" font-family="p22" font-weight="100" text-anchor="start" dominant-baseline="central" x="1655.0" y="1440" transform="translate(1612,1440) rotate(-45) translate(-1612,-1440)">KANDY</text>
  </g>
  <g>
    <text fill="gray" stroke="none" font-size="44.0" font-family="p22" font-weight="100" text-anchor="start" dominant-baseline="central" x="1310.0" y="2592" transform="translate(1267,2592) rotate(-45) translate(-1267,-2592)">GALLE</text>
  </g>
  <g>
    <text fill="gray" stroke="none" font-size="44.0" font-family="p22" font-weight="100" text-anchor="start" dominant-baseline="central" x="1425.0" y="1440" transform="translate(1382,1440) rotate(-45) translate(-1382,-1440)">KURUNEGALA</text>
  </g>
  <g>
    <text fill="gray" stroke="none" font-size="44.0" font-family="p22" font-weight="100" text-anchor="end" dominant-baseline="central" x="1339.0" y="1209" transform="translate(1382,1209) rotate(0) translate(-1382,-1209)">ANURADHAPURA</text>
  </g>
  <g>
    <text fill="gray" stroke="none" font-size="44.0" font-family="p22" font-weight="100" text-anchor="start" dominant-baseline="central" x="1425.0" y="864" transform="translate(1382,864) rotate(0) translate(-1382,-864)">VAVUNIYA</text>
  </g>
  <g>
    <text fill="gray" stroke="none" font-size="44.0" font-family="p22" font-weight="100" text-anchor="start" dominant-baseline="central" x="1425.0" y="633" transform="translate(1382,633) rotate(0) translate(-1382,-633)">KILINOCHCHI</text>
  </g>
  <g>
    <text fill="gray" stroke="none" font-size="44.0" font-family="p22" font-weight="100" text-anchor="start" dominant-baseline="central" x="1195.0" y="403" transform="translate(1152,403) rotate(0) translate(-1152,-403)">JAFFNA</text>
  </g>
  <g>
    <text fill="gray" stroke="none" font-size="44.0" font-family="p22" font-weight="100" text-anchor="start" dominant-baseline="central" x="2001.0" y="1900" transform="translate(1958,1900) rotate(0) translate(-1958,-1900)">NUWARA ELIYA</text>
  </g>
  <g>
    <text fill="gray" stroke="none" font-size="44.0" font-family="p22" font-weight="100" text-anchor="end" dominant-baseline="central" x="1224.0" y="2131" transform="translate(1267,2131) rotate(0) translate(-1267,-2131)">RATNAPURA</text>
  </g>
  <g>
    <text fill="gray" stroke="none" font-size="44.0" font-family="p22" font-weight="100" text-anchor="end" dominant-baseline="central" x="1109.0" y="748" transform="translate(1152,748) rotate(45) translate(-1152,-748)">MANNAR</text>
  </g>
  <g>
    <text fill="gray" stroke="none" font-size="40" font-family="p22" font-weight="100" text-anchor="end" dominant-baseline="central" x="1226.0" y="1555" transform="translate(1267,1555) rotate(0) translate(-1267,-1555)">Ambepussa</text>
  </g>
  <g>
    <text fill="gray" stroke="none" font-size="40" font-family="p22" font-weight="100" text-anchor="start" dominant-baseline="central" x="1653.0" y="1670" transform="translate(1612,1670) rotate(0) translate(-1612,-1670)">Gampola</text>
  </g>
  <g/>
  <g>
    <text fill="gray" stroke="none" font-size="40" font-family="p22" font-weight="100" text-anchor="start" dominant-baseline="central" x="1884.0" y="1900" transform="translate(1843,1900) rotate(-45) translate(-1843,-1900)">Talawakele</text>
  </g>
  <g>
    <text fill="gray" stroke="none" font-size="40" font-family="p22" font-weight="100" text-anchor="start" dominant-baseline="central" x="2114.0" y="2016" transform="translate(2073,2016) rotate(-315) translate(-2073,-2016)">Haputale</text>
  </g>
  <g>
    <text fill="gray" stroke="none" font-size="40" font-family="p22" font-weight="100" text-anchor="end" dominant-baseline="central" x="765.0" y="2131" transform="translate(806,2131) rotate(0) translate(-806,-2131)">Panadura</text>
  </g>
  <g>
    <text fill="gray" stroke="none" font-size="40" font-family="p22" font-weight="100" text-anchor="start" dominant-baseline="central" x="847.0" y="2246" transform="translate(806,2246) rotate(0) translate(-806,-2246)">KALUTARA North</text>
  </g>
  <g>
    <text fill="gray" stroke="none" font-size="40" font-family="p22" font-weight="100" text-anchor="start" dominant-baseline="central" x="962.0" y="2361" transform="translate(921,2361) rotate(0) translate(-921,-2361)">Aluthgama</text>
  </g>
  <g>
    <text fill="gray" stroke="none" font-size="40" font-family="p22" font-weight="100" text-anchor="end" dominant-baseline="central" x="995.0" y="2476" transform="translate(1036,2476) rotate(0) translate(-1036,-2476)">Kosgoda</text>
  </g>
  <g>
    <text fill="gray" stroke="none" font-size="40" font-family="p22" font-weight="100" text-anchor="end" dominant-baseline="central" x="1111.0" y="2592" transform="translate(1152,2592) rotate(0) translate(-1152,-2592)">Ambalangoda</text>
  </g>
  <g>
    <text fill="gray" stroke="none" font-size="40" font-family="p22" font-weight="100" text-anchor="end" dominant-baseline="central" x="1341.0" y="1324" transform="translate(1382,1324) rotate(0) translate(-1382,-1324)">Maho</text>
  </g>
  <g>
    <text fill="gray" stroke="none" font-size="40" font-family="p22" font-weight="100" text-anchor="end" dominant-baseline="central" x="1341.0" y="1094" transform="translate(1382,1094) rotate(0) translate(-1382,-1094)">Mihintale Junction</text>
  </g>
  <g>
    <text fill="gray" stroke="none" font-size="40" font-family="p22" font-weight="100" text-anchor="start" dominant-baseline="central" x="1423.0" y="748" transform="translate(1382,748) rotate(0) translate(-1382,-748)">Omanthai</text>
  </g>
  <g>
    <text fill="gray" stroke="none" font-size="40" font-family="p22" font-weight="100" text-anchor="start" dominant-baseline="central" x="1308.0" y="518" transform="translate(1267,518) rotate(0) translate(-1267,-518)">Pallai</text>
  </g>
  <g/>
  <g>
    <text fill="gray" stroke="none" font-size="40" font-family="p22" font-weight="100" text-anchor="start" dominant-baseline="central" x="2114.0" y="1785" transform="translate(2073,1785) rotate(-45) translate(-2073,-1785)">Kandapola</text>
  </g>
  <g>
    <text fill="gray" stroke="none" font-size="40" font-family="p22" font-weight="100" text-anchor="end" dominant-baseline="central" x="880.0" y="1670" transform="translate(921,1670) rotate(0) translate(-921,-1670)">Ja-Ela</text>
  </g>
  <g>
    <text fill="gray" stroke="none" font-size="40" font-family="p22" font-weight="100" text-anchor="end" dominant-baseline="central" x="765.0" y="1555" transform="translate(806,1555) rotate(0) translate(-806,-1555)">Katunayake South</text>
  </g>
  <g>
    <text fill="gray" stroke="none" font-size="40" font-family="p22" font-weight="100" text-anchor="end" dominant-baseline="central" x="1226.0" y="864" transform="translate(1267,864) rotate(0) translate(-1267,-864)">Madhu Road</text>
  </g>
</svg>
