<?xml version="1.0" ?>
<svg xmlns="http://www.w3.org/2000/svg" width="3600" height="3600" padding="360">
  <text fill="#fcfcfc" stroke="none" font-size="600.0" font-family="p22" x="1800.0" y="1800.0" text-anchor="middle" dominant-baseline="center">@nuuuwan</text>
  <text fill="black" stroke="none" font-size="120" font-family="p22" x="1800.0" y="180.0" text-anchor="middle" dominant-baseline="hanging">1915</text>
  <text fill="gray" stroke="none" font-size="40" font-family="p22" x="1800.0" y="230.0" text-anchor="middle" dominant-baseline="hanging">Railways in Sri Lanka</text>
  <text fill="gray" stroke="none" font-size="40" font-family="p22" x="1800.0" y="3460.0" text-anchor="middle" dominant-baseline="text-top">data from multiple sources ~ music by @bensound ~ visualization by @nuuuwan</text>
  <g>
    <path fill="none" stroke-width="29.400000000000002" stroke-opacity="1" d="M 1008.0,2520.0 L 1152.0,2376.0 L 1296.0,2232.0 L 1440.0,2088.0 L 1578.908831175457,1949.091168824543 C 1580.6058874503046,1947.3941125496954 1588.8,1944.0 1591.2,1944.0 L 1728.0,1944.0 L 1864.8,1944.0 C 1867.2,1944.0 1875.3941125496954,1947.3941125496954 1877.091168824543,1949.091168824543 L 2016.0,2088.0 L 2160.0,2232.0 L 2304.0,2376.0 L 2442.9088311754567,2514.9088311754567 C 2444.6058874503046,2516.6058874503046 2452.8,2520.0 2455.2,2520.0 L 2592.0,2520.0 L 2736.0,2520.0" stroke="red"/>
    <rect stroke="none" fill-opacity="1" x="2722" y="2492" width="28" height="56" fill="red"/>
  </g>
  <g>
    <path fill="none" stroke-width="29.400000000000002" stroke-opacity="1" d="M 1872.0,1944.0 L 2010.908831175457,1805.091168824543 C 2012.6058874503046,1803.3941125496954 2020.8,1800.0 2023.2,1800.0 L 2160.0,1800.0" stroke="purple"/>
    <rect stroke="none" fill-opacity="1" x="2146" y="1772" width="28" height="56" fill="purple"/>
  </g>
  <g>
    <path fill="none" stroke-width="29.400000000000002" stroke-opacity="1" d="M 1008.0,2520.0 L 1008.0,2664.0 L 1008.0,2800.8 C 1008.0,2803.2 1011.3941125496955,2811.3941125496954 1013.0911688245432,2813.0911688245433 L 1152.0,2952.0 L 1296.0,3096.0 L 1434.908831175457,3234.9088311754567 C 1436.6058874503046,3236.6058874503046 1444.8,3240.0 1447.2,3240.0 L 1584.0,3240.0 L 1728.0,3240.0" stroke="cyan"/>
    <rect stroke="none" fill-opacity="1" x="1714" y="3212" width="28" height="56" fill="cyan"/>
  </g>
  <g>
    <path fill="none" stroke-width="29.400000000000002" stroke-opacity="1" d="M 1728.0,1944.0 L 1728.0,1800.0 L 1728.0,1655.0 L 1728.0,1512.0 L 1728.0,1368.0 L 1728.0,1224.0 L 1728.0,1080.0 L 1728.0,935.0 L 1728.0,799.15 C 1728.0,796.7666666666667 1724.6294576763441,788.6294576763441 1722.944186514516,786.9441865145162 L 1584.0,648.0 L 1445.091168824543,509.09116882454316 C 1443.3941125496954,507.3941125496954 1440.0,499.2 1440.0,496.8 L 1440.0,360.0" stroke="orange"/>
    <rect stroke="none" fill-opacity="1" x="1412" y="346" width="56" height="28" fill="orange"/>
  </g>
  <g>
    <path fill="none" stroke-width="29.400000000000002" stroke-opacity="1" d="M 1152.0,2376.0 L 1290.908831175457,2514.9088311754567 C 1292.6058874503046,2516.6058874503046 1300.8,2520.0 1303.2,2520.0 L 1433.16,2520.0 C 1435.44,2520.0 1443.2244069222106,2516.7755930777894 1444.836610383316,2515.163389616684 L 1584.0,2376.0" stroke="darkblue"/>
    <rect stroke="none" fill-opacity="1" x="1570" y="2348" width="28" height="56" fill="darkblue"/>
  </g>
  <g>
    <path fill="none" stroke-width="29.400000000000002" stroke-opacity="1" d="M 2448.0,2520.0 L 2448.0,2383.2 C 2448.0,2380.8 2451.3941125496954,2372.6058874503046 2453.0911688245433,2370.9088311754567 L 2586.9088311754567,2237.0911688245433 C 2588.6058874503046,2235.3941125496954 2596.8,2232.0 2599.2,2232.0 L 2736.0,2232.0" stroke="gray"/>
    <rect stroke="none" fill-opacity="1" x="2722" y="2204" width="28" height="56" fill="gray"/>
  </g>
  <g>
    <path fill="none" stroke-width="29.400000000000002" stroke-opacity="1" d="M 1296.0,2232.0 L 1152.0,2088.0 L 1008.0,1944.0 L 869.1265241636024,1805.1265241636024 C 867.417682775735,1803.4176827757349 864.0,1795.1666666666667 864.0,1792.75 L 864.0,1655.0" stroke="green"/>
    <rect stroke="none" fill-opacity="1" x="836" y="1641" width="56" height="28" fill="green"/>
  </g>
  <g>
    <path fill="none" stroke-width="29.400000000000002" stroke-opacity="1" d="M 1440.0,2520.0 L 1578.908831175457,2658.9088311754567 C 1580.6058874503046,2660.6058874503046 1588.8,2664.0 1591.2,2664.0 L 1728.0,2664.0" stroke="lightblue"/>
    <rect stroke="none" fill-opacity="1" x="1714" y="2636" width="28" height="56" fill="lightblue"/>
  </g>
  <g>
    <path fill="none" stroke-width="29.400000000000002" stroke-opacity="1" d="M 1728.0,1224.0 L 1591.2,1087.2 C 1588.8,1084.8 1579.2166376321406,1075.1834198379195 1576.824956448211,1072.7751297568793 L 1445.0735219507787,940.1087547421037 C 1443.3823479671858,938.4058364947357 1435.2,935.0 1432.8,935.0 L 1296.0,935.0" stroke="blue"/>
    <rect stroke="none" fill-opacity="1" x="1282" y="907" width="28" height="56" fill="blue"/>
  </g>
  <g>
    <text fill="black" stroke="none" font-size="56.0" font-family="p22" font-weight="100" text-anchor="start" dominant-baseline="central" x="2785.0" y="2520" transform="translate(2736,2520) rotate(0) translate(-2736,-2520)">Bandarawela</text>
  </g>
  <g>
    <text fill="black" stroke="none" font-size="56.0" font-family="p22" font-weight="100" text-anchor="start" dominant-baseline="central" x="2209.0" y="1800" transform="translate(2160,1800) rotate(0) translate(-2160,-1800)">MATALE</text>
  </g>
  <g>
    <text fill="black" stroke="none" font-size="56.0" font-family="p22" font-weight="100" text-anchor="start" dominant-baseline="central" x="1777.0" y="3240" transform="translate(1728,3240) rotate(0) translate(-1728,-3240)">MATARA</text>
  </g>
  <g>
    <text fill="black" stroke="none" font-size="56.0" font-family="p22" font-weight="100" text-anchor="start" dominant-baseline="central" x="1489.0" y="360" transform="translate(1440,360) rotate(0) translate(-1440,-360)">Kankesanthurai</text>
  </g>
  <g>
    <text fill="black" stroke="none" font-size="56.0" font-family="p22" font-weight="100" text-anchor="start" dominant-baseline="central" x="1633.0" y="2376" transform="translate(1584,2376) rotate(0) translate(-1584,-2376)">Yatiyantota</text>
  </g>
  <g>
    <text fill="black" stroke="none" font-size="56.0" font-family="p22" font-weight="100" text-anchor="start" dominant-baseline="central" x="2785.0" y="2232" transform="translate(2736,2232) rotate(0) translate(-2736,-2232)">Ragala</text>
  </g>
  <g>
    <text fill="black" stroke="none" font-size="56.0" font-family="p22" font-weight="100" text-anchor="start" dominant-baseline="central" x="913.0" y="1655" transform="translate(864,1655) rotate(0) translate(-864,-1655)">Madampe</text>
  </g>
  <g>
    <text fill="black" stroke="none" font-size="56.0" font-family="p22" font-weight="100" text-anchor="start" dominant-baseline="central" x="1777.0" y="2664" transform="translate(1728,2664) rotate(0) translate(-1728,-2664)">Opanayaka</text>
  </g>
  <g>
    <text fill="black" stroke="none" font-size="56.0" font-family="p22" font-weight="100" text-anchor="end" dominant-baseline="central" x="1247.0" y="935" transform="translate(1296,935) rotate(0) translate(-1296,-935)">Talaimanar Pier</text>
  </g>
  <g>
    <circle r="28" fill="white" stroke="black" stroke-width="7.0" cx="1008" cy="2520"/>
    <text fill="black" stroke="none" font-size="48.0" font-family="p22" font-weight="100" text-anchor="start" dominant-baseline="central" x="1053.0" y="2520" transform="translate(1008,2520) rotate(0) translate(-1008,-2520)">COLOMBO Fort</text>
  </g>
  <g>
    <circle r="28" fill="white" stroke="black" stroke-width="7.0" cx="1152" cy="2376"/>
    <text fill="black" stroke="none" font-size="48.0" font-family="p22" font-weight="100" text-anchor="start" dominant-baseline="central" x="1197.0" y="2376" transform="translate(1152,2376) rotate(0) translate(-1152,-2376)">Maradana</text>
  </g>
  <g>
    <circle r="28" fill="white" stroke="black" stroke-width="7.0" cx="1296" cy="2232"/>
    <text fill="black" stroke="none" font-size="48.0" font-family="p22" font-weight="100" text-anchor="start" dominant-baseline="central" x="1341.0" y="2232" transform="translate(1296,2232) rotate(0) translate(-1296,-2232)">Ragama</text>
  </g>
  <g>
    <circle r="28" fill="white" stroke="black" stroke-width="7.0" cx="1728" cy="1944"/>
    <text fill="black" stroke="none" font-size="48.0" font-family="p22" font-weight="100" text-anchor="start" dominant-baseline="central" x="1773.0" y="1944" transform="translate(1728,1944) rotate(-45) translate(-1728,-1944)">Polgahawela</text>
  </g>
  <g>
    <circle r="28" fill="white" stroke="black" stroke-width="7.0" cx="1872" cy="1944"/>
    <text fill="black" stroke="none" font-size="48.0" font-family="p22" font-weight="100" text-anchor="start" dominant-baseline="central" x="1917.0" y="1944" transform="translate(1872,1944) rotate(0) translate(-1872,-1944)">Peradeniya</text>
  </g>
  <g>
    <circle r="28" fill="white" stroke="black" stroke-width="7.0" cx="2448" cy="2520"/>
    <text fill="black" stroke="none" font-size="48.0" font-family="p22" font-weight="100" text-anchor="end" dominant-baseline="central" x="2403.0" y="2520" transform="translate(2448,2520) rotate(0) translate(-2448,-2520)">Nanu Oya</text>
  </g>
  <g>
    <circle r="28" fill="white" stroke="black" stroke-width="7.0" cx="1728" cy="1224"/>
    <text fill="black" stroke="none" font-size="48.0" font-family="p22" font-weight="100" text-anchor="start" dominant-baseline="central" x="1773.0" y="1224" transform="translate(1728,1224) rotate(0) translate(-1728,-1224)">Medavachchiya</text>
  </g>
  <g>
    <circle r="28" fill="white" stroke="black" stroke-width="7.0" cx="1440" cy="2520"/>
    <text fill="black" stroke="none" font-size="48.0" font-family="p22" font-weight="100" text-anchor="start" dominant-baseline="central" x="1485.0" y="2520" transform="translate(1440,2520) rotate(0) translate(-1440,-2520)">Avissawella</text>
  </g>
  <g>
    <text fill="gray" stroke="none" font-size="44.0" font-family="p22" font-weight="100" text-anchor="start" dominant-baseline="central" x="1483.0" y="2088" transform="translate(1440,2088) rotate(0) translate(-1440,-2088)">GAMPAHA</text>
  </g>
  <g>
    <text fill="gray" stroke="none" font-size="44.0" font-family="p22" font-weight="100" text-anchor="start" dominant-baseline="central" x="2059.0" y="1800" transform="translate(2016,1800) rotate(-45) translate(-2016,-1800)">KANDY</text>
  </g>
  <g>
    <text fill="gray" stroke="none" font-size="44.0" font-family="p22" font-weight="100" text-anchor="start" dominant-baseline="central" x="1627.0" y="3240" transform="translate(1584,3240) rotate(-45) translate(-1584,-3240)">GALLE</text>
  </g>
  <g>
    <text fill="gray" stroke="none" font-size="44.0" font-family="p22" font-weight="100" text-anchor="end" dominant-baseline="central" x="1685.0" y="1800" transform="translate(1728,1800) rotate(0) translate(-1728,-1800)">KURUNEGALA</text>
  </g>
  <g>
    <text fill="gray" stroke="none" font-size="44.0" font-family="p22" font-weight="100" text-anchor="start" dominant-baseline="central" x="1771.0" y="1512" transform="translate(1728,1512) rotate(0) translate(-1728,-1512)">ANURADHAPURA</text>
  </g>
  <g>
    <text fill="gray" stroke="none" font-size="44.0" font-family="p22" font-weight="100" text-anchor="start" dominant-baseline="central" x="1771.0" y="1080" transform="translate(1728,1080) rotate(0) translate(-1728,-1080)">VAVUNIYA</text>
  </g>
  <g>
    <text fill="gray" stroke="none" font-size="44.0" font-family="p22" font-weight="100" text-anchor="start" dominant-baseline="central" x="1771.0" y="792" transform="translate(1728,792) rotate(0) translate(-1728,-792)">KILINOCHCHI</text>
  </g>
  <g>
    <text fill="gray" stroke="none" font-size="44.0" font-family="p22" font-weight="100" text-anchor="start" dominant-baseline="central" x="1483.0" y="504" transform="translate(1440,504) rotate(0) translate(-1440,-504)">JAFFNA</text>
  </g>
  <g>
    <text fill="gray" stroke="none" font-size="44.0" font-family="p22" font-weight="100" text-anchor="start" dominant-baseline="central" x="2491.0" y="2376" transform="translate(2448,2376) rotate(0) translate(-2448,-2376)">NUWARA ELIYA</text>
  </g>
  <g>
    <text fill="gray" stroke="none" font-size="44.0" font-family="p22" font-weight="100" text-anchor="end" dominant-baseline="central" x="1541.0" y="2664" transform="translate(1584,2664) rotate(0) translate(-1584,-2664)">RATNAPURA</text>
  </g>
  <g>
    <text fill="gray" stroke="none" font-size="44.0" font-family="p22" font-weight="100" text-anchor="start" dominant-baseline="central" x="1483.0" y="935" transform="translate(1440,935) rotate(0) translate(-1440,-935)">MANNAR</text>
  </g>
  <g>
    <text fill="gray" stroke="none" font-size="40" font-family="p22" font-weight="100" text-anchor="end" dominant-baseline="central" x="1543.0" y="1944" transform="translate(1584,1944) rotate(0) translate(-1584,-1944)">Ambepussa</text>
  </g>
  <g>
    <text fill="gray" stroke="none" font-size="40" font-family="p22" font-weight="100" text-anchor="start" dominant-baseline="central" x="2057.0" y="2088" transform="translate(2016,2088) rotate(0) translate(-2016,-2088)">Gampola</text>
  </g>
  <g>
    <text fill="gray" stroke="none" font-size="40" font-family="p22" font-weight="100" text-anchor="start" dominant-baseline="central" x="2201.0" y="2232" transform="translate(2160,2232) rotate(0) translate(-2160,-2232)">Nawalapitiya</text>
  </g>
  <g>
    <text fill="gray" stroke="none" font-size="40" font-family="p22" font-weight="100" text-anchor="end" dominant-baseline="central" x="2263.0" y="2376" transform="translate(2304,2376) rotate(0) translate(-2304,-2376)">Talawakele</text>
  </g>
  <g>
    <text fill="gray" stroke="none" font-size="40" font-family="p22" font-weight="100" text-anchor="start" dominant-baseline="central" x="2633.0" y="2520" transform="translate(2592,2520) rotate(-45) translate(-2592,-2520)">Haputale</text>
  </g>
  <g>
    <text fill="gray" stroke="none" font-size="40" font-family="p22" font-weight="100" text-anchor="start" dominant-baseline="central" x="1049.0" y="2664" transform="translate(1008,2664) rotate(0) translate(-1008,-2664)">Panadura</text>
  </g>
  <g>
    <text fill="gray" stroke="none" font-size="40" font-family="p22" font-weight="100" text-anchor="start" dominant-baseline="central" x="1049.0" y="2808" transform="translate(1008,2808) rotate(0) translate(-1008,-2808)">KALUTARA North</text>
  </g>
  <g>
    <text fill="gray" stroke="none" font-size="40" font-family="p22" font-weight="100" text-anchor="start" dominant-baseline="central" x="1193.0" y="2952" transform="translate(1152,2952) rotate(0) translate(-1152,-2952)">Aluthgama</text>
  </g>
  <g>
    <text fill="gray" stroke="none" font-size="40" font-family="p22" font-weight="100" text-anchor="start" dominant-baseline="central" x="1337.0" y="3096" transform="translate(1296,3096) rotate(0) translate(-1296,-3096)">Kosgoda</text>
  </g>
  <g>
    <text fill="gray" stroke="none" font-size="40" font-family="p22" font-weight="100" text-anchor="end" dominant-baseline="central" x="1399.0" y="3240" transform="translate(1440,3240) rotate(0) translate(-1440,-3240)">Ambalangoda</text>
  </g>
  <g>
    <text fill="gray" stroke="none" font-size="40" font-family="p22" font-weight="100" text-anchor="start" dominant-baseline="central" x="1769.0" y="1655" transform="translate(1728,1655) rotate(0) translate(-1728,-1655)">Maho</text>
  </g>
  <g>
    <text fill="gray" stroke="none" font-size="40" font-family="p22" font-weight="100" text-anchor="start" dominant-baseline="central" x="1769.0" y="1368" transform="translate(1728,1368) rotate(0) translate(-1728,-1368)">Mihintale Junction</text>
  </g>
  <g>
    <text fill="gray" stroke="none" font-size="40" font-family="p22" font-weight="100" text-anchor="start" dominant-baseline="central" x="1769.0" y="935" transform="translate(1728,935) rotate(0) translate(-1728,-935)">Omanthai</text>
  </g>
  <g>
    <text fill="gray" stroke="none" font-size="40" font-family="p22" font-weight="100" text-anchor="start" dominant-baseline="central" x="1625.0" y="648" transform="translate(1584,648) rotate(0) translate(-1584,-648)">Pallai</text>
  </g>
  <g>
    <text fill="gray" stroke="none" font-size="40" font-family="p22" font-weight="100" text-anchor="start" dominant-baseline="central" x="1337.0" y="2520" transform="translate(1296,2520) rotate(-45) translate(-1296,-2520)">Homagama</text>
  </g>
  <g>
    <text fill="gray" stroke="none" font-size="40" font-family="p22" font-weight="100" text-anchor="end" dominant-baseline="central" x="2551.0" y="2232" transform="translate(2592,2232) rotate(0) translate(-2592,-2232)">Kandapola</text>
  </g>
  <g>
    <text fill="gray" stroke="none" font-size="40" font-family="p22" font-weight="100" text-anchor="start" dominant-baseline="central" x="1193.0" y="2088" transform="translate(1152,2088) rotate(0) translate(-1152,-2088)">Ja-Ela</text>
  </g>
  <g>
    <text fill="gray" stroke="none" font-size="40" font-family="p22" font-weight="100" text-anchor="start" dominant-baseline="central" x="1049.0" y="1944" transform="translate(1008,1944) rotate(0) translate(-1008,-1944)">Katunayake South</text>
  </g>
  <g>
    <text fill="gray" stroke="none" font-size="40" font-family="p22" font-weight="100" text-anchor="start" dominant-baseline="central" x="905.0" y="1800" transform="translate(864,1800) rotate(0) translate(-864,-1800)">Negombo</text>
  </g>
  <g>
    <text fill="gray" stroke="none" font-size="40" font-family="p22" font-weight="100" text-anchor="end" dominant-baseline="central" x="1543.0" y="1080" transform="translate(1584,1080) rotate(0) translate(-1584,-1080)">Madhu Road</text>
  </g>
</svg>
