<?xml version="1.0" ?>
<svg xmlns="http://www.w3.org/2000/svg" width="3600" height="3600" padding="360">
  <text fill="#fcfcfc" stroke="none" font-size="600.0" font-family="p22" x="1800.0" y="1800.0" text-anchor="middle" dominant-baseline="center">@nuuuwan</text>
  <text fill="black" stroke="none" font-size="160" font-family="p22" x="1800.0" y="180.0" text-anchor="middle" dominant-baseline="hanging">1916</text>
  <text fill="gray" stroke="none" font-size="40" font-family="p22" x="1800.0" y="230.0" text-anchor="middle" dominant-baseline="hanging"/>
  <text fill="gray" stroke="none" font-size="40" font-family="p22" x="1800.0" y="3460.0" text-anchor="middle" dominant-baseline="text-top">data from multiple sources ~ music by @bensound ~ visualization by @nuuuwan</text>
  <g>
    <path fill="none" stroke-width="29.400000000000002" stroke-opacity="1" d="M 1045.0,2417.0 L 1182.0,2280.0 L 1320.0,2142.0 L 1457.0,2005.0 L 1589.1563185488722,1872.8436814511278 C 1590.7708790325814,1871.2291209674186 1598.5666666666666,1868.0 1600.85,1868.0 L 1731.0,1868.0 L 1861.15,1868.0 C 1863.4333333333334,1868.0 1871.2291209674186,1871.2291209674186 1872.8436814511278,1872.8436814511278 L 2005.0,2005.0 L 2142.0,2142.0 L 2280.0,2280.0 L 2412.156318548872,2412.156318548872 C 2413.7708790325814,2413.7708790325814 2421.5666666666666,2417.0 2423.85,2417.0 L 2554.0,2417.0 L 2691.0,2417.0" stroke="red"/>
    <rect stroke="none" fill-opacity="1" x="2677" y="2389" width="28" height="56" fill="red"/>
  </g>
  <g>
    <path fill="none" stroke-width="29.400000000000002" stroke-opacity="1" d="M 1868.0,1868.0 L 2000.1563185488722,1735.8436814511278 C 2001.7708790325814,1734.2291209674186 2009.5666666666666,1731.0 2011.85,1731.0 L 2142.0,1731.0" stroke="purple"/>
    <rect stroke="none" fill-opacity="1" x="2128" y="1703" width="28" height="56" fill="purple"/>
  </g>
  <g>
    <path fill="none" stroke-width="29.400000000000002" stroke-opacity="1" d="M 1045.0,2417.0 L 1045.0,2554.0 L 1045.0,2691.0 L 1045.0,2821.15 C 1045.0,2823.4333333333334 1048.2291209674186,2831.2291209674186 1049.8436814511278,2832.843681451128 L 1175.3921840725563,2958.3921840725566 C 1177.5947893817042,2960.5947893817042 1186.4212003350187,2969.3891626514314 1188.631800502528,2971.583743977147 L 1313.4315900251263,3095.4791871988573 C 1315.621060016751,3097.652791465905 1324.347208534095,3106.378939983249 1326.5208128011427,3108.5684099748737 L 1452.1739638435388,3235.138737302251 C 1453.7826425623591,3236.7591582015007 1461.5666666666666,3240.0 1463.85,3240.0 L 1594.0,3240.0 L 1731.0,3240.0" stroke="cyan"/>
    <rect stroke="none" fill-opacity="1" x="1717" y="3212" width="28" height="56" fill="cyan"/>
  </g>
  <g>
    <path fill="none" stroke-width="29.400000000000002" stroke-opacity="1" d="M 1731.0,1868.0 L 1731.0,1731.0 L 1731.0,1594.0 L 1731.0,1457.0 L 1731.0,1320.0 L 1731.0,1182.0 L 1731.0,1045.0 L 1731.0,908.0 L 1731.0,777.85 C 1731.0,775.5666666666667 1727.7708790325814,767.7708790325814 1726.1563185488722,766.1563185488722 L 1594.0,634.0 L 1461.8436814511278,501.84368145112785 C 1460.2291209674186,500.22912096741857 1457.0,492.43333333333334 1457.0,490.15 L 1457.0,360.0" stroke="orange"/>
    <rect stroke="none" fill-opacity="1" x="1429" y="346" width="56" height="28" fill="orange"/>
  </g>
  <g>
    <path fill="none" stroke-width="29.400000000000002" stroke-opacity="1" d="M 1182.0,2280.0 L 1315.1387373022508,2412.173963843539 C 1316.7591582015004,2413.7826425623593 1324.5666666666666,2417.0 1326.85,2417.0 L 1450.4925,2417.0 C 1452.6616666666666,2417.0 1460.0676649190477,2413.9323350809523 1461.6014973785714,2412.3985026214286 L 1594.0,2280.0" stroke="darkblue"/>
    <rect stroke="none" fill-opacity="1" x="1580" y="2252" width="28" height="56" fill="darkblue"/>
  </g>
  <g>
    <path fill="none" stroke-width="29.400000000000002" stroke-opacity="1" d="M 2417.0,2417.0 L 2417.0,2286.85 C 2417.0,2284.5666666666666 2420.2173574376407,2276.7591582015007 2421.826036156461,2275.138737302251 L 2549.173963843539,2146.861262697749 C 2550.7826425623593,2145.2408417984993 2558.5666666666666,2142.0 2560.85,2142.0 L 2691.0,2142.0" stroke="gray"/>
    <rect stroke="none" fill-opacity="1" x="2677" y="2114" width="28" height="56" fill="gray"/>
  </g>
  <g>
    <path fill="none" stroke-width="29.400000000000002" stroke-opacity="1" d="M 1320.0,2142.0 L 1188.8748636374155,2011.8250457849704 C 1186.5832424249436,2009.5500305233136 1177.4333333333334,2000.4333333333334 1175.15,1998.15 L 1045.0,1868.0 L 912.8436814511278,1735.8436814511278 C 911.2291209674186,1734.2291209674186 908.0,1726.4333333333334 908.0,1724.15 L 908.0,1594.0 L 908.0,1457.0" stroke="green"/>
    <rect stroke="none" fill-opacity="1" x="880" y="1443" width="56" height="28" fill="green"/>
  </g>
  <g>
    <path fill="none" stroke-width="29.400000000000002" stroke-opacity="1" d="M 1457.0,2417.0 L 1589.1563185488722,2549.156318548872 C 1590.7708790325814,2550.7708790325814 1598.5666666666666,2554.0 1600.85,2554.0 L 1731.0,2554.0" stroke="lightblue"/>
    <rect stroke="none" fill-opacity="1" x="1717" y="2526" width="28" height="56" fill="lightblue"/>
  </g>
  <g>
    <path fill="none" stroke-width="29.400000000000002" stroke-opacity="1" d="M 1731.0,1182.0 L 1594.0,1045.0 L 1461.8436814511278,912.8436814511278 C 1460.2291209674186,911.2291209674186 1452.4333333333334,908.0 1450.15,908.0 L 1320.0,908.0" stroke="blue"/>
    <rect stroke="none" fill-opacity="1" x="1306" y="880" width="28" height="56" fill="blue"/>
  </g>
  <g>
    <text fill="black" stroke="none" font-size="56.0" font-family="p22" font-weight="100" text-anchor="start" dominant-baseline="central" x="2740.0" y="2417" transform="translate(2691,2417) rotate(0) translate(-2691,-2417)">Bandarawela</text>
  </g>
  <g>
    <text fill="black" stroke="none" font-size="56.0" font-family="p22" font-weight="100" text-anchor="start" dominant-baseline="central" x="2191.0" y="1731" transform="translate(2142,1731) rotate(0) translate(-2142,-1731)">MATALE</text>
  </g>
  <g>
    <text fill="black" stroke="none" font-size="56.0" font-family="p22" font-weight="100" text-anchor="start" dominant-baseline="central" x="1780.0" y="3240" transform="translate(1731,3240) rotate(0) translate(-1731,-3240)">MATARA</text>
  </g>
  <g>
    <text fill="black" stroke="none" font-size="56.0" font-family="p22" font-weight="100" text-anchor="start" dominant-baseline="central" x="1506.0" y="360" transform="translate(1457,360) rotate(0) translate(-1457,-360)">Kankesanthurai</text>
  </g>
  <g>
    <text fill="black" stroke="none" font-size="56.0" font-family="p22" font-weight="100" text-anchor="start" dominant-baseline="central" x="1643.0" y="2280" transform="translate(1594,2280) rotate(0) translate(-1594,-2280)">Yatiyantota</text>
  </g>
  <g>
    <text fill="black" stroke="none" font-size="56.0" font-family="p22" font-weight="100" text-anchor="start" dominant-baseline="central" x="2740.0" y="2142" transform="translate(2691,2142) rotate(0) translate(-2691,-2142)">Ragala</text>
  </g>
  <g>
    <text fill="black" stroke="none" font-size="56.0" font-family="p22" font-weight="100" text-anchor="start" dominant-baseline="central" x="957.0" y="1457" transform="translate(908,1457) rotate(0) translate(-908,-1457)">Chilaw</text>
  </g>
  <g>
    <text fill="black" stroke="none" font-size="56.0" font-family="p22" font-weight="100" text-anchor="start" dominant-baseline="central" x="1780.0" y="2554" transform="translate(1731,2554) rotate(0) translate(-1731,-2554)">Opanayaka</text>
  </g>
  <g>
    <text fill="black" stroke="none" font-size="56.0" font-family="p22" font-weight="100" text-anchor="end" dominant-baseline="central" x="1271.0" y="908" transform="translate(1320,908) rotate(0) translate(-1320,-908)">Talaimanar Pier</text>
  </g>
  <g>
    <circle r="28" fill="white" stroke="black" stroke-width="7.0" cx="1045" cy="2417"/>
    <text fill="black" stroke="none" font-size="48.0" font-family="p22" font-weight="100" text-anchor="start" dominant-baseline="central" x="1090.0" y="2417" transform="translate(1045,2417) rotate(0) translate(-1045,-2417)">COLOMBO Fort</text>
  </g>
  <g>
    <circle r="28" fill="white" stroke="black" stroke-width="7.0" cx="1182" cy="2280"/>
    <text fill="black" stroke="none" font-size="48.0" font-family="p22" font-weight="100" text-anchor="start" dominant-baseline="central" x="1227.0" y="2280" transform="translate(1182,2280) rotate(0) translate(-1182,-2280)">Maradana</text>
  </g>
  <g>
    <circle r="28" fill="white" stroke="black" stroke-width="7.0" cx="1320" cy="2142"/>
    <text fill="black" stroke="none" font-size="48.0" font-family="p22" font-weight="100" text-anchor="start" dominant-baseline="central" x="1365.0" y="2142" transform="translate(1320,2142) rotate(0) translate(-1320,-2142)">Ragama</text>
  </g>
  <g>
    <circle r="28" fill="white" stroke="black" stroke-width="7.0" cx="1731" cy="1868"/>
    <text fill="black" stroke="none" font-size="48.0" font-family="p22" font-weight="100" text-anchor="start" dominant-baseline="central" x="1776.0" y="1868" transform="translate(1731,1868) rotate(-45) translate(-1731,-1868)">Polgahawela</text>
  </g>
  <g>
    <circle r="28" fill="white" stroke="black" stroke-width="7.0" cx="1868" cy="1868"/>
    <text fill="black" stroke="none" font-size="48.0" font-family="p22" font-weight="100" text-anchor="start" dominant-baseline="central" x="1913.0" y="1868" transform="translate(1868,1868) rotate(0) translate(-1868,-1868)">Peradeniya</text>
  </g>
  <g>
    <circle r="28" fill="white" stroke="black" stroke-width="7.0" cx="2417" cy="2417"/>
    <text fill="black" stroke="none" font-size="48.0" font-family="p22" font-weight="100" text-anchor="end" dominant-baseline="central" x="2372.0" y="2417" transform="translate(2417,2417) rotate(0) translate(-2417,-2417)">Nanu Oya</text>
  </g>
  <g>
    <circle r="28" fill="white" stroke="black" stroke-width="7.0" cx="1731" cy="1182"/>
    <text fill="black" stroke="none" font-size="48.0" font-family="p22" font-weight="100" text-anchor="start" dominant-baseline="central" x="1776.0" y="1182" transform="translate(1731,1182) rotate(0) translate(-1731,-1182)">Medavachchiya</text>
  </g>
  <g>
    <circle r="28" fill="white" stroke="black" stroke-width="7.0" cx="1457" cy="2417"/>
    <text fill="black" stroke="none" font-size="48.0" font-family="p22" font-weight="100" text-anchor="start" dominant-baseline="central" x="1502.0" y="2417" transform="translate(1457,2417) rotate(0) translate(-1457,-2417)">Avissawella</text>
  </g>
  <g>
    <text fill="gray" stroke="none" font-size="44.0" font-family="p22" font-weight="100" text-anchor="start" dominant-baseline="central" x="1500.0" y="2005" transform="translate(1457,2005) rotate(0) translate(-1457,-2005)">GAMPAHA</text>
  </g>
  <g>
    <text fill="gray" stroke="none" font-size="44.0" font-family="p22" font-weight="100" text-anchor="start" dominant-baseline="central" x="2048.0" y="1731" transform="translate(2005,1731) rotate(-45) translate(-2005,-1731)">KANDY</text>
  </g>
  <g>
    <text fill="gray" stroke="none" font-size="44.0" font-family="p22" font-weight="100" text-anchor="start" dominant-baseline="central" x="1637.0" y="3240" transform="translate(1594,3240) rotate(-45) translate(-1594,-3240)">GALLE</text>
  </g>
  <g>
    <text fill="gray" stroke="none" font-size="44.0" font-family="p22" font-weight="100" text-anchor="end" dominant-baseline="central" x="1688.0" y="1731" transform="translate(1731,1731) rotate(0) translate(-1731,-1731)">KURUNEGALA</text>
  </g>
  <g>
    <text fill="gray" stroke="none" font-size="44.0" font-family="p22" font-weight="100" text-anchor="start" dominant-baseline="central" x="1774.0" y="1457" transform="translate(1731,1457) rotate(0) translate(-1731,-1457)">ANURADHAPURA</text>
  </g>
  <g>
    <text fill="gray" stroke="none" font-size="44.0" font-family="p22" font-weight="100" text-anchor="start" dominant-baseline="central" x="1774.0" y="1045" transform="translate(1731,1045) rotate(0) translate(-1731,-1045)">VAVUNIYA</text>
  </g>
  <g>
    <text fill="gray" stroke="none" font-size="44.0" font-family="p22" font-weight="100" text-anchor="start" dominant-baseline="central" x="1774.0" y="771" transform="translate(1731,771) rotate(0) translate(-1731,-771)">KILINOCHCHI</text>
  </g>
  <g>
    <text fill="gray" stroke="none" font-size="44.0" font-family="p22" font-weight="100" text-anchor="start" dominant-baseline="central" x="1500.0" y="497" transform="translate(1457,497) rotate(0) translate(-1457,-497)">JAFFNA</text>
  </g>
  <g>
    <text fill="gray" stroke="none" font-size="44.0" font-family="p22" font-weight="100" text-anchor="start" dominant-baseline="central" x="2460.0" y="2280" transform="translate(2417,2280) rotate(0) translate(-2417,-2280)">NUWARA ELIYA</text>
  </g>
  <g>
    <text fill="gray" stroke="none" font-size="44.0" font-family="p22" font-weight="100" text-anchor="end" dominant-baseline="central" x="1551.0" y="2554" transform="translate(1594,2554) rotate(0) translate(-1594,-2554)">RATNAPURA</text>
  </g>
  <g>
    <text fill="gray" stroke="none" font-size="44.0" font-family="p22" font-weight="100" text-anchor="start" dominant-baseline="central" x="1500.0" y="908" transform="translate(1457,908) rotate(0) translate(-1457,-908)">MANNAR</text>
  </g>
  <g>
    <text fill="gray" stroke="none" font-size="40" font-family="p22" font-weight="100" text-anchor="end" dominant-baseline="central" x="1553.0" y="1868" transform="translate(1594,1868) rotate(0) translate(-1594,-1868)">Ambepussa</text>
  </g>
  <g>
    <text fill="gray" stroke="none" font-size="40" font-family="p22" font-weight="100" text-anchor="start" dominant-baseline="central" x="2046.0" y="2005" transform="translate(2005,2005) rotate(0) translate(-2005,-2005)">Gampola</text>
  </g>
  <g>
    <text fill="gray" stroke="none" font-size="40" font-family="p22" font-weight="100" text-anchor="start" dominant-baseline="central" x="2183.0" y="2142" transform="translate(2142,2142) rotate(0) translate(-2142,-2142)">Nawalapitiya</text>
  </g>
  <g>
    <text fill="gray" stroke="none" font-size="40" font-family="p22" font-weight="100" text-anchor="end" dominant-baseline="central" x="2239.0" y="2280" transform="translate(2280,2280) rotate(0) translate(-2280,-2280)">Talawakele</text>
  </g>
  <g>
    <text fill="gray" stroke="none" font-size="40" font-family="p22" font-weight="100" text-anchor="start" dominant-baseline="central" x="2595.0" y="2417" transform="translate(2554,2417) rotate(-45) translate(-2554,-2417)">Haputale</text>
  </g>
  <g>
    <text fill="gray" stroke="none" font-size="40" font-family="p22" font-weight="100" text-anchor="start" dominant-baseline="central" x="1086.0" y="2554" transform="translate(1045,2554) rotate(0) translate(-1045,-2554)">Panadura</text>
  </g>
  <g>
    <text fill="gray" stroke="none" font-size="40" font-family="p22" font-weight="100" text-anchor="start" dominant-baseline="central" x="1086.0" y="2691" transform="translate(1045,2691) rotate(0) translate(-1045,-2691)">KALUTARA North</text>
  </g>
  <g>
    <text fill="gray" stroke="none" font-size="40" font-family="p22" font-weight="100" text-anchor="start" dominant-baseline="central" x="1086.0" y="2828" transform="translate(1045,2828) rotate(0) translate(-1045,-2828)">Wadduwa</text>
  </g>
  <g>
    <text fill="gray" stroke="none" font-size="40" font-family="p22" font-weight="100" text-anchor="start" dominant-baseline="central" x="1223.0" y="2965" transform="translate(1182,2965) rotate(0) translate(-1182,-2965)">Aluthgama</text>
  </g>
  <g>
    <text fill="gray" stroke="none" font-size="40" font-family="p22" font-weight="100" text-anchor="start" dominant-baseline="central" x="1361.0" y="3102" transform="translate(1320,3102) rotate(0) translate(-1320,-3102)">Kosgoda</text>
  </g>
  <g>
    <text fill="gray" stroke="none" font-size="40" font-family="p22" font-weight="100" text-anchor="end" dominant-baseline="central" x="1416.0" y="3240" transform="translate(1457,3240) rotate(0) translate(-1457,-3240)">Ambalangoda</text>
  </g>
  <g>
    <text fill="gray" stroke="none" font-size="40" font-family="p22" font-weight="100" text-anchor="start" dominant-baseline="central" x="1772.0" y="1594" transform="translate(1731,1594) rotate(0) translate(-1731,-1594)">Maho</text>
  </g>
  <g>
    <text fill="gray" stroke="none" font-size="40" font-family="p22" font-weight="100" text-anchor="start" dominant-baseline="central" x="1772.0" y="1320" transform="translate(1731,1320) rotate(0) translate(-1731,-1320)">Mihintale Junction</text>
  </g>
  <g>
    <text fill="gray" stroke="none" font-size="40" font-family="p22" font-weight="100" text-anchor="start" dominant-baseline="central" x="1772.0" y="908" transform="translate(1731,908) rotate(0) translate(-1731,-908)">Omanthai</text>
  </g>
  <g>
    <text fill="gray" stroke="none" font-size="40" font-family="p22" font-weight="100" text-anchor="start" dominant-baseline="central" x="1635.0" y="634" transform="translate(1594,634) rotate(0) translate(-1594,-634)">Pallai</text>
  </g>
  <g>
    <text fill="gray" stroke="none" font-size="40" font-family="p22" font-weight="100" text-anchor="start" dominant-baseline="central" x="1361.0" y="2417" transform="translate(1320,2417) rotate(-45) translate(-1320,-2417)">Homagama</text>
  </g>
  <g>
    <text fill="gray" stroke="none" font-size="40" font-family="p22" font-weight="100" text-anchor="end" dominant-baseline="central" x="2513.0" y="2142" transform="translate(2554,2142) rotate(0) translate(-2554,-2142)">Kandapola</text>
  </g>
  <g>
    <text fill="gray" stroke="none" font-size="40" font-family="p22" font-weight="100" text-anchor="start" dominant-baseline="central" x="1223.0" y="2005" transform="translate(1182,2005) rotate(0) translate(-1182,-2005)">Ja-Ela</text>
  </g>
  <g>
    <text fill="gray" stroke="none" font-size="40" font-family="p22" font-weight="100" text-anchor="start" dominant-baseline="central" x="1086.0" y="1868" transform="translate(1045,1868) rotate(0) translate(-1045,-1868)">Katunayake South</text>
  </g>
  <g>
    <text fill="gray" stroke="none" font-size="40" font-family="p22" font-weight="100" text-anchor="start" dominant-baseline="central" x="949.0" y="1731" transform="translate(908,1731) rotate(0) translate(-908,-1731)">Negombo</text>
  </g>
  <g>
    <text fill="gray" stroke="none" font-size="40" font-family="p22" font-weight="100" text-anchor="start" dominant-baseline="central" x="949.0" y="1594" transform="translate(908,1594) rotate(0) translate(-908,-1594)">Madampe</text>
  </g>
  <g>
    <text fill="gray" stroke="none" font-size="40" font-family="p22" font-weight="100" text-anchor="end" dominant-baseline="central" x="1553.0" y="1045" transform="translate(1594,1045) rotate(0) translate(-1594,-1045)">Madhu Road</text>
  </g>
</svg>
