<?xml version="1.0" ?>
<svg xmlns="http://www.w3.org/2000/svg" width="3600" height="3600" padding="480">
  <text fill="#fcfcfc" stroke="none" font-size="600.0" font-family="p22" x="1800.0" y="1800.0" text-anchor="middle" dominant-baseline="center">@nuuuwan</text>
  <text fill="black" stroke="none" font-size="160" font-family="p22" x="1800.0" y="240.0" text-anchor="middle" dominant-baseline="hanging">1917</text>
  <text fill="gray" stroke="none" font-size="40" font-family="p22" x="1800.0" y="290.0" text-anchor="middle" dominant-baseline="hanging"/>
  <text fill="gray" stroke="none" font-size="40" font-family="p22" x="1800.0" y="3400.0" text-anchor="middle" dominant-baseline="text-top">data from multiple sources ~ music by @bensound ~ visualization by @nuuuwan</text>
  <g>
    <path fill="none" stroke-width="29.400000000000002" stroke-opacity="1" d="M 1074.0,2460.0 L 1206.0,2328.0 L 1338.0,2196.0 L 1470.0,2064.0 L 1597.3330952441688,1936.6669047558312 C 1598.8887301627792,1935.1112698372208 1606.4,1932.0 1608.6,1932.0 L 1734.0,1932.0 L 1859.4,1932.0 C 1861.6,1932.0 1869.1112698372208,1935.1112698372208 1870.6669047558312,1936.6669047558312 L 1998.0,2064.0 L 2130.0,2196.0 L 2262.0,2328.0 L 2389.333095244169,2455.333095244169 C 2390.888730162779,2456.888730162779 2398.4,2460.0 2400.6,2460.0 L 2526.0,2460.0 L 2658.0,2460.0" stroke="red"/>
    <rect stroke="none" fill-opacity="1" x="2644" y="2432" width="28" height="56" fill="red"/>
  </g>
  <g>
    <path fill="none" stroke-width="29.400000000000002" stroke-opacity="1" d="M 1866.0,1932.0 L 1993.3330952441688,1804.6669047558312 C 1994.8887301627792,1803.1112698372208 2002.4,1800.0 2004.6,1800.0 L 2130.0,1800.0" stroke="purple"/>
    <rect stroke="none" fill-opacity="1" x="2116" y="1772" width="28" height="56" fill="purple"/>
  </g>
  <g>
    <path fill="none" stroke-width="29.400000000000002" stroke-opacity="1" d="M 1074.0,2460.0 L 1074.0,2592.0 L 1074.0,2717.4 C 1074.0,2719.6 1077.1112698372208,2727.111269837221 1078.6669047558312,2728.666904755831 L 1206.0,2856.0 L 1338.0,2988.0 L 1465.3330952441688,3115.333095244169 C 1466.8887301627792,3116.888730162779 1474.4,3120.0 1476.6,3120.0 L 1602.0,3120.0 L 1734.0,3120.0 L 1866.0,3120.0" stroke="cyan"/>
    <rect stroke="none" fill-opacity="1" x="1852" y="3092" width="28" height="56" fill="cyan"/>
  </g>
  <g>
    <path fill="none" stroke-width="29.400000000000002" stroke-opacity="1" d="M 1734.0,1932.0 L 1734.0,1800.0 L 1734.0,1667.0 L 1734.0,1536.0 L 1734.0,1404.0 L 1734.0,1272.0 L 1734.0,1140.0 L 1734.0,1007.0 L 1734.0,882.55 C 1734.0,880.3666666666667 1730.9123003888187,872.9123003888187 1729.3684505832282,871.3684505832281 L 1602.0,744.0 L 1474.6669047558312,616.6669047558312 C 1473.1112698372208,615.1112698372208 1470.0,607.6 1470.0,605.4 L 1470.0,480.0" stroke="orange"/>
    <rect stroke="none" fill-opacity="1" x="1442" y="466" width="56" height="28" fill="orange"/>
  </g>
  <g>
    <path fill="none" stroke-width="29.400000000000002" stroke-opacity="1" d="M 1206.0,2328.0 L 1333.3330952441688,2455.333095244169 C 1334.8887301627792,2456.888730162779 1342.4,2460.0 1344.6,2460.0 L 1463.73,2460.0 C 1465.82,2460.0 1472.9557063453597,2457.04429365464 1474.4335595180396,2455.5664404819604 L 1602.0,2328.0" stroke="darkblue"/>
    <rect stroke="none" fill-opacity="1" x="1588" y="2300" width="28" height="56" fill="darkblue"/>
  </g>
  <g>
    <path fill="none" stroke-width="29.400000000000002" stroke-opacity="1" d="M 2394.0,2460.0 L 2394.0,2334.6 C 2394.0,2332.4 2397.111269837221,2324.888730162779 2398.666904755831,2323.333095244169 L 2521.333095244169,2200.666904755831 C 2522.888730162779,2199.111269837221 2530.4,2196.0 2532.6,2196.0 L 2658.0,2196.0" stroke="gray"/>
    <rect stroke="none" fill-opacity="1" x="2644" y="2168" width="28" height="56" fill="gray"/>
  </g>
  <g>
    <path fill="none" stroke-width="29.400000000000002" stroke-opacity="1" d="M 1338.0,2196.0 L 1206.0,2064.0 L 1074.0,1932.0 L 946.7022600948906,1804.7022600948906 C 945.1348400632604,1803.1348400632603 942.0,1795.5666666666666 942.0,1793.35 L 942.0,1667.0 L 942.0,1536.0" stroke="green"/>
    <rect stroke="none" fill-opacity="1" x="914" y="1522" width="56" height="28" fill="green"/>
  </g>
  <g>
    <path fill="none" stroke-width="29.400000000000002" stroke-opacity="1" d="M 1470.0,2460.0 L 1597.3330952441688,2587.333095244169 C 1598.8887301627792,2588.888730162779 1606.4,2592.0 1608.6,2592.0 L 1734.0,2592.0" stroke="lightblue"/>
    <rect stroke="none" fill-opacity="1" x="1720" y="2564" width="28" height="56" fill="lightblue"/>
  </g>
  <g>
    <path fill="none" stroke-width="29.400000000000002" stroke-opacity="1" d="M 1734.0,1272.0 L 1608.6,1146.6 C 1606.4,1144.4 1597.616634982908,1135.5834276721723 1595.4249524743618,1133.3751415082586 L 1474.6492606920026,1011.6844823639117 C 1473.0995071280017,1010.1229882426078 1465.6,1007.0 1463.4,1007.0 L 1338.0,1007.0" stroke="blue"/>
    <rect stroke="none" fill-opacity="1" x="1324" y="979" width="28" height="56" fill="blue"/>
  </g>
  <g>
    <text fill="black" stroke="none" font-size="56.0" font-family="p22" font-weight="100" text-anchor="start" dominant-baseline="central" x="2707.0" y="2460" transform="translate(2658,2460) rotate(0) translate(-2658,-2460)">Bandarawela</text>
  </g>
  <g>
    <text fill="black" stroke="none" font-size="56.0" font-family="p22" font-weight="100" text-anchor="start" dominant-baseline="central" x="2179.0" y="1800" transform="translate(2130,1800) rotate(0) translate(-2130,-1800)">Matale</text>
  </g>
  <g>
    <text fill="black" stroke="none" font-size="56.0" font-family="p22" font-weight="100" text-anchor="start" dominant-baseline="central" x="1915.0" y="3120" transform="translate(1866,3120) rotate(0) translate(-1866,-3120)">Matara</text>
  </g>
  <g>
    <text fill="black" stroke="none" font-size="56.0" font-family="p22" font-weight="100" text-anchor="start" dominant-baseline="central" x="1519.0" y="480" transform="translate(1470,480) rotate(0) translate(-1470,-480)">Kankesanthurai</text>
  </g>
  <g>
    <text fill="black" stroke="none" font-size="56.0" font-family="p22" font-weight="100" text-anchor="start" dominant-baseline="central" x="1651.0" y="2328" transform="translate(1602,2328) rotate(0) translate(-1602,-2328)">Yatiyantota</text>
  </g>
  <g>
    <text fill="black" stroke="none" font-size="56.0" font-family="p22" font-weight="100" text-anchor="start" dominant-baseline="central" x="2707.0" y="2196" transform="translate(2658,2196) rotate(0) translate(-2658,-2196)">Ragala</text>
  </g>
  <g>
    <text fill="black" stroke="none" font-size="56.0" font-family="p22" font-weight="100" text-anchor="start" dominant-baseline="central" x="991.0" y="1536" transform="translate(942,1536) rotate(0) translate(-942,-1536)">Chilaw</text>
  </g>
  <g>
    <text fill="black" stroke="none" font-size="56.0" font-family="p22" font-weight="100" text-anchor="start" dominant-baseline="central" x="1783.0" y="2592" transform="translate(1734,2592) rotate(0) translate(-1734,-2592)">Opanayaka</text>
  </g>
  <g>
    <text fill="black" stroke="none" font-size="56.0" font-family="p22" font-weight="100" text-anchor="end" dominant-baseline="central" x="1289.0" y="1007" transform="translate(1338,1007) rotate(0) translate(-1338,-1007)">Talaimanar Pier</text>
  </g>
  <g>
    <circle r="28" fill="white" stroke="black" stroke-width="7.0" cx="1074" cy="2460"/>
    <text fill="black" stroke="none" font-size="48.0" font-family="p22" font-weight="100" text-anchor="start" dominant-baseline="central" x="1119.0" y="2460" transform="translate(1074,2460) rotate(0) translate(-1074,-2460)">C. Fort</text>
  </g>
  <g>
    <circle r="28" fill="white" stroke="black" stroke-width="7.0" cx="1206" cy="2328"/>
    <text fill="black" stroke="none" font-size="48.0" font-family="p22" font-weight="100" text-anchor="start" dominant-baseline="central" x="1251.0" y="2328" transform="translate(1206,2328) rotate(0) translate(-1206,-2328)">Maradana</text>
  </g>
  <g>
    <circle r="28" fill="white" stroke="black" stroke-width="7.0" cx="1338" cy="2196"/>
    <text fill="black" stroke="none" font-size="48.0" font-family="p22" font-weight="100" text-anchor="start" dominant-baseline="central" x="1383.0" y="2196" transform="translate(1338,2196) rotate(0) translate(-1338,-2196)">Ragama</text>
  </g>
  <g>
    <circle r="28" fill="white" stroke="black" stroke-width="7.0" cx="1734" cy="1932"/>
    <text fill="black" stroke="none" font-size="48.0" font-family="p22" font-weight="100" text-anchor="start" dominant-baseline="central" x="1779.0" y="1932" transform="translate(1734,1932) rotate(-45) translate(-1734,-1932)">Polgahawela</text>
  </g>
  <g>
    <circle r="28" fill="white" stroke="black" stroke-width="7.0" cx="1866" cy="1932"/>
    <text fill="black" stroke="none" font-size="48.0" font-family="p22" font-weight="100" text-anchor="start" dominant-baseline="central" x="1911.0" y="1932" transform="translate(1866,1932) rotate(0) translate(-1866,-1932)">Peradeniya</text>
  </g>
  <g>
    <circle r="28" fill="white" stroke="black" stroke-width="7.0" cx="2394" cy="2460"/>
    <text fill="black" stroke="none" font-size="48.0" font-family="p22" font-weight="100" text-anchor="end" dominant-baseline="central" x="2349.0" y="2460" transform="translate(2394,2460) rotate(0) translate(-2394,-2460)">Nanu Oya</text>
  </g>
  <g>
    <circle r="28" fill="white" stroke="black" stroke-width="7.0" cx="1734" cy="1272"/>
    <text fill="black" stroke="none" font-size="48.0" font-family="p22" font-weight="100" text-anchor="start" dominant-baseline="central" x="1779.0" y="1272" transform="translate(1734,1272) rotate(0) translate(-1734,-1272)">Medavachchiya</text>
  </g>
  <g>
    <circle r="28" fill="white" stroke="black" stroke-width="7.0" cx="1470" cy="2460"/>
    <text fill="black" stroke="none" font-size="48.0" font-family="p22" font-weight="100" text-anchor="start" dominant-baseline="central" x="1515.0" y="2460" transform="translate(1470,2460) rotate(0) translate(-1470,-2460)">Avissawella</text>
  </g>
  <g>
    <text fill="gray" stroke="none" font-size="44.0" font-family="p22" font-weight="100" text-anchor="start" dominant-baseline="central" x="1513.0" y="2064" transform="translate(1470,2064) rotate(0) translate(-1470,-2064)">Gampaha</text>
  </g>
  <g>
    <text fill="gray" stroke="none" font-size="44.0" font-family="p22" font-weight="100" text-anchor="start" dominant-baseline="central" x="2041.0" y="1800" transform="translate(1998,1800) rotate(-45) translate(-1998,-1800)">Kandy</text>
  </g>
  <g>
    <text fill="gray" stroke="none" font-size="44.0" font-family="p22" font-weight="100" text-anchor="start" dominant-baseline="central" x="1777.0" y="3120" transform="translate(1734,3120) rotate(-45) translate(-1734,-3120)">Galle</text>
  </g>
  <g>
    <text fill="gray" stroke="none" font-size="44.0" font-family="p22" font-weight="100" text-anchor="end" dominant-baseline="central" x="1691.0" y="1800" transform="translate(1734,1800) rotate(0) translate(-1734,-1800)">Kurunegala</text>
  </g>
  <g>
    <text fill="gray" stroke="none" font-size="44.0" font-family="p22" font-weight="100" text-anchor="start" dominant-baseline="central" x="1777.0" y="1536" transform="translate(1734,1536) rotate(0) translate(-1734,-1536)">Anuradhapura</text>
  </g>
  <g>
    <text fill="gray" stroke="none" font-size="44.0" font-family="p22" font-weight="100" text-anchor="start" dominant-baseline="central" x="1777.0" y="1140" transform="translate(1734,1140) rotate(0) translate(-1734,-1140)">Vavuniya</text>
  </g>
  <g>
    <text fill="gray" stroke="none" font-size="44.0" font-family="p22" font-weight="100" text-anchor="start" dominant-baseline="central" x="1777.0" y="876" transform="translate(1734,876) rotate(0) translate(-1734,-876)">Kilinochchi</text>
  </g>
  <g>
    <text fill="gray" stroke="none" font-size="44.0" font-family="p22" font-weight="100" text-anchor="start" dominant-baseline="central" x="1513.0" y="612" transform="translate(1470,612) rotate(0) translate(-1470,-612)">Jaffna</text>
  </g>
  <g>
    <text fill="gray" stroke="none" font-size="44.0" font-family="p22" font-weight="100" text-anchor="start" dominant-baseline="central" x="2437.0" y="2328" transform="translate(2394,2328) rotate(0) translate(-2394,-2328)">Nuwara Eliya</text>
  </g>
  <g>
    <text fill="gray" stroke="none" font-size="44.0" font-family="p22" font-weight="100" text-anchor="end" dominant-baseline="central" x="1559.0" y="2592" transform="translate(1602,2592) rotate(0) translate(-1602,-2592)">Ratnapura</text>
  </g>
  <g>
    <text fill="gray" stroke="none" font-size="44.0" font-family="p22" font-weight="100" text-anchor="start" dominant-baseline="central" x="1513.0" y="1007" transform="translate(1470,1007) rotate(0) translate(-1470,-1007)">Mannar</text>
  </g>
  <g>
    <text fill="gray" stroke="none" font-size="40" font-family="p22" font-weight="100" text-anchor="end" dominant-baseline="central" x="1561.0" y="1932" transform="translate(1602,1932) rotate(0) translate(-1602,-1932)">Ambepussa</text>
  </g>
  <g>
    <text fill="gray" stroke="none" font-size="40" font-family="p22" font-weight="100" text-anchor="start" dominant-baseline="central" x="2039.0" y="2064" transform="translate(1998,2064) rotate(0) translate(-1998,-2064)">Gampola</text>
  </g>
  <g>
    <text fill="gray" stroke="none" font-size="40" font-family="p22" font-weight="100" text-anchor="start" dominant-baseline="central" x="2171.0" y="2196" transform="translate(2130,2196) rotate(0) translate(-2130,-2196)">Nawalapitiya</text>
  </g>
  <g>
    <text fill="gray" stroke="none" font-size="40" font-family="p22" font-weight="100" text-anchor="end" dominant-baseline="central" x="2221.0" y="2328" transform="translate(2262,2328) rotate(0) translate(-2262,-2328)">Talawakele</text>
  </g>
  <g>
    <text fill="gray" stroke="none" font-size="40" font-family="p22" font-weight="100" text-anchor="start" dominant-baseline="central" x="2567.0" y="2460" transform="translate(2526,2460) rotate(-45) translate(-2526,-2460)">Haputale</text>
  </g>
  <g>
    <text fill="gray" stroke="none" font-size="40" font-family="p22" font-weight="100" text-anchor="start" dominant-baseline="central" x="1115.0" y="2592" transform="translate(1074,2592) rotate(0) translate(-1074,-2592)">Panadura</text>
  </g>
  <g>
    <text fill="gray" stroke="none" font-size="40" font-family="p22" font-weight="100" text-anchor="start" dominant-baseline="central" x="1115.0" y="2724" transform="translate(1074,2724) rotate(0) translate(-1074,-2724)">Kalutara N.</text>
  </g>
  <g>
    <text fill="gray" stroke="none" font-size="40" font-family="p22" font-weight="100" text-anchor="start" dominant-baseline="central" x="1247.0" y="2856" transform="translate(1206,2856) rotate(0) translate(-1206,-2856)">Wadduwa</text>
  </g>
  <g>
    <text fill="gray" stroke="none" font-size="40" font-family="p22" font-weight="100" text-anchor="start" dominant-baseline="central" x="1379.0" y="2988" transform="translate(1338,2988) rotate(0) translate(-1338,-2988)">Aluthgama</text>
  </g>
  <g>
    <text fill="gray" stroke="none" font-size="40" font-family="p22" font-weight="100" text-anchor="end" dominant-baseline="central" x="1429.0" y="3120" transform="translate(1470,3120) rotate(0) translate(-1470,-3120)">Kosgoda</text>
  </g>
  <g>
    <text fill="gray" stroke="none" font-size="40" font-family="p22" font-weight="100" text-anchor="start" dominant-baseline="central" x="1643.0" y="3120" transform="translate(1602,3120) rotate(-45) translate(-1602,-3120)">Ambalangoda</text>
  </g>
  <g>
    <text fill="gray" stroke="none" font-size="40" font-family="p22" font-weight="100" text-anchor="start" dominant-baseline="central" x="1775.0" y="1667" transform="translate(1734,1667) rotate(0) translate(-1734,-1667)">Maho</text>
  </g>
  <g>
    <text fill="gray" stroke="none" font-size="40" font-family="p22" font-weight="100" text-anchor="start" dominant-baseline="central" x="1775.0" y="1404" transform="translate(1734,1404) rotate(0) translate(-1734,-1404)">Mihintale Junction</text>
  </g>
  <g>
    <text fill="gray" stroke="none" font-size="40" font-family="p22" font-weight="100" text-anchor="start" dominant-baseline="central" x="1775.0" y="1007" transform="translate(1734,1007) rotate(0) translate(-1734,-1007)">Omanthai</text>
  </g>
  <g>
    <text fill="gray" stroke="none" font-size="40" font-family="p22" font-weight="100" text-anchor="start" dominant-baseline="central" x="1643.0" y="744" transform="translate(1602,744) rotate(0) translate(-1602,-744)">Pallai</text>
  </g>
  <g>
    <text fill="gray" stroke="none" font-size="40" font-family="p22" font-weight="100" text-anchor="start" dominant-baseline="central" x="1379.0" y="2460" transform="translate(1338,2460) rotate(-45) translate(-1338,-2460)">Homagama</text>
  </g>
  <g>
    <text fill="gray" stroke="none" font-size="40" font-family="p22" font-weight="100" text-anchor="end" dominant-baseline="central" x="2485.0" y="2196" transform="translate(2526,2196) rotate(0) translate(-2526,-2196)">Kandapola</text>
  </g>
  <g>
    <text fill="gray" stroke="none" font-size="40" font-family="p22" font-weight="100" text-anchor="start" dominant-baseline="central" x="1247.0" y="2064" transform="translate(1206,2064) rotate(0) translate(-1206,-2064)">Ja-Ela</text>
  </g>
  <g>
    <text fill="gray" stroke="none" font-size="40" font-family="p22" font-weight="100" text-anchor="start" dominant-baseline="central" x="1115.0" y="1932" transform="translate(1074,1932) rotate(0) translate(-1074,-1932)">Katunayake S.</text>
  </g>
  <g>
    <text fill="gray" stroke="none" font-size="40" font-family="p22" font-weight="100" text-anchor="start" dominant-baseline="central" x="983.0" y="1800" transform="translate(942,1800) rotate(0) translate(-942,-1800)">Negombo</text>
  </g>
  <g>
    <text fill="gray" stroke="none" font-size="40" font-family="p22" font-weight="100" text-anchor="start" dominant-baseline="central" x="983.0" y="1667" transform="translate(942,1667) rotate(0) translate(-942,-1667)">Madampe</text>
  </g>
  <g>
    <text fill="gray" stroke="none" font-size="40" font-family="p22" font-weight="100" text-anchor="end" dominant-baseline="central" x="1561.0" y="1140" transform="translate(1602,1140) rotate(0) translate(-1602,-1140)">Madhu Road</text>
  </g>
</svg>
