<?xml version="1.0" ?>
<svg xmlns="http://www.w3.org/2000/svg" width="3600" height="3600" padding="480">
  <text fill="#fcfcfc" stroke="none" font-size="600.0" font-family="p22" x="1800.0" y="1800.0" text-anchor="middle" dominant-baseline="center">@nuuuwan</text>
  <text fill="black" stroke="none" font-size="160" font-family="p22" x="1800.0" y="240.0" text-anchor="middle" dominant-baseline="hanging">1943</text>
  <text fill="gray" stroke="none" font-size="40" font-family="p22" x="1800.0" y="290.0" text-anchor="middle" dominant-baseline="hanging"/>
  <text fill="gray" stroke="none" font-size="40" font-family="p22" x="1800.0" y="3400.0" text-anchor="middle" dominant-baseline="text-top">data from multiple sources ~ music by @bensound ~ visualization by @nuuuwan</text>
  <g>
    <path fill="none" stroke-width="29.400000000000002" stroke-opacity="1" d="M 1008.0,2460.0 L 1140.0,2328.0 L 1272.0,2196.0 L 1404.0,2064.0 L 1531.3330952441688,1936.6669047558312 C 1532.8887301627792,1935.1112698372208 1540.4,1932.0 1542.6,1932.0 L 1668.0,1932.0 L 1793.4,1932.0 C 1795.6,1932.0 1803.1112698372208,1935.1112698372208 1804.6669047558312,1936.6669047558312 L 1932.0,2064.0 L 2064.0,2196.0 L 2196.0,2328.0 L 2323.333095244169,2455.333095244169 C 2324.888730162779,2456.888730162779 2332.4,2460.0 2334.6,2460.0 L 2460.0,2460.0 L 2585.4,2460.0 C 2587.6,2460.0 2595.111269837221,2456.888730162779 2596.666904755831,2455.333095244169 L 2724.0,2328.0" stroke="red"/>
    <rect stroke="none" fill-opacity="1" x="2710" y="2300" width="28" height="56" fill="red"/>
  </g>
  <g>
    <path fill="none" stroke-width="29.400000000000002" stroke-opacity="1" d="M 1800.0,1932.0 L 1927.3330952441688,1804.6669047558312 C 1928.8887301627792,1803.1112698372208 1936.4,1800.0 1938.6,1800.0 L 2064.0,1800.0" stroke="purple"/>
    <rect stroke="none" fill-opacity="1" x="2050" y="1772" width="28" height="56" fill="purple"/>
  </g>
  <g>
    <path fill="none" stroke-width="29.400000000000002" stroke-opacity="1" d="M 1008.0,2460.0 L 1008.0,2592.0 L 1008.0,2717.4 C 1008.0,2719.6 1011.1112698372208,2727.111269837221 1012.6669047558312,2728.666904755831 L 1140.0,2856.0 L 1272.0,2988.0 L 1399.3330952441688,3115.333095244169 C 1400.8887301627792,3116.888730162779 1408.4,3120.0 1410.6,3120.0 L 1536.0,3120.0 L 1668.0,3120.0 L 1800.0,3120.0" stroke="cyan"/>
    <rect stroke="none" fill-opacity="1" x="1786" y="3092" width="28" height="56" fill="cyan"/>
  </g>
  <g>
    <path fill="none" stroke-width="29.400000000000002" stroke-opacity="1" d="M 1668.0,1932.0 L 1668.0,1800.0 L 1668.0,1667.0 L 1668.0,1536.0 L 1668.0,1404.0 L 1668.0,1272.0 L 1668.0,1140.0 L 1668.0,1007.0 L 1668.0,882.55 C 1668.0,880.3666666666667 1664.9123003888187,872.9123003888187 1663.3684505832282,871.3684505832281 L 1536.0,744.0 L 1408.6669047558312,616.6669047558312 C 1407.1112698372208,615.1112698372208 1404.0,607.6 1404.0,605.4 L 1404.0,480.0" stroke="orange"/>
    <rect stroke="none" fill-opacity="1" x="1376" y="466" width="56" height="28" fill="orange"/>
  </g>
  <g>
    <path fill="none" stroke-width="29.400000000000002" stroke-opacity="1" d="M 1140.0,2328.0 L 1267.3330952441688,2455.333095244169 C 1268.8887301627792,2456.888730162779 1276.4,2460.0 1278.6,2460.0 L 1404.0,2460.0" stroke="darkblue"/>
    <rect stroke="none" fill-opacity="1" x="1390" y="2432" width="28" height="56" fill="darkblue"/>
  </g>
  <g>
    <path fill="none" stroke-width="29.400000000000002" stroke-opacity="1" d="M 2328.0,2460.0 L 2328.0,2334.6 C 2328.0,2332.4 2331.111269837221,2324.888730162779 2332.666904755831,2323.333095244169 L 2455.333095244169,2200.666904755831 C 2456.888730162779,2199.111269837221 2464.4,2196.0 2466.6,2196.0 L 2592.0,2196.0" stroke="gray"/>
    <rect stroke="none" fill-opacity="1" x="2578" y="2168" width="28" height="56" fill="gray"/>
  </g>
  <g>
    <path fill="none" stroke-width="29.400000000000002" stroke-opacity="1" d="M 1272.0,2196.0 L 1140.0,2064.0 L 1008.0,1932.0 L 880.7022600948906,1804.7022600948906 C 879.1348400632604,1803.1348400632603 876.0,1795.5666666666666 876.0,1793.35 L 876.0,1667.0 L 876.0,1536.0 L 876.0,1404.0" stroke="green"/>
    <rect stroke="none" fill-opacity="1" x="848" y="1390" width="56" height="28" fill="green"/>
  </g>
  <g>
    <path fill="none" stroke-width="29.400000000000002" stroke-opacity="1" d="M 1404.0,2460.0 L 1531.3330952441688,2587.333095244169 C 1532.8887301627792,2588.888730162779 1540.4,2592.0 1542.6,2592.0 L 1668.0,2592.0" stroke="lightblue"/>
    <rect stroke="none" fill-opacity="1" x="1654" y="2564" width="28" height="56" fill="lightblue"/>
  </g>
  <g>
    <path fill="none" stroke-width="29.400000000000002" stroke-opacity="1" d="M 1668.0,1272.0 L 1542.6,1146.6 C 1540.4,1144.4 1531.616634982908,1135.5834276721723 1529.4249524743618,1133.3751415082586 L 1408.6492606920026,1011.6844823639117 C 1407.0995071280017,1010.1229882426078 1399.6,1007.0 1397.4,1007.0 L 1272.0,1007.0" stroke="blue"/>
    <rect stroke="none" fill-opacity="1" x="1258" y="979" width="28" height="56" fill="blue"/>
  </g>
  <g>
    <path fill="none" stroke-width="29.400000000000002" stroke-opacity="1" d="M 1668.0,1667.0 L 1793.4,1542.55 C 1795.6,1540.3666666666666 1804.4,1540.3666666666666 1806.6,1542.55 L 1927.3153842225931,1662.3508737360585 C 1928.8769228150622,1663.9005824907056 1936.4,1667.0 1938.6,1667.0 L 2064.0,1667.0" stroke="darkgreen"/>
    <rect stroke="none" fill-opacity="1" x="2050" y="1639" width="28" height="56" fill="darkgreen"/>
  </g>
  <g>
    <path fill="none" stroke-width="29.400000000000002" stroke-opacity="1" d="M 1800.0,1536.0 L 1932.0,1404.0" stroke="silver"/>
    <rect stroke="none" fill-opacity="1" x="1918" y="1376" width="28" height="56" fill="silver"/>
  </g>
  <g>
    <text fill="black" stroke="none" font-size="56.0" font-family="p22" font-weight="100" text-anchor="start" dominant-baseline="central" x="2773.0" y="2328" transform="translate(2724,2328) rotate(0) translate(-2724,-2328)">Badulla</text>
  </g>
  <g>
    <text fill="black" stroke="none" font-size="56.0" font-family="p22" font-weight="100" text-anchor="start" dominant-baseline="central" x="2113.0" y="1800" transform="translate(2064,1800) rotate(0) translate(-2064,-1800)">Matale</text>
  </g>
  <g>
    <text fill="black" stroke="none" font-size="56.0" font-family="p22" font-weight="100" text-anchor="start" dominant-baseline="central" x="1849.0" y="3120" transform="translate(1800,3120) rotate(0) translate(-1800,-3120)">Matara</text>
  </g>
  <g>
    <text fill="black" stroke="none" font-size="56.0" font-family="p22" font-weight="100" text-anchor="start" dominant-baseline="central" x="1453.0" y="480" transform="translate(1404,480) rotate(0) translate(-1404,-480)">Kankesanthurai</text>
  </g>
  <g>
    <text fill="black" stroke="none" font-size="56.0" font-family="p22" font-weight="100" text-anchor="start" dominant-baseline="central" x="2641.0" y="2196" transform="translate(2592,2196) rotate(0) translate(-2592,-2196)">Ragala</text>
  </g>
  <g>
    <text fill="black" stroke="none" font-size="56.0" font-family="p22" font-weight="100" text-anchor="start" dominant-baseline="central" x="925.0" y="1404" transform="translate(876,1404) rotate(0) translate(-876,-1404)">Bangadeniya</text>
  </g>
  <g>
    <text fill="black" stroke="none" font-size="56.0" font-family="p22" font-weight="100" text-anchor="start" dominant-baseline="central" x="1717.0" y="2592" transform="translate(1668,2592) rotate(0) translate(-1668,-2592)">Opanayaka</text>
  </g>
  <g>
    <text fill="black" stroke="none" font-size="56.0" font-family="p22" font-weight="100" text-anchor="end" dominant-baseline="central" x="1223.0" y="1007" transform="translate(1272,1007) rotate(0) translate(-1272,-1007)">Talaimanar Pier</text>
  </g>
  <g>
    <text fill="black" stroke="none" font-size="56.0" font-family="p22" font-weight="100" text-anchor="start" dominant-baseline="central" x="2113.0" y="1667" transform="translate(2064,1667) rotate(0) translate(-2064,-1667)">Batticaloa</text>
  </g>
  <g>
    <text fill="black" stroke="none" font-size="56.0" font-family="p22" font-weight="100" text-anchor="start" dominant-baseline="central" x="1981.0" y="1404" transform="translate(1932,1404) rotate(0) translate(-1932,-1404)">Trincomalee</text>
  </g>
  <g>
    <circle r="28" fill="white" stroke="black" stroke-width="7.0" cx="1008" cy="2460"/>
    <text fill="black" stroke="none" font-size="48.0" font-family="p22" font-weight="100" text-anchor="start" dominant-baseline="central" x="1053.0" y="2460" transform="translate(1008,2460) rotate(0) translate(-1008,-2460)">C. Fort</text>
  </g>
  <g>
    <circle r="28" fill="white" stroke="black" stroke-width="7.0" cx="1140" cy="2328"/>
    <text fill="black" stroke="none" font-size="48.0" font-family="p22" font-weight="100" text-anchor="start" dominant-baseline="central" x="1185.0" y="2328" transform="translate(1140,2328) rotate(0) translate(-1140,-2328)">Maradana</text>
  </g>
  <g>
    <circle r="28" fill="white" stroke="black" stroke-width="7.0" cx="1272" cy="2196"/>
    <text fill="black" stroke="none" font-size="48.0" font-family="p22" font-weight="100" text-anchor="start" dominant-baseline="central" x="1317.0" y="2196" transform="translate(1272,2196) rotate(0) translate(-1272,-2196)">Ragama</text>
  </g>
  <g>
    <circle r="28" fill="white" stroke="black" stroke-width="7.0" cx="1668" cy="1932"/>
    <text fill="black" stroke="none" font-size="48.0" font-family="p22" font-weight="100" text-anchor="start" dominant-baseline="central" x="1713.0" y="1932" transform="translate(1668,1932) rotate(-45) translate(-1668,-1932)">Polgahawela</text>
  </g>
  <g>
    <circle r="28" fill="white" stroke="black" stroke-width="7.0" cx="1800" cy="1932"/>
    <text fill="black" stroke="none" font-size="48.0" font-family="p22" font-weight="100" text-anchor="start" dominant-baseline="central" x="1845.0" y="1932" transform="translate(1800,1932) rotate(0) translate(-1800,-1932)">Peradeniya</text>
  </g>
  <g>
    <circle r="28" fill="white" stroke="black" stroke-width="7.0" cx="2328" cy="2460"/>
    <text fill="black" stroke="none" font-size="48.0" font-family="p22" font-weight="100" text-anchor="end" dominant-baseline="central" x="2283.0" y="2460" transform="translate(2328,2460) rotate(0) translate(-2328,-2460)">Nanu Oya</text>
  </g>
  <g>
    <circle r="28" fill="white" stroke="black" stroke-width="7.0" cx="1668" cy="1667"/>
    <text fill="black" stroke="none" font-size="48.0" font-family="p22" font-weight="100" text-anchor="start" dominant-baseline="central" x="1713.0" y="1667" transform="translate(1668,1667) rotate(0) translate(-1668,-1667)">Maho</text>
  </g>
  <g>
    <circle r="28" fill="white" stroke="black" stroke-width="7.0" cx="1668" cy="1272"/>
    <text fill="black" stroke="none" font-size="48.0" font-family="p22" font-weight="100" text-anchor="start" dominant-baseline="central" x="1713.0" y="1272" transform="translate(1668,1272) rotate(0) translate(-1668,-1272)">Medavachchiya</text>
  </g>
  <g>
    <circle r="28" fill="white" stroke="black" stroke-width="7.0" cx="1404" cy="2460"/>
    <text fill="black" stroke="none" font-size="48.0" font-family="p22" font-weight="100" text-anchor="start" dominant-baseline="central" x="1449.0" y="2460" transform="translate(1404,2460) rotate(0) translate(-1404,-2460)">Avissawella</text>
  </g>
  <g>
    <circle r="28" fill="white" stroke="black" stroke-width="7.0" cx="1800" cy="1536"/>
    <text fill="black" stroke="none" font-size="48.0" font-family="p22" font-weight="100" text-anchor="start" dominant-baseline="central" x="1845.0" y="1536" transform="translate(1800,1536) rotate(0) translate(-1800,-1536)">Gal Oya</text>
  </g>
  <g>
    <text fill="gray" stroke="none" font-size="44.0" font-family="p22" font-weight="100" text-anchor="start" dominant-baseline="central" x="1447.0" y="2064" transform="translate(1404,2064) rotate(0) translate(-1404,-2064)">Gampaha</text>
  </g>
  <g>
    <text fill="gray" stroke="none" font-size="44.0" font-family="p22" font-weight="100" text-anchor="start" dominant-baseline="central" x="1975.0" y="1800" transform="translate(1932,1800) rotate(-315) translate(-1932,-1800)">Kandy</text>
  </g>
  <g>
    <text fill="gray" stroke="none" font-size="44.0" font-family="p22" font-weight="100" text-anchor="start" dominant-baseline="central" x="1711.0" y="3120" transform="translate(1668,3120) rotate(-45) translate(-1668,-3120)">Galle</text>
  </g>
  <g>
    <text fill="gray" stroke="none" font-size="44.0" font-family="p22" font-weight="100" text-anchor="end" dominant-baseline="central" x="1625.0" y="1800" transform="translate(1668,1800) rotate(0) translate(-1668,-1800)">Kurunegala</text>
  </g>
  <g>
    <text fill="gray" stroke="none" font-size="44.0" font-family="p22" font-weight="100" text-anchor="end" dominant-baseline="central" x="1625.0" y="1536" transform="translate(1668,1536) rotate(0) translate(-1668,-1536)">Anuradhapura</text>
  </g>
  <g>
    <text fill="gray" stroke="none" font-size="44.0" font-family="p22" font-weight="100" text-anchor="start" dominant-baseline="central" x="1711.0" y="1140" transform="translate(1668,1140) rotate(0) translate(-1668,-1140)">Vavuniya</text>
  </g>
  <g>
    <text fill="gray" stroke="none" font-size="44.0" font-family="p22" font-weight="100" text-anchor="start" dominant-baseline="central" x="1711.0" y="876" transform="translate(1668,876) rotate(0) translate(-1668,-876)">Kilinochchi</text>
  </g>
  <g>
    <text fill="gray" stroke="none" font-size="44.0" font-family="p22" font-weight="100" text-anchor="start" dominant-baseline="central" x="1447.0" y="612" transform="translate(1404,612) rotate(0) translate(-1404,-612)">Jaffna</text>
  </g>
  <g>
    <text fill="gray" stroke="none" font-size="44.0" font-family="p22" font-weight="100" text-anchor="start" dominant-baseline="central" x="2371.0" y="2328" transform="translate(2328,2328) rotate(0) translate(-2328,-2328)">Nuwara Eliya</text>
  </g>
  <g>
    <text fill="gray" stroke="none" font-size="44.0" font-family="p22" font-weight="100" text-anchor="end" dominant-baseline="central" x="1493.0" y="2592" transform="translate(1536,2592) rotate(0) translate(-1536,-2592)">Ratnapura</text>
  </g>
  <g>
    <text fill="gray" stroke="none" font-size="44.0" font-family="p22" font-weight="100" text-anchor="start" dominant-baseline="central" x="1447.0" y="1007" transform="translate(1404,1007) rotate(0) translate(-1404,-1007)">Mannar</text>
  </g>
  <g>
    <text fill="gray" stroke="none" font-size="44.0" font-family="p22" font-weight="100" text-anchor="start" dominant-baseline="central" x="1975.0" y="1667" transform="translate(1932,1667) rotate(-45) translate(-1932,-1667)">Polonnaruwa</text>
  </g>
  <g>
    <text fill="gray" stroke="none" font-size="40" font-family="p22" font-weight="100" text-anchor="end" dominant-baseline="central" x="1495.0" y="1932" transform="translate(1536,1932) rotate(0) translate(-1536,-1932)">Ambepussa</text>
  </g>
  <g>
    <text fill="gray" stroke="none" font-size="40" font-family="p22" font-weight="100" text-anchor="start" dominant-baseline="central" x="1973.0" y="2064" transform="translate(1932,2064) rotate(0) translate(-1932,-2064)">Gampola</text>
  </g>
  <g>
    <text fill="gray" stroke="none" font-size="40" font-family="p22" font-weight="100" text-anchor="start" dominant-baseline="central" x="2105.0" y="2196" transform="translate(2064,2196) rotate(0) translate(-2064,-2196)">Nawalapitiya</text>
  </g>
  <g>
    <text fill="gray" stroke="none" font-size="40" font-family="p22" font-weight="100" text-anchor="end" dominant-baseline="central" x="2155.0" y="2328" transform="translate(2196,2328) rotate(0) translate(-2196,-2328)">Talawakele</text>
  </g>
  <g>
    <text fill="gray" stroke="none" font-size="40" font-family="p22" font-weight="100" text-anchor="start" dominant-baseline="central" x="2501.0" y="2460" transform="translate(2460,2460) rotate(-45) translate(-2460,-2460)">Haputale</text>
  </g>
  <g>
    <text fill="gray" stroke="none" font-size="40" font-family="p22" font-weight="100" text-anchor="start" dominant-baseline="central" x="2633.0" y="2460" transform="translate(2592,2460) rotate(0) translate(-2592,-2460)">Bandarawela</text>
  </g>
  <g>
    <text fill="gray" stroke="none" font-size="40" font-family="p22" font-weight="100" text-anchor="start" dominant-baseline="central" x="1049.0" y="2592" transform="translate(1008,2592) rotate(0) translate(-1008,-2592)">Panadura</text>
  </g>
  <g>
    <text fill="gray" stroke="none" font-size="40" font-family="p22" font-weight="100" text-anchor="start" dominant-baseline="central" x="1049.0" y="2724" transform="translate(1008,2724) rotate(0) translate(-1008,-2724)">Kalutara N.</text>
  </g>
  <g>
    <text fill="gray" stroke="none" font-size="40" font-family="p22" font-weight="100" text-anchor="start" dominant-baseline="central" x="1181.0" y="2856" transform="translate(1140,2856) rotate(0) translate(-1140,-2856)">Wadduwa</text>
  </g>
  <g>
    <text fill="gray" stroke="none" font-size="40" font-family="p22" font-weight="100" text-anchor="start" dominant-baseline="central" x="1313.0" y="2988" transform="translate(1272,2988) rotate(0) translate(-1272,-2988)">Aluthgama</text>
  </g>
  <g>
    <text fill="gray" stroke="none" font-size="40" font-family="p22" font-weight="100" text-anchor="end" dominant-baseline="central" x="1363.0" y="3120" transform="translate(1404,3120) rotate(0) translate(-1404,-3120)">Kosgoda</text>
  </g>
  <g>
    <text fill="gray" stroke="none" font-size="40" font-family="p22" font-weight="100" text-anchor="start" dominant-baseline="central" x="1577.0" y="3120" transform="translate(1536,3120) rotate(-45) translate(-1536,-3120)">Ambalangoda</text>
  </g>
  <g>
    <text fill="gray" stroke="none" font-size="40" font-family="p22" font-weight="100" text-anchor="start" dominant-baseline="central" x="1709.0" y="1404" transform="translate(1668,1404) rotate(0) translate(-1668,-1404)">Mihintale Junction</text>
  </g>
  <g>
    <text fill="gray" stroke="none" font-size="40" font-family="p22" font-weight="100" text-anchor="start" dominant-baseline="central" x="1709.0" y="1007" transform="translate(1668,1007) rotate(0) translate(-1668,-1007)">Omanthai</text>
  </g>
  <g>
    <text fill="gray" stroke="none" font-size="40" font-family="p22" font-weight="100" text-anchor="start" dominant-baseline="central" x="1577.0" y="744" transform="translate(1536,744) rotate(0) translate(-1536,-744)">Pallai</text>
  </g>
  <g>
    <text fill="gray" stroke="none" font-size="40" font-family="p22" font-weight="100" text-anchor="start" dominant-baseline="central" x="1313.0" y="2460" transform="translate(1272,2460) rotate(-45) translate(-1272,-2460)">Homagama</text>
  </g>
  <g>
    <text fill="gray" stroke="none" font-size="40" font-family="p22" font-weight="100" text-anchor="end" dominant-baseline="central" x="2419.0" y="2196" transform="translate(2460,2196) rotate(0) translate(-2460,-2196)">Kandapola</text>
  </g>
  <g>
    <text fill="gray" stroke="none" font-size="40" font-family="p22" font-weight="100" text-anchor="start" dominant-baseline="central" x="1181.0" y="2064" transform="translate(1140,2064) rotate(0) translate(-1140,-2064)">Ja-Ela</text>
  </g>
  <g>
    <text fill="gray" stroke="none" font-size="40" font-family="p22" font-weight="100" text-anchor="start" dominant-baseline="central" x="1049.0" y="1932" transform="translate(1008,1932) rotate(0) translate(-1008,-1932)">Katunayake S.</text>
  </g>
  <g>
    <text fill="gray" stroke="none" font-size="40" font-family="p22" font-weight="100" text-anchor="start" dominant-baseline="central" x="917.0" y="1800" transform="translate(876,1800) rotate(0) translate(-876,-1800)">Negombo</text>
  </g>
  <g>
    <text fill="gray" stroke="none" font-size="40" font-family="p22" font-weight="100" text-anchor="start" dominant-baseline="central" x="917.0" y="1667" transform="translate(876,1667) rotate(0) translate(-876,-1667)">Madampe</text>
  </g>
  <g>
    <text fill="gray" stroke="none" font-size="40" font-family="p22" font-weight="100" text-anchor="start" dominant-baseline="central" x="917.0" y="1536" transform="translate(876,1536) rotate(0) translate(-876,-1536)">Chilaw</text>
  </g>
  <g>
    <text fill="gray" stroke="none" font-size="40" font-family="p22" font-weight="100" text-anchor="end" dominant-baseline="central" x="1495.0" y="1140" transform="translate(1536,1140) rotate(0) translate(-1536,-1140)">Madhu Road</text>
  </g>
</svg>
