<?xml version="1.0" ?>
<svg xmlns="http://www.w3.org/2000/svg" width="3600" height="3600" padding="720">
  <text fill="#fcfcfc" stroke="none" font-size="600.0" font-family="p22" x="1800.0" y="1800.0" text-anchor="middle" dominant-baseline="center">@nuuuwan</text>
  <text fill="black" stroke="none" font-size="160" font-family="p22" x="1800.0" y="360.0" text-anchor="middle" dominant-baseline="hanging">1943</text>
  <text fill="gray" stroke="none" font-size="40" font-family="p22" x="1800.0" y="410.0" text-anchor="middle" dominant-baseline="hanging"/>
  <text fill="gray" stroke="none" font-size="40" font-family="p22" x="1800.0" y="3280.0" text-anchor="middle" dominant-baseline="text-top">data from multiple sources ~ music by @bensound ~ visualization by @nuuuwan</text>
  <g>
    <path fill="none" stroke-width="29.400000000000002" stroke-opacity="1" d="M 1152.0,2340.0 L 1260.0,2232.0 L 1368.0,2124.0 L 1476.0,2016.0 L 1580.1816233815925,1911.8183766184075 C 1581.4544155877284,1910.5455844122716 1587.6,1908.0 1589.4,1908.0 L 1692.0,1908.0 L 1794.6,1908.0 C 1796.4,1908.0 1802.5455844122716,1910.5455844122716 1803.8183766184075,1911.8183766184075 L 1908.0,2016.0 L 2016.0,2124.0 L 2124.0,2232.0 L 2228.1816233815925,2336.1816233815925 C 2229.4544155877284,2337.4544155877284 2235.6,2340.0 2237.4,2340.0 L 2340.0,2340.0 L 2442.6,2340.0 C 2444.4,2340.0 2450.5455844122716,2337.4544155877284 2451.8183766184075,2336.1816233815925 L 2556.0,2232.0" stroke="red"/>
    <rect stroke="none" fill-opacity="1" x="2542" y="2204" width="28" height="56" fill="red"/>
  </g>
  <g>
    <path fill="none" stroke-width="29.400000000000002" stroke-opacity="1" d="M 1800.0,1908.0 L 1904.1816233815925,1803.8183766184075 C 1905.4544155877284,1802.5455844122716 1911.6,1800.0 1913.4,1800.0 L 2016.0,1800.0" stroke="purple"/>
    <rect stroke="none" fill-opacity="1" x="2002" y="1772" width="28" height="56" fill="purple"/>
  </g>
  <g>
    <path fill="none" stroke-width="29.400000000000002" stroke-opacity="1" d="M 1152.0,2340.0 L 1152.0,2448.0 L 1152.0,2550.6 C 1152.0,2552.4 1154.5455844122716,2558.5455844122716 1155.8183766184075,2559.8183766184075 L 1260.0,2664.0 L 1368.0,2772.0 L 1472.1816233815925,2876.1816233815925 C 1473.4544155877284,2877.4544155877284 1479.6,2880.0 1481.4,2880.0 L 1584.0,2880.0 L 1692.0,2880.0 L 1800.0,2880.0" stroke="cyan"/>
    <rect stroke="none" fill-opacity="1" x="1786" y="2852" width="28" height="56" fill="cyan"/>
  </g>
  <g>
    <path fill="none" stroke-width="29.400000000000002" stroke-opacity="1" d="M 1692.0,1908.0 L 1692.0,1800.0 L 1692.0,1692.0 L 1692.0,1584.0 L 1692.0,1476.0 L 1692.0,1368.0 L 1692.0,1260.0 L 1692.0,1152.0 L 1692.0,1049.4 C 1692.0,1047.6 1689.4544155877284,1041.4544155877284 1688.1816233815925,1040.1816233815925 L 1584.0,936.0 L 1479.8183766184075,831.8183766184073 C 1478.5455844122716,830.5455844122715 1476.0,824.4 1476.0,822.6 L 1476.0,720.0" stroke="orange"/>
    <rect stroke="none" fill-opacity="1" x="1448" y="706" width="56" height="28" fill="orange"/>
  </g>
  <g>
    <path fill="none" stroke-width="29.400000000000002" stroke-opacity="1" d="M 1260.0,2232.0 L 1364.1816233815925,2336.1816233815925 C 1365.4544155877284,2337.4544155877284 1371.6,2340.0 1373.4,2340.0 L 1476.0,2340.0" stroke="darkblue"/>
    <rect stroke="none" fill-opacity="1" x="1462" y="2312" width="28" height="56" fill="darkblue"/>
  </g>
  <g>
    <path fill="none" stroke-width="29.400000000000002" stroke-opacity="1" d="M 2232.0,2340.0 L 2232.0,2237.4 C 2232.0,2235.6 2234.5455844122716,2229.4544155877284 2235.8183766184075,2228.1816233815925 L 2336.1816233815925,2127.8183766184075 C 2337.4544155877284,2126.5455844122716 2343.6,2124.0 2345.4,2124.0 L 2448.0,2124.0" stroke="gray"/>
    <rect stroke="none" fill-opacity="1" x="2434" y="2096" width="28" height="56" fill="gray"/>
  </g>
  <g>
    <path fill="none" stroke-width="29.400000000000002" stroke-opacity="1" d="M 1368.0,2124.0 L 1260.0,2016.0 L 1152.0,1908.0 L 1047.8183766184075,1803.8183766184075 C 1046.5455844122716,1802.5455844122716 1044.0,1796.4 1044.0,1794.6 L 1044.0,1692.0 L 1044.0,1584.0 L 1044.0,1476.0" stroke="green"/>
    <rect stroke="none" fill-opacity="1" x="1016" y="1462" width="56" height="28" fill="green"/>
  </g>
  <g>
    <path fill="none" stroke-width="29.400000000000002" stroke-opacity="1" d="M 1476.0,2340.0 L 1580.1816233815925,2444.1816233815925 C 1581.4544155877284,2445.4544155877284 1587.6,2448.0 1589.4,2448.0 L 1692.0,2448.0" stroke="lightblue"/>
    <rect stroke="none" fill-opacity="1" x="1678" y="2420" width="28" height="56" fill="lightblue"/>
  </g>
  <g>
    <path fill="none" stroke-width="29.400000000000002" stroke-opacity="1" d="M 1692.0,1368.0 L 1584.0,1260.0 L 1479.8183766184075,1155.8183766184075 C 1478.5455844122716,1154.5455844122716 1472.4,1152.0 1470.6,1152.0 L 1368.0,1152.0" stroke="blue"/>
    <rect stroke="none" fill-opacity="1" x="1354" y="1124" width="28" height="56" fill="blue"/>
  </g>
  <g>
    <path fill="none" stroke-width="29.400000000000002" stroke-opacity="1" d="M 1692.0,1692.0 L 1794.6,1589.4 C 1796.4,1587.6 1803.6,1587.6 1805.4,1589.4 L 1904.1816233815925,1688.1816233815925 C 1905.4544155877284,1689.4544155877284 1911.6,1692.0 1913.4,1692.0 L 2016.0,1692.0" stroke="darkgreen"/>
    <rect stroke="none" fill-opacity="1" x="2002" y="1664" width="28" height="56" fill="darkgreen"/>
  </g>
  <g>
    <path fill="none" stroke-width="29.400000000000002" stroke-opacity="1" d="M 1800.0,1584.0 L 1908.0,1476.0" stroke="silver"/>
    <rect stroke="none" fill-opacity="1" x="1894" y="1448" width="28" height="56" fill="silver"/>
  </g>
  <g>
    <text fill="black" stroke="none" font-size="56.0" font-family="p22" font-weight="100" text-anchor="start" dominant-baseline="central" x="2605.0" y="2232" transform="translate(2556,2232) rotate(0) translate(-2556,-2232)">Badulla</text>
  </g>
  <g>
    <text fill="black" stroke="none" font-size="56.0" font-family="p22" font-weight="100" text-anchor="start" dominant-baseline="central" x="2065.0" y="1800" transform="translate(2016,1800) rotate(0) translate(-2016,-1800)">Matale</text>
  </g>
  <g>
    <text fill="black" stroke="none" font-size="56.0" font-family="p22" font-weight="100" text-anchor="start" dominant-baseline="central" x="1849.0" y="2880" transform="translate(1800,2880) rotate(0) translate(-1800,-2880)">Matara</text>
  </g>
  <g>
    <text fill="black" stroke="none" font-size="56.0" font-family="p22" font-weight="100" text-anchor="start" dominant-baseline="central" x="1525.0" y="720" transform="translate(1476,720) rotate(0) translate(-1476,-720)">Kankesanthurai</text>
  </g>
  <g>
    <text fill="black" stroke="none" font-size="56.0" font-family="p22" font-weight="100" text-anchor="start" dominant-baseline="central" x="2497.0" y="2124" transform="translate(2448,2124) rotate(0) translate(-2448,-2124)">Ragala</text>
  </g>
  <g>
    <text fill="black" stroke="none" font-size="56.0" font-family="p22" font-weight="100" text-anchor="start" dominant-baseline="central" x="1093.0" y="1476" transform="translate(1044,1476) rotate(0) translate(-1044,-1476)">Bangadeniya</text>
  </g>
  <g>
    <text fill="black" stroke="none" font-size="56.0" font-family="p22" font-weight="100" text-anchor="start" dominant-baseline="central" x="1741.0" y="2448" transform="translate(1692,2448) rotate(0) translate(-1692,-2448)">Opanayaka</text>
  </g>
  <g>
    <text fill="black" stroke="none" font-size="56.0" font-family="p22" font-weight="100" text-anchor="end" dominant-baseline="central" x="1319.0" y="1152" transform="translate(1368,1152) rotate(0) translate(-1368,-1152)">Talaimanar Pier</text>
  </g>
  <g>
    <text fill="black" stroke="none" font-size="56.0" font-family="p22" font-weight="100" text-anchor="start" dominant-baseline="central" x="2065.0" y="1692" transform="translate(2016,1692) rotate(0) translate(-2016,-1692)">Batticaloa</text>
  </g>
  <g>
    <text fill="black" stroke="none" font-size="56.0" font-family="p22" font-weight="100" text-anchor="start" dominant-baseline="central" x="1957.0" y="1476" transform="translate(1908,1476) rotate(0) translate(-1908,-1476)">Trincomalee</text>
  </g>
  <g>
    <circle r="28" fill="white" stroke="black" stroke-width="7.0" cx="1152" cy="2340"/>
    <text fill="black" stroke="none" font-size="48.0" font-family="p22" font-weight="100" text-anchor="start" dominant-baseline="central" x="1197.0" y="2340" transform="translate(1152,2340) rotate(0) translate(-1152,-2340)">C. Fort</text>
  </g>
  <g>
    <circle r="28" fill="white" stroke="black" stroke-width="7.0" cx="1260" cy="2232"/>
    <text fill="black" stroke="none" font-size="48.0" font-family="p22" font-weight="100" text-anchor="start" dominant-baseline="central" x="1305.0" y="2232" transform="translate(1260,2232) rotate(0) translate(-1260,-2232)">Maradana</text>
  </g>
  <g>
    <circle r="28" fill="white" stroke="black" stroke-width="7.0" cx="1368" cy="2124"/>
    <text fill="black" stroke="none" font-size="48.0" font-family="p22" font-weight="100" text-anchor="start" dominant-baseline="central" x="1413.0" y="2124" transform="translate(1368,2124) rotate(0) translate(-1368,-2124)">Ragama</text>
  </g>
  <g>
    <circle r="28" fill="white" stroke="black" stroke-width="7.0" cx="1692" cy="1908"/>
    <text fill="black" stroke="none" font-size="48.0" font-family="p22" font-weight="100" text-anchor="start" dominant-baseline="central" x="1737.0" y="1908" transform="translate(1692,1908) rotate(-45) translate(-1692,-1908)">Polgahawela</text>
  </g>
  <g>
    <circle r="28" fill="white" stroke="black" stroke-width="7.0" cx="1800" cy="1908"/>
    <text fill="black" stroke="none" font-size="48.0" font-family="p22" font-weight="100" text-anchor="start" dominant-baseline="central" x="1845.0" y="1908" transform="translate(1800,1908) rotate(0) translate(-1800,-1908)">Peradeniya</text>
  </g>
  <g>
    <circle r="28" fill="white" stroke="black" stroke-width="7.0" cx="2232" cy="2340"/>
    <text fill="black" stroke="none" font-size="48.0" font-family="p22" font-weight="100" text-anchor="end" dominant-baseline="central" x="2187.0" y="2340" transform="translate(2232,2340) rotate(0) translate(-2232,-2340)">Nanu Oya</text>
  </g>
  <g>
    <circle r="28" fill="white" stroke="black" stroke-width="7.0" cx="1692" cy="1692"/>
    <text fill="black" stroke="none" font-size="48.0" font-family="p22" font-weight="100" text-anchor="start" dominant-baseline="central" x="1737.0" y="1692" transform="translate(1692,1692) rotate(0) translate(-1692,-1692)">Maho</text>
  </g>
  <g>
    <circle r="28" fill="white" stroke="black" stroke-width="7.0" cx="1692" cy="1368"/>
    <text fill="black" stroke="none" font-size="48.0" font-family="p22" font-weight="100" text-anchor="start" dominant-baseline="central" x="1737.0" y="1368" transform="translate(1692,1368) rotate(0) translate(-1692,-1368)">Medavachchiya</text>
  </g>
  <g>
    <circle r="28" fill="white" stroke="black" stroke-width="7.0" cx="1476" cy="2340"/>
    <text fill="black" stroke="none" font-size="48.0" font-family="p22" font-weight="100" text-anchor="start" dominant-baseline="central" x="1521.0" y="2340" transform="translate(1476,2340) rotate(0) translate(-1476,-2340)">Avissawella</text>
  </g>
  <g>
    <circle r="28" fill="white" stroke="black" stroke-width="7.0" cx="1800" cy="1584"/>
    <text fill="black" stroke="none" font-size="48.0" font-family="p22" font-weight="100" text-anchor="start" dominant-baseline="central" x="1845.0" y="1584" transform="translate(1800,1584) rotate(0) translate(-1800,-1584)">Gal Oya</text>
  </g>
  <g>
    <text fill="gray" stroke="none" font-size="44.0" font-family="p22" font-weight="100" text-anchor="start" dominant-baseline="central" x="1519.0" y="2016" transform="translate(1476,2016) rotate(0) translate(-1476,-2016)">Gampaha</text>
  </g>
  <g>
    <text fill="gray" stroke="none" font-size="44.0" font-family="p22" font-weight="100" text-anchor="start" dominant-baseline="central" x="1951.0" y="1800" transform="translate(1908,1800) rotate(-315) translate(-1908,-1800)">Kandy</text>
  </g>
  <g>
    <text fill="gray" stroke="none" font-size="44.0" font-family="p22" font-weight="100" text-anchor="start" dominant-baseline="central" x="1735.0" y="2880" transform="translate(1692,2880) rotate(-45) translate(-1692,-2880)">Galle</text>
  </g>
  <g>
    <text fill="gray" stroke="none" font-size="44.0" font-family="p22" font-weight="100" text-anchor="end" dominant-baseline="central" x="1649.0" y="1800" transform="translate(1692,1800) rotate(0) translate(-1692,-1800)">Kurunegala</text>
  </g>
  <g>
    <text fill="gray" stroke="none" font-size="44.0" font-family="p22" font-weight="100" text-anchor="end" dominant-baseline="central" x="1649.0" y="1584" transform="translate(1692,1584) rotate(0) translate(-1692,-1584)">Anuradhapura</text>
  </g>
  <g>
    <text fill="gray" stroke="none" font-size="44.0" font-family="p22" font-weight="100" text-anchor="start" dominant-baseline="central" x="1735.0" y="1260" transform="translate(1692,1260) rotate(0) translate(-1692,-1260)">Vavuniya</text>
  </g>
  <g>
    <text fill="gray" stroke="none" font-size="44.0" font-family="p22" font-weight="100" text-anchor="start" dominant-baseline="central" x="1735.0" y="1044" transform="translate(1692,1044) rotate(0) translate(-1692,-1044)">Kilinochchi</text>
  </g>
  <g>
    <text fill="gray" stroke="none" font-size="44.0" font-family="p22" font-weight="100" text-anchor="start" dominant-baseline="central" x="1519.0" y="828" transform="translate(1476,828) rotate(0) translate(-1476,-828)">Jaffna</text>
  </g>
  <g>
    <text fill="gray" stroke="none" font-size="44.0" font-family="p22" font-weight="100" text-anchor="start" dominant-baseline="central" x="2275.0" y="2232" transform="translate(2232,2232) rotate(0) translate(-2232,-2232)">Nuwara Eliya</text>
  </g>
  <g>
    <text fill="gray" stroke="none" font-size="44.0" font-family="p22" font-weight="100" text-anchor="end" dominant-baseline="central" x="1541.0" y="2448" transform="translate(1584,2448) rotate(0) translate(-1584,-2448)">Ratnapura</text>
  </g>
  <g>
    <text fill="gray" stroke="none" font-size="44.0" font-family="p22" font-weight="100" text-anchor="start" dominant-baseline="central" x="1519.0" y="1152" transform="translate(1476,1152) rotate(0) translate(-1476,-1152)">Mannar</text>
  </g>
  <g>
    <text fill="gray" stroke="none" font-size="44.0" font-family="p22" font-weight="100" text-anchor="start" dominant-baseline="central" x="1951.0" y="1692" transform="translate(1908,1692) rotate(-45) translate(-1908,-1692)">Polonnaruwa</text>
  </g>
  <g>
    <text fill="gray" stroke="none" font-size="40" font-family="p22" font-weight="100" text-anchor="end" dominant-baseline="central" x="1543.0" y="1908" transform="translate(1584,1908) rotate(0) translate(-1584,-1908)">Ambepussa</text>
  </g>
  <g>
    <text fill="gray" stroke="none" font-size="40" font-family="p22" font-weight="100" text-anchor="start" dominant-baseline="central" x="1949.0" y="2016" transform="translate(1908,2016) rotate(0) translate(-1908,-2016)">Gampola</text>
  </g>
  <g>
    <text fill="gray" stroke="none" font-size="40" font-family="p22" font-weight="100" text-anchor="start" dominant-baseline="central" x="2057.0" y="2124" transform="translate(2016,2124) rotate(0) translate(-2016,-2124)">Nawalapitiya</text>
  </g>
  <g>
    <text fill="gray" stroke="none" font-size="40" font-family="p22" font-weight="100" text-anchor="end" dominant-baseline="central" x="2083.0" y="2232" transform="translate(2124,2232) rotate(0) translate(-2124,-2232)">Talawakele</text>
  </g>
  <g>
    <text fill="gray" stroke="none" font-size="40" font-family="p22" font-weight="100" text-anchor="start" dominant-baseline="central" x="2381.0" y="2340" transform="translate(2340,2340) rotate(-45) translate(-2340,-2340)">Haputale</text>
  </g>
  <g>
    <text fill="gray" stroke="none" font-size="40" font-family="p22" font-weight="100" text-anchor="start" dominant-baseline="central" x="2489.0" y="2340" transform="translate(2448,2340) rotate(0) translate(-2448,-2340)">Bandarawela</text>
  </g>
  <g>
    <text fill="gray" stroke="none" font-size="40" font-family="p22" font-weight="100" text-anchor="start" dominant-baseline="central" x="1193.0" y="2448" transform="translate(1152,2448) rotate(0) translate(-1152,-2448)">Panadura</text>
  </g>
  <g>
    <text fill="gray" stroke="none" font-size="40" font-family="p22" font-weight="100" text-anchor="start" dominant-baseline="central" x="1193.0" y="2556" transform="translate(1152,2556) rotate(0) translate(-1152,-2556)">Kalutara N.</text>
  </g>
  <g>
    <text fill="gray" stroke="none" font-size="40" font-family="p22" font-weight="100" text-anchor="start" dominant-baseline="central" x="1301.0" y="2664" transform="translate(1260,2664) rotate(0) translate(-1260,-2664)">Wadduwa</text>
  </g>
  <g>
    <text fill="gray" stroke="none" font-size="40" font-family="p22" font-weight="100" text-anchor="start" dominant-baseline="central" x="1409.0" y="2772" transform="translate(1368,2772) rotate(0) translate(-1368,-2772)">Aluthgama</text>
  </g>
  <g>
    <text fill="gray" stroke="none" font-size="40" font-family="p22" font-weight="100" text-anchor="end" dominant-baseline="central" x="1435.0" y="2880" transform="translate(1476,2880) rotate(0) translate(-1476,-2880)">Kosgoda</text>
  </g>
  <g>
    <text fill="gray" stroke="none" font-size="40" font-family="p22" font-weight="100" text-anchor="start" dominant-baseline="central" x="1625.0" y="2880" transform="translate(1584,2880) rotate(-45) translate(-1584,-2880)">Ambalangoda</text>
  </g>
  <g>
    <text fill="gray" stroke="none" font-size="40" font-family="p22" font-weight="100" text-anchor="start" dominant-baseline="central" x="1733.0" y="1476" transform="translate(1692,1476) rotate(0) translate(-1692,-1476)">Mihintale Junction</text>
  </g>
  <g>
    <text fill="gray" stroke="none" font-size="40" font-family="p22" font-weight="100" text-anchor="start" dominant-baseline="central" x="1733.0" y="1152" transform="translate(1692,1152) rotate(0) translate(-1692,-1152)">Omanthai</text>
  </g>
  <g>
    <text fill="gray" stroke="none" font-size="40" font-family="p22" font-weight="100" text-anchor="start" dominant-baseline="central" x="1625.0" y="936" transform="translate(1584,936) rotate(0) translate(-1584,-936)">Pallai</text>
  </g>
  <g>
    <text fill="gray" stroke="none" font-size="40" font-family="p22" font-weight="100" text-anchor="start" dominant-baseline="central" x="1409.0" y="2340" transform="translate(1368,2340) rotate(-45) translate(-1368,-2340)">Homagama</text>
  </g>
  <g>
    <text fill="gray" stroke="none" font-size="40" font-family="p22" font-weight="100" text-anchor="end" dominant-baseline="central" x="2299.0" y="2124" transform="translate(2340,2124) rotate(0) translate(-2340,-2124)">Kandapola</text>
  </g>
  <g>
    <text fill="gray" stroke="none" font-size="40" font-family="p22" font-weight="100" text-anchor="start" dominant-baseline="central" x="1301.0" y="2016" transform="translate(1260,2016) rotate(0) translate(-1260,-2016)">Ja-Ela</text>
  </g>
  <g>
    <text fill="gray" stroke="none" font-size="40" font-family="p22" font-weight="100" text-anchor="start" dominant-baseline="central" x="1193.0" y="1908" transform="translate(1152,1908) rotate(0) translate(-1152,-1908)">Katunayake S.</text>
  </g>
  <g>
    <text fill="gray" stroke="none" font-size="40" font-family="p22" font-weight="100" text-anchor="start" dominant-baseline="central" x="1085.0" y="1800" transform="translate(1044,1800) rotate(0) translate(-1044,-1800)">Negombo</text>
  </g>
  <g>
    <text fill="gray" stroke="none" font-size="40" font-family="p22" font-weight="100" text-anchor="start" dominant-baseline="central" x="1085.0" y="1692" transform="translate(1044,1692) rotate(0) translate(-1044,-1692)">Madampe</text>
  </g>
  <g>
    <text fill="gray" stroke="none" font-size="40" font-family="p22" font-weight="100" text-anchor="start" dominant-baseline="central" x="1085.0" y="1584" transform="translate(1044,1584) rotate(0) translate(-1044,-1584)">Chilaw</text>
  </g>
  <g>
    <text fill="gray" stroke="none" font-size="40" font-family="p22" font-weight="100" text-anchor="end" dominant-baseline="central" x="1543.0" y="1260" transform="translate(1584,1260) rotate(0) translate(-1584,-1260)">Madhu Road</text>
  </g>
</svg>
