<?xml version="1.0" ?>
<svg xmlns="http://www.w3.org/2000/svg" width="1440" height="1440" padding="144">
  <text fill="#fcfcfc" stroke="none" font-size="240.0" font-family="p22" x="720.0" y="720.0" text-anchor="middle" dominant-baseline="center">@nuuuwan</text>
  <text fill="gray" stroke="none" font-size="80" font-family="p22" x="720.0" y="92.0" text-anchor="middle" dominant-baseline="hanging">1946</text>
  <text fill="gray" stroke="none" font-size="20" font-family="p22" x="720.0" y="1388.0" text-anchor="middle" dominant-baseline="text-top">History of the Railways in Sri Lanka</text>
  <g>
    <path fill="none" stroke-width="12.600000000000001" stroke-opacity="1" d="M 432.0,1008.0 L 486.15,952.9 C 487.1,951.9333333333333 490.91673912906504,948.083260870935 491.8751086935975,947.1248913064024 L 547.0,892.0 L 604.0,835.0 L 659.949390334559,779.050609665441 C 660.632926889706,778.367073110294 663.9333333333333,777.0 664.9,777.0 L 720.0,777.0 L 774.15,777.0 C 775.1,777.0 778.3435028842545,778.3435028842545 779.0152543263816,779.0152543263816 L 835.0,835.0 L 889.949390334559,889.949390334559 C 890.632926889706,890.632926889706 893.9333333333333,892.0 894.9,892.0 L 947.245,892.0 C 948.1633333333333,892.0 951.309963142349,890.7126224290708 951.9649447135236,890.0689336436062 L 1008.0,835.0" stroke="red"/>
    <rect stroke="none" fill-opacity="1" x="1002" y="823" width="12" height="24" fill="red"/>
  </g>
  <g>
    <path fill="none" stroke-width="12.600000000000001" stroke-opacity="1" d="M 777.0,777.0 L 832.967298572217,721.9976548514419 C 833.6448657148113,721.3317699009613 836.9,720.0 837.85,720.0 L 892.0,720.0" stroke="purple"/>
    <rect stroke="none" fill-opacity="1" x="886" y="708" width="12" height="24" fill="purple"/>
  </g>
  <g>
    <path fill="none" stroke-width="12.600000000000001" stroke-opacity="1" d="M 432.0,1008.0 L 432.0,1065.0 L 432.0,1120.1 C 432.0,1121.0666666666666 433.367073110294,1124.367073110294 434.050609665441,1125.050609665441 L 489.0,1180.0 L 544.1248913064024,1235.1248913064026 C 545.083260870935,1236.083260870935 548.9,1239.9333333333334 549.85,1240.9 L 601.967298572217,1293.9316371436594 C 602.6448657148113,1294.6210914291064 605.9333333333333,1296.0 606.9,1296.0 L 662.0,1296.0 L 720.0,1296.0" stroke="cyan"/>
    <rect stroke="none" fill-opacity="1" x="714" y="1284" width="12" height="24" fill="cyan"/>
  </g>
  <g>
    <path fill="none" stroke-width="12.600000000000001" stroke-opacity="1" d="M 720.0,777.0 L 720.0,720.0 L 720.0,662.0 L 720.0,604.0 L 720.0,547.0 L 720.0,489.0 L 720.0,432.0 L 720.0,374.0 L 720.0,318.9 C 720.0,317.93333333333334 718.6210914291063,314.6448657148114 717.9316371436595,313.96729857221703 L 664.796581857183,261.74836492861084 C 663.8643879047886,260.83224328574056 660.1516145264496,257.1516145264497 659.2274217896745,256.2274217896745 L 606.0152543263816,203.01525432638167 C 605.3435028842545,202.34350288425443 604.0,199.1 604.0,198.15 L 604.0,144.0" stroke="orange"/>
    <rect stroke="none" fill-opacity="1" x="592" y="138" width="24" height="12" fill="orange"/>
  </g>
  <g>
    <path fill="none" stroke-width="12.600000000000001" stroke-opacity="1" d="M 489.0,950.0 L 544.9847456736184,1005.9847456736184 C 545.6564971157455,1006.6564971157455 548.9,1008.0 549.85,1008.0 L 604.0,1008.0" stroke="darkblue"/>
    <rect stroke="none" fill-opacity="1" x="598" y="996" width="12" height="24" fill="darkblue"/>
  </g>
  <g>
    <path fill="none" stroke-width="12.600000000000001" stroke-opacity="1" d="M 892.0,892.0 L 892.0,837.85 C 892.0,836.9 893.3435028842545,833.6564971157455 894.0152543263816,832.9847456736184 L 947.949390334559,779.050609665441 C 948.632926889706,778.367073110294 951.9333333333333,777.0 952.9,777.0 L 1008.0,777.0" stroke="gray"/>
    <rect stroke="none" fill-opacity="1" x="1002" y="765" width="12" height="24" fill="gray"/>
  </g>
  <g>
    <path fill="none" stroke-width="12.600000000000001" stroke-opacity="1" d="M 547.0,892.0 L 491.9,837.85 C 490.93333333333334,836.9 487.1,833.0666666666667 486.15,832.1 L 433.99765485144184,779.032701427783 C 433.33176990096126,778.3551342851887 432.0,775.1 432.0,774.15 L 432.0,720.0 L 432.0,662.0 L 432.0,604.0 L 432.0,547.0" stroke="green"/>
    <rect stroke="none" fill-opacity="1" x="420" y="541" width="24" height="12" fill="green"/>
  </g>
  <g>
    <path fill="none" stroke-width="12.600000000000001" stroke-opacity="1" d="M 604.0,1008.0 L 659.9316371436595,1062.967298572217 C 660.6210914291063,1063.6448657148114 663.9333333333333,1065.0 664.9,1065.0 L 720.0,1065.0" stroke="lightblue"/>
    <rect stroke="none" fill-opacity="1" x="714" y="1053" width="12" height="24" fill="lightblue"/>
  </g>
  <g>
    <path fill="none" stroke-width="12.600000000000001" stroke-opacity="1" d="M 720.0,489.0 L 664.9,434.85 C 663.9333333333333,433.9 660.083260870935,430.08326087093496 659.1248913064024,429.1248913064025 L 606.0152543263816,376.01525432638164 C 605.3435028842545,375.34350288425446 602.1,374.0 601.15,374.0 L 547.0,374.0" stroke="blue"/>
    <rect stroke="none" fill-opacity="1" x="541" y="362" width="12" height="24" fill="blue"/>
  </g>
  <g>
    <path fill="none" stroke-width="12.600000000000001" stroke-opacity="1" d="M 720.0,662.0 L 774.15,606.9 C 775.1,605.9333333333333 778.916739129065,605.916739129065 779.8751086935976,606.8751086935976 L 832.9847456736184,659.9847456736184 C 833.6564971157455,660.6564971157455 836.9,662.0 837.85,662.0 L 892.0,662.0" stroke="darkgreen"/>
    <rect stroke="none" fill-opacity="1" x="886" y="650" width="12" height="24" fill="darkgreen"/>
  </g>
  <g>
    <path fill="none" stroke-width="12.600000000000001" stroke-opacity="1" d="M 777.0,604.0 L 835.0,547.0" stroke="silver"/>
    <rect stroke="none" fill-opacity="1" x="829" y="535" width="12" height="24" fill="silver"/>
  </g>
  <g>
    <text fill="black" stroke="none" font-size="28.0" font-family="p22" font-weight="100" text-anchor="start" dominant-baseline="central" x="1031.0" y="835" transform="translate(1008,835) rotate(0) translate(-1008,-835)">BADULLA</text>
  </g>
  <g>
    <text fill="black" stroke="none" font-size="28.0" font-family="p22" font-weight="100" text-anchor="start" dominant-baseline="central" x="915.0" y="720" transform="translate(892,720) rotate(0) translate(-892,-720)">MATALE</text>
  </g>
  <g>
    <text fill="black" stroke="none" font-size="28.0" font-family="p22" font-weight="100" text-anchor="start" dominant-baseline="central" x="743.0" y="1296" transform="translate(720,1296) rotate(0) translate(-720,-1296)">MATARA</text>
  </g>
  <g>
    <text fill="black" stroke="none" font-size="28.0" font-family="p22" font-weight="100" text-anchor="start" dominant-baseline="central" x="627.0" y="144" transform="translate(604,144) rotate(0) translate(-604,-144)">Kankesanthurai</text>
  </g>
  <g>
    <text fill="black" stroke="none" font-size="28.0" font-family="p22" font-weight="100" text-anchor="start" dominant-baseline="central" x="1031.0" y="777" transform="translate(1008,777) rotate(0) translate(-1008,-777)">Ragala</text>
  </g>
  <g>
    <text fill="black" stroke="none" font-size="28.0" font-family="p22" font-weight="100" text-anchor="start" dominant-baseline="central" x="455.0" y="547" transform="translate(432,547) rotate(0) translate(-432,-547)">Periyanagavillu</text>
  </g>
  <g>
    <text fill="black" stroke="none" font-size="28.0" font-family="p22" font-weight="100" text-anchor="start" dominant-baseline="central" x="743.0" y="1065" transform="translate(720,1065) rotate(0) translate(-720,-1065)">Opanayaka</text>
  </g>
  <g>
    <text fill="black" stroke="none" font-size="28.0" font-family="p22" font-weight="100" text-anchor="end" dominant-baseline="central" x="524.0" y="374" transform="translate(547,374) rotate(0) translate(-547,-374)">Talaimanar Pier</text>
  </g>
  <g>
    <text fill="black" stroke="none" font-size="28.0" font-family="p22" font-weight="100" text-anchor="start" dominant-baseline="central" x="915.0" y="662" transform="translate(892,662) rotate(0) translate(-892,-662)">BATTICALOA</text>
  </g>
  <g>
    <text fill="black" stroke="none" font-size="28.0" font-family="p22" font-weight="100" text-anchor="start" dominant-baseline="central" x="858.0" y="547" transform="translate(835,547) rotate(0) translate(-835,-547)">TRINCOMALEE</text>
  </g>
  <g>
    <circle r="12" fill="white" stroke="black" stroke-width="3.0" cx="432" cy="1008"/>
    <text fill="black" stroke="none" font-size="24.0" font-family="p22" font-weight="100" text-anchor="end" dominant-baseline="central" x="411.0" y="1008" transform="translate(432,1008) rotate(0) translate(-432,-1008)">COLOMBO Fort</text>
  </g>
  <g>
    <circle r="12" fill="white" stroke="black" stroke-width="3.0" cx="489" cy="950"/>
    <text fill="black" stroke="none" font-size="24.0" font-family="p22" font-weight="100" text-anchor="start" dominant-baseline="central" x="510.0" y="950" transform="translate(489,950) rotate(0) translate(-489,-950)">Maradana</text>
  </g>
  <g>
    <circle r="12" fill="white" stroke="black" stroke-width="3.0" cx="547" cy="892"/>
    <text fill="black" stroke="none" font-size="24.0" font-family="p22" font-weight="100" text-anchor="start" dominant-baseline="central" x="568.0" y="892" transform="translate(547,892) rotate(0) translate(-547,-892)">Ragama</text>
  </g>
  <g>
    <circle r="12" fill="white" stroke="black" stroke-width="3.0" cx="720" cy="777"/>
    <text fill="black" stroke="none" font-size="24.0" font-family="p22" font-weight="100" text-anchor="end" dominant-baseline="central" x="699.0" y="777" transform="translate(720,777) rotate(45) translate(-720,-777)">Polgahawela</text>
  </g>
  <g>
    <circle r="12" fill="white" stroke="black" stroke-width="3.0" cx="777" cy="777"/>
    <text fill="black" stroke="none" font-size="24.0" font-family="p22" font-weight="100" text-anchor="start" dominant-baseline="central" x="798.0" y="777" transform="translate(777,777) rotate(0) translate(-777,-777)">Peradeniya</text>
  </g>
  <g>
    <circle r="12" fill="white" stroke="black" stroke-width="3.0" cx="892" cy="892"/>
    <text fill="black" stroke="none" font-size="24.0" font-family="p22" font-weight="100" text-anchor="end" dominant-baseline="central" x="871.0" y="892" transform="translate(892,892) rotate(0) translate(-892,-892)">Nanu Oya</text>
  </g>
  <g>
    <circle r="12" fill="white" stroke="black" stroke-width="3.0" cx="720" cy="662"/>
    <text fill="black" stroke="none" font-size="24.0" font-family="p22" font-weight="100" text-anchor="end" dominant-baseline="central" x="699.0" y="662" transform="translate(720,662) rotate(45) translate(-720,-662)">Maho</text>
  </g>
  <g>
    <circle r="12" fill="white" stroke="black" stroke-width="3.0" cx="720" cy="489"/>
    <text fill="black" stroke="none" font-size="24.0" font-family="p22" font-weight="100" text-anchor="start" dominant-baseline="central" x="741.0" y="489" transform="translate(720,489) rotate(0) translate(-720,-489)">Medavachchiya</text>
  </g>
  <g>
    <circle r="12" fill="white" stroke="black" stroke-width="3.0" cx="604" cy="1008"/>
    <text fill="black" stroke="none" font-size="24.0" font-family="p22" font-weight="100" text-anchor="start" dominant-baseline="central" x="625.0" y="1008" transform="translate(604,1008) rotate(0) translate(-604,-1008)">Avissawella</text>
  </g>
  <g>
    <circle r="12" fill="white" stroke="black" stroke-width="3.0" cx="777" cy="604"/>
    <text fill="black" stroke="none" font-size="24.0" font-family="p22" font-weight="100" text-anchor="start" dominant-baseline="central" x="798.0" y="604" transform="translate(777,604) rotate(0) translate(-777,-604)">Gal Oya</text>
  </g>
  <g>
    <text fill="gray" stroke="none" font-size="22.0" font-family="p22" font-weight="100" text-anchor="start" dominant-baseline="central" x="624.0" y="835" transform="translate(604,835) rotate(0) translate(-604,-835)">GAMPAHA</text>
  </g>
  <g/>
  <g>
    <text fill="gray" stroke="none" font-size="22.0" font-family="p22" font-weight="100" text-anchor="start" dominant-baseline="central" x="682.0" y="1296" transform="translate(662,1296) rotate(-45) translate(-662,-1296)">GALLE</text>
  </g>
  <g>
    <text fill="gray" stroke="none" font-size="22.0" font-family="p22" font-weight="100" text-anchor="end" dominant-baseline="central" x="700.0" y="720" transform="translate(720,720) rotate(45) translate(-720,-720)">KURUNEGALA</text>
  </g>
  <g>
    <text fill="gray" stroke="none" font-size="22.0" font-family="p22" font-weight="100" text-anchor="end" dominant-baseline="central" x="700.0" y="604" transform="translate(720,604) rotate(45) translate(-720,-604)">ANURADHAPURA</text>
  </g>
  <g>
    <text fill="gray" stroke="none" font-size="22.0" font-family="p22" font-weight="100" text-anchor="start" dominant-baseline="central" x="740.0" y="432" transform="translate(720,432) rotate(0) translate(-720,-432)">VAVUNIYA</text>
  </g>
  <g>
    <text fill="gray" stroke="none" font-size="22.0" font-family="p22" font-weight="100" text-anchor="start" dominant-baseline="central" x="740.0" y="316" transform="translate(720,316) rotate(0) translate(-720,-316)">KILINOCHCHI</text>
  </g>
  <g>
    <text fill="gray" stroke="none" font-size="22.0" font-family="p22" font-weight="100" text-anchor="start" dominant-baseline="central" x="624.0" y="201" transform="translate(604,201) rotate(0) translate(-604,-201)">JAFFNA</text>
  </g>
  <g>
    <text fill="gray" stroke="none" font-size="22.0" font-family="p22" font-weight="100" text-anchor="start" dominant-baseline="central" x="912.0" y="835" transform="translate(892,835) rotate(-337.5) translate(-892,-835)">NUWARA ELIYA</text>
  </g>
  <g>
    <text fill="gray" stroke="none" font-size="22.0" font-family="p22" font-weight="100" text-anchor="start" dominant-baseline="central" x="452.0" y="604" transform="translate(432,604) rotate(0) translate(-432,-604)">PUTTALAM</text>
  </g>
  <g>
    <text fill="gray" stroke="none" font-size="22.0" font-family="p22" font-weight="100" text-anchor="end" dominant-baseline="central" x="642.0" y="1065" transform="translate(662,1065) rotate(0) translate(-662,-1065)">RATNAPURA</text>
  </g>
  <g>
    <text fill="gray" stroke="none" font-size="22.0" font-family="p22" font-weight="100" text-anchor="start" dominant-baseline="central" x="624.0" y="374" transform="translate(604,374) rotate(-45) translate(-604,-374)">MANNAR</text>
  </g>
  <g>
    <text fill="gray" stroke="none" font-size="22.0" font-family="p22" font-weight="100" text-anchor="start" dominant-baseline="central" x="855.0" y="662" transform="translate(835,662) rotate(-22.5) translate(-835,-662)">POLONNARUWA</text>
  </g>
  <g>
    <text fill="gray" stroke="none" font-size="20" font-family="p22" font-weight="100" text-anchor="end" dominant-baseline="central" x="643.0" y="777" transform="translate(662,777) rotate(0) translate(-662,-777)">Ambepussa</text>
  </g>
  <g/>
  <g>
    <text fill="gray" stroke="none" font-size="20" font-family="p22" font-weight="100" text-anchor="start" dominant-baseline="central" x="969.0" y="892" transform="translate(950,892) rotate(-315) translate(-950,-892)">Bandarawela</text>
  </g>
  <g>
    <text fill="gray" stroke="none" font-size="20" font-family="p22" font-weight="100" text-anchor="end" dominant-baseline="central" x="413.0" y="1065" transform="translate(432,1065) rotate(0) translate(-432,-1065)">Panadura</text>
  </g>
  <g>
    <text fill="gray" stroke="none" font-size="20" font-family="p22" font-weight="100" text-anchor="start" dominant-baseline="central" x="451.0" y="1123" transform="translate(432,1123) rotate(0) translate(-432,-1123)">KALUTARA North</text>
  </g>
  <g>
    <text fill="gray" stroke="none" font-size="20" font-family="p22" font-weight="100" text-anchor="start" dominant-baseline="central" x="508.0" y="1180" transform="translate(489,1180) rotate(0) translate(-489,-1180)">Aluthgama</text>
  </g>
  <g>
    <text fill="gray" stroke="none" font-size="20" font-family="p22" font-weight="100" text-anchor="start" dominant-baseline="central" x="566.0" y="1238" transform="translate(547,1238) rotate(0) translate(-547,-1238)">Kosgoda</text>
  </g>
  <g>
    <text fill="gray" stroke="none" font-size="20" font-family="p22" font-weight="100" text-anchor="end" dominant-baseline="central" x="585.0" y="1296" transform="translate(604,1296) rotate(0) translate(-604,-1296)">Ambalangoda</text>
  </g>
  <g>
    <text fill="gray" stroke="none" font-size="20" font-family="p22" font-weight="100" text-anchor="end" dominant-baseline="central" x="701.0" y="547" transform="translate(720,547) rotate(45) translate(-720,-547)">Mihintale Junction</text>
  </g>
  <g>
    <text fill="gray" stroke="none" font-size="20" font-family="p22" font-weight="100" text-anchor="start" dominant-baseline="central" x="739.0" y="374" transform="translate(720,374) rotate(0) translate(-720,-374)">Omanthai</text>
  </g>
  <g>
    <text fill="gray" stroke="none" font-size="20" font-family="p22" font-weight="100" text-anchor="end" dominant-baseline="central" x="643.0" y="259" transform="translate(662,259) rotate(0) translate(-662,-259)">Pallai</text>
  </g>
  <g>
    <text fill="gray" stroke="none" font-size="20" font-family="p22" font-weight="100" text-anchor="start" dominant-baseline="central" x="566.0" y="1008" transform="translate(547,1008) rotate(-22.5) translate(-547,-1008)">Homagama</text>
  </g>
  <g>
    <text fill="gray" stroke="none" font-size="20" font-family="p22" font-weight="100" text-anchor="start" dominant-baseline="central" x="969.0" y="777" transform="translate(950,777) rotate(-22.5) translate(-950,-777)">Kandapola</text>
  </g>
  <g>
    <text fill="gray" stroke="none" font-size="20" font-family="p22" font-weight="100" text-anchor="end" dominant-baseline="central" x="470.0" y="835" transform="translate(489,835) rotate(0) translate(-489,-835)">Katunayake South</text>
  </g>
  <g>
    <text fill="gray" stroke="none" font-size="20" font-family="p22" font-weight="100" text-anchor="end" dominant-baseline="central" x="413.0" y="777" transform="translate(432,777) rotate(0) translate(-432,-777)">Negombo</text>
  </g>
  <g>
    <text fill="gray" stroke="none" font-size="20" font-family="p22" font-weight="100" text-anchor="start" dominant-baseline="central" x="451.0" y="720" transform="translate(432,720) rotate(0) translate(-432,-720)">Chilaw</text>
  </g>
  <g>
    <text fill="gray" stroke="none" font-size="20" font-family="p22" font-weight="100" text-anchor="start" dominant-baseline="central" x="451.0" y="662" transform="translate(432,662) rotate(0) translate(-432,-662)">Bangadeniya</text>
  </g>
  <g/>
</svg>
