<?xml version="1.0" ?>
<svg xmlns="http://www.w3.org/2000/svg" width="1440" height="1440" padding="144">
  <text fill="#fcfcfc" stroke="none" font-size="240.0" font-family="p22" x="720.0" y="720.0" text-anchor="middle" dominant-baseline="center">@nuuuwan</text>
  <text fill="gray" stroke="none" font-size="80" font-family="p22" x="720.0" y="92.0" text-anchor="middle" dominant-baseline="hanging">1973</text>
  <text fill="gray" stroke="none" font-size="20" font-family="p22" x="720.0" y="1388.0" text-anchor="middle" dominant-baseline="text-top">History of the Railways in Sri Lanka</text>
  <g>
    <path fill="none" stroke-width="12.600000000000001" stroke-opacity="1" d="M 374.0,1008.0 L 429.1248913064025,952.8751086935976 C 430.08326087093496,951.916739129065 433.9,948.0666666666667 434.85,947.1 L 486.2925,894.755 C 487.195,893.8366666666667 490.83666666666664,890.195 491.755,889.2925 L 544.23775,837.714625 C 545.1585,836.80975 548.80975,833.1585 549.714625,832.23775 L 601.967298572217,779.0683628563405 C 602.6448657148113,778.3789085708937 605.9333333333333,777.0 606.9,777.0 L 662.0,777.0 L 717.1,777.0 C 718.0666666666667,777.0 721.3551342851887,778.3789085708937 722.032701427783,779.0683628563405 L 774.2516350713892,832.203418142817 C 775.1677567142594,833.1356120952114 778.8643879047886,836.8322432857406 779.796581857183,837.7483649286108 L 832.2398290928592,889.2874182464305 C 833.1598860619061,890.191612164287 836.808387835713,893.8401139380939 837.7125817535695,894.7601709071408 L 889.2856290876784,947.238008545357 C 890.1904193917857,948.1586723635713 893.8255231362956,951.8255231362956 894.7382847044435,952.7382847044435 L 947.949390334559,1005.949390334559 C 948.632926889706,1006.632926889706 951.9333333333333,1008.0 952.9,1008.0 L 1008.0,1008.0 L 1062.15,1008.0 C 1063.1,1008.0 1066.3435028842543,1006.6564971157455 1067.0152543263816,1005.9847456736184 L 1123.0,950.0" stroke="red"/>
    <rect stroke="none" fill-opacity="1" x="1117" y="938" width="12" height="24" fill="red"/>
  </g>
  <g>
    <path fill="none" stroke-width="12.600000000000001" stroke-opacity="1" d="M 720.0,777.0 L 774.949390334559,722.050609665441 C 775.632926889706,721.367073110294 778.9333333333333,720.0 779.9,720.0 L 835.0,720.0" stroke="purple"/>
    <rect stroke="none" fill-opacity="1" x="829" y="708" width="12" height="24" fill="purple"/>
  </g>
  <g>
    <path fill="none" stroke-width="12.600000000000001" stroke-opacity="1" d="M 374.0,1008.0 L 374.0,1065.0 L 374.0,1120.1 C 374.0,1121.0666666666666 375.3789085708937,1124.3551342851886 376.0683628563405,1125.032701427783 L 429.20341814281704,1177.251635071389 C 430.13561209521134,1178.1677567142594 433.83224328574056,1181.8643879047886 434.74836492861084,1182.796581857183 L 486.28741824643055,1235.239829092859 C 487.19161216428705,1236.159886061906 490.8243198553875,1239.8243198553876 491.7364797830812,1240.7364797830812 L 544.9847456736184,1293.9847456736184 C 545.6564971157455,1294.6564971157457 548.9,1296.0 549.85,1296.0 L 604.0,1296.0 L 662.0,1296.0" stroke="cyan"/>
    <rect stroke="none" fill-opacity="1" x="656" y="1284" width="12" height="24" fill="cyan"/>
  </g>
  <g>
    <path fill="none" stroke-width="12.600000000000001" stroke-opacity="1" d="M 662.0,777.0 L 662.0,720.0 L 662.0,662.0 L 662.0,604.0 L 662.0,547.0 L 662.0,489.0 L 662.0,432.0 L 662.0,374.0 L 662.0,318.9 C 662.0,317.93333333333334 660.6210914291063,314.6448657148114 659.9316371436595,313.96729857221703 L 606.796581857183,261.74836492861084 C 605.8643879047886,260.83224328574056 602.1677567142594,257.13561209521134 601.2516350713892,256.20341814281704 L 548.9976548514419,203.03270142778294 C 548.3317699009613,202.35513428518863 547.0,199.1 547.0,198.15 L 547.0,144.0" stroke="orange"/>
    <rect stroke="none" fill-opacity="1" x="535" y="138" width="24" height="12" fill="orange"/>
  </g>
  <g>
    <path fill="none" stroke-width="12.600000000000001" stroke-opacity="1" d="M 432.0,950.0 L 489.0,1008.0" stroke="darkblue"/>
    <rect stroke="none" fill-opacity="1" x="483" y="996" width="12" height="24" fill="darkblue"/>
  </g>
  <g>
    <path fill="none" stroke-width="12.600000000000001" stroke-opacity="1" d="M 489.0,892.0 L 432.0,835.0 L 376.8751086935975,779.8751086935976 C 375.91673912906504,778.916739129065 372.06666666666666,775.1 371.1,774.15 L 318.0683628563405,722.032701427783 C 317.3789085708937,721.3551342851887 316.0,718.0666666666667 316.0,717.1 L 316.0,662.0 L 316.0,604.0 L 316.0,547.0 L 316.0,489.0 L 316.0,432.0" stroke="green"/>
    <rect stroke="none" fill-opacity="1" x="304" y="426" width="24" height="12" fill="green"/>
  </g>
  <g>
    <path fill="none" stroke-width="12.600000000000001" stroke-opacity="1" d="M 662.0,489.0 L 606.9,434.85 C 605.9333333333333,433.9 602.1,430.06666666666666 601.15,429.1 L 549.032701427783,376.0683628563405 C 548.3551342851887,375.3789085708937 545.0666666666667,374.0 544.1,374.0 L 489.0,374.0" stroke="blue"/>
    <rect stroke="none" fill-opacity="1" x="483" y="362" width="12" height="24" fill="blue"/>
  </g>
  <g>
    <path fill="none" stroke-width="12.600000000000001" stroke-opacity="1" d="M 662.0,662.0 L 717.1248913064024,606.8751086935976 C 718.083260870935,605.916739129065 721.9,605.9333333333333 722.85,606.9 L 774.967298572217,659.9316371436595 C 775.6448657148113,660.6210914291063 778.9333333333333,662.0 779.9,662.0 L 835.0,662.0" stroke="darkgreen"/>
    <rect stroke="none" fill-opacity="1" x="829" y="650" width="12" height="24" fill="darkgreen"/>
  </g>
  <g>
    <path fill="none" stroke-width="12.600000000000001" stroke-opacity="1" d="M 720.0,604.0 L 777.0,547.0" stroke="silver"/>
    <rect stroke="none" fill-opacity="1" x="771" y="535" width="12" height="24" fill="silver"/>
  </g>
  <g>
    <path fill="none" stroke-width="12.600000000000001" stroke-opacity="1" d="M 374.0,777.0 L 374.0,720.0" stroke="pink"/>
    <rect stroke="none" fill-opacity="1" x="362" y="714" width="24" height="12" fill="pink"/>
  </g>
  <g>
    <text fill="black" stroke="none" font-size="28.0" font-family="p22" font-weight="100" text-anchor="start" dominant-baseline="central" x="1146.0" y="950" transform="translate(1123,950) rotate(0) translate(-1123,-950)">BADULLA</text>
  </g>
  <g>
    <text fill="black" stroke="none" font-size="28.0" font-family="p22" font-weight="100" text-anchor="start" dominant-baseline="central" x="858.0" y="720" transform="translate(835,720) rotate(0) translate(-835,-720)">MATALE</text>
  </g>
  <g>
    <text fill="black" stroke="none" font-size="28.0" font-family="p22" font-weight="100" text-anchor="start" dominant-baseline="central" x="685.0" y="1296" transform="translate(662,1296) rotate(0) translate(-662,-1296)">MATARA</text>
  </g>
  <g>
    <text fill="black" stroke="none" font-size="28.0" font-family="p22" font-weight="100" text-anchor="start" dominant-baseline="central" x="570.0" y="144" transform="translate(547,144) rotate(0) translate(-547,-144)">Kankesanthurai</text>
  </g>
  <g>
    <text fill="black" stroke="none" font-size="28.0" font-family="p22" font-weight="100" text-anchor="start" dominant-baseline="central" x="512.0" y="1008" transform="translate(489,1008) rotate(0) translate(-489,-1008)">Homagama</text>
  </g>
  <g>
    <text fill="black" stroke="none" font-size="28.0" font-family="p22" font-weight="100" text-anchor="start" dominant-baseline="central" x="339.0" y="432" transform="translate(316,432) rotate(0) translate(-316,-432)">Periyanagavillu</text>
  </g>
  <g>
    <text fill="black" stroke="none" font-size="28.0" font-family="p22" font-weight="100" text-anchor="end" dominant-baseline="central" x="466.0" y="374" transform="translate(489,374) rotate(0) translate(-489,-374)">Talaimanar Pier</text>
  </g>
  <g>
    <text fill="black" stroke="none" font-size="28.0" font-family="p22" font-weight="100" text-anchor="start" dominant-baseline="central" x="858.0" y="662" transform="translate(835,662) rotate(0) translate(-835,-662)">BATTICALOA</text>
  </g>
  <g>
    <text fill="black" stroke="none" font-size="28.0" font-family="p22" font-weight="100" text-anchor="start" dominant-baseline="central" x="800.0" y="547" transform="translate(777,547) rotate(0) translate(-777,-547)">TRINCOMALEE</text>
  </g>
  <g>
    <text fill="black" stroke="none" font-size="28.0" font-family="p22" font-weight="100" text-anchor="start" dominant-baseline="central" x="397.0" y="720" transform="translate(374,720) rotate(0) translate(-374,-720)">CMB Airport</text>
  </g>
  <g>
    <circle r="12" fill="white" stroke="black" stroke-width="3.0" cx="374" cy="1008"/>
    <text fill="black" stroke="none" font-size="24.0" font-family="p22" font-weight="100" text-anchor="end" dominant-baseline="central" x="353.0" y="1008" transform="translate(374,1008) rotate(0) translate(-374,-1008)">COLOMBO Fort</text>
  </g>
  <g>
    <circle r="12" fill="white" stroke="black" stroke-width="3.0" cx="432" cy="950"/>
    <text fill="black" stroke="none" font-size="24.0" font-family="p22" font-weight="100" text-anchor="start" dominant-baseline="central" x="453.0" y="950" transform="translate(432,950) rotate(0) translate(-432,-950)">Maradana</text>
  </g>
  <g>
    <circle r="12" fill="white" stroke="black" stroke-width="3.0" cx="489" cy="892"/>
    <text fill="black" stroke="none" font-size="24.0" font-family="p22" font-weight="100" text-anchor="start" dominant-baseline="central" x="510.0" y="892" transform="translate(489,892) rotate(0) translate(-489,-892)">Ragama</text>
  </g>
  <g>
    <circle r="12" fill="white" stroke="black" stroke-width="3.0" cx="662" cy="777"/>
    <text fill="black" stroke="none" font-size="24.0" font-family="p22" font-weight="100" text-anchor="end" dominant-baseline="central" x="641.0" y="777" transform="translate(662,777) rotate(45) translate(-662,-777)">Polgahawela</text>
  </g>
  <g>
    <circle r="12" fill="white" stroke="black" stroke-width="3.0" cx="720" cy="777"/>
    <text fill="black" stroke="none" font-size="24.0" font-family="p22" font-weight="100" text-anchor="start" dominant-baseline="central" x="741.0" y="777" transform="translate(720,777) rotate(0) translate(-720,-777)">Peradeniya</text>
  </g>
  <g>
    <circle r="12" fill="white" stroke="black" stroke-width="3.0" cx="662" cy="662"/>
    <text fill="black" stroke="none" font-size="24.0" font-family="p22" font-weight="100" text-anchor="end" dominant-baseline="central" x="641.0" y="662" transform="translate(662,662) rotate(45) translate(-662,-662)">Maho</text>
  </g>
  <g>
    <circle r="12" fill="white" stroke="black" stroke-width="3.0" cx="662" cy="489"/>
    <text fill="black" stroke="none" font-size="24.0" font-family="p22" font-weight="100" text-anchor="start" dominant-baseline="central" x="683.0" y="489" transform="translate(662,489) rotate(0) translate(-662,-489)">Medavachchiya</text>
  </g>
  <g>
    <circle r="12" fill="white" stroke="black" stroke-width="3.0" cx="374" cy="777"/>
    <text fill="black" stroke="none" font-size="24.0" font-family="p22" font-weight="100" text-anchor="start" dominant-baseline="central" x="395.0" y="777" transform="translate(374,777) rotate(0) translate(-374,-777)">Katunayake South</text>
  </g>
  <g>
    <circle r="12" fill="white" stroke="black" stroke-width="3.0" cx="720" cy="604"/>
    <text fill="black" stroke="none" font-size="24.0" font-family="p22" font-weight="100" text-anchor="start" dominant-baseline="central" x="741.0" y="604" transform="translate(720,604) rotate(0) translate(-720,-604)">Gal Oya</text>
  </g>
  <g>
    <text fill="gray" stroke="none" font-size="22.0" font-family="p22" font-weight="100" text-anchor="start" dominant-baseline="central" x="567.0" y="835" transform="translate(547,835) rotate(0) translate(-547,-835)">GAMPAHA</text>
  </g>
  <g>
    <text fill="gray" stroke="none" font-size="22.0" font-family="p22" font-weight="100" text-anchor="start" dominant-baseline="central" x="797.0" y="720" transform="translate(777,720) rotate(-337.5) translate(-777,-720)">KANDY</text>
  </g>
  <g>
    <text fill="gray" stroke="none" font-size="22.0" font-family="p22" font-weight="100" text-anchor="start" dominant-baseline="central" x="624.0" y="1296" transform="translate(604,1296) rotate(-45) translate(-604,-1296)">GALLE</text>
  </g>
  <g>
    <text fill="gray" stroke="none" font-size="22.0" font-family="p22" font-weight="100" text-anchor="end" dominant-baseline="central" x="642.0" y="720" transform="translate(662,720) rotate(45) translate(-662,-720)">KURUNEGALA</text>
  </g>
  <g>
    <text fill="gray" stroke="none" font-size="22.0" font-family="p22" font-weight="100" text-anchor="end" dominant-baseline="central" x="642.0" y="604" transform="translate(662,604) rotate(45) translate(-662,-604)">ANURADHAPURA</text>
  </g>
  <g>
    <text fill="gray" stroke="none" font-size="22.0" font-family="p22" font-weight="100" text-anchor="start" dominant-baseline="central" x="682.0" y="432" transform="translate(662,432) rotate(0) translate(-662,-432)">VAVUNIYA</text>
  </g>
  <g>
    <text fill="gray" stroke="none" font-size="22.0" font-family="p22" font-weight="100" text-anchor="start" dominant-baseline="central" x="682.0" y="316" transform="translate(662,316) rotate(0) translate(-662,-316)">KILINOCHCHI</text>
  </g>
  <g>
    <text fill="gray" stroke="none" font-size="22.0" font-family="p22" font-weight="100" text-anchor="start" dominant-baseline="central" x="567.0" y="201" transform="translate(547,201) rotate(0) translate(-547,-201)">JAFFNA</text>
  </g>
  <g>
    <text fill="gray" stroke="none" font-size="22.0" font-family="p22" font-weight="100" text-anchor="start" dominant-baseline="central" x="336.0" y="489" transform="translate(316,489) rotate(0) translate(-316,-489)">PUTTALAM</text>
  </g>
  <g>
    <text fill="gray" stroke="none" font-size="22.0" font-family="p22" font-weight="100" text-anchor="start" dominant-baseline="central" x="567.0" y="374" transform="translate(547,374) rotate(-45) translate(-547,-374)">MANNAR</text>
  </g>
  <g>
    <text fill="gray" stroke="none" font-size="22.0" font-family="p22" font-weight="100" text-anchor="start" dominant-baseline="central" x="797.0" y="662" transform="translate(777,662) rotate(-22.5) translate(-777,-662)">POLONNARUWA</text>
  </g>
  <g>
    <text fill="gray" stroke="none" font-size="20" font-family="p22" font-weight="100" text-anchor="end" dominant-baseline="central" x="585.0" y="777" transform="translate(604,777) rotate(45) translate(-604,-777)">Ambepussa</text>
  </g>
  <g>
    <text fill="gray" stroke="none" font-size="20" font-family="p22" font-weight="100" text-anchor="start" dominant-baseline="central" x="796.0" y="835" transform="translate(777,835) rotate(0) translate(-777,-835)">Gampola</text>
  </g>
  <g>
    <text fill="gray" stroke="none" font-size="20" font-family="p22" font-weight="100" text-anchor="start" dominant-baseline="central" x="854.0" y="892" transform="translate(835,892) rotate(0) translate(-835,-892)">Nawalapitiya</text>
  </g>
  <g>
    <text fill="gray" stroke="none" font-size="20" font-family="p22" font-weight="100" text-anchor="start" dominant-baseline="central" x="911.0" y="950" transform="translate(892,950) rotate(0) translate(-892,-950)">Talawakele</text>
  </g>
  <g>
    <text fill="gray" stroke="none" font-size="20" font-family="p22" font-weight="100" text-anchor="end" dominant-baseline="central" x="931.0" y="1008" transform="translate(950,1008) rotate(0) translate(-950,-1008)">Nanu Oya</text>
  </g>
  <g>
    <text fill="gray" stroke="none" font-size="20" font-family="p22" font-weight="100" text-anchor="start" dominant-baseline="central" x="1027.0" y="1008" transform="translate(1008,1008) rotate(-45) translate(-1008,-1008)">Haputale</text>
  </g>
  <g>
    <text fill="gray" stroke="none" font-size="20" font-family="p22" font-weight="100" text-anchor="start" dominant-baseline="central" x="1084.0" y="1008" transform="translate(1065,1008) rotate(0) translate(-1065,-1008)">Bandarawela</text>
  </g>
  <g>
    <text fill="gray" stroke="none" font-size="20" font-family="p22" font-weight="100" text-anchor="start" dominant-baseline="central" x="393.0" y="1065" transform="translate(374,1065) rotate(0) translate(-374,-1065)">Panadura</text>
  </g>
  <g>
    <text fill="gray" stroke="none" font-size="20" font-family="p22" font-weight="100" text-anchor="start" dominant-baseline="central" x="393.0" y="1123" transform="translate(374,1123) rotate(0) translate(-374,-1123)">KALUTARA North</text>
  </g>
  <g>
    <text fill="gray" stroke="none" font-size="20" font-family="p22" font-weight="100" text-anchor="start" dominant-baseline="central" x="451.0" y="1180" transform="translate(432,1180) rotate(0) translate(-432,-1180)">Aluthgama</text>
  </g>
  <g>
    <text fill="gray" stroke="none" font-size="20" font-family="p22" font-weight="100" text-anchor="start" dominant-baseline="central" x="508.0" y="1238" transform="translate(489,1238) rotate(0) translate(-489,-1238)">Kosgoda</text>
  </g>
  <g>
    <text fill="gray" stroke="none" font-size="20" font-family="p22" font-weight="100" text-anchor="end" dominant-baseline="central" x="528.0" y="1296" transform="translate(547,1296) rotate(0) translate(-547,-1296)">Ambalangoda</text>
  </g>
  <g>
    <text fill="gray" stroke="none" font-size="20" font-family="p22" font-weight="100" text-anchor="end" dominant-baseline="central" x="643.0" y="547" transform="translate(662,547) rotate(45) translate(-662,-547)">Mihintale Junction</text>
  </g>
  <g>
    <text fill="gray" stroke="none" font-size="20" font-family="p22" font-weight="100" text-anchor="start" dominant-baseline="central" x="681.0" y="374" transform="translate(662,374) rotate(0) translate(-662,-374)">Omanthai</text>
  </g>
  <g>
    <text fill="gray" stroke="none" font-size="20" font-family="p22" font-weight="100" text-anchor="end" dominant-baseline="central" x="585.0" y="259" transform="translate(604,259) rotate(0) translate(-604,-259)">Pallai</text>
  </g>
  <g>
    <text fill="gray" stroke="none" font-size="20" font-family="p22" font-weight="100" text-anchor="end" dominant-baseline="central" x="413.0" y="835" transform="translate(432,835) rotate(0) translate(-432,-835)">Ja-Ela</text>
  </g>
  <g>
    <text fill="gray" stroke="none" font-size="20" font-family="p22" font-weight="100" text-anchor="end" dominant-baseline="central" x="297.0" y="720" transform="translate(316,720) rotate(0) translate(-316,-720)">Negombo</text>
  </g>
  <g>
    <text fill="gray" stroke="none" font-size="20" font-family="p22" font-weight="100" text-anchor="start" dominant-baseline="central" x="335.0" y="662" transform="translate(316,662) rotate(0) translate(-316,-662)">Madampe</text>
  </g>
  <g>
    <text fill="gray" stroke="none" font-size="20" font-family="p22" font-weight="100" text-anchor="start" dominant-baseline="central" x="335.0" y="604" transform="translate(316,604) rotate(0) translate(-316,-604)">Chilaw</text>
  </g>
  <g>
    <text fill="gray" stroke="none" font-size="20" font-family="p22" font-weight="100" text-anchor="start" dominant-baseline="central" x="335.0" y="547" transform="translate(316,547) rotate(0) translate(-316,-547)">Bangadeniya</text>
  </g>
  <g/>
</svg>
