<?xml version="1.0" ?>
<svg xmlns="http://www.w3.org/2000/svg" width="1300" height="1300" padding="200">
  <text fill="gray" stroke="none" font-size="72" font-family="GIL_____" x="650.0" y="118.0" text-anchor="middle" dominant-baseline="hanging">1978</text>
  <text fill="gray" stroke="none" font-size="18" font-family="GIL_____" x="650.0" y="1218.0" text-anchor="middle" dominant-baseline="text-top">History of the Railways in Sri Lanka</text>
  <g>
    <path fill="none" stroke-width="10.5" stroke-opacity="1" d="M 350.0,980.0 L 410.0,920.0 L 470.0,860.0 L 530.0,800.0 L 587.8786796564403,742.1213203435597 C 588.5857864376269,741.4142135623731 592.0,740.0 593.0,740.0 L 650.0,740.0 L 707.0,740.0 C 708.0,740.0 711.4142135623731,741.4142135623731 712.1213203435597,742.1213203435597 L 770.0,800.0 L 827.8786796564403,857.8786796564403 C 828.5857864376269,858.5857864376269 832.0,860.0 833.0,860.0 L 887.15,860.0 C 888.1,860.0 891.3435028842545,858.6564971157455 892.0152543263816,857.9847456736184 L 950.0,800.0" stroke="red"/>
    <rect stroke="none" fill-opacity="1" x="945" y="790" width="10" height="20" fill="red"/>
  </g>
  <g>
    <path fill="none" stroke-width="10.5" stroke-opacity="1" d="M 710.0,740.0 L 767.8786796564403,682.1213203435597 C 768.5857864376269,681.4142135623731 772.0,680.0 773.0,680.0 L 830.0,680.0" stroke="purple"/>
    <rect stroke="none" fill-opacity="1" x="825" y="670" width="10" height="20" fill="purple"/>
  </g>
  <g>
    <path fill="none" stroke-width="10.5" stroke-opacity="1" d="M 350.0,980.0 L 350.0,1037.0 C 350.0,1038.0 351.4142135623731,1041.414213562373 352.12132034355966,1042.1213203435595 L 407.87867965644034,1097.8786796564405 C 408.5857864376269,1098.585786437627 412.0,1100.0 413.0,1100.0 L 470.0,1100.0" stroke="cyan"/>
    <rect stroke="none" fill-opacity="1" x="465" y="1090" width="10" height="20" fill="cyan"/>
  </g>
  <g>
    <path fill="none" stroke-width="10.5" stroke-opacity="1" d="M 410.0,920.0 L 467.87867965644034,977.8786796564403 C 468.5857864376269,978.5857864376269 472.0,980.0 473.0,980.0 L 530.0,980.0" stroke="darkblue"/>
    <rect stroke="none" fill-opacity="1" x="525" y="970" width="10" height="20" fill="darkblue"/>
  </g>
  <g>
    <path fill="none" stroke-width="10.5" stroke-opacity="1" d="M 650.0,740.0 L 650.0,680.0 L 650.0,620.0 L 650.0,560.0 L 650.0,500.0 L 650.0,440.0 L 650.0,380.0 L 650.0,323.0 C 650.0,322.0 648.5857864376269,318.5857864376269 647.8786796564403,317.87867965644034 L 592.1213203435597,262.12132034355966 C 591.4142135623731,261.4142135623731 590.0,258.0 590.0,257.0 L 590.0,200.0" stroke="orange"/>
    <rect stroke="none" fill-opacity="1" x="580" y="195" width="20" height="10" fill="orange"/>
  </g>
  <g>
    <path fill="none" stroke-width="10.5" stroke-opacity="1" d="M 650.0,440.0 L 592.1213203435597,382.12132034355966 C 591.4142135623731,381.4142135623731 588.0,380.0 587.0,380.0 L 530.0,380.0" stroke="blue"/>
    <rect stroke="none" fill-opacity="1" x="525" y="370" width="10" height="20" fill="blue"/>
  </g>
  <g>
    <path fill="none" stroke-width="10.5" stroke-opacity="1" d="M 470.0,860.0 L 412.12132034355966,802.1213203435597 C 411.4142135623731,801.4142135623731 410.0,798.0 410.0,797.0 L 410.0,740.0" stroke="green"/>
    <rect stroke="none" fill-opacity="1" x="400" y="735" width="20" height="10" fill="green"/>
  </g>
  <g>
    <path fill="none" stroke-width="10.5" stroke-opacity="1" d="M 650.0,620.0 L 707.0,563.0 C 708.0,562.0 712.0,562.0 713.0,563.0 L 767.8786796564403,617.8786796564403 C 768.5857864376269,618.5857864376269 772.0,620.0 773.0,620.0 L 830.0,620.0" stroke="darkgreen"/>
    <rect stroke="none" fill-opacity="1" x="825" y="610" width="10" height="20" fill="darkgreen"/>
  </g>
  <g>
    <path fill="none" stroke-width="10.5" stroke-opacity="1" d="M 710.0,560.0 L 770.0,500.0" stroke="silver"/>
    <rect stroke="none" fill-opacity="1" x="765" y="490" width="10" height="20" fill="silver"/>
  </g>
  <g>
    <text fill="black" stroke="none" font-size="25.2" font-family="GIL_____" font-weight="100" text-anchor="start" dominant-baseline="central" x="970.1" y="800" transform="translate(950,800) rotate(0) translate(-950,-800)">BADULLA</text>
  </g>
  <g>
    <text fill="black" stroke="none" font-size="25.2" font-family="GIL_____" font-weight="100" text-anchor="start" dominant-baseline="central" x="850.1" y="680" transform="translate(830,680) rotate(0) translate(-830,-680)">MATALE</text>
  </g>
  <g>
    <text fill="black" stroke="none" font-size="25.2" font-family="GIL_____" font-weight="100" text-anchor="start" dominant-baseline="central" x="490.1" y="1100" transform="translate(470,1100) rotate(0) translate(-470,-1100)">MATARA</text>
  </g>
  <g>
    <text fill="black" stroke="none" font-size="25.2" font-family="GIL_____" font-weight="100" text-anchor="start" dominant-baseline="central" x="550.1" y="980" transform="translate(530,980) rotate(0) translate(-530,-980)">Avissawella</text>
  </g>
  <g>
    <text fill="black" stroke="none" font-size="25.2" font-family="GIL_____" font-weight="100" text-anchor="start" dominant-baseline="central" x="610.1" y="200" transform="translate(590,200) rotate(0) translate(-590,-200)">Kankesanthurai</text>
  </g>
  <g>
    <text fill="black" stroke="none" font-size="25.2" font-family="GIL_____" font-weight="100" text-anchor="end" dominant-baseline="central" x="509.9" y="380" transform="translate(530,380) rotate(0) translate(-530,-380)">Talaimannar Pier</text>
  </g>
  <g>
    <text fill="black" stroke="none" font-size="25.2" font-family="GIL_____" font-weight="100" text-anchor="start" dominant-baseline="central" x="430.1" y="740" transform="translate(410,740) rotate(0) translate(-410,-740)">Periyanurvillu</text>
  </g>
  <g>
    <text fill="black" stroke="none" font-size="25.2" font-family="GIL_____" font-weight="100" text-anchor="start" dominant-baseline="central" x="850.1" y="620" transform="translate(830,620) rotate(0) translate(-830,-620)">BATTICALOA</text>
  </g>
  <g>
    <text fill="black" stroke="none" font-size="25.2" font-family="GIL_____" font-weight="100" text-anchor="start" dominant-baseline="central" x="790.1" y="500" transform="translate(770,500) rotate(0) translate(-770,-500)">TRINCOMALEE</text>
  </g>
  <g>
    <circle r="10" fill="white" stroke="black" stroke-width="2.5" cx="350" cy="980"/>
    <text fill="black" stroke="none" font-size="21.599999999999998" font-family="GIL_____" font-weight="100" text-anchor="end" dominant-baseline="central" x="331.7" y="980" transform="translate(350,980) rotate(0) translate(-350,-980)">COLOMBO Fort</text>
  </g>
  <g>
    <circle r="10" fill="white" stroke="black" stroke-width="2.5" cx="410" cy="920"/>
    <text fill="black" stroke="none" font-size="21.599999999999998" font-family="GIL_____" font-weight="100" text-anchor="start" dominant-baseline="central" x="428.3" y="920" transform="translate(410,920) rotate(0) translate(-410,-920)">Maradana</text>
  </g>
  <g>
    <circle r="10" fill="white" stroke="black" stroke-width="2.5" cx="470" cy="860"/>
    <text fill="black" stroke="none" font-size="21.599999999999998" font-family="GIL_____" font-weight="100" text-anchor="start" dominant-baseline="central" x="488.3" y="860" transform="translate(470,860) rotate(0) translate(-470,-860)">Ragama</text>
  </g>
  <g>
    <circle r="10" fill="white" stroke="black" stroke-width="2.5" cx="650" cy="740"/>
    <text fill="black" stroke="none" font-size="21.599999999999998" font-family="GIL_____" font-weight="100" text-anchor="start" dominant-baseline="central" x="668.3" y="740" transform="translate(650,740) rotate(-315) translate(-650,-740)">Polgahawela</text>
  </g>
  <g>
    <circle r="10" fill="white" stroke="black" stroke-width="2.5" cx="710" cy="740"/>
    <text fill="black" stroke="none" font-size="21.599999999999998" font-family="GIL_____" font-weight="100" text-anchor="start" dominant-baseline="central" x="728.3" y="740" transform="translate(710,740) rotate(0) translate(-710,-740)">Peradeniya</text>
  </g>
  <g>
    <circle r="10" fill="white" stroke="black" stroke-width="2.5" cx="650" cy="620"/>
    <text fill="black" stroke="none" font-size="21.599999999999998" font-family="GIL_____" font-weight="100" text-anchor="end" dominant-baseline="central" x="631.7" y="620" transform="translate(650,620) rotate(0) translate(-650,-620)">Maho</text>
  </g>
  <g>
    <circle r="10" fill="white" stroke="black" stroke-width="2.5" cx="650" cy="440"/>
    <text fill="black" stroke="none" font-size="21.599999999999998" font-family="GIL_____" font-weight="100" text-anchor="start" dominant-baseline="central" x="668.3" y="440" transform="translate(650,440) rotate(0) translate(-650,-440)">Medavachchiya</text>
  </g>
  <g>
    <circle r="10" fill="white" stroke="black" stroke-width="2.5" cx="710" cy="560"/>
    <text fill="black" stroke="none" font-size="21.599999999999998" font-family="GIL_____" font-weight="100" text-anchor="start" dominant-baseline="central" x="728.3" y="560" transform="translate(710,560) rotate(0) translate(-710,-560)">Gal Oya</text>
  </g>
  <g>
    <text fill="black" stroke="none" font-size="19.8" font-family="GIL_____" font-weight="100" text-anchor="start" dominant-baseline="central" x="547.4" y="800" transform="translate(530,800) rotate(0) translate(-530,-800)">GAMPAHA</text>
  </g>
  <g>
    <text fill="black" stroke="none" font-size="19.8" font-family="GIL_____" font-weight="100" text-anchor="start" dominant-baseline="central" x="787.4" y="680" transform="translate(770,680) rotate(-337.5) translate(-770,-680)">KANDY</text>
  </g>
  <g>
    <text fill="black" stroke="none" font-size="19.8" font-family="GIL_____" font-weight="100" text-anchor="end" dominant-baseline="central" x="392.6" y="1100" transform="translate(410,1100) rotate(0) translate(-410,-1100)">GALLE</text>
  </g>
  <g>
    <text fill="black" stroke="none" font-size="19.8" font-family="GIL_____" font-weight="100" text-anchor="end" dominant-baseline="central" x="632.6" y="680" transform="translate(650,680) rotate(0) translate(-650,-680)">KURUNEGALA</text>
  </g>
  <g>
    <text fill="black" stroke="none" font-size="19.8" font-family="GIL_____" font-weight="100" text-anchor="end" dominant-baseline="central" x="632.6" y="560" transform="translate(650,560) rotate(0) translate(-650,-560)">ANURADHAPURA</text>
  </g>
  <g>
    <text fill="black" stroke="none" font-size="19.8" font-family="GIL_____" font-weight="100" text-anchor="start" dominant-baseline="central" x="667.4" y="380" transform="translate(650,380) rotate(0) translate(-650,-380)">VAVUNIYA</text>
  </g>
  <g>
    <text fill="black" stroke="none" font-size="19.8" font-family="GIL_____" font-weight="100" text-anchor="start" dominant-baseline="central" x="667.4" y="320" transform="translate(650,320) rotate(0) translate(-650,-320)">KILINOCHCHI</text>
  </g>
  <g>
    <text fill="black" stroke="none" font-size="19.8" font-family="GIL_____" font-weight="100" text-anchor="start" dominant-baseline="central" x="607.4" y="260" transform="translate(590,260) rotate(0) translate(-590,-260)">JAFFNA</text>
  </g>
  <g>
    <text fill="black" stroke="none" font-size="19.8" font-family="GIL_____" font-weight="100" text-anchor="end" dominant-baseline="central" x="572.6" y="380" transform="translate(590,380) rotate(45) translate(-590,-380)">MANNAR</text>
  </g>
  <g>
    <text fill="black" stroke="none" font-size="19.8" font-family="GIL_____" font-weight="100" text-anchor="start" dominant-baseline="central" x="787.4" y="620" transform="translate(770,620) rotate(-22.5) translate(-770,-620)">POLONNARUWA</text>
  </g>
  <g>
    <text fill="black" stroke="none" font-size="18" font-family="GIL_____" font-weight="100" text-anchor="start" dominant-baseline="central" x="606.5" y="740" transform="translate(590,740) rotate(-22.5) translate(-590,-740)">Ambepussa</text>
  </g>
  <g>
    <text fill="black" stroke="none" font-size="18" font-family="GIL_____" font-weight="100" text-anchor="start" dominant-baseline="central" x="786.5" y="800" transform="translate(770,800) rotate(0) translate(-770,-800)">Nawalapitiya</text>
  </g>
  <g>
    <text fill="black" stroke="none" font-size="18" font-family="GIL_____" font-weight="100" text-anchor="start" dominant-baseline="central" x="846.5" y="860" transform="translate(830,860) rotate(-315) translate(-830,-860)">Nanu Oya</text>
  </g>
  <g>
    <text fill="black" stroke="none" font-size="18" font-family="GIL_____" font-weight="100" text-anchor="start" dominant-baseline="central" x="906.5" y="860" transform="translate(890,860) rotate(0) translate(-890,-860)">Bandarawela</text>
  </g>
  <g>
    <text fill="black" stroke="none" font-size="18" font-family="GIL_____" font-weight="100" text-anchor="start" dominant-baseline="central" x="366.5" y="1040" transform="translate(350,1040) rotate(0) translate(-350,-1040)">KALUTARA North</text>
  </g>
  <g>
    <text fill="black" stroke="none" font-size="18" font-family="GIL_____" font-weight="100" text-anchor="start" dominant-baseline="central" x="486.5" y="980" transform="translate(470,980) rotate(-22.5) translate(-470,-980)">Homagama</text>
  </g>
  <g>
    <text fill="black" stroke="none" font-size="18" font-family="GIL_____" font-weight="100" text-anchor="end" dominant-baseline="central" x="633.5" y="500" transform="translate(650,500) rotate(0) translate(-650,-500)">Mihintale Junction</text>
  </g>
  <g>
    <text fill="black" stroke="none" font-size="18" font-family="GIL_____" font-weight="100" text-anchor="end" dominant-baseline="central" x="393.5" y="800" transform="translate(410,800) rotate(0) translate(-410,-800)">Puttalam</text>
  </g>
</svg>
