<?xml version="1.0" ?>
<svg xmlns="http://www.w3.org/2000/svg" width="3600" height="3600" padding="360">
  <text fill="#fcfcfc" stroke="none" font-size="600.0" font-family="p22" x="1800.0" y="1800.0" text-anchor="middle" dominant-baseline="center">@nuuuwan</text>
  <text fill="black" stroke="none" font-size="120" font-family="p22" x="1800.0" y="180.0" text-anchor="middle" dominant-baseline="hanging">1990</text>
  <text fill="gray" stroke="none" font-size="40" font-family="p22" x="1800.0" y="230.0" text-anchor="middle" dominant-baseline="hanging">Railways in Sri Lanka</text>
  <text fill="gray" stroke="none" font-size="40" font-family="p22" x="1800.0" y="3460.0" text-anchor="middle" dominant-baseline="text-top">data from multiple sources ~ music by @bensound ~ visualization by @nuuuwan</text>
  <g>
    <path fill="none" stroke-width="29.400000000000002" stroke-opacity="1" d="M 648.0,2280.0 L 840.0,2088.0 L 1032.0,1896.0 L 1224.0,1704.0 L 1409.211774900609,1518.788225099391 C 1411.474516600406,1516.525483399594 1422.4,1512.0 1425.6,1512.0 L 1608.0,1512.0 L 1790.4,1512.0 C 1793.6,1512.0 1804.525483399594,1516.525483399594 1806.788225099391,1518.788225099391 L 1992.0,1704.0 L 2184.0,1896.0 L 2376.0,2088.0 L 2561.2117749006093,2273.2117749006093 C 2563.474516600406,2275.474516600406 2574.4,2280.0 2577.6,2280.0 L 2760.0,2280.0 L 2942.4,2280.0 C 2945.6,2280.0 2956.525483399594,2275.474516600406 2958.7882250993907,2273.2117749006093 L 3144.0,2088.0" stroke="red"/>
    <rect stroke="none" fill-opacity="1" x="3130" y="2060" width="28" height="56" fill="red"/>
  </g>
  <g>
    <path fill="none" stroke-width="29.400000000000002" stroke-opacity="1" d="M 1800.0,1512.0 L 1985.211774900609,1326.788225099391 C 1987.474516600406,1324.525483399594 1998.4,1320.0 2001.6,1320.0 L 2184.0,1320.0" stroke="purple"/>
    <rect stroke="none" fill-opacity="1" x="2170" y="1292" width="28" height="56" fill="purple"/>
  </g>
  <g>
    <path fill="none" stroke-width="29.400000000000002" stroke-opacity="1" d="M 648.0,2280.0 L 648.0,2472.0 L 648.0,2654.4 C 648.0,2657.6 652.5254833995939,2668.525483399594 654.7882250993908,2670.7882250993907 L 840.0,2856.0 L 1032.0,3048.0 L 1217.211774900609,3233.2117749006093 C 1219.474516600406,3235.474516600406 1230.4,3240.0 1233.6,3240.0 L 1416.0,3240.0 L 1608.0,3240.0" stroke="cyan"/>
    <rect stroke="none" fill-opacity="1" x="1594" y="3212" width="28" height="56" fill="cyan"/>
  </g>
  <g>
    <path fill="none" stroke-width="29.400000000000002" stroke-opacity="1" d="M 1608.0,1512.0 L 1608.0,1320.0 L 1608.0,1128.0 L 1608.0,935.0 L 1608.0,743.0 L 1608.0,552.0 L 1608.0,360.0" stroke="orange"/>
    <rect stroke="none" fill-opacity="1" x="1580" y="346" width="56" height="28" fill="orange"/>
  </g>
  <g>
    <path fill="none" stroke-width="29.400000000000002" stroke-opacity="1" d="M 840.0,2088.0 L 1025.211774900609,2273.2117749006093 C 1027.474516600406,2275.474516600406 1038.4,2280.0 1041.6,2280.0 L 1224.0,2280.0" stroke="darkblue"/>
    <rect stroke="none" fill-opacity="1" x="1210" y="2252" width="28" height="56" fill="darkblue"/>
  </g>
  <g>
    <path fill="none" stroke-width="29.400000000000002" stroke-opacity="1" d="M 1032.0,1896.0 L 840.0,1704.0 L 648.0,1512.0 L 462.78822509939084,1326.788225099391 C 460.5254833995939,1324.525483399594 456.0,1313.6 456.0,1310.4 L 456.0,1128.0 L 456.0,935.0 L 456.0,743.0 L 456.0,552.0 L 456.0,360.0" stroke="green"/>
    <rect stroke="none" fill-opacity="1" x="428" y="346" width="56" height="28" fill="green"/>
  </g>
  <g>
    <path fill="none" stroke-width="29.400000000000002" stroke-opacity="1" d="M 1608.0,1128.0 L 1790.4,944.65 C 1793.6,941.4333333333333 1806.4,941.4333333333333 1809.6,944.65 L 1985.2294294929034,1121.1941661048456 C 1987.4862863286023,1123.4627774032303 1998.4,1128.0 2001.6,1128.0 L 2184.0,1128.0" stroke="darkgreen"/>
    <rect stroke="none" fill-opacity="1" x="2170" y="1100" width="28" height="56" fill="darkgreen"/>
  </g>
  <g>
    <path fill="none" stroke-width="29.400000000000002" stroke-opacity="1" d="M 1800.0,935.0 L 1992.0,743.0" stroke="silver"/>
    <rect stroke="none" fill-opacity="1" x="1978" y="715" width="28" height="56" fill="silver"/>
  </g>
  <g>
    <path fill="none" stroke-width="29.400000000000002" stroke-opacity="1" d="M 648.0,1512.0 L 648.0,1320.0" stroke="pink"/>
    <rect stroke="none" fill-opacity="1" x="620" y="1306" width="56" height="28" fill="pink"/>
  </g>
  <g>
    <text fill="black" stroke="none" font-size="56.0" font-family="p22" font-weight="100" text-anchor="start" dominant-baseline="central" x="3193.0" y="2088" transform="translate(3144,2088) rotate(0) translate(-3144,-2088)">BADULLA</text>
  </g>
  <g>
    <text fill="black" stroke="none" font-size="56.0" font-family="p22" font-weight="100" text-anchor="start" dominant-baseline="central" x="2233.0" y="1320" transform="translate(2184,1320) rotate(0) translate(-2184,-1320)">MATALE</text>
  </g>
  <g>
    <text fill="black" stroke="none" font-size="56.0" font-family="p22" font-weight="100" text-anchor="start" dominant-baseline="central" x="1657.0" y="3240" transform="translate(1608,3240) rotate(0) translate(-1608,-3240)">MATARA</text>
  </g>
  <g>
    <text fill="black" stroke="none" font-size="56.0" font-family="p22" font-weight="100" text-anchor="start" dominant-baseline="central" x="1657.0" y="360" transform="translate(1608,360) rotate(0) translate(-1608,-360)">VAVUNIYA</text>
  </g>
  <g>
    <text fill="black" stroke="none" font-size="56.0" font-family="p22" font-weight="100" text-anchor="start" dominant-baseline="central" x="1273.0" y="2280" transform="translate(1224,2280) rotate(0) translate(-1224,-2280)">Avissawella</text>
  </g>
  <g>
    <text fill="black" stroke="none" font-size="56.0" font-family="p22" font-weight="100" text-anchor="start" dominant-baseline="central" x="505.0" y="360" transform="translate(456,360) rotate(0) translate(-456,-360)">Periyanagavillu</text>
  </g>
  <g>
    <text fill="black" stroke="none" font-size="56.0" font-family="p22" font-weight="100" text-anchor="start" dominant-baseline="central" x="2233.0" y="1128" transform="translate(2184,1128) rotate(0) translate(-2184,-1128)">BATTICALOA</text>
  </g>
  <g>
    <text fill="black" stroke="none" font-size="56.0" font-family="p22" font-weight="100" text-anchor="start" dominant-baseline="central" x="2041.0" y="743" transform="translate(1992,743) rotate(0) translate(-1992,-743)">TRINCOMALEE</text>
  </g>
  <g>
    <text fill="black" stroke="none" font-size="56.0" font-family="p22" font-weight="100" text-anchor="start" dominant-baseline="central" x="697.0" y="1320" transform="translate(648,1320) rotate(0) translate(-648,-1320)">CMB Airport</text>
  </g>
  <g>
    <circle r="28" fill="white" stroke="black" stroke-width="7.0" cx="648" cy="2280"/>
    <text fill="black" stroke="none" font-size="48.0" font-family="p22" font-weight="100" text-anchor="start" dominant-baseline="central" x="693.0" y="2280" transform="translate(648,2280) rotate(0) translate(-648,-2280)">COLOMBO Fort</text>
  </g>
  <g>
    <circle r="28" fill="white" stroke="black" stroke-width="7.0" cx="840" cy="2088"/>
    <text fill="black" stroke="none" font-size="48.0" font-family="p22" font-weight="100" text-anchor="start" dominant-baseline="central" x="885.0" y="2088" transform="translate(840,2088) rotate(0) translate(-840,-2088)">Maradana</text>
  </g>
  <g>
    <circle r="28" fill="white" stroke="black" stroke-width="7.0" cx="1032" cy="1896"/>
    <text fill="black" stroke="none" font-size="48.0" font-family="p22" font-weight="100" text-anchor="start" dominant-baseline="central" x="1077.0" y="1896" transform="translate(1032,1896) rotate(0) translate(-1032,-1896)">Ragama</text>
  </g>
  <g>
    <circle r="28" fill="white" stroke="black" stroke-width="7.0" cx="1608" cy="1512"/>
    <text fill="black" stroke="none" font-size="48.0" font-family="p22" font-weight="100" text-anchor="start" dominant-baseline="central" x="1653.0" y="1512" transform="translate(1608,1512) rotate(-45) translate(-1608,-1512)">Polgahawela</text>
  </g>
  <g>
    <circle r="28" fill="white" stroke="black" stroke-width="7.0" cx="1800" cy="1512"/>
    <text fill="black" stroke="none" font-size="48.0" font-family="p22" font-weight="100" text-anchor="start" dominant-baseline="central" x="1845.0" y="1512" transform="translate(1800,1512) rotate(0) translate(-1800,-1512)">Peradeniya</text>
  </g>
  <g>
    <circle r="28" fill="white" stroke="black" stroke-width="7.0" cx="1608" cy="1128"/>
    <text fill="black" stroke="none" font-size="48.0" font-family="p22" font-weight="100" text-anchor="start" dominant-baseline="central" x="1653.0" y="1128" transform="translate(1608,1128) rotate(0) translate(-1608,-1128)">Maho</text>
  </g>
  <g>
    <circle r="28" fill="white" stroke="black" stroke-width="7.0" cx="648" cy="1512"/>
    <text fill="black" stroke="none" font-size="48.0" font-family="p22" font-weight="100" text-anchor="start" dominant-baseline="central" x="693.0" y="1512" transform="translate(648,1512) rotate(0) translate(-648,-1512)">Katunayake South</text>
  </g>
  <g>
    <circle r="28" fill="white" stroke="black" stroke-width="7.0" cx="1800" cy="935"/>
    <text fill="black" stroke="none" font-size="48.0" font-family="p22" font-weight="100" text-anchor="start" dominant-baseline="central" x="1845.0" y="935" transform="translate(1800,935) rotate(0) translate(-1800,-935)">Gal Oya</text>
  </g>
  <g>
    <text fill="gray" stroke="none" font-size="44.0" font-family="p22" font-weight="100" text-anchor="start" dominant-baseline="central" x="1267.0" y="1704" transform="translate(1224,1704) rotate(0) translate(-1224,-1704)">GAMPAHA</text>
  </g>
  <g>
    <text fill="gray" stroke="none" font-size="44.0" font-family="p22" font-weight="100" text-anchor="start" dominant-baseline="central" x="2035.0" y="1320" transform="translate(1992,1320) rotate(-315) translate(-1992,-1320)">KANDY</text>
  </g>
  <g>
    <text fill="gray" stroke="none" font-size="44.0" font-family="p22" font-weight="100" text-anchor="start" dominant-baseline="central" x="1459.0" y="3240" transform="translate(1416,3240) rotate(-45) translate(-1416,-3240)">GALLE</text>
  </g>
  <g>
    <text fill="gray" stroke="none" font-size="44.0" font-family="p22" font-weight="100" text-anchor="end" dominant-baseline="central" x="1565.0" y="1320" transform="translate(1608,1320) rotate(0) translate(-1608,-1320)">KURUNEGALA</text>
  </g>
  <g>
    <text fill="gray" stroke="none" font-size="44.0" font-family="p22" font-weight="100" text-anchor="end" dominant-baseline="central" x="1565.0" y="935" transform="translate(1608,935) rotate(0) translate(-1608,-935)">ANURADHAPURA</text>
  </g>
  <g>
    <text fill="gray" stroke="none" font-size="44.0" font-family="p22" font-weight="100" text-anchor="start" dominant-baseline="central" x="499.0" y="552" transform="translate(456,552) rotate(0) translate(-456,-552)">PUTTALAM</text>
  </g>
  <g>
    <text fill="gray" stroke="none" font-size="44.0" font-family="p22" font-weight="100" text-anchor="start" dominant-baseline="central" x="2035.0" y="1128" transform="translate(1992,1128) rotate(-45) translate(-1992,-1128)">POLONNARUWA</text>
  </g>
  <g>
    <text fill="gray" stroke="none" font-size="40" font-family="p22" font-weight="100" text-anchor="end" dominant-baseline="central" x="1375.0" y="1512" transform="translate(1416,1512) rotate(0) translate(-1416,-1512)">Ambepussa</text>
  </g>
  <g>
    <text fill="gray" stroke="none" font-size="40" font-family="p22" font-weight="100" text-anchor="start" dominant-baseline="central" x="2033.0" y="1704" transform="translate(1992,1704) rotate(0) translate(-1992,-1704)">Gampola</text>
  </g>
  <g>
    <text fill="gray" stroke="none" font-size="40" font-family="p22" font-weight="100" text-anchor="start" dominant-baseline="central" x="2225.0" y="1896" transform="translate(2184,1896) rotate(0) translate(-2184,-1896)">Nawalapitiya</text>
  </g>
  <g>
    <text fill="gray" stroke="none" font-size="40" font-family="p22" font-weight="100" text-anchor="start" dominant-baseline="central" x="2417.0" y="2088" transform="translate(2376,2088) rotate(0) translate(-2376,-2088)">Talawakele</text>
  </g>
  <g>
    <text fill="gray" stroke="none" font-size="40" font-family="p22" font-weight="100" text-anchor="end" dominant-baseline="central" x="2527.0" y="2280" transform="translate(2568,2280) rotate(0) translate(-2568,-2280)">Nanu Oya</text>
  </g>
  <g>
    <text fill="gray" stroke="none" font-size="40" font-family="p22" font-weight="100" text-anchor="start" dominant-baseline="central" x="2801.0" y="2280" transform="translate(2760,2280) rotate(-45) translate(-2760,-2280)">Haputale</text>
  </g>
  <g>
    <text fill="gray" stroke="none" font-size="40" font-family="p22" font-weight="100" text-anchor="start" dominant-baseline="central" x="2993.0" y="2280" transform="translate(2952,2280) rotate(0) translate(-2952,-2280)">Bandarawela</text>
  </g>
  <g>
    <text fill="gray" stroke="none" font-size="40" font-family="p22" font-weight="100" text-anchor="start" dominant-baseline="central" x="689.0" y="2472" transform="translate(648,2472) rotate(0) translate(-648,-2472)">Panadura</text>
  </g>
  <g>
    <text fill="gray" stroke="none" font-size="40" font-family="p22" font-weight="100" text-anchor="start" dominant-baseline="central" x="689.0" y="2664" transform="translate(648,2664) rotate(0) translate(-648,-2664)">KALUTARA North</text>
  </g>
  <g>
    <text fill="gray" stroke="none" font-size="40" font-family="p22" font-weight="100" text-anchor="start" dominant-baseline="central" x="881.0" y="2856" transform="translate(840,2856) rotate(0) translate(-840,-2856)">Aluthgama</text>
  </g>
  <g>
    <text fill="gray" stroke="none" font-size="40" font-family="p22" font-weight="100" text-anchor="start" dominant-baseline="central" x="1073.0" y="3048" transform="translate(1032,3048) rotate(0) translate(-1032,-3048)">Kosgoda</text>
  </g>
  <g>
    <text fill="gray" stroke="none" font-size="40" font-family="p22" font-weight="100" text-anchor="end" dominant-baseline="central" x="1183.0" y="3240" transform="translate(1224,3240) rotate(0) translate(-1224,-3240)">Ambalangoda</text>
  </g>
  <g>
    <text fill="gray" stroke="none" font-size="40" font-family="p22" font-weight="100" text-anchor="start" dominant-baseline="central" x="1649.0" y="743" transform="translate(1608,743) rotate(0) translate(-1608,-743)">Mihintale Junction</text>
  </g>
  <g>
    <text fill="gray" stroke="none" font-size="40" font-family="p22" font-weight="100" text-anchor="start" dominant-baseline="central" x="1649.0" y="552" transform="translate(1608,552) rotate(0) translate(-1608,-552)">Medavachchiya</text>
  </g>
  <g>
    <text fill="gray" stroke="none" font-size="40" font-family="p22" font-weight="100" text-anchor="start" dominant-baseline="central" x="1073.0" y="2280" transform="translate(1032,2280) rotate(-45) translate(-1032,-2280)">Homagama</text>
  </g>
  <g>
    <text fill="gray" stroke="none" font-size="40" font-family="p22" font-weight="100" text-anchor="start" dominant-baseline="central" x="881.0" y="1704" transform="translate(840,1704) rotate(0) translate(-840,-1704)">Ja-Ela</text>
  </g>
  <g>
    <text fill="gray" stroke="none" font-size="40" font-family="p22" font-weight="100" text-anchor="end" dominant-baseline="central" x="415.0" y="1320" transform="translate(456,1320) rotate(0) translate(-456,-1320)">Negombo</text>
  </g>
  <g>
    <text fill="gray" stroke="none" font-size="40" font-family="p22" font-weight="100" text-anchor="start" dominant-baseline="central" x="497.0" y="1128" transform="translate(456,1128) rotate(0) translate(-456,-1128)">Madampe</text>
  </g>
  <g>
    <text fill="gray" stroke="none" font-size="40" font-family="p22" font-weight="100" text-anchor="start" dominant-baseline="central" x="497.0" y="935" transform="translate(456,935) rotate(0) translate(-456,-935)">Chilaw</text>
  </g>
  <g>
    <text fill="gray" stroke="none" font-size="40" font-family="p22" font-weight="100" text-anchor="start" dominant-baseline="central" x="497.0" y="743" transform="translate(456,743) rotate(0) translate(-456,-743)">Bangadeniya</text>
  </g>
</svg>
