<?xml version="1.0" ?>
<svg xmlns="http://www.w3.org/2000/svg" width="2880" height="2880" padding="288">
  <text fill="#fcfcfc" stroke="none" font-size="480.0" font-family="p22" x="1440.0" y="1440.0" text-anchor="middle" dominant-baseline="center">@nuuuwan</text>
  <text fill="black" stroke="none" font-size="80" font-family="p22" x="1440.0" y="144.0" text-anchor="middle" dominant-baseline="hanging">1993</text>
  <text fill="gray" stroke="none" font-size="40" font-family="p22" x="1440.0" y="194.0" text-anchor="middle" dominant-baseline="hanging">History of the Railways in Sri Lanka</text>
  <text fill="gray" stroke="none" font-size="38.4" font-family="p22" x="1440.0" y="2776.0" text-anchor="middle" dominant-baseline="text-top">data from multiple sources ~ music by @bensound ~ visualization by @nuuuwan</text>
  <g>
    <path fill="none" stroke-width="29.400000000000002" stroke-opacity="1" d="M 518.0,1824.0 L 664.3249592834957,1677.6750407165043 C 666.883306188997,1675.116693811003 677.1,1664.8666666666666 679.65,1662.3 L 817.7325,1523.315 C 820.155,1520.8766666666668 829.8766666666667,1511.155 832.315,1508.7325 L 971.66575,1370.286625 C 974.1105,1367.85775 983.85775,1358.1105 986.286625,1355.66575 L 1126.5730418268367,1214.4624284880204 C 1128.3820278845578,1212.6416189920137 1137.1333333333334,1209.0 1139.7,1209.0 L 1286.0,1209.0 L 1432.3,1209.0 C 1434.8666666666666,1209.0 1443.6179721154422,1212.6416189920137 1445.4269581731633,1214.4624284880204 L 1585.6213479086582,1355.573121424401 C 1588.080898605772,1358.0487476162673 1597.9512523837327,1367.919101394228 1600.426878575599,1370.3786520913418 L 1739.67134392878,1508.718932604567 C 1742.1142292858533,1511.1459550697114 1751.8540449302886,1520.8857707141467 1754.281067395433,1523.3286560712202 L 1892.7140533697716,1662.666432803561 C 1895.1427022465145,1665.110955202374 1904.873197128129,1674.873197128129 1907.3097956921936,1677.3097956921936 L 2048.5552777848634,1818.5552777848636 C 2050.370185189909,1820.370185189909 2059.133333333333,1824.0 2061.7,1824.0 L 2208.0,1824.0 L 2353.35,1824.0 C 2355.9,1824.0 2364.606244584051,1820.3937554159486 2366.409366876077,1818.590633123923 L 2515.0,1670.0" stroke="red"/>
    <rect stroke="none" fill-opacity="1" x="2501" y="1642" width="28" height="56" fill="red"/>
  </g>
  <g>
    <path fill="none" stroke-width="29.400000000000002" stroke-opacity="1" d="M 1440.0,1209.0 L 1587.5552777848636,1061.4447222151364 C 1589.370185189909,1059.629814810091 1598.1333333333334,1056.0 1600.7,1056.0 L 1747.0,1056.0" stroke="purple"/>
    <rect stroke="none" fill-opacity="1" x="1733" y="1028" width="28" height="56" fill="purple"/>
  </g>
  <g>
    <path fill="none" stroke-width="29.400000000000002" stroke-opacity="1" d="M 518.0,1824.0 L 518.0,1977.0 L 518.0,2123.3 C 518.0,2125.866666666667 521.6416189920136,2134.617972115442 523.4624284880205,2136.4269581731633 L 664.573121424401,2276.621347908658 C 667.0487476162673,2279.0808986057723 676.9191013942279,2288.9512523837325 679.3786520913418,2291.426878575599 L 817.718932604567,2430.67134392878 C 820.1459550697114,2433.114229285853 829.869933657478,2442.869933657478 832.304900486217,2445.304900486217 L 973.5906331239229,2586.590633123923 C 975.3937554159486,2588.393755415949 984.1,2592.0 986.65,2592.0 L 1132.0,2592.0 L 1286.0,2592.0" stroke="cyan"/>
    <rect stroke="none" fill-opacity="1" x="1272" y="2564" width="28" height="56" fill="cyan"/>
  </g>
  <g>
    <path fill="none" stroke-width="29.400000000000002" stroke-opacity="1" d="M 1286.0,1209.0 L 1286.0,1056.0 L 1286.0,902.0 L 1286.0,748.0 L 1286.0,595.0 L 1286.0,441.0 L 1286.0,288.0" stroke="orange"/>
    <rect stroke="none" fill-opacity="1" x="1258" y="274" width="56" height="28" fill="orange"/>
  </g>
  <g>
    <path fill="none" stroke-width="29.400000000000002" stroke-opacity="1" d="M 672.0,1670.0 L 819.5730418268369,1818.5375715119796 C 821.3820278845578,1820.3583810079863 830.1333333333333,1824.0 832.7,1824.0 L 979.0,1824.0" stroke="darkblue"/>
    <rect stroke="none" fill-opacity="1" x="965" y="1796" width="28" height="56" fill="darkblue"/>
  </g>
  <g>
    <path fill="none" stroke-width="29.400000000000002" stroke-opacity="1" d="M 825.0,1516.0 L 672.0,1363.0 L 525.6750407165043,1216.6750407165043 C 523.116693811003,1214.116693811003 512.8666666666667,1203.9 510.3,1201.35 L 369.46242848802046,1061.4269581731633 C 367.64161899201366,1059.6179721154422 364.0,1050.8666666666666 364.0,1048.3 L 364.0,902.0 L 364.0,748.0 L 364.0,595.0 L 364.0,441.0 L 364.0,288.0" stroke="green"/>
    <rect stroke="none" fill-opacity="1" x="336" y="274" width="56" height="28" fill="green"/>
  </g>
  <g>
    <path fill="none" stroke-width="29.400000000000002" stroke-opacity="1" d="M 1286.0,902.0 L 1432.3249592834957,755.6750407165043 C 1434.883306188997,753.116693811003 1445.1,753.1333333333333 1447.65,755.7 L 1587.5730418268367,896.5375715119795 C 1589.3820278845578,898.3583810079864 1598.1333333333334,902.0 1600.7,902.0 L 1747.0,902.0" stroke="darkgreen"/>
    <rect stroke="none" fill-opacity="1" x="1733" y="874" width="28" height="56" fill="darkgreen"/>
  </g>
  <g>
    <path fill="none" stroke-width="29.400000000000002" stroke-opacity="1" d="M 1440.0,748.0 L 1593.0,595.0" stroke="silver"/>
    <rect stroke="none" fill-opacity="1" x="1579" y="567" width="28" height="56" fill="silver"/>
  </g>
  <g>
    <path fill="none" stroke-width="29.400000000000002" stroke-opacity="1" d="M 518.0,1209.0 L 518.0,1056.0" stroke="pink"/>
    <rect stroke="none" fill-opacity="1" x="490" y="1042" width="56" height="28" fill="pink"/>
  </g>
  <g>
    <path fill="none" stroke-width="29.400000000000002" stroke-opacity="1" d="M 1286.0,595.0 L 1440.0,595.0" stroke="maroon"/>
    <rect stroke="none" fill-opacity="1" x="1426" y="567" width="28" height="56" fill="maroon"/>
  </g>
  <g>
    <text fill="black" stroke="none" font-size="56.0" font-family="p22" font-weight="100" text-anchor="start" dominant-baseline="central" x="2564.0" y="1670" transform="translate(2515,1670) rotate(0) translate(-2515,-1670)">BADULLA</text>
  </g>
  <g>
    <text fill="black" stroke="none" font-size="56.0" font-family="p22" font-weight="100" text-anchor="start" dominant-baseline="central" x="1796.0" y="1056" transform="translate(1747,1056) rotate(0) translate(-1747,-1056)">MATALE</text>
  </g>
  <g>
    <text fill="black" stroke="none" font-size="56.0" font-family="p22" font-weight="100" text-anchor="start" dominant-baseline="central" x="1335.0" y="2592" transform="translate(1286,2592) rotate(0) translate(-1286,-2592)">MATARA</text>
  </g>
  <g>
    <text fill="black" stroke="none" font-size="56.0" font-family="p22" font-weight="100" text-anchor="start" dominant-baseline="central" x="1335.0" y="288" transform="translate(1286,288) rotate(0) translate(-1286,-288)">VAVUNIYA</text>
  </g>
  <g>
    <text fill="black" stroke="none" font-size="56.0" font-family="p22" font-weight="100" text-anchor="start" dominant-baseline="central" x="1028.0" y="1824" transform="translate(979,1824) rotate(0) translate(-979,-1824)">Avissawella</text>
  </g>
  <g>
    <text fill="black" stroke="none" font-size="56.0" font-family="p22" font-weight="100" text-anchor="start" dominant-baseline="central" x="413.0" y="288" transform="translate(364,288) rotate(0) translate(-364,-288)">Periyanagavillu</text>
  </g>
  <g>
    <text fill="black" stroke="none" font-size="56.0" font-family="p22" font-weight="100" text-anchor="start" dominant-baseline="central" x="1796.0" y="902" transform="translate(1747,902) rotate(0) translate(-1747,-902)">BATTICALOA</text>
  </g>
  <g>
    <text fill="black" stroke="none" font-size="56.0" font-family="p22" font-weight="100" text-anchor="start" dominant-baseline="central" x="1642.0" y="595" transform="translate(1593,595) rotate(0) translate(-1593,-595)">TRINCOMALEE</text>
  </g>
  <g>
    <text fill="black" stroke="none" font-size="56.0" font-family="p22" font-weight="100" text-anchor="start" dominant-baseline="central" x="567.0" y="1056" transform="translate(518,1056) rotate(0) translate(-518,-1056)">CMB Airport</text>
  </g>
  <g>
    <text fill="black" stroke="none" font-size="56.0" font-family="p22" font-weight="100" text-anchor="start" dominant-baseline="central" x="1489.0" y="595" transform="translate(1440,595) rotate(-22.5) translate(-1440,-595)">Mihintale</text>
  </g>
  <g>
    <circle r="28" fill="white" stroke="black" stroke-width="7.0" cx="518" cy="1824"/>
    <text fill="black" stroke="none" font-size="48.0" font-family="p22" font-weight="100" text-anchor="end" dominant-baseline="central" x="473.0" y="1824" transform="translate(518,1824) rotate(0) translate(-518,-1824)">COLOMBO Fort</text>
  </g>
  <g>
    <circle r="28" fill="white" stroke="black" stroke-width="7.0" cx="672" cy="1670"/>
    <text fill="black" stroke="none" font-size="48.0" font-family="p22" font-weight="100" text-anchor="start" dominant-baseline="central" x="717.0" y="1670" transform="translate(672,1670) rotate(0) translate(-672,-1670)">Maradana</text>
  </g>
  <g>
    <circle r="28" fill="white" stroke="black" stroke-width="7.0" cx="825" cy="1516"/>
    <text fill="black" stroke="none" font-size="48.0" font-family="p22" font-weight="100" text-anchor="start" dominant-baseline="central" x="870.0" y="1516" transform="translate(825,1516) rotate(0) translate(-825,-1516)">Ragama</text>
  </g>
  <g>
    <circle r="28" fill="white" stroke="black" stroke-width="7.0" cx="1286" cy="1209"/>
    <text fill="black" stroke="none" font-size="48.0" font-family="p22" font-weight="100" text-anchor="end" dominant-baseline="central" x="1241.0" y="1209" transform="translate(1286,1209) rotate(45) translate(-1286,-1209)">Polgahawela</text>
  </g>
  <g>
    <circle r="28" fill="white" stroke="black" stroke-width="7.0" cx="1440" cy="1209"/>
    <text fill="black" stroke="none" font-size="48.0" font-family="p22" font-weight="100" text-anchor="start" dominant-baseline="central" x="1485.0" y="1209" transform="translate(1440,1209) rotate(0) translate(-1440,-1209)">Peradeniya</text>
  </g>
  <g>
    <circle r="28" fill="white" stroke="black" stroke-width="7.0" cx="1286" cy="902"/>
    <text fill="black" stroke="none" font-size="48.0" font-family="p22" font-weight="100" text-anchor="end" dominant-baseline="central" x="1241.0" y="902" transform="translate(1286,902) rotate(45) translate(-1286,-902)">Maho</text>
  </g>
  <g>
    <circle r="28" fill="white" stroke="black" stroke-width="7.0" cx="1286" cy="595"/>
    <text fill="black" stroke="none" font-size="48.0" font-family="p22" font-weight="100" text-anchor="end" dominant-baseline="central" x="1241.0" y="595" transform="translate(1286,595) rotate(45) translate(-1286,-595)">Mihintale Junction</text>
  </g>
  <g>
    <circle r="28" fill="white" stroke="black" stroke-width="7.0" cx="518" cy="1209"/>
    <text fill="black" stroke="none" font-size="48.0" font-family="p22" font-weight="100" text-anchor="start" dominant-baseline="central" x="563.0" y="1209" transform="translate(518,1209) rotate(0) translate(-518,-1209)">Katunayake South</text>
  </g>
  <g>
    <circle r="28" fill="white" stroke="black" stroke-width="7.0" cx="1440" cy="748"/>
    <text fill="black" stroke="none" font-size="48.0" font-family="p22" font-weight="100" text-anchor="start" dominant-baseline="central" x="1485.0" y="748" transform="translate(1440,748) rotate(0) translate(-1440,-748)">Gal Oya</text>
  </g>
  <g>
    <text fill="gray" stroke="none" font-size="44.0" font-family="p22" font-weight="100" text-anchor="start" dominant-baseline="central" x="1022.0" y="1363" transform="translate(979,1363) rotate(0) translate(-979,-1363)">GAMPAHA</text>
  </g>
  <g/>
  <g>
    <text fill="gray" stroke="none" font-size="44.0" font-family="p22" font-weight="100" text-anchor="start" dominant-baseline="central" x="1175.0" y="2592" transform="translate(1132,2592) rotate(-45) translate(-1132,-2592)">GALLE</text>
  </g>
  <g>
    <text fill="gray" stroke="none" font-size="44.0" font-family="p22" font-weight="100" text-anchor="end" dominant-baseline="central" x="1243.0" y="1056" transform="translate(1286,1056) rotate(45) translate(-1286,-1056)">KURUNEGALA</text>
  </g>
  <g/>
  <g>
    <text fill="gray" stroke="none" font-size="44.0" font-family="p22" font-weight="100" text-anchor="end" dominant-baseline="central" x="321.0" y="441" transform="translate(364,441) rotate(0) translate(-364,-441)">PUTTALAM</text>
  </g>
  <g/>
  <g>
    <text fill="gray" stroke="none" font-size="40" font-family="p22" font-weight="100" text-anchor="start" dominant-baseline="central" x="1173.0" y="1209" transform="translate(1132,1209) rotate(-22.5) translate(-1132,-1209)">Ambepussa</text>
  </g>
  <g>
    <text fill="gray" stroke="none" font-size="40" font-family="p22" font-weight="100" text-anchor="start" dominant-baseline="central" x="1634.0" y="1363" transform="translate(1593,1363) rotate(0) translate(-1593,-1363)">Gampola</text>
  </g>
  <g>
    <text fill="gray" stroke="none" font-size="40" font-family="p22" font-weight="100" text-anchor="start" dominant-baseline="central" x="1788.0" y="1516" transform="translate(1747,1516) rotate(0) translate(-1747,-1516)">Nawalapitiya</text>
  </g>
  <g>
    <text fill="gray" stroke="none" font-size="40" font-family="p22" font-weight="100" text-anchor="start" dominant-baseline="central" x="1941.0" y="1670" transform="translate(1900,1670) rotate(0) translate(-1900,-1670)">Talawakele</text>
  </g>
  <g>
    <text fill="gray" stroke="none" font-size="40" font-family="p22" font-weight="100" text-anchor="end" dominant-baseline="central" x="2013.0" y="1824" transform="translate(2054,1824) rotate(0) translate(-2054,-1824)">Nanu Oya</text>
  </g>
  <g>
    <text fill="gray" stroke="none" font-size="40" font-family="p22" font-weight="100" text-anchor="start" dominant-baseline="central" x="2249.0" y="1824" transform="translate(2208,1824) rotate(-315) translate(-2208,-1824)">Haputale</text>
  </g>
  <g>
    <text fill="gray" stroke="none" font-size="40" font-family="p22" font-weight="100" text-anchor="start" dominant-baseline="central" x="2402.0" y="1824" transform="translate(2361,1824) rotate(0) translate(-2361,-1824)">Bandarawela</text>
  </g>
  <g>
    <text fill="gray" stroke="none" font-size="40" font-family="p22" font-weight="100" text-anchor="start" dominant-baseline="central" x="559.0" y="1977" transform="translate(518,1977) rotate(0) translate(-518,-1977)">Panadura</text>
  </g>
  <g>
    <text fill="gray" stroke="none" font-size="40" font-family="p22" font-weight="100" text-anchor="start" dominant-baseline="central" x="559.0" y="2131" transform="translate(518,2131) rotate(0) translate(-518,-2131)">KALUTARA North</text>
  </g>
  <g>
    <text fill="gray" stroke="none" font-size="40" font-family="p22" font-weight="100" text-anchor="start" dominant-baseline="central" x="713.0" y="2284" transform="translate(672,2284) rotate(0) translate(-672,-2284)">Aluthgama</text>
  </g>
  <g>
    <text fill="gray" stroke="none" font-size="40" font-family="p22" font-weight="100" text-anchor="end" dominant-baseline="central" x="784.0" y="2438" transform="translate(825,2438) rotate(0) translate(-825,-2438)">Kosgoda</text>
  </g>
  <g>
    <text fill="gray" stroke="none" font-size="40" font-family="p22" font-weight="100" text-anchor="end" dominant-baseline="central" x="938.0" y="2592" transform="translate(979,2592) rotate(0) translate(-979,-2592)">Ambalangoda</text>
  </g>
  <g>
    <text fill="gray" stroke="none" font-size="40" font-family="p22" font-weight="100" text-anchor="end" dominant-baseline="central" x="1245.0" y="441" transform="translate(1286,441) rotate(45) translate(-1286,-441)">Medavachchiya</text>
  </g>
  <g>
    <text fill="gray" stroke="none" font-size="40" font-family="p22" font-weight="100" text-anchor="start" dominant-baseline="central" x="866.0" y="1824" transform="translate(825,1824) rotate(-337.5) translate(-825,-1824)">Homagama</text>
  </g>
  <g>
    <text fill="gray" stroke="none" font-size="40" font-family="p22" font-weight="100" text-anchor="end" dominant-baseline="central" x="631.0" y="1363" transform="translate(672,1363) rotate(0) translate(-672,-1363)">Ja-Ela</text>
  </g>
  <g>
    <text fill="gray" stroke="none" font-size="40" font-family="p22" font-weight="100" text-anchor="end" dominant-baseline="central" x="323.0" y="1056" transform="translate(364,1056) rotate(0) translate(-364,-1056)">Negombo</text>
  </g>
  <g>
    <text fill="gray" stroke="none" font-size="40" font-family="p22" font-weight="100" text-anchor="start" dominant-baseline="central" x="405.0" y="902" transform="translate(364,902) rotate(0) translate(-364,-902)">Madampe</text>
  </g>
  <g>
    <text fill="gray" stroke="none" font-size="40" font-family="p22" font-weight="100" text-anchor="end" dominant-baseline="central" x="323.0" y="748" transform="translate(364,748) rotate(0) translate(-364,-748)">Chilaw</text>
  </g>
  <g>
    <text fill="gray" stroke="none" font-size="40" font-family="p22" font-weight="100" text-anchor="end" dominant-baseline="central" x="323.0" y="595" transform="translate(364,595) rotate(0) translate(-364,-595)">Bangadeniya</text>
  </g>
</svg>
