<?xml version="1.0" ?>
<svg xmlns="http://www.w3.org/2000/svg" width="1320" height="1320" padding="148">
  <text fill="gray" stroke="none" font-size="72" font-family="p22" x="660.0" y="92.0" text-anchor="middle" dominant-baseline="hanging">1996</text>
  <text fill="gray" stroke="none" font-size="18" font-family="p22" x="660.0" y="1264.0" text-anchor="middle" dominant-baseline="text-top">History of the Railways in Sri Lanka</text>
  <g>
    <path fill="none" stroke-width="10.5" stroke-opacity="1" d="M 404.0,916.0 L 452.4748762873132,866.5746359423473 C 453.3165841915421,865.7164239615649 456.7,862.3 457.55,861.45 L 506.0,813.0 L 557.0,762.0 L 606.161522368915,712.838477631085 C 606.7743482459433,712.2256517540567 609.7333333333333,711.0 610.6,711.0 L 660.0,711.0 L 708.45,711.0 C 709.3,711.0 712.2020815280172,712.2020815280172 712.8031222920257,712.8031222920257 L 762.0,762.0 L 811.1968777079743,811.1968777079743 C 811.7979184719828,811.7979184719828 814.7,813.0 815.55,813.0 L 861.5775,813.0 C 862.385,813.0 865.1530102714829,811.8691630029687 865.7295154072244,811.303744504453 L 916.0,762.0" stroke="red"/>
    <rect stroke="none" fill-opacity="1" x="911" y="752" width="10" height="20" fill="red"/>
  </g>
  <g>
    <path fill="none" stroke-width="10.5" stroke-opacity="1" d="M 711.0,711.0 L 760.1968777079743,661.8031222920257 C 760.7979184719828,661.2020815280172 763.7,660.0 764.55,660.0 L 813.0,660.0" stroke="purple"/>
    <rect stroke="none" fill-opacity="1" x="808" y="650" width="10" height="20" fill="purple"/>
  </g>
  <g>
    <path fill="none" stroke-width="10.5" stroke-opacity="1" d="M 404.0,916.0 L 404.0,967.0 L 404.0,1015.45 C 404.0,1016.3 405.2020815280171,1019.2020815280172 405.8031222920257,1019.8031222920257 L 455.0,1069.0 L 503.45,1117.45 C 504.3,1118.3 507.6834158084579,1121.716423961565 508.5251237126868,1122.5746359423474 L 555.2144678994242,1170.1794574660796 C 555.8096452662828,1170.7863049773864 558.7,1172.0 559.55,1172.0 L 608.0,1172.0 L 660.0,1172.0" stroke="cyan"/>
    <rect stroke="none" fill-opacity="1" x="655" y="1162" width="10" height="20" fill="cyan"/>
  </g>
  <g>
    <path fill="none" stroke-width="10.5" stroke-opacity="1" d="M 660.0,711.0 L 660.0,660.0 L 660.0,608.0 L 660.0,557.0 L 660.0,506.0 L 660.0,455.0 L 660.0,404.0" stroke="orange"/>
    <rect stroke="none" fill-opacity="1" x="650" y="399" width="20" height="10" fill="orange"/>
  </g>
  <g>
    <path fill="none" stroke-width="10.5" stroke-opacity="1" d="M 455.0,864.0 L 504.2144678994242,914.1794574660796 C 504.8096452662828,914.7863049773864 507.7,916.0 508.55,916.0 L 557.0,916.0" stroke="darkblue"/>
    <rect stroke="none" fill-opacity="1" x="552" y="906" width="10" height="20" fill="darkblue"/>
  </g>
  <g>
    <path fill="none" stroke-width="10.5" stroke-opacity="1" d="M 506.0,813.0 L 456.8031222920257,763.8031222920257 C 456.2020815280171,763.2020815280172 455.0,760.3 455.0,759.45 L 455.0,711.0 L 455.0,660.0 L 455.0,608.0 L 455.0,557.0" stroke="green"/>
    <rect stroke="none" fill-opacity="1" x="445" y="552" width="20" height="10" fill="green"/>
  </g>
  <g>
    <path fill="none" stroke-width="10.5" stroke-opacity="1" d="M 660.0,608.0 L 708.45,559.55 C 709.3,558.7 712.7,558.7 713.55,559.55 L 762.0,608.0" stroke="darkgreen"/>
    <rect stroke="none" fill-opacity="1" x="757" y="598" width="10" height="20" fill="darkgreen"/>
  </g>
  <g>
    <path fill="none" stroke-width="10.5" stroke-opacity="1" d="M 711.0,557.0 L 762.0,506.0" stroke="silver"/>
    <rect stroke="none" fill-opacity="1" x="757" y="496" width="10" height="20" fill="silver"/>
  </g>
  <g>
    <path fill="none" stroke-width="10.5" stroke-opacity="1" d="M 660.0,506.0 L 711.0,506.0" stroke="maroon"/>
    <rect stroke="none" fill-opacity="1" x="706" y="496" width="10" height="20" fill="maroon"/>
  </g>
  <g>
    <text fill="black" stroke="none" font-size="25.2" font-family="p22" font-weight="100" text-anchor="start" dominant-baseline="central" x="936.1" y="762" transform="translate(916,762) rotate(0) translate(-916,-762)">BADULLA</text>
  </g>
  <g>
    <text fill="black" stroke="none" font-size="25.2" font-family="p22" font-weight="100" text-anchor="start" dominant-baseline="central" x="833.1" y="660" transform="translate(813,660) rotate(0) translate(-813,-660)">MATALE</text>
  </g>
  <g>
    <text fill="black" stroke="none" font-size="25.2" font-family="p22" font-weight="100" text-anchor="start" dominant-baseline="central" x="680.1" y="1172" transform="translate(660,1172) rotate(0) translate(-660,-1172)">MATARA</text>
  </g>
  <g>
    <text fill="black" stroke="none" font-size="25.2" font-family="p22" font-weight="100" text-anchor="start" dominant-baseline="central" x="680.1" y="404" transform="translate(660,404) rotate(0) translate(-660,-404)">VAVUNIYA</text>
  </g>
  <g>
    <text fill="black" stroke="none" font-size="25.2" font-family="p22" font-weight="100" text-anchor="start" dominant-baseline="central" x="577.1" y="916" transform="translate(557,916) rotate(0) translate(-557,-916)">Avissawella</text>
  </g>
  <g>
    <text fill="black" stroke="none" font-size="25.2" font-family="p22" font-weight="100" text-anchor="start" dominant-baseline="central" x="475.1" y="557" transform="translate(455,557) rotate(0) translate(-455,-557)">Periyanagavillu</text>
  </g>
  <g>
    <text fill="black" stroke="none" font-size="25.2" font-family="p22" font-weight="100" text-anchor="start" dominant-baseline="central" x="782.1" y="608" transform="translate(762,608) rotate(0) translate(-762,-608)">POLONNARUWA</text>
  </g>
  <g>
    <text fill="black" stroke="none" font-size="25.2" font-family="p22" font-weight="100" text-anchor="start" dominant-baseline="central" x="782.1" y="506" transform="translate(762,506) rotate(0) translate(-762,-506)">TRINCOMALEE</text>
  </g>
  <g>
    <text fill="black" stroke="none" font-size="25.2" font-family="p22" font-weight="100" text-anchor="start" dominant-baseline="central" x="731.1" y="506" transform="translate(711,506) rotate(-22.5) translate(-711,-506)">Mihintale</text>
  </g>
  <g>
    <circle r="10" fill="white" stroke="black" stroke-width="2.5" cx="404" cy="916"/>
    <text fill="black" stroke="none" font-size="21.599999999999998" font-family="p22" font-weight="100" text-anchor="end" dominant-baseline="central" x="385.7" y="916" transform="translate(404,916) rotate(0) translate(-404,-916)">COLOMBO Fort</text>
  </g>
  <g>
    <circle r="10" fill="white" stroke="black" stroke-width="2.5" cx="455" cy="864"/>
    <text fill="black" stroke="none" font-size="21.599999999999998" font-family="p22" font-weight="100" text-anchor="start" dominant-baseline="central" x="473.3" y="864" transform="translate(455,864) rotate(0) translate(-455,-864)">Maradana</text>
  </g>
  <g>
    <circle r="10" fill="white" stroke="black" stroke-width="2.5" cx="506" cy="813"/>
    <text fill="black" stroke="none" font-size="21.599999999999998" font-family="p22" font-weight="100" text-anchor="start" dominant-baseline="central" x="524.3" y="813" transform="translate(506,813) rotate(0) translate(-506,-813)">Ragama</text>
  </g>
  <g>
    <circle r="10" fill="white" stroke="black" stroke-width="2.5" cx="660" cy="711"/>
    <text fill="black" stroke="none" font-size="21.599999999999998" font-family="p22" font-weight="100" text-anchor="start" dominant-baseline="central" x="678.3" y="711" transform="translate(660,711) rotate(-315) translate(-660,-711)">Polgahawela</text>
  </g>
  <g>
    <circle r="10" fill="white" stroke="black" stroke-width="2.5" cx="711" cy="711"/>
    <text fill="black" stroke="none" font-size="21.599999999999998" font-family="p22" font-weight="100" text-anchor="start" dominant-baseline="central" x="729.3" y="711" transform="translate(711,711) rotate(0) translate(-711,-711)">Peradeniya</text>
  </g>
  <g>
    <circle r="10" fill="white" stroke="black" stroke-width="2.5" cx="660" cy="608"/>
    <text fill="black" stroke="none" font-size="21.599999999999998" font-family="p22" font-weight="100" text-anchor="end" dominant-baseline="central" x="641.7" y="608" transform="translate(660,608) rotate(0) translate(-660,-608)">Maho</text>
  </g>
  <g>
    <circle r="10" fill="white" stroke="black" stroke-width="2.5" cx="660" cy="506"/>
    <text fill="black" stroke="none" font-size="21.599999999999998" font-family="p22" font-weight="100" text-anchor="end" dominant-baseline="central" x="641.7" y="506" transform="translate(660,506) rotate(0) translate(-660,-506)">Mihintale Junction</text>
  </g>
  <g>
    <circle r="10" fill="white" stroke="black" stroke-width="2.5" cx="711" cy="557"/>
    <text fill="black" stroke="none" font-size="21.599999999999998" font-family="p22" font-weight="100" text-anchor="start" dominant-baseline="central" x="729.3" y="557" transform="translate(711,557) rotate(0) translate(-711,-557)">Gal Oya</text>
  </g>
  <g/>
  <g/>
  <g>
    <text fill="gray" stroke="none" font-size="19.8" font-family="p22" font-weight="100" text-anchor="start" dominant-baseline="central" x="625.4" y="1172" transform="translate(608,1172) rotate(-45) translate(-608,-1172)">GALLE</text>
  </g>
  <g>
    <text fill="gray" stroke="none" font-size="19.8" font-family="p22" font-weight="100" text-anchor="end" dominant-baseline="central" x="642.6" y="660" transform="translate(660,660) rotate(0) translate(-660,-660)">KURUNEGALA</text>
  </g>
  <g/>
  <g>
    <text fill="gray" stroke="none" font-size="19.8" font-family="p22" font-weight="100" text-anchor="end" dominant-baseline="central" x="437.6" y="608" transform="translate(455,608) rotate(0) translate(-455,-608)">PUTTALAM</text>
  </g>
  <g>
    <text fill="gray" stroke="none" font-size="18" font-family="p22" font-weight="100" text-anchor="start" dominant-baseline="central" x="624.5" y="711" transform="translate(608,711) rotate(-315) translate(-608,-711)">Ambepussa</text>
  </g>
  <g/>
  <g>
    <text fill="gray" stroke="none" font-size="18" font-family="p22" font-weight="100" text-anchor="start" dominant-baseline="central" x="829.5" y="813" transform="translate(813,813) rotate(-315) translate(-813,-813)">Nanu Oya</text>
  </g>
  <g>
    <text fill="gray" stroke="none" font-size="18" font-family="p22" font-weight="100" text-anchor="start" dominant-baseline="central" x="880.5" y="813" transform="translate(864,813) rotate(0) translate(-864,-813)">Bandarawela</text>
  </g>
  <g>
    <text fill="gray" stroke="none" font-size="18" font-family="p22" font-weight="100" text-anchor="start" dominant-baseline="central" x="420.5" y="967" transform="translate(404,967) rotate(0) translate(-404,-967)">Panadura</text>
  </g>
  <g>
    <text fill="gray" stroke="none" font-size="18" font-family="p22" font-weight="100" text-anchor="start" dominant-baseline="central" x="420.5" y="1018" transform="translate(404,1018) rotate(0) translate(-404,-1018)">KALUTARA North</text>
  </g>
  <g>
    <text fill="gray" stroke="none" font-size="18" font-family="p22" font-weight="100" text-anchor="start" dominant-baseline="central" x="471.5" y="1069" transform="translate(455,1069) rotate(0) translate(-455,-1069)">Aluthgama</text>
  </g>
  <g>
    <text fill="gray" stroke="none" font-size="18" font-family="p22" font-weight="100" text-anchor="end" dominant-baseline="central" x="489.5" y="1120" transform="translate(506,1120) rotate(0) translate(-506,-1120)">Kosgoda</text>
  </g>
  <g>
    <text fill="gray" stroke="none" font-size="18" font-family="p22" font-weight="100" text-anchor="end" dominant-baseline="central" x="540.5" y="1172" transform="translate(557,1172) rotate(0) translate(-557,-1172)">Ambalangoda</text>
  </g>
  <g>
    <text fill="gray" stroke="none" font-size="18" font-family="p22" font-weight="100" text-anchor="end" dominant-baseline="central" x="643.5" y="455" transform="translate(660,455) rotate(0) translate(-660,-455)">Medavachchiya</text>
  </g>
  <g>
    <text fill="gray" stroke="none" font-size="18" font-family="p22" font-weight="100" text-anchor="start" dominant-baseline="central" x="522.5" y="916" transform="translate(506,916) rotate(-337.5) translate(-506,-916)">Homagama</text>
  </g>
  <g>
    <text fill="gray" stroke="none" font-size="18" font-family="p22" font-weight="100" text-anchor="end" dominant-baseline="central" x="438.5" y="762" transform="translate(455,762) rotate(0) translate(-455,-762)">Negombo</text>
  </g>
  <g>
    <text fill="gray" stroke="none" font-size="18" font-family="p22" font-weight="100" text-anchor="end" dominant-baseline="central" x="438.5" y="711" transform="translate(455,711) rotate(0) translate(-455,-711)">Chilaw</text>
  </g>
  <g>
    <text fill="gray" stroke="none" font-size="18" font-family="p22" font-weight="100" text-anchor="end" dominant-baseline="central" x="438.5" y="660" transform="translate(455,660) rotate(0) translate(-455,-660)">Bangadeniya</text>
  </g>
</svg>
