<?xml version="1.0" ?>
<svg xmlns="http://www.w3.org/2000/svg" width="2880" height="2880" padding="288">
  <text fill="#fcfcfc" stroke="none" font-size="480.0" font-family="p22" x="1440.0" y="1440.0" text-anchor="middle" dominant-baseline="center">@nuuuwan</text>
  <text fill="black" stroke="none" font-size="80" font-family="p22" x="1440.0" y="144.0" text-anchor="middle" dominant-baseline="hanging">2011</text>
  <text fill="gray" stroke="none" font-size="40" font-family="p22" x="1440.0" y="194.0" text-anchor="middle" dominant-baseline="hanging">History of the Railways in Sri Lanka</text>
  <text fill="gray" stroke="none" font-size="38.4" font-family="p22" x="1440.0" y="2776.0" text-anchor="middle" dominant-baseline="text-top">data from multiple sources ~ music by @bensound ~ visualization by @nuuuwan</text>
  <g>
    <path fill="none" stroke-width="29.400000000000002" stroke-opacity="1" d="M 576.0,1872.0 L 720.0,1728.0 L 864.0,1584.0 L 1008.0,1440.0 L 1146.908831175457,1301.091168824543 C 1148.6058874503046,1299.3941125496954 1156.8,1296.0 1159.2,1296.0 L 1296.0,1296.0 L 1432.8,1296.0 C 1435.2,1296.0 1443.3941125496954,1299.3941125496954 1445.091168824543,1301.091168824543 L 1584.0,1440.0 L 1728.0,1584.0 L 1872.0,1728.0 L 2010.908831175457,1866.908831175457 C 2012.6058874503046,1868.6058874503046 2020.8,1872.0 2023.2,1872.0 L 2160.0,1872.0 L 2296.8,1872.0 C 2299.2,1872.0 2307.3941125496954,1868.6058874503046 2309.0911688245433,1866.908831175457 L 2448.0,1728.0" stroke="red"/>
    <rect stroke="none" fill-opacity="1" x="2434" y="1700" width="28" height="56" fill="red"/>
  </g>
  <g>
    <path fill="none" stroke-width="29.400000000000002" stroke-opacity="1" d="M 1440.0,1296.0 L 1578.908831175457,1157.091168824543 C 1580.6058874503046,1155.3941125496954 1588.8,1152.0 1591.2,1152.0 L 1728.0,1152.0" stroke="purple"/>
    <rect stroke="none" fill-opacity="1" x="1714" y="1124" width="28" height="56" fill="purple"/>
  </g>
  <g>
    <path fill="none" stroke-width="29.400000000000002" stroke-opacity="1" d="M 576.0,1872.0 L 576.0,2016.0 L 576.0,2152.8 C 576.0,2155.2 579.3941125496955,2163.3941125496954 581.0911688245432,2165.0911688245433 L 720.0,2304.0 L 864.0,2448.0 L 1002.9088311754568,2586.9088311754567 C 1004.6058874503045,2588.6058874503046 1012.8,2592.0 1015.2,2592.0 L 1152.0,2592.0 L 1296.0,2592.0" stroke="cyan"/>
    <rect stroke="none" fill-opacity="1" x="1282" y="2564" width="28" height="56" fill="cyan"/>
  </g>
  <g>
    <path fill="none" stroke-width="29.400000000000002" stroke-opacity="1" d="M 1296.0,1296.0 L 1296.0,1152.0 L 1296.0,1008.0 L 1296.0,864.0 L 1296.0,720.0 L 1296.0,576.0 L 1296.0,432.0 L 1296.0,288.0" stroke="orange"/>
    <rect stroke="none" fill-opacity="1" x="1268" y="274" width="56" height="28" fill="orange"/>
  </g>
  <g>
    <path fill="none" stroke-width="29.400000000000002" stroke-opacity="1" d="M 720.0,1728.0 L 858.9088311754568,1866.908831175457 C 860.6058874503045,1868.6058874503046 868.8,1872.0 871.2,1872.0 L 1008.0,1872.0" stroke="darkblue"/>
    <rect stroke="none" fill-opacity="1" x="994" y="1844" width="28" height="56" fill="darkblue"/>
  </g>
  <g>
    <path fill="none" stroke-width="29.400000000000002" stroke-opacity="1" d="M 864.0,1584.0 L 720.0,1440.0 L 576.0,1296.0 L 437.09116882454316,1157.091168824543 C 435.3941125496954,1155.3941125496954 432.0,1147.2 432.0,1144.8 L 432.0,1008.0 L 432.0,864.0 L 432.0,720.0 L 432.0,576.0 L 432.0,432.0" stroke="green"/>
    <rect stroke="none" fill-opacity="1" x="404" y="418" width="56" height="28" fill="green"/>
  </g>
  <g>
    <path fill="none" stroke-width="29.400000000000002" stroke-opacity="1" d="M 1296.0,1008.0 L 1432.8,871.2 C 1435.2,868.8 1444.8,868.8 1447.2,871.2 L 1578.908831175457,1002.9088311754568 C 1580.6058874503046,1004.6058874503045 1588.8,1008.0 1591.2,1008.0 L 1728.0,1008.0" stroke="darkgreen"/>
    <rect stroke="none" fill-opacity="1" x="1714" y="980" width="28" height="56" fill="darkgreen"/>
  </g>
  <g>
    <path fill="none" stroke-width="29.400000000000002" stroke-opacity="1" d="M 1440.0,864.0 L 1584.0,720.0" stroke="silver"/>
    <rect stroke="none" fill-opacity="1" x="1570" y="692" width="28" height="56" fill="silver"/>
  </g>
  <g>
    <path fill="none" stroke-width="29.400000000000002" stroke-opacity="1" d="M 576.0,1296.0 L 576.0,1152.0" stroke="pink"/>
    <rect stroke="none" fill-opacity="1" x="548" y="1138" width="56" height="28" fill="pink"/>
  </g>
  <g>
    <path fill="none" stroke-width="29.400000000000002" stroke-opacity="1" d="M 1296.0,720.0 L 1440.0,720.0" stroke="maroon"/>
    <rect stroke="none" fill-opacity="1" x="1426" y="692" width="28" height="56" fill="maroon"/>
  </g>
  <g>
    <text fill="black" stroke="none" font-size="56.0" font-family="p22" font-weight="100" text-anchor="start" dominant-baseline="central" x="2497.0" y="1728" transform="translate(2448,1728) rotate(0) translate(-2448,-1728)">BADULLA</text>
  </g>
  <g>
    <text fill="black" stroke="none" font-size="56.0" font-family="p22" font-weight="100" text-anchor="start" dominant-baseline="central" x="1777.0" y="1152" transform="translate(1728,1152) rotate(0) translate(-1728,-1152)">MATALE</text>
  </g>
  <g>
    <text fill="black" stroke="none" font-size="56.0" font-family="p22" font-weight="100" text-anchor="start" dominant-baseline="central" x="1345.0" y="2592" transform="translate(1296,2592) rotate(0) translate(-1296,-2592)">MATARA</text>
  </g>
  <g>
    <text fill="black" stroke="none" font-size="56.0" font-family="p22" font-weight="100" text-anchor="start" dominant-baseline="central" x="1345.0" y="288" transform="translate(1296,288) rotate(0) translate(-1296,-288)">Omanthai</text>
  </g>
  <g>
    <text fill="black" stroke="none" font-size="56.0" font-family="p22" font-weight="100" text-anchor="start" dominant-baseline="central" x="1057.0" y="1872" transform="translate(1008,1872) rotate(0) translate(-1008,-1872)">Avissawella</text>
  </g>
  <g>
    <text fill="black" stroke="none" font-size="56.0" font-family="p22" font-weight="100" text-anchor="start" dominant-baseline="central" x="481.0" y="432" transform="translate(432,432) rotate(0) translate(-432,-432)">Periyanagavillu</text>
  </g>
  <g>
    <text fill="black" stroke="none" font-size="56.0" font-family="p22" font-weight="100" text-anchor="start" dominant-baseline="central" x="1777.0" y="1008" transform="translate(1728,1008) rotate(0) translate(-1728,-1008)">BATTICALOA</text>
  </g>
  <g>
    <text fill="black" stroke="none" font-size="56.0" font-family="p22" font-weight="100" text-anchor="start" dominant-baseline="central" x="1633.0" y="720" transform="translate(1584,720) rotate(0) translate(-1584,-720)">TRINCOMALEE</text>
  </g>
  <g>
    <text fill="black" stroke="none" font-size="56.0" font-family="p22" font-weight="100" text-anchor="start" dominant-baseline="central" x="625.0" y="1152" transform="translate(576,1152) rotate(0) translate(-576,-1152)">CMB Airport</text>
  </g>
  <g>
    <text fill="black" stroke="none" font-size="56.0" font-family="p22" font-weight="100" text-anchor="start" dominant-baseline="central" x="1489.0" y="720" transform="translate(1440,720) rotate(-45) translate(-1440,-720)">Mihintale</text>
  </g>
  <g>
    <circle r="28" fill="white" stroke="black" stroke-width="7.0" cx="576" cy="1872"/>
    <text fill="black" stroke="none" font-size="48.0" font-family="p22" font-weight="100" text-anchor="end" dominant-baseline="central" x="531.0" y="1872" transform="translate(576,1872) rotate(0) translate(-576,-1872)">COLOMBO Fort</text>
  </g>
  <g>
    <circle r="28" fill="white" stroke="black" stroke-width="7.0" cx="720" cy="1728"/>
    <text fill="black" stroke="none" font-size="48.0" font-family="p22" font-weight="100" text-anchor="start" dominant-baseline="central" x="765.0" y="1728" transform="translate(720,1728) rotate(0) translate(-720,-1728)">Maradana</text>
  </g>
  <g>
    <circle r="28" fill="white" stroke="black" stroke-width="7.0" cx="864" cy="1584"/>
    <text fill="black" stroke="none" font-size="48.0" font-family="p22" font-weight="100" text-anchor="start" dominant-baseline="central" x="909.0" y="1584" transform="translate(864,1584) rotate(0) translate(-864,-1584)">Ragama</text>
  </g>
  <g>
    <circle r="28" fill="white" stroke="black" stroke-width="7.0" cx="1296" cy="1296"/>
    <text fill="black" stroke="none" font-size="48.0" font-family="p22" font-weight="100" text-anchor="end" dominant-baseline="central" x="1251.0" y="1296" transform="translate(1296,1296) rotate(45) translate(-1296,-1296)">Polgahawela</text>
  </g>
  <g>
    <circle r="28" fill="white" stroke="black" stroke-width="7.0" cx="1440" cy="1296"/>
    <text fill="black" stroke="none" font-size="48.0" font-family="p22" font-weight="100" text-anchor="start" dominant-baseline="central" x="1485.0" y="1296" transform="translate(1440,1296) rotate(0) translate(-1440,-1296)">Peradeniya</text>
  </g>
  <g>
    <circle r="28" fill="white" stroke="black" stroke-width="7.0" cx="1296" cy="1008"/>
    <text fill="black" stroke="none" font-size="48.0" font-family="p22" font-weight="100" text-anchor="end" dominant-baseline="central" x="1251.0" y="1008" transform="translate(1296,1008) rotate(45) translate(-1296,-1008)">Maho</text>
  </g>
  <g>
    <circle r="28" fill="white" stroke="black" stroke-width="7.0" cx="1296" cy="720"/>
    <text fill="black" stroke="none" font-size="48.0" font-family="p22" font-weight="100" text-anchor="end" dominant-baseline="central" x="1251.0" y="720" transform="translate(1296,720) rotate(45) translate(-1296,-720)">Mihintale Junction</text>
  </g>
  <g>
    <circle r="28" fill="white" stroke="black" stroke-width="7.0" cx="576" cy="1296"/>
    <text fill="black" stroke="none" font-size="48.0" font-family="p22" font-weight="100" text-anchor="start" dominant-baseline="central" x="621.0" y="1296" transform="translate(576,1296) rotate(0) translate(-576,-1296)">Katunayake South</text>
  </g>
  <g>
    <circle r="28" fill="white" stroke="black" stroke-width="7.0" cx="1440" cy="864"/>
    <text fill="black" stroke="none" font-size="48.0" font-family="p22" font-weight="100" text-anchor="start" dominant-baseline="central" x="1485.0" y="864" transform="translate(1440,864) rotate(0) translate(-1440,-864)">Gal Oya</text>
  </g>
  <g>
    <text fill="gray" stroke="none" font-size="44.0" font-family="p22" font-weight="100" text-anchor="start" dominant-baseline="central" x="1051.0" y="1440" transform="translate(1008,1440) rotate(0) translate(-1008,-1440)">GAMPAHA</text>
  </g>
  <g/>
  <g>
    <text fill="gray" stroke="none" font-size="44.0" font-family="p22" font-weight="100" text-anchor="start" dominant-baseline="central" x="1195.0" y="2592" transform="translate(1152,2592) rotate(-45) translate(-1152,-2592)">GALLE</text>
  </g>
  <g>
    <text fill="gray" stroke="none" font-size="44.0" font-family="p22" font-weight="100" text-anchor="end" dominant-baseline="central" x="1253.0" y="1152" transform="translate(1296,1152) rotate(45) translate(-1296,-1152)">KURUNEGALA</text>
  </g>
  <g/>
  <g>
    <text fill="gray" stroke="none" font-size="44.0" font-family="p22" font-weight="100" text-anchor="end" dominant-baseline="central" x="1253.0" y="432" transform="translate(1296,432) rotate(45) translate(-1296,-432)">VAVUNIYA</text>
  </g>
  <g>
    <text fill="gray" stroke="none" font-size="44.0" font-family="p22" font-weight="100" text-anchor="end" dominant-baseline="central" x="389.0" y="576" transform="translate(432,576) rotate(0) translate(-432,-576)">PUTTALAM</text>
  </g>
  <g/>
  <g>
    <text fill="gray" stroke="none" font-size="40" font-family="p22" font-weight="100" text-anchor="start" dominant-baseline="central" x="1193.0" y="1296" transform="translate(1152,1296) rotate(-22.5) translate(-1152,-1296)">Ambepussa</text>
  </g>
  <g>
    <text fill="gray" stroke="none" font-size="40" font-family="p22" font-weight="100" text-anchor="start" dominant-baseline="central" x="1625.0" y="1440" transform="translate(1584,1440) rotate(0) translate(-1584,-1440)">Gampola</text>
  </g>
  <g>
    <text fill="gray" stroke="none" font-size="40" font-family="p22" font-weight="100" text-anchor="start" dominant-baseline="central" x="1769.0" y="1584" transform="translate(1728,1584) rotate(0) translate(-1728,-1584)">Nawalapitiya</text>
  </g>
  <g>
    <text fill="gray" stroke="none" font-size="40" font-family="p22" font-weight="100" text-anchor="start" dominant-baseline="central" x="1913.0" y="1728" transform="translate(1872,1728) rotate(0) translate(-1872,-1728)">Talawakele</text>
  </g>
  <g>
    <text fill="gray" stroke="none" font-size="40" font-family="p22" font-weight="100" text-anchor="end" dominant-baseline="central" x="1975.0" y="1872" transform="translate(2016,1872) rotate(0) translate(-2016,-1872)">Nanu Oya</text>
  </g>
  <g>
    <text fill="gray" stroke="none" font-size="40" font-family="p22" font-weight="100" text-anchor="start" dominant-baseline="central" x="2201.0" y="1872" transform="translate(2160,1872) rotate(-315) translate(-2160,-1872)">Haputale</text>
  </g>
  <g>
    <text fill="gray" stroke="none" font-size="40" font-family="p22" font-weight="100" text-anchor="start" dominant-baseline="central" x="2345.0" y="1872" transform="translate(2304,1872) rotate(0) translate(-2304,-1872)">Bandarawela</text>
  </g>
  <g>
    <text fill="gray" stroke="none" font-size="40" font-family="p22" font-weight="100" text-anchor="start" dominant-baseline="central" x="617.0" y="2016" transform="translate(576,2016) rotate(0) translate(-576,-2016)">Panadura</text>
  </g>
  <g>
    <text fill="gray" stroke="none" font-size="40" font-family="p22" font-weight="100" text-anchor="start" dominant-baseline="central" x="617.0" y="2160" transform="translate(576,2160) rotate(0) translate(-576,-2160)">KALUTARA North</text>
  </g>
  <g>
    <text fill="gray" stroke="none" font-size="40" font-family="p22" font-weight="100" text-anchor="start" dominant-baseline="central" x="761.0" y="2304" transform="translate(720,2304) rotate(0) translate(-720,-2304)">Aluthgama</text>
  </g>
  <g>
    <text fill="gray" stroke="none" font-size="40" font-family="p22" font-weight="100" text-anchor="end" dominant-baseline="central" x="823.0" y="2448" transform="translate(864,2448) rotate(0) translate(-864,-2448)">Kosgoda</text>
  </g>
  <g>
    <text fill="gray" stroke="none" font-size="40" font-family="p22" font-weight="100" text-anchor="end" dominant-baseline="central" x="967.0" y="2592" transform="translate(1008,2592) rotate(0) translate(-1008,-2592)">Ambalangoda</text>
  </g>
  <g>
    <text fill="gray" stroke="none" font-size="40" font-family="p22" font-weight="100" text-anchor="end" dominant-baseline="central" x="1255.0" y="576" transform="translate(1296,576) rotate(45) translate(-1296,-576)">Medavachchiya</text>
  </g>
  <g>
    <text fill="gray" stroke="none" font-size="40" font-family="p22" font-weight="100" text-anchor="start" dominant-baseline="central" x="905.0" y="1872" transform="translate(864,1872) rotate(-337.5) translate(-864,-1872)">Homagama</text>
  </g>
  <g>
    <text fill="gray" stroke="none" font-size="40" font-family="p22" font-weight="100" text-anchor="end" dominant-baseline="central" x="679.0" y="1440" transform="translate(720,1440) rotate(0) translate(-720,-1440)">Ja-Ela</text>
  </g>
  <g>
    <text fill="gray" stroke="none" font-size="40" font-family="p22" font-weight="100" text-anchor="end" dominant-baseline="central" x="391.0" y="1152" transform="translate(432,1152) rotate(0) translate(-432,-1152)">Negombo</text>
  </g>
  <g>
    <text fill="gray" stroke="none" font-size="40" font-family="p22" font-weight="100" text-anchor="start" dominant-baseline="central" x="473.0" y="1008" transform="translate(432,1008) rotate(0) translate(-432,-1008)">Madampe</text>
  </g>
  <g>
    <text fill="gray" stroke="none" font-size="40" font-family="p22" font-weight="100" text-anchor="end" dominant-baseline="central" x="391.0" y="864" transform="translate(432,864) rotate(0) translate(-432,-864)">Chilaw</text>
  </g>
  <g>
    <text fill="gray" stroke="none" font-size="40" font-family="p22" font-weight="100" text-anchor="end" dominant-baseline="central" x="391.0" y="720" transform="translate(432,720) rotate(0) translate(-432,-720)">Bangadeniya</text>
  </g>
</svg>
