<?xml version="1.0" ?>
<svg xmlns="http://www.w3.org/2000/svg" width="3600" height="3600" padding="480">
  <text fill="#fcfcfc" stroke="none" font-size="600.0" font-family="p22" x="1800.0" y="1800.0" text-anchor="middle" dominant-baseline="center">@nuuuwan</text>
  <text fill="black" stroke="none" font-size="160" font-family="p22" x="1800.0" y="240.0" text-anchor="middle" dominant-baseline="hanging">2011</text>
  <text fill="gray" stroke="none" font-size="40" font-family="p22" x="1800.0" y="290.0" text-anchor="middle" dominant-baseline="hanging"/>
  <text fill="gray" stroke="none" font-size="40" font-family="p22" x="1800.0" y="3400.0" text-anchor="middle" dominant-baseline="text-top">data from multiple sources ~ music by @bensound ~ visualization by @nuuuwan</text>
  <g>
    <path fill="none" stroke-width="29.400000000000002" stroke-opacity="1" d="M 810.0,2295.0 L 975.0,2130.0 L 1140.0,1965.0 L 1305.0,1800.0 L 1464.166369055211,1640.833630944789 C 1466.110912703474,1638.889087296526 1475.5,1635.0 1478.25,1635.0 L 1635.0,1635.0 L 1791.75,1635.0 C 1794.5,1635.0 1803.889087296526,1638.889087296526 1805.833630944789,1640.833630944789 L 1965.0,1800.0 L 2130.0,1965.0 L 2295.0,2130.0 L 2454.166369055211,2289.166369055211 C 2456.110912703474,2291.110912703474 2465.5,2295.0 2468.25,2295.0 L 2625.0,2295.0 L 2781.75,2295.0 C 2784.5,2295.0 2793.889087296526,2291.110912703474 2795.833630944789,2289.166369055211 L 2955.0,2130.0" stroke="red"/>
    <rect stroke="none" fill-opacity="1" x="2941" y="2102" width="28" height="56" fill="red"/>
  </g>
  <g>
    <path fill="none" stroke-width="29.400000000000002" stroke-opacity="1" d="M 1800.0,1635.0 L 1959.166369055211,1475.833630944789 C 1961.110912703474,1473.889087296526 1970.5,1470.0 1973.25,1470.0 L 2130.0,1470.0" stroke="purple"/>
    <rect stroke="none" fill-opacity="1" x="2116" y="1442" width="28" height="56" fill="purple"/>
  </g>
  <g>
    <path fill="none" stroke-width="29.400000000000002" stroke-opacity="1" d="M 810.0,2295.0 L 810.0,2460.0 L 810.0,2616.75 C 810.0,2619.5 813.889087296526,2628.889087296526 815.833630944789,2630.833630944789 L 975.0,2790.0 L 1140.0,2955.0 L 1299.166369055211,3114.166369055211 C 1301.110912703474,3116.110912703474 1310.5,3120.0 1313.25,3120.0 L 1470.0,3120.0 L 1635.0,3120.0 L 1800.0,3120.0" stroke="cyan"/>
    <rect stroke="none" fill-opacity="1" x="1786" y="3092" width="28" height="56" fill="cyan"/>
  </g>
  <g>
    <path fill="none" stroke-width="29.400000000000002" stroke-opacity="1" d="M 1635.0,1635.0 L 1635.0,1470.0 L 1635.0,1305.0 L 1635.0,1140.0 L 1635.0,975.0 L 1635.0,810.0 L 1635.0,645.0 L 1635.0,480.0" stroke="orange"/>
    <rect stroke="none" fill-opacity="1" x="1607" y="466" width="56" height="28" fill="orange"/>
  </g>
  <g>
    <path fill="none" stroke-width="29.400000000000002" stroke-opacity="1" d="M 975.0,2130.0 L 1134.166369055211,2289.166369055211 C 1136.110912703474,2291.110912703474 1145.5,2295.0 1148.25,2295.0 L 1305.0,2295.0" stroke="darkblue"/>
    <rect stroke="none" fill-opacity="1" x="1291" y="2267" width="28" height="56" fill="darkblue"/>
  </g>
  <g>
    <path fill="none" stroke-width="29.400000000000002" stroke-opacity="1" d="M 1140.0,1965.0 L 975.0,1800.0 L 810.0,1635.0 L 650.833630944789,1475.833630944789 C 648.889087296526,1473.889087296526 645.0,1464.5 645.0,1461.75 L 645.0,1305.0 L 645.0,1140.0 L 645.0,975.0 L 645.0,810.0 L 645.0,645.0" stroke="green"/>
    <rect stroke="none" fill-opacity="1" x="617" y="631" width="56" height="28" fill="green"/>
  </g>
  <g>
    <path fill="none" stroke-width="29.400000000000002" stroke-opacity="1" d="M 1635.0,1305.0 L 1791.75,1148.25 C 1794.5,1145.5 1805.5,1145.5 1808.25,1148.25 L 1959.166369055211,1299.166369055211 C 1961.110912703474,1301.110912703474 1970.5,1305.0 1973.25,1305.0 L 2130.0,1305.0" stroke="darkgreen"/>
    <rect stroke="none" fill-opacity="1" x="2116" y="1277" width="28" height="56" fill="darkgreen"/>
  </g>
  <g>
    <path fill="none" stroke-width="29.400000000000002" stroke-opacity="1" d="M 1800.0,1140.0 L 1965.0,975.0" stroke="silver"/>
    <rect stroke="none" fill-opacity="1" x="1951" y="947" width="28" height="56" fill="silver"/>
  </g>
  <g>
    <path fill="none" stroke-width="29.400000000000002" stroke-opacity="1" d="M 810.0,1635.0 L 810.0,1470.0" stroke="pink"/>
    <rect stroke="none" fill-opacity="1" x="782" y="1456" width="56" height="28" fill="pink"/>
  </g>
  <g>
    <path fill="none" stroke-width="29.400000000000002" stroke-opacity="1" d="M 1635.0,975.0 L 1800.0,975.0" stroke="maroon"/>
    <rect stroke="none" fill-opacity="1" x="1786" y="947" width="28" height="56" fill="maroon"/>
  </g>
  <g>
    <text fill="black" stroke="none" font-size="56.0" font-family="p22" font-weight="100" text-anchor="start" dominant-baseline="central" x="3004.0" y="2130" transform="translate(2955,2130) rotate(0) translate(-2955,-2130)">Badulla</text>
  </g>
  <g>
    <text fill="black" stroke="none" font-size="56.0" font-family="p22" font-weight="100" text-anchor="start" dominant-baseline="central" x="2179.0" y="1470" transform="translate(2130,1470) rotate(0) translate(-2130,-1470)">Matale</text>
  </g>
  <g>
    <text fill="black" stroke="none" font-size="56.0" font-family="p22" font-weight="100" text-anchor="start" dominant-baseline="central" x="1849.0" y="3120" transform="translate(1800,3120) rotate(0) translate(-1800,-3120)">Matara</text>
  </g>
  <g>
    <text fill="black" stroke="none" font-size="56.0" font-family="p22" font-weight="100" text-anchor="start" dominant-baseline="central" x="1684.0" y="480" transform="translate(1635,480) rotate(0) translate(-1635,-480)">Omanthai</text>
  </g>
  <g>
    <text fill="black" stroke="none" font-size="56.0" font-family="p22" font-weight="100" text-anchor="start" dominant-baseline="central" x="1354.0" y="2295" transform="translate(1305,2295) rotate(0) translate(-1305,-2295)">Avissawella</text>
  </g>
  <g>
    <text fill="black" stroke="none" font-size="56.0" font-family="p22" font-weight="100" text-anchor="start" dominant-baseline="central" x="694.0" y="645" transform="translate(645,645) rotate(0) translate(-645,-645)">Periyanagavillu</text>
  </g>
  <g>
    <text fill="black" stroke="none" font-size="56.0" font-family="p22" font-weight="100" text-anchor="start" dominant-baseline="central" x="2179.0" y="1305" transform="translate(2130,1305) rotate(0) translate(-2130,-1305)">Batticaloa</text>
  </g>
  <g>
    <text fill="black" stroke="none" font-size="56.0" font-family="p22" font-weight="100" text-anchor="start" dominant-baseline="central" x="2014.0" y="975" transform="translate(1965,975) rotate(0) translate(-1965,-975)">Trincomalee</text>
  </g>
  <g>
    <text fill="black" stroke="none" font-size="56.0" font-family="p22" font-weight="100" text-anchor="start" dominant-baseline="central" x="859.0" y="1470" transform="translate(810,1470) rotate(0) translate(-810,-1470)">CMB Airport</text>
  </g>
  <g>
    <text fill="black" stroke="none" font-size="56.0" font-family="p22" font-weight="100" text-anchor="start" dominant-baseline="central" x="1849.0" y="975" transform="translate(1800,975) rotate(-45) translate(-1800,-975)">Mihintale</text>
  </g>
  <g>
    <circle r="28" fill="white" stroke="black" stroke-width="7.0" cx="810" cy="2295"/>
    <text fill="black" stroke="none" font-size="48.0" font-family="p22" font-weight="100" text-anchor="start" dominant-baseline="central" x="855.0" y="2295" transform="translate(810,2295) rotate(0) translate(-810,-2295)">C. Fort</text>
  </g>
  <g>
    <circle r="28" fill="white" stroke="black" stroke-width="7.0" cx="975" cy="2130"/>
    <text fill="black" stroke="none" font-size="48.0" font-family="p22" font-weight="100" text-anchor="start" dominant-baseline="central" x="1020.0" y="2130" transform="translate(975,2130) rotate(0) translate(-975,-2130)">Maradana</text>
  </g>
  <g>
    <circle r="28" fill="white" stroke="black" stroke-width="7.0" cx="1140" cy="1965"/>
    <text fill="black" stroke="none" font-size="48.0" font-family="p22" font-weight="100" text-anchor="start" dominant-baseline="central" x="1185.0" y="1965" transform="translate(1140,1965) rotate(0) translate(-1140,-1965)">Ragama</text>
  </g>
  <g>
    <circle r="28" fill="white" stroke="black" stroke-width="7.0" cx="1635" cy="1635"/>
    <text fill="black" stroke="none" font-size="48.0" font-family="p22" font-weight="100" text-anchor="start" dominant-baseline="central" x="1680.0" y="1635" transform="translate(1635,1635) rotate(-45) translate(-1635,-1635)">Polgahawela</text>
  </g>
  <g>
    <circle r="28" fill="white" stroke="black" stroke-width="7.0" cx="1800" cy="1635"/>
    <text fill="black" stroke="none" font-size="48.0" font-family="p22" font-weight="100" text-anchor="start" dominant-baseline="central" x="1845.0" y="1635" transform="translate(1800,1635) rotate(0) translate(-1800,-1635)">Peradeniya</text>
  </g>
  <g>
    <circle r="28" fill="white" stroke="black" stroke-width="7.0" cx="1635" cy="1305"/>
    <text fill="black" stroke="none" font-size="48.0" font-family="p22" font-weight="100" text-anchor="start" dominant-baseline="central" x="1680.0" y="1305" transform="translate(1635,1305) rotate(0) translate(-1635,-1305)">Maho</text>
  </g>
  <g>
    <circle r="28" fill="white" stroke="black" stroke-width="7.0" cx="1635" cy="975"/>
    <text fill="black" stroke="none" font-size="48.0" font-family="p22" font-weight="100" text-anchor="end" dominant-baseline="central" x="1590.0" y="975" transform="translate(1635,975) rotate(0) translate(-1635,-975)">Mihintale Junction</text>
  </g>
  <g>
    <circle r="28" fill="white" stroke="black" stroke-width="7.0" cx="810" cy="1635"/>
    <text fill="black" stroke="none" font-size="48.0" font-family="p22" font-weight="100" text-anchor="start" dominant-baseline="central" x="855.0" y="1635" transform="translate(810,1635) rotate(0) translate(-810,-1635)">Katunayake S.</text>
  </g>
  <g>
    <circle r="28" fill="white" stroke="black" stroke-width="7.0" cx="1800" cy="1140"/>
    <text fill="black" stroke="none" font-size="48.0" font-family="p22" font-weight="100" text-anchor="start" dominant-baseline="central" x="1845.0" y="1140" transform="translate(1800,1140) rotate(0) translate(-1800,-1140)">Gal Oya</text>
  </g>
  <g>
    <text fill="gray" stroke="none" font-size="44.0" font-family="p22" font-weight="100" text-anchor="start" dominant-baseline="central" x="1348.0" y="1800" transform="translate(1305,1800) rotate(0) translate(-1305,-1800)">Gampaha</text>
  </g>
  <g>
    <text fill="gray" stroke="none" font-size="44.0" font-family="p22" font-weight="100" text-anchor="start" dominant-baseline="central" x="2008.0" y="1470" transform="translate(1965,1470) rotate(-315) translate(-1965,-1470)">Kandy</text>
  </g>
  <g>
    <text fill="gray" stroke="none" font-size="44.0" font-family="p22" font-weight="100" text-anchor="start" dominant-baseline="central" x="1678.0" y="3120" transform="translate(1635,3120) rotate(-45) translate(-1635,-3120)">Galle</text>
  </g>
  <g>
    <text fill="gray" stroke="none" font-size="44.0" font-family="p22" font-weight="100" text-anchor="end" dominant-baseline="central" x="1592.0" y="1470" transform="translate(1635,1470) rotate(0) translate(-1635,-1470)">Kurunegala</text>
  </g>
  <g>
    <text fill="gray" stroke="none" font-size="44.0" font-family="p22" font-weight="100" text-anchor="end" dominant-baseline="central" x="1592.0" y="1140" transform="translate(1635,1140) rotate(0) translate(-1635,-1140)">Anuradhapura</text>
  </g>
  <g>
    <text fill="gray" stroke="none" font-size="44.0" font-family="p22" font-weight="100" text-anchor="start" dominant-baseline="central" x="1678.0" y="645" transform="translate(1635,645) rotate(0) translate(-1635,-645)">Vavuniya</text>
  </g>
  <g>
    <text fill="gray" stroke="none" font-size="44.0" font-family="p22" font-weight="100" text-anchor="start" dominant-baseline="central" x="688.0" y="810" transform="translate(645,810) rotate(0) translate(-645,-810)">Puttalam</text>
  </g>
  <g>
    <text fill="gray" stroke="none" font-size="44.0" font-family="p22" font-weight="100" text-anchor="start" dominant-baseline="central" x="2008.0" y="1305" transform="translate(1965,1305) rotate(-45) translate(-1965,-1305)">Polonnaruwa</text>
  </g>
  <g>
    <text fill="gray" stroke="none" font-size="40" font-family="p22" font-weight="100" text-anchor="end" dominant-baseline="central" x="1429.0" y="1635" transform="translate(1470,1635) rotate(0) translate(-1470,-1635)">Ambepussa</text>
  </g>
  <g>
    <text fill="gray" stroke="none" font-size="40" font-family="p22" font-weight="100" text-anchor="start" dominant-baseline="central" x="2006.0" y="1800" transform="translate(1965,1800) rotate(0) translate(-1965,-1800)">Gampola</text>
  </g>
  <g>
    <text fill="gray" stroke="none" font-size="40" font-family="p22" font-weight="100" text-anchor="start" dominant-baseline="central" x="2171.0" y="1965" transform="translate(2130,1965) rotate(0) translate(-2130,-1965)">Nawalapitiya</text>
  </g>
  <g>
    <text fill="gray" stroke="none" font-size="40" font-family="p22" font-weight="100" text-anchor="start" dominant-baseline="central" x="2336.0" y="2130" transform="translate(2295,2130) rotate(0) translate(-2295,-2130)">Talawakele</text>
  </g>
  <g>
    <text fill="gray" stroke="none" font-size="40" font-family="p22" font-weight="100" text-anchor="end" dominant-baseline="central" x="2419.0" y="2295" transform="translate(2460,2295) rotate(0) translate(-2460,-2295)">Nanu Oya</text>
  </g>
  <g>
    <text fill="gray" stroke="none" font-size="40" font-family="p22" font-weight="100" text-anchor="start" dominant-baseline="central" x="2666.0" y="2295" transform="translate(2625,2295) rotate(-45) translate(-2625,-2295)">Haputale</text>
  </g>
  <g>
    <text fill="gray" stroke="none" font-size="40" font-family="p22" font-weight="100" text-anchor="start" dominant-baseline="central" x="2831.0" y="2295" transform="translate(2790,2295) rotate(0) translate(-2790,-2295)">Bandarawela</text>
  </g>
  <g>
    <text fill="gray" stroke="none" font-size="40" font-family="p22" font-weight="100" text-anchor="start" dominant-baseline="central" x="851.0" y="2460" transform="translate(810,2460) rotate(0) translate(-810,-2460)">Panadura</text>
  </g>
  <g>
    <text fill="gray" stroke="none" font-size="40" font-family="p22" font-weight="100" text-anchor="start" dominant-baseline="central" x="851.0" y="2625" transform="translate(810,2625) rotate(0) translate(-810,-2625)">Kalutara N.</text>
  </g>
  <g>
    <text fill="gray" stroke="none" font-size="40" font-family="p22" font-weight="100" text-anchor="start" dominant-baseline="central" x="1016.0" y="2790" transform="translate(975,2790) rotate(0) translate(-975,-2790)">Wadduwa</text>
  </g>
  <g>
    <text fill="gray" stroke="none" font-size="40" font-family="p22" font-weight="100" text-anchor="start" dominant-baseline="central" x="1181.0" y="2955" transform="translate(1140,2955) rotate(0) translate(-1140,-2955)">Aluthgama</text>
  </g>
  <g>
    <text fill="gray" stroke="none" font-size="40" font-family="p22" font-weight="100" text-anchor="end" dominant-baseline="central" x="1264.0" y="3120" transform="translate(1305,3120) rotate(0) translate(-1305,-3120)">Kosgoda</text>
  </g>
  <g>
    <text fill="gray" stroke="none" font-size="40" font-family="p22" font-weight="100" text-anchor="start" dominant-baseline="central" x="1511.0" y="3120" transform="translate(1470,3120) rotate(-45) translate(-1470,-3120)">Ambalangoda</text>
  </g>
  <g>
    <text fill="gray" stroke="none" font-size="40" font-family="p22" font-weight="100" text-anchor="start" dominant-baseline="central" x="1676.0" y="810" transform="translate(1635,810) rotate(0) translate(-1635,-810)">Medavachchiya</text>
  </g>
  <g>
    <text fill="gray" stroke="none" font-size="40" font-family="p22" font-weight="100" text-anchor="start" dominant-baseline="central" x="1181.0" y="2295" transform="translate(1140,2295) rotate(-45) translate(-1140,-2295)">Homagama</text>
  </g>
  <g>
    <text fill="gray" stroke="none" font-size="40" font-family="p22" font-weight="100" text-anchor="start" dominant-baseline="central" x="1016.0" y="1800" transform="translate(975,1800) rotate(0) translate(-975,-1800)">Ja-Ela</text>
  </g>
  <g>
    <text fill="gray" stroke="none" font-size="40" font-family="p22" font-weight="100" text-anchor="end" dominant-baseline="central" x="604.0" y="1470" transform="translate(645,1470) rotate(0) translate(-645,-1470)">Negombo</text>
  </g>
  <g>
    <text fill="gray" stroke="none" font-size="40" font-family="p22" font-weight="100" text-anchor="start" dominant-baseline="central" x="686.0" y="1305" transform="translate(645,1305) rotate(0) translate(-645,-1305)">Madampe</text>
  </g>
  <g>
    <text fill="gray" stroke="none" font-size="40" font-family="p22" font-weight="100" text-anchor="start" dominant-baseline="central" x="686.0" y="1140" transform="translate(645,1140) rotate(0) translate(-645,-1140)">Chilaw</text>
  </g>
  <g>
    <text fill="gray" stroke="none" font-size="40" font-family="p22" font-weight="100" text-anchor="start" dominant-baseline="central" x="686.0" y="975" transform="translate(645,975) rotate(0) translate(-645,-975)">Bangadeniya</text>
  </g>
</svg>
