<?xml version="1.0" ?>
<svg xmlns="http://www.w3.org/2000/svg" width="1320" height="1320" padding="148">
  <text fill="gray" stroke="none" font-size="72" font-family="GIL_____" x="660.0" y="92.0" text-anchor="middle" dominant-baseline="hanging">2011</text>
  <text fill="gray" stroke="none" font-size="18" font-family="GIL_____" x="660.0" y="1264.0" text-anchor="middle" dominant-baseline="text-top">History of the Railways in Sri Lanka</text>
  <g>
    <path fill="none" stroke-width="10.5" stroke-opacity="1" d="M 340.0,852.0 L 404.0,788.0 L 468.0,724.0 L 532.0,660.0 L 593.737258300203,598.262741699797 C 594.4915055334687,597.5084944665313 598.1333333333333,596.0 599.2,596.0 L 660.0,596.0 L 720.8,596.0 C 721.8666666666667,596.0 725.5084944665313,597.5084944665313 726.262741699797,598.262741699797 L 788.0,660.0 L 849.737258300203,721.737258300203 C 850.4915055334687,722.4915055334687 854.1333333333333,724.0 855.2,724.0 L 912.96,724.0 C 913.9733333333334,724.0 917.4330697432048,722.5669302567952 918.1496046148071,721.8503953851929 L 980.0,660.0" stroke="red"/>
    <rect stroke="none" fill-opacity="1" x="975" y="650" width="10" height="20" fill="red"/>
  </g>
  <g>
    <path fill="none" stroke-width="10.5" stroke-opacity="1" d="M 724.0,596.0 L 785.737258300203,534.262741699797 C 786.4915055334687,533.5084944665313 790.1333333333333,532.0 791.2,532.0 L 852.0,532.0" stroke="purple"/>
    <rect stroke="none" fill-opacity="1" x="847" y="522" width="10" height="20" fill="purple"/>
  </g>
  <g>
    <path fill="none" stroke-width="10.5" stroke-opacity="1" d="M 340.0,852.0 L 340.0,916.0 L 340.0,976.8 C 340.0,977.8666666666667 341.5084944665313,981.5084944665313 342.26274169979695,982.262741699797 L 404.0,1044.0 L 468.0,1108.0 L 529.737258300203,1169.737258300203 C 530.4915055334687,1170.4915055334686 534.1333333333333,1172.0 535.2,1172.0 L 596.0,1172.0 L 660.0,1172.0" stroke="cyan"/>
    <rect stroke="none" fill-opacity="1" x="655" y="1162" width="10" height="20" fill="cyan"/>
  </g>
  <g>
    <path fill="none" stroke-width="10.5" stroke-opacity="1" d="M 660.0,596.0 L 660.0,532.0 L 660.0,468.0 L 660.0,404.0 L 660.0,340.0 L 660.0,276.0 L 660.0,212.0 L 660.0,148.0" stroke="orange"/>
    <rect stroke="none" fill-opacity="1" x="650" y="143" width="20" height="10" fill="orange"/>
  </g>
  <g>
    <path fill="none" stroke-width="10.5" stroke-opacity="1" d="M 404.0,788.0 L 465.73725830020305,849.737258300203 C 466.4915055334687,850.4915055334687 470.1333333333333,852.0 471.2,852.0 L 532.0,852.0" stroke="darkblue"/>
    <rect stroke="none" fill-opacity="1" x="527" y="842" width="10" height="20" fill="darkblue"/>
  </g>
  <g>
    <path fill="none" stroke-width="10.5" stroke-opacity="1" d="M 468.0,724.0 L 406.26274169979695,662.262741699797 C 405.5084944665313,661.5084944665313 404.0,657.8666666666667 404.0,656.8 L 404.0,596.0 L 404.0,532.0 L 404.0,468.0 L 404.0,404.0" stroke="green"/>
    <rect stroke="none" fill-opacity="1" x="394" y="399" width="20" height="10" fill="green"/>
  </g>
  <g>
    <path fill="none" stroke-width="10.5" stroke-opacity="1" d="M 660.0,468.0 L 720.8,407.2 C 721.8666666666667,406.1333333333333 726.1333333333333,406.1333333333333 727.2,407.2 L 785.737258300203,465.73725830020305 C 786.4915055334687,466.4915055334687 790.1333333333333,468.0 791.2,468.0 L 852.0,468.0" stroke="darkgreen"/>
    <rect stroke="none" fill-opacity="1" x="847" y="458" width="10" height="20" fill="darkgreen"/>
  </g>
  <g>
    <path fill="none" stroke-width="10.5" stroke-opacity="1" d="M 724.0,404.0 L 788.0,340.0" stroke="silver"/>
    <rect stroke="none" fill-opacity="1" x="783" y="330" width="10" height="20" fill="silver"/>
  </g>
  <g>
    <path fill="none" stroke-width="10.5" stroke-opacity="1" d="M 660.0,340.0 L 724.0,340.0" stroke="maroon"/>
    <rect stroke="none" fill-opacity="1" x="719" y="330" width="10" height="20" fill="maroon"/>
  </g>
  <g>
    <text fill="black" stroke="none" font-size="25.2" font-family="GIL_____" font-weight="100" text-anchor="start" dominant-baseline="central" x="1000.1" y="660" transform="translate(980,660) rotate(0) translate(-980,-660)">BADULLA</text>
  </g>
  <g>
    <text fill="black" stroke="none" font-size="25.2" font-family="GIL_____" font-weight="100" text-anchor="start" dominant-baseline="central" x="872.1" y="532" transform="translate(852,532) rotate(0) translate(-852,-532)">MATALE</text>
  </g>
  <g>
    <text fill="black" stroke="none" font-size="25.2" font-family="GIL_____" font-weight="100" text-anchor="start" dominant-baseline="central" x="680.1" y="1172" transform="translate(660,1172) rotate(0) translate(-660,-1172)">MATARA</text>
  </g>
  <g>
    <text fill="black" stroke="none" font-size="25.2" font-family="GIL_____" font-weight="100" text-anchor="start" dominant-baseline="central" x="680.1" y="148" transform="translate(660,148) rotate(0) translate(-660,-148)">Omanthai</text>
  </g>
  <g>
    <text fill="black" stroke="none" font-size="25.2" font-family="GIL_____" font-weight="100" text-anchor="start" dominant-baseline="central" x="552.1" y="852" transform="translate(532,852) rotate(0) translate(-532,-852)">Avissawella</text>
  </g>
  <g>
    <text fill="black" stroke="none" font-size="25.2" font-family="GIL_____" font-weight="100" text-anchor="start" dominant-baseline="central" x="424.1" y="404" transform="translate(404,404) rotate(0) translate(-404,-404)">Periyanagavillu</text>
  </g>
  <g>
    <text fill="black" stroke="none" font-size="25.2" font-family="GIL_____" font-weight="100" text-anchor="start" dominant-baseline="central" x="872.1" y="468" transform="translate(852,468) rotate(0) translate(-852,-468)">BATTICALOA</text>
  </g>
  <g>
    <text fill="black" stroke="none" font-size="25.2" font-family="GIL_____" font-weight="100" text-anchor="start" dominant-baseline="central" x="808.1" y="340" transform="translate(788,340) rotate(0) translate(-788,-340)">TRINCOMALEE</text>
  </g>
  <g>
    <text fill="black" stroke="none" font-size="25.2" font-family="GIL_____" font-weight="100" text-anchor="start" dominant-baseline="central" x="744.1" y="340" transform="translate(724,340) rotate(-45) translate(-724,-340)">Mihintale</text>
  </g>
  <g>
    <circle r="10" fill="white" stroke="black" stroke-width="2.5" cx="340" cy="852"/>
    <text fill="black" stroke="none" font-size="21.599999999999998" font-family="GIL_____" font-weight="100" text-anchor="end" dominant-baseline="central" x="321.7" y="852" transform="translate(340,852) rotate(0) translate(-340,-852)">COLOMBO Fort</text>
  </g>
  <g>
    <circle r="10" fill="white" stroke="black" stroke-width="2.5" cx="404" cy="788"/>
    <text fill="black" stroke="none" font-size="21.599999999999998" font-family="GIL_____" font-weight="100" text-anchor="start" dominant-baseline="central" x="422.3" y="788" transform="translate(404,788) rotate(0) translate(-404,-788)">Maradana</text>
  </g>
  <g>
    <circle r="10" fill="white" stroke="black" stroke-width="2.5" cx="468" cy="724"/>
    <text fill="black" stroke="none" font-size="21.599999999999998" font-family="GIL_____" font-weight="100" text-anchor="start" dominant-baseline="central" x="486.3" y="724" transform="translate(468,724) rotate(0) translate(-468,-724)">Ragama</text>
  </g>
  <g>
    <circle r="10" fill="white" stroke="black" stroke-width="2.5" cx="660" cy="596"/>
    <text fill="black" stroke="none" font-size="21.599999999999998" font-family="GIL_____" font-weight="100" text-anchor="end" dominant-baseline="central" x="641.7" y="596" transform="translate(660,596) rotate(45) translate(-660,-596)">Polgahawela</text>
  </g>
  <g>
    <circle r="10" fill="white" stroke="black" stroke-width="2.5" cx="724" cy="596"/>
    <text fill="black" stroke="none" font-size="21.599999999999998" font-family="GIL_____" font-weight="100" text-anchor="start" dominant-baseline="central" x="742.3" y="596" transform="translate(724,596) rotate(0) translate(-724,-596)">Peradeniya</text>
  </g>
  <g>
    <circle r="10" fill="white" stroke="black" stroke-width="2.5" cx="660" cy="468"/>
    <text fill="black" stroke="none" font-size="21.599999999999998" font-family="GIL_____" font-weight="100" text-anchor="end" dominant-baseline="central" x="641.7" y="468" transform="translate(660,468) rotate(45) translate(-660,-468)">Maho</text>
  </g>
  <g>
    <circle r="10" fill="white" stroke="black" stroke-width="2.5" cx="660" cy="340"/>
    <text fill="black" stroke="none" font-size="21.599999999999998" font-family="GIL_____" font-weight="100" text-anchor="start" dominant-baseline="central" x="678.3" y="340" transform="translate(660,340) rotate(-45) translate(-660,-340)">Mihintale Junction</text>
  </g>
  <g>
    <circle r="10" fill="white" stroke="black" stroke-width="2.5" cx="724" cy="404"/>
    <text fill="black" stroke="none" font-size="21.599999999999998" font-family="GIL_____" font-weight="100" text-anchor="start" dominant-baseline="central" x="742.3" y="404" transform="translate(724,404) rotate(0) translate(-724,-404)">Gal Oya</text>
  </g>
  <g>
    <text fill="gray" stroke="none" font-size="19.8" font-family="GIL_____" font-weight="100" text-anchor="start" dominant-baseline="central" x="549.4" y="660" transform="translate(532,660) rotate(0) translate(-532,-660)">GAMPAHA</text>
  </g>
  <g>
    <text fill="gray" stroke="none" font-size="19.8" font-family="GIL_____" font-weight="100" text-anchor="start" dominant-baseline="central" x="805.4" y="532" transform="translate(788,532) rotate(-337.5) translate(-788,-532)">KANDY</text>
  </g>
  <g>
    <text fill="gray" stroke="none" font-size="19.8" font-family="GIL_____" font-weight="100" text-anchor="start" dominant-baseline="central" x="613.4" y="1172" transform="translate(596,1172) rotate(-45) translate(-596,-1172)">GALLE</text>
  </g>
  <g/>
  <g>
    <text fill="gray" stroke="none" font-size="19.8" font-family="GIL_____" font-weight="100" text-anchor="end" dominant-baseline="central" x="642.6" y="404" transform="translate(660,404) rotate(45) translate(-660,-404)">ANURADHAPURA</text>
  </g>
  <g>
    <text fill="gray" stroke="none" font-size="19.8" font-family="GIL_____" font-weight="100" text-anchor="end" dominant-baseline="central" x="642.6" y="212" transform="translate(660,212) rotate(0) translate(-660,-212)">VAVUNIYA</text>
  </g>
  <g>
    <text fill="gray" stroke="none" font-size="19.8" font-family="GIL_____" font-weight="100" text-anchor="start" dominant-baseline="central" x="805.4" y="468" transform="translate(788,468) rotate(-22.5) translate(-788,-468)">POLONNARUWA</text>
  </g>
  <g>
    <text fill="gray" stroke="none" font-size="18" font-family="GIL_____" font-weight="100" text-anchor="end" dominant-baseline="central" x="579.5" y="596" transform="translate(596,596) rotate(0) translate(-596,-596)">Ambepussa</text>
  </g>
  <g>
    <text fill="gray" stroke="none" font-size="18" font-family="GIL_____" font-weight="100" text-anchor="start" dominant-baseline="central" x="804.5" y="660" transform="translate(788,660) rotate(0) translate(-788,-660)">Nawalapitiya</text>
  </g>
  <g>
    <text fill="gray" stroke="none" font-size="18" font-family="GIL_____" font-weight="100" text-anchor="end" dominant-baseline="central" x="835.5" y="724" transform="translate(852,724) rotate(0) translate(-852,-724)">Nanu Oya</text>
  </g>
  <g>
    <text fill="gray" stroke="none" font-size="18" font-family="GIL_____" font-weight="100" text-anchor="start" dominant-baseline="central" x="932.5" y="724" transform="translate(916,724) rotate(0) translate(-916,-724)">Bandarawela</text>
  </g>
  <g>
    <text fill="gray" stroke="none" font-size="18" font-family="GIL_____" font-weight="100" text-anchor="start" dominant-baseline="central" x="356.5" y="916" transform="translate(340,916) rotate(0) translate(-340,-916)">Panadura</text>
  </g>
  <g>
    <text fill="gray" stroke="none" font-size="18" font-family="GIL_____" font-weight="100" text-anchor="start" dominant-baseline="central" x="356.5" y="980" transform="translate(340,980) rotate(0) translate(-340,-980)">KALUTARA North</text>
  </g>
  <g>
    <text fill="gray" stroke="none" font-size="18" font-family="GIL_____" font-weight="100" text-anchor="start" dominant-baseline="central" x="420.5" y="1044" transform="translate(404,1044) rotate(0) translate(-404,-1044)">Aluthgama</text>
  </g>
  <g>
    <text fill="gray" stroke="none" font-size="18" font-family="GIL_____" font-weight="100" text-anchor="start" dominant-baseline="central" x="484.5" y="1108" transform="translate(468,1108) rotate(0) translate(-468,-1108)">Kosgoda</text>
  </g>
  <g>
    <text fill="gray" stroke="none" font-size="18" font-family="GIL_____" font-weight="100" text-anchor="end" dominant-baseline="central" x="515.5" y="1172" transform="translate(532,1172) rotate(0) translate(-532,-1172)">Ambalangoda</text>
  </g>
  <g/>
  <g>
    <text fill="gray" stroke="none" font-size="18" font-family="GIL_____" font-weight="100" text-anchor="start" dominant-baseline="central" x="484.5" y="852" transform="translate(468,852) rotate(-315) translate(-468,-852)">Homagama</text>
  </g>
  <g>
    <text fill="gray" stroke="none" font-size="18" font-family="GIL_____" font-weight="100" text-anchor="end" dominant-baseline="central" x="387.5" y="660" transform="translate(404,660) rotate(0) translate(-404,-660)">Negombo</text>
  </g>
  <g>
    <text fill="gray" stroke="none" font-size="18" font-family="GIL_____" font-weight="100" text-anchor="end" dominant-baseline="central" x="387.5" y="596" transform="translate(404,596) rotate(0) translate(-404,-596)">Chilaw</text>
  </g>
  <g>
    <text fill="gray" stroke="none" font-size="18" font-family="GIL_____" font-weight="100" text-anchor="start" dominant-baseline="central" x="420.5" y="532" transform="translate(404,532) rotate(0) translate(-404,-532)">Bangadeniya</text>
  </g>
  <g>
    <text fill="gray" stroke="none" font-size="18" font-family="GIL_____" font-weight="100" text-anchor="end" dominant-baseline="central" x="387.5" y="468" transform="translate(404,468) rotate(0) translate(-404,-468)">Puttalam</text>
  </g>
</svg>
