<?xml version="1.0" ?>
<svg xmlns="http://www.w3.org/2000/svg" width="3600" height="3600" padding="360">
  <text fill="#fcfcfc" stroke="none" font-size="600.0" font-family="p22" x="1800.0" y="1800.0" text-anchor="middle" dominant-baseline="center">@nuuuwan</text>
  <text fill="black" stroke="none" font-size="120" font-family="p22" x="1800.0" y="180.0" text-anchor="middle" dominant-baseline="hanging">2011</text>
  <text fill="gray" stroke="none" font-size="40" font-family="p22" x="1800.0" y="230.0" text-anchor="middle" dominant-baseline="hanging">Railways in Sri Lanka</text>
  <text fill="gray" stroke="none" font-size="40" font-family="p22" x="1800.0" y="3460.0" text-anchor="middle" dominant-baseline="text-top">data from multiple sources ~ music by @bensound ~ visualization by @nuuuwan</text>
  <g>
    <path fill="none" stroke-width="29.400000000000002" stroke-opacity="1" d="M 720.0,2340.0 L 900.0,2160.0 L 1080.0,1980.0 L 1260.0,1800.0 L 1433.6360389693211,1626.3639610306789 C 1435.7573593128807,1624.2426406871193 1446.0,1620.0 1449.0,1620.0 L 1620.0,1620.0 L 1791.0,1620.0 C 1794.0,1620.0 1804.2426406871193,1624.2426406871193 1806.3639610306789,1626.3639610306789 L 1980.0,1800.0 L 2160.0,1980.0 L 2340.0,2160.0 L 2513.636038969321,2333.636038969321 C 2515.757359312881,2335.757359312881 2526.0,2340.0 2529.0,2340.0 L 2700.0,2340.0 L 2871.0,2340.0 C 2874.0,2340.0 2884.242640687119,2335.757359312881 2886.363961030679,2333.636038969321 L 3060.0,2160.0" stroke="red"/>
    <rect stroke="none" fill-opacity="1" x="3046" y="2132" width="28" height="56" fill="red"/>
  </g>
  <g>
    <path fill="none" stroke-width="29.400000000000002" stroke-opacity="1" d="M 1800.0,1620.0 L 1973.6360389693211,1446.3639610306789 C 1975.7573593128807,1444.2426406871193 1986.0,1440.0 1989.0,1440.0 L 2160.0,1440.0" stroke="purple"/>
    <rect stroke="none" fill-opacity="1" x="2146" y="1412" width="28" height="56" fill="purple"/>
  </g>
  <g>
    <path fill="none" stroke-width="29.400000000000002" stroke-opacity="1" d="M 720.0,2340.0 L 720.0,2520.0 L 720.0,2691.0 C 720.0,2694.0 724.2426406871193,2704.242640687119 726.363961030679,2706.363961030679 L 900.0,2880.0 L 1080.0,3060.0 L 1253.6360389693211,3233.636038969321 C 1255.7573593128807,3235.757359312881 1266.0,3240.0 1269.0,3240.0 L 1440.0,3240.0 L 1620.0,3240.0" stroke="cyan"/>
    <rect stroke="none" fill-opacity="1" x="1606" y="3212" width="28" height="56" fill="cyan"/>
  </g>
  <g>
    <path fill="none" stroke-width="29.400000000000002" stroke-opacity="1" d="M 1620.0,1620.0 L 1620.0,1440.0 L 1620.0,1260.0 L 1620.0,1080.0 L 1620.0,900.0 L 1620.0,720.0 L 1620.0,540.0 L 1620.0,360.0" stroke="orange"/>
    <rect stroke="none" fill-opacity="1" x="1592" y="346" width="56" height="28" fill="orange"/>
  </g>
  <g>
    <path fill="none" stroke-width="29.400000000000002" stroke-opacity="1" d="M 900.0,2160.0 L 1073.6360389693211,2333.636038969321 C 1075.7573593128807,2335.757359312881 1086.0,2340.0 1089.0,2340.0 L 1260.0,2340.0" stroke="darkblue"/>
    <rect stroke="none" fill-opacity="1" x="1246" y="2312" width="28" height="56" fill="darkblue"/>
  </g>
  <g>
    <path fill="none" stroke-width="29.400000000000002" stroke-opacity="1" d="M 1080.0,1980.0 L 900.0,1800.0 L 720.0,1620.0 L 546.363961030679,1446.3639610306789 C 544.2426406871193,1444.2426406871193 540.0,1434.0 540.0,1431.0 L 540.0,1260.0 L 540.0,1080.0 L 540.0,900.0 L 540.0,720.0 L 540.0,540.0" stroke="green"/>
    <rect stroke="none" fill-opacity="1" x="512" y="526" width="56" height="28" fill="green"/>
  </g>
  <g>
    <path fill="none" stroke-width="29.400000000000002" stroke-opacity="1" d="M 1620.0,1260.0 L 1791.0,1089.0 C 1794.0,1086.0 1806.0,1086.0 1809.0,1089.0 L 1973.6360389693211,1253.6360389693211 C 1975.7573593128807,1255.7573593128807 1986.0,1260.0 1989.0,1260.0 L 2160.0,1260.0" stroke="darkgreen"/>
    <rect stroke="none" fill-opacity="1" x="2146" y="1232" width="28" height="56" fill="darkgreen"/>
  </g>
  <g>
    <path fill="none" stroke-width="29.400000000000002" stroke-opacity="1" d="M 1800.0,1080.0 L 1980.0,900.0" stroke="silver"/>
    <rect stroke="none" fill-opacity="1" x="1966" y="872" width="28" height="56" fill="silver"/>
  </g>
  <g>
    <path fill="none" stroke-width="29.400000000000002" stroke-opacity="1" d="M 720.0,1620.0 L 720.0,1440.0" stroke="pink"/>
    <rect stroke="none" fill-opacity="1" x="692" y="1426" width="56" height="28" fill="pink"/>
  </g>
  <g>
    <path fill="none" stroke-width="29.400000000000002" stroke-opacity="1" d="M 1620.0,900.0 L 1800.0,900.0" stroke="maroon"/>
    <rect stroke="none" fill-opacity="1" x="1786" y="872" width="28" height="56" fill="maroon"/>
  </g>
  <g>
    <text fill="black" stroke="none" font-size="56.0" font-family="p22" font-weight="100" text-anchor="start" dominant-baseline="central" x="3109.0" y="2160" transform="translate(3060,2160) rotate(0) translate(-3060,-2160)">BADULLA</text>
  </g>
  <g>
    <text fill="black" stroke="none" font-size="56.0" font-family="p22" font-weight="100" text-anchor="start" dominant-baseline="central" x="2209.0" y="1440" transform="translate(2160,1440) rotate(0) translate(-2160,-1440)">MATALE</text>
  </g>
  <g>
    <text fill="black" stroke="none" font-size="56.0" font-family="p22" font-weight="100" text-anchor="start" dominant-baseline="central" x="1669.0" y="3240" transform="translate(1620,3240) rotate(0) translate(-1620,-3240)">MATARA</text>
  </g>
  <g>
    <text fill="black" stroke="none" font-size="56.0" font-family="p22" font-weight="100" text-anchor="start" dominant-baseline="central" x="1669.0" y="360" transform="translate(1620,360) rotate(0) translate(-1620,-360)">Omanthai</text>
  </g>
  <g>
    <text fill="black" stroke="none" font-size="56.0" font-family="p22" font-weight="100" text-anchor="start" dominant-baseline="central" x="1309.0" y="2340" transform="translate(1260,2340) rotate(0) translate(-1260,-2340)">Avissawella</text>
  </g>
  <g>
    <text fill="black" stroke="none" font-size="56.0" font-family="p22" font-weight="100" text-anchor="start" dominant-baseline="central" x="589.0" y="540" transform="translate(540,540) rotate(0) translate(-540,-540)">Periyanagavillu</text>
  </g>
  <g>
    <text fill="black" stroke="none" font-size="56.0" font-family="p22" font-weight="100" text-anchor="start" dominant-baseline="central" x="2209.0" y="1260" transform="translate(2160,1260) rotate(0) translate(-2160,-1260)">BATTICALOA</text>
  </g>
  <g>
    <text fill="black" stroke="none" font-size="56.0" font-family="p22" font-weight="100" text-anchor="start" dominant-baseline="central" x="2029.0" y="900" transform="translate(1980,900) rotate(0) translate(-1980,-900)">TRINCOMALEE</text>
  </g>
  <g>
    <text fill="black" stroke="none" font-size="56.0" font-family="p22" font-weight="100" text-anchor="start" dominant-baseline="central" x="769.0" y="1440" transform="translate(720,1440) rotate(0) translate(-720,-1440)">CMB Airport</text>
  </g>
  <g>
    <text fill="black" stroke="none" font-size="56.0" font-family="p22" font-weight="100" text-anchor="start" dominant-baseline="central" x="1849.0" y="900" transform="translate(1800,900) rotate(-45) translate(-1800,-900)">Mihintale</text>
  </g>
  <g>
    <circle r="28" fill="white" stroke="black" stroke-width="7.0" cx="720" cy="2340"/>
    <text fill="black" stroke="none" font-size="48.0" font-family="p22" font-weight="100" text-anchor="start" dominant-baseline="central" x="765.0" y="2340" transform="translate(720,2340) rotate(0) translate(-720,-2340)">COLOMBO Fort</text>
  </g>
  <g>
    <circle r="28" fill="white" stroke="black" stroke-width="7.0" cx="900" cy="2160"/>
    <text fill="black" stroke="none" font-size="48.0" font-family="p22" font-weight="100" text-anchor="start" dominant-baseline="central" x="945.0" y="2160" transform="translate(900,2160) rotate(0) translate(-900,-2160)">Maradana</text>
  </g>
  <g>
    <circle r="28" fill="white" stroke="black" stroke-width="7.0" cx="1080" cy="1980"/>
    <text fill="black" stroke="none" font-size="48.0" font-family="p22" font-weight="100" text-anchor="start" dominant-baseline="central" x="1125.0" y="1980" transform="translate(1080,1980) rotate(0) translate(-1080,-1980)">Ragama</text>
  </g>
  <g>
    <circle r="28" fill="white" stroke="black" stroke-width="7.0" cx="1620" cy="1620"/>
    <text fill="black" stroke="none" font-size="48.0" font-family="p22" font-weight="100" text-anchor="start" dominant-baseline="central" x="1665.0" y="1620" transform="translate(1620,1620) rotate(-45) translate(-1620,-1620)">Polgahawela</text>
  </g>
  <g>
    <circle r="28" fill="white" stroke="black" stroke-width="7.0" cx="1800" cy="1620"/>
    <text fill="black" stroke="none" font-size="48.0" font-family="p22" font-weight="100" text-anchor="start" dominant-baseline="central" x="1845.0" y="1620" transform="translate(1800,1620) rotate(0) translate(-1800,-1620)">Peradeniya</text>
  </g>
  <g>
    <circle r="28" fill="white" stroke="black" stroke-width="7.0" cx="1620" cy="1260"/>
    <text fill="black" stroke="none" font-size="48.0" font-family="p22" font-weight="100" text-anchor="start" dominant-baseline="central" x="1665.0" y="1260" transform="translate(1620,1260) rotate(0) translate(-1620,-1260)">Maho</text>
  </g>
  <g>
    <circle r="28" fill="white" stroke="black" stroke-width="7.0" cx="1620" cy="900"/>
    <text fill="black" stroke="none" font-size="48.0" font-family="p22" font-weight="100" text-anchor="end" dominant-baseline="central" x="1575.0" y="900" transform="translate(1620,900) rotate(0) translate(-1620,-900)">Mihintale Junction</text>
  </g>
  <g>
    <circle r="28" fill="white" stroke="black" stroke-width="7.0" cx="720" cy="1620"/>
    <text fill="black" stroke="none" font-size="48.0" font-family="p22" font-weight="100" text-anchor="start" dominant-baseline="central" x="765.0" y="1620" transform="translate(720,1620) rotate(0) translate(-720,-1620)">Katunayake South</text>
  </g>
  <g>
    <circle r="28" fill="white" stroke="black" stroke-width="7.0" cx="1800" cy="1080"/>
    <text fill="black" stroke="none" font-size="48.0" font-family="p22" font-weight="100" text-anchor="start" dominant-baseline="central" x="1845.0" y="1080" transform="translate(1800,1080) rotate(0) translate(-1800,-1080)">Gal Oya</text>
  </g>
  <g>
    <text fill="gray" stroke="none" font-size="44.0" font-family="p22" font-weight="100" text-anchor="start" dominant-baseline="central" x="1303.0" y="1800" transform="translate(1260,1800) rotate(0) translate(-1260,-1800)">GAMPAHA</text>
  </g>
  <g>
    <text fill="gray" stroke="none" font-size="44.0" font-family="p22" font-weight="100" text-anchor="start" dominant-baseline="central" x="2023.0" y="1440" transform="translate(1980,1440) rotate(-315) translate(-1980,-1440)">KANDY</text>
  </g>
  <g>
    <text fill="gray" stroke="none" font-size="44.0" font-family="p22" font-weight="100" text-anchor="start" dominant-baseline="central" x="1483.0" y="3240" transform="translate(1440,3240) rotate(-45) translate(-1440,-3240)">GALLE</text>
  </g>
  <g>
    <text fill="gray" stroke="none" font-size="44.0" font-family="p22" font-weight="100" text-anchor="end" dominant-baseline="central" x="1577.0" y="1440" transform="translate(1620,1440) rotate(0) translate(-1620,-1440)">KURUNEGALA</text>
  </g>
  <g>
    <text fill="gray" stroke="none" font-size="44.0" font-family="p22" font-weight="100" text-anchor="end" dominant-baseline="central" x="1577.0" y="1080" transform="translate(1620,1080) rotate(0) translate(-1620,-1080)">ANURADHAPURA</text>
  </g>
  <g>
    <text fill="gray" stroke="none" font-size="44.0" font-family="p22" font-weight="100" text-anchor="start" dominant-baseline="central" x="1663.0" y="540" transform="translate(1620,540) rotate(0) translate(-1620,-540)">VAVUNIYA</text>
  </g>
  <g>
    <text fill="gray" stroke="none" font-size="44.0" font-family="p22" font-weight="100" text-anchor="start" dominant-baseline="central" x="583.0" y="720" transform="translate(540,720) rotate(0) translate(-540,-720)">PUTTALAM</text>
  </g>
  <g>
    <text fill="gray" stroke="none" font-size="44.0" font-family="p22" font-weight="100" text-anchor="start" dominant-baseline="central" x="2023.0" y="1260" transform="translate(1980,1260) rotate(-45) translate(-1980,-1260)">POLONNARUWA</text>
  </g>
  <g>
    <text fill="gray" stroke="none" font-size="40" font-family="p22" font-weight="100" text-anchor="end" dominant-baseline="central" x="1399.0" y="1620" transform="translate(1440,1620) rotate(0) translate(-1440,-1620)">Ambepussa</text>
  </g>
  <g>
    <text fill="gray" stroke="none" font-size="40" font-family="p22" font-weight="100" text-anchor="start" dominant-baseline="central" x="2021.0" y="1800" transform="translate(1980,1800) rotate(0) translate(-1980,-1800)">Gampola</text>
  </g>
  <g>
    <text fill="gray" stroke="none" font-size="40" font-family="p22" font-weight="100" text-anchor="start" dominant-baseline="central" x="2201.0" y="1980" transform="translate(2160,1980) rotate(0) translate(-2160,-1980)">Nawalapitiya</text>
  </g>
  <g>
    <text fill="gray" stroke="none" font-size="40" font-family="p22" font-weight="100" text-anchor="start" dominant-baseline="central" x="2381.0" y="2160" transform="translate(2340,2160) rotate(0) translate(-2340,-2160)">Talawakele</text>
  </g>
  <g>
    <text fill="gray" stroke="none" font-size="40" font-family="p22" font-weight="100" text-anchor="end" dominant-baseline="central" x="2479.0" y="2340" transform="translate(2520,2340) rotate(0) translate(-2520,-2340)">Nanu Oya</text>
  </g>
  <g>
    <text fill="gray" stroke="none" font-size="40" font-family="p22" font-weight="100" text-anchor="start" dominant-baseline="central" x="2741.0" y="2340" transform="translate(2700,2340) rotate(-45) translate(-2700,-2340)">Haputale</text>
  </g>
  <g>
    <text fill="gray" stroke="none" font-size="40" font-family="p22" font-weight="100" text-anchor="start" dominant-baseline="central" x="2921.0" y="2340" transform="translate(2880,2340) rotate(0) translate(-2880,-2340)">Bandarawela</text>
  </g>
  <g>
    <text fill="gray" stroke="none" font-size="40" font-family="p22" font-weight="100" text-anchor="start" dominant-baseline="central" x="761.0" y="2520" transform="translate(720,2520) rotate(0) translate(-720,-2520)">Panadura</text>
  </g>
  <g>
    <text fill="gray" stroke="none" font-size="40" font-family="p22" font-weight="100" text-anchor="start" dominant-baseline="central" x="761.0" y="2700" transform="translate(720,2700) rotate(0) translate(-720,-2700)">KALUTARA North</text>
  </g>
  <g>
    <text fill="gray" stroke="none" font-size="40" font-family="p22" font-weight="100" text-anchor="start" dominant-baseline="central" x="941.0" y="2880" transform="translate(900,2880) rotate(0) translate(-900,-2880)">Aluthgama</text>
  </g>
  <g>
    <text fill="gray" stroke="none" font-size="40" font-family="p22" font-weight="100" text-anchor="start" dominant-baseline="central" x="1121.0" y="3060" transform="translate(1080,3060) rotate(0) translate(-1080,-3060)">Kosgoda</text>
  </g>
  <g>
    <text fill="gray" stroke="none" font-size="40" font-family="p22" font-weight="100" text-anchor="end" dominant-baseline="central" x="1219.0" y="3240" transform="translate(1260,3240) rotate(0) translate(-1260,-3240)">Ambalangoda</text>
  </g>
  <g>
    <text fill="gray" stroke="none" font-size="40" font-family="p22" font-weight="100" text-anchor="start" dominant-baseline="central" x="1661.0" y="720" transform="translate(1620,720) rotate(0) translate(-1620,-720)">Medavachchiya</text>
  </g>
  <g>
    <text fill="gray" stroke="none" font-size="40" font-family="p22" font-weight="100" text-anchor="start" dominant-baseline="central" x="1121.0" y="2340" transform="translate(1080,2340) rotate(-45) translate(-1080,-2340)">Homagama</text>
  </g>
  <g>
    <text fill="gray" stroke="none" font-size="40" font-family="p22" font-weight="100" text-anchor="start" dominant-baseline="central" x="941.0" y="1800" transform="translate(900,1800) rotate(0) translate(-900,-1800)">Ja-Ela</text>
  </g>
  <g>
    <text fill="gray" stroke="none" font-size="40" font-family="p22" font-weight="100" text-anchor="end" dominant-baseline="central" x="499.0" y="1440" transform="translate(540,1440) rotate(0) translate(-540,-1440)">Negombo</text>
  </g>
  <g>
    <text fill="gray" stroke="none" font-size="40" font-family="p22" font-weight="100" text-anchor="start" dominant-baseline="central" x="581.0" y="1260" transform="translate(540,1260) rotate(0) translate(-540,-1260)">Madampe</text>
  </g>
  <g>
    <text fill="gray" stroke="none" font-size="40" font-family="p22" font-weight="100" text-anchor="start" dominant-baseline="central" x="581.0" y="1080" transform="translate(540,1080) rotate(0) translate(-540,-1080)">Chilaw</text>
  </g>
  <g>
    <text fill="gray" stroke="none" font-size="40" font-family="p22" font-weight="100" text-anchor="start" dominant-baseline="central" x="581.0" y="900" transform="translate(540,900) rotate(0) translate(-540,-900)">Bangadeniya</text>
  </g>
</svg>
