<?xml version="1.0" ?>
<svg xmlns="http://www.w3.org/2000/svg" width="3600" height="3600" padding="360">
  <text fill="#fcfcfc" stroke="none" font-size="600.0" font-family="p22" x="1800.0" y="1800.0" text-anchor="middle" dominant-baseline="center">@nuuuwan</text>
  <text fill="black" stroke="none" font-size="160" font-family="p22" x="1800.0" y="180.0" text-anchor="middle" dominant-baseline="hanging">2011</text>
  <text fill="gray" stroke="none" font-size="40" font-family="p22" x="1800.0" y="230.0" text-anchor="middle" dominant-baseline="hanging"/>
  <text fill="gray" stroke="none" font-size="40" font-family="p22" x="1800.0" y="3460.0" text-anchor="middle" dominant-baseline="text-top">data from multiple sources ~ music by @bensound ~ visualization by @nuuuwan</text>
  <g>
    <path fill="none" stroke-width="29.400000000000002" stroke-opacity="1" d="M 783.0,2223.0 L 952.0,2054.0 L 1122.0,1884.0 L 1291.0,1715.0 L 1455.0249476989736,1550.9750523010264 C 1457.0166317993157,1548.9833682006843 1466.6333333333334,1545.0 1469.45,1545.0 L 1630.0,1545.0 L 1791.5,1545.0 C 1794.3333333333333,1545.0 1803.995101167451,1549.0187408193292 1805.9926517511763,1551.028111228994 L 1960.8496325875587,1706.8014055614497 C 1963.5664217250392,1709.5342703742997 1974.4496776607145,1720.4496776607145 1977.174516491072,1723.174516491072 L 2138.0,1884.0 L 2308.0,2054.0 L 2470.9895923599142,2216.9895923599142 C 2472.993061573276,2218.993061573276 2482.6666666666665,2223.0 2485.5,2223.0 L 2647.0,2223.0 L 2807.55,2223.0 C 2810.366666666667,2223.0 2819.9833682006843,2219.0166317993157 2821.975052301026,2217.024947698974 L 2985.0,2054.0" stroke="red"/>
    <rect stroke="none" fill-opacity="1" x="2971" y="2026" width="28" height="56" fill="red"/>
  </g>
  <g>
    <path fill="none" stroke-width="29.400000000000002" stroke-opacity="1" d="M 1800.0,1545.0 L 1963.0249476989736,1381.9750523010264 C 1965.0166317993157,1379.9833682006843 1974.6333333333334,1376.0 1977.45,1376.0 L 2138.0,1376.0" stroke="purple"/>
    <rect stroke="none" fill-opacity="1" x="2124" y="1348" width="28" height="56" fill="purple"/>
  </g>
  <g>
    <path fill="none" stroke-width="29.400000000000002" stroke-opacity="1" d="M 783.0,2223.0 L 783.0,2392.0 L 783.0,2562.0 L 783.0,2722.55 C 783.0,2725.366666666667 786.9716005723483,2734.9951011674507 788.9574008585224,2736.9926517511763 L 943.8478700429262,2892.799632587559 C 946.565246695284,2895.533088391706 957.4669116082941,2906.4347533047157 960.2003674124412,2909.152129957074 L 1113.910018370622,3061.9576064978537 C 1116.606678913748,3064.6384043319026 1127.3615956680976,3075.393321086252 1130.0423935021463,3078.089981629378 L 1285.0073482488237,3233.971888771006 C 1287.004898832549,3235.981259180671 1296.6666666666667,3240.0 1299.5,3240.0 L 1461.0,3240.0 L 1630.0,3240.0" stroke="cyan"/>
    <rect stroke="none" fill-opacity="1" x="1616" y="3212" width="28" height="56" fill="cyan"/>
  </g>
  <g>
    <path fill="none" stroke-width="29.400000000000002" stroke-opacity="1" d="M 1630.0,1545.0 L 1630.0,1376.0 L 1630.0,1207.0 L 1630.0,1037.0 L 1630.0,868.0 L 1630.0,698.0 L 1630.0,529.0 L 1630.0,360.0" stroke="orange"/>
    <rect stroke="none" fill-opacity="1" x="1602" y="346" width="56" height="28" fill="orange"/>
  </g>
  <g>
    <path fill="none" stroke-width="29.400000000000002" stroke-opacity="1" d="M 952.0,2054.0 L 1116.0073482488237,2217.0425991414777 C 1118.004898832549,2219.028399427652 1127.6333333333334,2223.0 1130.45,2223.0 L 1291.0,2223.0" stroke="darkblue"/>
    <rect stroke="none" fill-opacity="1" x="1277" y="2195" width="28" height="56" fill="darkblue"/>
  </g>
  <g>
    <path fill="none" stroke-width="29.400000000000002" stroke-opacity="1" d="M 1122.0,1884.0 L 960.5,1723.45 C 957.6666666666666,1720.6333333333334 946.3666666666667,1709.3333333333333 943.55,1706.5 L 791.0275,1553.075 C 788.3516666666667,1550.3833333333334 777.6324766470518,1539.6324766470518 774.9487149705777,1536.9487149705776 L 619.9750523010264,1381.9750523010264 C 617.9833682006843,1379.9833682006843 614.0,1370.3666666666666 614.0,1367.55 L 614.0,1207.0 L 614.0,1037.0 L 614.0,868.0 L 614.0,698.0 L 614.0,529.0" stroke="green"/>
    <rect stroke="none" fill-opacity="1" x="586" y="515" width="56" height="28" fill="green"/>
  </g>
  <g>
    <path fill="none" stroke-width="29.400000000000002" stroke-opacity="1" d="M 1630.0,1207.0 L 1791.524963126924,1045.475036873076 C 1794.3499754179493,1042.6500245820507 1805.6333333333334,1042.6666666666667 1808.45,1045.5 L 1963.0425991414777,1201.0073482488237 C 1965.0283994276517,1203.004898832549 1974.6333333333334,1207.0 1977.45,1207.0 L 2138.0,1207.0" stroke="darkgreen"/>
    <rect stroke="none" fill-opacity="1" x="2124" y="1179" width="28" height="56" fill="darkgreen"/>
  </g>
  <g>
    <path fill="none" stroke-width="29.400000000000002" stroke-opacity="1" d="M 1800.0,1037.0 L 1969.0,868.0" stroke="silver"/>
    <rect stroke="none" fill-opacity="1" x="1955" y="840" width="28" height="56" fill="silver"/>
  </g>
  <g>
    <path fill="none" stroke-width="29.400000000000002" stroke-opacity="1" d="M 783.0,1545.0 L 783.0,1376.0" stroke="pink"/>
    <rect stroke="none" fill-opacity="1" x="755" y="1362" width="56" height="28" fill="pink"/>
  </g>
  <g>
    <path fill="none" stroke-width="29.400000000000002" stroke-opacity="1" d="M 1630.0,868.0 L 1800.0,868.0" stroke="maroon"/>
    <rect stroke="none" fill-opacity="1" x="1786" y="840" width="28" height="56" fill="maroon"/>
  </g>
  <g>
    <text fill="black" stroke="none" font-size="56.0" font-family="p22" font-weight="100" text-anchor="start" dominant-baseline="central" x="3034.0" y="2054" transform="translate(2985,2054) rotate(0) translate(-2985,-2054)">BADULLA</text>
  </g>
  <g>
    <text fill="black" stroke="none" font-size="56.0" font-family="p22" font-weight="100" text-anchor="start" dominant-baseline="central" x="2187.0" y="1376" transform="translate(2138,1376) rotate(0) translate(-2138,-1376)">MATALE</text>
  </g>
  <g>
    <text fill="black" stroke="none" font-size="56.0" font-family="p22" font-weight="100" text-anchor="start" dominant-baseline="central" x="1679.0" y="3240" transform="translate(1630,3240) rotate(0) translate(-1630,-3240)">MATARA</text>
  </g>
  <g>
    <text fill="black" stroke="none" font-size="56.0" font-family="p22" font-weight="100" text-anchor="start" dominant-baseline="central" x="1679.0" y="360" transform="translate(1630,360) rotate(0) translate(-1630,-360)">Omanthai</text>
  </g>
  <g>
    <text fill="black" stroke="none" font-size="56.0" font-family="p22" font-weight="100" text-anchor="start" dominant-baseline="central" x="1340.0" y="2223" transform="translate(1291,2223) rotate(0) translate(-1291,-2223)">Avissawella</text>
  </g>
  <g>
    <text fill="black" stroke="none" font-size="56.0" font-family="p22" font-weight="100" text-anchor="start" dominant-baseline="central" x="663.0" y="529" transform="translate(614,529) rotate(0) translate(-614,-529)">Periyanagavillu</text>
  </g>
  <g>
    <text fill="black" stroke="none" font-size="56.0" font-family="p22" font-weight="100" text-anchor="start" dominant-baseline="central" x="2187.0" y="1207" transform="translate(2138,1207) rotate(0) translate(-2138,-1207)">BATTICALOA</text>
  </g>
  <g>
    <text fill="black" stroke="none" font-size="56.0" font-family="p22" font-weight="100" text-anchor="start" dominant-baseline="central" x="2018.0" y="868" transform="translate(1969,868) rotate(0) translate(-1969,-868)">TRINCOMALEE</text>
  </g>
  <g>
    <text fill="black" stroke="none" font-size="56.0" font-family="p22" font-weight="100" text-anchor="start" dominant-baseline="central" x="832.0" y="1376" transform="translate(783,1376) rotate(0) translate(-783,-1376)">CMB Airport</text>
  </g>
  <g>
    <text fill="black" stroke="none" font-size="56.0" font-family="p22" font-weight="100" text-anchor="start" dominant-baseline="central" x="1849.0" y="868" transform="translate(1800,868) rotate(-45) translate(-1800,-868)">Mihintale</text>
  </g>
  <g>
    <circle r="28" fill="white" stroke="black" stroke-width="7.0" cx="783" cy="2223"/>
    <text fill="black" stroke="none" font-size="48.0" font-family="p22" font-weight="100" text-anchor="start" dominant-baseline="central" x="828.0" y="2223" transform="translate(783,2223) rotate(0) translate(-783,-2223)">COLOMBO Fort</text>
  </g>
  <g>
    <circle r="28" fill="white" stroke="black" stroke-width="7.0" cx="952" cy="2054"/>
    <text fill="black" stroke="none" font-size="48.0" font-family="p22" font-weight="100" text-anchor="start" dominant-baseline="central" x="997.0" y="2054" transform="translate(952,2054) rotate(0) translate(-952,-2054)">Maradana</text>
  </g>
  <g>
    <circle r="28" fill="white" stroke="black" stroke-width="7.0" cx="1122" cy="1884"/>
    <text fill="black" stroke="none" font-size="48.0" font-family="p22" font-weight="100" text-anchor="start" dominant-baseline="central" x="1167.0" y="1884" transform="translate(1122,1884) rotate(0) translate(-1122,-1884)">Ragama</text>
  </g>
  <g>
    <circle r="28" fill="white" stroke="black" stroke-width="7.0" cx="1630" cy="1545"/>
    <text fill="black" stroke="none" font-size="48.0" font-family="p22" font-weight="100" text-anchor="start" dominant-baseline="central" x="1675.0" y="1545" transform="translate(1630,1545) rotate(-45) translate(-1630,-1545)">Polgahawela</text>
  </g>
  <g>
    <circle r="28" fill="white" stroke="black" stroke-width="7.0" cx="1800" cy="1545"/>
    <text fill="black" stroke="none" font-size="48.0" font-family="p22" font-weight="100" text-anchor="start" dominant-baseline="central" x="1845.0" y="1545" transform="translate(1800,1545) rotate(0) translate(-1800,-1545)">Peradeniya</text>
  </g>
  <g>
    <circle r="28" fill="white" stroke="black" stroke-width="7.0" cx="1630" cy="1207"/>
    <text fill="black" stroke="none" font-size="48.0" font-family="p22" font-weight="100" text-anchor="start" dominant-baseline="central" x="1675.0" y="1207" transform="translate(1630,1207) rotate(0) translate(-1630,-1207)">Maho</text>
  </g>
  <g>
    <circle r="28" fill="white" stroke="black" stroke-width="7.0" cx="1630" cy="868"/>
    <text fill="black" stroke="none" font-size="48.0" font-family="p22" font-weight="100" text-anchor="end" dominant-baseline="central" x="1585.0" y="868" transform="translate(1630,868) rotate(0) translate(-1630,-868)">Mihintale Junction</text>
  </g>
  <g>
    <circle r="28" fill="white" stroke="black" stroke-width="7.0" cx="783" cy="1545"/>
    <text fill="black" stroke="none" font-size="48.0" font-family="p22" font-weight="100" text-anchor="start" dominant-baseline="central" x="828.0" y="1545" transform="translate(783,1545) rotate(0) translate(-783,-1545)">Katunayake South</text>
  </g>
  <g>
    <circle r="28" fill="white" stroke="black" stroke-width="7.0" cx="1800" cy="1037"/>
    <text fill="black" stroke="none" font-size="48.0" font-family="p22" font-weight="100" text-anchor="start" dominant-baseline="central" x="1845.0" y="1037" transform="translate(1800,1037) rotate(0) translate(-1800,-1037)">Gal Oya</text>
  </g>
  <g>
    <text fill="gray" stroke="none" font-size="44.0" font-family="p22" font-weight="100" text-anchor="start" dominant-baseline="central" x="1334.0" y="1715" transform="translate(1291,1715) rotate(0) translate(-1291,-1715)">GAMPAHA</text>
  </g>
  <g>
    <text fill="gray" stroke="none" font-size="44.0" font-family="p22" font-weight="100" text-anchor="start" dominant-baseline="central" x="2012.0" y="1376" transform="translate(1969,1376) rotate(-315) translate(-1969,-1376)">KANDY</text>
  </g>
  <g>
    <text fill="gray" stroke="none" font-size="44.0" font-family="p22" font-weight="100" text-anchor="start" dominant-baseline="central" x="1504.0" y="3240" transform="translate(1461,3240) rotate(-45) translate(-1461,-3240)">GALLE</text>
  </g>
  <g>
    <text fill="gray" stroke="none" font-size="44.0" font-family="p22" font-weight="100" text-anchor="end" dominant-baseline="central" x="1587.0" y="1376" transform="translate(1630,1376) rotate(0) translate(-1630,-1376)">KURUNEGALA</text>
  </g>
  <g>
    <text fill="gray" stroke="none" font-size="44.0" font-family="p22" font-weight="100" text-anchor="end" dominant-baseline="central" x="1587.0" y="1037" transform="translate(1630,1037) rotate(0) translate(-1630,-1037)">ANURADHAPURA</text>
  </g>
  <g>
    <text fill="gray" stroke="none" font-size="44.0" font-family="p22" font-weight="100" text-anchor="start" dominant-baseline="central" x="1673.0" y="529" transform="translate(1630,529) rotate(0) translate(-1630,-529)">VAVUNIYA</text>
  </g>
  <g>
    <text fill="gray" stroke="none" font-size="44.0" font-family="p22" font-weight="100" text-anchor="start" dominant-baseline="central" x="657.0" y="698" transform="translate(614,698) rotate(0) translate(-614,-698)">PUTTALAM</text>
  </g>
  <g>
    <text fill="gray" stroke="none" font-size="44.0" font-family="p22" font-weight="100" text-anchor="start" dominant-baseline="central" x="2012.0" y="1207" transform="translate(1969,1207) rotate(-45) translate(-1969,-1207)">POLONNARUWA</text>
  </g>
  <g>
    <text fill="gray" stroke="none" font-size="40" font-family="p22" font-weight="100" text-anchor="end" dominant-baseline="central" x="1420.0" y="1545" transform="translate(1461,1545) rotate(0) translate(-1461,-1545)">Ambepussa</text>
  </g>
  <g>
    <text fill="gray" stroke="none" font-size="40" font-family="p22" font-weight="100" text-anchor="start" dominant-baseline="central" x="2010.0" y="1715" transform="translate(1969,1715) rotate(0) translate(-1969,-1715)">Gampola</text>
  </g>
  <g>
    <text fill="gray" stroke="none" font-size="40" font-family="p22" font-weight="100" text-anchor="start" dominant-baseline="central" x="2179.0" y="1884" transform="translate(2138,1884) rotate(0) translate(-2138,-1884)">Nawalapitiya</text>
  </g>
  <g>
    <text fill="gray" stroke="none" font-size="40" font-family="p22" font-weight="100" text-anchor="start" dominant-baseline="central" x="2349.0" y="2054" transform="translate(2308,2054) rotate(0) translate(-2308,-2054)">Talawakele</text>
  </g>
  <g>
    <text fill="gray" stroke="none" font-size="40" font-family="p22" font-weight="100" text-anchor="end" dominant-baseline="central" x="2436.0" y="2223" transform="translate(2477,2223) rotate(0) translate(-2477,-2223)">Nanu Oya</text>
  </g>
  <g>
    <text fill="gray" stroke="none" font-size="40" font-family="p22" font-weight="100" text-anchor="start" dominant-baseline="central" x="2688.0" y="2223" transform="translate(2647,2223) rotate(-45) translate(-2647,-2223)">Haputale</text>
  </g>
  <g>
    <text fill="gray" stroke="none" font-size="40" font-family="p22" font-weight="100" text-anchor="start" dominant-baseline="central" x="2857.0" y="2223" transform="translate(2816,2223) rotate(0) translate(-2816,-2223)">Bandarawela</text>
  </g>
  <g>
    <text fill="gray" stroke="none" font-size="40" font-family="p22" font-weight="100" text-anchor="start" dominant-baseline="central" x="824.0" y="2392" transform="translate(783,2392) rotate(0) translate(-783,-2392)">Panadura</text>
  </g>
  <g>
    <text fill="gray" stroke="none" font-size="40" font-family="p22" font-weight="100" text-anchor="start" dominant-baseline="central" x="824.0" y="2562" transform="translate(783,2562) rotate(0) translate(-783,-2562)">KALUTARA North</text>
  </g>
  <g>
    <text fill="gray" stroke="none" font-size="40" font-family="p22" font-weight="100" text-anchor="start" dominant-baseline="central" x="824.0" y="2731" transform="translate(783,2731) rotate(0) translate(-783,-2731)">Wadduwa</text>
  </g>
  <g>
    <text fill="gray" stroke="none" font-size="40" font-family="p22" font-weight="100" text-anchor="start" dominant-baseline="central" x="993.0" y="2901" transform="translate(952,2901) rotate(0) translate(-952,-2901)">Aluthgama</text>
  </g>
  <g>
    <text fill="gray" stroke="none" font-size="40" font-family="p22" font-weight="100" text-anchor="start" dominant-baseline="central" x="1163.0" y="3070" transform="translate(1122,3070) rotate(0) translate(-1122,-3070)">Kosgoda</text>
  </g>
  <g>
    <text fill="gray" stroke="none" font-size="40" font-family="p22" font-weight="100" text-anchor="end" dominant-baseline="central" x="1250.0" y="3240" transform="translate(1291,3240) rotate(0) translate(-1291,-3240)">Ambalangoda</text>
  </g>
  <g>
    <text fill="gray" stroke="none" font-size="40" font-family="p22" font-weight="100" text-anchor="start" dominant-baseline="central" x="1671.0" y="698" transform="translate(1630,698) rotate(0) translate(-1630,-698)">Medavachchiya</text>
  </g>
  <g>
    <text fill="gray" stroke="none" font-size="40" font-family="p22" font-weight="100" text-anchor="start" dominant-baseline="central" x="1163.0" y="2223" transform="translate(1122,2223) rotate(-45) translate(-1122,-2223)">Homagama</text>
  </g>
  <g>
    <text fill="gray" stroke="none" font-size="40" font-family="p22" font-weight="100" text-anchor="start" dominant-baseline="central" x="993.0" y="1715" transform="translate(952,1715) rotate(0) translate(-952,-1715)">Ja-Ela</text>
  </g>
  <g>
    <text fill="gray" stroke="none" font-size="40" font-family="p22" font-weight="100" text-anchor="end" dominant-baseline="central" x="573.0" y="1376" transform="translate(614,1376) rotate(0) translate(-614,-1376)">Negombo</text>
  </g>
  <g>
    <text fill="gray" stroke="none" font-size="40" font-family="p22" font-weight="100" text-anchor="start" dominant-baseline="central" x="655.0" y="1207" transform="translate(614,1207) rotate(0) translate(-614,-1207)">Madampe</text>
  </g>
  <g>
    <text fill="gray" stroke="none" font-size="40" font-family="p22" font-weight="100" text-anchor="start" dominant-baseline="central" x="655.0" y="1037" transform="translate(614,1037) rotate(0) translate(-614,-1037)">Chilaw</text>
  </g>
  <g>
    <text fill="gray" stroke="none" font-size="40" font-family="p22" font-weight="100" text-anchor="start" dominant-baseline="central" x="655.0" y="868" transform="translate(614,868) rotate(0) translate(-614,-868)">Bangadeniya</text>
  </g>
</svg>
