<?xml version="1.0" ?>
<svg xmlns="http://www.w3.org/2000/svg" width="3600" height="3600" padding="360">
  <text fill="#fcfcfc" stroke="none" font-size="600.0" font-family="p22" x="1800.0" y="1800.0" text-anchor="middle" dominant-baseline="center">@nuuuwan</text>
  <text fill="black" stroke="none" font-size="120" font-family="p22" x="1800.0" y="180.0" text-anchor="middle" dominant-baseline="hanging">2013</text>
  <text fill="gray" stroke="none" font-size="40" font-family="p22" x="1800.0" y="230.0" text-anchor="middle" dominant-baseline="hanging">Railways in Sri Lanka</text>
  <text fill="gray" stroke="none" font-size="40" font-family="p22" x="1800.0" y="3460.0" text-anchor="middle" dominant-baseline="text-top">data from multiple sources ~ music by @bensound ~ visualization by @nuuuwan</text>
  <g>
    <path fill="none" stroke-width="29.400000000000002" stroke-opacity="1" d="M 840.0,2440.0 L 1000.0,2280.0 L 1160.0,2120.0 L 1320.0,1960.0 L 1474.3431457505076,1805.6568542494924 C 1476.2287638336718,1803.7712361663282 1485.3333333333333,1800.0 1488.0,1800.0 L 1640.0,1800.0 L 1792.0,1800.0 C 1794.6666666666667,1800.0 1803.7712361663282,1803.7712361663282 1805.6568542494924,1805.6568542494924 L 1960.0,1960.0 L 2120.0,2120.0 L 2280.0,2280.0 L 2434.3431457505076,2434.3431457505076 C 2436.2287638336716,2436.2287638336716 2445.3333333333335,2440.0 2448.0,2440.0 L 2600.0,2440.0 L 2752.0,2440.0 C 2754.6666666666665,2440.0 2763.7712361663284,2436.2287638336716 2765.6568542494924,2434.3431457505076 L 2920.0,2280.0" stroke="red"/>
    <rect stroke="none" fill-opacity="1" x="2906" y="2252" width="28" height="56" fill="red"/>
  </g>
  <g>
    <path fill="none" stroke-width="29.400000000000002" stroke-opacity="1" d="M 1800.0,1800.0 L 1954.3431457505076,1645.6568542494924 C 1956.2287638336718,1643.7712361663282 1965.3333333333333,1640.0 1968.0,1640.0 L 2120.0,1640.0" stroke="purple"/>
    <rect stroke="none" fill-opacity="1" x="2106" y="1612" width="28" height="56" fill="purple"/>
  </g>
  <g>
    <path fill="none" stroke-width="29.400000000000002" stroke-opacity="1" d="M 840.0,2440.0 L 840.0,2600.0 L 840.0,2752.0 C 840.0,2754.6666666666665 843.7712361663282,2763.7712361663284 845.6568542494924,2765.6568542494924 L 1000.0,2920.0 L 1160.0,3080.0 L 1314.3431457505076,3234.3431457505076 C 1316.2287638336718,3236.2287638336716 1325.3333333333333,3240.0 1328.0,3240.0 L 1480.0,3240.0 L 1640.0,3240.0" stroke="cyan"/>
    <rect stroke="none" fill-opacity="1" x="1626" y="3212" width="28" height="56" fill="cyan"/>
  </g>
  <g>
    <path fill="none" stroke-width="29.400000000000002" stroke-opacity="1" d="M 1640.0,1800.0 L 1640.0,1640.0 L 1640.0,1479.0 L 1640.0,1320.0 L 1640.0,1160.0 L 1640.0,1000.0 L 1640.0,839.0 L 1640.0,680.0 L 1640.0,528.0 C 1640.0,525.3333333333334 1636.2287638336718,516.2287638336718 1634.3431457505076,514.3431457505076 L 1480.0,360.0" stroke="orange"/>
    <rect stroke="none" fill-opacity="1" x="1466" y="332" width="28" height="56" fill="orange"/>
  </g>
  <g>
    <path fill="none" stroke-width="29.400000000000002" stroke-opacity="1" d="M 1000.0,2280.0 L 1154.3431457505076,2434.3431457505076 C 1156.2287638336718,2436.2287638336716 1165.3333333333333,2440.0 1168.0,2440.0 L 1320.0,2440.0" stroke="darkblue"/>
    <rect stroke="none" fill-opacity="1" x="1306" y="2412" width="28" height="56" fill="darkblue"/>
  </g>
  <g>
    <path fill="none" stroke-width="29.400000000000002" stroke-opacity="1" d="M 1160.0,2120.0 L 1000.0,1960.0 L 840.0,1800.0 L 685.6922095885517,1645.6922095885518 C 683.7948063923678,1643.7948063923677 680.0,1634.6333333333334 680.0,1631.95 L 680.0,1479.0 L 680.0,1320.0 L 680.0,1160.0 L 680.0,1000.0 L 680.0,839.0" stroke="green"/>
    <rect stroke="none" fill-opacity="1" x="652" y="825" width="56" height="28" fill="green"/>
  </g>
  <g>
    <path fill="none" stroke-width="29.400000000000002" stroke-opacity="1" d="M 1640.0,1479.0 L 1792.0,1327.95 C 1794.6666666666667,1325.3 1805.3333333333333,1325.3 1808.0,1327.95 L 1954.3254405468163,1473.3609065433986 C 1956.216960364544,1475.240604362266 1965.3333333333333,1479.0 1968.0,1479.0 L 2120.0,1479.0" stroke="darkgreen"/>
    <rect stroke="none" fill-opacity="1" x="2106" y="1451" width="28" height="56" fill="darkgreen"/>
  </g>
  <g>
    <path fill="none" stroke-width="29.400000000000002" stroke-opacity="1" d="M 1800.0,1320.0 L 1960.0,1160.0" stroke="silver"/>
    <rect stroke="none" fill-opacity="1" x="1946" y="1132" width="28" height="56" fill="silver"/>
  </g>
  <g>
    <path fill="none" stroke-width="29.400000000000002" stroke-opacity="1" d="M 840.0,1800.0 L 840.0,1640.0" stroke="pink"/>
    <rect stroke="none" fill-opacity="1" x="812" y="1626" width="56" height="28" fill="pink"/>
  </g>
  <g>
    <path fill="none" stroke-width="29.400000000000002" stroke-opacity="1" d="M 1640.0,1160.0 L 1800.0,1160.0" stroke="maroon"/>
    <rect stroke="none" fill-opacity="1" x="1786" y="1132" width="28" height="56" fill="maroon"/>
  </g>
  <g>
    <path fill="none" stroke-width="29.400000000000002" stroke-opacity="1" d="M 1640.0,1000.0 L 1480.0,839.0" stroke="blue"/>
    <rect stroke="none" fill-opacity="1" x="1466" y="811" width="28" height="56" fill="blue"/>
  </g>
  <g>
    <text fill="black" stroke="none" font-size="56.0" font-family="p22" font-weight="100" text-anchor="start" dominant-baseline="central" x="2969.0" y="2280" transform="translate(2920,2280) rotate(0) translate(-2920,-2280)">BADULLA</text>
  </g>
  <g>
    <text fill="black" stroke="none" font-size="56.0" font-family="p22" font-weight="100" text-anchor="start" dominant-baseline="central" x="2169.0" y="1640" transform="translate(2120,1640) rotate(0) translate(-2120,-1640)">MATALE</text>
  </g>
  <g>
    <text fill="black" stroke="none" font-size="56.0" font-family="p22" font-weight="100" text-anchor="start" dominant-baseline="central" x="1689.0" y="3240" transform="translate(1640,3240) rotate(0) translate(-1640,-3240)">MATARA</text>
  </g>
  <g>
    <text fill="black" stroke="none" font-size="56.0" font-family="p22" font-weight="100" text-anchor="start" dominant-baseline="central" x="1529.0" y="360" transform="translate(1480,360) rotate(0) translate(-1480,-360)">Pallai</text>
  </g>
  <g>
    <text fill="black" stroke="none" font-size="56.0" font-family="p22" font-weight="100" text-anchor="start" dominant-baseline="central" x="1369.0" y="2440" transform="translate(1320,2440) rotate(0) translate(-1320,-2440)">Avissawella</text>
  </g>
  <g>
    <text fill="black" stroke="none" font-size="56.0" font-family="p22" font-weight="100" text-anchor="start" dominant-baseline="central" x="729.0" y="839" transform="translate(680,839) rotate(0) translate(-680,-839)">Periyanagavillu</text>
  </g>
  <g>
    <text fill="black" stroke="none" font-size="56.0" font-family="p22" font-weight="100" text-anchor="start" dominant-baseline="central" x="2169.0" y="1479" transform="translate(2120,1479) rotate(0) translate(-2120,-1479)">BATTICALOA</text>
  </g>
  <g>
    <text fill="black" stroke="none" font-size="56.0" font-family="p22" font-weight="100" text-anchor="start" dominant-baseline="central" x="2009.0" y="1160" transform="translate(1960,1160) rotate(0) translate(-1960,-1160)">TRINCOMALEE</text>
  </g>
  <g>
    <text fill="black" stroke="none" font-size="56.0" font-family="p22" font-weight="100" text-anchor="start" dominant-baseline="central" x="889.0" y="1640" transform="translate(840,1640) rotate(0) translate(-840,-1640)">CMB Airport</text>
  </g>
  <g>
    <text fill="black" stroke="none" font-size="56.0" font-family="p22" font-weight="100" text-anchor="start" dominant-baseline="central" x="1849.0" y="1160" transform="translate(1800,1160) rotate(-45) translate(-1800,-1160)">Mihintale</text>
  </g>
  <g>
    <text fill="black" stroke="none" font-size="56.0" font-family="p22" font-weight="100" text-anchor="end" dominant-baseline="central" x="1431.0" y="839" transform="translate(1480,839) rotate(0) translate(-1480,-839)">Madhu Road</text>
  </g>
  <g>
    <circle r="28" fill="white" stroke="black" stroke-width="7.0" cx="840" cy="2440"/>
    <text fill="black" stroke="none" font-size="48.0" font-family="p22" font-weight="100" text-anchor="start" dominant-baseline="central" x="885.0" y="2440" transform="translate(840,2440) rotate(0) translate(-840,-2440)">COLOMBO Fort</text>
  </g>
  <g>
    <circle r="28" fill="white" stroke="black" stroke-width="7.0" cx="1000" cy="2280"/>
    <text fill="black" stroke="none" font-size="48.0" font-family="p22" font-weight="100" text-anchor="start" dominant-baseline="central" x="1045.0" y="2280" transform="translate(1000,2280) rotate(0) translate(-1000,-2280)">Maradana</text>
  </g>
  <g>
    <circle r="28" fill="white" stroke="black" stroke-width="7.0" cx="1160" cy="2120"/>
    <text fill="black" stroke="none" font-size="48.0" font-family="p22" font-weight="100" text-anchor="start" dominant-baseline="central" x="1205.0" y="2120" transform="translate(1160,2120) rotate(0) translate(-1160,-2120)">Ragama</text>
  </g>
  <g>
    <circle r="28" fill="white" stroke="black" stroke-width="7.0" cx="1640" cy="1800"/>
    <text fill="black" stroke="none" font-size="48.0" font-family="p22" font-weight="100" text-anchor="start" dominant-baseline="central" x="1685.0" y="1800" transform="translate(1640,1800) rotate(-45) translate(-1640,-1800)">Polgahawela</text>
  </g>
  <g>
    <circle r="28" fill="white" stroke="black" stroke-width="7.0" cx="1800" cy="1800"/>
    <text fill="black" stroke="none" font-size="48.0" font-family="p22" font-weight="100" text-anchor="start" dominant-baseline="central" x="1845.0" y="1800" transform="translate(1800,1800) rotate(0) translate(-1800,-1800)">Peradeniya</text>
  </g>
  <g>
    <circle r="28" fill="white" stroke="black" stroke-width="7.0" cx="1640" cy="1479"/>
    <text fill="black" stroke="none" font-size="48.0" font-family="p22" font-weight="100" text-anchor="start" dominant-baseline="central" x="1685.0" y="1479" transform="translate(1640,1479) rotate(0) translate(-1640,-1479)">Maho</text>
  </g>
  <g>
    <circle r="28" fill="white" stroke="black" stroke-width="7.0" cx="1640" cy="1160"/>
    <text fill="black" stroke="none" font-size="48.0" font-family="p22" font-weight="100" text-anchor="end" dominant-baseline="central" x="1595.0" y="1160" transform="translate(1640,1160) rotate(0) translate(-1640,-1160)">Mihintale Junction</text>
  </g>
  <g>
    <circle r="28" fill="white" stroke="black" stroke-width="7.0" cx="1640" cy="1000"/>
    <text fill="black" stroke="none" font-size="48.0" font-family="p22" font-weight="100" text-anchor="start" dominant-baseline="central" x="1685.0" y="1000" transform="translate(1640,1000) rotate(0) translate(-1640,-1000)">Medavachchiya</text>
  </g>
  <g>
    <circle r="28" fill="white" stroke="black" stroke-width="7.0" cx="840" cy="1800"/>
    <text fill="black" stroke="none" font-size="48.0" font-family="p22" font-weight="100" text-anchor="start" dominant-baseline="central" x="885.0" y="1800" transform="translate(840,1800) rotate(0) translate(-840,-1800)">Katunayake South</text>
  </g>
  <g>
    <circle r="28" fill="white" stroke="black" stroke-width="7.0" cx="1800" cy="1320"/>
    <text fill="black" stroke="none" font-size="48.0" font-family="p22" font-weight="100" text-anchor="start" dominant-baseline="central" x="1845.0" y="1320" transform="translate(1800,1320) rotate(0) translate(-1800,-1320)">Gal Oya</text>
  </g>
  <g>
    <text fill="gray" stroke="none" font-size="44.0" font-family="p22" font-weight="100" text-anchor="start" dominant-baseline="central" x="1363.0" y="1960" transform="translate(1320,1960) rotate(0) translate(-1320,-1960)">GAMPAHA</text>
  </g>
  <g>
    <text fill="gray" stroke="none" font-size="44.0" font-family="p22" font-weight="100" text-anchor="start" dominant-baseline="central" x="2003.0" y="1640" transform="translate(1960,1640) rotate(-315) translate(-1960,-1640)">KANDY</text>
  </g>
  <g>
    <text fill="gray" stroke="none" font-size="44.0" font-family="p22" font-weight="100" text-anchor="start" dominant-baseline="central" x="1523.0" y="3240" transform="translate(1480,3240) rotate(-45) translate(-1480,-3240)">GALLE</text>
  </g>
  <g>
    <text fill="gray" stroke="none" font-size="44.0" font-family="p22" font-weight="100" text-anchor="end" dominant-baseline="central" x="1597.0" y="1640" transform="translate(1640,1640) rotate(0) translate(-1640,-1640)">KURUNEGALA</text>
  </g>
  <g>
    <text fill="gray" stroke="none" font-size="44.0" font-family="p22" font-weight="100" text-anchor="end" dominant-baseline="central" x="1597.0" y="1320" transform="translate(1640,1320) rotate(0) translate(-1640,-1320)">ANURADHAPURA</text>
  </g>
  <g>
    <text fill="gray" stroke="none" font-size="44.0" font-family="p22" font-weight="100" text-anchor="start" dominant-baseline="central" x="1683.0" y="839" transform="translate(1640,839) rotate(0) translate(-1640,-839)">VAVUNIYA</text>
  </g>
  <g>
    <text fill="gray" stroke="none" font-size="44.0" font-family="p22" font-weight="100" text-anchor="start" dominant-baseline="central" x="1683.0" y="520" transform="translate(1640,520) rotate(0) translate(-1640,-520)">KILINOCHCHI</text>
  </g>
  <g>
    <text fill="gray" stroke="none" font-size="44.0" font-family="p22" font-weight="100" text-anchor="start" dominant-baseline="central" x="723.0" y="1000" transform="translate(680,1000) rotate(0) translate(-680,-1000)">PUTTALAM</text>
  </g>
  <g>
    <text fill="gray" stroke="none" font-size="44.0" font-family="p22" font-weight="100" text-anchor="start" dominant-baseline="central" x="2003.0" y="1479" transform="translate(1960,1479) rotate(-45) translate(-1960,-1479)">POLONNARUWA</text>
  </g>
  <g>
    <text fill="gray" stroke="none" font-size="40" font-family="p22" font-weight="100" text-anchor="end" dominant-baseline="central" x="1439.0" y="1800" transform="translate(1480,1800) rotate(0) translate(-1480,-1800)">Ambepussa</text>
  </g>
  <g>
    <text fill="gray" stroke="none" font-size="40" font-family="p22" font-weight="100" text-anchor="start" dominant-baseline="central" x="2001.0" y="1960" transform="translate(1960,1960) rotate(0) translate(-1960,-1960)">Gampola</text>
  </g>
  <g>
    <text fill="gray" stroke="none" font-size="40" font-family="p22" font-weight="100" text-anchor="start" dominant-baseline="central" x="2161.0" y="2120" transform="translate(2120,2120) rotate(0) translate(-2120,-2120)">Nawalapitiya</text>
  </g>
  <g>
    <text fill="gray" stroke="none" font-size="40" font-family="p22" font-weight="100" text-anchor="start" dominant-baseline="central" x="2321.0" y="2280" transform="translate(2280,2280) rotate(0) translate(-2280,-2280)">Talawakele</text>
  </g>
  <g>
    <text fill="gray" stroke="none" font-size="40" font-family="p22" font-weight="100" text-anchor="end" dominant-baseline="central" x="2399.0" y="2440" transform="translate(2440,2440) rotate(0) translate(-2440,-2440)">Nanu Oya</text>
  </g>
  <g>
    <text fill="gray" stroke="none" font-size="40" font-family="p22" font-weight="100" text-anchor="start" dominant-baseline="central" x="2641.0" y="2440" transform="translate(2600,2440) rotate(-45) translate(-2600,-2440)">Haputale</text>
  </g>
  <g>
    <text fill="gray" stroke="none" font-size="40" font-family="p22" font-weight="100" text-anchor="start" dominant-baseline="central" x="2801.0" y="2440" transform="translate(2760,2440) rotate(0) translate(-2760,-2440)">Bandarawela</text>
  </g>
  <g>
    <text fill="gray" stroke="none" font-size="40" font-family="p22" font-weight="100" text-anchor="start" dominant-baseline="central" x="881.0" y="2600" transform="translate(840,2600) rotate(0) translate(-840,-2600)">Panadura</text>
  </g>
  <g>
    <text fill="gray" stroke="none" font-size="40" font-family="p22" font-weight="100" text-anchor="start" dominant-baseline="central" x="881.0" y="2760" transform="translate(840,2760) rotate(0) translate(-840,-2760)">KALUTARA North</text>
  </g>
  <g>
    <text fill="gray" stroke="none" font-size="40" font-family="p22" font-weight="100" text-anchor="start" dominant-baseline="central" x="1041.0" y="2920" transform="translate(1000,2920) rotate(0) translate(-1000,-2920)">Aluthgama</text>
  </g>
  <g>
    <text fill="gray" stroke="none" font-size="40" font-family="p22" font-weight="100" text-anchor="start" dominant-baseline="central" x="1201.0" y="3080" transform="translate(1160,3080) rotate(0) translate(-1160,-3080)">Kosgoda</text>
  </g>
  <g>
    <text fill="gray" stroke="none" font-size="40" font-family="p22" font-weight="100" text-anchor="end" dominant-baseline="central" x="1279.0" y="3240" transform="translate(1320,3240) rotate(0) translate(-1320,-3240)">Ambalangoda</text>
  </g>
  <g>
    <text fill="gray" stroke="none" font-size="40" font-family="p22" font-weight="100" text-anchor="start" dominant-baseline="central" x="1681.0" y="680" transform="translate(1640,680) rotate(0) translate(-1640,-680)">Omanthai</text>
  </g>
  <g>
    <text fill="gray" stroke="none" font-size="40" font-family="p22" font-weight="100" text-anchor="start" dominant-baseline="central" x="1201.0" y="2440" transform="translate(1160,2440) rotate(-45) translate(-1160,-2440)">Homagama</text>
  </g>
  <g>
    <text fill="gray" stroke="none" font-size="40" font-family="p22" font-weight="100" text-anchor="start" dominant-baseline="central" x="1041.0" y="1960" transform="translate(1000,1960) rotate(0) translate(-1000,-1960)">Ja-Ela</text>
  </g>
  <g>
    <text fill="gray" stroke="none" font-size="40" font-family="p22" font-weight="100" text-anchor="end" dominant-baseline="central" x="639.0" y="1640" transform="translate(680,1640) rotate(0) translate(-680,-1640)">Negombo</text>
  </g>
  <g>
    <text fill="gray" stroke="none" font-size="40" font-family="p22" font-weight="100" text-anchor="start" dominant-baseline="central" x="721.0" y="1479" transform="translate(680,1479) rotate(0) translate(-680,-1479)">Madampe</text>
  </g>
  <g>
    <text fill="gray" stroke="none" font-size="40" font-family="p22" font-weight="100" text-anchor="start" dominant-baseline="central" x="721.0" y="1320" transform="translate(680,1320) rotate(0) translate(-680,-1320)">Chilaw</text>
  </g>
  <g>
    <text fill="gray" stroke="none" font-size="40" font-family="p22" font-weight="100" text-anchor="start" dominant-baseline="central" x="721.0" y="1160" transform="translate(680,1160) rotate(0) translate(-680,-1160)">Bangadeniya</text>
  </g>
</svg>
