<?xml version="1.0" ?>
<svg xmlns="http://www.w3.org/2000/svg" width="3600" height="3600" padding="480">
  <text fill="#fcfcfc" stroke="none" font-size="600.0" font-family="p22" x="1800.0" y="1800.0" text-anchor="middle" dominant-baseline="center">@nuuuwan</text>
  <text fill="black" stroke="none" font-size="160" font-family="p22" x="1800.0" y="240.0" text-anchor="middle" dominant-baseline="hanging">2013</text>
  <text fill="gray" stroke="none" font-size="40" font-family="p22" x="1800.0" y="290.0" text-anchor="middle" dominant-baseline="hanging"/>
  <text fill="gray" stroke="none" font-size="40" font-family="p22" x="1800.0" y="3400.0" text-anchor="middle" dominant-baseline="text-top">data from multiple sources ~ music by @bensound ~ visualization by @nuuuwan</text>
  <g>
    <path fill="none" stroke-width="29.400000000000002" stroke-opacity="1" d="M 919.0,2386.0 L 1058.65,2247.3 C 1061.1,2244.866666666667 1070.8833617746611,2235.1166382253386 1073.3250426619918,2232.674957338008 L 1213.0,2093.0 L 1360.0,1946.0 L 1500.8027651582788,1805.1972348417212 C 1502.5351767721859,1803.4648232278141 1510.9,1800.0 1513.35,1800.0 L 1653.0,1800.0 L 1792.65,1800.0 C 1795.1,1800.0 1803.4648232278141,1803.4648232278141 1805.1972348417212,1805.1972348417212 L 1946.0,1946.0 L 2093.0,2093.0 L 2240.0,2240.0 L 2380.802765158279,2380.802765158279 C 2382.535176772186,2382.535176772186 2390.9,2386.0 2393.35,2386.0 L 2533.0,2386.0 L 2672.65,2386.0 C 2675.1,2386.0 2683.464823227814,2382.535176772186 2685.197234841721,2380.802765158279 L 2826.0,2240.0" stroke="red"/>
    <rect stroke="none" fill-opacity="1" x="2812" y="2212" width="28" height="56" fill="red"/>
  </g>
  <g>
    <path fill="none" stroke-width="29.400000000000002" stroke-opacity="1" d="M 1800.0,1800.0 L 1940.8205333272083,1658.2149424719205 C 1942.5470222181389,1656.4766283146137 1950.9,1653.0 1953.35,1653.0 L 2093.0,1653.0" stroke="purple"/>
    <rect stroke="none" fill-opacity="1" x="2079" y="1625" width="28" height="56" fill="purple"/>
  </g>
  <g>
    <path fill="none" stroke-width="29.400000000000002" stroke-opacity="1" d="M 919.0,2386.0 L 919.0,2533.0 L 919.0,2672.65 C 919.0,2675.1 922.4766283146137,2683.452977781861 924.2149424719205,2685.179466672792 L 1058.910747123596,2818.9589733336397 C 1061.2738314157307,2821.3059822224263 1070.7101206132704,2830.7101206132706 1073.0651809199057,2833.0651809199057 L 1213.0,2973.0 L 1354.8381204973382,3114.8381204973384 C 1356.5587469982254,3116.5587469982256 1364.8666666666666,3120.0 1367.3,3120.0 L 1506.0,3120.0 L 1653.0,3120.0 L 1800.0,3120.0" stroke="cyan"/>
    <rect stroke="none" fill-opacity="1" x="1786" y="3092" width="28" height="56" fill="cyan"/>
  </g>
  <g>
    <path fill="none" stroke-width="29.400000000000002" stroke-opacity="1" d="M 1653.0,1800.0 L 1653.0,1653.0 L 1653.0,1506.0 L 1653.0,1360.0 L 1653.0,1213.0 L 1653.0,1066.0 L 1653.0,919.0 L 1653.0,773.0 L 1653.0,633.35 C 1653.0,630.9 1649.5233716853863,622.5470222181389 1647.7850575280795,620.8205333272083 L 1506.0,480.0" stroke="orange"/>
    <rect stroke="none" fill-opacity="1" x="1492" y="452" width="28" height="56" fill="orange"/>
  </g>
  <g>
    <path fill="none" stroke-width="29.400000000000002" stroke-opacity="1" d="M 1066.0,2240.0 L 1207.7850575280795,2380.820533327208 C 1209.5233716853863,2382.547022218139 1217.9,2386.0 1220.35,2386.0 L 1360.0,2386.0" stroke="darkblue"/>
    <rect stroke="none" fill-opacity="1" x="1346" y="2358" width="28" height="56" fill="darkblue"/>
  </g>
  <g>
    <path fill="none" stroke-width="29.400000000000002" stroke-opacity="1" d="M 1213.0,2093.0 L 1073.3250426619918,1953.3250426619918 C 1070.8833617746611,1950.8833617746611 1061.1,1941.1333333333334 1058.65,1938.7 L 925.9825,1806.935 C 923.655,1804.6233333333332 914.3766666666667,1795.345 912.065,1793.0175 L 778.1794666727917,1658.2149424719205 C 776.4529777818611,1656.4766283146137 773.0,1648.1 773.0,1645.65 L 773.0,1506.0 L 773.0,1360.0 L 773.0,1213.0 L 773.0,1066.0 L 773.0,919.0" stroke="green"/>
    <rect stroke="none" fill-opacity="1" x="745" y="905" width="56" height="28" fill="green"/>
  </g>
  <g>
    <path fill="none" stroke-width="29.400000000000002" stroke-opacity="1" d="M 1653.0,1506.0 L 1792.6751279854784,1367.2750429531982 C 1795.116751990319,1364.8500286354656 1804.8666666666666,1364.8666666666666 1807.3,1367.3 L 1940.8027651582788,1500.8027651582788 C 1942.5351767721859,1502.5351767721859 1950.9,1506.0 1953.35,1506.0 L 2093.0,1506.0" stroke="darkgreen"/>
    <rect stroke="none" fill-opacity="1" x="2079" y="1478" width="28" height="56" fill="darkgreen"/>
  </g>
  <g>
    <path fill="none" stroke-width="29.400000000000002" stroke-opacity="1" d="M 1800.0,1360.0 L 1946.0,1213.0" stroke="silver"/>
    <rect stroke="none" fill-opacity="1" x="1932" y="1185" width="28" height="56" fill="silver"/>
  </g>
  <g>
    <path fill="none" stroke-width="29.400000000000002" stroke-opacity="1" d="M 919.0,1800.0 L 919.0,1653.0" stroke="pink"/>
    <rect stroke="none" fill-opacity="1" x="891" y="1639" width="56" height="28" fill="pink"/>
  </g>
  <g>
    <path fill="none" stroke-width="29.400000000000002" stroke-opacity="1" d="M 1653.0,1213.0 L 1800.0,1213.0" stroke="maroon"/>
    <rect stroke="none" fill-opacity="1" x="1786" y="1185" width="28" height="56" fill="maroon"/>
  </g>
  <g>
    <path fill="none" stroke-width="29.400000000000002" stroke-opacity="1" d="M 1653.0,1066.0 L 1506.0,919.0" stroke="blue"/>
    <rect stroke="none" fill-opacity="1" x="1492" y="891" width="28" height="56" fill="blue"/>
  </g>
  <g>
    <text fill="black" stroke="none" font-size="56.0" font-family="p22" font-weight="100" text-anchor="start" dominant-baseline="central" x="2875.0" y="2240" transform="translate(2826,2240) rotate(0) translate(-2826,-2240)">Badulla</text>
  </g>
  <g>
    <text fill="black" stroke="none" font-size="56.0" font-family="p22" font-weight="100" text-anchor="start" dominant-baseline="central" x="2142.0" y="1653" transform="translate(2093,1653) rotate(0) translate(-2093,-1653)">Matale</text>
  </g>
  <g>
    <text fill="black" stroke="none" font-size="56.0" font-family="p22" font-weight="100" text-anchor="start" dominant-baseline="central" x="1849.0" y="3120" transform="translate(1800,3120) rotate(0) translate(-1800,-3120)">Matara</text>
  </g>
  <g>
    <text fill="black" stroke="none" font-size="56.0" font-family="p22" font-weight="100" text-anchor="start" dominant-baseline="central" x="1555.0" y="480" transform="translate(1506,480) rotate(0) translate(-1506,-480)">Pallai</text>
  </g>
  <g>
    <text fill="black" stroke="none" font-size="56.0" font-family="p22" font-weight="100" text-anchor="start" dominant-baseline="central" x="1409.0" y="2386" transform="translate(1360,2386) rotate(0) translate(-1360,-2386)">Avissawella</text>
  </g>
  <g>
    <text fill="black" stroke="none" font-size="56.0" font-family="p22" font-weight="100" text-anchor="start" dominant-baseline="central" x="822.0" y="919" transform="translate(773,919) rotate(0) translate(-773,-919)">Periyanagavillu</text>
  </g>
  <g>
    <text fill="black" stroke="none" font-size="56.0" font-family="p22" font-weight="100" text-anchor="start" dominant-baseline="central" x="2142.0" y="1506" transform="translate(2093,1506) rotate(0) translate(-2093,-1506)">Batticaloa</text>
  </g>
  <g>
    <text fill="black" stroke="none" font-size="56.0" font-family="p22" font-weight="100" text-anchor="start" dominant-baseline="central" x="1995.0" y="1213" transform="translate(1946,1213) rotate(0) translate(-1946,-1213)">Trincomalee</text>
  </g>
  <g>
    <text fill="black" stroke="none" font-size="56.0" font-family="p22" font-weight="100" text-anchor="start" dominant-baseline="central" x="968.0" y="1653" transform="translate(919,1653) rotate(0) translate(-919,-1653)">CMB Airport</text>
  </g>
  <g>
    <text fill="black" stroke="none" font-size="56.0" font-family="p22" font-weight="100" text-anchor="start" dominant-baseline="central" x="1849.0" y="1213" transform="translate(1800,1213) rotate(-45) translate(-1800,-1213)">Mihintale</text>
  </g>
  <g>
    <text fill="black" stroke="none" font-size="56.0" font-family="p22" font-weight="100" text-anchor="end" dominant-baseline="central" x="1457.0" y="919" transform="translate(1506,919) rotate(0) translate(-1506,-919)">Madhu Road</text>
  </g>
  <g>
    <circle r="28" fill="white" stroke="black" stroke-width="7.0" cx="919" cy="2386"/>
    <text fill="black" stroke="none" font-size="48.0" font-family="p22" font-weight="100" text-anchor="start" dominant-baseline="central" x="964.0" y="2386" transform="translate(919,2386) rotate(0) translate(-919,-2386)">C. Fort</text>
  </g>
  <g>
    <circle r="28" fill="white" stroke="black" stroke-width="7.0" cx="1066" cy="2240"/>
    <text fill="black" stroke="none" font-size="48.0" font-family="p22" font-weight="100" text-anchor="start" dominant-baseline="central" x="1111.0" y="2240" transform="translate(1066,2240) rotate(0) translate(-1066,-2240)">Maradana</text>
  </g>
  <g>
    <circle r="28" fill="white" stroke="black" stroke-width="7.0" cx="1213" cy="2093"/>
    <text fill="black" stroke="none" font-size="48.0" font-family="p22" font-weight="100" text-anchor="start" dominant-baseline="central" x="1258.0" y="2093" transform="translate(1213,2093) rotate(0) translate(-1213,-2093)">Ragama</text>
  </g>
  <g>
    <circle r="28" fill="white" stroke="black" stroke-width="7.0" cx="1653" cy="1800"/>
    <text fill="black" stroke="none" font-size="48.0" font-family="p22" font-weight="100" text-anchor="start" dominant-baseline="central" x="1698.0" y="1800" transform="translate(1653,1800) rotate(-45) translate(-1653,-1800)">Polgahawela</text>
  </g>
  <g>
    <circle r="28" fill="white" stroke="black" stroke-width="7.0" cx="1800" cy="1800"/>
    <text fill="black" stroke="none" font-size="48.0" font-family="p22" font-weight="100" text-anchor="start" dominant-baseline="central" x="1845.0" y="1800" transform="translate(1800,1800) rotate(0) translate(-1800,-1800)">Peradeniya</text>
  </g>
  <g>
    <circle r="28" fill="white" stroke="black" stroke-width="7.0" cx="1653" cy="1506"/>
    <text fill="black" stroke="none" font-size="48.0" font-family="p22" font-weight="100" text-anchor="start" dominant-baseline="central" x="1698.0" y="1506" transform="translate(1653,1506) rotate(0) translate(-1653,-1506)">Maho</text>
  </g>
  <g>
    <circle r="28" fill="white" stroke="black" stroke-width="7.0" cx="1653" cy="1213"/>
    <text fill="black" stroke="none" font-size="48.0" font-family="p22" font-weight="100" text-anchor="end" dominant-baseline="central" x="1608.0" y="1213" transform="translate(1653,1213) rotate(0) translate(-1653,-1213)">Mihintale Junction</text>
  </g>
  <g>
    <circle r="28" fill="white" stroke="black" stroke-width="7.0" cx="1653" cy="1066"/>
    <text fill="black" stroke="none" font-size="48.0" font-family="p22" font-weight="100" text-anchor="start" dominant-baseline="central" x="1698.0" y="1066" transform="translate(1653,1066) rotate(0) translate(-1653,-1066)">Medavachchiya</text>
  </g>
  <g>
    <circle r="28" fill="white" stroke="black" stroke-width="7.0" cx="919" cy="1800"/>
    <text fill="black" stroke="none" font-size="48.0" font-family="p22" font-weight="100" text-anchor="start" dominant-baseline="central" x="964.0" y="1800" transform="translate(919,1800) rotate(0) translate(-919,-1800)">Katunayake S.</text>
  </g>
  <g>
    <circle r="28" fill="white" stroke="black" stroke-width="7.0" cx="1800" cy="1360"/>
    <text fill="black" stroke="none" font-size="48.0" font-family="p22" font-weight="100" text-anchor="start" dominant-baseline="central" x="1845.0" y="1360" transform="translate(1800,1360) rotate(0) translate(-1800,-1360)">Gal Oya</text>
  </g>
  <g>
    <text fill="gray" stroke="none" font-size="44.0" font-family="p22" font-weight="100" text-anchor="start" dominant-baseline="central" x="1403.0" y="1946" transform="translate(1360,1946) rotate(0) translate(-1360,-1946)">Gampaha</text>
  </g>
  <g>
    <text fill="gray" stroke="none" font-size="44.0" font-family="p22" font-weight="100" text-anchor="start" dominant-baseline="central" x="1989.0" y="1653" transform="translate(1946,1653) rotate(-315) translate(-1946,-1653)">Kandy</text>
  </g>
  <g>
    <text fill="gray" stroke="none" font-size="44.0" font-family="p22" font-weight="100" text-anchor="start" dominant-baseline="central" x="1696.0" y="3120" transform="translate(1653,3120) rotate(-45) translate(-1653,-3120)">Galle</text>
  </g>
  <g>
    <text fill="gray" stroke="none" font-size="44.0" font-family="p22" font-weight="100" text-anchor="end" dominant-baseline="central" x="1610.0" y="1653" transform="translate(1653,1653) rotate(0) translate(-1653,-1653)">Kurunegala</text>
  </g>
  <g>
    <text fill="gray" stroke="none" font-size="44.0" font-family="p22" font-weight="100" text-anchor="end" dominant-baseline="central" x="1610.0" y="1360" transform="translate(1653,1360) rotate(0) translate(-1653,-1360)">Anuradhapura</text>
  </g>
  <g>
    <text fill="gray" stroke="none" font-size="44.0" font-family="p22" font-weight="100" text-anchor="start" dominant-baseline="central" x="1696.0" y="919" transform="translate(1653,919) rotate(0) translate(-1653,-919)">Vavuniya</text>
  </g>
  <g>
    <text fill="gray" stroke="none" font-size="44.0" font-family="p22" font-weight="100" text-anchor="start" dominant-baseline="central" x="1696.0" y="626" transform="translate(1653,626) rotate(0) translate(-1653,-626)">Kilinochchi</text>
  </g>
  <g>
    <text fill="gray" stroke="none" font-size="44.0" font-family="p22" font-weight="100" text-anchor="start" dominant-baseline="central" x="816.0" y="1066" transform="translate(773,1066) rotate(0) translate(-773,-1066)">Puttalam</text>
  </g>
  <g>
    <text fill="gray" stroke="none" font-size="44.0" font-family="p22" font-weight="100" text-anchor="start" dominant-baseline="central" x="1989.0" y="1506" transform="translate(1946,1506) rotate(-45) translate(-1946,-1506)">Polonnaruwa</text>
  </g>
  <g>
    <text fill="gray" stroke="none" font-size="40" font-family="p22" font-weight="100" text-anchor="end" dominant-baseline="central" x="1465.0" y="1800" transform="translate(1506,1800) rotate(0) translate(-1506,-1800)">Ambepussa</text>
  </g>
  <g>
    <text fill="gray" stroke="none" font-size="40" font-family="p22" font-weight="100" text-anchor="start" dominant-baseline="central" x="1987.0" y="1946" transform="translate(1946,1946) rotate(0) translate(-1946,-1946)">Gampola</text>
  </g>
  <g>
    <text fill="gray" stroke="none" font-size="40" font-family="p22" font-weight="100" text-anchor="start" dominant-baseline="central" x="2134.0" y="2093" transform="translate(2093,2093) rotate(0) translate(-2093,-2093)">Nawalapitiya</text>
  </g>
  <g>
    <text fill="gray" stroke="none" font-size="40" font-family="p22" font-weight="100" text-anchor="start" dominant-baseline="central" x="2281.0" y="2240" transform="translate(2240,2240) rotate(0) translate(-2240,-2240)">Talawakele</text>
  </g>
  <g>
    <text fill="gray" stroke="none" font-size="40" font-family="p22" font-weight="100" text-anchor="end" dominant-baseline="central" x="2345.0" y="2386" transform="translate(2386,2386) rotate(0) translate(-2386,-2386)">Nanu Oya</text>
  </g>
  <g>
    <text fill="gray" stroke="none" font-size="40" font-family="p22" font-weight="100" text-anchor="start" dominant-baseline="central" x="2574.0" y="2386" transform="translate(2533,2386) rotate(-45) translate(-2533,-2386)">Haputale</text>
  </g>
  <g>
    <text fill="gray" stroke="none" font-size="40" font-family="p22" font-weight="100" text-anchor="start" dominant-baseline="central" x="2721.0" y="2386" transform="translate(2680,2386) rotate(0) translate(-2680,-2386)">Bandarawela</text>
  </g>
  <g>
    <text fill="gray" stroke="none" font-size="40" font-family="p22" font-weight="100" text-anchor="start" dominant-baseline="central" x="960.0" y="2533" transform="translate(919,2533) rotate(0) translate(-919,-2533)">Panadura</text>
  </g>
  <g>
    <text fill="gray" stroke="none" font-size="40" font-family="p22" font-weight="100" text-anchor="start" dominant-baseline="central" x="960.0" y="2680" transform="translate(919,2680) rotate(0) translate(-919,-2680)">Kalutara N.</text>
  </g>
  <g>
    <text fill="gray" stroke="none" font-size="40" font-family="p22" font-weight="100" text-anchor="start" dominant-baseline="central" x="1107.0" y="2826" transform="translate(1066,2826) rotate(0) translate(-1066,-2826)">Wadduwa</text>
  </g>
  <g>
    <text fill="gray" stroke="none" font-size="40" font-family="p22" font-weight="100" text-anchor="start" dominant-baseline="central" x="1254.0" y="2973" transform="translate(1213,2973) rotate(0) translate(-1213,-2973)">Aluthgama</text>
  </g>
  <g>
    <text fill="gray" stroke="none" font-size="40" font-family="p22" font-weight="100" text-anchor="end" dominant-baseline="central" x="1319.0" y="3120" transform="translate(1360,3120) rotate(0) translate(-1360,-3120)">Kosgoda</text>
  </g>
  <g>
    <text fill="gray" stroke="none" font-size="40" font-family="p22" font-weight="100" text-anchor="start" dominant-baseline="central" x="1547.0" y="3120" transform="translate(1506,3120) rotate(-45) translate(-1506,-3120)">Ambalangoda</text>
  </g>
  <g>
    <text fill="gray" stroke="none" font-size="40" font-family="p22" font-weight="100" text-anchor="start" dominant-baseline="central" x="1694.0" y="773" transform="translate(1653,773) rotate(0) translate(-1653,-773)">Omanthai</text>
  </g>
  <g>
    <text fill="gray" stroke="none" font-size="40" font-family="p22" font-weight="100" text-anchor="start" dominant-baseline="central" x="1254.0" y="2386" transform="translate(1213,2386) rotate(-45) translate(-1213,-2386)">Homagama</text>
  </g>
  <g>
    <text fill="gray" stroke="none" font-size="40" font-family="p22" font-weight="100" text-anchor="start" dominant-baseline="central" x="1107.0" y="1946" transform="translate(1066,1946) rotate(0) translate(-1066,-1946)">Ja-Ela</text>
  </g>
  <g>
    <text fill="gray" stroke="none" font-size="40" font-family="p22" font-weight="100" text-anchor="end" dominant-baseline="central" x="732.0" y="1653" transform="translate(773,1653) rotate(0) translate(-773,-1653)">Negombo</text>
  </g>
  <g>
    <text fill="gray" stroke="none" font-size="40" font-family="p22" font-weight="100" text-anchor="start" dominant-baseline="central" x="814.0" y="1506" transform="translate(773,1506) rotate(0) translate(-773,-1506)">Madampe</text>
  </g>
  <g>
    <text fill="gray" stroke="none" font-size="40" font-family="p22" font-weight="100" text-anchor="start" dominant-baseline="central" x="814.0" y="1360" transform="translate(773,1360) rotate(0) translate(-773,-1360)">Chilaw</text>
  </g>
  <g>
    <text fill="gray" stroke="none" font-size="40" font-family="p22" font-weight="100" text-anchor="start" dominant-baseline="central" x="814.0" y="1213" transform="translate(773,1213) rotate(0) translate(-773,-1213)">Bangadeniya</text>
  </g>
</svg>
