<?xml version="1.0" ?>
<svg xmlns="http://www.w3.org/2000/svg" width="2880" height="2880" padding="288">
  <text fill="#fcfcfc" stroke="none" font-size="480.0" font-family="p22" x="1440.0" y="1440.0" text-anchor="middle" dominant-baseline="center">@nuuuwan</text>
  <text fill="black" stroke="none" font-size="80" font-family="p22" x="1440.0" y="144.0" text-anchor="middle" dominant-baseline="hanging">2013</text>
  <text fill="gray" stroke="none" font-size="40" font-family="p22" x="1440.0" y="194.0" text-anchor="middle" dominant-baseline="hanging">History of the Railways in Sri Lanka</text>
  <text fill="gray" stroke="none" font-size="38.4" font-family="p22" x="1440.0" y="2776.0" text-anchor="middle" dominant-baseline="text-top">data from multiple sources ~ music by @bensound ~ visualization by @nuuuwan</text>
  <g>
    <path fill="none" stroke-width="29.400000000000002" stroke-opacity="1" d="M 672.0,1952.0 L 800.0,1824.0 L 928.0,1696.0 L 1056.0,1568.0 L 1179.474516600406,1444.525483399594 C 1180.9830110669375,1443.0169889330625 1188.2666666666667,1440.0 1190.4,1440.0 L 1312.0,1440.0 L 1433.6,1440.0 C 1435.7333333333333,1440.0 1443.0169889330625,1443.0169889330625 1444.525483399594,1444.525483399594 L 1568.0,1568.0 L 1696.0,1696.0 L 1824.0,1824.0 L 1947.474516600406,1947.474516600406 C 1948.9830110669375,1948.9830110669375 1956.2666666666667,1952.0 1958.4,1952.0 L 2080.0,1952.0 L 2201.6,1952.0 C 2203.733333333333,1952.0 2211.0169889330627,1948.9830110669375 2212.525483399594,1947.474516600406 L 2336.0,1824.0" stroke="red"/>
    <rect stroke="none" fill-opacity="1" x="2322" y="1796" width="28" height="56" fill="red"/>
  </g>
  <g>
    <path fill="none" stroke-width="29.400000000000002" stroke-opacity="1" d="M 1440.0,1440.0 L 1563.474516600406,1316.525483399594 C 1564.9830110669375,1315.0169889330625 1572.2666666666667,1312.0 1574.4,1312.0 L 1696.0,1312.0" stroke="purple"/>
    <rect stroke="none" fill-opacity="1" x="1682" y="1284" width="28" height="56" fill="purple"/>
  </g>
  <g>
    <path fill="none" stroke-width="29.400000000000002" stroke-opacity="1" d="M 672.0,1952.0 L 672.0,2080.0 L 672.0,2201.6 C 672.0,2203.733333333333 675.0169889330626,2211.0169889330627 676.5254833995939,2212.525483399594 L 800.0,2336.0 L 928.0,2464.0 L 1051.474516600406,2587.474516600406 C 1052.9830110669375,2588.9830110669373 1060.2666666666667,2592.0 1062.4,2592.0 L 1184.0,2592.0 L 1312.0,2592.0" stroke="cyan"/>
    <rect stroke="none" fill-opacity="1" x="1298" y="2564" width="28" height="56" fill="cyan"/>
  </g>
  <g>
    <path fill="none" stroke-width="29.400000000000002" stroke-opacity="1" d="M 1312.0,1440.0 L 1312.0,1312.0 L 1312.0,1184.0 L 1312.0,1056.0 L 1312.0,928.0 L 1312.0,800.0 L 1312.0,671.0 L 1312.0,544.0 L 1312.0,422.4 C 1312.0,420.26666666666665 1308.9830110669375,412.9830110669374 1307.474516600406,411.4745166004061 L 1184.0,288.0" stroke="orange"/>
    <rect stroke="none" fill-opacity="1" x="1170" y="260" width="28" height="56" fill="orange"/>
  </g>
  <g>
    <path fill="none" stroke-width="29.400000000000002" stroke-opacity="1" d="M 800.0,1824.0 L 923.4745166004061,1947.474516600406 C 924.9830110669374,1948.9830110669375 932.2666666666667,1952.0 934.4,1952.0 L 1056.0,1952.0" stroke="darkblue"/>
    <rect stroke="none" fill-opacity="1" x="1042" y="1924" width="28" height="56" fill="darkblue"/>
  </g>
  <g>
    <path fill="none" stroke-width="29.400000000000002" stroke-opacity="1" d="M 928.0,1696.0 L 800.0,1568.0 L 672.0,1440.0 L 548.5254833995939,1316.525483399594 C 547.0169889330626,1315.0169889330625 544.0,1307.7333333333333 544.0,1305.6 L 544.0,1184.0 L 544.0,1056.0 L 544.0,928.0 L 544.0,800.0 L 544.0,671.0" stroke="green"/>
    <rect stroke="none" fill-opacity="1" x="516" y="657" width="56" height="28" fill="green"/>
  </g>
  <g>
    <path fill="none" stroke-width="29.400000000000002" stroke-opacity="1" d="M 1312.0,1184.0 L 1433.6,1062.4 C 1435.7333333333333,1060.2666666666667 1444.2666666666667,1060.2666666666667 1446.4,1062.4 L 1563.474516600406,1179.474516600406 C 1564.9830110669375,1180.9830110669375 1572.2666666666667,1184.0 1574.4,1184.0 L 1696.0,1184.0" stroke="darkgreen"/>
    <rect stroke="none" fill-opacity="1" x="1682" y="1156" width="28" height="56" fill="darkgreen"/>
  </g>
  <g>
    <path fill="none" stroke-width="29.400000000000002" stroke-opacity="1" d="M 1440.0,1056.0 L 1568.0,928.0" stroke="silver"/>
    <rect stroke="none" fill-opacity="1" x="1554" y="900" width="28" height="56" fill="silver"/>
  </g>
  <g>
    <path fill="none" stroke-width="29.400000000000002" stroke-opacity="1" d="M 672.0,1440.0 L 672.0,1312.0" stroke="pink"/>
    <rect stroke="none" fill-opacity="1" x="644" y="1298" width="56" height="28" fill="pink"/>
  </g>
  <g>
    <path fill="none" stroke-width="29.400000000000002" stroke-opacity="1" d="M 1312.0,928.0 L 1440.0,928.0" stroke="maroon"/>
    <rect stroke="none" fill-opacity="1" x="1426" y="900" width="28" height="56" fill="maroon"/>
  </g>
  <g>
    <path fill="none" stroke-width="29.400000000000002" stroke-opacity="1" d="M 1312.0,800.0 L 1184.0,671.0" stroke="blue"/>
    <rect stroke="none" fill-opacity="1" x="1170" y="643" width="28" height="56" fill="blue"/>
  </g>
  <g>
    <text fill="black" stroke="none" font-size="56.0" font-family="p22" font-weight="100" text-anchor="start" dominant-baseline="central" x="2385.0" y="1824" transform="translate(2336,1824) rotate(0) translate(-2336,-1824)">BADULLA</text>
  </g>
  <g>
    <text fill="black" stroke="none" font-size="56.0" font-family="p22" font-weight="100" text-anchor="start" dominant-baseline="central" x="1745.0" y="1312" transform="translate(1696,1312) rotate(0) translate(-1696,-1312)">MATALE</text>
  </g>
  <g>
    <text fill="black" stroke="none" font-size="56.0" font-family="p22" font-weight="100" text-anchor="start" dominant-baseline="central" x="1361.0" y="2592" transform="translate(1312,2592) rotate(0) translate(-1312,-2592)">MATARA</text>
  </g>
  <g>
    <text fill="black" stroke="none" font-size="56.0" font-family="p22" font-weight="100" text-anchor="start" dominant-baseline="central" x="1233.0" y="288" transform="translate(1184,288) rotate(0) translate(-1184,-288)">Pallai</text>
  </g>
  <g>
    <text fill="black" stroke="none" font-size="56.0" font-family="p22" font-weight="100" text-anchor="start" dominant-baseline="central" x="1105.0" y="1952" transform="translate(1056,1952) rotate(0) translate(-1056,-1952)">Avissawella</text>
  </g>
  <g>
    <text fill="black" stroke="none" font-size="56.0" font-family="p22" font-weight="100" text-anchor="start" dominant-baseline="central" x="593.0" y="671" transform="translate(544,671) rotate(0) translate(-544,-671)">Periyanagavillu</text>
  </g>
  <g>
    <text fill="black" stroke="none" font-size="56.0" font-family="p22" font-weight="100" text-anchor="start" dominant-baseline="central" x="1745.0" y="1184" transform="translate(1696,1184) rotate(0) translate(-1696,-1184)">BATTICALOA</text>
  </g>
  <g>
    <text fill="black" stroke="none" font-size="56.0" font-family="p22" font-weight="100" text-anchor="start" dominant-baseline="central" x="1617.0" y="928" transform="translate(1568,928) rotate(0) translate(-1568,-928)">TRINCOMALEE</text>
  </g>
  <g>
    <text fill="black" stroke="none" font-size="56.0" font-family="p22" font-weight="100" text-anchor="start" dominant-baseline="central" x="721.0" y="1312" transform="translate(672,1312) rotate(0) translate(-672,-1312)">CMB Airport</text>
  </g>
  <g>
    <text fill="black" stroke="none" font-size="56.0" font-family="p22" font-weight="100" text-anchor="start" dominant-baseline="central" x="1489.0" y="928" transform="translate(1440,928) rotate(-45) translate(-1440,-928)">Mihintale</text>
  </g>
  <g>
    <text fill="black" stroke="none" font-size="56.0" font-family="p22" font-weight="100" text-anchor="end" dominant-baseline="central" x="1135.0" y="671" transform="translate(1184,671) rotate(45) translate(-1184,-671)">Madhu Road</text>
  </g>
  <g>
    <circle r="28" fill="white" stroke="black" stroke-width="7.0" cx="672" cy="1952"/>
    <text fill="black" stroke="none" font-size="48.0" font-family="p22" font-weight="100" text-anchor="end" dominant-baseline="central" x="627.0" y="1952" transform="translate(672,1952) rotate(0) translate(-672,-1952)">COLOMBO Fort</text>
  </g>
  <g>
    <circle r="28" fill="white" stroke="black" stroke-width="7.0" cx="800" cy="1824"/>
    <text fill="black" stroke="none" font-size="48.0" font-family="p22" font-weight="100" text-anchor="start" dominant-baseline="central" x="845.0" y="1824" transform="translate(800,1824) rotate(0) translate(-800,-1824)">Maradana</text>
  </g>
  <g>
    <circle r="28" fill="white" stroke="black" stroke-width="7.0" cx="928" cy="1696"/>
    <text fill="black" stroke="none" font-size="48.0" font-family="p22" font-weight="100" text-anchor="start" dominant-baseline="central" x="973.0" y="1696" transform="translate(928,1696) rotate(0) translate(-928,-1696)">Ragama</text>
  </g>
  <g>
    <circle r="28" fill="white" stroke="black" stroke-width="7.0" cx="1312" cy="1440"/>
    <text fill="black" stroke="none" font-size="48.0" font-family="p22" font-weight="100" text-anchor="end" dominant-baseline="central" x="1267.0" y="1440" transform="translate(1312,1440) rotate(45) translate(-1312,-1440)">Polgahawela</text>
  </g>
  <g>
    <circle r="28" fill="white" stroke="black" stroke-width="7.0" cx="1440" cy="1440"/>
    <text fill="black" stroke="none" font-size="48.0" font-family="p22" font-weight="100" text-anchor="start" dominant-baseline="central" x="1485.0" y="1440" transform="translate(1440,1440) rotate(0) translate(-1440,-1440)">Peradeniya</text>
  </g>
  <g>
    <circle r="28" fill="white" stroke="black" stroke-width="7.0" cx="1312" cy="1184"/>
    <text fill="black" stroke="none" font-size="48.0" font-family="p22" font-weight="100" text-anchor="end" dominant-baseline="central" x="1267.0" y="1184" transform="translate(1312,1184) rotate(45) translate(-1312,-1184)">Maho</text>
  </g>
  <g>
    <circle r="28" fill="white" stroke="black" stroke-width="7.0" cx="1312" cy="928"/>
    <text fill="black" stroke="none" font-size="48.0" font-family="p22" font-weight="100" text-anchor="start" dominant-baseline="central" x="1357.0" y="928" transform="translate(1312,928) rotate(-45) translate(-1312,-928)">Mihintale Junction</text>
  </g>
  <g>
    <circle r="28" fill="white" stroke="black" stroke-width="7.0" cx="1312" cy="800"/>
    <text fill="black" stroke="none" font-size="48.0" font-family="p22" font-weight="100" text-anchor="start" dominant-baseline="central" x="1357.0" y="800" transform="translate(1312,800) rotate(-45) translate(-1312,-800)">Medavachchiya</text>
  </g>
  <g>
    <circle r="28" fill="white" stroke="black" stroke-width="7.0" cx="672" cy="1440"/>
    <text fill="black" stroke="none" font-size="48.0" font-family="p22" font-weight="100" text-anchor="start" dominant-baseline="central" x="717.0" y="1440" transform="translate(672,1440) rotate(0) translate(-672,-1440)">Katunayake South</text>
  </g>
  <g>
    <circle r="28" fill="white" stroke="black" stroke-width="7.0" cx="1440" cy="1056"/>
    <text fill="black" stroke="none" font-size="48.0" font-family="p22" font-weight="100" text-anchor="start" dominant-baseline="central" x="1485.0" y="1056" transform="translate(1440,1056) rotate(0) translate(-1440,-1056)">Gal Oya</text>
  </g>
  <g>
    <text fill="gray" stroke="none" font-size="44.0" font-family="p22" font-weight="100" text-anchor="start" dominant-baseline="central" x="1099.0" y="1568" transform="translate(1056,1568) rotate(0) translate(-1056,-1568)">GAMPAHA</text>
  </g>
  <g/>
  <g>
    <text fill="gray" stroke="none" font-size="44.0" font-family="p22" font-weight="100" text-anchor="start" dominant-baseline="central" x="1227.0" y="2592" transform="translate(1184,2592) rotate(-45) translate(-1184,-2592)">GALLE</text>
  </g>
  <g>
    <text fill="gray" stroke="none" font-size="44.0" font-family="p22" font-weight="100" text-anchor="end" dominant-baseline="central" x="1269.0" y="1312" transform="translate(1312,1312) rotate(45) translate(-1312,-1312)">KURUNEGALA</text>
  </g>
  <g/>
  <g>
    <text fill="gray" stroke="none" font-size="44.0" font-family="p22" font-weight="100" text-anchor="start" dominant-baseline="central" x="1355.0" y="671" transform="translate(1312,671) rotate(-45) translate(-1312,-671)">VAVUNIYA</text>
  </g>
  <g/>
  <g>
    <text fill="gray" stroke="none" font-size="44.0" font-family="p22" font-weight="100" text-anchor="end" dominant-baseline="central" x="501.0" y="800" transform="translate(544,800) rotate(0) translate(-544,-800)">PUTTALAM</text>
  </g>
  <g/>
  <g>
    <text fill="gray" stroke="none" font-size="40" font-family="p22" font-weight="100" text-anchor="start" dominant-baseline="central" x="1225.0" y="1440" transform="translate(1184,1440) rotate(-22.5) translate(-1184,-1440)">Ambepussa</text>
  </g>
  <g>
    <text fill="gray" stroke="none" font-size="40" font-family="p22" font-weight="100" text-anchor="start" dominant-baseline="central" x="1609.0" y="1568" transform="translate(1568,1568) rotate(0) translate(-1568,-1568)">Gampola</text>
  </g>
  <g>
    <text fill="gray" stroke="none" font-size="40" font-family="p22" font-weight="100" text-anchor="start" dominant-baseline="central" x="1737.0" y="1696" transform="translate(1696,1696) rotate(0) translate(-1696,-1696)">Nawalapitiya</text>
  </g>
  <g>
    <text fill="gray" stroke="none" font-size="40" font-family="p22" font-weight="100" text-anchor="start" dominant-baseline="central" x="1865.0" y="1824" transform="translate(1824,1824) rotate(0) translate(-1824,-1824)">Talawakele</text>
  </g>
  <g>
    <text fill="gray" stroke="none" font-size="40" font-family="p22" font-weight="100" text-anchor="end" dominant-baseline="central" x="1911.0" y="1952" transform="translate(1952,1952) rotate(0) translate(-1952,-1952)">Nanu Oya</text>
  </g>
  <g>
    <text fill="gray" stroke="none" font-size="40" font-family="p22" font-weight="100" text-anchor="start" dominant-baseline="central" x="2121.0" y="1952" transform="translate(2080,1952) rotate(-315) translate(-2080,-1952)">Haputale</text>
  </g>
  <g>
    <text fill="gray" stroke="none" font-size="40" font-family="p22" font-weight="100" text-anchor="start" dominant-baseline="central" x="2249.0" y="1952" transform="translate(2208,1952) rotate(0) translate(-2208,-1952)">Bandarawela</text>
  </g>
  <g>
    <text fill="gray" stroke="none" font-size="40" font-family="p22" font-weight="100" text-anchor="start" dominant-baseline="central" x="713.0" y="2080" transform="translate(672,2080) rotate(0) translate(-672,-2080)">Panadura</text>
  </g>
  <g>
    <text fill="gray" stroke="none" font-size="40" font-family="p22" font-weight="100" text-anchor="start" dominant-baseline="central" x="713.0" y="2208" transform="translate(672,2208) rotate(0) translate(-672,-2208)">KALUTARA North</text>
  </g>
  <g>
    <text fill="gray" stroke="none" font-size="40" font-family="p22" font-weight="100" text-anchor="start" dominant-baseline="central" x="841.0" y="2336" transform="translate(800,2336) rotate(0) translate(-800,-2336)">Aluthgama</text>
  </g>
  <g>
    <text fill="gray" stroke="none" font-size="40" font-family="p22" font-weight="100" text-anchor="end" dominant-baseline="central" x="887.0" y="2464" transform="translate(928,2464) rotate(0) translate(-928,-2464)">Kosgoda</text>
  </g>
  <g>
    <text fill="gray" stroke="none" font-size="40" font-family="p22" font-weight="100" text-anchor="end" dominant-baseline="central" x="1015.0" y="2592" transform="translate(1056,2592) rotate(0) translate(-1056,-2592)">Ambalangoda</text>
  </g>
  <g>
    <text fill="gray" stroke="none" font-size="40" font-family="p22" font-weight="100" text-anchor="end" dominant-baseline="central" x="1271.0" y="544" transform="translate(1312,544) rotate(45) translate(-1312,-544)">Omanthai</text>
  </g>
  <g>
    <text fill="gray" stroke="none" font-size="40" font-family="p22" font-weight="100" text-anchor="start" dominant-baseline="central" x="969.0" y="1952" transform="translate(928,1952) rotate(-337.5) translate(-928,-1952)">Homagama</text>
  </g>
  <g>
    <text fill="gray" stroke="none" font-size="40" font-family="p22" font-weight="100" text-anchor="end" dominant-baseline="central" x="759.0" y="1568" transform="translate(800,1568) rotate(0) translate(-800,-1568)">Ja-Ela</text>
  </g>
  <g>
    <text fill="gray" stroke="none" font-size="40" font-family="p22" font-weight="100" text-anchor="end" dominant-baseline="central" x="503.0" y="1312" transform="translate(544,1312) rotate(0) translate(-544,-1312)">Negombo</text>
  </g>
  <g>
    <text fill="gray" stroke="none" font-size="40" font-family="p22" font-weight="100" text-anchor="start" dominant-baseline="central" x="585.0" y="1184" transform="translate(544,1184) rotate(0) translate(-544,-1184)">Madampe</text>
  </g>
  <g>
    <text fill="gray" stroke="none" font-size="40" font-family="p22" font-weight="100" text-anchor="end" dominant-baseline="central" x="503.0" y="1056" transform="translate(544,1056) rotate(0) translate(-544,-1056)">Chilaw</text>
  </g>
  <g>
    <text fill="gray" stroke="none" font-size="40" font-family="p22" font-weight="100" text-anchor="end" dominant-baseline="central" x="503.0" y="928" transform="translate(544,928) rotate(0) translate(-544,-928)">Bangadeniya</text>
  </g>
</svg>
