<?xml version="1.0" ?>
<svg xmlns="http://www.w3.org/2000/svg" width="3600" height="3600" padding="360">
  <text fill="#fcfcfc" stroke="none" font-size="600.0" font-family="p22" x="1800.0" y="1800.0" text-anchor="middle" dominant-baseline="center">@nuuuwan</text>
  <text fill="black" stroke="none" font-size="160" font-family="p22" x="1800.0" y="180.0" text-anchor="middle" dominant-baseline="hanging">2013</text>
  <text fill="gray" stroke="none" font-size="40" font-family="p22" x="1800.0" y="230.0" text-anchor="middle" dominant-baseline="hanging"/>
  <text fill="gray" stroke="none" font-size="40" font-family="p22" x="1800.0" y="3460.0" text-anchor="middle" dominant-baseline="text-top">data from multiple sources ~ music by @bensound ~ visualization by @nuuuwan</text>
  <g>
    <path fill="none" stroke-width="29.400000000000002" stroke-opacity="1" d="M 890.0,2330.0 L 1042.0,2178.0 L 1193.0,2027.0 L 1345.0,1875.0 L 1490.6259884629821,1729.3740115370179 C 1492.417325641988,1727.582674358012 1501.0666666666666,1724.0 1503.6,1724.0 L 1648.0,1724.0 L 1792.4,1724.0 C 1794.9333333333334,1724.0 1803.582674358012,1727.582674358012 1805.3740115370179,1729.3740115370179 L 1951.0,1875.0 L 2103.0,2027.0 L 2254.0,2178.0 L 2400.6613438020418,2324.6613438020418 C 2402.440895868028,2326.440895868028 2411.0333333333333,2330.0 2413.55,2330.0 L 2557.0,2330.0 L 2701.4,2330.0 C 2703.9333333333334,2330.0 2712.582674358012,2326.417325641988 2714.374011537018,2324.625988462982 L 2861.0,2178.0" stroke="red"/>
    <rect stroke="none" fill-opacity="1" x="2847" y="2150" width="28" height="56" fill="red"/>
  </g>
  <g>
    <path fill="none" stroke-width="29.400000000000002" stroke-opacity="1" d="M 1800.0,1724.0 L 1945.6437536451713,1577.3917181849931 C 1947.429169096781,1575.5944787899953 1956.0666666666666,1572.0 1958.6,1572.0 L 2103.0,1572.0" stroke="purple"/>
    <rect stroke="none" fill-opacity="1" x="2089" y="1544" width="28" height="56" fill="purple"/>
  </g>
  <g>
    <path fill="none" stroke-width="29.400000000000002" stroke-opacity="1" d="M 890.0,2330.0 L 890.0,2482.0 L 890.0,2633.0 L 890.0,2777.4 C 890.0,2779.9333333333334 893.5944787899954,2788.5708309032193 895.391718184993,2790.3562463548287 L 1034.6695859092497,2928.7178123177414 C 1037.1130572728332,2931.1452082118276 1046.8547917881724,2940.886942727167 1049.2821876822586,2943.3304140907503 L 1185.814109384113,3080.7665207045375 C 1188.2094062560752,3083.1776804696915 1197.8064828134366,3092.8064828134366 1200.209724220155,3095.209724220155 L 1339.6613438020415,3234.6613438020418 C 1341.4408958680276,3236.440895868028 1350.0333333333333,3240.0 1352.55,3240.0 L 1496.0,3240.0 L 1648.0,3240.0" stroke="cyan"/>
    <rect stroke="none" fill-opacity="1" x="1634" y="3212" width="28" height="56" fill="cyan"/>
  </g>
  <g>
    <path fill="none" stroke-width="29.400000000000002" stroke-opacity="1" d="M 1648.0,1724.0 L 1648.0,1572.0 L 1648.0,1421.0 L 1648.0,1269.0 L 1648.0,1117.0 L 1648.0,966.0 L 1648.0,814.0 L 1648.0,663.0 L 1648.0,518.6 C 1648.0,516.0666666666667 1644.4055212100047,507.4291690967809 1642.6082818150069,505.6437536451714 L 1496.0,360.0" stroke="orange"/>
    <rect stroke="none" fill-opacity="1" x="1482" y="332" width="28" height="56" fill="orange"/>
  </g>
  <g>
    <path fill="none" stroke-width="29.400000000000002" stroke-opacity="1" d="M 1042.0,2178.0 L 1187.6437536451713,2324.608281815007 C 1189.429169096781,2326.4055212100047 1198.0666666666666,2330.0 1200.6,2330.0 L 1345.0,2330.0" stroke="darkblue"/>
    <rect stroke="none" fill-opacity="1" x="1331" y="2302" width="28" height="56" fill="darkblue"/>
  </g>
  <g>
    <path fill="none" stroke-width="29.400000000000002" stroke-opacity="1" d="M 1193.0,2027.0 L 1049.55,1882.6 C 1047.0333333333333,1880.0666666666666 1036.9333333333334,1869.9666666666667 1034.4,1867.45 L 897.22,1731.1725 C 894.8133333333334,1728.7816666666668 885.2024738724584,1719.2024738724583 882.8037108086876,1716.8037108086876 L 743.3386561979585,1577.3386561979585 C 741.5591041319723,1575.5591041319724 738.0,1566.9666666666667 738.0,1564.45 L 738.0,1421.0 L 738.0,1269.0 L 738.0,1117.0 L 738.0,966.0 L 738.0,814.0" stroke="green"/>
    <rect stroke="none" fill-opacity="1" x="710" y="800" width="56" height="28" fill="green"/>
  </g>
  <g>
    <path fill="none" stroke-width="29.400000000000002" stroke-opacity="1" d="M 1648.0,1421.0 L 1792.424958745987,1276.575041254013 C 1794.9499724973246,1274.0500275026754 1805.0333333333333,1274.0666666666666 1807.55,1276.6 L 1945.6437536451713,1415.6082818150069 C 1947.429169096781,1417.4055212100047 1956.0666666666666,1421.0 1958.6,1421.0 L 2103.0,1421.0" stroke="darkgreen"/>
    <rect stroke="none" fill-opacity="1" x="2089" y="1393" width="28" height="56" fill="darkgreen"/>
  </g>
  <g>
    <path fill="none" stroke-width="29.400000000000002" stroke-opacity="1" d="M 1800.0,1269.0 L 1951.0,1117.0" stroke="silver"/>
    <rect stroke="none" fill-opacity="1" x="1937" y="1089" width="28" height="56" fill="silver"/>
  </g>
  <g>
    <path fill="none" stroke-width="29.400000000000002" stroke-opacity="1" d="M 890.0,1724.0 L 890.0,1572.0" stroke="pink"/>
    <rect stroke="none" fill-opacity="1" x="862" y="1558" width="56" height="28" fill="pink"/>
  </g>
  <g>
    <path fill="none" stroke-width="29.400000000000002" stroke-opacity="1" d="M 1648.0,1117.0 L 1800.0,1117.0" stroke="maroon"/>
    <rect stroke="none" fill-opacity="1" x="1786" y="1089" width="28" height="56" fill="maroon"/>
  </g>
  <g>
    <path fill="none" stroke-width="29.400000000000002" stroke-opacity="1" d="M 1648.0,966.0 L 1496.0,814.0" stroke="blue"/>
    <rect stroke="none" fill-opacity="1" x="1482" y="786" width="28" height="56" fill="blue"/>
  </g>
  <g>
    <text fill="black" stroke="none" font-size="56.0" font-family="p22" font-weight="100" text-anchor="start" dominant-baseline="central" x="2910.0" y="2178" transform="translate(2861,2178) rotate(0) translate(-2861,-2178)">BADULLA</text>
  </g>
  <g>
    <text fill="black" stroke="none" font-size="56.0" font-family="p22" font-weight="100" text-anchor="start" dominant-baseline="central" x="2152.0" y="1572" transform="translate(2103,1572) rotate(0) translate(-2103,-1572)">MATALE</text>
  </g>
  <g>
    <text fill="black" stroke="none" font-size="56.0" font-family="p22" font-weight="100" text-anchor="start" dominant-baseline="central" x="1697.0" y="3240" transform="translate(1648,3240) rotate(0) translate(-1648,-3240)">MATARA</text>
  </g>
  <g>
    <text fill="black" stroke="none" font-size="56.0" font-family="p22" font-weight="100" text-anchor="start" dominant-baseline="central" x="1545.0" y="360" transform="translate(1496,360) rotate(0) translate(-1496,-360)">Pallai</text>
  </g>
  <g>
    <text fill="black" stroke="none" font-size="56.0" font-family="p22" font-weight="100" text-anchor="start" dominant-baseline="central" x="1394.0" y="2330" transform="translate(1345,2330) rotate(0) translate(-1345,-2330)">Avissawella</text>
  </g>
  <g>
    <text fill="black" stroke="none" font-size="56.0" font-family="p22" font-weight="100" text-anchor="start" dominant-baseline="central" x="787.0" y="814" transform="translate(738,814) rotate(0) translate(-738,-814)">Periyanagavillu</text>
  </g>
  <g>
    <text fill="black" stroke="none" font-size="56.0" font-family="p22" font-weight="100" text-anchor="start" dominant-baseline="central" x="2152.0" y="1421" transform="translate(2103,1421) rotate(0) translate(-2103,-1421)">BATTICALOA</text>
  </g>
  <g>
    <text fill="black" stroke="none" font-size="56.0" font-family="p22" font-weight="100" text-anchor="start" dominant-baseline="central" x="2000.0" y="1117" transform="translate(1951,1117) rotate(0) translate(-1951,-1117)">TRINCOMALEE</text>
  </g>
  <g>
    <text fill="black" stroke="none" font-size="56.0" font-family="p22" font-weight="100" text-anchor="start" dominant-baseline="central" x="939.0" y="1572" transform="translate(890,1572) rotate(0) translate(-890,-1572)">CMB Airport</text>
  </g>
  <g>
    <text fill="black" stroke="none" font-size="56.0" font-family="p22" font-weight="100" text-anchor="start" dominant-baseline="central" x="1849.0" y="1117" transform="translate(1800,1117) rotate(-45) translate(-1800,-1117)">Mihintale</text>
  </g>
  <g>
    <text fill="black" stroke="none" font-size="56.0" font-family="p22" font-weight="100" text-anchor="end" dominant-baseline="central" x="1447.0" y="814" transform="translate(1496,814) rotate(0) translate(-1496,-814)">Madhu Road</text>
  </g>
  <g>
    <circle r="28" fill="white" stroke="black" stroke-width="7.0" cx="890" cy="2330"/>
    <text fill="black" stroke="none" font-size="48.0" font-family="p22" font-weight="100" text-anchor="start" dominant-baseline="central" x="935.0" y="2330" transform="translate(890,2330) rotate(0) translate(-890,-2330)">COLOMBO Fort</text>
  </g>
  <g>
    <circle r="28" fill="white" stroke="black" stroke-width="7.0" cx="1042" cy="2178"/>
    <text fill="black" stroke="none" font-size="48.0" font-family="p22" font-weight="100" text-anchor="start" dominant-baseline="central" x="1087.0" y="2178" transform="translate(1042,2178) rotate(0) translate(-1042,-2178)">Maradana</text>
  </g>
  <g>
    <circle r="28" fill="white" stroke="black" stroke-width="7.0" cx="1193" cy="2027"/>
    <text fill="black" stroke="none" font-size="48.0" font-family="p22" font-weight="100" text-anchor="start" dominant-baseline="central" x="1238.0" y="2027" transform="translate(1193,2027) rotate(0) translate(-1193,-2027)">Ragama</text>
  </g>
  <g>
    <circle r="28" fill="white" stroke="black" stroke-width="7.0" cx="1648" cy="1724"/>
    <text fill="black" stroke="none" font-size="48.0" font-family="p22" font-weight="100" text-anchor="start" dominant-baseline="central" x="1693.0" y="1724" transform="translate(1648,1724) rotate(-45) translate(-1648,-1724)">Polgahawela</text>
  </g>
  <g>
    <circle r="28" fill="white" stroke="black" stroke-width="7.0" cx="1800" cy="1724"/>
    <text fill="black" stroke="none" font-size="48.0" font-family="p22" font-weight="100" text-anchor="start" dominant-baseline="central" x="1845.0" y="1724" transform="translate(1800,1724) rotate(0) translate(-1800,-1724)">Peradeniya</text>
  </g>
  <g>
    <circle r="28" fill="white" stroke="black" stroke-width="7.0" cx="1648" cy="1421"/>
    <text fill="black" stroke="none" font-size="48.0" font-family="p22" font-weight="100" text-anchor="start" dominant-baseline="central" x="1693.0" y="1421" transform="translate(1648,1421) rotate(0) translate(-1648,-1421)">Maho</text>
  </g>
  <g>
    <circle r="28" fill="white" stroke="black" stroke-width="7.0" cx="1648" cy="1117"/>
    <text fill="black" stroke="none" font-size="48.0" font-family="p22" font-weight="100" text-anchor="end" dominant-baseline="central" x="1603.0" y="1117" transform="translate(1648,1117) rotate(0) translate(-1648,-1117)">Mihintale Junction</text>
  </g>
  <g>
    <circle r="28" fill="white" stroke="black" stroke-width="7.0" cx="1648" cy="966"/>
    <text fill="black" stroke="none" font-size="48.0" font-family="p22" font-weight="100" text-anchor="start" dominant-baseline="central" x="1693.0" y="966" transform="translate(1648,966) rotate(0) translate(-1648,-966)">Medavachchiya</text>
  </g>
  <g>
    <circle r="28" fill="white" stroke="black" stroke-width="7.0" cx="890" cy="1724"/>
    <text fill="black" stroke="none" font-size="48.0" font-family="p22" font-weight="100" text-anchor="start" dominant-baseline="central" x="935.0" y="1724" transform="translate(890,1724) rotate(0) translate(-890,-1724)">Katunayake South</text>
  </g>
  <g>
    <circle r="28" fill="white" stroke="black" stroke-width="7.0" cx="1800" cy="1269"/>
    <text fill="black" stroke="none" font-size="48.0" font-family="p22" font-weight="100" text-anchor="start" dominant-baseline="central" x="1845.0" y="1269" transform="translate(1800,1269) rotate(0) translate(-1800,-1269)">Gal Oya</text>
  </g>
  <g>
    <text fill="gray" stroke="none" font-size="44.0" font-family="p22" font-weight="100" text-anchor="start" dominant-baseline="central" x="1388.0" y="1875" transform="translate(1345,1875) rotate(0) translate(-1345,-1875)">GAMPAHA</text>
  </g>
  <g>
    <text fill="gray" stroke="none" font-size="44.0" font-family="p22" font-weight="100" text-anchor="start" dominant-baseline="central" x="1994.0" y="1572" transform="translate(1951,1572) rotate(-315) translate(-1951,-1572)">KANDY</text>
  </g>
  <g>
    <text fill="gray" stroke="none" font-size="44.0" font-family="p22" font-weight="100" text-anchor="start" dominant-baseline="central" x="1539.0" y="3240" transform="translate(1496,3240) rotate(-45) translate(-1496,-3240)">GALLE</text>
  </g>
  <g>
    <text fill="gray" stroke="none" font-size="44.0" font-family="p22" font-weight="100" text-anchor="end" dominant-baseline="central" x="1605.0" y="1572" transform="translate(1648,1572) rotate(0) translate(-1648,-1572)">KURUNEGALA</text>
  </g>
  <g>
    <text fill="gray" stroke="none" font-size="44.0" font-family="p22" font-weight="100" text-anchor="end" dominant-baseline="central" x="1605.0" y="1269" transform="translate(1648,1269) rotate(0) translate(-1648,-1269)">ANURADHAPURA</text>
  </g>
  <g>
    <text fill="gray" stroke="none" font-size="44.0" font-family="p22" font-weight="100" text-anchor="start" dominant-baseline="central" x="1691.0" y="814" transform="translate(1648,814) rotate(0) translate(-1648,-814)">VAVUNIYA</text>
  </g>
  <g>
    <text fill="gray" stroke="none" font-size="44.0" font-family="p22" font-weight="100" text-anchor="start" dominant-baseline="central" x="1691.0" y="511" transform="translate(1648,511) rotate(0) translate(-1648,-511)">KILINOCHCHI</text>
  </g>
  <g>
    <text fill="gray" stroke="none" font-size="44.0" font-family="p22" font-weight="100" text-anchor="start" dominant-baseline="central" x="781.0" y="966" transform="translate(738,966) rotate(0) translate(-738,-966)">PUTTALAM</text>
  </g>
  <g>
    <text fill="gray" stroke="none" font-size="44.0" font-family="p22" font-weight="100" text-anchor="start" dominant-baseline="central" x="1994.0" y="1421" transform="translate(1951,1421) rotate(-45) translate(-1951,-1421)">POLONNARUWA</text>
  </g>
  <g>
    <text fill="gray" stroke="none" font-size="40" font-family="p22" font-weight="100" text-anchor="end" dominant-baseline="central" x="1455.0" y="1724" transform="translate(1496,1724) rotate(0) translate(-1496,-1724)">Ambepussa</text>
  </g>
  <g>
    <text fill="gray" stroke="none" font-size="40" font-family="p22" font-weight="100" text-anchor="start" dominant-baseline="central" x="1992.0" y="1875" transform="translate(1951,1875) rotate(0) translate(-1951,-1875)">Gampola</text>
  </g>
  <g>
    <text fill="gray" stroke="none" font-size="40" font-family="p22" font-weight="100" text-anchor="start" dominant-baseline="central" x="2144.0" y="2027" transform="translate(2103,2027) rotate(0) translate(-2103,-2027)">Nawalapitiya</text>
  </g>
  <g>
    <text fill="gray" stroke="none" font-size="40" font-family="p22" font-weight="100" text-anchor="start" dominant-baseline="central" x="2295.0" y="2178" transform="translate(2254,2178) rotate(0) translate(-2254,-2178)">Talawakele</text>
  </g>
  <g>
    <text fill="gray" stroke="none" font-size="40" font-family="p22" font-weight="100" text-anchor="end" dominant-baseline="central" x="2365.0" y="2330" transform="translate(2406,2330) rotate(0) translate(-2406,-2330)">Nanu Oya</text>
  </g>
  <g>
    <text fill="gray" stroke="none" font-size="40" font-family="p22" font-weight="100" text-anchor="start" dominant-baseline="central" x="2598.0" y="2330" transform="translate(2557,2330) rotate(-45) translate(-2557,-2330)">Haputale</text>
  </g>
  <g>
    <text fill="gray" stroke="none" font-size="40" font-family="p22" font-weight="100" text-anchor="start" dominant-baseline="central" x="2750.0" y="2330" transform="translate(2709,2330) rotate(0) translate(-2709,-2330)">Bandarawela</text>
  </g>
  <g>
    <text fill="gray" stroke="none" font-size="40" font-family="p22" font-weight="100" text-anchor="start" dominant-baseline="central" x="931.0" y="2482" transform="translate(890,2482) rotate(0) translate(-890,-2482)">Panadura</text>
  </g>
  <g>
    <text fill="gray" stroke="none" font-size="40" font-family="p22" font-weight="100" text-anchor="start" dominant-baseline="central" x="931.0" y="2633" transform="translate(890,2633) rotate(0) translate(-890,-2633)">KALUTARA North</text>
  </g>
  <g>
    <text fill="gray" stroke="none" font-size="40" font-family="p22" font-weight="100" text-anchor="start" dominant-baseline="central" x="931.0" y="2785" transform="translate(890,2785) rotate(0) translate(-890,-2785)">Wadduwa</text>
  </g>
  <g>
    <text fill="gray" stroke="none" font-size="40" font-family="p22" font-weight="100" text-anchor="start" dominant-baseline="central" x="1083.0" y="2936" transform="translate(1042,2936) rotate(0) translate(-1042,-2936)">Aluthgama</text>
  </g>
  <g>
    <text fill="gray" stroke="none" font-size="40" font-family="p22" font-weight="100" text-anchor="start" dominant-baseline="central" x="1234.0" y="3088" transform="translate(1193,3088) rotate(0) translate(-1193,-3088)">Kosgoda</text>
  </g>
  <g>
    <text fill="gray" stroke="none" font-size="40" font-family="p22" font-weight="100" text-anchor="end" dominant-baseline="central" x="1304.0" y="3240" transform="translate(1345,3240) rotate(0) translate(-1345,-3240)">Ambalangoda</text>
  </g>
  <g>
    <text fill="gray" stroke="none" font-size="40" font-family="p22" font-weight="100" text-anchor="start" dominant-baseline="central" x="1689.0" y="663" transform="translate(1648,663) rotate(0) translate(-1648,-663)">Omanthai</text>
  </g>
  <g>
    <text fill="gray" stroke="none" font-size="40" font-family="p22" font-weight="100" text-anchor="start" dominant-baseline="central" x="1234.0" y="2330" transform="translate(1193,2330) rotate(-45) translate(-1193,-2330)">Homagama</text>
  </g>
  <g>
    <text fill="gray" stroke="none" font-size="40" font-family="p22" font-weight="100" text-anchor="start" dominant-baseline="central" x="1083.0" y="1875" transform="translate(1042,1875) rotate(0) translate(-1042,-1875)">Ja-Ela</text>
  </g>
  <g>
    <text fill="gray" stroke="none" font-size="40" font-family="p22" font-weight="100" text-anchor="end" dominant-baseline="central" x="697.0" y="1572" transform="translate(738,1572) rotate(0) translate(-738,-1572)">Negombo</text>
  </g>
  <g>
    <text fill="gray" stroke="none" font-size="40" font-family="p22" font-weight="100" text-anchor="start" dominant-baseline="central" x="779.0" y="1421" transform="translate(738,1421) rotate(0) translate(-738,-1421)">Madampe</text>
  </g>
  <g>
    <text fill="gray" stroke="none" font-size="40" font-family="p22" font-weight="100" text-anchor="start" dominant-baseline="central" x="779.0" y="1269" transform="translate(738,1269) rotate(0) translate(-738,-1269)">Chilaw</text>
  </g>
  <g>
    <text fill="gray" stroke="none" font-size="40" font-family="p22" font-weight="100" text-anchor="start" dominant-baseline="central" x="779.0" y="1117" transform="translate(738,1117) rotate(0) translate(-738,-1117)">Bangadeniya</text>
  </g>
</svg>
