<?xml version="1.0" ?>
<svg xmlns="http://www.w3.org/2000/svg" width="1300" height="1300" padding="200">
  <text fill="gray" stroke="none" font-size="72" font-family="GIL_____" x="650.0" y="118.0" text-anchor="middle" dominant-baseline="hanging">2013</text>
  <text fill="gray" stroke="none" font-size="18" font-family="GIL_____" x="650.0" y="1218.0" text-anchor="middle" dominant-baseline="text-top">History of the Railways in Sri Lanka</text>
  <g>
    <path fill="none" stroke-width="10.5" stroke-opacity="1" d="M 400.0,800.0 L 450.0,750.0 L 500.0,700.0 L 550.0,650.0 L 598.2322330470337,601.7677669529663 C 598.8214886980224,601.1785113019776 601.6666666666666,600.0 602.5,600.0 L 650.0,600.0 L 697.5,600.0 C 698.3333333333334,600.0 701.1785113019776,601.1785113019776 701.7677669529663,601.7677669529663 L 750.0,650.0 L 798.2322330470337,698.2322330470337 C 798.8214886980224,698.8214886980224 801.6666666666666,700.0 802.5,700.0 L 847.625,700.0 C 848.4166666666666,700.0 851.1195857368787,698.8804142631213 851.6793786053181,698.3206213946819 L 900.0,650.0" stroke="red"/>
    <rect stroke="none" fill-opacity="1" x="895" y="640" width="10" height="20" fill="red"/>
  </g>
  <g>
    <path fill="none" stroke-width="10.5" stroke-opacity="1" d="M 700.0,600.0 L 748.2322330470337,551.7677669529663 C 748.8214886980224,551.1785113019776 751.6666666666666,550.0 752.5,550.0 L 800.0,550.0" stroke="purple"/>
    <rect stroke="none" fill-opacity="1" x="795" y="540" width="10" height="20" fill="purple"/>
  </g>
  <g>
    <path fill="none" stroke-width="10.5" stroke-opacity="1" d="M 400.0,800.0 L 400.0,850.0 L 400.0,897.5 C 400.0,898.3333333333334 401.17851130197755,901.1785113019776 401.7677669529664,901.7677669529663 L 450.0,950.0 L 500.0,1000.0 L 550.0,1050.0 L 598.2322330470337,1098.2322330470336 C 598.8214886980224,1098.8214886980224 601.6666666666666,1100.0 602.5,1100.0 L 650.0,1100.0" stroke="cyan"/>
    <rect stroke="none" fill-opacity="1" x="645" y="1090" width="10" height="20" fill="cyan"/>
  </g>
  <g>
    <path fill="none" stroke-width="10.5" stroke-opacity="1" d="M 650.0,600.0 L 650.0,550.0 L 650.0,500.0 L 650.0,450.0 L 650.0,400.0 L 650.0,350.0 L 650.0,300.0 L 650.0,250.0 L 650.0,200.0" stroke="orange"/>
    <rect stroke="none" fill-opacity="1" x="640" y="195" width="20" height="10" fill="orange"/>
  </g>
  <g>
    <path fill="none" stroke-width="10.5" stroke-opacity="1" d="M 450.0,750.0 L 498.2322330470336,798.2322330470337 C 498.82148869802245,798.8214886980224 501.6666666666667,800.0 502.5,800.0 L 550.0,800.0" stroke="darkblue"/>
    <rect stroke="none" fill-opacity="1" x="545" y="790" width="10" height="20" fill="darkblue"/>
  </g>
  <g>
    <path fill="none" stroke-width="10.5" stroke-opacity="1" d="M 500.0,700.0 L 451.7677669529664,651.7677669529663 C 451.17851130197755,651.1785113019776 450.0,648.3333333333334 450.0,647.5 L 450.0,600.0 L 450.0,550.0 L 450.0,500.0 L 450.0,450.0" stroke="green"/>
    <rect stroke="none" fill-opacity="1" x="440" y="445" width="20" height="10" fill="green"/>
  </g>
  <g>
    <path fill="none" stroke-width="10.5" stroke-opacity="1" d="M 650.0,500.0 L 697.5,452.5 C 698.3333333333334,451.6666666666667 701.6666666666666,451.6666666666667 702.5,452.5 L 748.2322330470337,498.2322330470336 C 748.8214886980224,498.82148869802245 751.6666666666666,500.0 752.5,500.0 L 800.0,500.0" stroke="darkgreen"/>
    <rect stroke="none" fill-opacity="1" x="795" y="490" width="10" height="20" fill="darkgreen"/>
  </g>
  <g>
    <path fill="none" stroke-width="10.5" stroke-opacity="1" d="M 700.0,450.0 L 750.0,400.0" stroke="silver"/>
    <rect stroke="none" fill-opacity="1" x="745" y="390" width="10" height="20" fill="silver"/>
  </g>
  <g>
    <path fill="none" stroke-width="10.5" stroke-opacity="1" d="M 650.0,400.0 L 700.0,400.0" stroke="maroon"/>
    <rect stroke="none" fill-opacity="1" x="695" y="390" width="10" height="20" fill="maroon"/>
  </g>
  <g>
    <path fill="none" stroke-width="10.5" stroke-opacity="1" d="M 650.0,350.0 L 600.0,300.0" stroke="blue"/>
    <rect stroke="none" fill-opacity="1" x="595" y="290" width="10" height="20" fill="blue"/>
  </g>
  <g>
    <text fill="black" stroke="none" font-size="25.2" font-family="GIL_____" font-weight="100" text-anchor="start" dominant-baseline="central" x="920.1" y="650" transform="translate(900,650) rotate(0) translate(-900,-650)">BADULLA</text>
  </g>
  <g>
    <text fill="black" stroke="none" font-size="25.2" font-family="GIL_____" font-weight="100" text-anchor="start" dominant-baseline="central" x="820.1" y="550" transform="translate(800,550) rotate(0) translate(-800,-550)">MATALE</text>
  </g>
  <g>
    <text fill="black" stroke="none" font-size="25.2" font-family="GIL_____" font-weight="100" text-anchor="start" dominant-baseline="central" x="670.1" y="1100" transform="translate(650,1100) rotate(0) translate(-650,-1100)">MATARA</text>
  </g>
  <g>
    <text fill="black" stroke="none" font-size="25.2" font-family="GIL_____" font-weight="100" text-anchor="start" dominant-baseline="central" x="670.1" y="200" transform="translate(650,200) rotate(0) translate(-650,-200)">KILINOCHCHI</text>
  </g>
  <g>
    <text fill="black" stroke="none" font-size="25.2" font-family="GIL_____" font-weight="100" text-anchor="start" dominant-baseline="central" x="570.1" y="800" transform="translate(550,800) rotate(0) translate(-550,-800)">Avissawella</text>
  </g>
  <g>
    <text fill="black" stroke="none" font-size="25.2" font-family="GIL_____" font-weight="100" text-anchor="start" dominant-baseline="central" x="470.1" y="450" transform="translate(450,450) rotate(0) translate(-450,-450)">Periyanagavillu</text>
  </g>
  <g>
    <text fill="black" stroke="none" font-size="25.2" font-family="GIL_____" font-weight="100" text-anchor="start" dominant-baseline="central" x="820.1" y="500" transform="translate(800,500) rotate(0) translate(-800,-500)">BATTICALOA</text>
  </g>
  <g>
    <text fill="black" stroke="none" font-size="25.2" font-family="GIL_____" font-weight="100" text-anchor="start" dominant-baseline="central" x="770.1" y="400" transform="translate(750,400) rotate(0) translate(-750,-400)">TRINCOMALEE</text>
  </g>
  <g>
    <text fill="black" stroke="none" font-size="25.2" font-family="GIL_____" font-weight="100" text-anchor="start" dominant-baseline="central" x="720.1" y="400" transform="translate(700,400) rotate(-45) translate(-700,-400)">Mihintale</text>
  </g>
  <g>
    <text fill="black" stroke="none" font-size="25.2" font-family="GIL_____" font-weight="100" text-anchor="end" dominant-baseline="central" x="579.9" y="300" transform="translate(600,300) rotate(0) translate(-600,-300)">Madhu Road</text>
  </g>
  <g>
    <circle r="10" fill="white" stroke="black" stroke-width="2.5" cx="400" cy="800"/>
    <text fill="black" stroke="none" font-size="21.599999999999998" font-family="GIL_____" font-weight="100" text-anchor="end" dominant-baseline="central" x="381.7" y="800" transform="translate(400,800) rotate(0) translate(-400,-800)">COLOMBO Fort</text>
  </g>
  <g>
    <circle r="10" fill="white" stroke="black" stroke-width="2.5" cx="450" cy="750"/>
    <text fill="black" stroke="none" font-size="21.599999999999998" font-family="GIL_____" font-weight="100" text-anchor="start" dominant-baseline="central" x="468.3" y="750" transform="translate(450,750) rotate(0) translate(-450,-750)">Maradana</text>
  </g>
  <g>
    <circle r="10" fill="white" stroke="black" stroke-width="2.5" cx="500" cy="700"/>
    <text fill="black" stroke="none" font-size="21.599999999999998" font-family="GIL_____" font-weight="100" text-anchor="start" dominant-baseline="central" x="518.3" y="700" transform="translate(500,700) rotate(0) translate(-500,-700)">Ragama</text>
  </g>
  <g>
    <circle r="10" fill="white" stroke="black" stroke-width="2.5" cx="650" cy="600"/>
    <text fill="black" stroke="none" font-size="21.599999999999998" font-family="GIL_____" font-weight="100" text-anchor="start" dominant-baseline="central" x="668.3" y="600" transform="translate(650,600) rotate(-315) translate(-650,-600)">Polgahawela</text>
  </g>
  <g>
    <circle r="10" fill="white" stroke="black" stroke-width="2.5" cx="700" cy="600"/>
    <text fill="black" stroke="none" font-size="21.599999999999998" font-family="GIL_____" font-weight="100" text-anchor="start" dominant-baseline="central" x="718.3" y="600" transform="translate(700,600) rotate(0) translate(-700,-600)">Peradeniya</text>
  </g>
  <g>
    <circle r="10" fill="white" stroke="black" stroke-width="2.5" cx="650" cy="500"/>
    <text fill="black" stroke="none" font-size="21.599999999999998" font-family="GIL_____" font-weight="100" text-anchor="end" dominant-baseline="central" x="631.7" y="500" transform="translate(650,500) rotate(0) translate(-650,-500)">Maho</text>
  </g>
  <g>
    <circle r="10" fill="white" stroke="black" stroke-width="2.5" cx="650" cy="400"/>
    <text fill="black" stroke="none" font-size="21.599999999999998" font-family="GIL_____" font-weight="100" text-anchor="end" dominant-baseline="central" x="631.7" y="400" transform="translate(650,400) rotate(0) translate(-650,-400)">Mihintale Junction</text>
  </g>
  <g>
    <circle r="10" fill="white" stroke="black" stroke-width="2.5" cx="650" cy="350"/>
    <text fill="black" stroke="none" font-size="21.599999999999998" font-family="GIL_____" font-weight="100" text-anchor="end" dominant-baseline="central" x="631.7" y="350" transform="translate(650,350) rotate(0) translate(-650,-350)">Medavachchiya</text>
  </g>
  <g>
    <circle r="10" fill="white" stroke="black" stroke-width="2.5" cx="700" cy="450"/>
    <text fill="black" stroke="none" font-size="21.599999999999998" font-family="GIL_____" font-weight="100" text-anchor="start" dominant-baseline="central" x="718.3" y="450" transform="translate(700,450) rotate(0) translate(-700,-450)">Gal Oya</text>
  </g>
  <g>
    <text fill="black" stroke="none" font-size="19.8" font-family="GIL_____" font-weight="100" text-anchor="start" dominant-baseline="central" x="567.4" y="650" transform="translate(550,650) rotate(0) translate(-550,-650)">GAMPAHA</text>
  </g>
  <g>
    <text fill="black" stroke="none" font-size="19.8" font-family="GIL_____" font-weight="100" text-anchor="start" dominant-baseline="central" x="767.4" y="550" transform="translate(750,550) rotate(-337.5) translate(-750,-550)">KANDY</text>
  </g>
  <g>
    <text fill="black" stroke="none" font-size="19.8" font-family="GIL_____" font-weight="100" text-anchor="end" dominant-baseline="central" x="582.6" y="1100" transform="translate(600,1100) rotate(0) translate(-600,-1100)">GALLE</text>
  </g>
  <g>
    <text fill="black" stroke="none" font-size="19.8" font-family="GIL_____" font-weight="100" text-anchor="end" dominant-baseline="central" x="632.6" y="550" transform="translate(650,550) rotate(0) translate(-650,-550)">KURUNEGALA</text>
  </g>
  <g/>
  <g>
    <text fill="black" stroke="none" font-size="19.8" font-family="GIL_____" font-weight="100" text-anchor="start" dominant-baseline="central" x="667.4" y="300" transform="translate(650,300) rotate(0) translate(-650,-300)">VAVUNIYA</text>
  </g>
  <g>
    <text fill="black" stroke="none" font-size="19.8" font-family="GIL_____" font-weight="100" text-anchor="start" dominant-baseline="central" x="767.4" y="500" transform="translate(750,500) rotate(-22.5) translate(-750,-500)">POLONNARUWA</text>
  </g>
  <g>
    <text fill="black" stroke="none" font-size="18" font-family="GIL_____" font-weight="100" text-anchor="end" dominant-baseline="central" x="583.5" y="600" transform="translate(600,600) rotate(0) translate(-600,-600)">Ambepussa</text>
  </g>
  <g>
    <text fill="black" stroke="none" font-size="18" font-family="GIL_____" font-weight="100" text-anchor="start" dominant-baseline="central" x="766.5" y="650" transform="translate(750,650) rotate(0) translate(-750,-650)">Nawalapitiya</text>
  </g>
  <g>
    <text fill="black" stroke="none" font-size="18" font-family="GIL_____" font-weight="100" text-anchor="start" dominant-baseline="central" x="816.5" y="700" transform="translate(800,700) rotate(-315) translate(-800,-700)">Nanu Oya</text>
  </g>
  <g>
    <text fill="black" stroke="none" font-size="18" font-family="GIL_____" font-weight="100" text-anchor="start" dominant-baseline="central" x="866.5" y="700" transform="translate(850,700) rotate(0) translate(-850,-700)">Bandarawela</text>
  </g>
  <g>
    <text fill="black" stroke="none" font-size="18" font-family="GIL_____" font-weight="100" text-anchor="start" dominant-baseline="central" x="416.5" y="850" transform="translate(400,850) rotate(0) translate(-400,-850)">Panadura</text>
  </g>
  <g>
    <text fill="black" stroke="none" font-size="18" font-family="GIL_____" font-weight="100" text-anchor="start" dominant-baseline="central" x="416.5" y="900" transform="translate(400,900) rotate(0) translate(-400,-900)">KALUTARA North</text>
  </g>
  <g>
    <text fill="black" stroke="none" font-size="18" font-family="GIL_____" font-weight="100" text-anchor="start" dominant-baseline="central" x="466.5" y="950" transform="translate(450,950) rotate(0) translate(-450,-950)">Aluthgama</text>
  </g>
  <g>
    <text fill="black" stroke="none" font-size="18" font-family="GIL_____" font-weight="100" text-anchor="start" dominant-baseline="central" x="516.5" y="1000" transform="translate(500,1000) rotate(0) translate(-500,-1000)">Kosgoda</text>
  </g>
  <g>
    <text fill="black" stroke="none" font-size="18" font-family="GIL_____" font-weight="100" text-anchor="start" dominant-baseline="central" x="566.5" y="1050" transform="translate(550,1050) rotate(0) translate(-550,-1050)">Ambalangoda</text>
  </g>
  <g>
    <text fill="black" stroke="none" font-size="18" font-family="GIL_____" font-weight="100" text-anchor="start" dominant-baseline="central" x="666.5" y="250" transform="translate(650,250) rotate(0) translate(-650,-250)">Omanthai</text>
  </g>
  <g>
    <text fill="black" stroke="none" font-size="18" font-family="GIL_____" font-weight="100" text-anchor="start" dominant-baseline="central" x="516.5" y="800" transform="translate(500,800) rotate(-315) translate(-500,-800)">Homagama</text>
  </g>
  <g>
    <text fill="black" stroke="none" font-size="18" font-family="GIL_____" font-weight="100" text-anchor="end" dominant-baseline="central" x="433.5" y="650" transform="translate(450,650) rotate(0) translate(-450,-650)">Negombo</text>
  </g>
  <g>
    <text fill="black" stroke="none" font-size="18" font-family="GIL_____" font-weight="100" text-anchor="end" dominant-baseline="central" x="433.5" y="600" transform="translate(450,600) rotate(0) translate(-450,-600)">Chilaw</text>
  </g>
  <g>
    <text fill="black" stroke="none" font-size="18" font-family="GIL_____" font-weight="100" text-anchor="end" dominant-baseline="central" x="433.5" y="550" transform="translate(450,550) rotate(0) translate(-450,-550)">Bangadeniya</text>
  </g>
  <g>
    <text fill="black" stroke="none" font-size="18" font-family="GIL_____" font-weight="100" text-anchor="end" dominant-baseline="central" x="433.5" y="500" transform="translate(450,500) rotate(0) translate(-450,-500)">Puttalam</text>
  </g>
</svg>
