<?xml version="1.0" ?>
<svg xmlns="http://www.w3.org/2000/svg" width="3600" height="3600" padding="480">
  <text fill="#fcfcfc" stroke="none" font-size="600.0" font-family="p22" x="1800.0" y="1800.0" text-anchor="middle" dominant-baseline="center">@nuuuwan</text>
  <text fill="black" stroke="none" font-size="160" font-family="p22" x="1800.0" y="240.0" text-anchor="middle" dominant-baseline="hanging">2014</text>
  <text fill="gray" stroke="none" font-size="40" font-family="p22" x="1800.0" y="290.0" text-anchor="middle" dominant-baseline="hanging"/>
  <text fill="gray" stroke="none" font-size="40" font-family="p22" x="1800.0" y="3400.0" text-anchor="middle" dominant-baseline="text-top">data from multiple sources ~ music by @bensound ~ visualization by @nuuuwan</text>
  <g>
    <path fill="none" stroke-width="29.400000000000002" stroke-opacity="1" d="M 966.0,2425.0 L 1105.0,2286.0 L 1244.0,2147.0 L 1383.0,2008.0 L 1517.0856078707534,1873.9143921292466 C 1518.7237385805024,1872.2762614194976 1526.6333333333334,1869.0 1528.95,1869.0 L 1661.0,1869.0 L 1793.05,1869.0 C 1795.3666666666666,1869.0 1803.2644124886615,1872.288067651623 1804.8966187329922,1873.9321014774343 L 1931.3448309366497,2001.2966050738717 C 1933.5632206244331,2003.5310700492478 1942.4528836798297,2012.4528836798297 1944.6793255197445,2014.6793255197445 L 2077.0,2147.0 L 2216.0,2286.0 L 2350.0856078707534,2420.0856078707534 C 2351.7237385805024,2421.7237385805024 2359.633333333333,2425.0 2361.95,2425.0 L 2494.0,2425.0 L 2626.05,2425.0 C 2628.366666666667,2425.0 2636.2762614194976,2421.7237385805024 2637.9143921292466,2420.0856078707534 L 2772.0,2286.0" stroke="red"/>
    <rect stroke="none" fill-opacity="1" x="2758" y="2258" width="28" height="56" fill="red"/>
  </g>
  <g>
    <path fill="none" stroke-width="29.400000000000002" stroke-opacity="1" d="M 1800.0,1869.0 L 1933.1033812670078,1734.9321014774343 C 1934.7355875113385,1733.288067651623 1942.6333333333334,1730.0 1944.95,1730.0 L 2077.0,1730.0" stroke="purple"/>
    <rect stroke="none" fill-opacity="1" x="2063" y="1702" width="28" height="56" fill="purple"/>
  </g>
  <g>
    <path fill="none" stroke-width="29.400000000000002" stroke-opacity="1" d="M 966.0,2425.0 L 966.0,2564.0 L 966.0,2696.05 C 966.0,2698.366666666667 969.2762614194977,2706.2762614194976 970.9143921292465,2707.9143921292466 L 1105.0,2842.0 L 1244.0,2981.0 L 1378.0856078707534,3115.0856078707534 C 1379.7237385805024,3116.7237385805024 1387.6333333333334,3120.0 1389.95,3120.0 L 1522.0,3120.0 L 1661.0,3120.0 L 1800.0,3120.0" stroke="cyan"/>
    <rect stroke="none" fill-opacity="1" x="1786" y="3092" width="28" height="56" fill="cyan"/>
  </g>
  <g>
    <path fill="none" stroke-width="29.400000000000002" stroke-opacity="1" d="M 1661.0,1869.0 L 1661.0,1730.0 L 1661.0,1591.0 L 1661.0,1452.0 L 1661.0,1313.0 L 1661.0,1174.0 L 1661.0,1035.0 L 1661.0,896.0 L 1661.0,763.95 C 1661.0,761.6333333333333 1657.7237385805024,753.7237385805023 1656.0856078707534,752.0856078707535 L 1528.7042803935376,624.7042803935377 C 1526.4695202623584,622.4695202623584 1517.514373515656,613.5466442097878 1515.2715602734838,611.3199663146818 L 1383.0,480.0" stroke="orange"/>
    <rect stroke="none" fill-opacity="1" x="1369" y="452" width="28" height="56" fill="orange"/>
  </g>
  <g>
    <path fill="none" stroke-width="29.400000000000002" stroke-opacity="1" d="M 1105.0,2286.0 L 1239.0856078707534,2420.0856078707534 C 1240.7237385805024,2421.7237385805024 1248.6333333333334,2425.0 1250.95,2425.0 L 1383.0,2425.0" stroke="darkblue"/>
    <rect stroke="none" fill-opacity="1" x="1369" y="2397" width="28" height="56" fill="darkblue"/>
  </g>
  <g>
    <path fill="none" stroke-width="29.400000000000002" stroke-opacity="1" d="M 1244.0,2147.0 L 1105.0,2008.0 L 966.0,1869.0 L 831.9143921292465,1734.9143921292466 C 830.2762614194977,1733.2762614194976 827.0,1725.3666666666666 827.0,1723.05 L 827.0,1591.0 L 827.0,1452.0 L 827.0,1313.0 L 827.0,1174.0 L 827.0,1035.0" stroke="green"/>
    <rect stroke="none" fill-opacity="1" x="799" y="1021" width="56" height="28" fill="green"/>
  </g>
  <g>
    <path fill="none" stroke-width="29.400000000000002" stroke-opacity="1" d="M 1661.0,1591.0 L 1793.0749548737933,1458.9250451262067 C 1795.3833032491955,1456.6166967508045 1804.6,1456.6333333333334 1806.9,1458.95 L 1933.1033812670078,1586.0678985225657 C 1934.7355875113385,1587.711932348377 1942.6333333333334,1591.0 1944.95,1591.0 L 2077.0,1591.0" stroke="darkgreen"/>
    <rect stroke="none" fill-opacity="1" x="2063" y="1563" width="28" height="56" fill="darkgreen"/>
  </g>
  <g>
    <path fill="none" stroke-width="29.400000000000002" stroke-opacity="1" d="M 1800.0,1452.0 L 1938.0,1313.0" stroke="silver"/>
    <rect stroke="none" fill-opacity="1" x="1924" y="1285" width="28" height="56" fill="silver"/>
  </g>
  <g>
    <path fill="none" stroke-width="29.400000000000002" stroke-opacity="1" d="M 966.0,1869.0 L 966.0,1730.0" stroke="pink"/>
    <rect stroke="none" fill-opacity="1" x="938" y="1716" width="56" height="28" fill="pink"/>
  </g>
  <g>
    <path fill="none" stroke-width="29.400000000000002" stroke-opacity="1" d="M 1661.0,1313.0 L 1800.0,1313.0" stroke="maroon"/>
    <rect stroke="none" fill-opacity="1" x="1786" y="1285" width="28" height="56" fill="maroon"/>
  </g>
  <g>
    <path fill="none" stroke-width="29.400000000000002" stroke-opacity="1" d="M 1661.0,1174.0 L 1522.0,1035.0" stroke="blue"/>
    <rect stroke="none" fill-opacity="1" x="1508" y="1007" width="28" height="56" fill="blue"/>
  </g>
  <g>
    <text fill="black" stroke="none" font-size="56.0" font-family="p22" font-weight="100" text-anchor="start" dominant-baseline="central" x="2821.0" y="2286" transform="translate(2772,2286) rotate(0) translate(-2772,-2286)">Badulla</text>
  </g>
  <g>
    <text fill="black" stroke="none" font-size="56.0" font-family="p22" font-weight="100" text-anchor="start" dominant-baseline="central" x="2126.0" y="1730" transform="translate(2077,1730) rotate(0) translate(-2077,-1730)">Matale</text>
  </g>
  <g>
    <text fill="black" stroke="none" font-size="56.0" font-family="p22" font-weight="100" text-anchor="start" dominant-baseline="central" x="1849.0" y="3120" transform="translate(1800,3120) rotate(0) translate(-1800,-3120)">Matara</text>
  </g>
  <g>
    <text fill="black" stroke="none" font-size="56.0" font-family="p22" font-weight="100" text-anchor="start" dominant-baseline="central" x="1432.0" y="480" transform="translate(1383,480) rotate(0) translate(-1383,-480)">Jaffna</text>
  </g>
  <g>
    <text fill="black" stroke="none" font-size="56.0" font-family="p22" font-weight="100" text-anchor="start" dominant-baseline="central" x="1432.0" y="2425" transform="translate(1383,2425) rotate(0) translate(-1383,-2425)">Avissawella</text>
  </g>
  <g>
    <text fill="black" stroke="none" font-size="56.0" font-family="p22" font-weight="100" text-anchor="start" dominant-baseline="central" x="876.0" y="1035" transform="translate(827,1035) rotate(0) translate(-827,-1035)">Periyanagavillu</text>
  </g>
  <g>
    <text fill="black" stroke="none" font-size="56.0" font-family="p22" font-weight="100" text-anchor="start" dominant-baseline="central" x="2126.0" y="1591" transform="translate(2077,1591) rotate(0) translate(-2077,-1591)">Batticaloa</text>
  </g>
  <g>
    <text fill="black" stroke="none" font-size="56.0" font-family="p22" font-weight="100" text-anchor="start" dominant-baseline="central" x="1987.0" y="1313" transform="translate(1938,1313) rotate(0) translate(-1938,-1313)">Trincomalee</text>
  </g>
  <g>
    <text fill="black" stroke="none" font-size="56.0" font-family="p22" font-weight="100" text-anchor="start" dominant-baseline="central" x="1015.0" y="1730" transform="translate(966,1730) rotate(0) translate(-966,-1730)">CMB Airport</text>
  </g>
  <g>
    <text fill="black" stroke="none" font-size="56.0" font-family="p22" font-weight="100" text-anchor="start" dominant-baseline="central" x="1849.0" y="1313" transform="translate(1800,1313) rotate(-45) translate(-1800,-1313)">Mihintale</text>
  </g>
  <g>
    <text fill="black" stroke="none" font-size="56.0" font-family="p22" font-weight="100" text-anchor="end" dominant-baseline="central" x="1473.0" y="1035" transform="translate(1522,1035) rotate(0) translate(-1522,-1035)">Madhu Road</text>
  </g>
  <g>
    <circle r="28" fill="white" stroke="black" stroke-width="7.0" cx="966" cy="2425"/>
    <text fill="black" stroke="none" font-size="48.0" font-family="p22" font-weight="100" text-anchor="start" dominant-baseline="central" x="1011.0" y="2425" transform="translate(966,2425) rotate(0) translate(-966,-2425)">C. Fort</text>
  </g>
  <g>
    <circle r="28" fill="white" stroke="black" stroke-width="7.0" cx="1105" cy="2286"/>
    <text fill="black" stroke="none" font-size="48.0" font-family="p22" font-weight="100" text-anchor="start" dominant-baseline="central" x="1150.0" y="2286" transform="translate(1105,2286) rotate(0) translate(-1105,-2286)">Maradana</text>
  </g>
  <g>
    <circle r="28" fill="white" stroke="black" stroke-width="7.0" cx="1244" cy="2147"/>
    <text fill="black" stroke="none" font-size="48.0" font-family="p22" font-weight="100" text-anchor="start" dominant-baseline="central" x="1289.0" y="2147" transform="translate(1244,2147) rotate(0) translate(-1244,-2147)">Ragama</text>
  </g>
  <g>
    <circle r="28" fill="white" stroke="black" stroke-width="7.0" cx="1661" cy="1869"/>
    <text fill="black" stroke="none" font-size="48.0" font-family="p22" font-weight="100" text-anchor="start" dominant-baseline="central" x="1706.0" y="1869" transform="translate(1661,1869) rotate(-45) translate(-1661,-1869)">Polgahawela</text>
  </g>
  <g>
    <circle r="28" fill="white" stroke="black" stroke-width="7.0" cx="1800" cy="1869"/>
    <text fill="black" stroke="none" font-size="48.0" font-family="p22" font-weight="100" text-anchor="start" dominant-baseline="central" x="1845.0" y="1869" transform="translate(1800,1869) rotate(0) translate(-1800,-1869)">Peradeniya</text>
  </g>
  <g>
    <circle r="28" fill="white" stroke="black" stroke-width="7.0" cx="1661" cy="1591"/>
    <text fill="black" stroke="none" font-size="48.0" font-family="p22" font-weight="100" text-anchor="start" dominant-baseline="central" x="1706.0" y="1591" transform="translate(1661,1591) rotate(0) translate(-1661,-1591)">Maho</text>
  </g>
  <g>
    <circle r="28" fill="white" stroke="black" stroke-width="7.0" cx="1661" cy="1313"/>
    <text fill="black" stroke="none" font-size="48.0" font-family="p22" font-weight="100" text-anchor="end" dominant-baseline="central" x="1616.0" y="1313" transform="translate(1661,1313) rotate(0) translate(-1661,-1313)">Mihintale Junction</text>
  </g>
  <g>
    <circle r="28" fill="white" stroke="black" stroke-width="7.0" cx="1661" cy="1174"/>
    <text fill="black" stroke="none" font-size="48.0" font-family="p22" font-weight="100" text-anchor="start" dominant-baseline="central" x="1706.0" y="1174" transform="translate(1661,1174) rotate(0) translate(-1661,-1174)">Medavachchiya</text>
  </g>
  <g>
    <circle r="28" fill="white" stroke="black" stroke-width="7.0" cx="966" cy="1869"/>
    <text fill="black" stroke="none" font-size="48.0" font-family="p22" font-weight="100" text-anchor="start" dominant-baseline="central" x="1011.0" y="1869" transform="translate(966,1869) rotate(0) translate(-966,-1869)">Katunayake S.</text>
  </g>
  <g>
    <circle r="28" fill="white" stroke="black" stroke-width="7.0" cx="1800" cy="1452"/>
    <text fill="black" stroke="none" font-size="48.0" font-family="p22" font-weight="100" text-anchor="start" dominant-baseline="central" x="1845.0" y="1452" transform="translate(1800,1452) rotate(0) translate(-1800,-1452)">Gal Oya</text>
  </g>
  <g>
    <text fill="gray" stroke="none" font-size="44.0" font-family="p22" font-weight="100" text-anchor="start" dominant-baseline="central" x="1426.0" y="2008" transform="translate(1383,2008) rotate(0) translate(-1383,-2008)">Gampaha</text>
  </g>
  <g>
    <text fill="gray" stroke="none" font-size="44.0" font-family="p22" font-weight="100" text-anchor="start" dominant-baseline="central" x="1981.0" y="1730" transform="translate(1938,1730) rotate(-315) translate(-1938,-1730)">Kandy</text>
  </g>
  <g>
    <text fill="gray" stroke="none" font-size="44.0" font-family="p22" font-weight="100" text-anchor="start" dominant-baseline="central" x="1704.0" y="3120" transform="translate(1661,3120) rotate(-45) translate(-1661,-3120)">Galle</text>
  </g>
  <g>
    <text fill="gray" stroke="none" font-size="44.0" font-family="p22" font-weight="100" text-anchor="end" dominant-baseline="central" x="1618.0" y="1730" transform="translate(1661,1730) rotate(0) translate(-1661,-1730)">Kurunegala</text>
  </g>
  <g>
    <text fill="gray" stroke="none" font-size="44.0" font-family="p22" font-weight="100" text-anchor="end" dominant-baseline="central" x="1618.0" y="1452" transform="translate(1661,1452) rotate(0) translate(-1661,-1452)">Anuradhapura</text>
  </g>
  <g>
    <text fill="gray" stroke="none" font-size="44.0" font-family="p22" font-weight="100" text-anchor="start" dominant-baseline="central" x="1704.0" y="1035" transform="translate(1661,1035) rotate(0) translate(-1661,-1035)">Vavuniya</text>
  </g>
  <g>
    <text fill="gray" stroke="none" font-size="44.0" font-family="p22" font-weight="100" text-anchor="start" dominant-baseline="central" x="1704.0" y="757" transform="translate(1661,757) rotate(0) translate(-1661,-757)">Kilinochchi</text>
  </g>
  <g>
    <text fill="gray" stroke="none" font-size="44.0" font-family="p22" font-weight="100" text-anchor="start" dominant-baseline="central" x="870.0" y="1174" transform="translate(827,1174) rotate(0) translate(-827,-1174)">Puttalam</text>
  </g>
  <g>
    <text fill="gray" stroke="none" font-size="44.0" font-family="p22" font-weight="100" text-anchor="start" dominant-baseline="central" x="1981.0" y="1591" transform="translate(1938,1591) rotate(-45) translate(-1938,-1591)">Polonnaruwa</text>
  </g>
  <g>
    <text fill="gray" stroke="none" font-size="40" font-family="p22" font-weight="100" text-anchor="end" dominant-baseline="central" x="1481.0" y="1869" transform="translate(1522,1869) rotate(0) translate(-1522,-1869)">Ambepussa</text>
  </g>
  <g>
    <text fill="gray" stroke="none" font-size="40" font-family="p22" font-weight="100" text-anchor="start" dominant-baseline="central" x="1979.0" y="2008" transform="translate(1938,2008) rotate(0) translate(-1938,-2008)">Gampola</text>
  </g>
  <g>
    <text fill="gray" stroke="none" font-size="40" font-family="p22" font-weight="100" text-anchor="start" dominant-baseline="central" x="2118.0" y="2147" transform="translate(2077,2147) rotate(0) translate(-2077,-2147)">Nawalapitiya</text>
  </g>
  <g>
    <text fill="gray" stroke="none" font-size="40" font-family="p22" font-weight="100" text-anchor="start" dominant-baseline="central" x="2257.0" y="2286" transform="translate(2216,2286) rotate(0) translate(-2216,-2286)">Talawakele</text>
  </g>
  <g>
    <text fill="gray" stroke="none" font-size="40" font-family="p22" font-weight="100" text-anchor="end" dominant-baseline="central" x="2314.0" y="2425" transform="translate(2355,2425) rotate(0) translate(-2355,-2425)">Nanu Oya</text>
  </g>
  <g>
    <text fill="gray" stroke="none" font-size="40" font-family="p22" font-weight="100" text-anchor="start" dominant-baseline="central" x="2535.0" y="2425" transform="translate(2494,2425) rotate(-45) translate(-2494,-2425)">Haputale</text>
  </g>
  <g>
    <text fill="gray" stroke="none" font-size="40" font-family="p22" font-weight="100" text-anchor="start" dominant-baseline="central" x="2674.0" y="2425" transform="translate(2633,2425) rotate(0) translate(-2633,-2425)">Bandarawela</text>
  </g>
  <g>
    <text fill="gray" stroke="none" font-size="40" font-family="p22" font-weight="100" text-anchor="start" dominant-baseline="central" x="1007.0" y="2564" transform="translate(966,2564) rotate(0) translate(-966,-2564)">Panadura</text>
  </g>
  <g>
    <text fill="gray" stroke="none" font-size="40" font-family="p22" font-weight="100" text-anchor="start" dominant-baseline="central" x="1007.0" y="2703" transform="translate(966,2703) rotate(0) translate(-966,-2703)">Kalutara N.</text>
  </g>
  <g>
    <text fill="gray" stroke="none" font-size="40" font-family="p22" font-weight="100" text-anchor="start" dominant-baseline="central" x="1146.0" y="2842" transform="translate(1105,2842) rotate(0) translate(-1105,-2842)">Wadduwa</text>
  </g>
  <g>
    <text fill="gray" stroke="none" font-size="40" font-family="p22" font-weight="100" text-anchor="start" dominant-baseline="central" x="1285.0" y="2981" transform="translate(1244,2981) rotate(0) translate(-1244,-2981)">Aluthgama</text>
  </g>
  <g>
    <text fill="gray" stroke="none" font-size="40" font-family="p22" font-weight="100" text-anchor="end" dominant-baseline="central" x="1342.0" y="3120" transform="translate(1383,3120) rotate(0) translate(-1383,-3120)">Kosgoda</text>
  </g>
  <g>
    <text fill="gray" stroke="none" font-size="40" font-family="p22" font-weight="100" text-anchor="start" dominant-baseline="central" x="1563.0" y="3120" transform="translate(1522,3120) rotate(-45) translate(-1522,-3120)">Ambalangoda</text>
  </g>
  <g>
    <text fill="gray" stroke="none" font-size="40" font-family="p22" font-weight="100" text-anchor="start" dominant-baseline="central" x="1702.0" y="896" transform="translate(1661,896) rotate(0) translate(-1661,-896)">Omanthai</text>
  </g>
  <g>
    <text fill="gray" stroke="none" font-size="40" font-family="p22" font-weight="100" text-anchor="start" dominant-baseline="central" x="1563.0" y="618" transform="translate(1522,618) rotate(0) translate(-1522,-618)">Pallai</text>
  </g>
  <g>
    <text fill="gray" stroke="none" font-size="40" font-family="p22" font-weight="100" text-anchor="start" dominant-baseline="central" x="1285.0" y="2425" transform="translate(1244,2425) rotate(-45) translate(-1244,-2425)">Homagama</text>
  </g>
  <g>
    <text fill="gray" stroke="none" font-size="40" font-family="p22" font-weight="100" text-anchor="start" dominant-baseline="central" x="1146.0" y="2008" transform="translate(1105,2008) rotate(0) translate(-1105,-2008)">Ja-Ela</text>
  </g>
  <g>
    <text fill="gray" stroke="none" font-size="40" font-family="p22" font-weight="100" text-anchor="end" dominant-baseline="central" x="786.0" y="1730" transform="translate(827,1730) rotate(0) translate(-827,-1730)">Negombo</text>
  </g>
  <g>
    <text fill="gray" stroke="none" font-size="40" font-family="p22" font-weight="100" text-anchor="start" dominant-baseline="central" x="868.0" y="1591" transform="translate(827,1591) rotate(0) translate(-827,-1591)">Madampe</text>
  </g>
  <g>
    <text fill="gray" stroke="none" font-size="40" font-family="p22" font-weight="100" text-anchor="start" dominant-baseline="central" x="868.0" y="1452" transform="translate(827,1452) rotate(0) translate(-827,-1452)">Chilaw</text>
  </g>
  <g>
    <text fill="gray" stroke="none" font-size="40" font-family="p22" font-weight="100" text-anchor="start" dominant-baseline="central" x="868.0" y="1313" transform="translate(827,1313) rotate(0) translate(-827,-1313)">Bangadeniya</text>
  </g>
</svg>
