<?xml version="1.0" ?>
<svg xmlns="http://www.w3.org/2000/svg" width="1320" height="1320" padding="148">
  <text fill="gray" stroke="none" font-size="72" font-family="GIL_____" x="660.0" y="92.0" text-anchor="middle" dominant-baseline="hanging">2014</text>
  <text fill="gray" stroke="none" font-size="18" font-family="GIL_____" x="660.0" y="1264.0" text-anchor="middle" dominant-baseline="text-top">History of the Railways in Sri Lanka</text>
  <g>
    <path fill="none" stroke-width="10.5" stroke-opacity="1" d="M 375.0,887.0 L 432.0,830.0 L 489.0,773.0 L 543.1748893826966,718.8251106173034 C 544.1165929217977,717.8834070782023 547.9,714.1333333333333 548.85,713.2 L 600.9669911701828,661.9973420082414 C 601.644660780122,661.3315613388276 604.9,660.0 605.85,660.0 L 660.0,660.0 L 713.2,660.0 C 714.1333333333333,660.0 717.3315613388276,661.308200613585 717.9973420082414,661.9623009203775 L 770.2498671004121,713.2981150460189 C 771.1665780669414,714.1987433640126 774.8174104452914,717.8174104452914 775.7261156679372,718.7261156679372 L 827.9847456736184,770.9847456736184 C 828.6564971157455,771.6564971157455 831.9,773.0 832.85,773.0 L 884.2925,773.0 C 885.195,773.0 888.2763277400417,771.7236722599583 888.9144916100626,771.0855083899374 L 944.0,716.0" stroke="red"/>
    <rect stroke="none" fill-opacity="1" x="939" y="706" width="10" height="20" fill="red"/>
  </g>
  <g>
    <path fill="none" stroke-width="10.5" stroke-opacity="1" d="M 716.0,660.0 L 770.9847456736184,605.0152543263816 C 771.6564971157455,604.3435028842545 774.9,603.0 775.85,603.0 L 830.0,603.0" stroke="purple"/>
    <rect stroke="none" fill-opacity="1" x="825" y="593" width="10" height="20" fill="purple"/>
  </g>
  <g>
    <path fill="none" stroke-width="10.5" stroke-opacity="1" d="M 375.0,887.0 L 375.0,944.0 L 375.0,998.15 C 375.0,999.1 376.34350288425446,1002.3435028842545 377.01525432638164,1003.0152543263816 L 432.0,1058.0 L 489.0,1115.0 L 543.9847456736184,1169.9847456736184 C 544.6564971157455,1170.6564971157457 547.9,1172.0 548.85,1172.0 L 603.0,1172.0 L 660.0,1172.0" stroke="cyan"/>
    <rect stroke="none" fill-opacity="1" x="655" y="1162" width="10" height="20" fill="cyan"/>
  </g>
  <g>
    <path fill="none" stroke-width="10.5" stroke-opacity="1" d="M 660.0,660.0 L 660.0,603.0 L 660.0,546.0 L 660.0,489.0 L 660.0,432.0 L 660.0,375.0 L 660.0,318.0 L 660.0,261.0 L 660.0,206.85 C 660.0,205.9 658.644660780122,202.66843866117242 657.9669911701828,202.00265799175864 L 603.0,148.0" stroke="orange"/>
    <rect stroke="none" fill-opacity="1" x="598" y="138" width="10" height="20" fill="orange"/>
  </g>
  <g>
    <path fill="none" stroke-width="10.5" stroke-opacity="1" d="M 432.0,830.0 L 486.98474567361836,884.9847456736184 C 487.65649711574554,885.6564971157455 490.9,887.0 491.85,887.0 L 546.0,887.0" stroke="darkblue"/>
    <rect stroke="none" fill-opacity="1" x="541" y="877" width="10" height="20" fill="darkblue"/>
  </g>
  <g>
    <path fill="none" stroke-width="10.5" stroke-opacity="1" d="M 489.0,773.0 L 433.9798989873223,717.9798989873224 C 433.3199326582149,717.3199326582148 432.0,714.1333333333333 432.0,713.2 L 432.0,660.0 L 432.0,603.0 L 432.0,546.0 L 432.0,489.0" stroke="green"/>
    <rect stroke="none" fill-opacity="1" x="422" y="484" width="20" height="10" fill="green"/>
  </g>
  <g>
    <path fill="none" stroke-width="10.5" stroke-opacity="1" d="M 660.0,546.0 L 713.2,491.85 C 714.1333333333333,490.9 717.8834070782023,490.8834070782022 718.8251106173034,491.8251106173033 L 770.9847456736184,543.9847456736184 C 771.6564971157455,544.6564971157455 774.9,546.0 775.85,546.0 L 830.0,546.0" stroke="darkgreen"/>
    <rect stroke="none" fill-opacity="1" x="825" y="536" width="10" height="20" fill="darkgreen"/>
  </g>
  <g>
    <path fill="none" stroke-width="10.5" stroke-opacity="1" d="M 716.0,489.0 L 773.0,432.0" stroke="silver"/>
    <rect stroke="none" fill-opacity="1" x="768" y="422" width="10" height="20" fill="silver"/>
  </g>
  <g>
    <path fill="none" stroke-width="10.5" stroke-opacity="1" d="M 660.0,432.0 L 716.0,432.0" stroke="maroon"/>
    <rect stroke="none" fill-opacity="1" x="711" y="422" width="10" height="20" fill="maroon"/>
  </g>
  <g>
    <path fill="none" stroke-width="10.5" stroke-opacity="1" d="M 660.0,375.0 L 603.0,318.0" stroke="blue"/>
    <rect stroke="none" fill-opacity="1" x="598" y="308" width="10" height="20" fill="blue"/>
  </g>
  <g>
    <text fill="black" stroke="none" font-size="25.2" font-family="GIL_____" font-weight="100" text-anchor="start" dominant-baseline="central" x="964.1" y="716" transform="translate(944,716) rotate(0) translate(-944,-716)">BADULLA</text>
  </g>
  <g>
    <text fill="black" stroke="none" font-size="25.2" font-family="GIL_____" font-weight="100" text-anchor="start" dominant-baseline="central" x="850.1" y="603" transform="translate(830,603) rotate(0) translate(-830,-603)">MATALE</text>
  </g>
  <g>
    <text fill="black" stroke="none" font-size="25.2" font-family="GIL_____" font-weight="100" text-anchor="start" dominant-baseline="central" x="680.1" y="1172" transform="translate(660,1172) rotate(0) translate(-660,-1172)">MATARA</text>
  </g>
  <g>
    <text fill="black" stroke="none" font-size="25.2" font-family="GIL_____" font-weight="100" text-anchor="start" dominant-baseline="central" x="623.1" y="148" transform="translate(603,148) rotate(0) translate(-603,-148)">JAFFNA</text>
  </g>
  <g>
    <text fill="black" stroke="none" font-size="25.2" font-family="GIL_____" font-weight="100" text-anchor="start" dominant-baseline="central" x="566.1" y="887" transform="translate(546,887) rotate(0) translate(-546,-887)">Avissawella</text>
  </g>
  <g>
    <text fill="black" stroke="none" font-size="25.2" font-family="GIL_____" font-weight="100" text-anchor="start" dominant-baseline="central" x="452.1" y="489" transform="translate(432,489) rotate(0) translate(-432,-489)">Periyanagavillu</text>
  </g>
  <g>
    <text fill="black" stroke="none" font-size="25.2" font-family="GIL_____" font-weight="100" text-anchor="start" dominant-baseline="central" x="850.1" y="546" transform="translate(830,546) rotate(0) translate(-830,-546)">BATTICALOA</text>
  </g>
  <g>
    <text fill="black" stroke="none" font-size="25.2" font-family="GIL_____" font-weight="100" text-anchor="start" dominant-baseline="central" x="793.1" y="432" transform="translate(773,432) rotate(0) translate(-773,-432)">TRINCOMALEE</text>
  </g>
  <g>
    <text fill="black" stroke="none" font-size="25.2" font-family="GIL_____" font-weight="100" text-anchor="start" dominant-baseline="central" x="736.1" y="432" transform="translate(716,432) rotate(-45) translate(-716,-432)">Mihintale</text>
  </g>
  <g>
    <text fill="black" stroke="none" font-size="25.2" font-family="GIL_____" font-weight="100" text-anchor="end" dominant-baseline="central" x="582.9" y="318" transform="translate(603,318) rotate(0) translate(-603,-318)">Madhu Road</text>
  </g>
  <g>
    <circle r="10" fill="white" stroke="black" stroke-width="2.5" cx="375" cy="887"/>
    <text fill="black" stroke="none" font-size="21.599999999999998" font-family="GIL_____" font-weight="100" text-anchor="end" dominant-baseline="central" x="356.7" y="887" transform="translate(375,887) rotate(0) translate(-375,-887)">COLOMBO Fort</text>
  </g>
  <g>
    <circle r="10" fill="white" stroke="black" stroke-width="2.5" cx="432" cy="830"/>
    <text fill="black" stroke="none" font-size="21.599999999999998" font-family="GIL_____" font-weight="100" text-anchor="start" dominant-baseline="central" x="450.3" y="830" transform="translate(432,830) rotate(0) translate(-432,-830)">Maradana</text>
  </g>
  <g>
    <circle r="10" fill="white" stroke="black" stroke-width="2.5" cx="489" cy="773"/>
    <text fill="black" stroke="none" font-size="21.599999999999998" font-family="GIL_____" font-weight="100" text-anchor="start" dominant-baseline="central" x="507.3" y="773" transform="translate(489,773) rotate(0) translate(-489,-773)">Ragama</text>
  </g>
  <g>
    <circle r="10" fill="white" stroke="black" stroke-width="2.5" cx="660" cy="660"/>
    <text fill="black" stroke="none" font-size="21.599999999999998" font-family="GIL_____" font-weight="100" text-anchor="end" dominant-baseline="central" x="641.7" y="660" transform="translate(660,660) rotate(45) translate(-660,-660)">Polgahawela</text>
  </g>
  <g>
    <circle r="10" fill="white" stroke="black" stroke-width="2.5" cx="716" cy="660"/>
    <text fill="black" stroke="none" font-size="21.599999999999998" font-family="GIL_____" font-weight="100" text-anchor="start" dominant-baseline="central" x="734.3" y="660" transform="translate(716,660) rotate(0) translate(-716,-660)">Peradeniya</text>
  </g>
  <g>
    <circle r="10" fill="white" stroke="black" stroke-width="2.5" cx="660" cy="546"/>
    <text fill="black" stroke="none" font-size="21.599999999999998" font-family="GIL_____" font-weight="100" text-anchor="end" dominant-baseline="central" x="641.7" y="546" transform="translate(660,546) rotate(45) translate(-660,-546)">Maho</text>
  </g>
  <g>
    <circle r="10" fill="white" stroke="black" stroke-width="2.5" cx="660" cy="432"/>
    <text fill="black" stroke="none" font-size="21.599999999999998" font-family="GIL_____" font-weight="100" text-anchor="start" dominant-baseline="central" x="678.3" y="432" transform="translate(660,432) rotate(-45) translate(-660,-432)">Mihintale Junction</text>
  </g>
  <g>
    <circle r="10" fill="white" stroke="black" stroke-width="2.5" cx="660" cy="375"/>
    <text fill="black" stroke="none" font-size="21.599999999999998" font-family="GIL_____" font-weight="100" text-anchor="end" dominant-baseline="central" x="641.7" y="375" transform="translate(660,375) rotate(0) translate(-660,-375)">Medavachchiya</text>
  </g>
  <g>
    <circle r="10" fill="white" stroke="black" stroke-width="2.5" cx="716" cy="489"/>
    <text fill="black" stroke="none" font-size="21.599999999999998" font-family="GIL_____" font-weight="100" text-anchor="start" dominant-baseline="central" x="734.3" y="489" transform="translate(716,489) rotate(0) translate(-716,-489)">Gal Oya</text>
  </g>
  <g>
    <text fill="gray" stroke="none" font-size="19.8" font-family="GIL_____" font-weight="100" text-anchor="start" dominant-baseline="central" x="563.4" y="716" transform="translate(546,716) rotate(0) translate(-546,-716)">GAMPAHA</text>
  </g>
  <g>
    <text fill="gray" stroke="none" font-size="19.8" font-family="GIL_____" font-weight="100" text-anchor="start" dominant-baseline="central" x="790.4" y="603" transform="translate(773,603) rotate(-337.5) translate(-773,-603)">KANDY</text>
  </g>
  <g>
    <text fill="gray" stroke="none" font-size="19.8" font-family="GIL_____" font-weight="100" text-anchor="start" dominant-baseline="central" x="620.4" y="1172" transform="translate(603,1172) rotate(-45) translate(-603,-1172)">GALLE</text>
  </g>
  <g/>
  <g>
    <text fill="gray" stroke="none" font-size="19.8" font-family="GIL_____" font-weight="100" text-anchor="end" dominant-baseline="central" x="642.6" y="489" transform="translate(660,489) rotate(-35) translate(-660,-489)">ANURADHAPURA</text>
  </g>
  <g>
    <text fill="gray" stroke="none" font-size="19.8" font-family="GIL_____" font-weight="100" text-anchor="start" dominant-baseline="central" x="677.4" y="318" transform="translate(660,318) rotate(-45) translate(-660,-318)">VAVUNIYA</text>
  </g>
  <g>
    <text fill="gray" stroke="none" font-size="19.8" font-family="GIL_____" font-weight="100" text-anchor="end" dominant-baseline="central" x="642.6" y="204" transform="translate(660,204) rotate(0) translate(-660,-204)">KILINOCHCHI</text>
  </g>
  <g>
    <text fill="gray" stroke="none" font-size="19.8" font-family="GIL_____" font-weight="100" text-anchor="start" dominant-baseline="central" x="790.4" y="546" transform="translate(773,546) rotate(-22.5) translate(-773,-546)">POLONNARUWA</text>
  </g>
  <g>
    <text fill="gray" stroke="none" font-size="18" font-family="GIL_____" font-weight="100" text-anchor="end" dominant-baseline="central" x="586.5" y="660" transform="translate(603,660) rotate(0) translate(-603,-660)">Ambepussa</text>
  </g>
  <g>
    <text fill="gray" stroke="none" font-size="18" font-family="GIL_____" font-weight="100" text-anchor="start" dominant-baseline="central" x="789.5" y="716" transform="translate(773,716) rotate(0) translate(-773,-716)">Nawalapitiya</text>
  </g>
  <g>
    <text fill="gray" stroke="none" font-size="18" font-family="GIL_____" font-weight="100" text-anchor="end" dominant-baseline="central" x="813.5" y="773" transform="translate(830,773) rotate(0) translate(-830,-773)">Nanu Oya</text>
  </g>
  <g>
    <text fill="gray" stroke="none" font-size="18" font-family="GIL_____" font-weight="100" text-anchor="start" dominant-baseline="central" x="903.5" y="773" transform="translate(887,773) rotate(0) translate(-887,-773)">Bandarawela</text>
  </g>
  <g>
    <text fill="gray" stroke="none" font-size="18" font-family="GIL_____" font-weight="100" text-anchor="start" dominant-baseline="central" x="391.5" y="944" transform="translate(375,944) rotate(0) translate(-375,-944)">Panadura</text>
  </g>
  <g>
    <text fill="gray" stroke="none" font-size="18" font-family="GIL_____" font-weight="100" text-anchor="start" dominant-baseline="central" x="391.5" y="1001" transform="translate(375,1001) rotate(0) translate(-375,-1001)">KALUTARA North</text>
  </g>
  <g>
    <text fill="gray" stroke="none" font-size="18" font-family="GIL_____" font-weight="100" text-anchor="start" dominant-baseline="central" x="448.5" y="1058" transform="translate(432,1058) rotate(0) translate(-432,-1058)">Aluthgama</text>
  </g>
  <g>
    <text fill="gray" stroke="none" font-size="18" font-family="GIL_____" font-weight="100" text-anchor="start" dominant-baseline="central" x="505.5" y="1115" transform="translate(489,1115) rotate(0) translate(-489,-1115)">Kosgoda</text>
  </g>
  <g>
    <text fill="gray" stroke="none" font-size="18" font-family="GIL_____" font-weight="100" text-anchor="end" dominant-baseline="central" x="529.5" y="1172" transform="translate(546,1172) rotate(0) translate(-546,-1172)">Ambalangoda</text>
  </g>
  <g>
    <text fill="gray" stroke="none" font-size="18" font-family="GIL_____" font-weight="100" text-anchor="end" dominant-baseline="central" x="643.5" y="261" transform="translate(660,261) rotate(0) translate(-660,-261)">Omanthai</text>
  </g>
  <g>
    <text fill="gray" stroke="none" font-size="18" font-family="GIL_____" font-weight="100" text-anchor="start" dominant-baseline="central" x="505.5" y="887" transform="translate(489,887) rotate(-315) translate(-489,-887)">Homagama</text>
  </g>
  <g>
    <text fill="gray" stroke="none" font-size="18" font-family="GIL_____" font-weight="100" text-anchor="end" dominant-baseline="central" x="415.5" y="716" transform="translate(432,716) rotate(0) translate(-432,-716)">Negombo</text>
  </g>
  <g>
    <text fill="gray" stroke="none" font-size="18" font-family="GIL_____" font-weight="100" text-anchor="end" dominant-baseline="central" x="415.5" y="660" transform="translate(432,660) rotate(0) translate(-432,-660)">Chilaw</text>
  </g>
  <g>
    <text fill="gray" stroke="none" font-size="18" font-family="GIL_____" font-weight="100" text-anchor="end" dominant-baseline="central" x="415.5" y="603" transform="translate(432,603) rotate(0) translate(-432,-603)">Bangadeniya</text>
  </g>
  <g>
    <text fill="gray" stroke="none" font-size="18" font-family="GIL_____" font-weight="100" text-anchor="end" dominant-baseline="central" x="415.5" y="546" transform="translate(432,546) rotate(0) translate(-432,-546)">Puttalam</text>
  </g>
</svg>
