<?xml version="1.0" ?>
<svg xmlns="http://www.w3.org/2000/svg" width="2880" height="2880" padding="288">
  <text fill="#fcfcfc" stroke="none" font-size="480.0" font-family="p22" x="1440.0" y="1440.0" text-anchor="middle" dominant-baseline="center">@nuuuwan</text>
  <text fill="black" stroke="none" font-size="80" font-family="p22" x="1440.0" y="144.0" text-anchor="middle" dominant-baseline="hanging">2014</text>
  <text fill="gray" stroke="none" font-size="40" font-family="p22" x="1440.0" y="194.0" text-anchor="middle" dominant-baseline="hanging">History of the Railways in Sri Lanka</text>
  <text fill="gray" stroke="none" font-size="38.4" font-family="p22" x="1440.0" y="2776.0" text-anchor="middle" dominant-baseline="text-top">data from multiple sources ~ music by @bensound ~ visualization by @nuuuwan</text>
  <g>
    <path fill="none" stroke-width="29.400000000000002" stroke-opacity="1" d="M 712.0,1985.0 L 833.0,1864.0 L 954.0,1743.0 L 1076.0,1621.0 L 1192.7220039738213,1504.2779960261787 C 1194.1480026492143,1502.8519973507857 1201.0333333333333,1500.0 1203.05,1500.0 L 1318.0,1500.0 L 1433.9,1500.0 C 1435.9333333333334,1500.0 1442.8755675768252,1502.8755675768252 1444.3133513652378,1504.3133513652378 L 1555.1656675682618,1615.1656675682618 C 1557.110445045508,1617.110445045508 1564.8735157564765,1624.9055282833895 1566.8102736347148,1626.8582924250843 L 1676.2405136817358,1737.1929146212542 C 1678.1603424544905,1739.1286097475029 1685.855556545683,1746.855556545683 1687.7833348185245,1748.7833348185245 L 1797.2391667409263,1858.2391667409263 C 1799.1594444939508,1860.1594444939508 1806.856327607733,1867.8247183650467 1808.7844914115994,1869.7370775475702 L 1920.7044354246307,1980.7396449703303 C 1922.136290283087,1982.1597633135536 1929.0333333333333,1985.0 1931.05,1985.0 L 2046.0,1985.0 L 2160.95,1985.0 C 2162.9666666666667,1985.0 2169.851997350786,1982.1480026492143 2171.2779960261787,1980.7220039738213 L 2288.0,1864.0" stroke="red"/>
    <rect stroke="none" fill-opacity="1" x="2274" y="1836" width="28" height="56" fill="red"/>
  </g>
  <g>
    <path fill="none" stroke-width="29.400000000000002" stroke-opacity="1" d="M 1440.0,1500.0 L 1556.7220039738213,1383.2779960261787 C 1558.1480026492143,1381.8519973507857 1565.0333333333333,1379.0 1567.05,1379.0 L 1682.0,1379.0" stroke="purple"/>
    <rect stroke="none" fill-opacity="1" x="1668" y="1351" width="28" height="56" fill="purple"/>
  </g>
  <g>
    <path fill="none" stroke-width="29.400000000000002" stroke-opacity="1" d="M 712.0,1985.0 L 712.0,2106.0 L 712.0,2221.9 C 712.0,2223.9333333333334 714.8755675768253,2230.8755675768252 716.313351365238,2232.313351365238 L 833.0,2349.0 L 954.0,2470.0 L 1071.7220039738213,2587.7220039738213 C 1073.1480026492143,2589.148002649214 1080.0333333333333,2592.0 1082.05,2592.0 L 1197.0,2592.0 L 1318.0,2592.0" stroke="cyan"/>
    <rect stroke="none" fill-opacity="1" x="1304" y="2564" width="28" height="56" fill="cyan"/>
  </g>
  <g>
    <path fill="none" stroke-width="29.400000000000002" stroke-opacity="1" d="M 1318.0,1500.0 L 1318.0,1379.0 L 1318.0,1258.0 L 1318.0,1136.0 L 1318.0,1015.0 L 1318.0,894.0 L 1318.0,773.0 L 1318.0,651.0 L 1318.0,536.05 C 1318.0,534.0333333333333 1315.1480026492143,527.1480026492143 1313.7220039738213,525.7220039738214 L 1197.0,409.0 L 1076.0,288.0" stroke="orange"/>
    <rect stroke="none" fill-opacity="1" x="1062" y="260" width="28" height="56" fill="orange"/>
  </g>
  <g>
    <path fill="none" stroke-width="29.400000000000002" stroke-opacity="1" d="M 833.0,1864.0 L 949.686648634762,1980.6866486347622 C 951.1244324231747,1982.1244324231748 958.0666666666667,1985.0 960.1,1985.0 L 1076.0,1985.0" stroke="darkblue"/>
    <rect stroke="none" fill-opacity="1" x="1062" y="1957" width="28" height="56" fill="darkblue"/>
  </g>
  <g>
    <path fill="none" stroke-width="29.400000000000002" stroke-opacity="1" d="M 954.0,1743.0 L 839.0250518634832,1627.0748456805368 C 837.0167012423221,1625.0498971203579 828.9666666666667,1616.9666666666667 826.95,1614.95 L 712.0,1500.0 L 595.2779960261786,1383.2779960261787 C 593.8519973507857,1381.8519973507857 591.0,1374.9666666666667 591.0,1372.95 L 591.0,1258.0 L 591.0,1136.0 L 591.0,1015.0 L 591.0,894.0 L 591.0,773.0" stroke="green"/>
    <rect stroke="none" fill-opacity="1" x="563" y="759" width="56" height="28" fill="green"/>
  </g>
  <g>
    <path fill="none" stroke-width="29.400000000000002" stroke-opacity="1" d="M 1318.0,1258.0 L 1433.9249485598887,1142.0750514401113 C 1435.9499657065924,1140.0500342934076 1444.0333333333333,1140.0666666666666 1446.05,1142.1 L 1556.7396449703303,1253.7044354246307 C 1558.1597633135536,1255.136290283087 1565.0333333333333,1258.0 1567.05,1258.0 L 1682.0,1258.0" stroke="darkgreen"/>
    <rect stroke="none" fill-opacity="1" x="1668" y="1230" width="28" height="56" fill="darkgreen"/>
  </g>
  <g>
    <path fill="none" stroke-width="29.400000000000002" stroke-opacity="1" d="M 1440.0,1136.0 L 1561.0,1015.0" stroke="silver"/>
    <rect stroke="none" fill-opacity="1" x="1547" y="987" width="28" height="56" fill="silver"/>
  </g>
  <g>
    <path fill="none" stroke-width="29.400000000000002" stroke-opacity="1" d="M 712.0,1500.0 L 712.0,1379.0" stroke="pink"/>
    <rect stroke="none" fill-opacity="1" x="684" y="1365" width="56" height="28" fill="pink"/>
  </g>
  <g>
    <path fill="none" stroke-width="29.400000000000002" stroke-opacity="1" d="M 1318.0,1015.0 L 1440.0,1015.0" stroke="maroon"/>
    <rect stroke="none" fill-opacity="1" x="1426" y="987" width="28" height="56" fill="maroon"/>
  </g>
  <g>
    <path fill="none" stroke-width="29.400000000000002" stroke-opacity="1" d="M 1318.0,894.0 L 1197.0,773.0" stroke="blue"/>
    <rect stroke="none" fill-opacity="1" x="1183" y="745" width="28" height="56" fill="blue"/>
  </g>
  <g>
    <text fill="black" stroke="none" font-size="56.0" font-family="p22" font-weight="100" text-anchor="start" dominant-baseline="central" x="2337.0" y="1864" transform="translate(2288,1864) rotate(0) translate(-2288,-1864)">BADULLA</text>
  </g>
  <g>
    <text fill="black" stroke="none" font-size="56.0" font-family="p22" font-weight="100" text-anchor="start" dominant-baseline="central" x="1731.0" y="1379" transform="translate(1682,1379) rotate(0) translate(-1682,-1379)">MATALE</text>
  </g>
  <g>
    <text fill="black" stroke="none" font-size="56.0" font-family="p22" font-weight="100" text-anchor="start" dominant-baseline="central" x="1367.0" y="2592" transform="translate(1318,2592) rotate(0) translate(-1318,-2592)">MATARA</text>
  </g>
  <g>
    <text fill="black" stroke="none" font-size="56.0" font-family="p22" font-weight="100" text-anchor="start" dominant-baseline="central" x="1125.0" y="288" transform="translate(1076,288) rotate(0) translate(-1076,-288)">JAFFNA</text>
  </g>
  <g>
    <text fill="black" stroke="none" font-size="56.0" font-family="p22" font-weight="100" text-anchor="start" dominant-baseline="central" x="1125.0" y="1985" transform="translate(1076,1985) rotate(0) translate(-1076,-1985)">Avissawella</text>
  </g>
  <g>
    <text fill="black" stroke="none" font-size="56.0" font-family="p22" font-weight="100" text-anchor="start" dominant-baseline="central" x="640.0" y="773" transform="translate(591,773) rotate(0) translate(-591,-773)">Periyanagavillu</text>
  </g>
  <g>
    <text fill="black" stroke="none" font-size="56.0" font-family="p22" font-weight="100" text-anchor="start" dominant-baseline="central" x="1731.0" y="1258" transform="translate(1682,1258) rotate(0) translate(-1682,-1258)">BATTICALOA</text>
  </g>
  <g>
    <text fill="black" stroke="none" font-size="56.0" font-family="p22" font-weight="100" text-anchor="start" dominant-baseline="central" x="1610.0" y="1015" transform="translate(1561,1015) rotate(0) translate(-1561,-1015)">TRINCOMALEE</text>
  </g>
  <g>
    <text fill="black" stroke="none" font-size="56.0" font-family="p22" font-weight="100" text-anchor="start" dominant-baseline="central" x="761.0" y="1379" transform="translate(712,1379) rotate(0) translate(-712,-1379)">CMB Airport</text>
  </g>
  <g>
    <text fill="black" stroke="none" font-size="56.0" font-family="p22" font-weight="100" text-anchor="start" dominant-baseline="central" x="1489.0" y="1015" transform="translate(1440,1015) rotate(-45) translate(-1440,-1015)">Mihintale</text>
  </g>
  <g>
    <text fill="black" stroke="none" font-size="56.0" font-family="p22" font-weight="100" text-anchor="end" dominant-baseline="central" x="1148.0" y="773" transform="translate(1197,773) rotate(45) translate(-1197,-773)">Madhu Road</text>
  </g>
  <g>
    <circle r="28" fill="white" stroke="black" stroke-width="7.0" cx="712" cy="1985"/>
    <text fill="black" stroke="none" font-size="48.0" font-family="p22" font-weight="100" text-anchor="end" dominant-baseline="central" x="667.0" y="1985" transform="translate(712,1985) rotate(0) translate(-712,-1985)">COLOMBO Fort</text>
  </g>
  <g>
    <circle r="28" fill="white" stroke="black" stroke-width="7.0" cx="833" cy="1864"/>
    <text fill="black" stroke="none" font-size="48.0" font-family="p22" font-weight="100" text-anchor="start" dominant-baseline="central" x="878.0" y="1864" transform="translate(833,1864) rotate(0) translate(-833,-1864)">Maradana</text>
  </g>
  <g>
    <circle r="28" fill="white" stroke="black" stroke-width="7.0" cx="954" cy="1743"/>
    <text fill="black" stroke="none" font-size="48.0" font-family="p22" font-weight="100" text-anchor="start" dominant-baseline="central" x="999.0" y="1743" transform="translate(954,1743) rotate(0) translate(-954,-1743)">Ragama</text>
  </g>
  <g>
    <circle r="28" fill="white" stroke="black" stroke-width="7.0" cx="1318" cy="1500"/>
    <text fill="black" stroke="none" font-size="48.0" font-family="p22" font-weight="100" text-anchor="end" dominant-baseline="central" x="1273.0" y="1500" transform="translate(1318,1500) rotate(45) translate(-1318,-1500)">Polgahawela</text>
  </g>
  <g>
    <circle r="28" fill="white" stroke="black" stroke-width="7.0" cx="1440" cy="1500"/>
    <text fill="black" stroke="none" font-size="48.0" font-family="p22" font-weight="100" text-anchor="start" dominant-baseline="central" x="1485.0" y="1500" transform="translate(1440,1500) rotate(0) translate(-1440,-1500)">Peradeniya</text>
  </g>
  <g>
    <circle r="28" fill="white" stroke="black" stroke-width="7.0" cx="1318" cy="1258"/>
    <text fill="black" stroke="none" font-size="48.0" font-family="p22" font-weight="100" text-anchor="end" dominant-baseline="central" x="1273.0" y="1258" transform="translate(1318,1258) rotate(45) translate(-1318,-1258)">Maho</text>
  </g>
  <g>
    <circle r="28" fill="white" stroke="black" stroke-width="7.0" cx="1318" cy="1015"/>
    <text fill="black" stroke="none" font-size="48.0" font-family="p22" font-weight="100" text-anchor="start" dominant-baseline="central" x="1363.0" y="1015" transform="translate(1318,1015) rotate(-45) translate(-1318,-1015)">Mihintale Junction</text>
  </g>
  <g>
    <circle r="28" fill="white" stroke="black" stroke-width="7.0" cx="1318" cy="894"/>
    <text fill="black" stroke="none" font-size="48.0" font-family="p22" font-weight="100" text-anchor="start" dominant-baseline="central" x="1363.0" y="894" transform="translate(1318,894) rotate(-45) translate(-1318,-894)">Medavachchiya</text>
  </g>
  <g>
    <circle r="28" fill="white" stroke="black" stroke-width="7.0" cx="712" cy="1500"/>
    <text fill="black" stroke="none" font-size="48.0" font-family="p22" font-weight="100" text-anchor="start" dominant-baseline="central" x="757.0" y="1500" transform="translate(712,1500) rotate(0) translate(-712,-1500)">Katunayake South</text>
  </g>
  <g>
    <circle r="28" fill="white" stroke="black" stroke-width="7.0" cx="1440" cy="1136"/>
    <text fill="black" stroke="none" font-size="48.0" font-family="p22" font-weight="100" text-anchor="start" dominant-baseline="central" x="1485.0" y="1136" transform="translate(1440,1136) rotate(0) translate(-1440,-1136)">Gal Oya</text>
  </g>
  <g>
    <text fill="gray" stroke="none" font-size="44.0" font-family="p22" font-weight="100" text-anchor="start" dominant-baseline="central" x="1119.0" y="1621" transform="translate(1076,1621) rotate(0) translate(-1076,-1621)">GAMPAHA</text>
  </g>
  <g/>
  <g>
    <text fill="gray" stroke="none" font-size="44.0" font-family="p22" font-weight="100" text-anchor="start" dominant-baseline="central" x="1240.0" y="2592" transform="translate(1197,2592) rotate(-45) translate(-1197,-2592)">GALLE</text>
  </g>
  <g>
    <text fill="gray" stroke="none" font-size="44.0" font-family="p22" font-weight="100" text-anchor="end" dominant-baseline="central" x="1275.0" y="1379" transform="translate(1318,1379) rotate(45) translate(-1318,-1379)">KURUNEGALA</text>
  </g>
  <g/>
  <g>
    <text fill="gray" stroke="none" font-size="44.0" font-family="p22" font-weight="100" text-anchor="start" dominant-baseline="central" x="1361.0" y="773" transform="translate(1318,773) rotate(-45) translate(-1318,-773)">VAVUNIYA</text>
  </g>
  <g>
    <text fill="gray" stroke="none" font-size="44.0" font-family="p22" font-weight="100" text-anchor="start" dominant-baseline="central" x="1361.0" y="530" transform="translate(1318,530) rotate(-45) translate(-1318,-530)">KILINOCHCHI</text>
  </g>
  <g>
    <text fill="gray" stroke="none" font-size="44.0" font-family="p22" font-weight="100" text-anchor="end" dominant-baseline="central" x="548.0" y="894" transform="translate(591,894) rotate(0) translate(-591,-894)">PUTTALAM</text>
  </g>
  <g/>
  <g>
    <text fill="gray" stroke="none" font-size="40" font-family="p22" font-weight="100" text-anchor="start" dominant-baseline="central" x="1238.0" y="1500" transform="translate(1197,1500) rotate(-22.5) translate(-1197,-1500)">Ambepussa</text>
  </g>
  <g>
    <text fill="gray" stroke="none" font-size="40" font-family="p22" font-weight="100" text-anchor="start" dominant-baseline="central" x="1602.0" y="1621" transform="translate(1561,1621) rotate(0) translate(-1561,-1621)">Gampola</text>
  </g>
  <g>
    <text fill="gray" stroke="none" font-size="40" font-family="p22" font-weight="100" text-anchor="start" dominant-baseline="central" x="1723.0" y="1743" transform="translate(1682,1743) rotate(0) translate(-1682,-1743)">Nawalapitiya</text>
  </g>
  <g>
    <text fill="gray" stroke="none" font-size="40" font-family="p22" font-weight="100" text-anchor="start" dominant-baseline="central" x="1844.0" y="1864" transform="translate(1803,1864) rotate(0) translate(-1803,-1864)">Talawakele</text>
  </g>
  <g>
    <text fill="gray" stroke="none" font-size="40" font-family="p22" font-weight="100" text-anchor="end" dominant-baseline="central" x="1884.0" y="1985" transform="translate(1925,1985) rotate(0) translate(-1925,-1985)">Nanu Oya</text>
  </g>
  <g>
    <text fill="gray" stroke="none" font-size="40" font-family="p22" font-weight="100" text-anchor="start" dominant-baseline="central" x="2087.0" y="1985" transform="translate(2046,1985) rotate(-315) translate(-2046,-1985)">Haputale</text>
  </g>
  <g>
    <text fill="gray" stroke="none" font-size="40" font-family="p22" font-weight="100" text-anchor="start" dominant-baseline="central" x="2208.0" y="1985" transform="translate(2167,1985) rotate(0) translate(-2167,-1985)">Bandarawela</text>
  </g>
  <g>
    <text fill="gray" stroke="none" font-size="40" font-family="p22" font-weight="100" text-anchor="start" dominant-baseline="central" x="753.0" y="2106" transform="translate(712,2106) rotate(0) translate(-712,-2106)">Panadura</text>
  </g>
  <g>
    <text fill="gray" stroke="none" font-size="40" font-family="p22" font-weight="100" text-anchor="start" dominant-baseline="central" x="753.0" y="2228" transform="translate(712,2228) rotate(0) translate(-712,-2228)">KALUTARA North</text>
  </g>
  <g>
    <text fill="gray" stroke="none" font-size="40" font-family="p22" font-weight="100" text-anchor="start" dominant-baseline="central" x="874.0" y="2349" transform="translate(833,2349) rotate(0) translate(-833,-2349)">Aluthgama</text>
  </g>
  <g>
    <text fill="gray" stroke="none" font-size="40" font-family="p22" font-weight="100" text-anchor="end" dominant-baseline="central" x="913.0" y="2470" transform="translate(954,2470) rotate(0) translate(-954,-2470)">Kosgoda</text>
  </g>
  <g>
    <text fill="gray" stroke="none" font-size="40" font-family="p22" font-weight="100" text-anchor="end" dominant-baseline="central" x="1035.0" y="2592" transform="translate(1076,2592) rotate(0) translate(-1076,-2592)">Ambalangoda</text>
  </g>
  <g>
    <text fill="gray" stroke="none" font-size="40" font-family="p22" font-weight="100" text-anchor="start" dominant-baseline="central" x="1359.0" y="651" transform="translate(1318,651) rotate(-45) translate(-1318,-651)">Omanthai</text>
  </g>
  <g/>
  <g>
    <text fill="gray" stroke="none" font-size="40" font-family="p22" font-weight="100" text-anchor="start" dominant-baseline="central" x="995.0" y="1985" transform="translate(954,1985) rotate(-337.5) translate(-954,-1985)">Homagama</text>
  </g>
  <g>
    <text fill="gray" stroke="none" font-size="40" font-family="p22" font-weight="100" text-anchor="end" dominant-baseline="central" x="792.0" y="1621" transform="translate(833,1621) rotate(0) translate(-833,-1621)">Ja-Ela</text>
  </g>
  <g>
    <text fill="gray" stroke="none" font-size="40" font-family="p22" font-weight="100" text-anchor="end" dominant-baseline="central" x="550.0" y="1379" transform="translate(591,1379) rotate(0) translate(-591,-1379)">Negombo</text>
  </g>
  <g>
    <text fill="gray" stroke="none" font-size="40" font-family="p22" font-weight="100" text-anchor="start" dominant-baseline="central" x="632.0" y="1258" transform="translate(591,1258) rotate(0) translate(-591,-1258)">Madampe</text>
  </g>
  <g>
    <text fill="gray" stroke="none" font-size="40" font-family="p22" font-weight="100" text-anchor="end" dominant-baseline="central" x="550.0" y="1136" transform="translate(591,1136) rotate(0) translate(-591,-1136)">Chilaw</text>
  </g>
  <g>
    <text fill="gray" stroke="none" font-size="40" font-family="p22" font-weight="100" text-anchor="end" dominant-baseline="central" x="550.0" y="1015" transform="translate(591,1015) rotate(0) translate(-591,-1015)">Bangadeniya</text>
  </g>
</svg>
