<?xml version="1.0" ?>
<svg xmlns="http://www.w3.org/2000/svg" width="3600" height="3600" padding="720">
  <text fill="#fcfcfc" stroke="none" font-size="600.0" font-family="p22" x="1800.0" y="1800.0" text-anchor="middle" dominant-baseline="center">@nuuuwan</text>
  <text fill="black" stroke="none" font-size="160" font-family="p22" x="1800.0" y="360.0" text-anchor="middle" dominant-baseline="hanging">2014</text>
  <text fill="gray" stroke="none" font-size="40" font-family="p22" x="1800.0" y="410.0" text-anchor="middle" dominant-baseline="hanging"/>
  <text fill="gray" stroke="none" font-size="40" font-family="p22" x="1800.0" y="3280.0" text-anchor="middle" dominant-baseline="text-top">data from multiple sources ~ music by @bensound ~ visualization by @nuuuwan</text>
  <g>
    <path fill="none" stroke-width="29.400000000000002" stroke-opacity="1" d="M 1117.0,2311.0 L 1225.324944934188,2202.675055065812 C 1227.2166299561252,2200.7833700438746 1234.8,2193.233333333333 1236.7,2191.35 L 1339.585,2089.3675 C 1341.39,2087.5783333333334 1348.5783333333334,2080.39 1350.3675,2078.585 L 1452.618375,1975.42925 C 1454.41225,1973.6195 1461.6036599667907,1966.3963400332093 1463.4054899501862,1964.5945100498138 L 1567.9694913472367,1860.0305086527633 C 1569.312994231491,1858.687005768509 1575.8,1856.0 1577.7,1856.0 L 1686.0,1856.0 L 1794.3,1856.0 C 1796.2,1856.0 1802.6751427811746,1858.6988166110964 1804.0127141717617,1860.0482249166446 L 1907.550635708588,1964.5024112458323 C 1909.367090472392,1966.3349408305548 1916.6490197554492,1973.6490197554492 1918.473529633174,1975.473529633174 L 2021.5736764816586,2078.573676481659 C 2023.3824509877725,2080.3824509877722 2030.633450095298,2087.601577726041 2032.450175142947,2089.402366589062 L 2135.5725087571473,2191.620118329453 C 2137.381672504765,2193.4134122196356 2144.5865877803644,2200.618327495235 2146.379881670547,2202.4274912428527 L 2249.9872858282383,2306.951775083355 C 2251.3248572188254,2308.3011833889036 2257.8,2311.0 2259.7,2311.0 L 2368.0,2311.0 L 2476.3,2311.0 C 2478.2,2311.0 2484.6751427811746,2308.3011833889036 2486.0127141717617,2306.951775083355 L 2595.0,2197.0" stroke="red"/>
    <rect stroke="none" fill-opacity="1" x="2581" y="2169" width="28" height="56" fill="red"/>
  </g>
  <g>
    <path fill="none" stroke-width="29.400000000000002" stroke-opacity="1" d="M 1800.0,1856.0 L 1908.9694913472367,1747.0305086527633 C 1910.312994231491,1745.687005768509 1916.8,1743.0 1918.7,1743.0 L 2027.0,1743.0" stroke="purple"/>
    <rect stroke="none" fill-opacity="1" x="2013" y="1715" width="28" height="56" fill="purple"/>
  </g>
  <g>
    <path fill="none" stroke-width="29.400000000000002" stroke-opacity="1" d="M 1117.0,2311.0 L 1117.0,2425.0 L 1117.0,2532.35 C 1117.0,2534.233333333333 1119.6634355424694,2540.6634355424694 1120.995153313704,2541.995153313704 L 1231.0,2652.0 L 1339.324944934188,2760.324944934188 C 1341.2166299561252,2762.2166299561254 1348.7666666666667,2769.8 1350.65,2771.7 L 1453.9872858282383,2875.951775083355 C 1455.3248572188254,2877.3011833889036 1461.8,2880.0 1463.7,2880.0 L 1572.0,2880.0 L 1686.0,2880.0 L 1800.0,2880.0" stroke="cyan"/>
    <rect stroke="none" fill-opacity="1" x="1786" y="2852" width="28" height="56" fill="cyan"/>
  </g>
  <g>
    <path fill="none" stroke-width="29.400000000000002" stroke-opacity="1" d="M 1686.0,1856.0 L 1686.0,1743.0 L 1686.0,1629.0 L 1686.0,1515.0 L 1686.0,1402.0 L 1686.0,1288.0 L 1686.0,1174.0 L 1686.0,1061.0 L 1686.0,952.7 C 1686.0,950.8 1683.312994231491,944.3129942314911 1681.9694913472367,942.9694913472367 L 1577.4984745673619,838.4984745673619 C 1575.6656497115746,836.6656497115746 1568.3182377767844,829.3505339366372 1566.4773566651768,827.5258009049559 L 1458.0,720.0" stroke="orange"/>
    <rect stroke="none" fill-opacity="1" x="1444" y="692" width="28" height="56" fill="orange"/>
  </g>
  <g>
    <path fill="none" stroke-width="29.400000000000002" stroke-opacity="1" d="M 1231.0,2197.0 L 1341.004846686296,2307.004846686296 C 1342.3365644575306,2308.3365644575306 1348.7666666666667,2311.0 1350.65,2311.0 L 1458.0,2311.0" stroke="darkblue"/>
    <rect stroke="none" fill-opacity="1" x="1444" y="2283" width="28" height="56" fill="darkblue"/>
  </g>
  <g>
    <path fill="none" stroke-width="29.400000000000002" stroke-opacity="1" d="M 1345.0,2084.0 L 1231.0,1970.0 L 1117.0,1856.0 L 1008.0305086527633,1747.0305086527633 C 1006.6870057685089,1745.687005768509 1004.0,1739.2 1004.0,1737.3 L 1004.0,1629.0 L 1004.0,1515.0 L 1004.0,1402.0 L 1004.0,1288.0 L 1004.0,1174.0" stroke="green"/>
    <rect stroke="none" fill-opacity="1" x="976" y="1160" width="56" height="28" fill="green"/>
  </g>
  <g>
    <path fill="none" stroke-width="29.400000000000002" stroke-opacity="1" d="M 1686.0,1629.0 L 1794.324944934188,1520.675055065812 C 1796.2166299561252,1518.7833700438748 1803.7666666666667,1518.8 1805.65,1520.7 L 1908.9872858282383,1624.9517750833554 C 1910.3248572188254,1626.3011833889036 1916.8,1629.0 1918.7,1629.0 L 2027.0,1629.0" stroke="darkgreen"/>
    <rect stroke="none" fill-opacity="1" x="2013" y="1601" width="28" height="56" fill="darkgreen"/>
  </g>
  <g>
    <path fill="none" stroke-width="29.400000000000002" stroke-opacity="1" d="M 1800.0,1515.0 L 1913.0,1402.0" stroke="silver"/>
    <rect stroke="none" fill-opacity="1" x="1899" y="1374" width="28" height="56" fill="silver"/>
  </g>
  <g>
    <path fill="none" stroke-width="29.400000000000002" stroke-opacity="1" d="M 1117.0,1856.0 L 1117.0,1743.0" stroke="pink"/>
    <rect stroke="none" fill-opacity="1" x="1089" y="1729" width="56" height="28" fill="pink"/>
  </g>
  <g>
    <path fill="none" stroke-width="29.400000000000002" stroke-opacity="1" d="M 1686.0,1402.0 L 1800.0,1402.0" stroke="maroon"/>
    <rect stroke="none" fill-opacity="1" x="1786" y="1374" width="28" height="56" fill="maroon"/>
  </g>
  <g>
    <path fill="none" stroke-width="29.400000000000002" stroke-opacity="1" d="M 1686.0,1288.0 L 1572.0,1174.0" stroke="blue"/>
    <rect stroke="none" fill-opacity="1" x="1558" y="1146" width="28" height="56" fill="blue"/>
  </g>
  <g>
    <text fill="black" stroke="none" font-size="56.0" font-family="p22" font-weight="100" text-anchor="start" dominant-baseline="central" x="2644.0" y="2197" transform="translate(2595,2197) rotate(0) translate(-2595,-2197)">Badulla</text>
  </g>
  <g>
    <text fill="black" stroke="none" font-size="56.0" font-family="p22" font-weight="100" text-anchor="start" dominant-baseline="central" x="2076.0" y="1743" transform="translate(2027,1743) rotate(0) translate(-2027,-1743)">Matale</text>
  </g>
  <g>
    <text fill="black" stroke="none" font-size="56.0" font-family="p22" font-weight="100" text-anchor="start" dominant-baseline="central" x="1849.0" y="2880" transform="translate(1800,2880) rotate(0) translate(-1800,-2880)">Matara</text>
  </g>
  <g>
    <text fill="black" stroke="none" font-size="56.0" font-family="p22" font-weight="100" text-anchor="start" dominant-baseline="central" x="1507.0" y="720" transform="translate(1458,720) rotate(0) translate(-1458,-720)">Jaffna</text>
  </g>
  <g>
    <text fill="black" stroke="none" font-size="56.0" font-family="p22" font-weight="100" text-anchor="start" dominant-baseline="central" x="1507.0" y="2311" transform="translate(1458,2311) rotate(0) translate(-1458,-2311)">Avissawella</text>
  </g>
  <g>
    <text fill="black" stroke="none" font-size="56.0" font-family="p22" font-weight="100" text-anchor="start" dominant-baseline="central" x="1053.0" y="1174" transform="translate(1004,1174) rotate(0) translate(-1004,-1174)">Periyanagavillu</text>
  </g>
  <g>
    <text fill="black" stroke="none" font-size="56.0" font-family="p22" font-weight="100" text-anchor="start" dominant-baseline="central" x="2076.0" y="1629" transform="translate(2027,1629) rotate(0) translate(-2027,-1629)">Batticaloa</text>
  </g>
  <g>
    <text fill="black" stroke="none" font-size="56.0" font-family="p22" font-weight="100" text-anchor="start" dominant-baseline="central" x="1962.0" y="1402" transform="translate(1913,1402) rotate(0) translate(-1913,-1402)">Trincomalee</text>
  </g>
  <g>
    <text fill="black" stroke="none" font-size="56.0" font-family="p22" font-weight="100" text-anchor="start" dominant-baseline="central" x="1166.0" y="1743" transform="translate(1117,1743) rotate(0) translate(-1117,-1743)">CMB Airport</text>
  </g>
  <g>
    <text fill="black" stroke="none" font-size="56.0" font-family="p22" font-weight="100" text-anchor="start" dominant-baseline="central" x="1849.0" y="1402" transform="translate(1800,1402) rotate(-45) translate(-1800,-1402)">Mihintale</text>
  </g>
  <g>
    <text fill="black" stroke="none" font-size="56.0" font-family="p22" font-weight="100" text-anchor="end" dominant-baseline="central" x="1523.0" y="1174" transform="translate(1572,1174) rotate(0) translate(-1572,-1174)">Madhu Road</text>
  </g>
  <g>
    <circle r="28" fill="white" stroke="black" stroke-width="7.0" cx="1117" cy="2311"/>
    <text fill="black" stroke="none" font-size="48.0" font-family="p22" font-weight="100" text-anchor="start" dominant-baseline="central" x="1162.0" y="2311" transform="translate(1117,2311) rotate(0) translate(-1117,-2311)">C. Fort</text>
  </g>
  <g>
    <circle r="28" fill="white" stroke="black" stroke-width="7.0" cx="1231" cy="2197"/>
    <text fill="black" stroke="none" font-size="48.0" font-family="p22" font-weight="100" text-anchor="start" dominant-baseline="central" x="1276.0" y="2197" transform="translate(1231,2197) rotate(0) translate(-1231,-2197)">Maradana</text>
  </g>
  <g>
    <circle r="28" fill="white" stroke="black" stroke-width="7.0" cx="1345" cy="2084"/>
    <text fill="black" stroke="none" font-size="48.0" font-family="p22" font-weight="100" text-anchor="start" dominant-baseline="central" x="1390.0" y="2084" transform="translate(1345,2084) rotate(0) translate(-1345,-2084)">Ragama</text>
  </g>
  <g>
    <circle r="28" fill="white" stroke="black" stroke-width="7.0" cx="1686" cy="1856"/>
    <text fill="black" stroke="none" font-size="48.0" font-family="p22" font-weight="100" text-anchor="start" dominant-baseline="central" x="1731.0" y="1856" transform="translate(1686,1856) rotate(-45) translate(-1686,-1856)">Polgahawela</text>
  </g>
  <g>
    <circle r="28" fill="white" stroke="black" stroke-width="7.0" cx="1800" cy="1856"/>
    <text fill="black" stroke="none" font-size="48.0" font-family="p22" font-weight="100" text-anchor="start" dominant-baseline="central" x="1845.0" y="1856" transform="translate(1800,1856) rotate(0) translate(-1800,-1856)">Peradeniya</text>
  </g>
  <g>
    <circle r="28" fill="white" stroke="black" stroke-width="7.0" cx="1686" cy="1629"/>
    <text fill="black" stroke="none" font-size="48.0" font-family="p22" font-weight="100" text-anchor="start" dominant-baseline="central" x="1731.0" y="1629" transform="translate(1686,1629) rotate(0) translate(-1686,-1629)">Maho</text>
  </g>
  <g>
    <circle r="28" fill="white" stroke="black" stroke-width="7.0" cx="1686" cy="1402"/>
    <text fill="black" stroke="none" font-size="48.0" font-family="p22" font-weight="100" text-anchor="end" dominant-baseline="central" x="1641.0" y="1402" transform="translate(1686,1402) rotate(0) translate(-1686,-1402)">Mihintale Junction</text>
  </g>
  <g>
    <circle r="28" fill="white" stroke="black" stroke-width="7.0" cx="1686" cy="1288"/>
    <text fill="black" stroke="none" font-size="48.0" font-family="p22" font-weight="100" text-anchor="start" dominant-baseline="central" x="1731.0" y="1288" transform="translate(1686,1288) rotate(0) translate(-1686,-1288)">Medavachchiya</text>
  </g>
  <g>
    <circle r="28" fill="white" stroke="black" stroke-width="7.0" cx="1117" cy="1856"/>
    <text fill="black" stroke="none" font-size="48.0" font-family="p22" font-weight="100" text-anchor="start" dominant-baseline="central" x="1162.0" y="1856" transform="translate(1117,1856) rotate(0) translate(-1117,-1856)">Katunayake S.</text>
  </g>
  <g>
    <circle r="28" fill="white" stroke="black" stroke-width="7.0" cx="1800" cy="1515"/>
    <text fill="black" stroke="none" font-size="48.0" font-family="p22" font-weight="100" text-anchor="start" dominant-baseline="central" x="1845.0" y="1515" transform="translate(1800,1515) rotate(0) translate(-1800,-1515)">Gal Oya</text>
  </g>
  <g>
    <text fill="gray" stroke="none" font-size="44.0" font-family="p22" font-weight="100" text-anchor="start" dominant-baseline="central" x="1501.0" y="1970" transform="translate(1458,1970) rotate(0) translate(-1458,-1970)">Gampaha</text>
  </g>
  <g>
    <text fill="gray" stroke="none" font-size="44.0" font-family="p22" font-weight="100" text-anchor="start" dominant-baseline="central" x="1956.0" y="1743" transform="translate(1913,1743) rotate(-315) translate(-1913,-1743)">Kandy</text>
  </g>
  <g>
    <text fill="gray" stroke="none" font-size="44.0" font-family="p22" font-weight="100" text-anchor="start" dominant-baseline="central" x="1729.0" y="2880" transform="translate(1686,2880) rotate(-45) translate(-1686,-2880)">Galle</text>
  </g>
  <g>
    <text fill="gray" stroke="none" font-size="44.0" font-family="p22" font-weight="100" text-anchor="end" dominant-baseline="central" x="1643.0" y="1743" transform="translate(1686,1743) rotate(0) translate(-1686,-1743)">Kurunegala</text>
  </g>
  <g>
    <text fill="gray" stroke="none" font-size="44.0" font-family="p22" font-weight="100" text-anchor="end" dominant-baseline="central" x="1643.0" y="1515" transform="translate(1686,1515) rotate(0) translate(-1686,-1515)">Anuradhapura</text>
  </g>
  <g>
    <text fill="gray" stroke="none" font-size="44.0" font-family="p22" font-weight="100" text-anchor="start" dominant-baseline="central" x="1729.0" y="1174" transform="translate(1686,1174) rotate(0) translate(-1686,-1174)">Vavuniya</text>
  </g>
  <g>
    <text fill="gray" stroke="none" font-size="44.0" font-family="p22" font-weight="100" text-anchor="start" dominant-baseline="central" x="1729.0" y="947" transform="translate(1686,947) rotate(0) translate(-1686,-947)">Kilinochchi</text>
  </g>
  <g>
    <text fill="gray" stroke="none" font-size="44.0" font-family="p22" font-weight="100" text-anchor="start" dominant-baseline="central" x="1047.0" y="1288" transform="translate(1004,1288) rotate(0) translate(-1004,-1288)">Puttalam</text>
  </g>
  <g>
    <text fill="gray" stroke="none" font-size="44.0" font-family="p22" font-weight="100" text-anchor="start" dominant-baseline="central" x="1956.0" y="1629" transform="translate(1913,1629) rotate(-45) translate(-1913,-1629)">Polonnaruwa</text>
  </g>
  <g>
    <text fill="gray" stroke="none" font-size="40" font-family="p22" font-weight="100" text-anchor="end" dominant-baseline="central" x="1531.0" y="1856" transform="translate(1572,1856) rotate(0) translate(-1572,-1856)">Ambepussa</text>
  </g>
  <g>
    <text fill="gray" stroke="none" font-size="40" font-family="p22" font-weight="100" text-anchor="start" dominant-baseline="central" x="1954.0" y="1970" transform="translate(1913,1970) rotate(0) translate(-1913,-1970)">Gampola</text>
  </g>
  <g>
    <text fill="gray" stroke="none" font-size="40" font-family="p22" font-weight="100" text-anchor="start" dominant-baseline="central" x="2068.0" y="2084" transform="translate(2027,2084) rotate(0) translate(-2027,-2084)">Nawalapitiya</text>
  </g>
  <g>
    <text fill="gray" stroke="none" font-size="40" font-family="p22" font-weight="100" text-anchor="start" dominant-baseline="central" x="2182.0" y="2197" transform="translate(2141,2197) rotate(0) translate(-2141,-2197)">Talawakele</text>
  </g>
  <g>
    <text fill="gray" stroke="none" font-size="40" font-family="p22" font-weight="100" text-anchor="end" dominant-baseline="central" x="2213.0" y="2311" transform="translate(2254,2311) rotate(0) translate(-2254,-2311)">Nanu Oya</text>
  </g>
  <g>
    <text fill="gray" stroke="none" font-size="40" font-family="p22" font-weight="100" text-anchor="start" dominant-baseline="central" x="2409.0" y="2311" transform="translate(2368,2311) rotate(-45) translate(-2368,-2311)">Haputale</text>
  </g>
  <g>
    <text fill="gray" stroke="none" font-size="40" font-family="p22" font-weight="100" text-anchor="start" dominant-baseline="central" x="2523.0" y="2311" transform="translate(2482,2311) rotate(0) translate(-2482,-2311)">Bandarawela</text>
  </g>
  <g>
    <text fill="gray" stroke="none" font-size="40" font-family="p22" font-weight="100" text-anchor="start" dominant-baseline="central" x="1158.0" y="2425" transform="translate(1117,2425) rotate(0) translate(-1117,-2425)">Panadura</text>
  </g>
  <g>
    <text fill="gray" stroke="none" font-size="40" font-family="p22" font-weight="100" text-anchor="start" dominant-baseline="central" x="1158.0" y="2538" transform="translate(1117,2538) rotate(0) translate(-1117,-2538)">Kalutara N.</text>
  </g>
  <g>
    <text fill="gray" stroke="none" font-size="40" font-family="p22" font-weight="100" text-anchor="start" dominant-baseline="central" x="1272.0" y="2652" transform="translate(1231,2652) rotate(0) translate(-1231,-2652)">Wadduwa</text>
  </g>
  <g>
    <text fill="gray" stroke="none" font-size="40" font-family="p22" font-weight="100" text-anchor="start" dominant-baseline="central" x="1386.0" y="2766" transform="translate(1345,2766) rotate(0) translate(-1345,-2766)">Aluthgama</text>
  </g>
  <g>
    <text fill="gray" stroke="none" font-size="40" font-family="p22" font-weight="100" text-anchor="end" dominant-baseline="central" x="1417.0" y="2880" transform="translate(1458,2880) rotate(0) translate(-1458,-2880)">Kosgoda</text>
  </g>
  <g>
    <text fill="gray" stroke="none" font-size="40" font-family="p22" font-weight="100" text-anchor="start" dominant-baseline="central" x="1613.0" y="2880" transform="translate(1572,2880) rotate(-45) translate(-1572,-2880)">Ambalangoda</text>
  </g>
  <g>
    <text fill="gray" stroke="none" font-size="40" font-family="p22" font-weight="100" text-anchor="start" dominant-baseline="central" x="1727.0" y="1061" transform="translate(1686,1061) rotate(0) translate(-1686,-1061)">Omanthai</text>
  </g>
  <g>
    <text fill="gray" stroke="none" font-size="40" font-family="p22" font-weight="100" text-anchor="start" dominant-baseline="central" x="1613.0" y="833" transform="translate(1572,833) rotate(0) translate(-1572,-833)">Pallai</text>
  </g>
  <g>
    <text fill="gray" stroke="none" font-size="40" font-family="p22" font-weight="100" text-anchor="start" dominant-baseline="central" x="1386.0" y="2311" transform="translate(1345,2311) rotate(-45) translate(-1345,-2311)">Homagama</text>
  </g>
  <g>
    <text fill="gray" stroke="none" font-size="40" font-family="p22" font-weight="100" text-anchor="start" dominant-baseline="central" x="1272.0" y="1970" transform="translate(1231,1970) rotate(0) translate(-1231,-1970)">Ja-Ela</text>
  </g>
  <g>
    <text fill="gray" stroke="none" font-size="40" font-family="p22" font-weight="100" text-anchor="end" dominant-baseline="central" x="963.0" y="1743" transform="translate(1004,1743) rotate(0) translate(-1004,-1743)">Negombo</text>
  </g>
  <g>
    <text fill="gray" stroke="none" font-size="40" font-family="p22" font-weight="100" text-anchor="start" dominant-baseline="central" x="1045.0" y="1629" transform="translate(1004,1629) rotate(0) translate(-1004,-1629)">Madampe</text>
  </g>
  <g>
    <text fill="gray" stroke="none" font-size="40" font-family="p22" font-weight="100" text-anchor="start" dominant-baseline="central" x="1045.0" y="1515" transform="translate(1004,1515) rotate(0) translate(-1004,-1515)">Chilaw</text>
  </g>
  <g>
    <text fill="gray" stroke="none" font-size="40" font-family="p22" font-weight="100" text-anchor="start" dominant-baseline="central" x="1045.0" y="1402" transform="translate(1004,1402) rotate(0) translate(-1004,-1402)">Bangadeniya</text>
  </g>
</svg>
