<?xml version="1.0" ?>
<svg xmlns="http://www.w3.org/2000/svg" width="3600" height="3600" padding="360">
  <text fill="#fcfcfc" stroke="none" font-size="600.0" font-family="p22" x="1800.0" y="1800.0" text-anchor="middle" dominant-baseline="center">@nuuuwan</text>
  <text fill="black" stroke="none" font-size="160" font-family="p22" x="1800.0" y="180.0" text-anchor="middle" dominant-baseline="hanging">2014</text>
  <text fill="gray" stroke="none" font-size="40" font-family="p22" x="1800.0" y="230.0" text-anchor="middle" dominant-baseline="hanging"/>
  <text fill="gray" stroke="none" font-size="40" font-family="p22" x="1800.0" y="3460.0" text-anchor="middle" dominant-baseline="text-top">data from multiple sources ~ music by @bensound ~ visualization by @nuuuwan</text>
  <g>
    <path fill="none" stroke-width="29.400000000000002" stroke-opacity="1" d="M 936.0,2376.0 L 1080.0,2232.0 L 1224.0,2088.0 L 1368.0,1944.0 L 1506.908831175457,1805.091168824543 C 1508.6058874503046,1803.3941125496954 1516.8,1800.0 1519.2,1800.0 L 1656.0,1800.0 L 1792.8,1800.0 C 1795.2,1800.0 1803.3941125496954,1803.3941125496954 1805.091168824543,1805.091168824543 L 1944.0,1944.0 L 2088.0,2088.0 L 2232.0,2232.0 L 2370.9088311754567,2370.9088311754567 C 2372.6058874503046,2372.6058874503046 2380.8,2376.0 2383.2,2376.0 L 2520.0,2376.0 L 2656.8,2376.0 C 2659.2,2376.0 2667.3941125496954,2372.6058874503046 2669.0911688245433,2370.9088311754567 L 2808.0,2232.0" stroke="red"/>
    <rect stroke="none" fill-opacity="1" x="2794" y="2204" width="28" height="56" fill="red"/>
  </g>
  <g>
    <path fill="none" stroke-width="29.400000000000002" stroke-opacity="1" d="M 1800.0,1800.0 L 1938.9264780492213,1660.1087547421037 C 1940.6176520328142,1658.4058364947357 1948.8,1655.0 1951.2,1655.0 L 2088.0,1655.0" stroke="purple"/>
    <rect stroke="none" fill-opacity="1" x="2074" y="1627" width="28" height="56" fill="purple"/>
  </g>
  <g>
    <path fill="none" stroke-width="29.400000000000002" stroke-opacity="1" d="M 936.0,2376.0 L 936.0,2520.0 L 936.0,2664.0 L 936.0,2800.8 C 936.0,2803.2 939.3941125496955,2811.3941125496954 941.0911688245432,2813.0911688245433 L 1080.0,2952.0 L 1224.0,3096.0 L 1362.908831175457,3234.9088311754567 C 1364.6058874503046,3236.6058874503046 1372.8,3240.0 1375.2,3240.0 L 1512.0,3240.0 L 1656.0,3240.0" stroke="cyan"/>
    <rect stroke="none" fill-opacity="1" x="1642" y="3212" width="28" height="56" fill="cyan"/>
  </g>
  <g>
    <path fill="none" stroke-width="29.400000000000002" stroke-opacity="1" d="M 1656.0,1800.0 L 1656.0,1655.0 L 1656.0,1512.0 L 1656.0,1368.0 L 1656.0,1224.0 L 1656.0,1080.0 L 1656.0,935.0 L 1656.0,792.0 L 1656.0,655.2 C 1656.0,652.8 1652.6058874503046,644.6058874503045 1650.908831175457,642.9088311754568 L 1512.0,504.0 L 1368.0,360.0" stroke="orange"/>
    <rect stroke="none" fill-opacity="1" x="1354" y="332" width="28" height="56" fill="orange"/>
  </g>
  <g>
    <path fill="none" stroke-width="29.400000000000002" stroke-opacity="1" d="M 1080.0,2232.0 L 1218.908831175457,2370.9088311754567 C 1220.6058874503046,2372.6058874503046 1228.8,2376.0 1231.2,2376.0 L 1368.0,2376.0" stroke="darkblue"/>
    <rect stroke="none" fill-opacity="1" x="1354" y="2348" width="28" height="56" fill="darkblue"/>
  </g>
  <g>
    <path fill="none" stroke-width="29.400000000000002" stroke-opacity="1" d="M 1224.0,2088.0 L 1080.0,1944.0 L 943.2,1807.2 C 940.8,1804.8 931.2166376321408,1795.1834198379195 928.8249564482111,1792.7751297568793 L 797.0382891594539,1660.0732772786168 C 795.3588594396359,1658.3821848524112 792.0,1650.2333333333333 792.0,1647.85 L 792.0,1512.0 L 792.0,1368.0 L 792.0,1224.0 L 792.0,1080.0 L 792.0,935.0" stroke="green"/>
    <rect stroke="none" fill-opacity="1" x="764" y="921" width="56" height="28" fill="green"/>
  </g>
  <g>
    <path fill="none" stroke-width="29.400000000000002" stroke-opacity="1" d="M 1656.0,1512.0 L 1792.8,1375.2 C 1795.2,1372.8 1804.8,1372.8 1807.2,1375.2 L 1938.908831175457,1506.908831175457 C 1940.6058874503046,1508.6058874503046 1948.8,1512.0 1951.2,1512.0 L 2088.0,1512.0" stroke="darkgreen"/>
    <rect stroke="none" fill-opacity="1" x="2074" y="1484" width="28" height="56" fill="darkgreen"/>
  </g>
  <g>
    <path fill="none" stroke-width="29.400000000000002" stroke-opacity="1" d="M 1800.0,1368.0 L 1944.0,1224.0" stroke="silver"/>
    <rect stroke="none" fill-opacity="1" x="1930" y="1196" width="28" height="56" fill="silver"/>
  </g>
  <g>
    <path fill="none" stroke-width="29.400000000000002" stroke-opacity="1" d="M 936.0,1800.0 L 936.0,1655.0" stroke="pink"/>
    <rect stroke="none" fill-opacity="1" x="908" y="1641" width="56" height="28" fill="pink"/>
  </g>
  <g>
    <path fill="none" stroke-width="29.400000000000002" stroke-opacity="1" d="M 1656.0,1224.0 L 1800.0,1224.0" stroke="maroon"/>
    <rect stroke="none" fill-opacity="1" x="1786" y="1196" width="28" height="56" fill="maroon"/>
  </g>
  <g>
    <path fill="none" stroke-width="29.400000000000002" stroke-opacity="1" d="M 1656.0,1080.0 L 1512.0,935.0" stroke="blue"/>
    <rect stroke="none" fill-opacity="1" x="1498" y="907" width="28" height="56" fill="blue"/>
  </g>
  <g>
    <text fill="black" stroke="none" font-size="56.0" font-family="p22" font-weight="100" text-anchor="start" dominant-baseline="central" x="2857.0" y="2232" transform="translate(2808,2232) rotate(0) translate(-2808,-2232)">BADULLA</text>
  </g>
  <g>
    <text fill="black" stroke="none" font-size="56.0" font-family="p22" font-weight="100" text-anchor="start" dominant-baseline="central" x="2137.0" y="1655" transform="translate(2088,1655) rotate(0) translate(-2088,-1655)">MATALE</text>
  </g>
  <g>
    <text fill="black" stroke="none" font-size="56.0" font-family="p22" font-weight="100" text-anchor="start" dominant-baseline="central" x="1705.0" y="3240" transform="translate(1656,3240) rotate(0) translate(-1656,-3240)">MATARA</text>
  </g>
  <g>
    <text fill="black" stroke="none" font-size="56.0" font-family="p22" font-weight="100" text-anchor="start" dominant-baseline="central" x="1417.0" y="360" transform="translate(1368,360) rotate(0) translate(-1368,-360)">JAFFNA</text>
  </g>
  <g>
    <text fill="black" stroke="none" font-size="56.0" font-family="p22" font-weight="100" text-anchor="start" dominant-baseline="central" x="1417.0" y="2376" transform="translate(1368,2376) rotate(0) translate(-1368,-2376)">Avissawella</text>
  </g>
  <g>
    <text fill="black" stroke="none" font-size="56.0" font-family="p22" font-weight="100" text-anchor="start" dominant-baseline="central" x="841.0" y="935" transform="translate(792,935) rotate(0) translate(-792,-935)">Periyanagavillu</text>
  </g>
  <g>
    <text fill="black" stroke="none" font-size="56.0" font-family="p22" font-weight="100" text-anchor="start" dominant-baseline="central" x="2137.0" y="1512" transform="translate(2088,1512) rotate(0) translate(-2088,-1512)">BATTICALOA</text>
  </g>
  <g>
    <text fill="black" stroke="none" font-size="56.0" font-family="p22" font-weight="100" text-anchor="start" dominant-baseline="central" x="1993.0" y="1224" transform="translate(1944,1224) rotate(0) translate(-1944,-1224)">TRINCOMALEE</text>
  </g>
  <g>
    <text fill="black" stroke="none" font-size="56.0" font-family="p22" font-weight="100" text-anchor="start" dominant-baseline="central" x="985.0" y="1655" transform="translate(936,1655) rotate(0) translate(-936,-1655)">CMB Airport</text>
  </g>
  <g>
    <text fill="black" stroke="none" font-size="56.0" font-family="p22" font-weight="100" text-anchor="start" dominant-baseline="central" x="1849.0" y="1224" transform="translate(1800,1224) rotate(-45) translate(-1800,-1224)">Mihintale</text>
  </g>
  <g>
    <text fill="black" stroke="none" font-size="56.0" font-family="p22" font-weight="100" text-anchor="end" dominant-baseline="central" x="1463.0" y="935" transform="translate(1512,935) rotate(0) translate(-1512,-935)">Madhu Road</text>
  </g>
  <g>
    <circle r="28" fill="white" stroke="black" stroke-width="7.0" cx="936" cy="2376"/>
    <text fill="black" stroke="none" font-size="48.0" font-family="p22" font-weight="100" text-anchor="start" dominant-baseline="central" x="981.0" y="2376" transform="translate(936,2376) rotate(0) translate(-936,-2376)">COLOMBO Fort</text>
  </g>
  <g>
    <circle r="28" fill="white" stroke="black" stroke-width="7.0" cx="1080" cy="2232"/>
    <text fill="black" stroke="none" font-size="48.0" font-family="p22" font-weight="100" text-anchor="start" dominant-baseline="central" x="1125.0" y="2232" transform="translate(1080,2232) rotate(0) translate(-1080,-2232)">Maradana</text>
  </g>
  <g>
    <circle r="28" fill="white" stroke="black" stroke-width="7.0" cx="1224" cy="2088"/>
    <text fill="black" stroke="none" font-size="48.0" font-family="p22" font-weight="100" text-anchor="start" dominant-baseline="central" x="1269.0" y="2088" transform="translate(1224,2088) rotate(0) translate(-1224,-2088)">Ragama</text>
  </g>
  <g>
    <circle r="28" fill="white" stroke="black" stroke-width="7.0" cx="1656" cy="1800"/>
    <text fill="black" stroke="none" font-size="48.0" font-family="p22" font-weight="100" text-anchor="start" dominant-baseline="central" x="1701.0" y="1800" transform="translate(1656,1800) rotate(-45) translate(-1656,-1800)">Polgahawela</text>
  </g>
  <g>
    <circle r="28" fill="white" stroke="black" stroke-width="7.0" cx="1800" cy="1800"/>
    <text fill="black" stroke="none" font-size="48.0" font-family="p22" font-weight="100" text-anchor="start" dominant-baseline="central" x="1845.0" y="1800" transform="translate(1800,1800) rotate(0) translate(-1800,-1800)">Peradeniya</text>
  </g>
  <g>
    <circle r="28" fill="white" stroke="black" stroke-width="7.0" cx="1656" cy="1512"/>
    <text fill="black" stroke="none" font-size="48.0" font-family="p22" font-weight="100" text-anchor="start" dominant-baseline="central" x="1701.0" y="1512" transform="translate(1656,1512) rotate(0) translate(-1656,-1512)">Maho</text>
  </g>
  <g>
    <circle r="28" fill="white" stroke="black" stroke-width="7.0" cx="1656" cy="1224"/>
    <text fill="black" stroke="none" font-size="48.0" font-family="p22" font-weight="100" text-anchor="end" dominant-baseline="central" x="1611.0" y="1224" transform="translate(1656,1224) rotate(0) translate(-1656,-1224)">Mihintale Junction</text>
  </g>
  <g>
    <circle r="28" fill="white" stroke="black" stroke-width="7.0" cx="1656" cy="1080"/>
    <text fill="black" stroke="none" font-size="48.0" font-family="p22" font-weight="100" text-anchor="start" dominant-baseline="central" x="1701.0" y="1080" transform="translate(1656,1080) rotate(0) translate(-1656,-1080)">Medavachchiya</text>
  </g>
  <g>
    <circle r="28" fill="white" stroke="black" stroke-width="7.0" cx="936" cy="1800"/>
    <text fill="black" stroke="none" font-size="48.0" font-family="p22" font-weight="100" text-anchor="start" dominant-baseline="central" x="981.0" y="1800" transform="translate(936,1800) rotate(0) translate(-936,-1800)">Katunayake South</text>
  </g>
  <g>
    <circle r="28" fill="white" stroke="black" stroke-width="7.0" cx="1800" cy="1368"/>
    <text fill="black" stroke="none" font-size="48.0" font-family="p22" font-weight="100" text-anchor="start" dominant-baseline="central" x="1845.0" y="1368" transform="translate(1800,1368) rotate(0) translate(-1800,-1368)">Gal Oya</text>
  </g>
  <g>
    <text fill="gray" stroke="none" font-size="44.0" font-family="p22" font-weight="100" text-anchor="start" dominant-baseline="central" x="1411.0" y="1944" transform="translate(1368,1944) rotate(0) translate(-1368,-1944)">GAMPAHA</text>
  </g>
  <g>
    <text fill="gray" stroke="none" font-size="44.0" font-family="p22" font-weight="100" text-anchor="start" dominant-baseline="central" x="1987.0" y="1655" transform="translate(1944,1655) rotate(-315) translate(-1944,-1655)">KANDY</text>
  </g>
  <g>
    <text fill="gray" stroke="none" font-size="44.0" font-family="p22" font-weight="100" text-anchor="start" dominant-baseline="central" x="1555.0" y="3240" transform="translate(1512,3240) rotate(-45) translate(-1512,-3240)">GALLE</text>
  </g>
  <g>
    <text fill="gray" stroke="none" font-size="44.0" font-family="p22" font-weight="100" text-anchor="end" dominant-baseline="central" x="1613.0" y="1655" transform="translate(1656,1655) rotate(0) translate(-1656,-1655)">KURUNEGALA</text>
  </g>
  <g>
    <text fill="gray" stroke="none" font-size="44.0" font-family="p22" font-weight="100" text-anchor="end" dominant-baseline="central" x="1613.0" y="1368" transform="translate(1656,1368) rotate(0) translate(-1656,-1368)">ANURADHAPURA</text>
  </g>
  <g>
    <text fill="gray" stroke="none" font-size="44.0" font-family="p22" font-weight="100" text-anchor="start" dominant-baseline="central" x="1699.0" y="935" transform="translate(1656,935) rotate(0) translate(-1656,-935)">VAVUNIYA</text>
  </g>
  <g>
    <text fill="gray" stroke="none" font-size="44.0" font-family="p22" font-weight="100" text-anchor="start" dominant-baseline="central" x="1699.0" y="648" transform="translate(1656,648) rotate(0) translate(-1656,-648)">KILINOCHCHI</text>
  </g>
  <g>
    <text fill="gray" stroke="none" font-size="44.0" font-family="p22" font-weight="100" text-anchor="start" dominant-baseline="central" x="835.0" y="1080" transform="translate(792,1080) rotate(0) translate(-792,-1080)">PUTTALAM</text>
  </g>
  <g>
    <text fill="gray" stroke="none" font-size="44.0" font-family="p22" font-weight="100" text-anchor="start" dominant-baseline="central" x="1987.0" y="1512" transform="translate(1944,1512) rotate(-45) translate(-1944,-1512)">POLONNARUWA</text>
  </g>
  <g>
    <text fill="gray" stroke="none" font-size="40" font-family="p22" font-weight="100" text-anchor="end" dominant-baseline="central" x="1471.0" y="1800" transform="translate(1512,1800) rotate(0) translate(-1512,-1800)">Ambepussa</text>
  </g>
  <g>
    <text fill="gray" stroke="none" font-size="40" font-family="p22" font-weight="100" text-anchor="start" dominant-baseline="central" x="1985.0" y="1944" transform="translate(1944,1944) rotate(0) translate(-1944,-1944)">Gampola</text>
  </g>
  <g>
    <text fill="gray" stroke="none" font-size="40" font-family="p22" font-weight="100" text-anchor="start" dominant-baseline="central" x="2129.0" y="2088" transform="translate(2088,2088) rotate(0) translate(-2088,-2088)">Nawalapitiya</text>
  </g>
  <g>
    <text fill="gray" stroke="none" font-size="40" font-family="p22" font-weight="100" text-anchor="start" dominant-baseline="central" x="2273.0" y="2232" transform="translate(2232,2232) rotate(0) translate(-2232,-2232)">Talawakele</text>
  </g>
  <g>
    <text fill="gray" stroke="none" font-size="40" font-family="p22" font-weight="100" text-anchor="end" dominant-baseline="central" x="2335.0" y="2376" transform="translate(2376,2376) rotate(0) translate(-2376,-2376)">Nanu Oya</text>
  </g>
  <g>
    <text fill="gray" stroke="none" font-size="40" font-family="p22" font-weight="100" text-anchor="start" dominant-baseline="central" x="2561.0" y="2376" transform="translate(2520,2376) rotate(-45) translate(-2520,-2376)">Haputale</text>
  </g>
  <g>
    <text fill="gray" stroke="none" font-size="40" font-family="p22" font-weight="100" text-anchor="start" dominant-baseline="central" x="2705.0" y="2376" transform="translate(2664,2376) rotate(0) translate(-2664,-2376)">Bandarawela</text>
  </g>
  <g>
    <text fill="gray" stroke="none" font-size="40" font-family="p22" font-weight="100" text-anchor="start" dominant-baseline="central" x="977.0" y="2520" transform="translate(936,2520) rotate(0) translate(-936,-2520)">Panadura</text>
  </g>
  <g>
    <text fill="gray" stroke="none" font-size="40" font-family="p22" font-weight="100" text-anchor="start" dominant-baseline="central" x="977.0" y="2664" transform="translate(936,2664) rotate(0) translate(-936,-2664)">KALUTARA North</text>
  </g>
  <g>
    <text fill="gray" stroke="none" font-size="40" font-family="p22" font-weight="100" text-anchor="start" dominant-baseline="central" x="977.0" y="2808" transform="translate(936,2808) rotate(0) translate(-936,-2808)">Wadduwa</text>
  </g>
  <g>
    <text fill="gray" stroke="none" font-size="40" font-family="p22" font-weight="100" text-anchor="start" dominant-baseline="central" x="1121.0" y="2952" transform="translate(1080,2952) rotate(0) translate(-1080,-2952)">Aluthgama</text>
  </g>
  <g>
    <text fill="gray" stroke="none" font-size="40" font-family="p22" font-weight="100" text-anchor="start" dominant-baseline="central" x="1265.0" y="3096" transform="translate(1224,3096) rotate(0) translate(-1224,-3096)">Kosgoda</text>
  </g>
  <g>
    <text fill="gray" stroke="none" font-size="40" font-family="p22" font-weight="100" text-anchor="end" dominant-baseline="central" x="1327.0" y="3240" transform="translate(1368,3240) rotate(0) translate(-1368,-3240)">Ambalangoda</text>
  </g>
  <g>
    <text fill="gray" stroke="none" font-size="40" font-family="p22" font-weight="100" text-anchor="start" dominant-baseline="central" x="1697.0" y="792" transform="translate(1656,792) rotate(0) translate(-1656,-792)">Omanthai</text>
  </g>
  <g>
    <text fill="gray" stroke="none" font-size="40" font-family="p22" font-weight="100" text-anchor="start" dominant-baseline="central" x="1553.0" y="504" transform="translate(1512,504) rotate(0) translate(-1512,-504)">Pallai</text>
  </g>
  <g>
    <text fill="gray" stroke="none" font-size="40" font-family="p22" font-weight="100" text-anchor="start" dominant-baseline="central" x="1265.0" y="2376" transform="translate(1224,2376) rotate(-45) translate(-1224,-2376)">Homagama</text>
  </g>
  <g>
    <text fill="gray" stroke="none" font-size="40" font-family="p22" font-weight="100" text-anchor="start" dominant-baseline="central" x="1121.0" y="1944" transform="translate(1080,1944) rotate(0) translate(-1080,-1944)">Ja-Ela</text>
  </g>
  <g>
    <text fill="gray" stroke="none" font-size="40" font-family="p22" font-weight="100" text-anchor="end" dominant-baseline="central" x="751.0" y="1655" transform="translate(792,1655) rotate(0) translate(-792,-1655)">Negombo</text>
  </g>
  <g>
    <text fill="gray" stroke="none" font-size="40" font-family="p22" font-weight="100" text-anchor="start" dominant-baseline="central" x="833.0" y="1512" transform="translate(792,1512) rotate(0) translate(-792,-1512)">Madampe</text>
  </g>
  <g>
    <text fill="gray" stroke="none" font-size="40" font-family="p22" font-weight="100" text-anchor="start" dominant-baseline="central" x="833.0" y="1368" transform="translate(792,1368) rotate(0) translate(-792,-1368)">Chilaw</text>
  </g>
  <g>
    <text fill="gray" stroke="none" font-size="40" font-family="p22" font-weight="100" text-anchor="start" dominant-baseline="central" x="833.0" y="1224" transform="translate(792,1224) rotate(0) translate(-792,-1224)">Bangadeniya</text>
  </g>
</svg>
