<?xml version="1.0" ?>
<svg xmlns="http://www.w3.org/2000/svg" width="1300" height="1300" padding="200">
  <text fill="gray" stroke="none" font-size="30.952380952380953" font-family="p22" x="650.0" y="118.0" text-anchor="middle" dominant-baseline="hanging">Topographical Map of Railways in Sri Lanka</text>
  <text fill="gray" stroke="none" font-size="18" font-family="p22" x="650.0" y="1218.0" text-anchor="middle" dominant-baseline="text-top">Not to scale.</text>
  <g>
    <path fill="none" stroke-width="10.5" stroke-opacity="1" d="M 407.0,823.0 L 476.0,823.0 L 546.0,823.0 L 615.0,823.0 L 684.0,823.0 L 753.0,823.0 L 823.0,823.0" stroke="red"/>
    <rect stroke="none" fill-opacity="1" x="818" y="813" width="10" height="20" fill="red"/>
  </g>
  <g>
    <path fill="none" stroke-width="10.5" stroke-opacity="1" d="M 407.0,823.0 L 407.0,892.0 L 407.0,961.0 L 407.0,1030.0 L 407.0,1100.0" stroke="cyan"/>
    <rect stroke="none" fill-opacity="1" x="397" y="1095" width="20" height="10" fill="cyan"/>
  </g>
  <g>
    <path fill="none" stroke-width="10.5" stroke-opacity="1" d="M 684.0,823.0 L 684.0,753.0 L 684.0,684.0 L 684.0,615.0 L 684.0,546.0 L 684.0,476.0 L 684.0,407.0 L 684.0,338.0 L 684.0,269.0 L 684.0,200.0" stroke="orange"/>
    <rect stroke="none" fill-opacity="1" x="674" y="195" width="20" height="10" fill="orange"/>
  </g>
  <g>
    <path fill="none" stroke-width="10.5" stroke-opacity="1" d="M 476.0,823.0 L 476.0,892.0" stroke="darkblue"/>
    <rect stroke="none" fill-opacity="1" x="466" y="887" width="20" height="10" fill="darkblue"/>
  </g>
  <g>
    <path fill="none" stroke-width="10.5" stroke-opacity="1" d="M 546.0,823.0 L 546.0,753.0 L 546.0,684.0" stroke="green"/>
    <rect stroke="none" fill-opacity="1" x="536" y="679" width="20" height="10" fill="green"/>
  </g>
  <g>
    <path fill="none" stroke-width="10.5" stroke-opacity="1" d="M 753.0,823.0 L 753.0,756.5 C 753.0,755.3333333333334 755.3333333333334,753.0 756.5,753.0 L 823.0,753.0" stroke="purple"/>
    <rect stroke="none" fill-opacity="1" x="818" y="743" width="10" height="20" fill="purple"/>
  </g>
  <g>
    <path fill="none" stroke-width="10.5" stroke-opacity="1" d="M 684.0,546.0 L 753.0,546.0" stroke="yellow"/>
    <rect stroke="none" fill-opacity="1" x="748" y="536" width="10" height="20" fill="yellow"/>
  </g>
  <g>
    <path fill="none" stroke-width="10.5" stroke-opacity="1" d="M 684.0,476.0 L 615.0,476.0 L 546.0,476.0" stroke="blue"/>
    <rect stroke="none" fill-opacity="1" x="541" y="466" width="10" height="20" fill="blue"/>
  </g>
  <g>
    <path fill="none" stroke-width="10.5" stroke-opacity="1" d="M 684.0,684.0 L 753.0,684.0 L 823.0,684.0 L 892.0,684.0" stroke="darkgreen"/>
    <rect stroke="none" fill-opacity="1" x="887" y="674" width="10" height="20" fill="darkgreen"/>
  </g>
  <g>
    <path fill="none" stroke-width="10.5" stroke-opacity="1" d="M 753.0,684.0 L 753.0,615.0" stroke="silver"/>
    <rect stroke="none" fill-opacity="1" x="743" y="610" width="20" height="10" fill="silver"/>
  </g>
  <g>
    <text fill="black" stroke="none" font-size="25.2" font-family="p22" font-weight="100" text-anchor="start" dominant-baseline="central" x="843.1" y="823" transform="translate(823,823) rotate(0) translate(-823,-823)">BADULLA</text>
  </g>
  <g>
    <text fill="black" stroke="none" font-size="25.2" font-family="p22" font-weight="100" text-anchor="start" dominant-baseline="central" x="427.1" y="1100" transform="translate(407,1100) rotate(0) translate(-407,-1100)">Beliatta</text>
  </g>
  <g>
    <text fill="black" stroke="none" font-size="25.2" font-family="p22" font-weight="100" text-anchor="start" dominant-baseline="central" x="704.1" y="200" transform="translate(684,200) rotate(0) translate(-684,-200)">Kankesanthurai</text>
  </g>
  <g>
    <text fill="black" stroke="none" font-size="25.2" font-family="p22" font-weight="100" text-anchor="start" dominant-baseline="central" x="496.1" y="892" transform="translate(476,892) rotate(0) translate(-476,-892)">Avissawella</text>
  </g>
  <g>
    <text fill="black" stroke="none" font-size="25.2" font-family="p22" font-weight="100" text-anchor="end" dominant-baseline="central" x="525.9" y="684" transform="translate(546,684) rotate(0) translate(-546,-684)">Periyanurvillu</text>
  </g>
  <g>
    <text fill="black" stroke="none" font-size="25.2" font-family="p22" font-weight="100" text-anchor="start" dominant-baseline="central" x="843.1" y="753" transform="translate(823,753) rotate(0) translate(-823,-753)">MATALE</text>
  </g>
  <g>
    <text fill="black" stroke="none" font-size="25.2" font-family="p22" font-weight="100" text-anchor="start" dominant-baseline="central" x="773.1" y="546" transform="translate(753,546) rotate(0) translate(-753,-546)">Mihintale</text>
  </g>
  <g>
    <text fill="black" stroke="none" font-size="25.2" font-family="p22" font-weight="100" text-anchor="end" dominant-baseline="central" x="525.9" y="476" transform="translate(546,476) rotate(0) translate(-546,-476)">Talaimannar Pier</text>
  </g>
  <g>
    <text fill="black" stroke="none" font-size="25.2" font-family="p22" font-weight="100" text-anchor="start" dominant-baseline="central" x="912.1" y="684" transform="translate(892,684) rotate(0) translate(-892,-684)">BATTICALOA</text>
  </g>
  <g>
    <text fill="black" stroke="none" font-size="25.2" font-family="p22" font-weight="100" text-anchor="start" dominant-baseline="central" x="773.1" y="615" transform="translate(753,615) rotate(0) translate(-753,-615)">TRINCOMALEE</text>
  </g>
  <g>
    <circle r="10" fill="white" stroke="black" stroke-width="2.5" cx="407" cy="823"/>
    <text fill="black" stroke="none" font-size="21.599999999999998" font-family="p22" font-weight="100" text-anchor="end" dominant-baseline="central" x="388.7" y="823" transform="translate(407,823) rotate(0) translate(-407,-823)">COLOMBO Fort</text>
  </g>
  <g>
    <circle r="10" fill="white" stroke="black" stroke-width="2.5" cx="476" cy="823"/>
    <text fill="black" stroke="none" font-size="21.599999999999998" font-family="p22" font-weight="100" text-anchor="end" dominant-baseline="central" x="457.7" y="823" transform="translate(476,823) rotate(45) translate(-476,-823)">Maradana</text>
  </g>
  <g>
    <circle r="10" fill="white" stroke="black" stroke-width="2.5" cx="546" cy="823"/>
    <text fill="black" stroke="none" font-size="21.599999999999998" font-family="p22" font-weight="100" text-anchor="start" dominant-baseline="central" x="564.3" y="823" transform="translate(546,823) rotate(-337.5) translate(-546,-823)">Ragama</text>
  </g>
  <g>
    <circle r="10" fill="white" stroke="black" stroke-width="2.5" cx="684" cy="823"/>
    <text fill="black" stroke="none" font-size="21.599999999999998" font-family="p22" font-weight="100" text-anchor="start" dominant-baseline="central" x="702.3" y="823" transform="translate(684,823) rotate(-315) translate(-684,-823)">Polgahawela</text>
  </g>
  <g>
    <circle r="10" fill="white" stroke="black" stroke-width="2.5" cx="753" cy="823"/>
    <text fill="black" stroke="none" font-size="21.599999999999998" font-family="p22" font-weight="100" text-anchor="start" dominant-baseline="central" x="771.3" y="823" transform="translate(753,823) rotate(-315) translate(-753,-823)">Peradeniya</text>
  </g>
  <g>
    <circle r="10" fill="white" stroke="black" stroke-width="2.5" cx="684" cy="684"/>
    <text fill="black" stroke="none" font-size="21.599999999999998" font-family="p22" font-weight="100" text-anchor="end" dominant-baseline="central" x="665.7" y="684" transform="translate(684,684) rotate(45) translate(-684,-684)">Maho</text>
  </g>
  <g>
    <circle r="10" fill="white" stroke="black" stroke-width="2.5" cx="684" cy="546"/>
    <text fill="black" stroke="none" font-size="21.599999999999998" font-family="p22" font-weight="100" text-anchor="start" dominant-baseline="central" x="702.3" y="546" transform="translate(684,546) rotate(-45) translate(-684,-546)">Mihintale Junction</text>
  </g>
  <g>
    <circle r="10" fill="white" stroke="black" stroke-width="2.5" cx="684" cy="476"/>
    <text fill="black" stroke="none" font-size="21.599999999999998" font-family="p22" font-weight="100" text-anchor="start" dominant-baseline="central" x="702.3" y="476" transform="translate(684,476) rotate(-45) translate(-684,-476)">Medavachchiya</text>
  </g>
  <g>
    <circle r="10" fill="white" stroke="black" stroke-width="2.5" cx="753" cy="684"/>
  </g>
  <g>
    <text fill="gray" stroke="none" font-size="19.8" font-family="p22" font-weight="100" text-anchor="start" dominant-baseline="central" x="632.4" y="823" transform="translate(615,823) rotate(-90) translate(-615,-823)">GAMPAHA</text>
  </g>
  <g>
    <text fill="gray" stroke="none" font-size="19.8" font-family="p22" font-weight="100" text-anchor="start" dominant-baseline="central" x="424.4" y="961" transform="translate(407,961) rotate(0) translate(-407,-961)">GALLE</text>
  </g>
  <g>
    <text fill="gray" stroke="none" font-size="19.8" font-family="p22" font-weight="100" text-anchor="start" dominant-baseline="central" x="424.4" y="1030" transform="translate(407,1030) rotate(0) translate(-407,-1030)">MATARA</text>
  </g>
  <g/>
  <g/>
  <g>
    <text fill="gray" stroke="none" font-size="19.8" font-family="p22" font-weight="100" text-anchor="end" dominant-baseline="central" x="666.6" y="407" transform="translate(684,407) rotate(0) translate(-684,-407)">VAVUNIYA</text>
  </g>
  <g>
    <text fill="gray" stroke="none" font-size="19.8" font-family="p22" font-weight="100" text-anchor="end" dominant-baseline="central" x="666.6" y="338" transform="translate(684,338) rotate(0) translate(-684,-338)">KILINOCHCHI</text>
  </g>
  <g>
    <text fill="gray" stroke="none" font-size="19.8" font-family="p22" font-weight="100" text-anchor="start" dominant-baseline="central" x="701.4" y="269" transform="translate(684,269) rotate(0) translate(-684,-269)">JAFFNA</text>
  </g>
  <g/>
  <g/>
  <g/>
  <g>
    <text fill="gray" stroke="none" font-size="19.8" font-family="p22" font-weight="100" text-anchor="start" dominant-baseline="central" x="840.4" y="684" transform="translate(823,684) rotate(-22.5) translate(-823,-684)">POLONNARUWA</text>
  </g>
  <g>
    <text fill="gray" stroke="none" font-size="18" font-family="p22" font-weight="100" text-anchor="end" dominant-baseline="central" x="390.5" y="892" transform="translate(407,892) rotate(0) translate(-407,-892)">KALUTARA North</text>
  </g>
</svg>
