<?xml version="1.0" ?>
<svg xmlns="http://www.w3.org/2000/svg" width="1000" height="1000" padding="200">
  <text fill="gray" stroke="none" font-size="23.80952380952381" font-family="GIL_____" x="500.0" y="115.0" text-anchor="middle" dominant-baseline="hanging">Topographical Map of Railways in Sri Lanka</text>
  <text fill="gray" stroke="none" font-size="15" font-family="GIL_____" x="500.0" y="915.0" text-anchor="middle" dominant-baseline="text-top">Not to scale.</text>
  <g>
    <path fill="none" stroke-width="8.4" stroke-opacity="1" d="M 200.0,550.0 L 300.0,550.0 L 400.0,550.0 L 500.0,550.0 L 600.0,550.0 L 700.0,550.0 L 800.0,550.0" stroke="red"/>
    <rect stroke="none" fill-opacity="1" x="796" y="542" width="8" height="16" fill="red"/>
  </g>
  <g>
    <text fill="black" stroke="none" font-size="21.0" font-family="GIL_____" font-weight="100" text-anchor="end" dominant-baseline="central" x="183.5" y="550" transform="translate(200,550) rotate(0) translate(-200,-550)">COLOMBO Fort</text>
  </g>
  <g>
    <text fill="black" stroke="none" font-size="21.0" font-family="GIL_____" font-weight="100" text-anchor="start" dominant-baseline="central" x="816.5" y="550" transform="translate(800,550) rotate(0) translate(-800,-550)">BADULLA</text>
  </g>
  <g>
    <text fill="black" stroke="none" font-size="15.0" font-family="GIL_____" font-weight="100" text-anchor="start" dominant-baseline="central" x="513.5" y="550" transform="translate(500,550) rotate(-45) translate(-500,-550)">GAMPAHA</text>
  </g>
  <g>
    <text fill="black" stroke="none" font-size="12.0" font-family="GIL_____" font-weight="100" text-anchor="start" dominant-baseline="central" x="312.0" y="550" transform="translate(300,550) rotate(-45) translate(-300,-550)">Maradana</text>
  </g>
  <g>
    <text fill="black" stroke="none" font-size="12.0" font-family="GIL_____" font-weight="100" text-anchor="start" dominant-baseline="central" x="412.0" y="550" transform="translate(400,550) rotate(-45) translate(-400,-550)">Ragama</text>
  </g>
  <g>
    <text fill="black" stroke="none" font-size="12.0" font-family="GIL_____" font-weight="100" text-anchor="start" dominant-baseline="central" x="612.0" y="550" transform="translate(600,550) rotate(-45) translate(-600,-550)">Polgahawela</text>
  </g>
  <g>
    <text fill="black" stroke="none" font-size="12.0" font-family="GIL_____" font-weight="100" text-anchor="start" dominant-baseline="central" x="712.0" y="550" transform="translate(700,550) rotate(-45) translate(-700,-550)">Peradeniya</text>
  </g>
</svg>
