<?xml version="1.0" ?>
<svg xmlns="http://www.w3.org/2000/svg" width="1300" height="1300" padding="150">
  <rect x="75.0" y="75.0" width="1150" height="1150" fill="white" stroke="gray"/>
  <text fill="gray" stroke="none" font-size="27.083333333333332" font-family="Trebuchet MS" x="650.0" y="87.0" text-anchor="middle" dominant-baseline="hanging">Proposed Lines of the Colombo Light Rail Project</text>
  <g>
    <path fill="none" stroke-width="6.300000000000001" stroke-opacity="1" d="M328 650 L257 721 L257 792 L257 864 L185 935 L185 1007 L257 1078 L328 1078 L400 1078 L471 1078 L542 1007 L614 935 L614 864 L542 792 L471 864 L400 792 L471 721 L400 650 L328 650" stroke="green"/>
    <rect stroke="none" fill-opacity="1" x="325" y="644" width="6" height="12" fill="green"/>
  </g>
  <g>
    <path fill="none" stroke-width="6.300000000000001" stroke-opacity="1" d="M614 864 L685 864 L757 864 L828 864 L900 864 L971 864" stroke="purple"/>
    <rect stroke="none" fill-opacity="1" x="968" y="858" width="6" height="12" fill="purple"/>
  </g>
  <g>
    <path fill="none" stroke-width="6.300000000000001" stroke-opacity="1" d="M971 864 L1042 792 L1114 721" stroke="olive"/>
    <rect stroke="none" fill-opacity="1" x="1111" y="715" width="6" height="12" fill="olive"/>
  </g>
  <g>
    <path fill="none" stroke-width="6.300000000000001" stroke-opacity="1" d="M971 864 L1042 935 L1114 1007" stroke="pink"/>
    <rect stroke="none" fill-opacity="1" x="1111" y="1001" width="6" height="12" fill="pink"/>
  </g>
  <g>
    <path fill="none" stroke-width="6.300000000000001" stroke-opacity="1" d="M471 721 L471 650 L471 578 L542 507 L614 435 L685 364 L757 364" stroke="gold"/>
    <rect stroke="none" fill-opacity="1" x="754" y="358" width="6" height="12" fill="gold"/>
  </g>
  <g>
    <path fill="none" stroke-width="6.300000000000001" stroke-opacity="1" d="M471 578 L400 507 L471 435 L471 364" stroke="yellow"/>
    <rect stroke="none" fill-opacity="1" x="465" y="361" width="12" height="6" fill="yellow"/>
  </g>
  <g>
    <path fill="none" stroke-width="6.300000000000001" stroke-opacity="1" d="M685 364 L757 292 L828 221 L900 150" stroke="silver"/>
    <rect stroke="none" fill-opacity="1" x="897" y="144" width="6" height="12" fill="silver"/>
  </g>
  <g>
    <path fill="none" stroke-width="6.300000000000001" stroke-opacity="1" d="M614 864 L614 935 L614 1007 L614 1078 L614 1150 L542 1150 L471 1150 L400 1150 L328 1150 L257 1078" stroke="red"/>
    <rect stroke="none" fill-opacity="1" x="254" y="1072" width="6" height="12" fill="red"/>
  </g>
  <g>
    <path fill="none" stroke-width="6.300000000000001" stroke-opacity="1" d="M614 864 L614 792 L614 721 L614 650" stroke="red"/>
    <rect stroke="none" fill-opacity="1" x="608" y="647" width="12" height="6" fill="red"/>
  </g>
  <g>
    <circle r="6" fill="white" stroke="black" stroke-width="2.0999999999999996" cx="257" cy="1078"/>
    <text fill="black" stroke="none" font-size="15.600000000000001" font-family="Trebuchet MS" font-weight="100" text-anchor="end" dominant-baseline="central" x="244.7" y="1078" transform="translate(257,1078) rotate(-0) translate(-257,-1078)">Bambamapitiya</text>
  </g>
  <g>
    <circle r="6" fill="white" stroke="black" stroke-width="2.0999999999999996" cx="614" cy="935"/>
    <text fill="black" stroke="none" font-size="15.600000000000001" font-family="Trebuchet MS" font-weight="100" text-anchor="start" dominant-baseline="central" x="626.3" y="935" transform="translate(614,935) rotate(-0) translate(-614,-935)">Kanatta</text>
  </g>
  <g>
    <circle r="6" fill="white" stroke="black" stroke-width="2.0999999999999996" cx="614" cy="864"/>
    <text fill="black" stroke="none" font-size="15.600000000000001" font-family="Trebuchet MS" font-weight="100" text-anchor="end" dominant-baseline="central" x="601.7" y="864" transform="translate(614,864) rotate(-0) translate(-614,-864)">Borella Junction</text>
  </g>
  <g>
    <circle r="6" fill="white" stroke="black" stroke-width="2.0999999999999996" cx="471" cy="721"/>
    <text fill="black" stroke="none" font-size="15.600000000000001" font-family="Trebuchet MS" font-weight="100" text-anchor="start" dominant-baseline="central" x="483.3" y="721" transform="translate(471,721) rotate(-0) translate(-471,-721)">Maradana</text>
  </g>
  <g>
    <circle r="6" fill="white" stroke="black" stroke-width="2.0999999999999996" cx="971" cy="864"/>
    <text fill="black" stroke="none" font-size="15.600000000000001" font-family="Trebuchet MS" font-weight="100" text-anchor="start" dominant-baseline="central" x="983.3" y="864" transform="translate(971,864) rotate(-0) translate(-971,-864)">Malabe</text>
  </g>
  <g>
    <text fill="black" stroke="none" font-size="15.600000000000001" font-family="Trebuchet MS" font-weight="100" text-anchor="start" dominant-baseline="central" x="1126.3" y="721" transform="translate(1114,721) rotate(-0) translate(-1114,-721)">Kaduwela</text>
  </g>
  <g>
    <text fill="black" stroke="none" font-size="15.600000000000001" font-family="Trebuchet MS" font-weight="100" text-anchor="start" dominant-baseline="central" x="1126.3" y="1007" transform="translate(1114,1007) rotate(-0) translate(-1114,-1007)">Kottawa</text>
  </g>
  <g>
    <circle r="6" fill="white" stroke="black" stroke-width="2.0999999999999996" cx="471" cy="578"/>
    <text fill="black" stroke="none" font-size="15.600000000000001" font-family="Trebuchet MS" font-weight="100" text-anchor="start" dominant-baseline="central" x="483.3" y="578" transform="translate(471,578) rotate(-0) translate(-471,-578)">Kotahena</text>
  </g>
  <g>
    <circle r="6" fill="white" stroke="black" stroke-width="2.0999999999999996" cx="685" cy="364"/>
    <text fill="black" stroke="none" font-size="15.600000000000001" font-family="Trebuchet MS" font-weight="100" text-anchor="end" dominant-baseline="central" x="672.7" y="364" transform="translate(685,364) rotate(-0) translate(-685,-364)">Peliyagoda</text>
  </g>
  <g>
    <text fill="black" stroke="none" font-size="15.600000000000001" font-family="Trebuchet MS" font-weight="100" text-anchor="start" dominant-baseline="central" x="769.3" y="364" transform="translate(757,364) rotate(-0) translate(-757,-364)">Kelaniya</text>
  </g>
  <g>
    <text fill="black" stroke="none" font-size="15.600000000000001" font-family="Trebuchet MS" font-weight="100" text-anchor="start" dominant-baseline="central" x="483.3" y="364" transform="translate(471,364) rotate(-0) translate(-471,-364)">Mattakkuliya</text>
  </g>
  <g>
    <text fill="black" stroke="none" font-size="15.600000000000001" font-family="Trebuchet MS" font-weight="100" text-anchor="start" dominant-baseline="central" x="912.3" y="150" transform="translate(900,150) rotate(-0) translate(-900,-150)">Kadawatha</text>
  </g>
  <g>
    <text fill="black" stroke="none" font-size="15.600000000000001" font-family="Trebuchet MS" font-weight="100" text-anchor="start" dominant-baseline="central" x="626.3" y="650" transform="translate(614,650) rotate(-0) translate(-614,-650)">Dematagoda</text>
  </g>
  <g>
    <rect stroke="none" fill-opacity="1" x="322.0" y="647.0" width="6" height="6" fill="green"/>
    <text fill="black" stroke="none" font-size="12" font-family="Trebuchet MS" font-weight="100" text-anchor="end" dominant-baseline="central" x="317.5" y="650" transform="translate(328,650) rotate(-0) translate(-328,-650)">Fort</text>
  </g>
  <g>
    <rect stroke="none" fill-opacity="1" x="257.0" y="718.0" width="6" height="6" fill="green"/>
    <text fill="black" stroke="none" font-size="12" font-family="Trebuchet MS" font-weight="100" text-anchor="start" dominant-baseline="central" x="267.5" y="721" transform="translate(257,721) rotate(-0) translate(-257,-721)">GALLE Face</text>
  </g>
  <g>
    <rect stroke="none" fill-opacity="1" x="257.0" y="789.0" width="6" height="6" fill="green"/>
    <text fill="black" stroke="none" font-size="12" font-family="Trebuchet MS" font-weight="100" text-anchor="start" dominant-baseline="central" x="267.5" y="792" transform="translate(257,792) rotate(-0) translate(-257,-792)">Gangaramaya</text>
  </g>
  <g>
    <rect stroke="none" fill-opacity="1" x="257.0" y="861.0" width="6" height="6" fill="green"/>
    <text fill="black" stroke="none" font-size="12" font-family="Trebuchet MS" font-weight="100" text-anchor="start" dominant-baseline="central" x="267.5" y="864" transform="translate(257,864) rotate(-0) translate(-257,-864)">Public Library</text>
  </g>
  <g>
    <rect stroke="none" fill-opacity="1" x="185.0" y="932.0" width="6" height="6" fill="green"/>
    <text fill="black" stroke="none" font-size="12" font-family="Trebuchet MS" font-weight="100" text-anchor="start" dominant-baseline="central" x="195.5" y="935" transform="translate(185,935) rotate(-0) translate(-185,-935)">Kollupitiya</text>
  </g>
  <g>
    <rect stroke="none" fill-opacity="1" x="185.0" y="1004.0" width="6" height="6" fill="green"/>
    <text fill="black" stroke="none" font-size="12" font-family="Trebuchet MS" font-weight="100" text-anchor="start" dominant-baseline="central" x="195.5" y="1007" transform="translate(185,1007) rotate(-0) translate(-185,-1007)">Mahanama</text>
  </g>
  <g>
    <rect stroke="none" fill-opacity="1" x="327.12132034355966" y="1072.8786796564405" width="6" height="6" fill="green"/>
    <text fill="black" stroke="none" font-size="12" font-family="Trebuchet MS" font-weight="100" text-anchor="start" dominant-baseline="central" x="338.5" y="1078" transform="translate(328,1078) rotate(-45) translate(-328,-1078)">Thummulla</text>
  </g>
  <g>
    <rect stroke="none" fill-opacity="1" x="399.12132034355966" y="1072.8786796564405" width="6" height="6" fill="green"/>
    <text fill="black" stroke="none" font-size="12" font-family="Trebuchet MS" font-weight="100" text-anchor="start" dominant-baseline="central" x="410.5" y="1078" transform="translate(400,1078) rotate(-45) translate(-400,-1078)">Royal</text>
  </g>
  <g>
    <rect stroke="none" fill-opacity="1" x="471.0" y="1075.0" width="6" height="6" fill="green"/>
    <text fill="black" stroke="none" font-size="12" font-family="Trebuchet MS" font-weight="100" text-anchor="start" dominant-baseline="central" x="481.5" y="1078" transform="translate(471,1078) rotate(-0) translate(-471,-1078)">Torrington</text>
  </g>
  <g>
    <rect stroke="none" fill-opacity="1" x="536.8786796564403" y="1001.8786796564403" width="6" height="6" fill="green"/>
    <text fill="black" stroke="none" font-size="12" font-family="Trebuchet MS" font-weight="100" text-anchor="end" dominant-baseline="central" x="531.5" y="1007" transform="translate(542,1007) rotate(--45) translate(-542,-1007)">BMICH</text>
  </g>
  <g>
    <rect stroke="none" fill-opacity="1" x="536.0" y="789.0" width="6" height="6" fill="green"/>
    <text fill="black" stroke="none" font-size="12" font-family="Trebuchet MS" font-weight="100" text-anchor="end" dominant-baseline="central" x="531.5" y="792" transform="translate(542,792) rotate(-0) translate(-542,-792)">NHSL</text>
  </g>
  <g>
    <rect stroke="none" fill-opacity="1" x="465.0" y="861.0" width="6" height="6" fill="green"/>
    <text fill="black" stroke="none" font-size="12" font-family="Trebuchet MS" font-weight="100" text-anchor="end" dominant-baseline="central" x="460.5" y="864" transform="translate(471,864) rotate(-0) translate(-471,-864)">Townhall</text>
  </g>
  <g>
    <rect stroke="none" fill-opacity="1" x="399.77163859753387" y="787.8519497029047" width="6" height="6" fill="green"/>
    <text fill="black" stroke="none" font-size="12" font-family="Trebuchet MS" font-weight="100" text-anchor="start" dominant-baseline="central" x="410.5" y="792" transform="translate(400,792) rotate(-22.5) translate(-400,-792)">Union Place</text>
  </g>
  <g>
    <rect stroke="none" fill-opacity="1" x="394.87867965644034" y="644.8786796564403" width="6" height="6" fill="green"/>
    <text fill="black" stroke="none" font-size="12" font-family="Trebuchet MS" font-weight="100" text-anchor="end" dominant-baseline="central" x="389.5" y="650" transform="translate(400,650) rotate(--45) translate(-400,-650)">Pettah</text>
  </g>
  <g>
    <rect stroke="none" fill-opacity="1" x="684.1213203435597" y="858.8786796564403" width="6" height="6" fill="purple"/>
    <text fill="black" stroke="none" font-size="12" font-family="Trebuchet MS" font-weight="100" text-anchor="start" dominant-baseline="central" x="695.5" y="864" transform="translate(685,864) rotate(-45) translate(-685,-864)">Cotta Rd</text>
  </g>
  <g>
    <rect stroke="none" fill-opacity="1" x="756.1213203435597" y="858.8786796564403" width="6" height="6" fill="purple"/>
    <text fill="black" stroke="none" font-size="12" font-family="Trebuchet MS" font-weight="100" text-anchor="start" dominant-baseline="central" x="767.5" y="864" transform="translate(757,864) rotate(-45) translate(-757,-864)">Rajagiriya</text>
  </g>
  <g>
    <rect stroke="none" fill-opacity="1" x="827.1213203435597" y="858.8786796564403" width="6" height="6" fill="purple"/>
    <text fill="black" stroke="none" font-size="12" font-family="Trebuchet MS" font-weight="100" text-anchor="start" dominant-baseline="central" x="838.5" y="864" transform="translate(828,864) rotate(-45) translate(-828,-864)">Battaramulla</text>
  </g>
  <g>
    <rect stroke="none" fill-opacity="1" x="899.1213203435597" y="858.8786796564403" width="6" height="6" fill="purple"/>
    <text fill="black" stroke="none" font-size="12" font-family="Trebuchet MS" font-weight="100" text-anchor="start" dominant-baseline="central" x="910.5" y="864" transform="translate(900,864) rotate(-45) translate(-900,-864)">Udumulla</text>
  </g>
  <g>
    <rect stroke="none" fill-opacity="1" x="1042.0" y="789.0" width="6" height="6" fill="olive"/>
    <text fill="black" stroke="none" font-size="12" font-family="Trebuchet MS" font-weight="100" text-anchor="start" dominant-baseline="central" x="1052.5" y="792" transform="translate(1042,792) rotate(-0) translate(-1042,-792)">SLIIT</text>
  </g>
  <g>
    <rect stroke="none" fill-opacity="1" x="1042.0" y="932.0" width="6" height="6" fill="pink"/>
    <text fill="black" stroke="none" font-size="12" font-family="Trebuchet MS" font-weight="100" text-anchor="start" dominant-baseline="central" x="1052.5" y="935" transform="translate(1042,935) rotate(-0) translate(-1042,-935)">Hokandara</text>
  </g>
  <g>
    <rect stroke="none" fill-opacity="1" x="471.0" y="647.0" width="6" height="6" fill="gold"/>
    <text fill="black" stroke="none" font-size="12" font-family="Trebuchet MS" font-weight="100" text-anchor="start" dominant-baseline="central" x="481.5" y="650" transform="translate(471,650) rotate(-0) translate(-471,-650)">Hulftsdorp</text>
  </g>
  <g>
    <rect stroke="none" fill-opacity="1" x="542.0" y="504.0" width="6" height="6" fill="gold"/>
    <text fill="black" stroke="none" font-size="12" font-family="Trebuchet MS" font-weight="100" text-anchor="start" dominant-baseline="central" x="552.5" y="507" transform="translate(542,507) rotate(-0) translate(-542,-507)">Grandpass</text>
  </g>
  <g>
    <rect stroke="none" fill-opacity="1" x="614.0" y="432.0" width="6" height="6" fill="gold"/>
    <text fill="black" stroke="none" font-size="12" font-family="Trebuchet MS" font-weight="100" text-anchor="start" dominant-baseline="central" x="624.5" y="435" transform="translate(614,435) rotate(-0) translate(-614,-435)">Madampitiya</text>
  </g>
  <g>
    <rect stroke="none" fill-opacity="1" x="400.0" y="504.0" width="6" height="6" fill="yellow"/>
    <text fill="black" stroke="none" font-size="12" font-family="Trebuchet MS" font-weight="100" text-anchor="start" dominant-baseline="central" x="410.5" y="507" transform="translate(400,507) rotate(-0) translate(-400,-507)">Hettiyawatta</text>
  </g>
  <g>
    <rect stroke="none" fill-opacity="1" x="471.0" y="432.0" width="6" height="6" fill="yellow"/>
    <text fill="black" stroke="none" font-size="12" font-family="Trebuchet MS" font-weight="100" text-anchor="start" dominant-baseline="central" x="481.5" y="435" transform="translate(471,435) rotate(-0) translate(-471,-435)">Modara</text>
  </g>
  <g>
    <rect stroke="none" fill-opacity="1" x="757.0" y="289.0" width="6" height="6" fill="silver"/>
    <text fill="black" stroke="none" font-size="12" font-family="Trebuchet MS" font-weight="100" text-anchor="start" dominant-baseline="central" x="767.5" y="292" transform="translate(757,292) rotate(-0) translate(-757,-292)">Kiribathgoda</text>
  </g>
  <g>
    <rect stroke="none" fill-opacity="1" x="828.0" y="218.0" width="6" height="6" fill="silver"/>
    <text fill="black" stroke="none" font-size="12" font-family="Trebuchet MS" font-weight="100" text-anchor="start" dominant-baseline="central" x="838.5" y="221" transform="translate(828,221) rotate(-0) translate(-828,-221)">Mahara</text>
  </g>
  <g>
    <rect stroke="none" fill-opacity="1" x="614.0" y="1004.0" width="6" height="6" fill="red"/>
    <text fill="black" stroke="none" font-size="12" font-family="Trebuchet MS" font-weight="100" text-anchor="start" dominant-baseline="central" x="624.5" y="1007" transform="translate(614,1007) rotate(-0) translate(-614,-1007)">Narehenpita</text>
  </g>
  <g>
    <rect stroke="none" fill-opacity="1" x="614.0" y="1075.0" width="6" height="6" fill="red"/>
    <text fill="black" stroke="none" font-size="12" font-family="Trebuchet MS" font-weight="100" text-anchor="start" dominant-baseline="central" x="624.5" y="1078" transform="translate(614,1078) rotate(-0) translate(-614,-1078)">Kirula</text>
  </g>
  <g>
    <rect stroke="none" fill-opacity="1" x="614.0" y="1147.0" width="6" height="6" fill="red"/>
    <text fill="black" stroke="none" font-size="12" font-family="Trebuchet MS" font-weight="100" text-anchor="start" dominant-baseline="central" x="624.5" y="1150" transform="translate(614,1150) rotate(-0) translate(-614,-1150)">Pamankada</text>
  </g>
  <g>
    <rect stroke="none" fill-opacity="1" x="541.1213203435597" y="1149.1213203435595" width="6" height="6" fill="red"/>
    <text fill="black" stroke="none" font-size="12" font-family="Trebuchet MS" font-weight="100" text-anchor="start" dominant-baseline="central" x="552.5" y="1150" transform="translate(542,1150) rotate(-315) translate(-542,-1150)">Kirulapone</text>
  </g>
  <g>
    <rect stroke="none" fill-opacity="1" x="470.12132034355966" y="1149.1213203435595" width="6" height="6" fill="red"/>
    <text fill="black" stroke="none" font-size="12" font-family="Trebuchet MS" font-weight="100" text-anchor="start" dominant-baseline="central" x="481.5" y="1150" transform="translate(471,1150) rotate(-315) translate(-471,-1150)">Havelock City</text>
  </g>
  <g>
    <rect stroke="none" fill-opacity="1" x="399.12132034355966" y="1149.1213203435595" width="6" height="6" fill="red"/>
    <text fill="black" stroke="none" font-size="12" font-family="Trebuchet MS" font-weight="100" text-anchor="start" dominant-baseline="central" x="410.5" y="1150" transform="translate(400,1150) rotate(-315) translate(-400,-1150)">Havelock Town</text>
  </g>
  <g>
    <rect stroke="none" fill-opacity="1" x="322.0" y="1147.0" width="6" height="6" fill="red"/>
    <text fill="black" stroke="none" font-size="12" font-family="Trebuchet MS" font-weight="100" text-anchor="end" dominant-baseline="central" x="317.5" y="1150" transform="translate(328,1150) rotate(-0) translate(-328,-1150)">Visakha</text>
  </g>
  <g>
    <rect stroke="none" fill-opacity="1" x="614.0" y="789.0" width="6" height="6" fill="red"/>
    <text fill="black" stroke="none" font-size="12" font-family="Trebuchet MS" font-weight="100" text-anchor="start" dominant-baseline="central" x="624.5" y="792" transform="translate(614,792) rotate(-0) translate(-614,-792)">Maligawatta</text>
  </g>
  <g>
    <rect stroke="none" fill-opacity="1" x="614.0" y="718.0" width="6" height="6" fill="red"/>
    <text fill="black" stroke="none" font-size="12" font-family="Trebuchet MS" font-weight="100" text-anchor="start" dominant-baseline="central" x="624.5" y="721" transform="translate(614,721) rotate(-0) translate(-614,-721)">Welikada</text>
  </g>
</svg>
