<?xml version="1.0" ?>
<svg xmlns="http://www.w3.org/2000/svg" width="1300" height="1300" padding="150">
  <rect x="75.0" y="75.0" width="1150" height="1150" fill="white" stroke="gray"/>
  <text fill="gray" stroke="none" font-size="27.083333333333332" font-family="Trebuchet MS" x="650.0" y="87.0" text-anchor="middle" dominant-baseline="hanging">Proposed Lines of the Colombo Light Rail Project</text>
  <g>
    <path fill="none" stroke-width="8.4" stroke-opacity="1" d="M 325.58169480834204,652.418305191658 L 259.51022907321226,718.4897709267877 C 258.6734860488082,719.3265139511918 257.0,723.3666666666667 257.0,724.55 L 257.0,792.0 L 257.0,860.4 C 257.0,861.6 255.29111798224358,865.6851475452876 254.43667697336537,866.5277213179314 L 187.56332302663463,932.4722786820686 C 186.70888201775642,933.3148524547124 185.0,937.4 185.0,938.6 L 185.0,1003.58 C 185.0,1004.72 186.6234379168686,1008.6008901680232 187.4351568753029,1009.4013352520348 L 254.47227868206863,1075.5073859225954 C 255.31485245471242,1076.3382572817302 259.3666666666667,1078.0 260.55,1078.0 L 328.0,1078.0 L 400.0,1078.0 L 467.45,1078.0 C 468.6333333333333,1078.0 472.6734860488082,1076.3265139511918 473.51022907321226,1075.4897709267877 L 542.0,1007.0 L 611.4897709267877,937.5102290732123 C 612.3265139511918,936.6734860488082 614.0,932.6333333333333 614.0,931.45 L 614.0,867.3725 C 614.0,866.2483333333333 612.4101882536322,862.4101882536322 611.6152823804483,861.6152823804483 L 545.4807641190224,795.4807641190224 C 544.3205094126816,794.3205094126816 539.6957742659724,794.3366796176055 538.5436613989585,795.5050194264082 L 474.37718306994793,860.5752509713204 C 473.2514553799653,861.7168339808803 468.7485446200347,861.7168339808803 467.62281693005207,860.5752509713204 L 403.3811408465026,795.428762548566 C 402.2540938976684,794.285841699044 402.27002330082695,789.7299766991731 403.4050349512404,788.5949650487596 L 467.620251747562,724.3797482524379 C 468.74683449837465,723.2531655016253 468.74683449837465,718.7468344983747 467.620251747562,717.6202517475621 L 402.5455844122716,652.5455844122715 C 401.69705627484774,651.6970562748477 397.6,650.0 396.4,650.0 L 331.42,650.0 C 330.28,650.0 326.3877965388947,651.6122034611053 325.58169480834204,652.418305191658" stroke="green"/>
    <rect stroke="none" fill-opacity="1" x="324" y="642" width="8" height="16" fill="green"/>
  </g>
  <g>
    <path fill="none" stroke-width="8.4" stroke-opacity="1" d="M 614.0,864.0 L 685.0,864.0 L 757.0,864.0 L 828.0,864.0 L 900.0,864.0 L 971.0,864.0" stroke="purple"/>
    <rect stroke="none" fill-opacity="1" x="967" y="856" width="8" height="16" fill="purple"/>
  </g>
  <g>
    <path fill="none" stroke-width="8.4" stroke-opacity="1" d="M 971.0,864.0 L 1038.45,795.6 C 1039.6333333333334,794.4 1044.4,789.6333333333333 1045.6,788.45 L 1114.0,721.0" stroke="olive"/>
    <rect stroke="none" fill-opacity="1" x="1110" y="713" width="8" height="16" fill="olive"/>
  </g>
  <g>
    <path fill="none" stroke-width="8.4" stroke-opacity="1" d="M 971.0,864.0 L 1042.0,935.0 L 1114.0,1007.0" stroke="pink"/>
    <rect stroke="none" fill-opacity="1" x="1110" y="999" width="8" height="16" fill="pink"/>
  </g>
  <g>
    <path fill="none" stroke-width="8.4" stroke-opacity="1" d="M 471.0,721.0 L 471.0,650.0 L 471.0,581.6 C 471.0,580.4 472.69705627484774,576.3029437251523 473.5455844122716,575.4544155877285 L 542.0,507.0 L 614.0,435.0 L 682.4544155877285,366.5455844122716 C 683.3029437251523,365.69705627484774 687.4,364.0 688.6,364.0 L 757.0,364.0" stroke="gold"/>
    <rect stroke="none" fill-opacity="1" x="753" y="356" width="8" height="16" fill="gold"/>
  </g>
  <g>
    <path fill="none" stroke-width="8.4" stroke-opacity="1" d="M 471.0,578.0 L 403.55,510.55 C 402.3666666666667,509.3666666666667 402.35005908935176,504.6168414868546 403.5250886340276,503.4252622302819 L 468.50738592259546,437.52772131793137 C 469.3382572817303,436.6851475452876 471.0,432.6333333333333 471.0,431.45 L 471.0,364.0" stroke="yellow"/>
    <rect stroke="none" fill-opacity="1" x="463" y="360" width="16" height="8" fill="yellow"/>
  </g>
  <g>
    <path fill="none" stroke-width="8.4" stroke-opacity="1" d="M 685.0,364.0 L 757.0,292.0 L 824.45,224.55 C 825.6333333333333,223.36666666666667 830.3831585131454,218.64994091064827 831.5747377697181,217.4749113659724 L 900.0,150.0" stroke="silver"/>
    <rect stroke="none" fill-opacity="1" x="896" y="142" width="8" height="16" fill="silver"/>
  </g>
  <g>
    <path fill="none" stroke-width="8.4" stroke-opacity="1" d="M 614.0,864.0 L 614.0,935.0 L 614.0,1007.0 L 614.0,1078.0 L 614.0,1146.4 C 614.0,1147.6 611.6,1150.0 610.4,1150.0 L 542.0,1150.0 L 471.0,1150.0 L 400.0,1150.0 L 331.6,1150.0 C 330.4,1150.0 326.3148524547124,1148.2911179822436 325.47227868206863,1147.4366769733654 L 257.0,1078.0" stroke="red"/>
    <rect stroke="none" fill-opacity="1" x="253" y="1070" width="8" height="16" fill="red"/>
  </g>
  <g>
    <path fill="none" stroke-width="8.4" stroke-opacity="1" d="M 614.0,864.0 L 614.0,792.0 L 614.0,721.0 L 614.0,650.0" stroke="red"/>
    <rect stroke="none" fill-opacity="1" x="606" y="646" width="16" height="8" fill="red"/>
  </g>
  <g>
    <circle r="8" fill="white" stroke="black" stroke-width="2.0" cx="257" cy="1078"/>
    <text fill="black" stroke="none" font-size="15.600000000000001" font-family="Trebuchet MS" font-weight="100" text-anchor="end" dominant-baseline="central" x="243.2" y="1078" transform="translate(257,1078) rotate(-0) translate(-257,-1078)">Bambamapitiya</text>
  </g>
  <g>
    <circle r="8" fill="white" stroke="black" stroke-width="2.0" cx="614" cy="935"/>
    <text fill="black" stroke="none" font-size="15.600000000000001" font-family="Trebuchet MS" font-weight="100" text-anchor="start" dominant-baseline="central" x="627.8" y="935" transform="translate(614,935) rotate(-0) translate(-614,-935)">Kanatta</text>
  </g>
  <g>
    <circle r="8" fill="white" stroke="black" stroke-width="2.0" cx="614" cy="864"/>
    <text fill="black" stroke="none" font-size="15.600000000000001" font-family="Trebuchet MS" font-weight="100" text-anchor="start" dominant-baseline="central" x="627.8" y="864" transform="translate(614,864) rotate(-45) translate(-614,-864)">Borella Junction</text>
  </g>
  <g>
    <circle r="8" fill="white" stroke="black" stroke-width="2.0" cx="471" cy="721"/>
    <text fill="black" stroke="none" font-size="15.600000000000001" font-family="Trebuchet MS" font-weight="100" text-anchor="end" dominant-baseline="central" x="457.2" y="721" transform="translate(471,721) rotate(-0) translate(-471,-721)">Maradana</text>
  </g>
  <g>
    <circle r="8" fill="white" stroke="black" stroke-width="2.0" cx="971" cy="864"/>
    <text fill="black" stroke="none" font-size="15.600000000000001" font-family="Trebuchet MS" font-weight="100" text-anchor="start" dominant-baseline="central" x="984.8" y="864" transform="translate(971,864) rotate(-0) translate(-971,-864)">Malabe</text>
  </g>
  <g>
    <text fill="black" stroke="none" font-size="15.600000000000001" font-family="Trebuchet MS" font-weight="100" text-anchor="start" dominant-baseline="central" x="1127.8" y="721" transform="translate(1114,721) rotate(-0) translate(-1114,-721)">Kaduwela</text>
  </g>
  <g>
    <text fill="black" stroke="none" font-size="15.600000000000001" font-family="Trebuchet MS" font-weight="100" text-anchor="start" dominant-baseline="central" x="1127.8" y="1007" transform="translate(1114,1007) rotate(-0) translate(-1114,-1007)">Kottawa</text>
  </g>
  <g>
    <circle r="8" fill="white" stroke="black" stroke-width="2.0" cx="471" cy="578"/>
    <text fill="black" stroke="none" font-size="15.600000000000001" font-family="Trebuchet MS" font-weight="100" text-anchor="start" dominant-baseline="central" x="484.8" y="578" transform="translate(471,578) rotate(-0) translate(-471,-578)">Kotahena</text>
  </g>
  <g>
    <circle r="8" fill="white" stroke="black" stroke-width="2.0" cx="685" cy="364"/>
    <text fill="black" stroke="none" font-size="15.600000000000001" font-family="Trebuchet MS" font-weight="100" text-anchor="end" dominant-baseline="central" x="671.2" y="364" transform="translate(685,364) rotate(-0) translate(-685,-364)">Peliyagoda</text>
  </g>
  <g>
    <text fill="black" stroke="none" font-size="15.600000000000001" font-family="Trebuchet MS" font-weight="100" text-anchor="start" dominant-baseline="central" x="770.8" y="364" transform="translate(757,364) rotate(-0) translate(-757,-364)">Kelaniya</text>
  </g>
  <g>
    <text fill="black" stroke="none" font-size="15.600000000000001" font-family="Trebuchet MS" font-weight="100" text-anchor="end" dominant-baseline="central" x="457.2" y="364" transform="translate(471,364) rotate(-0) translate(-471,-364)">Mattakkuliya</text>
  </g>
  <g>
    <text fill="black" stroke="none" font-size="15.600000000000001" font-family="Trebuchet MS" font-weight="100" text-anchor="start" dominant-baseline="central" x="913.8" y="150" transform="translate(900,150) rotate(-0) translate(-900,-150)">Kadawatha</text>
  </g>
  <g>
    <text fill="black" stroke="none" font-size="15.600000000000001" font-family="Trebuchet MS" font-weight="100" text-anchor="start" dominant-baseline="central" x="627.8" y="650" transform="translate(614,650) rotate(-0) translate(-614,-650)">Dematagoda</text>
  </g>
  <g>
    <text fill="black" stroke="none" font-size="12" font-family="Trebuchet MS" font-weight="100" text-anchor="end" dominant-baseline="central" x="316.0" y="650" transform="translate(328,650) rotate(-0) translate(-328,-650)">Fort</text>
  </g>
  <g>
    <text fill="black" stroke="none" font-size="12" font-family="Trebuchet MS" font-weight="100" text-anchor="end" dominant-baseline="central" x="245.0" y="721" transform="translate(257,721) rotate(-0) translate(-257,-721)">GALLE Face</text>
  </g>
  <g>
    <text fill="black" stroke="none" font-size="12" font-family="Trebuchet MS" font-weight="100" text-anchor="end" dominant-baseline="central" x="245.0" y="792" transform="translate(257,792) rotate(-0) translate(-257,-792)">Gangaramaya</text>
  </g>
  <g>
    <text fill="black" stroke="none" font-size="12" font-family="Trebuchet MS" font-weight="100" text-anchor="start" dominant-baseline="central" x="269.0" y="864" transform="translate(257,864) rotate(-0) translate(-257,-864)">Public Library</text>
  </g>
  <g>
    <text fill="black" stroke="none" font-size="12" font-family="Trebuchet MS" font-weight="100" text-anchor="start" dominant-baseline="central" x="197.0" y="935" transform="translate(185,935) rotate(-0) translate(-185,-935)">Kollupitiya</text>
  </g>
  <g>
    <text fill="black" stroke="none" font-size="12" font-family="Trebuchet MS" font-weight="100" text-anchor="start" dominant-baseline="central" x="197.0" y="1007" transform="translate(185,1007) rotate(-0) translate(-185,-1007)">Mahanama</text>
  </g>
  <g>
    <text fill="black" stroke="none" font-size="12" font-family="Trebuchet MS" font-weight="100" text-anchor="start" dominant-baseline="central" x="340.0" y="1078" transform="translate(328,1078) rotate(-45) translate(-328,-1078)">Thummulla</text>
  </g>
  <g>
    <text fill="black" stroke="none" font-size="12" font-family="Trebuchet MS" font-weight="100" text-anchor="start" dominant-baseline="central" x="412.0" y="1078" transform="translate(400,1078) rotate(-45) translate(-400,-1078)">Royal</text>
  </g>
  <g/>
  <g>
    <text fill="black" stroke="none" font-size="12" font-family="Trebuchet MS" font-weight="100" text-anchor="start" dominant-baseline="central" x="554.0" y="1007" transform="translate(542,1007) rotate(-337.5) translate(-542,-1007)">BMICH</text>
  </g>
  <g>
    <text fill="black" stroke="none" font-size="12" font-family="Trebuchet MS" font-weight="100" text-anchor="start" dominant-baseline="central" x="554.0" y="792" transform="translate(542,792) rotate(-22.5) translate(-542,-792)">NHSL</text>
  </g>
  <g/>
  <g>
    <text fill="black" stroke="none" font-size="12" font-family="Trebuchet MS" font-weight="100" text-anchor="start" dominant-baseline="central" x="412.0" y="792" transform="translate(400,792) rotate(-22.5) translate(-400,-792)">Union Place</text>
  </g>
  <g>
    <text fill="black" stroke="none" font-size="12" font-family="Trebuchet MS" font-weight="100" text-anchor="end" dominant-baseline="central" x="388.0" y="650" transform="translate(400,650) rotate(--45) translate(-400,-650)">Pettah</text>
  </g>
  <g>
    <text fill="black" stroke="none" font-size="12" font-family="Trebuchet MS" font-weight="100" text-anchor="start" dominant-baseline="central" x="697.0" y="864" transform="translate(685,864) rotate(-45) translate(-685,-864)">Cotta Rd</text>
  </g>
  <g>
    <text fill="black" stroke="none" font-size="12" font-family="Trebuchet MS" font-weight="100" text-anchor="start" dominant-baseline="central" x="769.0" y="864" transform="translate(757,864) rotate(-45) translate(-757,-864)">Rajagiriya</text>
  </g>
  <g>
    <text fill="black" stroke="none" font-size="12" font-family="Trebuchet MS" font-weight="100" text-anchor="start" dominant-baseline="central" x="840.0" y="864" transform="translate(828,864) rotate(-45) translate(-828,-864)">Battaramulla</text>
  </g>
  <g>
    <text fill="black" stroke="none" font-size="12" font-family="Trebuchet MS" font-weight="100" text-anchor="start" dominant-baseline="central" x="912.0" y="864" transform="translate(900,864) rotate(-45) translate(-900,-864)">Udumulla</text>
  </g>
  <g>
    <text fill="black" stroke="none" font-size="12" font-family="Trebuchet MS" font-weight="100" text-anchor="start" dominant-baseline="central" x="1054.0" y="792" transform="translate(1042,792) rotate(-0) translate(-1042,-792)">SLIIT</text>
  </g>
  <g>
    <text fill="black" stroke="none" font-size="12" font-family="Trebuchet MS" font-weight="100" text-anchor="start" dominant-baseline="central" x="1054.0" y="935" transform="translate(1042,935) rotate(-0) translate(-1042,-935)">Hokandara</text>
  </g>
  <g>
    <text fill="black" stroke="none" font-size="12" font-family="Trebuchet MS" font-weight="100" text-anchor="end" dominant-baseline="central" x="459.0" y="650" transform="translate(471,650) rotate(--45) translate(-471,-650)">Hulftsdorp</text>
  </g>
  <g>
    <text fill="black" stroke="none" font-size="12" font-family="Trebuchet MS" font-weight="100" text-anchor="start" dominant-baseline="central" x="554.0" y="507" transform="translate(542,507) rotate(-0) translate(-542,-507)">Grandpass</text>
  </g>
  <g>
    <text fill="black" stroke="none" font-size="12" font-family="Trebuchet MS" font-weight="100" text-anchor="start" dominant-baseline="central" x="626.0" y="435" transform="translate(614,435) rotate(-0) translate(-614,-435)">Madampitiya</text>
  </g>
  <g>
    <text fill="black" stroke="none" font-size="12" font-family="Trebuchet MS" font-weight="100" text-anchor="end" dominant-baseline="central" x="388.0" y="507" transform="translate(400,507) rotate(--45) translate(-400,-507)">Hettiyawatta</text>
  </g>
  <g/>
  <g>
    <text fill="black" stroke="none" font-size="12" font-family="Trebuchet MS" font-weight="100" text-anchor="start" dominant-baseline="central" x="769.0" y="292" transform="translate(757,292) rotate(-0) translate(-757,-292)">Kiribathgoda</text>
  </g>
  <g>
    <text fill="black" stroke="none" font-size="12" font-family="Trebuchet MS" font-weight="100" text-anchor="start" dominant-baseline="central" x="840.0" y="221" transform="translate(828,221) rotate(-0) translate(-828,-221)">Mahara</text>
  </g>
  <g>
    <text fill="black" stroke="none" font-size="12" font-family="Trebuchet MS" font-weight="100" text-anchor="start" dominant-baseline="central" x="626.0" y="1007" transform="translate(614,1007) rotate(-0) translate(-614,-1007)">Narehenpita</text>
  </g>
  <g>
    <text fill="black" stroke="none" font-size="12" font-family="Trebuchet MS" font-weight="100" text-anchor="start" dominant-baseline="central" x="626.0" y="1078" transform="translate(614,1078) rotate(-315) translate(-614,-1078)">Kirula</text>
  </g>
  <g>
    <text fill="black" stroke="none" font-size="12" font-family="Trebuchet MS" font-weight="100" text-anchor="start" dominant-baseline="central" x="626.0" y="1150" transform="translate(614,1150) rotate(-315) translate(-614,-1150)">Pamankada</text>
  </g>
  <g>
    <text fill="black" stroke="none" font-size="12" font-family="Trebuchet MS" font-weight="100" text-anchor="start" dominant-baseline="central" x="554.0" y="1150" transform="translate(542,1150) rotate(-315) translate(-542,-1150)">Kirulapone</text>
  </g>
  <g>
    <text fill="black" stroke="none" font-size="12" font-family="Trebuchet MS" font-weight="100" text-anchor="start" dominant-baseline="central" x="483.0" y="1150" transform="translate(471,1150) rotate(-315) translate(-471,-1150)">Havelock City</text>
  </g>
  <g>
    <text fill="black" stroke="none" font-size="12" font-family="Trebuchet MS" font-weight="100" text-anchor="start" dominant-baseline="central" x="412.0" y="1150" transform="translate(400,1150) rotate(-315) translate(-400,-1150)">Havelock Town</text>
  </g>
  <g>
    <text fill="black" stroke="none" font-size="12" font-family="Trebuchet MS" font-weight="100" text-anchor="end" dominant-baseline="central" x="316.0" y="1150" transform="translate(328,1150) rotate(-0) translate(-328,-1150)">Visakha</text>
  </g>
  <g/>
  <g/>
</svg>
