<?xml version="1.0" ?>
<svg xmlns="http://www.w3.org/2000/svg" width="800" height="800" padding="80">
  <rect x="40.0" y="40.0" width="720" height="720" fill="white" stroke="gray"/>
  <text fill="gray" stroke="none" font-size="12.307692307692308" font-family="Trebuchet MS" x="400.0" y="52.0" text-anchor="middle" dominant-baseline="hanging">Proposed Railway Interventions in the Western Province, Sri Lanka</text>
  <g>
    <path fill="none" stroke-width="8.4" stroke-opacity="1" d="M 229.0,421.0 L 229.0,464.0 L 229.0,506.0 L 229.0,549.0 L 229.0,592.0 L 229.0,634.0 L 229.0,677.0 L 229.0,720.0" stroke="cyan"/>
    <rect stroke="none" fill-opacity="1" x="221" y="716" width="16" height="8" fill="cyan"/>
  </g>
  <g>
    <path fill="none" stroke-width="8.4" stroke-opacity="1" d="M 229.0,421.0 L 272.0,378.0 L 314.0,336.0 L 357.0,293.0 L 398.93933982822017,251.06066017177983 C 398.94287536212613,251.0571246378739 401.495,250.0 401.5,250.0 L 442.0,250.0 L 485.0,250.0 L 528.0,250.0" stroke="red"/>
    <rect stroke="none" fill-opacity="1" x="524" y="242" width="8" height="16" fill="red"/>
  </g>
  <g>
    <path fill="none" stroke-width="8.4" stroke-opacity="1" d="M 357.0,293.0 L 315.06066017177983,251.06066017177983 C 315.05712463787387,251.0571246378739 312.9553844118066,248.93051261208774 312.95189071418724,248.92693573119172 L 273.04810928581276,208.0730642688083 C 273.0446155881934,208.06948738791226 272.0,205.505 272.0,205.5 L 272.0,165.0 L 272.0,122.0 L 272.0,80.0" stroke="green"/>
    <rect stroke="none" fill-opacity="1" x="264" y="76" width="16" height="8" fill="green"/>
  </g>
  <g>
    <path fill="none" stroke-width="8.4" stroke-opacity="1" d="M 272.0,378.0 L 312.95189071418724,419.9269357311917 C 312.9553844118066,419.93051261208774 315.05712463787387,422.05712463787387 315.06066017177983,422.06066017177983 L 355.93933982822017,462.93933982822017 C 355.94287536212613,462.94287536212613 358.06948738791226,465.0446155881934 358.0730642688083,465.04810928581276 L 398.9269357311917,504.95189071418724 C 398.93051261208774,504.9553844118066 401.495,506.0 401.5,506.0 L 442.0,506.0 L 483.5,506.0 C 483.505,506.0 486.06948738791226,504.9553844118066 486.0730642688083,504.95189071418724 L 526.9269357311917,465.04810928581276 C 526.9305126120877,465.0446155881934 529.0446155881933,462.93051261208774 529.0481092858128,462.9269357311917 L 568.9518907141872,422.0730642688083 C 568.9553844118067,422.06948738791226 570.0,419.505 570.0,419.5 L 570.0,378.0 L 570.0,336.0 L 570.0,293.0" stroke="darkblue"/>
    <rect stroke="none" fill-opacity="1" x="562" y="289" width="16" height="8" fill="darkblue"/>
  </g>
  <g>
    <path fill="none" stroke-width="8.4" stroke-opacity="1" d="M 314.0,336.0 L 357.0,336.0 L 400.0,336.0 L 442.0,336.0 L 485.0,336.0 L 526.5,336.0 C 526.505,336.0 529.0571246378739,337.05712463787387 529.0606601717798,337.06066017177983 L 570.0,378.0" stroke="orange"/>
    <rect stroke="none" fill-opacity="1" x="566" y="370" width="8" height="16" fill="orange"/>
  </g>
  <g>
    <path fill="none" stroke-width="8.4" stroke-opacity="1" d="M 442.0,506.0 L 442.0,549.0 L 442.0,592.0 L 442.0,634.0 L 442.0,677.0" stroke="purple"/>
    <rect stroke="none" fill-opacity="1" x="434" y="673" width="16" height="8" fill="purple"/>
  </g>
  <g>
    <circle r="8" fill="white" stroke="black" stroke-width="2.0" cx="229" cy="421"/>
    <text fill="black" stroke="none" font-size="15.600000000000001" font-family="Trebuchet MS" font-weight="100" text-anchor="end" dominant-baseline="central" x="215.2" y="421" transform="translate(229,421) rotate(-0) translate(-229,-421)">COLOMBO Fort</text>
  </g>
  <g>
    <text fill="black" stroke="none" font-size="15.600000000000001" font-family="Trebuchet MS" font-weight="100" text-anchor="start" dominant-baseline="central" x="242.8" y="720" transform="translate(229,720) rotate(-0) translate(-229,-720)">Panadura</text>
  </g>
  <g>
    <circle r="8" fill="white" stroke="black" stroke-width="2.0" cx="272" cy="378"/>
    <text fill="black" stroke="none" font-size="15.600000000000001" font-family="Trebuchet MS" font-weight="100" text-anchor="start" dominant-baseline="central" x="285.8" y="378" transform="translate(272,378) rotate(-0) translate(-272,-378)">Maradana</text>
  </g>
  <g>
    <circle r="8" fill="white" stroke="black" stroke-width="2.0" cx="314" cy="336"/>
    <text fill="black" stroke="none" font-size="15.600000000000001" font-family="Trebuchet MS" font-weight="100" text-anchor="end" dominant-baseline="central" x="300.2" y="336" transform="translate(314,336) rotate(-0) translate(-314,-336)">Kelaniya</text>
  </g>
  <g>
    <circle r="8" fill="white" stroke="black" stroke-width="2.0" cx="357" cy="293"/>
    <text fill="black" stroke="none" font-size="15.600000000000001" font-family="Trebuchet MS" font-weight="100" text-anchor="start" dominant-baseline="central" x="370.8" y="293" transform="translate(357,293) rotate(-0) translate(-357,-293)">Ragama Junction</text>
  </g>
  <g>
    <text fill="black" stroke="none" font-size="15.600000000000001" font-family="Trebuchet MS" font-weight="100" text-anchor="start" dominant-baseline="central" x="541.8" y="250" transform="translate(528,250) rotate(-0) translate(-528,-250)">Meerigama</text>
  </g>
  <g>
    <text fill="black" stroke="none" font-size="15.600000000000001" font-family="Trebuchet MS" font-weight="100" text-anchor="start" dominant-baseline="central" x="285.8" y="80" transform="translate(272,80) rotate(-0) translate(-272,-80)">Negombo</text>
  </g>
  <g>
    <circle r="8" fill="white" stroke="black" stroke-width="2.0" cx="442" cy="506"/>
    <text fill="black" stroke="none" font-size="15.600000000000001" font-family="Trebuchet MS" font-weight="100" text-anchor="start" dominant-baseline="central" x="455.8" y="506" transform="translate(442,506) rotate(-45) translate(-442,-506)">Kottawa</text>
  </g>
  <g>
    <circle r="8" fill="white" stroke="black" stroke-width="2.0" cx="570" cy="378"/>
    <text fill="black" stroke="none" font-size="15.600000000000001" font-family="Trebuchet MS" font-weight="100" text-anchor="start" dominant-baseline="central" x="583.8" y="378" transform="translate(570,378) rotate(-0) translate(-570,-378)">Kosgama</text>
  </g>
  <g>
    <text fill="black" stroke="none" font-size="15.600000000000001" font-family="Trebuchet MS" font-weight="100" text-anchor="start" dominant-baseline="central" x="583.8" y="293" transform="translate(570,293) rotate(-0) translate(-570,-293)">Avissawella</text>
  </g>
  <g>
    <text fill="black" stroke="none" font-size="15.600000000000001" font-family="Trebuchet MS" font-weight="100" text-anchor="start" dominant-baseline="central" x="455.8" y="677" transform="translate(442,677) rotate(-0) translate(-442,-677)">Horana</text>
  </g>
  <g>
    <text fill="black" stroke="none" font-size="13.200000000000001" font-family="Trebuchet MS" font-weight="100" text-anchor="start" dominant-baseline="central" x="412.6" y="250" transform="translate(400,250) rotate(-45) translate(-400,-250)">GAMPAHA</text>
  </g>
  <g>
    <text fill="black" stroke="none" font-size="12" font-family="Trebuchet MS" font-weight="100" text-anchor="start" dominant-baseline="central" x="241.0" y="464" transform="translate(229,464) rotate(-0) translate(-229,-464)">Kollupitiya</text>
  </g>
  <g>
    <text fill="black" stroke="none" font-size="12" font-family="Trebuchet MS" font-weight="100" text-anchor="start" dominant-baseline="central" x="241.0" y="506" transform="translate(229,506) rotate(-0) translate(-229,-506)">Bambalapitiya</text>
  </g>
  <g>
    <text fill="black" stroke="none" font-size="12" font-family="Trebuchet MS" font-weight="100" text-anchor="start" dominant-baseline="central" x="241.0" y="549" transform="translate(229,549) rotate(-0) translate(-229,-549)">Wellawatte</text>
  </g>
  <g>
    <text fill="black" stroke="none" font-size="12" font-family="Trebuchet MS" font-weight="100" text-anchor="start" dominant-baseline="central" x="241.0" y="592" transform="translate(229,592) rotate(-0) translate(-229,-592)">Dehiwela</text>
  </g>
  <g>
    <text fill="black" stroke="none" font-size="12" font-family="Trebuchet MS" font-weight="100" text-anchor="start" dominant-baseline="central" x="241.0" y="634" transform="translate(229,634) rotate(-0) translate(-229,-634)">Ratmalana</text>
  </g>
  <g>
    <text fill="black" stroke="none" font-size="12" font-family="Trebuchet MS" font-weight="100" text-anchor="start" dominant-baseline="central" x="241.0" y="677" transform="translate(229,677) rotate(-0) translate(-229,-677)">Moratuwa</text>
  </g>
  <g>
    <text fill="black" stroke="none" font-size="12" font-family="Trebuchet MS" font-weight="100" text-anchor="start" dominant-baseline="central" x="454.0" y="250" transform="translate(442,250) rotate(-45) translate(-442,-250)">Daraluwa</text>
  </g>
  <g>
    <text fill="black" stroke="none" font-size="12" font-family="Trebuchet MS" font-weight="100" text-anchor="start" dominant-baseline="central" x="497.0" y="250" transform="translate(485,250) rotate(-45) translate(-485,-250)">Veyangoda</text>
  </g>
  <g>
    <text fill="black" stroke="none" font-size="12" font-family="Trebuchet MS" font-weight="100" text-anchor="end" dominant-baseline="central" x="302.0" y="250" transform="translate(314,250) rotate(-0) translate(-314,-250)">Kandana</text>
  </g>
  <g>
    <text fill="black" stroke="none" font-size="12" font-family="Trebuchet MS" font-weight="100" text-anchor="start" dominant-baseline="central" x="284.0" y="207" transform="translate(272,207) rotate(-0) translate(-272,-207)">Ja-Ela</text>
  </g>
  <g>
    <text fill="black" stroke="none" font-size="12" font-family="Trebuchet MS" font-weight="100" text-anchor="start" dominant-baseline="central" x="284.0" y="165" transform="translate(272,165) rotate(-0) translate(-272,-165)">Seeduwa</text>
  </g>
  <g>
    <text fill="black" stroke="none" font-size="12" font-family="Trebuchet MS" font-weight="100" text-anchor="start" dominant-baseline="central" x="284.0" y="122" transform="translate(272,122) rotate(-0) translate(-272,-122)">COLOMBO Airport Katunayake</text>
  </g>
  <g>
    <text fill="black" stroke="none" font-size="12" font-family="Trebuchet MS" font-weight="100" text-anchor="start" dominant-baseline="central" x="326.0" y="421" transform="translate(314,421) rotate(-0) translate(-314,-421)">Narahenpita</text>
  </g>
  <g>
    <text fill="black" stroke="none" font-size="12" font-family="Trebuchet MS" font-weight="100" text-anchor="start" dominant-baseline="central" x="369.0" y="464" transform="translate(357,464) rotate(-0) translate(-357,-464)">Nugegoda</text>
  </g>
  <g>
    <text fill="black" stroke="none" font-size="12" font-family="Trebuchet MS" font-weight="100" text-anchor="start" dominant-baseline="central" x="412.0" y="506" transform="translate(400,506) rotate(-337.5) translate(-400,-506)">Maharagama</text>
  </g>
  <g>
    <text fill="black" stroke="none" font-size="12" font-family="Trebuchet MS" font-weight="100" text-anchor="start" dominant-baseline="central" x="497.0" y="506" transform="translate(485,506) rotate(-0) translate(-485,-506)">Homagama</text>
  </g>
  <g>
    <text fill="black" stroke="none" font-size="12" font-family="Trebuchet MS" font-weight="100" text-anchor="start" dominant-baseline="central" x="540.0" y="464" transform="translate(528,464) rotate(-0) translate(-528,-464)">Padukka</text>
  </g>
  <g>
    <text fill="black" stroke="none" font-size="12" font-family="Trebuchet MS" font-weight="100" text-anchor="start" dominant-baseline="central" x="582.0" y="421" transform="translate(570,421) rotate(-0) translate(-570,-421)">Waga</text>
  </g>
  <g>
    <text fill="black" stroke="none" font-size="12" font-family="Trebuchet MS" font-weight="100" text-anchor="start" dominant-baseline="central" x="582.0" y="336" transform="translate(570,336) rotate(-0) translate(-570,-336)">Puwakpitiya</text>
  </g>
  <g>
    <text fill="black" stroke="none" font-size="12" font-family="Trebuchet MS" font-weight="100" text-anchor="start" dominant-baseline="central" x="369.0" y="336" transform="translate(357,336) rotate(-315) translate(-357,-336)">Weliwita</text>
  </g>
  <g>
    <text fill="black" stroke="none" font-size="12" font-family="Trebuchet MS" font-weight="100" text-anchor="start" dominant-baseline="central" x="412.0" y="336" transform="translate(400,336) rotate(-315) translate(-400,-336)">Biyagama</text>
  </g>
  <g>
    <text fill="black" stroke="none" font-size="12" font-family="Trebuchet MS" font-weight="100" text-anchor="start" dominant-baseline="central" x="454.0" y="336" transform="translate(442,336) rotate(-22.5) translate(-442,-336)">Kaduwela</text>
  </g>
  <g/>
  <g/>
  <g>
    <text fill="black" stroke="none" font-size="12" font-family="Trebuchet MS" font-weight="100" text-anchor="end" dominant-baseline="central" x="430.0" y="549" transform="translate(442,549) rotate(-0) translate(-442,-549)">Polgasowita</text>
  </g>
  <g>
    <text fill="black" stroke="none" font-size="12" font-family="Trebuchet MS" font-weight="100" text-anchor="start" dominant-baseline="central" x="454.0" y="592" transform="translate(442,592) rotate(-0) translate(-442,-592)">Gonapola</text>
  </g>
  <g>
    <text fill="black" stroke="none" font-size="12" font-family="Trebuchet MS" font-weight="100" text-anchor="start" dominant-baseline="central" x="454.0" y="634" transform="translate(442,634) rotate(-0) translate(-442,-634)">Pokunuwita</text>
  </g>
</svg>
