<?xml version="1.0" ?>
<svg xmlns="http://www.w3.org/2000/svg" width="700" height="700" padding="200">
  <rect x="100.0" y="100.0" width="500" height="500" fill="white" stroke="gray"/>
  <text fill="gray" stroke="none" font-size="9.722222222222221" font-family="Trebuchet MS" x="350.0" y="70.0" text-anchor="middle">The Abandoned Yatoyantota &amp; OPanayaka Branches of the Kelani-Valley Line</text>
  <g>
    <path fill="none" stroke-width="6.300000000000001" stroke-opacity="1" d="M200 305 L230 305 L260 275 L290 245 L320 245" stroke="lightblue"/>
    <rect stroke="none" fill-opacity="1" x="317" y="239" width="6" height="12" fill="lightblue"/>
  </g>
  <g>
    <path fill="none" stroke-width="6.300000000000001" stroke-opacity="1" d="M200 305 L230 335 L260 365 L290 395 L320 425 L350 455 L380 455 L410 455 L440 455 L470 455 L500 455" stroke="blue"/>
    <rect stroke="none" fill-opacity="1" x="497" y="449" width="6" height="12" fill="blue"/>
  </g>
  <g>
    <circle r="6" fill="white" stroke="black" stroke-width="2.0999999999999996" cx="200" cy="305"/>
    <text fill="black" stroke="none" font-size="15.600000000000001" font-family="Trebuchet MS" font-weight="100" text-anchor="end" dominant-baseline="central" x="187.7" y="305" transform="translate(200,305) rotate(-0) translate(-200,-305)">Avissawella</text>
  </g>
  <g>
    <text fill="black" stroke="none" font-size="15.600000000000001" font-family="Trebuchet MS" font-weight="100" text-anchor="start" dominant-baseline="central" x="332.3" y="245" transform="translate(320,245) rotate(-0) translate(-320,-245)">Yatiyanthota</text>
  </g>
  <g>
    <text fill="black" stroke="none" font-size="15.600000000000001" font-family="Trebuchet MS" font-weight="100" text-anchor="start" dominant-baseline="central" x="512.3" y="455" transform="translate(500,455) rotate(-0) translate(-500,-455)">Opanayaka</text>
  </g>
  <g>
    <rect stroke="none" fill-opacity="1" x="344.0" y="452.0" width="6" height="6" fill="blue"/>
    <text fill="black" stroke="none" font-size="13.200000000000001" font-family="Trebuchet MS" font-weight="100" text-anchor="end" dominant-baseline="central" x="338.9" y="455" transform="translate(350,455) rotate(-0) translate(-350,-455)">RATNAPURA</text>
  </g>
  <g>
    <rect stroke="none" fill-opacity="1" x="230.0" y="302.0" width="6" height="6" fill="lightblue"/>
    <text fill="black" stroke="none" font-size="12" font-family="Trebuchet MS" font-weight="100" text-anchor="start" dominant-baseline="central" x="240.5" y="305" transform="translate(230,305) rotate(-0) translate(-230,-305)">Talduwa</text>
  </g>
  <g>
    <rect stroke="none" fill-opacity="1" x="260.0" y="272.0" width="6" height="6" fill="lightblue"/>
    <text fill="black" stroke="none" font-size="12" font-family="Trebuchet MS" font-weight="100" text-anchor="start" dominant-baseline="central" x="270.5" y="275" transform="translate(260,275) rotate(-0) translate(-260,-275)">Dehiovita</text>
  </g>
  <g>
    <rect stroke="none" fill-opacity="1" x="284.0" y="242.0" width="6" height="6" fill="lightblue"/>
    <text fill="black" stroke="none" font-size="12" font-family="Trebuchet MS" font-weight="100" text-anchor="end" dominant-baseline="central" x="279.5" y="245" transform="translate(290,245) rotate(-0) translate(-290,-245)">Karawanella</text>
  </g>
  <g>
    <rect stroke="none" fill-opacity="1" x="230.0" y="332.0" width="6" height="6" fill="blue"/>
    <text fill="black" stroke="none" font-size="12" font-family="Trebuchet MS" font-weight="100" text-anchor="start" dominant-baseline="central" x="240.5" y="335" transform="translate(230,335) rotate(-0) translate(-230,-335)">Getahetta</text>
  </g>
  <g>
    <rect stroke="none" fill-opacity="1" x="260.0" y="362.0" width="6" height="6" fill="blue"/>
    <text fill="black" stroke="none" font-size="12" font-family="Trebuchet MS" font-weight="100" text-anchor="start" dominant-baseline="central" x="270.5" y="365" transform="translate(260,365) rotate(-0) translate(-260,-365)">Eheliyagoda</text>
  </g>
  <g>
    <rect stroke="none" fill-opacity="1" x="290.0" y="392.0" width="6" height="6" fill="blue"/>
    <text fill="black" stroke="none" font-size="12" font-family="Trebuchet MS" font-weight="100" text-anchor="start" dominant-baseline="central" x="300.5" y="395" transform="translate(290,395) rotate(-0) translate(-290,-395)">Parakaduwa</text>
  </g>
  <g>
    <rect stroke="none" fill-opacity="1" x="320.0" y="422.0" width="6" height="6" fill="blue"/>
    <text fill="black" stroke="none" font-size="12" font-family="Trebuchet MS" font-weight="100" text-anchor="start" dominant-baseline="central" x="330.5" y="425" transform="translate(320,425) rotate(-0) translate(-320,-425)">Kuruwita</text>
  </g>
  <g>
    <rect stroke="none" fill-opacity="1" x="379.12132034355966" y="449.87867965644034" width="6" height="6" fill="blue"/>
    <text fill="black" stroke="none" font-size="12" font-family="Trebuchet MS" font-weight="100" text-anchor="start" dominant-baseline="central" x="390.5" y="455" transform="translate(380,455) rotate(-45) translate(-380,-455)">Tiriwanaketiya</text>
  </g>
  <g>
    <rect stroke="none" fill-opacity="1" x="409.12132034355966" y="449.87867965644034" width="6" height="6" fill="blue"/>
    <text fill="black" stroke="none" font-size="12" font-family="Trebuchet MS" font-weight="100" text-anchor="start" dominant-baseline="central" x="420.5" y="455" transform="translate(410,455) rotate(-45) translate(-410,-455)">Dela</text>
  </g>
  <g>
    <rect stroke="none" fill-opacity="1" x="439.12132034355966" y="449.87867965644034" width="6" height="6" fill="blue"/>
    <text fill="black" stroke="none" font-size="12" font-family="Trebuchet MS" font-weight="100" text-anchor="start" dominant-baseline="central" x="450.5" y="455" transform="translate(440,455) rotate(-45) translate(-440,-455)">Watapota</text>
  </g>
  <g>
    <rect stroke="none" fill-opacity="1" x="469.12132034355966" y="449.87867965644034" width="6" height="6" fill="blue"/>
    <text fill="black" stroke="none" font-size="12" font-family="Trebuchet MS" font-weight="100" text-anchor="start" dominant-baseline="central" x="480.5" y="455" transform="translate(470,455) rotate(-45) translate(-470,-455)">Kahawatta</text>
  </g>
</svg>
