<?xml version="1.0" ?>
<svg xmlns="http://www.w3.org/2000/svg" width="1600" height="1600" padding="100">
  <rect x="50.0" y="50.0" width="1500" height="1500" fill="white" stroke="gray"/>
  <text fill="black" stroke="none" font-size="50" font-family="Trebuchet MS" x="800.0" y="200" text-anchor="middle">Railways of Sri Lanka</text>
  <g>
    <path fill="none" stroke-width="6.300000000000001" stroke-opacity="1" d="M423 1069 L530 1069 L638 1069 L746 1069 L853 1069 L961 1069 L1069 1069" stroke="red"/>
    <rect stroke="none" fill-opacity="1" x="1066" y="1063" width="6" height="12" fill="red"/>
  </g>
  <g>
    <path fill="none" stroke-width="6.300000000000001" stroke-opacity="1" d="M423 1069 L423 1176 L423 1284 L423 1392 L423 1500" stroke="cyan"/>
    <rect stroke="none" fill-opacity="1" x="417" y="1497" width="12" height="6" fill="cyan"/>
  </g>
  <g>
    <path fill="none" stroke-width="6.300000000000001" stroke-opacity="1" d="M853 1069 L853 961 L853 853 L853 746 L853 638 L853 530 L853 423 L853 315 L853 207 L853 100" stroke="orange"/>
    <rect stroke="none" fill-opacity="1" x="847" y="97" width="12" height="6" fill="orange"/>
  </g>
  <g>
    <path fill="none" stroke-width="6.300000000000001" stroke-opacity="1" d="M530 1069 L530 1176" stroke="darkblue"/>
    <rect stroke="none" fill-opacity="1" x="524" y="1173" width="12" height="6" fill="darkblue"/>
  </g>
  <g>
    <path fill="none" stroke-width="6.300000000000001" stroke-opacity="1" d="M638 1069 L638 961 L638 853" stroke="green"/>
    <rect stroke="none" fill-opacity="1" x="632" y="850" width="12" height="6" fill="green"/>
  </g>
  <g>
    <path fill="none" stroke-width="6.300000000000001" stroke-opacity="1" d="M961 1069 L961 961 L1069 961" stroke="purple"/>
    <rect stroke="none" fill-opacity="1" x="1066" y="955" width="6" height="12" fill="purple"/>
  </g>
  <g>
    <path fill="none" stroke-width="6.300000000000001" stroke-opacity="1" d="M853 638 L961 638" stroke="yellow"/>
    <rect stroke="none" fill-opacity="1" x="958" y="632" width="6" height="12" fill="yellow"/>
  </g>
  <g>
    <path fill="none" stroke-width="6.300000000000001" stroke-opacity="1" d="M853 530 L746 530 L638 530" stroke="blue"/>
    <rect stroke="none" fill-opacity="1" x="635" y="524" width="6" height="12" fill="blue"/>
  </g>
  <g>
    <path fill="none" stroke-width="6.300000000000001" stroke-opacity="1" d="M853 853 L961 853 L1069 853 L1176 853" stroke="darkgreen"/>
    <rect stroke="none" fill-opacity="1" x="1173" y="847" width="6" height="12" fill="darkgreen"/>
  </g>
  <g>
    <path fill="none" stroke-width="6.300000000000001" stroke-opacity="1" d="M961 853 L961 746" stroke="silver"/>
    <rect stroke="none" fill-opacity="1" x="955" y="743" width="12" height="6" fill="silver"/>
  </g>
  <g>
    <circle r="6" fill="white" stroke="black" stroke-width="2.0999999999999996" cx="423" cy="1069"/>
    <text fill="black" stroke="none" font-size="12.0" font-family="Trebuchet MS" font-weight="100" text-anchor="end" dominant-baseline="central" x="412.5" y="1069" transform="translate(423,1069) rotate(-0) translate(-423,-1069)">COLOMBO Fort</text>
  </g>
  <g>
    <circle r="6" fill="white" stroke="black" stroke-width="2.0999999999999996" cx="530" cy="1069"/>
    <text fill="black" stroke="none" font-size="12.0" font-family="Trebuchet MS" font-weight="100" text-anchor="start" dominant-baseline="central" x="540.5" y="1069" transform="translate(530,1069) rotate(-315) translate(-530,-1069)">Maradana</text>
  </g>
  <g>
    <circle r="6" fill="white" stroke="black" stroke-width="2.0999999999999996" cx="638" cy="1069"/>
    <text fill="black" stroke="none" font-size="12.0" font-family="Trebuchet MS" font-weight="100" text-anchor="start" dominant-baseline="central" x="648.5" y="1069" transform="translate(638,1069) rotate(-45) translate(-638,-1069)">Ragama</text>
  </g>
  <g>
    <circle r="6" fill="white" stroke="black" stroke-width="2.0999999999999996" cx="853" cy="1069"/>
    <text fill="black" stroke="none" font-size="12.0" font-family="Trebuchet MS" font-weight="100" text-anchor="start" dominant-baseline="central" x="863.5" y="1069" transform="translate(853,1069) rotate(-315) translate(-853,-1069)">Polgahawela</text>
  </g>
  <g>
    <circle r="6" fill="white" stroke="black" stroke-width="2.0999999999999996" cx="961" cy="1069"/>
    <text fill="black" stroke="none" font-size="12.0" font-family="Trebuchet MS" font-weight="100" text-anchor="start" dominant-baseline="central" x="971.5" y="1069" transform="translate(961,1069) rotate(-315) translate(-961,-1069)">Peradeniya</text>
  </g>
  <g>
    <circle r="6" fill="white" stroke="black" stroke-width="2.0999999999999996" cx="853" cy="853"/>
    <text fill="black" stroke="none" font-size="12.0" font-family="Trebuchet MS" font-weight="100" text-anchor="end" dominant-baseline="central" x="842.5" y="853" transform="translate(853,853) rotate(-0) translate(-853,-853)">Maho</text>
  </g>
  <g>
    <circle r="6" fill="white" stroke="black" stroke-width="2.0999999999999996" cx="853" cy="638"/>
    <text fill="black" stroke="none" font-size="12.0" font-family="Trebuchet MS" font-weight="100" text-anchor="end" dominant-baseline="central" x="842.5" y="638" transform="translate(853,638) rotate(-0) translate(-853,-638)">Mihintale Junction</text>
  </g>
  <g>
    <circle r="6" fill="white" stroke="black" stroke-width="2.0999999999999996" cx="853" cy="530"/>
    <text fill="black" stroke="none" font-size="12.0" font-family="Trebuchet MS" font-weight="100" text-anchor="start" dominant-baseline="central" x="863.5" y="530" transform="translate(853,530) rotate(-0) translate(-853,-530)">Medavachchiya</text>
  </g>
  <g>
    <circle r="6" fill="white" stroke="black" stroke-width="2.0999999999999996" cx="961" cy="853"/>
    <text fill="black" stroke="none" font-size="12.0" font-family="Trebuchet MS" font-weight="100" text-anchor="start" dominant-baseline="central" x="971.5" y="853" transform="translate(961,853) rotate(-45) translate(-961,-853)">Galoya</text>
  </g>
  <g>
    <text fill="black" stroke="none" font-size="11.0" font-family="Trebuchet MS" font-weight="100" text-anchor="start" dominant-baseline="central" x="1079.0" y="1069" transform="translate(1069,1069) rotate(-0) translate(-1069,-1069)">BADULLA</text>
  </g>
  <g>
    <text fill="black" stroke="none" font-size="11.0" font-family="Trebuchet MS" font-weight="100" text-anchor="start" dominant-baseline="central" x="433.0" y="1500" transform="translate(423,1500) rotate(-0) translate(-423,-1500)">Beliatta</text>
  </g>
  <g>
    <text fill="black" stroke="none" font-size="11.0" font-family="Trebuchet MS" font-weight="100" text-anchor="start" dominant-baseline="central" x="863.0" y="100" transform="translate(853,100) rotate(-0) translate(-853,-100)">Kankesanthurai</text>
  </g>
  <g>
    <text fill="black" stroke="none" font-size="11.0" font-family="Trebuchet MS" font-weight="100" text-anchor="start" dominant-baseline="central" x="540.0" y="1176" transform="translate(530,1176) rotate(-315) translate(-530,-1176)">Avissawella</text>
  </g>
  <g>
    <text fill="black" stroke="none" font-size="11.0" font-family="Trebuchet MS" font-weight="100" text-anchor="end" dominant-baseline="central" x="628.0" y="853" transform="translate(638,853) rotate(-0) translate(-638,-853)">Periyanurvillu</text>
  </g>
  <g>
    <text fill="black" stroke="none" font-size="11.0" font-family="Trebuchet MS" font-weight="100" text-anchor="start" dominant-baseline="central" x="1079.0" y="961" transform="translate(1069,961) rotate(-0) translate(-1069,-961)">MATALE</text>
  </g>
  <g>
    <text fill="black" stroke="none" font-size="11.0" font-family="Trebuchet MS" font-weight="100" text-anchor="start" dominant-baseline="central" x="971.0" y="638" transform="translate(961,638) rotate(-0) translate(-961,-638)">Mihintale</text>
  </g>
  <g>
    <text fill="black" stroke="none" font-size="11.0" font-family="Trebuchet MS" font-weight="100" text-anchor="end" dominant-baseline="central" x="628.0" y="530" transform="translate(638,530) rotate(-0) translate(-638,-530)">Talaimannar Pier</text>
  </g>
  <g>
    <text fill="black" stroke="none" font-size="11.0" font-family="Trebuchet MS" font-weight="100" text-anchor="start" dominant-baseline="central" x="1186.0" y="853" transform="translate(1176,853) rotate(-0) translate(-1176,-853)">BATTICALOA</text>
  </g>
  <g>
    <text fill="black" stroke="none" font-size="11.0" font-family="Trebuchet MS" font-weight="100" text-anchor="start" dominant-baseline="central" x="971.0" y="746" transform="translate(961,746) rotate(-22.5) translate(-961,-746)">TRINCOMALEE</text>
  </g>
  <g>
    <rect stroke="none" fill-opacity="1" x="745.1213203435597" y="1068.1213203435595" width="6" height="6" fill="red"/>
    <text fill="black" stroke="none" font-size="10" font-family="Trebuchet MS" font-weight="100" text-anchor="start" dominant-baseline="central" x="755.5" y="1069" transform="translate(746,1069) rotate(-315) translate(-746,-1069)">GAMPAHA</text>
  </g>
  <g>
    <rect stroke="none" fill-opacity="1" x="423.0" y="1281.0" width="6" height="6" fill="cyan"/>
    <text fill="black" stroke="none" font-size="10" font-family="Trebuchet MS" font-weight="100" text-anchor="start" dominant-baseline="central" x="432.5" y="1284" transform="translate(423,1284) rotate(-0) translate(-423,-1284)">GALLE</text>
  </g>
  <g>
    <rect stroke="none" fill-opacity="1" x="423.0" y="1389.0" width="6" height="6" fill="cyan"/>
    <text fill="black" stroke="none" font-size="10" font-family="Trebuchet MS" font-weight="100" text-anchor="start" dominant-baseline="central" x="432.5" y="1392" transform="translate(423,1392) rotate(-0) translate(-423,-1392)">MATARA</text>
  </g>
  <g>
    <rect stroke="none" fill-opacity="1" x="852.7716385975339" y="956.8519497029047" width="6" height="6" fill="orange"/>
    <text fill="black" stroke="none" font-size="10" font-family="Trebuchet MS" font-weight="100" text-anchor="start" dominant-baseline="central" x="862.5" y="961" transform="translate(853,961) rotate(-22.5) translate(-853,-961)">KURUNEGALA</text>
  </g>
  <g>
    <rect stroke="none" fill-opacity="1" x="847.0" y="743.0" width="6" height="6" fill="orange"/>
    <text fill="black" stroke="none" font-size="10" font-family="Trebuchet MS" font-weight="100" text-anchor="end" dominant-baseline="central" x="843.5" y="746" transform="translate(853,746) rotate(-0) translate(-853,-746)">ANURADHAPURA</text>
  </g>
  <g>
    <rect stroke="none" fill-opacity="1" x="853.0" y="420.0" width="6" height="6" fill="orange"/>
    <text fill="black" stroke="none" font-size="10" font-family="Trebuchet MS" font-weight="100" text-anchor="start" dominant-baseline="central" x="862.5" y="423" transform="translate(853,423) rotate(-0) translate(-853,-423)">VAVUNIYA</text>
  </g>
  <g>
    <rect stroke="none" fill-opacity="1" x="853.0" y="312.0" width="6" height="6" fill="orange"/>
    <text fill="black" stroke="none" font-size="10" font-family="Trebuchet MS" font-weight="100" text-anchor="start" dominant-baseline="central" x="862.5" y="315" transform="translate(853,315) rotate(-0) translate(-853,-315)">KILINOCHCHI</text>
  </g>
  <g>
    <rect stroke="none" fill-opacity="1" x="853.0" y="204.0" width="6" height="6" fill="orange"/>
    <text fill="black" stroke="none" font-size="10" font-family="Trebuchet MS" font-weight="100" text-anchor="start" dominant-baseline="central" x="862.5" y="207" transform="translate(853,207) rotate(-0) translate(-853,-207)">JAFFNA</text>
  </g>
  <g>
    <rect stroke="none" fill-opacity="1" x="960.7716385975339" y="956.8519497029047" width="6" height="6" fill="purple"/>
    <text fill="black" stroke="none" font-size="10" font-family="Trebuchet MS" font-weight="100" text-anchor="start" dominant-baseline="central" x="970.5" y="961" transform="translate(961,961) rotate(-22.5) translate(-961,-961)">KANDY</text>
  </g>
  <g>
    <rect stroke="none" fill-opacity="1" x="743.0" y="524.0" width="6" height="6" fill="blue"/>
    <text fill="black" stroke="none" font-size="10" font-family="Trebuchet MS" font-weight="100" text-anchor="start" dominant-baseline="central" x="755.5" y="530" transform="translate(746,530) rotate(-90) translate(-746,-530)">MANNAR</text>
  </g>
  <g>
    <rect stroke="none" fill-opacity="1" x="1068.1213203435595" y="847.8786796564403" width="6" height="6" fill="darkgreen"/>
    <text fill="black" stroke="none" font-size="10" font-family="Trebuchet MS" font-weight="100" text-anchor="start" dominant-baseline="central" x="1078.5" y="853" transform="translate(1069,853) rotate(-45) translate(-1069,-853)">POLONNARUWA</text>
  </g>
  <g>
    <rect stroke="none" fill-opacity="1" x="417.0" y="1173.0" width="6" height="6" fill="cyan"/>
    <text fill="black" stroke="none" font-size="8.0" font-family="Trebuchet MS" font-weight="100" text-anchor="end" dominant-baseline="central" x="414.5" y="1176" transform="translate(423,1176) rotate(-0) translate(-423,-1176)">KALUTARA North</text>
  </g>
  <g>
    <rect stroke="none" fill-opacity="1" x="632.0" y="958.0" width="6" height="6" fill="green"/>
    <text fill="black" stroke="none" font-size="8.0" font-family="Trebuchet MS" font-weight="100" text-anchor="end" dominant-baseline="central" x="629.5" y="961" transform="translate(638,961) rotate(-0) translate(-638,-961)">Puttalam</text>
  </g>
</svg>
