<?xml version="1.0" ?>
<svg xmlns="http://www.w3.org/2000/svg" width="900" height="900" padding="200">
  <rect x="100.0" y="100.0" width="700" height="700" fill="white" stroke="gray"/>
  <text fill="gray" stroke="none" font-size="21.428571428571427" font-family="Trebuchet MS" x="450.0" y="112.0" text-anchor="middle" dominant-baseline="hanging">Topographical Map of Railways in Sri Lanka</text>
  <g>
    <path fill="none" stroke-width="6.300000000000001" stroke-opacity="1" d="M315 546 L353 546 L392 546 L430 546 L469 546 L507 546 L546 546" stroke="red"/>
    <rect stroke="none" fill-opacity="1" x="543" y="540" width="6" height="12" fill="red"/>
  </g>
  <g>
    <path fill="none" stroke-width="6.300000000000001" stroke-opacity="1" d="M315 546 L315 584 L315 623 L315 661 L315 700" stroke="cyan"/>
    <rect stroke="none" fill-opacity="1" x="309" y="697" width="12" height="6" fill="cyan"/>
  </g>
  <g>
    <path fill="none" stroke-width="6.300000000000001" stroke-opacity="1" d="M469 546 L469 507 L469 469 L469 430 L469 392 L469 353 L469 315 L469 276 L469 238 L469 200" stroke="orange"/>
    <rect stroke="none" fill-opacity="1" x="463" y="197" width="12" height="6" fill="orange"/>
  </g>
  <g>
    <path fill="none" stroke-width="6.300000000000001" stroke-opacity="1" d="M353 546 L353 584" stroke="darkblue"/>
    <rect stroke="none" fill-opacity="1" x="347" y="581" width="12" height="6" fill="darkblue"/>
  </g>
  <g>
    <path fill="none" stroke-width="6.300000000000001" stroke-opacity="1" d="M392 546 L392 507 L392 469" stroke="green"/>
    <rect stroke="none" fill-opacity="1" x="386" y="466" width="12" height="6" fill="green"/>
  </g>
  <g>
    <path fill="none" stroke-width="6.300000000000001" stroke-opacity="1" d="M507 546 L507 507 L546 507" stroke="purple"/>
    <rect stroke="none" fill-opacity="1" x="543" y="501" width="6" height="12" fill="purple"/>
  </g>
  <g>
    <path fill="none" stroke-width="6.300000000000001" stroke-opacity="1" d="M469 392 L507 392" stroke="yellow"/>
    <rect stroke="none" fill-opacity="1" x="504" y="386" width="6" height="12" fill="yellow"/>
  </g>
  <g>
    <path fill="none" stroke-width="6.300000000000001" stroke-opacity="1" d="M469 353 L430 353 L392 353" stroke="blue"/>
    <rect stroke="none" fill-opacity="1" x="389" y="347" width="6" height="12" fill="blue"/>
  </g>
  <g>
    <path fill="none" stroke-width="6.300000000000001" stroke-opacity="1" d="M469 469 L507 469 L546 469 L584 469" stroke="darkgreen"/>
    <rect stroke="none" fill-opacity="1" x="581" y="463" width="6" height="12" fill="darkgreen"/>
  </g>
  <g>
    <path fill="none" stroke-width="6.300000000000001" stroke-opacity="1" d="M507 469 L507 430" stroke="silver"/>
    <rect stroke="none" fill-opacity="1" x="501" y="427" width="12" height="6" fill="silver"/>
  </g>
  <g>
    <circle r="6" fill="white" stroke="black" stroke-width="2.0999999999999996" cx="315" cy="546"/>
    <text fill="black" stroke="none" font-size="15.600000000000001" font-family="Trebuchet MS" font-weight="100" text-anchor="end" dominant-baseline="central" x="302.7" y="546" transform="translate(315,546) rotate(-0) translate(-315,-546)">COLOMBO Fort</text>
  </g>
  <g>
    <circle r="6" fill="white" stroke="black" stroke-width="2.0999999999999996" cx="353" cy="546"/>
    <text fill="black" stroke="none" font-size="15.600000000000001" font-family="Trebuchet MS" font-weight="100" text-anchor="start" dominant-baseline="central" x="365.3" y="546" transform="translate(353,546) rotate(-315) translate(-353,-546)">Maradana</text>
  </g>
  <g>
    <circle r="6" fill="white" stroke="black" stroke-width="2.0999999999999996" cx="392" cy="546"/>
    <text fill="black" stroke="none" font-size="15.600000000000001" font-family="Trebuchet MS" font-weight="100" text-anchor="start" dominant-baseline="central" x="404.3" y="546" transform="translate(392,546) rotate(-315) translate(-392,-546)">Ragama</text>
  </g>
  <g>
    <circle r="6" fill="white" stroke="black" stroke-width="2.0999999999999996" cx="469" cy="546"/>
    <text fill="black" stroke="none" font-size="15.600000000000001" font-family="Trebuchet MS" font-weight="100" text-anchor="start" dominant-baseline="central" x="481.3" y="546" transform="translate(469,546) rotate(-315) translate(-469,-546)">Polgahawela</text>
  </g>
  <g>
    <circle r="6" fill="white" stroke="black" stroke-width="2.0999999999999996" cx="507" cy="546"/>
    <text fill="black" stroke="none" font-size="15.600000000000001" font-family="Trebuchet MS" font-weight="100" text-anchor="start" dominant-baseline="central" x="519.3" y="546" transform="translate(507,546) rotate(-315) translate(-507,-546)">Peradeniya</text>
  </g>
  <g>
    <text fill="black" stroke="none" font-size="15.600000000000001" font-family="Trebuchet MS" font-weight="100" text-anchor="start" dominant-baseline="central" x="558.3" y="546" transform="translate(546,546) rotate(-0) translate(-546,-546)">BADULLA</text>
  </g>
  <g>
    <text fill="black" stroke="none" font-size="15.600000000000001" font-family="Trebuchet MS" font-weight="100" text-anchor="start" dominant-baseline="central" x="327.3" y="700" transform="translate(315,700) rotate(-0) translate(-315,-700)">Beliatta</text>
  </g>
  <g>
    <circle r="6" fill="white" stroke="black" stroke-width="2.0999999999999996" cx="469" cy="469"/>
    <text fill="black" stroke="none" font-size="15.600000000000001" font-family="Trebuchet MS" font-weight="100" text-anchor="end" dominant-baseline="central" x="456.7" y="469" transform="translate(469,469) rotate(--45) translate(-469,-469)">Maho</text>
  </g>
  <g>
    <circle r="6" fill="white" stroke="black" stroke-width="2.0999999999999996" cx="469" cy="392"/>
    <text fill="black" stroke="none" font-size="15.600000000000001" font-family="Trebuchet MS" font-weight="100" text-anchor="start" dominant-baseline="central" x="481.3" y="392" transform="translate(469,392) rotate(-45) translate(-469,-392)">Mihintale Junction</text>
  </g>
  <g>
    <circle r="6" fill="white" stroke="black" stroke-width="2.0999999999999996" cx="469" cy="353"/>
    <text fill="black" stroke="none" font-size="15.600000000000001" font-family="Trebuchet MS" font-weight="100" text-anchor="start" dominant-baseline="central" x="481.3" y="353" transform="translate(469,353) rotate(-45) translate(-469,-353)">Medavachchiya</text>
  </g>
  <g>
    <text fill="black" stroke="none" font-size="15.600000000000001" font-family="Trebuchet MS" font-weight="100" text-anchor="start" dominant-baseline="central" x="481.3" y="200" transform="translate(469,200) rotate(-0) translate(-469,-200)">Kankesanthurai</text>
  </g>
  <g>
    <text fill="black" stroke="none" font-size="15.600000000000001" font-family="Trebuchet MS" font-weight="100" text-anchor="start" dominant-baseline="central" x="365.3" y="584" transform="translate(353,584) rotate(-315) translate(-353,-584)">Avissawella</text>
  </g>
  <g>
    <text fill="black" stroke="none" font-size="15.600000000000001" font-family="Trebuchet MS" font-weight="100" text-anchor="end" dominant-baseline="central" x="379.7" y="469" transform="translate(392,469) rotate(-0) translate(-392,-469)">Periyanurvillu</text>
  </g>
  <g>
    <text fill="black" stroke="none" font-size="15.600000000000001" font-family="Trebuchet MS" font-weight="100" text-anchor="start" dominant-baseline="central" x="558.3" y="507" transform="translate(546,507) rotate(-0) translate(-546,-507)">MATALE</text>
  </g>
  <g>
    <text fill="black" stroke="none" font-size="15.600000000000001" font-family="Trebuchet MS" font-weight="100" text-anchor="start" dominant-baseline="central" x="519.3" y="392" transform="translate(507,392) rotate(-0) translate(-507,-392)">Mihintale</text>
  </g>
  <g>
    <text fill="black" stroke="none" font-size="15.600000000000001" font-family="Trebuchet MS" font-weight="100" text-anchor="end" dominant-baseline="central" x="379.7" y="353" transform="translate(392,353) rotate(-0) translate(-392,-353)">Talaimannar Pier</text>
  </g>
  <g>
    <circle r="6" fill="white" stroke="black" stroke-width="2.0999999999999996" cx="507" cy="469"/>
    <text fill="black" stroke="none" font-size="15.600000000000001" font-family="Trebuchet MS" font-weight="100" text-anchor="start" dominant-baseline="central" x="519.3" y="469" transform="translate(507,469) rotate(-22.5) translate(-507,-469)">Galoya</text>
  </g>
  <g>
    <text fill="black" stroke="none" font-size="15.600000000000001" font-family="Trebuchet MS" font-weight="100" text-anchor="start" dominant-baseline="central" x="596.3" y="469" transform="translate(584,469) rotate(-0) translate(-584,-469)">BATTICALOA</text>
  </g>
  <g/>
  <g>
    <rect stroke="none" fill-opacity="1" x="429.12132034355966" y="545.1213203435597" width="6" height="6" fill="red"/>
    <text fill="black" stroke="none" font-size="13.200000000000001" font-family="Trebuchet MS" font-weight="100" text-anchor="start" dominant-baseline="central" x="441.1" y="546" transform="translate(430,546) rotate(-315) translate(-430,-546)">GAMPAHA</text>
  </g>
  <g>
    <rect stroke="none" fill-opacity="1" x="309.0" y="620.0" width="6" height="6" fill="cyan"/>
    <text fill="black" stroke="none" font-size="13.200000000000001" font-family="Trebuchet MS" font-weight="100" text-anchor="end" dominant-baseline="central" x="303.9" y="623" transform="translate(315,623) rotate(-0) translate(-315,-623)">GALLE</text>
  </g>
  <g>
    <rect stroke="none" fill-opacity="1" x="315.0" y="658.0" width="6" height="6" fill="cyan"/>
    <text fill="black" stroke="none" font-size="13.200000000000001" font-family="Trebuchet MS" font-weight="100" text-anchor="start" dominant-baseline="central" x="326.1" y="661" transform="translate(315,661) rotate(-0) translate(-315,-661)">MATARA</text>
  </g>
  <g>
    <rect stroke="none" fill-opacity="1" x="463.87867965644034" y="501.87867965644034" width="6" height="6" fill="orange"/>
    <text fill="black" stroke="none" font-size="13.200000000000001" font-family="Trebuchet MS" font-weight="100" text-anchor="end" dominant-baseline="central" x="457.9" y="507" transform="translate(469,507) rotate(--45) translate(-469,-507)">KURUNEGALA</text>
  </g>
  <g>
    <rect stroke="none" fill-opacity="1" x="469.0" y="427.0" width="6" height="6" fill="orange"/>
  </g>
  <g>
    <rect stroke="none" fill-opacity="1" x="463.0" y="312.0" width="6" height="6" fill="orange"/>
    <text fill="black" stroke="none" font-size="13.200000000000001" font-family="Trebuchet MS" font-weight="100" text-anchor="end" dominant-baseline="central" x="457.9" y="315" transform="translate(469,315) rotate(-0) translate(-469,-315)">VAVUNIYA</text>
  </g>
  <g>
    <rect stroke="none" fill-opacity="1" x="463.0" y="273.0" width="6" height="6" fill="orange"/>
    <text fill="black" stroke="none" font-size="13.200000000000001" font-family="Trebuchet MS" font-weight="100" text-anchor="end" dominant-baseline="central" x="457.9" y="276" transform="translate(469,276) rotate(-0) translate(-469,-276)">KILINOCHCHI</text>
  </g>
  <g>
    <rect stroke="none" fill-opacity="1" x="469.0" y="235.0" width="6" height="6" fill="orange"/>
    <text fill="black" stroke="none" font-size="13.200000000000001" font-family="Trebuchet MS" font-weight="100" text-anchor="start" dominant-baseline="central" x="480.1" y="238" transform="translate(469,238) rotate(-0) translate(-469,-238)">JAFFNA</text>
  </g>
  <g>
    <rect stroke="none" fill-opacity="1" x="507.0" y="504.0" width="6" height="6" fill="purple"/>
  </g>
  <g>
    <rect stroke="none" fill-opacity="1" x="430.0" y="350.0" width="6" height="6" fill="blue"/>
  </g>
  <g>
    <rect stroke="none" fill-opacity="1" x="545.7716385975339" y="464.85194970290473" width="6" height="6" fill="darkgreen"/>
    <text fill="black" stroke="none" font-size="13.200000000000001" font-family="Trebuchet MS" font-weight="100" text-anchor="start" dominant-baseline="central" x="557.1" y="469" transform="translate(546,469) rotate(-22.5) translate(-546,-469)">POLONNARUWA</text>
  </g>
  <g>
    <rect stroke="none" fill-opacity="1" x="309.0" y="581.0" width="6" height="6" fill="cyan"/>
    <text fill="black" stroke="none" font-size="12" font-family="Trebuchet MS" font-weight="100" text-anchor="end" dominant-baseline="central" x="304.5" y="584" transform="translate(315,584) rotate(-0) translate(-315,-584)">KALUTARA North</text>
  </g>
  <g>
    <rect stroke="none" fill-opacity="1" x="386.0" y="504.0" width="6" height="6" fill="green"/>
    <text fill="black" stroke="none" font-size="12" font-family="Trebuchet MS" font-weight="100" text-anchor="end" dominant-baseline="central" x="381.5" y="507" transform="translate(392,507) rotate(-0) translate(-392,-507)">Puttalam</text>
  </g>
</svg>
