<?xml version="1.0" ?>
<svg xmlns="http://www.w3.org/2000/svg" width="700" height="700" padding="200">
  <rect x="100.0" y="100.0" width="500" height="500" fill="white" stroke="gray"/>
  <text fill="gray" stroke="none" font-size="9.722222222222221" font-family="Trebuchet MS" x="350.0" y="112.0" text-anchor="middle" dominant-baseline="hanging">The Abandoned Yatoyantota &amp; OPanayaka Branches of the Kelani-Valley Line</text>
  <g>
    <path fill="none" stroke-width="8.4" stroke-opacity="1" d="M 200.0,305.0 L 228.5,305.0 C 228.505,305.0 231.0571246378739,303.94287536212613 231.06066017177983,303.93933982822017 L 260.0,275.0 L 288.93933982822017,246.06066017177983 C 288.94287536212613,246.0571246378739 291.495,245.0 291.5,245.0 L 320.0,245.0" stroke="lightblue"/>
    <rect stroke="none" fill-opacity="1" x="316" y="237" width="8" height="16" fill="lightblue"/>
  </g>
  <g>
    <path fill="none" stroke-width="8.4" stroke-opacity="1" d="M 200.0,305.0 L 230.0,335.0 L 260.0,365.0 L 290.0,395.0 L 320.0,425.0 L 348.93933982822017,453.93933982822017 C 348.94287536212613,453.94287536212613 351.495,455.0 351.5,455.0 L 380.0,455.0 L 410.0,455.0 L 440.0,455.0 L 470.0,455.0 L 500.0,455.0" stroke="blue"/>
    <rect stroke="none" fill-opacity="1" x="496" y="447" width="8" height="16" fill="blue"/>
  </g>
  <g>
    <circle r="8" fill="white" stroke="black" stroke-width="2.0" cx="200" cy="305"/>
    <text fill="black" stroke="none" font-size="15.600000000000001" font-family="Trebuchet MS" font-weight="100" text-anchor="end" dominant-baseline="central" x="186.2" y="305" transform="translate(200,305) rotate(-0) translate(-200,-305)">Avissawella</text>
  </g>
  <g>
    <text fill="black" stroke="none" font-size="15.600000000000001" font-family="Trebuchet MS" font-weight="100" text-anchor="start" dominant-baseline="central" x="333.8" y="245" transform="translate(320,245) rotate(-0) translate(-320,-245)">Yatiyanthota</text>
  </g>
  <g>
    <text fill="black" stroke="none" font-size="15.600000000000001" font-family="Trebuchet MS" font-weight="100" text-anchor="start" dominant-baseline="central" x="513.8" y="455" transform="translate(500,455) rotate(-0) translate(-500,-455)">Opanayaka</text>
  </g>
  <g>
    <text fill="black" stroke="none" font-size="13.200000000000001" font-family="Trebuchet MS" font-weight="100" text-anchor="end" dominant-baseline="central" x="337.4" y="455" transform="translate(350,455) rotate(-0) translate(-350,-455)">RATNAPURA</text>
  </g>
  <g>
    <text fill="black" stroke="none" font-size="12" font-family="Trebuchet MS" font-weight="100" text-anchor="start" dominant-baseline="central" x="242.0" y="305" transform="translate(230,305) rotate(-0) translate(-230,-305)">Talduwa</text>
  </g>
  <g>
    <text fill="black" stroke="none" font-size="12" font-family="Trebuchet MS" font-weight="100" text-anchor="start" dominant-baseline="central" x="272.0" y="275" transform="translate(260,275) rotate(-0) translate(-260,-275)">Dehiovita</text>
  </g>
  <g>
    <text fill="black" stroke="none" font-size="12" font-family="Trebuchet MS" font-weight="100" text-anchor="end" dominant-baseline="central" x="278.0" y="245" transform="translate(290,245) rotate(-0) translate(-290,-245)">Karawanella</text>
  </g>
  <g>
    <text fill="black" stroke="none" font-size="12" font-family="Trebuchet MS" font-weight="100" text-anchor="start" dominant-baseline="central" x="242.0" y="335" transform="translate(230,335) rotate(-0) translate(-230,-335)">Getahetta</text>
  </g>
  <g>
    <text fill="black" stroke="none" font-size="12" font-family="Trebuchet MS" font-weight="100" text-anchor="start" dominant-baseline="central" x="272.0" y="365" transform="translate(260,365) rotate(-0) translate(-260,-365)">Eheliyagoda</text>
  </g>
  <g>
    <text fill="black" stroke="none" font-size="12" font-family="Trebuchet MS" font-weight="100" text-anchor="start" dominant-baseline="central" x="302.0" y="395" transform="translate(290,395) rotate(-0) translate(-290,-395)">Parakaduwa</text>
  </g>
  <g>
    <text fill="black" stroke="none" font-size="12" font-family="Trebuchet MS" font-weight="100" text-anchor="start" dominant-baseline="central" x="332.0" y="425" transform="translate(320,425) rotate(-0) translate(-320,-425)">Kuruwita</text>
  </g>
  <g>
    <text fill="black" stroke="none" font-size="12" font-family="Trebuchet MS" font-weight="100" text-anchor="start" dominant-baseline="central" x="392.0" y="455" transform="translate(380,455) rotate(-45) translate(-380,-455)">Tiriwanaketiya</text>
  </g>
  <g>
    <text fill="black" stroke="none" font-size="12" font-family="Trebuchet MS" font-weight="100" text-anchor="start" dominant-baseline="central" x="422.0" y="455" transform="translate(410,455) rotate(-45) translate(-410,-455)">Dela</text>
  </g>
  <g>
    <text fill="black" stroke="none" font-size="12" font-family="Trebuchet MS" font-weight="100" text-anchor="start" dominant-baseline="central" x="452.0" y="455" transform="translate(440,455) rotate(-45) translate(-440,-455)">Watapota</text>
  </g>
  <g>
    <text fill="black" stroke="none" font-size="12" font-family="Trebuchet MS" font-weight="100" text-anchor="start" dominant-baseline="central" x="482.0" y="455" transform="translate(470,455) rotate(-45) translate(-470,-455)">Kahawatta</text>
  </g>
</svg>
