<?xml version="1.0" ?>
<svg xmlns="http://www.w3.org/2000/svg" width="700" height="700" padding="200">
  <rect x="100.0" y="100.0" width="500" height="500" fill="white" stroke="gray"/>
  <text fill="gray" stroke="none" font-size="21.875" font-family="Trebuchet MS" x="350.0" y="112.0" text-anchor="middle" dominant-baseline="hanging">The Abandoned Udupussellawa Line</text>
  <g>
    <path fill="none" stroke-width="8.4" stroke-opacity="1" d="M 200.0,485.0 L 230.0,455.0 L 260.0,425.0 L 290.0,395.0 L 320.0,365.0 L 350.0,335.0 L 380.0,305.0 L 410.0,275.0 L 440.0,245.0 L 468.93933982822017,216.06066017177983 C 468.94287536212613,216.0571246378739 471.495,215.0 471.5,215.0 L 500.0,215.0" stroke="blue"/>
    <rect stroke="none" fill-opacity="1" x="496" y="207" width="8" height="16" fill="blue"/>
  </g>
  <g>
    <text fill="black" stroke="none" font-size="15.600000000000001" font-family="Trebuchet MS" font-weight="100" text-anchor="start" dominant-baseline="central" x="213.8" y="485" transform="translate(200,485) rotate(-0) translate(-200,-485)">Nanu-Oya</text>
  </g>
  <g>
    <text fill="black" stroke="none" font-size="15.600000000000001" font-family="Trebuchet MS" font-weight="100" text-anchor="start" dominant-baseline="central" x="513.8" y="215" transform="translate(500,215) rotate(-0) translate(-500,-215)">Ragala</text>
  </g>
  <g>
    <text fill="black" stroke="none" font-size="12" font-family="Trebuchet MS" font-weight="100" text-anchor="start" dominant-baseline="central" x="242.0" y="455" transform="translate(230,455) rotate(-0) translate(-230,-455)">Blackpool</text>
  </g>
  <g>
    <text fill="black" stroke="none" font-size="12" font-family="Trebuchet MS" font-weight="100" text-anchor="start" dominant-baseline="central" x="272.0" y="425" transform="translate(260,425) rotate(-0) translate(-260,-425)">Pedro</text>
  </g>
  <g>
    <text fill="black" stroke="none" font-size="12" font-family="Trebuchet MS" font-weight="100" text-anchor="start" dominant-baseline="central" x="302.0" y="395" transform="translate(290,395) rotate(-0) translate(-290,-395)">Nuwara-Eliya</text>
  </g>
  <g>
    <text fill="black" stroke="none" font-size="12" font-family="Trebuchet MS" font-weight="100" text-anchor="start" dominant-baseline="central" x="332.0" y="365" transform="translate(320,365) rotate(-0) translate(-320,-365)">Summerhill</text>
  </g>
  <g>
    <text fill="black" stroke="none" font-size="12" font-family="Trebuchet MS" font-weight="100" text-anchor="start" dominant-baseline="central" x="362.0" y="335" transform="translate(350,335) rotate(-0) translate(-350,-335)">Portswood</text>
  </g>
  <g>
    <text fill="black" stroke="none" font-size="12" font-family="Trebuchet MS" font-weight="100" text-anchor="start" dominant-baseline="central" x="392.0" y="305" transform="translate(380,305) rotate(-0) translate(-380,-305)">Kandapola</text>
  </g>
  <g>
    <text fill="black" stroke="none" font-size="12" font-family="Trebuchet MS" font-weight="100" text-anchor="start" dominant-baseline="central" x="422.0" y="275" transform="translate(410,275) rotate(-0) translate(-410,-275)">12:40</text>
  </g>
  <g>
    <text fill="black" stroke="none" font-size="12" font-family="Trebuchet MS" font-weight="100" text-anchor="start" dominant-baseline="central" x="452.0" y="245" transform="translate(440,245) rotate(-0) translate(-440,-245)">St. Johns</text>
  </g>
  <g>
    <text fill="black" stroke="none" font-size="12" font-family="Trebuchet MS" font-weight="100" text-anchor="end" dominant-baseline="central" x="458.0" y="215" transform="translate(470,215) rotate(-0) translate(-470,-215)">Brookside</text>
  </g>
</svg>
