<?xml version="1.0" ?>
<svg xmlns="http://www.w3.org/2000/svg" width="1200" height="1200" padding="100">
  <rect x="50.0" y="50.0" width="1100" height="1100" fill="white" stroke="gray"/>
  <text fill="black" stroke="none" font-size="36" font-family="Trebuchet MS" x="600.0" y="200" text-anchor="middle">Kelani-Valley Line &amp; Brances</text>
  <g>
    <path fill="none" stroke-width="6.300000000000001" stroke-opacity="1" d="M100 528 L120 548 L140 569 L161 589 L181 610 L202 630 L222 651 L242 671 L263 691 L283 712 L304 732 L324 732 L344 732 L365 732 L385 732 L406 732 L426 732 L446 732 L467 732 L487 732 L508 732 L528 732 L548 732 L569 732 L589 732 L610 732 L630 732 L651 732 L671 732 L691 732 L712 732 L732 712 L753 691 L773 671 L793 651 L814 630 L834 610 L855 589 L875 569 L895 548" stroke="darkblue"/>
    <rect stroke="none" fill-opacity="1" x="892" y="542" width="6" height="12" fill="darkblue"/>
  </g>
  <g>
    <path fill="none" stroke-width="6.300000000000001" stroke-opacity="1" d="M895 548 L916 528 L936 508 L957 487 L977 467" stroke="lightblue"/>
    <rect stroke="none" fill-opacity="1" x="974" y="461" width="6" height="12" fill="lightblue"/>
  </g>
  <g>
    <path fill="none" stroke-width="6.300000000000001" stroke-opacity="1" d="M895 548 L916 569 L936 589 L957 610 L977 630 L997 651 L1018 651 L1038 651 L1059 651 L1079 651 L1100 651" stroke="blue"/>
    <rect stroke="none" fill-opacity="1" x="1097" y="645" width="6" height="12" fill="blue"/>
  </g>
  <g>
    <circle r="6" fill="white" stroke="black" stroke-width="2.0999999999999996" cx="895" cy="548"/>
    <text fill="black" stroke="none" font-size="11.700000000000001" font-family="Trebuchet MS" font-weight="100" text-anchor="start" dominant-baseline="central" x="905.35" y="548" transform="translate(895,548) rotate(-0) translate(-895,-548)">Avissawella</text>
  </g>
  <g>
    <text fill="black" stroke="none" font-size="10.799999999999999" font-family="Trebuchet MS" font-weight="100" text-anchor="start" dominant-baseline="central" x="109.9" y="528" transform="translate(100,528) rotate(-0) translate(-100,-528)">Maradana</text>
  </g>
  <g>
    <text fill="black" stroke="none" font-size="10.799999999999999" font-family="Trebuchet MS" font-weight="100" text-anchor="start" dominant-baseline="central" x="986.9" y="467" transform="translate(977,467) rotate(-0) translate(-977,-467)">Yatiyanthota</text>
  </g>
  <g>
    <text fill="black" stroke="none" font-size="10.799999999999999" font-family="Trebuchet MS" font-weight="100" text-anchor="start" dominant-baseline="central" x="1109.9" y="651" transform="translate(1100,651) rotate(-0) translate(-1100,-651)">Opanayaka</text>
  </g>
  <g>
    <rect stroke="none" fill-opacity="1" x="991.0" y="648.0" width="6" height="6" fill="blue"/>
    <text fill="black" stroke="none" font-size="9.9" font-family="Trebuchet MS" font-weight="100" text-anchor="end" dominant-baseline="central" x="987.55" y="651" transform="translate(997,651) rotate(-0) translate(-997,-651)">RATNAPURA</text>
  </g>
  <g>
    <rect stroke="none" fill-opacity="1" x="120.0" y="545.0" width="6" height="6" fill="darkblue"/>
    <text fill="black" stroke="none" font-size="9" font-family="Trebuchet MS" font-weight="100" text-anchor="start" dominant-baseline="central" x="129.0" y="548" transform="translate(120,548) rotate(-0) translate(-120,-548)">Baseline Road</text>
  </g>
  <g>
    <rect stroke="none" fill-opacity="1" x="140.0" y="566.0" width="6" height="6" fill="darkblue"/>
    <text fill="black" stroke="none" font-size="9" font-family="Trebuchet MS" font-weight="100" text-anchor="start" dominant-baseline="central" x="149.0" y="569" transform="translate(140,569) rotate(-0) translate(-140,-569)">Cotta Road</text>
  </g>
  <g>
    <rect stroke="none" fill-opacity="1" x="161.0" y="586.0" width="6" height="6" fill="darkblue"/>
    <text fill="black" stroke="none" font-size="9" font-family="Trebuchet MS" font-weight="100" text-anchor="start" dominant-baseline="central" x="170.0" y="589" transform="translate(161,589) rotate(-0) translate(-161,-589)">Manning Town</text>
  </g>
  <g>
    <rect stroke="none" fill-opacity="1" x="181.0" y="607.0" width="6" height="6" fill="darkblue"/>
    <text fill="black" stroke="none" font-size="9" font-family="Trebuchet MS" font-weight="100" text-anchor="start" dominant-baseline="central" x="190.0" y="610" transform="translate(181,610) rotate(-0) translate(-181,-610)">Narahenpita</text>
  </g>
  <g>
    <rect stroke="none" fill-opacity="1" x="202.0" y="627.0" width="6" height="6" fill="darkblue"/>
    <text fill="black" stroke="none" font-size="9" font-family="Trebuchet MS" font-weight="100" text-anchor="start" dominant-baseline="central" x="211.0" y="630" transform="translate(202,630) rotate(-0) translate(-202,-630)">Kirulapone</text>
  </g>
  <g>
    <rect stroke="none" fill-opacity="1" x="222.0" y="648.0" width="6" height="6" fill="darkblue"/>
    <text fill="black" stroke="none" font-size="9" font-family="Trebuchet MS" font-weight="100" text-anchor="start" dominant-baseline="central" x="231.0" y="651" transform="translate(222,651) rotate(-0) translate(-222,-651)">Nugegoda</text>
  </g>
  <g>
    <rect stroke="none" fill-opacity="1" x="242.0" y="668.0" width="6" height="6" fill="darkblue"/>
    <text fill="black" stroke="none" font-size="9" font-family="Trebuchet MS" font-weight="100" text-anchor="start" dominant-baseline="central" x="251.0" y="671" transform="translate(242,671) rotate(-0) translate(-242,-671)">Pengiriwatte</text>
  </g>
  <g>
    <rect stroke="none" fill-opacity="1" x="263.0" y="688.0" width="6" height="6" fill="darkblue"/>
    <text fill="black" stroke="none" font-size="9" font-family="Trebuchet MS" font-weight="100" text-anchor="start" dominant-baseline="central" x="272.0" y="691" transform="translate(263,691) rotate(-0) translate(-263,-691)">Udahamulla</text>
  </g>
  <g>
    <rect stroke="none" fill-opacity="1" x="283.0" y="709.0" width="6" height="6" fill="darkblue"/>
    <text fill="black" stroke="none" font-size="9" font-family="Trebuchet MS" font-weight="100" text-anchor="start" dominant-baseline="central" x="292.0" y="712" transform="translate(283,712) rotate(-0) translate(-283,-712)">Nawinna</text>
  </g>
  <g>
    <rect stroke="none" fill-opacity="1" x="298.0" y="729.0" width="6" height="6" fill="darkblue"/>
    <text fill="black" stroke="none" font-size="9" font-family="Trebuchet MS" font-weight="100" text-anchor="end" dominant-baseline="central" x="295.0" y="732" transform="translate(304,732) rotate(-0) translate(-304,-732)">Maharagama</text>
  </g>
  <g>
    <rect stroke="none" fill-opacity="1" x="323.12132034355966" y="731.1213203435597" width="6" height="6" fill="darkblue"/>
    <text fill="black" stroke="none" font-size="9" font-family="Trebuchet MS" font-weight="100" text-anchor="start" dominant-baseline="central" x="333.0" y="732" transform="translate(324,732) rotate(-315) translate(-324,-732)">Pannipitiya</text>
  </g>
  <g>
    <rect stroke="none" fill-opacity="1" x="343.12132034355966" y="726.8786796564403" width="6" height="6" fill="darkblue"/>
    <text fill="black" stroke="none" font-size="9" font-family="Trebuchet MS" font-weight="100" text-anchor="start" dominant-baseline="central" x="353.0" y="732" transform="translate(344,732) rotate(-45) translate(-344,-732)">Kottawa</text>
  </g>
  <g>
    <rect stroke="none" fill-opacity="1" x="364.12132034355966" y="726.8786796564403" width="6" height="6" fill="darkblue"/>
    <text fill="black" stroke="none" font-size="9" font-family="Trebuchet MS" font-weight="100" text-anchor="start" dominant-baseline="central" x="374.0" y="732" transform="translate(365,732) rotate(-45) translate(-365,-732)">Malapalle</text>
  </g>
  <g>
    <rect stroke="none" fill-opacity="1" x="384.12132034355966" y="726.8786796564403" width="6" height="6" fill="darkblue"/>
    <text fill="black" stroke="none" font-size="9" font-family="Trebuchet MS" font-weight="100" text-anchor="start" dominant-baseline="central" x="394.0" y="732" transform="translate(385,732) rotate(-45) translate(-385,-732)">Makumbura</text>
  </g>
  <g>
    <rect stroke="none" fill-opacity="1" x="405.12132034355966" y="726.8786796564403" width="6" height="6" fill="darkblue"/>
    <text fill="black" stroke="none" font-size="9" font-family="Trebuchet MS" font-weight="100" text-anchor="start" dominant-baseline="central" x="415.0" y="732" transform="translate(406,732) rotate(-45) translate(-406,-732)">Homagama Hospital</text>
  </g>
  <g>
    <rect stroke="none" fill-opacity="1" x="425.12132034355966" y="726.8786796564403" width="6" height="6" fill="darkblue"/>
    <text fill="black" stroke="none" font-size="9" font-family="Trebuchet MS" font-weight="100" text-anchor="start" dominant-baseline="central" x="435.0" y="732" transform="translate(426,732) rotate(-45) translate(-426,-732)">Homagama</text>
  </g>
  <g>
    <rect stroke="none" fill-opacity="1" x="445.12132034355966" y="726.8786796564403" width="6" height="6" fill="darkblue"/>
    <text fill="black" stroke="none" font-size="9" font-family="Trebuchet MS" font-weight="100" text-anchor="start" dominant-baseline="central" x="455.0" y="732" transform="translate(446,732) rotate(-45) translate(-446,-732)">Panagoda</text>
  </g>
  <g>
    <rect stroke="none" fill-opacity="1" x="466.12132034355966" y="726.8786796564403" width="6" height="6" fill="darkblue"/>
    <text fill="black" stroke="none" font-size="9" font-family="Trebuchet MS" font-weight="100" text-anchor="start" dominant-baseline="central" x="476.0" y="732" transform="translate(467,732) rotate(-45) translate(-467,-732)">Godagama</text>
  </g>
  <g>
    <rect stroke="none" fill-opacity="1" x="486.12132034355966" y="726.8786796564403" width="6" height="6" fill="darkblue"/>
    <text fill="black" stroke="none" font-size="9" font-family="Trebuchet MS" font-weight="100" text-anchor="start" dominant-baseline="central" x="496.0" y="732" transform="translate(487,732) rotate(-45) translate(-487,-732)">Meegoda</text>
  </g>
  <g>
    <rect stroke="none" fill-opacity="1" x="507.12132034355966" y="726.8786796564403" width="6" height="6" fill="darkblue"/>
    <text fill="black" stroke="none" font-size="9" font-family="Trebuchet MS" font-weight="100" text-anchor="start" dominant-baseline="central" x="517.0" y="732" transform="translate(508,732) rotate(-45) translate(-508,-732)">Watareka</text>
  </g>
  <g>
    <rect stroke="none" fill-opacity="1" x="527.1213203435597" y="726.8786796564403" width="6" height="6" fill="darkblue"/>
    <text fill="black" stroke="none" font-size="9" font-family="Trebuchet MS" font-weight="100" text-anchor="start" dominant-baseline="central" x="537.0" y="732" transform="translate(528,732) rotate(-45) translate(-528,-732)">Liyanwala</text>
  </g>
  <g>
    <rect stroke="none" fill-opacity="1" x="547.1213203435597" y="726.8786796564403" width="6" height="6" fill="darkblue"/>
    <text fill="black" stroke="none" font-size="9" font-family="Trebuchet MS" font-weight="100" text-anchor="start" dominant-baseline="central" x="557.0" y="732" transform="translate(548,732) rotate(-45) translate(-548,-732)">Padukka</text>
  </g>
  <g>
    <rect stroke="none" fill-opacity="1" x="568.1213203435597" y="726.8786796564403" width="6" height="6" fill="darkblue"/>
    <text fill="black" stroke="none" font-size="9" font-family="Trebuchet MS" font-weight="100" text-anchor="start" dominant-baseline="central" x="578.0" y="732" transform="translate(569,732) rotate(-45) translate(-569,-732)">Arukwathupura</text>
  </g>
  <g>
    <rect stroke="none" fill-opacity="1" x="588.1213203435597" y="726.8786796564403" width="6" height="6" fill="darkblue"/>
    <text fill="black" stroke="none" font-size="9" font-family="Trebuchet MS" font-weight="100" text-anchor="start" dominant-baseline="central" x="598.0" y="732" transform="translate(589,732) rotate(-45) translate(-589,-732)">Angampitiya</text>
  </g>
  <g>
    <rect stroke="none" fill-opacity="1" x="609.1213203435597" y="726.8786796564403" width="6" height="6" fill="darkblue"/>
    <text fill="black" stroke="none" font-size="9" font-family="Trebuchet MS" font-weight="100" text-anchor="start" dominant-baseline="central" x="619.0" y="732" transform="translate(610,732) rotate(-45) translate(-610,-732)">Uggalla</text>
  </g>
  <g>
    <rect stroke="none" fill-opacity="1" x="629.1213203435597" y="726.8786796564403" width="6" height="6" fill="darkblue"/>
    <text fill="black" stroke="none" font-size="9" font-family="Trebuchet MS" font-weight="100" text-anchor="start" dominant-baseline="central" x="639.0" y="732" transform="translate(630,732) rotate(-45) translate(-630,-732)">Pinnawala</text>
  </g>
  <g>
    <rect stroke="none" fill-opacity="1" x="650.1213203435597" y="726.8786796564403" width="6" height="6" fill="darkblue"/>
    <text fill="black" stroke="none" font-size="9" font-family="Trebuchet MS" font-weight="100" text-anchor="start" dominant-baseline="central" x="660.0" y="732" transform="translate(651,732) rotate(-45) translate(-651,-732)">Gammana</text>
  </g>
  <g>
    <rect stroke="none" fill-opacity="1" x="670.1213203435597" y="726.8786796564403" width="6" height="6" fill="darkblue"/>
    <text fill="black" stroke="none" font-size="9" font-family="Trebuchet MS" font-weight="100" text-anchor="start" dominant-baseline="central" x="680.0" y="732" transform="translate(671,732) rotate(-45) translate(-671,-732)">Morakale</text>
  </g>
  <g>
    <rect stroke="none" fill-opacity="1" x="690.1213203435597" y="726.8786796564403" width="6" height="6" fill="darkblue"/>
    <text fill="black" stroke="none" font-size="9" font-family="Trebuchet MS" font-weight="100" text-anchor="start" dominant-baseline="central" x="700.0" y="732" transform="translate(691,732) rotate(-45) translate(-691,-732)">Waga</text>
  </g>
  <g>
    <rect stroke="none" fill-opacity="1" x="712.0" y="729.0" width="6" height="6" fill="darkblue"/>
    <text fill="black" stroke="none" font-size="9" font-family="Trebuchet MS" font-weight="100" text-anchor="start" dominant-baseline="central" x="721.0" y="732" transform="translate(712,732) rotate(-0) translate(-712,-732)">Kadugoda</text>
  </g>
  <g>
    <rect stroke="none" fill-opacity="1" x="732.0" y="709.0" width="6" height="6" fill="darkblue"/>
    <text fill="black" stroke="none" font-size="9" font-family="Trebuchet MS" font-weight="100" text-anchor="start" dominant-baseline="central" x="741.0" y="712" transform="translate(732,712) rotate(-0) translate(-732,-712)">Arapanagama</text>
  </g>
  <g>
    <rect stroke="none" fill-opacity="1" x="753.0" y="688.0" width="6" height="6" fill="darkblue"/>
    <text fill="black" stroke="none" font-size="9" font-family="Trebuchet MS" font-weight="100" text-anchor="start" dominant-baseline="central" x="762.0" y="691" transform="translate(753,691) rotate(-0) translate(-753,-691)">Kosgama</text>
  </g>
  <g>
    <rect stroke="none" fill-opacity="1" x="773.0" y="668.0" width="6" height="6" fill="darkblue"/>
    <text fill="black" stroke="none" font-size="9" font-family="Trebuchet MS" font-weight="100" text-anchor="start" dominant-baseline="central" x="782.0" y="671" transform="translate(773,671) rotate(-0) translate(-773,-671)">Aluthambalama</text>
  </g>
  <g>
    <rect stroke="none" fill-opacity="1" x="793.0" y="648.0" width="6" height="6" fill="darkblue"/>
    <text fill="black" stroke="none" font-size="9" font-family="Trebuchet MS" font-weight="100" text-anchor="start" dominant-baseline="central" x="802.0" y="651" transform="translate(793,651) rotate(-0) translate(-793,-651)">Miriswatte</text>
  </g>
  <g>
    <rect stroke="none" fill-opacity="1" x="814.0" y="627.0" width="6" height="6" fill="darkblue"/>
    <text fill="black" stroke="none" font-size="9" font-family="Trebuchet MS" font-weight="100" text-anchor="start" dominant-baseline="central" x="823.0" y="630" transform="translate(814,630) rotate(-0) translate(-814,-630)">Hingurala</text>
  </g>
  <g>
    <rect stroke="none" fill-opacity="1" x="834.0" y="607.0" width="6" height="6" fill="darkblue"/>
    <text fill="black" stroke="none" font-size="9" font-family="Trebuchet MS" font-weight="100" text-anchor="start" dominant-baseline="central" x="843.0" y="610" transform="translate(834,610) rotate(-0) translate(-834,-610)">Puwakpitiya</text>
  </g>
  <g>
    <rect stroke="none" fill-opacity="1" x="855.0" y="586.0" width="6" height="6" fill="darkblue"/>
    <text fill="black" stroke="none" font-size="9" font-family="Trebuchet MS" font-weight="100" text-anchor="start" dominant-baseline="central" x="864.0" y="589" transform="translate(855,589) rotate(-0) translate(-855,-589)">Puwakpitiya Town</text>
  </g>
  <g>
    <rect stroke="none" fill-opacity="1" x="869.0" y="566.0" width="6" height="6" fill="darkblue"/>
    <text fill="black" stroke="none" font-size="9" font-family="Trebuchet MS" font-weight="100" text-anchor="end" dominant-baseline="central" x="866.0" y="569" transform="translate(875,569) rotate(-0) translate(-875,-569)">Kiriwadala</text>
  </g>
  <g>
    <rect stroke="none" fill-opacity="1" x="916.0" y="525.0" width="6" height="6" fill="lightblue"/>
    <text fill="black" stroke="none" font-size="9" font-family="Trebuchet MS" font-weight="100" text-anchor="start" dominant-baseline="central" x="925.0" y="528" transform="translate(916,528) rotate(-0) translate(-916,-528)">Talduwa</text>
  </g>
  <g>
    <rect stroke="none" fill-opacity="1" x="936.0" y="505.0" width="6" height="6" fill="lightblue"/>
    <text fill="black" stroke="none" font-size="9" font-family="Trebuchet MS" font-weight="100" text-anchor="start" dominant-baseline="central" x="945.0" y="508" transform="translate(936,508) rotate(-0) translate(-936,-508)">Dehiovita</text>
  </g>
  <g>
    <rect stroke="none" fill-opacity="1" x="957.0" y="484.0" width="6" height="6" fill="lightblue"/>
    <text fill="black" stroke="none" font-size="9" font-family="Trebuchet MS" font-weight="100" text-anchor="start" dominant-baseline="central" x="966.0" y="487" transform="translate(957,487) rotate(-0) translate(-957,-487)">Karawanella</text>
  </g>
  <g>
    <rect stroke="none" fill-opacity="1" x="916.0" y="566.0" width="6" height="6" fill="blue"/>
    <text fill="black" stroke="none" font-size="9" font-family="Trebuchet MS" font-weight="100" text-anchor="start" dominant-baseline="central" x="925.0" y="569" transform="translate(916,569) rotate(-0) translate(-916,-569)">Getahetta</text>
  </g>
  <g>
    <rect stroke="none" fill-opacity="1" x="936.0" y="586.0" width="6" height="6" fill="blue"/>
    <text fill="black" stroke="none" font-size="9" font-family="Trebuchet MS" font-weight="100" text-anchor="start" dominant-baseline="central" x="945.0" y="589" transform="translate(936,589) rotate(-0) translate(-936,-589)">Eheliyagoda</text>
  </g>
  <g>
    <rect stroke="none" fill-opacity="1" x="957.0" y="607.0" width="6" height="6" fill="blue"/>
    <text fill="black" stroke="none" font-size="9" font-family="Trebuchet MS" font-weight="100" text-anchor="start" dominant-baseline="central" x="966.0" y="610" transform="translate(957,610) rotate(-0) translate(-957,-610)">Parakaduwa</text>
  </g>
  <g>
    <rect stroke="none" fill-opacity="1" x="977.0" y="627.0" width="6" height="6" fill="blue"/>
    <text fill="black" stroke="none" font-size="9" font-family="Trebuchet MS" font-weight="100" text-anchor="start" dominant-baseline="central" x="986.0" y="630" transform="translate(977,630) rotate(-0) translate(-977,-630)">Kuruwita</text>
  </g>
  <g>
    <rect stroke="none" fill-opacity="1" x="1017.1213203435597" y="650.1213203435597" width="6" height="6" fill="blue"/>
    <text fill="black" stroke="none" font-size="9" font-family="Trebuchet MS" font-weight="100" text-anchor="start" dominant-baseline="central" x="1027.0" y="651" transform="translate(1018,651) rotate(-315) translate(-1018,-651)">Tiriwanaketiya</text>
  </g>
  <g>
    <rect stroke="none" fill-opacity="1" x="1037.1213203435595" y="645.8786796564403" width="6" height="6" fill="blue"/>
    <text fill="black" stroke="none" font-size="9" font-family="Trebuchet MS" font-weight="100" text-anchor="start" dominant-baseline="central" x="1047.0" y="651" transform="translate(1038,651) rotate(-45) translate(-1038,-651)">Dela</text>
  </g>
  <g>
    <rect stroke="none" fill-opacity="1" x="1058.1213203435595" y="645.8786796564403" width="6" height="6" fill="blue"/>
    <text fill="black" stroke="none" font-size="9" font-family="Trebuchet MS" font-weight="100" text-anchor="start" dominant-baseline="central" x="1068.0" y="651" transform="translate(1059,651) rotate(-45) translate(-1059,-651)">Watapota</text>
  </g>
  <g>
    <rect stroke="none" fill-opacity="1" x="1078.1213203435595" y="645.8786796564403" width="6" height="6" fill="blue"/>
    <text fill="black" stroke="none" font-size="9" font-family="Trebuchet MS" font-weight="100" text-anchor="start" dominant-baseline="central" x="1088.0" y="651" transform="translate(1079,651) rotate(-45) translate(-1079,-651)">Kahawatta</text>
  </g>
</svg>
