<?xml version="1.0" ?>
<svg xmlns="http://www.w3.org/2000/svg" width="1000" height="1000" padding="50">
  <polyline fill="none" stroke-width="10.5" points="50,673 119,673 188,673 257,673 326,673 396,673 465,673" stroke="red"/>
  <polyline fill="none" stroke-width="10.5" points="50,673 50,742 50,811 50,880 50,950" stroke="cyan"/>
  <polyline fill="none" stroke-width="10.5" points="326,673 326,603 326,534 326,465 326,396 326,326 326,257 326,188 326,119 326,50" stroke="orange"/>
  <polyline fill="none" stroke-width="10.5" points="119,673 119,742" stroke="darkblue"/>
  <polyline fill="none" stroke-width="10.5" points="188,673 188,603 188,534" stroke="green"/>
  <polyline fill="none" stroke-width="10.5" points="396,673 396,603" stroke="purple"/>
  <polyline fill="none" stroke-width="10.5" points="396,603 465,603" stroke="purple"/>
  <polyline fill="none" stroke-width="10.5" points="326,396 396,396" stroke="yellow"/>
  <polyline fill="none" stroke-width="10.5" points="326,326 257,326 188,326" stroke="blue"/>
  <polyline fill="none" stroke-width="10.5" points="326,534 396,534 465,534 534,534" stroke="darkgreen"/>
  <polyline fill="none" stroke-width="10.5" points="396,534 396,465" stroke="silver"/>
  <g>
    <circle r="5" fill="white" stroke="black" stroke-width="3.5" cx="326" cy="50"/>
    <text fill="black" stroke="none" font-size="10" text-anchor="start" font-family="Arial" font-weight="600" alignment-baseline="middle" x="338.5" y="50">Kankesanthurai</text>
  </g>
  <g>
    <circle r="10" fill="white" stroke="black" stroke-width="3.5" cx="50" cy="673"/>
    <circle r="5" fill="white" stroke="black" stroke-width="3.5" cx="50" cy="673"/>
    <text fill="black" stroke="none" font-size="10" text-anchor="start" font-family="Arial" font-weight="600" alignment-baseline="middle" x="62.5" y="673">COLOMBO (Fort)</text>
  </g>
  <g>
    <circle r="5" fill="white" stroke="black" stroke-width="3.5" cx="465" cy="673"/>
    <text fill="black" stroke="none" font-size="10" text-anchor="start" font-family="Arial" font-weight="600" alignment-baseline="middle" x="477.5" y="673">BADULLA</text>
  </g>
  <g>
    <circle r="5" fill="white" stroke="black" stroke-width="3.5" cx="50" cy="950"/>
    <text fill="black" stroke="none" font-size="10" text-anchor="start" font-family="Arial" font-weight="600" alignment-baseline="middle" x="62.5" y="950">Beliatta</text>
  </g>
  <g>
    <circle r="5" fill="white" stroke="black" stroke-width="3.5" cx="119" cy="742"/>
    <text fill="black" stroke="none" font-size="10" text-anchor="start" font-family="Arial" font-weight="600" alignment-baseline="middle" x="131.5" y="742">Avissawella</text>
  </g>
  <g>
    <circle r="5" fill="white" stroke="black" stroke-width="3.5" cx="188" cy="534"/>
    <text fill="black" stroke="none" font-size="10" text-anchor="start" font-family="Arial" font-weight="600" alignment-baseline="middle" x="200.5" y="534">Periyanurvillu</text>
  </g>
  <g>
    <circle r="5" fill="white" stroke="black" stroke-width="3.5" cx="465" cy="603"/>
    <text fill="black" stroke="none" font-size="10" text-anchor="start" font-family="Arial" font-weight="600" alignment-baseline="middle" x="477.5" y="603">MATALE</text>
  </g>
  <g>
    <circle r="5" fill="white" stroke="black" stroke-width="3.5" cx="396" cy="603"/>
    <text fill="black" stroke="none" font-size="10" text-anchor="start" font-family="Arial" font-weight="600" alignment-baseline="middle" x="408.5" y="603">KANDY</text>
  </g>
  <g>
    <circle r="5" fill="white" stroke="black" stroke-width="3.5" cx="396" cy="396"/>
    <text fill="black" stroke="none" font-size="10" text-anchor="start" font-family="Arial" font-weight="600" alignment-baseline="middle" x="408.5" y="396">Mihintale</text>
  </g>
  <g>
    <circle r="5" fill="white" stroke="black" stroke-width="3.5" cx="188" cy="326"/>
    <text fill="black" stroke="none" font-size="10" text-anchor="start" font-family="Arial" font-weight="600" alignment-baseline="middle" x="200.5" y="326">Talaimannar Pier</text>
  </g>
  <g>
    <circle r="5" fill="white" stroke="black" stroke-width="3.5" cx="534" cy="534"/>
    <text fill="black" stroke="none" font-size="10" text-anchor="start" font-family="Arial" font-weight="600" alignment-baseline="middle" x="546.5" y="534">BATTICALOA</text>
  </g>
  <g>
    <circle r="5" fill="white" stroke="black" stroke-width="3.5" cx="396" cy="465"/>
    <text fill="black" stroke="none" font-size="10" text-anchor="start" font-family="Arial" font-weight="600" alignment-baseline="middle" x="408.5" y="465">TRINCOMALEE</text>
  </g>
  <g>
    <circle r="10" fill="white" stroke="black" stroke-width="3.5" cx="119" cy="673"/>
    <circle r="5" fill="white" stroke="black" stroke-width="3.5" cx="119" cy="673"/>
    <text fill="black" stroke="none" font-size="10" text-anchor="start" font-family="Arial" font-weight="600" alignment-baseline="middle" x="131.5" y="673">COLOMBO (Maradana)</text>
  </g>
  <g>
    <circle r="10" fill="white" stroke="black" stroke-width="3.5" cx="188" cy="673"/>
    <circle r="5" fill="white" stroke="black" stroke-width="3.5" cx="188" cy="673"/>
    <text fill="black" stroke="none" font-size="10" text-anchor="start" font-family="Arial" font-weight="600" alignment-baseline="middle" x="200.5" y="673">Ragama</text>
  </g>
  <g>
    <circle r="5" fill="white" stroke="black" stroke-width="3.5" cx="257" cy="673"/>
    <text fill="black" stroke="none" font-size="10" text-anchor="start" font-family="Arial" font-weight="600" alignment-baseline="middle" x="269.5" y="673">GAMPAHA</text>
  </g>
  <g>
    <circle r="10" fill="white" stroke="black" stroke-width="3.5" cx="326" cy="673"/>
    <circle r="5" fill="white" stroke="black" stroke-width="3.5" cx="326" cy="673"/>
    <text fill="black" stroke="none" font-size="10" text-anchor="start" font-family="Arial" font-weight="600" alignment-baseline="middle" x="338.5" y="673">Polgahawela</text>
  </g>
  <g>
    <circle r="10" fill="white" stroke="black" stroke-width="3.5" cx="396" cy="673"/>
    <circle r="5" fill="white" stroke="black" stroke-width="3.5" cx="396" cy="673"/>
    <text fill="black" stroke="none" font-size="10" text-anchor="start" font-family="Arial" font-weight="600" alignment-baseline="middle" x="408.5" y="673">Peradeniya</text>
  </g>
  <g>
    <circle r="5" fill="white" stroke="black" stroke-width="3.5" cx="50" cy="742"/>
    <text fill="black" stroke="none" font-size="10" text-anchor="start" font-family="Arial" font-weight="600" alignment-baseline="middle" x="62.5" y="742">KALUTARA (North)</text>
  </g>
  <g>
    <circle r="5" fill="white" stroke="black" stroke-width="3.5" cx="50" cy="811"/>
    <text fill="black" stroke="none" font-size="10" text-anchor="start" font-family="Arial" font-weight="600" alignment-baseline="middle" x="62.5" y="811">GALLE</text>
  </g>
  <g>
    <circle r="5" fill="white" stroke="black" stroke-width="3.5" cx="50" cy="880"/>
    <text fill="black" stroke="none" font-size="10" text-anchor="start" font-family="Arial" font-weight="600" alignment-baseline="middle" x="62.5" y="880">MATARA</text>
  </g>
  <g>
    <circle r="5" fill="white" stroke="black" stroke-width="3.5" cx="326" cy="603"/>
    <text fill="black" stroke="none" font-size="10" text-anchor="start" font-family="Arial" font-weight="600" alignment-baseline="middle" x="338.5" y="603">KURUNEGALA</text>
  </g>
  <g>
    <circle r="10" fill="white" stroke="black" stroke-width="3.5" cx="326" cy="534"/>
    <circle r="5" fill="white" stroke="black" stroke-width="3.5" cx="326" cy="534"/>
    <text fill="black" stroke="none" font-size="10" text-anchor="start" font-family="Arial" font-weight="600" alignment-baseline="middle" x="338.5" y="534">Maho</text>
  </g>
  <g>
    <circle r="5" fill="white" stroke="black" stroke-width="3.5" cx="326" cy="465"/>
    <text fill="black" stroke="none" font-size="10" text-anchor="start" font-family="Arial" font-weight="600" alignment-baseline="middle" x="338.5" y="465">ANURADHAPURA</text>
  </g>
  <g>
    <circle r="10" fill="white" stroke="black" stroke-width="3.5" cx="326" cy="396"/>
    <circle r="5" fill="white" stroke="black" stroke-width="3.5" cx="326" cy="396"/>
    <text fill="black" stroke="none" font-size="10" text-anchor="start" font-family="Arial" font-weight="600" alignment-baseline="middle" x="338.5" y="396">Mihintale Junction</text>
  </g>
  <g>
    <circle r="10" fill="white" stroke="black" stroke-width="3.5" cx="326" cy="326"/>
    <circle r="5" fill="white" stroke="black" stroke-width="3.5" cx="326" cy="326"/>
    <text fill="black" stroke="none" font-size="10" text-anchor="start" font-family="Arial" font-weight="600" alignment-baseline="middle" x="338.5" y="326">Medavachchiya</text>
  </g>
  <g>
    <circle r="5" fill="white" stroke="black" stroke-width="3.5" cx="326" cy="257"/>
    <text fill="black" stroke="none" font-size="10" text-anchor="start" font-family="Arial" font-weight="600" alignment-baseline="middle" x="338.5" y="257">VAVUNIYA</text>
  </g>
  <g>
    <circle r="5" fill="white" stroke="black" stroke-width="3.5" cx="326" cy="188"/>
    <text fill="black" stroke="none" font-size="10" text-anchor="start" font-family="Arial" font-weight="600" alignment-baseline="middle" x="338.5" y="188">KILINOCHCHI</text>
  </g>
  <g>
    <circle r="5" fill="white" stroke="black" stroke-width="3.5" cx="326" cy="119"/>
    <text fill="black" stroke="none" font-size="10" text-anchor="start" font-family="Arial" font-weight="600" alignment-baseline="middle" x="338.5" y="119">JAFFNA</text>
  </g>
  <g>
    <circle r="5" fill="white" stroke="black" stroke-width="3.5" cx="188" cy="603"/>
    <text fill="black" stroke="none" font-size="10" text-anchor="start" font-family="Arial" font-weight="600" alignment-baseline="middle" x="200.5" y="603">PUTTALAM</text>
  </g>
  <g>
    <circle r="5" fill="white" stroke="black" stroke-width="3.5" cx="257" cy="326"/>
    <text fill="black" stroke="none" font-size="10" text-anchor="start" font-family="Arial" font-weight="600" alignment-baseline="middle" x="269.5" y="326">MANNAR</text>
  </g>
  <g>
    <circle r="10" fill="white" stroke="black" stroke-width="3.5" cx="396" cy="534"/>
    <circle r="5" fill="white" stroke="black" stroke-width="3.5" cx="396" cy="534"/>
    <text fill="black" stroke="none" font-size="10" text-anchor="start" font-family="Arial" font-weight="600" alignment-baseline="middle" x="408.5" y="534">Galoya</text>
  </g>
  <g>
    <circle r="5" fill="white" stroke="black" stroke-width="3.5" cx="465" cy="534"/>
    <text fill="black" stroke="none" font-size="10" text-anchor="start" font-family="Arial" font-weight="600" alignment-baseline="middle" x="477.5" y="534">POLONNARUWA</text>
  </g>
</svg>
