<?xml version="1.0" ?>
<svg xmlns="http://www.w3.org/2000/svg" width="700" height="700" padding="200">
  <rect x="100.0" y="100.0" width="500" height="500" fill="white" stroke="gray"/>
  <text fill="gray" stroke="none" font-size="48" font-family="Trebuchet MS" x="350.0" y="400" text-anchor="middle"/>
  <g>
    <path fill="none" stroke-width="6.300000000000001" stroke-opacity="1" d="M200 485 L230 455 L260 425 L290 395 L320 365 L350 335 L380 305 L410 275 L440 245 L470 215 L500 215" stroke="blue"/>
    <rect stroke="none" fill-opacity="1" x="497" y="209" width="6" height="12" fill="blue"/>
  </g>
  <g>
    <text fill="black" stroke="none" font-size="14.399999999999999" font-family="Trebuchet MS" font-weight="100" text-anchor="start" dominant-baseline="central" x="211.7" y="485" transform="translate(200,485) rotate(-0) translate(-200,-485)">Nanu-Oya</text>
  </g>
  <g>
    <text fill="black" stroke="none" font-size="14.399999999999999" font-family="Trebuchet MS" font-weight="100" text-anchor="start" dominant-baseline="central" x="511.7" y="215" transform="translate(500,215) rotate(-0) translate(-500,-215)">Ragala</text>
  </g>
  <g>
    <rect stroke="none" fill-opacity="1" x="230.0" y="452.0" width="6" height="6" fill="blue"/>
    <text fill="black" stroke="none" font-size="12" font-family="Trebuchet MS" font-weight="100" text-anchor="start" dominant-baseline="central" x="240.5" y="455" transform="translate(230,455) rotate(-0) translate(-230,-455)">Blackpool</text>
  </g>
  <g>
    <rect stroke="none" fill-opacity="1" x="260.0" y="422.0" width="6" height="6" fill="blue"/>
    <text fill="black" stroke="none" font-size="12" font-family="Trebuchet MS" font-weight="100" text-anchor="start" dominant-baseline="central" x="270.5" y="425" transform="translate(260,425) rotate(-0) translate(-260,-425)">Pedro</text>
  </g>
  <g>
    <rect stroke="none" fill-opacity="1" x="290.0" y="392.0" width="6" height="6" fill="blue"/>
    <text fill="black" stroke="none" font-size="12" font-family="Trebuchet MS" font-weight="100" text-anchor="start" dominant-baseline="central" x="300.5" y="395" transform="translate(290,395) rotate(-0) translate(-290,-395)">Nuwara-Eliya</text>
  </g>
  <g>
    <rect stroke="none" fill-opacity="1" x="320.0" y="362.0" width="6" height="6" fill="blue"/>
    <text fill="black" stroke="none" font-size="12" font-family="Trebuchet MS" font-weight="100" text-anchor="start" dominant-baseline="central" x="330.5" y="365" transform="translate(320,365) rotate(-0) translate(-320,-365)">Summerhill</text>
  </g>
  <g>
    <rect stroke="none" fill-opacity="1" x="350.0" y="332.0" width="6" height="6" fill="blue"/>
    <text fill="black" stroke="none" font-size="12" font-family="Trebuchet MS" font-weight="100" text-anchor="start" dominant-baseline="central" x="360.5" y="335" transform="translate(350,335) rotate(-0) translate(-350,-335)">Portswood</text>
  </g>
  <g>
    <rect stroke="none" fill-opacity="1" x="380.0" y="302.0" width="6" height="6" fill="blue"/>
    <text fill="black" stroke="none" font-size="12" font-family="Trebuchet MS" font-weight="100" text-anchor="start" dominant-baseline="central" x="390.5" y="305" transform="translate(380,305) rotate(-0) translate(-380,-305)">Kandapola</text>
  </g>
  <g>
    <rect stroke="none" fill-opacity="1" x="410.0" y="272.0" width="6" height="6" fill="blue"/>
    <text fill="black" stroke="none" font-size="12" font-family="Trebuchet MS" font-weight="100" text-anchor="start" dominant-baseline="central" x="420.5" y="275" transform="translate(410,275) rotate(-0) translate(-410,-275)">12:40</text>
  </g>
  <g>
    <rect stroke="none" fill-opacity="1" x="440.0" y="242.0" width="6" height="6" fill="blue"/>
    <text fill="black" stroke="none" font-size="12" font-family="Trebuchet MS" font-weight="100" text-anchor="start" dominant-baseline="central" x="450.5" y="245" transform="translate(440,245) rotate(-0) translate(-440,-245)">St. Johns</text>
  </g>
  <g>
    <rect stroke="none" fill-opacity="1" x="464.0" y="212.0" width="6" height="6" fill="blue"/>
    <text fill="black" stroke="none" font-size="12" font-family="Trebuchet MS" font-weight="100" text-anchor="end" dominant-baseline="central" x="459.5" y="215" transform="translate(470,215) rotate(-0) translate(-470,-215)">Brookside</text>
  </g>
</svg>
