<?xml version="1.0" ?>
<svg xmlns="http://www.w3.org/2000/svg" width="1000" height="1000" padding="200">
  <text fill="gray" stroke="none" font-size="48" font-family="trebuchet ms" x="500.0" y="112.0" text-anchor="middle" dominant-baseline="hanging">1885</text>
  <text fill="gray" stroke="none" font-size="12" font-family="trebuchet ms" x="500.0" y="888.0" text-anchor="middle" dominant-baseline="text-top">History of Sri Lankan Railways</text>
  <g>
    <path fill="none" stroke-width="8.4" stroke-opacity="1" d="M 200.0,537.0 L 275.0,537.0 L 350.0,537.0 L 425.0,537.0 L 500.0,537.0 L 575.0,537.0 L 650.0,537.0 L 725.0,537.0 L 800.0,537.0" stroke="red"/>
    <rect stroke="none" fill-opacity="1" x="796" y="529" width="8" height="16" fill="red"/>
  </g>
  <g>
    <path fill="none" stroke-width="8.4" stroke-opacity="1" d="M 650.0,537.0 L 650.0,465.75 C 650.0,464.5 652.5,462.0 653.75,462.0 L 725.0,462.0" stroke="purple"/>
    <rect stroke="none" fill-opacity="1" x="721" y="454" width="8" height="16" fill="purple"/>
  </g>
  <g>
    <text fill="black" stroke="none" font-size="15.600000000000001" font-family="trebuchet ms" font-weight="100" text-anchor="end" dominant-baseline="central" x="186.2" y="537" transform="translate(200,537) rotate(0) translate(-200,-537)">COLOMBO Fort</text>
  </g>
  <g>
    <circle r="8" fill="white" stroke="black" stroke-width="2.0" cx="650" cy="537"/>
    <text fill="black" stroke="none" font-size="15.600000000000001" font-family="trebuchet ms" font-weight="100" text-anchor="start" dominant-baseline="central" x="663.8" y="537" transform="translate(650,537) rotate(-315) translate(-650,-537)">Peradeniya</text>
  </g>
  <g>
    <text fill="black" stroke="none" font-size="15.600000000000001" font-family="trebuchet ms" font-weight="100" text-anchor="start" dominant-baseline="central" x="813.8" y="537" transform="translate(800,537) rotate(0) translate(-800,-537)">Nanu Oya</text>
  </g>
  <g>
    <text fill="black" stroke="none" font-size="15.600000000000001" font-family="trebuchet ms" font-weight="100" text-anchor="start" dominant-baseline="central" x="738.8" y="462" transform="translate(725,462) rotate(0) translate(-725,-462)">MATALE</text>
  </g>
  <g>
    <text fill="black" stroke="none" font-size="13.200000000000001" font-family="trebuchet ms" font-weight="100" text-anchor="start" dominant-baseline="central" x="437.6" y="537" transform="translate(425,537) rotate(-45) translate(-425,-537)">GAMPAHA</text>
  </g>
  <g>
    <text fill="black" stroke="none" font-size="13.200000000000001" font-family="trebuchet ms" font-weight="100" text-anchor="start" dominant-baseline="central" x="662.6" y="462" transform="translate(650,462) rotate(-45) translate(-650,-462)">KANDY</text>
  </g>
  <g>
    <text fill="black" stroke="none" font-size="12" font-family="trebuchet ms" font-weight="100" text-anchor="start" dominant-baseline="central" x="287.0" y="537" transform="translate(275,537) rotate(-45) translate(-275,-537)">Maradana</text>
  </g>
  <g>
    <text fill="black" stroke="none" font-size="12" font-family="trebuchet ms" font-weight="100" text-anchor="start" dominant-baseline="central" x="362.0" y="537" transform="translate(350,537) rotate(-45) translate(-350,-537)">Ragama</text>
  </g>
  <g>
    <text fill="black" stroke="none" font-size="12" font-family="trebuchet ms" font-weight="100" text-anchor="start" dominant-baseline="central" x="512.0" y="537" transform="translate(500,537) rotate(-45) translate(-500,-537)">Ambepussa</text>
  </g>
  <g>
    <text fill="black" stroke="none" font-size="12" font-family="trebuchet ms" font-weight="100" text-anchor="start" dominant-baseline="central" x="587.0" y="537" transform="translate(575,537) rotate(-315) translate(-575,-537)">Polgahawela</text>
  </g>
  <g>
    <text fill="black" stroke="none" font-size="12" font-family="trebuchet ms" font-weight="100" text-anchor="start" dominant-baseline="central" x="737.0" y="537" transform="translate(725,537) rotate(-315) translate(-725,-537)">Nawalapitiya</text>
  </g>
</svg>
