<?xml version="1.0" ?>
<svg xmlns="http://www.w3.org/2000/svg" width="1024" height="1024" padding="128">
  <text fill="gray" stroke="none" font-size="60" font-family="GIL_____" x="512.0" y="79.0" text-anchor="middle" dominant-baseline="hanging">1885 (235km)</text>
  <text fill="gray" stroke="none" font-size="15" font-family="GIL_____" x="512.0" y="975.0" text-anchor="middle" dominant-baseline="text-top">History of Sri Lankan Railways</text>
  <g>
    <path fill="none" stroke-width="8.4" stroke-opacity="1" d="M 128.0,752.0 L 224.0,656.0 L 320.0,560.0 L 416.0,464.0 L 508.6058874503046,371.3941125496954 C 509.73725830020305,370.26274169979695 515.2,368.0 516.8,368.0 L 608.0,368.0 L 699.2,368.0 C 700.8,368.0 706.262741699797,370.26274169979695 707.3941125496955,371.3941125496954 L 796.6058874503045,460.6058874503046 C 797.737258300203,461.73725830020305 803.2,464.0 804.8,464.0 L 896.0,464.0" stroke="red"/>
    <rect stroke="none" fill-opacity="1" x="892" y="456" width="8" height="16" fill="red"/>
  </g>
  <g>
    <path fill="none" stroke-width="8.4" stroke-opacity="1" d="M 704.0,368.0 L 796.6058874503045,275.3941125496954 C 797.737258300203,274.26274169979695 803.2,272.0 804.8,272.0 L 896.0,272.0" stroke="purple"/>
    <rect stroke="none" fill-opacity="1" x="892" y="264" width="8" height="16" fill="purple"/>
  </g>
  <g>
    <text fill="black" stroke="none" font-size="21.0" font-family="GIL_____" font-weight="100" text-anchor="start" dominant-baseline="central" x="144.5" y="752" transform="translate(128,752) rotate(0) translate(-128,-752)">COLOMBO Fort</text>
  </g>
  <g>
    <text fill="black" stroke="none" font-size="21.0" font-family="GIL_____" font-weight="100" text-anchor="start" dominant-baseline="central" x="912.5" y="464" transform="translate(896,464) rotate(0) translate(-896,-464)">Nanu Oya</text>
  </g>
  <g>
    <text fill="black" stroke="none" font-size="21.0" font-family="GIL_____" font-weight="100" text-anchor="start" dominant-baseline="central" x="912.5" y="272" transform="translate(896,272) rotate(0) translate(-896,-272)">MATALE</text>
  </g>
  <g>
    <circle r="8" fill="white" stroke="black" stroke-width="2.0" cx="704" cy="368"/>
    <text fill="black" stroke="none" font-size="18.0" font-family="GIL_____" font-weight="100" text-anchor="start" dominant-baseline="central" x="719.0" y="368" transform="translate(704,368) rotate(0) translate(-704,-368)">Peradeniya</text>
  </g>
  <g>
    <text fill="black" stroke="none" font-size="15.0" font-family="GIL_____" font-weight="100" text-anchor="start" dominant-baseline="central" x="429.5" y="464" transform="translate(416,464) rotate(0) translate(-416,-464)">GAMPAHA</text>
  </g>
  <g>
    <text fill="black" stroke="none" font-size="15.0" font-family="GIL_____" font-weight="100" text-anchor="end" dominant-baseline="central" x="786.5" y="272" transform="translate(800,272) rotate(0) translate(-800,-272)">KANDY</text>
  </g>
  <g>
    <text fill="black" stroke="none" font-size="12.0" font-family="GIL_____" font-weight="100" text-anchor="start" dominant-baseline="central" x="236.0" y="656" transform="translate(224,656) rotate(0) translate(-224,-656)">Maradana</text>
  </g>
  <g>
    <text fill="black" stroke="none" font-size="12.0" font-family="GIL_____" font-weight="100" text-anchor="start" dominant-baseline="central" x="332.0" y="560" transform="translate(320,560) rotate(0) translate(-320,-560)">Ragama</text>
  </g>
  <g>
    <text fill="black" stroke="none" font-size="12.0" font-family="GIL_____" font-weight="100" text-anchor="end" dominant-baseline="central" x="500.0" y="368" transform="translate(512,368) rotate(0) translate(-512,-368)">Ambepussa</text>
  </g>
  <g>
    <text fill="black" stroke="none" font-size="12.0" font-family="GIL_____" font-weight="100" text-anchor="start" dominant-baseline="central" x="620.0" y="368" transform="translate(608,368) rotate(-315) translate(-608,-368)">Polgahawela</text>
  </g>
  <g>
    <text fill="black" stroke="none" font-size="12.0" font-family="GIL_____" font-weight="100" text-anchor="start" dominant-baseline="central" x="812.0" y="464" transform="translate(800,464) rotate(-315) translate(-800,-464)">Nawalapitiya</text>
  </g>
</svg>
