<?xml version="1.0" ?>
<svg xmlns="http://www.w3.org/2000/svg" width="1000" height="1000" padding="200">
  <text fill="gray" stroke="none" font-size="48" font-family="trebuchet ms" x="500.0" y="112.0" text-anchor="middle" dominant-baseline="hanging">1894</text>
  <text fill="gray" stroke="none" font-size="12" font-family="trebuchet ms" x="500.0" y="888.0" text-anchor="middle" dominant-baseline="text-top">History of Sri Lankan Railways</text>
  <g>
    <path fill="none" stroke-width="8.4" stroke-opacity="1" d="M 200.0,533.0 L 266.0,533.0 L 333.0,533.0 L 400.0,533.0 L 466.0,533.0 L 533.0,533.0 L 600.0,533.0 L 666.0,533.0 L 733.0,533.0 L 800.0,533.0" stroke="red"/>
    <rect stroke="none" fill-opacity="1" x="796" y="525" width="8" height="16" fill="red"/>
  </g>
  <g>
    <path fill="none" stroke-width="8.4" stroke-opacity="1" d="M 600.0,533.0 L 600.0,469.3 C 600.0,468.2 602.2,466.0 603.3,466.0 L 666.0,466.0" stroke="purple"/>
    <rect stroke="none" fill-opacity="1" x="662" y="458" width="8" height="16" fill="purple"/>
  </g>
  <g>
    <text fill="black" stroke="none" font-size="15.600000000000001" font-family="trebuchet ms" font-weight="100" text-anchor="end" dominant-baseline="central" x="186.2" y="533" transform="translate(200,533) rotate(0) translate(-200,-533)">COLOMBO Fort</text>
  </g>
  <g>
    <circle r="8" fill="white" stroke="black" stroke-width="2.0" cx="600" cy="533"/>
    <text fill="black" stroke="none" font-size="15.600000000000001" font-family="trebuchet ms" font-weight="100" text-anchor="start" dominant-baseline="central" x="613.8" y="533" transform="translate(600,533) rotate(-315) translate(-600,-533)">Peradeniya</text>
  </g>
  <g>
    <text fill="black" stroke="none" font-size="15.600000000000001" font-family="trebuchet ms" font-weight="100" text-anchor="start" dominant-baseline="central" x="813.8" y="533" transform="translate(800,533) rotate(0) translate(-800,-533)">Bandarawela</text>
  </g>
  <g>
    <text fill="black" stroke="none" font-size="15.600000000000001" font-family="trebuchet ms" font-weight="100" text-anchor="start" dominant-baseline="central" x="679.8" y="466" transform="translate(666,466) rotate(0) translate(-666,-466)">MATALE</text>
  </g>
  <g>
    <text fill="black" stroke="none" font-size="13.200000000000001" font-family="trebuchet ms" font-weight="100" text-anchor="start" dominant-baseline="central" x="412.6" y="533" transform="translate(400,533) rotate(-45) translate(-400,-533)">GAMPAHA</text>
  </g>
  <g>
    <text fill="black" stroke="none" font-size="13.200000000000001" font-family="trebuchet ms" font-weight="100" text-anchor="start" dominant-baseline="central" x="612.6" y="466" transform="translate(600,466) rotate(-45) translate(-600,-466)">KANDY</text>
  </g>
  <g>
    <text fill="black" stroke="none" font-size="12" font-family="trebuchet ms" font-weight="100" text-anchor="start" dominant-baseline="central" x="278.0" y="533" transform="translate(266,533) rotate(-45) translate(-266,-533)">Maradana</text>
  </g>
  <g>
    <text fill="black" stroke="none" font-size="12" font-family="trebuchet ms" font-weight="100" text-anchor="start" dominant-baseline="central" x="345.0" y="533" transform="translate(333,533) rotate(-45) translate(-333,-533)">Ragama</text>
  </g>
  <g>
    <text fill="black" stroke="none" font-size="12" font-family="trebuchet ms" font-weight="100" text-anchor="start" dominant-baseline="central" x="478.0" y="533" transform="translate(466,533) rotate(-45) translate(-466,-533)">Ambepussa</text>
  </g>
  <g>
    <text fill="black" stroke="none" font-size="12" font-family="trebuchet ms" font-weight="100" text-anchor="start" dominant-baseline="central" x="545.0" y="533" transform="translate(533,533) rotate(-315) translate(-533,-533)">Polgahawela</text>
  </g>
  <g>
    <text fill="black" stroke="none" font-size="12" font-family="trebuchet ms" font-weight="100" text-anchor="start" dominant-baseline="central" x="678.0" y="533" transform="translate(666,533) rotate(-315) translate(-666,-533)">Nawalapitiya</text>
  </g>
  <g>
    <text fill="black" stroke="none" font-size="12" font-family="trebuchet ms" font-weight="100" text-anchor="start" dominant-baseline="central" x="745.0" y="533" transform="translate(733,533) rotate(-315) translate(-733,-533)">Nanu Oya</text>
  </g>
</svg>
