<?xml version="1.0" ?>
<svg xmlns="http://www.w3.org/2000/svg" width="1024" height="1024" padding="128">
  <text fill="gray" stroke="none" font-size="60" font-family="GIL_____" x="512.0" y="79.0" text-anchor="middle" dominant-baseline="hanging">1894 (286km)</text>
  <text fill="gray" stroke="none" font-size="15" font-family="GIL_____" x="512.0" y="975.0" text-anchor="middle" dominant-baseline="text-top">History of Sri Lankan Railways</text>
  <g>
    <path fill="none" stroke-width="8.4" stroke-opacity="1" d="M 128.0,725.0 L 208.75,644.25 C 210.16666666666666,642.8333333333334 215.8167159691548,637.150146195914 217.22507395373225,635.725219293871 L 293.96125369768663,558.0862609646936 C 295.3075024651244,556.7241739764623 300.72417397646234,551.3075024651245 302.08626096469357,549.9612536976866 L 379.90431304823466,473.0480626848843 C 381.26954203215644,471.69870845658954 386.7146296292338,466.2853703707662 388.0719444438507,464.9280555561493 L 465.9947961799572,387.0052038200428 C 466.9965307866381,386.0034692133619 471.8333333333333,384.0 473.25,384.0 L 554.0,384.0 L 635.7,384.0 C 637.1333333333333,384.0 642.0270394394014,386.02703943940145 643.0405591591021,387.04055915910214 L 721.9947961799571,465.9947961799572 C 722.9965307866381,466.9965307866381 727.8333333333334,469.0 729.25,469.0 L 810.0,469.0 L 896.0,469.0" stroke="red"/>
    <rect stroke="none" fill-opacity="1" x="892" y="461" width="8" height="16" fill="red"/>
  </g>
  <g>
    <path fill="none" stroke-width="8.4" stroke-opacity="1" d="M 640.0,384.0 L 722.0124215563013,301.0227264253893 C 723.0082810375342,300.0151509502595 727.8333333333334,298.0 729.25,298.0 L 810.0,298.0" stroke="purple"/>
    <rect stroke="none" fill-opacity="1" x="806" y="290" width="8" height="16" fill="purple"/>
  </g>
  <g>
    <text fill="black" stroke="none" font-size="21.0" font-family="GIL_____" font-weight="100" text-anchor="start" dominant-baseline="central" x="144.5" y="725" transform="translate(128,725) rotate(0) translate(-128,-725)">COLOMBO Fort</text>
  </g>
  <g>
    <text fill="black" stroke="none" font-size="21.0" font-family="GIL_____" font-weight="100" text-anchor="start" dominant-baseline="central" x="912.5" y="469" transform="translate(896,469) rotate(0) translate(-896,-469)">Bandarawela</text>
  </g>
  <g>
    <text fill="black" stroke="none" font-size="21.0" font-family="GIL_____" font-weight="100" text-anchor="start" dominant-baseline="central" x="826.5" y="298" transform="translate(810,298) rotate(0) translate(-810,-298)">MATALE</text>
  </g>
  <g>
    <circle r="8" fill="white" stroke="black" stroke-width="2.0" cx="640" cy="384"/>
    <text fill="black" stroke="none" font-size="18.0" font-family="GIL_____" font-weight="100" text-anchor="start" dominant-baseline="central" x="655.0" y="384" transform="translate(640,384) rotate(0) translate(-640,-384)">Peradeniya</text>
  </g>
  <g>
    <text fill="black" stroke="none" font-size="15.0" font-family="GIL_____" font-weight="100" text-anchor="start" dominant-baseline="central" x="397.5" y="469" transform="translate(384,469) rotate(0) translate(-384,-469)">GAMPAHA</text>
  </g>
  <g>
    <text fill="black" stroke="none" font-size="15.0" font-family="GIL_____" font-weight="100" text-anchor="end" dominant-baseline="central" x="711.5" y="298" transform="translate(725,298) rotate(0) translate(-725,-298)">KANDY</text>
  </g>
  <g>
    <text fill="black" stroke="none" font-size="12.0" font-family="GIL_____" font-weight="100" text-anchor="start" dominant-baseline="central" x="225.0" y="640" transform="translate(213,640) rotate(0) translate(-213,-640)">Maradana</text>
  </g>
  <g>
    <text fill="black" stroke="none" font-size="12.0" font-family="GIL_____" font-weight="100" text-anchor="start" dominant-baseline="central" x="310.0" y="554" transform="translate(298,554) rotate(0) translate(-298,-554)">Ragama</text>
  </g>
  <g>
    <text fill="black" stroke="none" font-size="12.0" font-family="GIL_____" font-weight="100" text-anchor="end" dominant-baseline="central" x="457.0" y="384" transform="translate(469,384) rotate(0) translate(-469,-384)">Ambepussa</text>
  </g>
  <g>
    <text fill="black" stroke="none" font-size="12.0" font-family="GIL_____" font-weight="100" text-anchor="start" dominant-baseline="central" x="566.0" y="384" transform="translate(554,384) rotate(-315) translate(-554,-384)">Polgahawela</text>
  </g>
  <g>
    <text fill="black" stroke="none" font-size="12.0" font-family="GIL_____" font-weight="100" text-anchor="start" dominant-baseline="central" x="737.0" y="469" transform="translate(725,469) rotate(-315) translate(-725,-469)">Nawalapitiya</text>
  </g>
  <g>
    <text fill="black" stroke="none" font-size="12.0" font-family="GIL_____" font-weight="100" text-anchor="start" dominant-baseline="central" x="822.0" y="469" transform="translate(810,469) rotate(-315) translate(-810,-469)">Nanu Oya</text>
  </g>
</svg>
