<?xml version="1.0" ?>
<svg xmlns="http://www.w3.org/2000/svg" width="1024" height="1024" padding="128">
  <text fill="gray" stroke="none" font-size="60" font-family="GIL_____" x="512.0" y="79.0" text-anchor="middle" dominant-baseline="hanging">1902 (521km)</text>
  <text fill="gray" stroke="none" font-size="15" font-family="GIL_____" x="512.0" y="975.0" text-anchor="middle" dominant-baseline="text-top">History of Sri Lankan Railways</text>
  <g>
    <path fill="none" stroke-width="8.4" stroke-opacity="1" d="M 128.0,640.0 L 208.77492604626775,558.274780706129 C 210.1832840308452,556.849853804086 215.83333333333334,551.1666666666666 217.25,549.75 L 293.9625,473.0375 C 295.30833333333334,471.69166666666666 300.70736111388175,466.3241198293029 302.06104167082265,464.9861797439544 L 379.9030520835411,388.0493089871977 C 381.2687013890274,386.6995393247985 386.6995393247985,381.2687013890274 388.0493089871977,379.9030520835411 L 466.01242155630126,301.0227264253893 C 467.0082810375342,300.0151509502595 471.8333333333333,298.0 473.25,298.0 L 554.0,298.0 L 635.7,298.0 C 637.1333333333333,298.0 642.0151509502596,300.0388586084979 643.0227264253892,301.05828791274683 L 722.0124215563013,380.9772735746107 C 723.0082810375342,381.9848490497405 727.8333333333334,384.0 729.25,384.0 L 810.0,384.0 L 896.0,384.0" stroke="red"/>
    <rect stroke="none" fill-opacity="1" x="892" y="376" width="8" height="16" fill="red"/>
  </g>
  <g>
    <path fill="none" stroke-width="8.4" stroke-opacity="1" d="M 128.0,640.0 L 128.0,720.75 C 128.0,722.1666666666666 130.00346921336188,727.0034692133619 131.00520382004282,728.0052038200429 L 209.99479617995718,806.9947961799571 C 210.99653078663812,807.9965307866381 215.83333333333334,810.0 217.25,810.0 L 298.0,810.0" stroke="cyan"/>
    <rect stroke="none" fill-opacity="1" x="294" y="802" width="8" height="16" fill="cyan"/>
  </g>
  <g>
    <path fill="none" stroke-width="8.4" stroke-opacity="1" d="M 213.0,554.0 L 294.9772735746107,636.9417120872532 C 295.9848490497405,637.9611413915021 300.8666666666667,640.0 302.3,640.0 L 379.915,640.0 C 381.27666666666664,640.0 385.91439340274655,638.063084321927 386.87159010411983,637.0946264828905 L 469.0,554.0" stroke="darkblue"/>
    <rect stroke="none" fill-opacity="1" x="465" y="546" width="8" height="16" fill="darkblue"/>
  </g>
  <g>
    <path fill="none" stroke-width="8.4" stroke-opacity="1" d="M 640.0,298.0 L 721.9947961799571,216.00520382004282 C 722.9965307866381,215.00346921336188 727.8333333333334,213.0 729.25,213.0 L 810.0,213.0" stroke="purple"/>
    <rect stroke="none" fill-opacity="1" x="806" y="205" width="8" height="16" fill="purple"/>
  </g>
  <g>
    <text fill="black" stroke="none" font-size="21.0" font-family="GIL_____" font-weight="100" text-anchor="start" dominant-baseline="central" x="912.5" y="384" transform="translate(896,384) rotate(0) translate(-896,-384)">Bandarawela</text>
  </g>
  <g>
    <text fill="black" stroke="none" font-size="21.0" font-family="GIL_____" font-weight="100" text-anchor="start" dominant-baseline="central" x="314.5" y="810" transform="translate(298,810) rotate(0) translate(-298,-810)">MATARA</text>
  </g>
  <g>
    <text fill="black" stroke="none" font-size="21.0" font-family="GIL_____" font-weight="100" text-anchor="start" dominant-baseline="central" x="485.5" y="554" transform="translate(469,554) rotate(0) translate(-469,-554)">Yatiyantota</text>
  </g>
  <g>
    <text fill="black" stroke="none" font-size="21.0" font-family="GIL_____" font-weight="100" text-anchor="start" dominant-baseline="central" x="826.5" y="213" transform="translate(810,213) rotate(0) translate(-810,-213)">MATALE</text>
  </g>
  <g>
    <circle r="8" fill="white" stroke="black" stroke-width="2.0" cx="128" cy="640"/>
    <text fill="black" stroke="none" font-size="18.0" font-family="GIL_____" font-weight="100" text-anchor="end" dominant-baseline="central" x="113.0" y="640" transform="translate(128,640) rotate(0) translate(-128,-640)">COLOMBO Fort</text>
  </g>
  <g>
    <circle r="8" fill="white" stroke="black" stroke-width="2.0" cx="213" cy="554"/>
    <text fill="black" stroke="none" font-size="18.0" font-family="GIL_____" font-weight="100" text-anchor="start" dominant-baseline="central" x="228.0" y="554" transform="translate(213,554) rotate(0) translate(-213,-554)">Maradana</text>
  </g>
  <g>
    <circle r="8" fill="white" stroke="black" stroke-width="2.0" cx="640" cy="298"/>
    <text fill="black" stroke="none" font-size="18.0" font-family="GIL_____" font-weight="100" text-anchor="start" dominant-baseline="central" x="655.0" y="298" transform="translate(640,298) rotate(0) translate(-640,-298)">Peradeniya</text>
  </g>
  <g>
    <text fill="black" stroke="none" font-size="15.0" font-family="GIL_____" font-weight="100" text-anchor="start" dominant-baseline="central" x="397.5" y="384" transform="translate(384,384) rotate(0) translate(-384,-384)">GAMPAHA</text>
  </g>
  <g>
    <text fill="black" stroke="none" font-size="15.0" font-family="GIL_____" font-weight="100" text-anchor="end" dominant-baseline="central" x="199.5" y="810" transform="translate(213,810) rotate(0) translate(-213,-810)">GALLE</text>
  </g>
  <g>
    <text fill="black" stroke="none" font-size="15.0" font-family="GIL_____" font-weight="100" text-anchor="end" dominant-baseline="central" x="711.5" y="213" transform="translate(725,213) rotate(0) translate(-725,-213)">KANDY</text>
  </g>
  <g>
    <text fill="black" stroke="none" font-size="12.0" font-family="GIL_____" font-weight="100" text-anchor="start" dominant-baseline="central" x="310.0" y="469" transform="translate(298,469) rotate(0) translate(-298,-469)">Ragama</text>
  </g>
  <g>
    <text fill="black" stroke="none" font-size="12.0" font-family="GIL_____" font-weight="100" text-anchor="end" dominant-baseline="central" x="457.0" y="298" transform="translate(469,298) rotate(0) translate(-469,-298)">Ambepussa</text>
  </g>
  <g>
    <text fill="black" stroke="none" font-size="12.0" font-family="GIL_____" font-weight="100" text-anchor="start" dominant-baseline="central" x="566.0" y="298" transform="translate(554,298) rotate(-315) translate(-554,-298)">Polgahawela</text>
  </g>
  <g>
    <text fill="black" stroke="none" font-size="12.0" font-family="GIL_____" font-weight="100" text-anchor="start" dominant-baseline="central" x="737.0" y="384" transform="translate(725,384) rotate(-315) translate(-725,-384)">Nawalapitiya</text>
  </g>
  <g>
    <text fill="black" stroke="none" font-size="12.0" font-family="GIL_____" font-weight="100" text-anchor="start" dominant-baseline="central" x="822.0" y="384" transform="translate(810,384) rotate(-315) translate(-810,-384)">Nanu Oya</text>
  </g>
  <g>
    <text fill="black" stroke="none" font-size="12.0" font-family="GIL_____" font-weight="100" text-anchor="start" dominant-baseline="central" x="140.0" y="725" transform="translate(128,725) rotate(0) translate(-128,-725)">KALUTARA North</text>
  </g>
  <g>
    <text fill="black" stroke="none" font-size="12.0" font-family="GIL_____" font-weight="100" text-anchor="start" dominant-baseline="central" x="310.0" y="640" transform="translate(298,640) rotate(-337.5) translate(-298,-640)">Homagama</text>
  </g>
  <g>
    <text fill="black" stroke="none" font-size="12.0" font-family="GIL_____" font-weight="100" text-anchor="start" dominant-baseline="central" x="396.0" y="640" transform="translate(384,640) rotate(0) translate(-384,-640)">Avissawella</text>
  </g>
</svg>
