<?xml version="1.0" ?>
<svg xmlns="http://www.w3.org/2000/svg" width="1000" height="1000" padding="200">
  <text fill="gray" stroke="none" font-size="48" font-family="trebuchet ms" x="500.0" y="112.0" text-anchor="middle" dominant-baseline="hanging">1905</text>
  <text fill="gray" stroke="none" font-size="12" font-family="trebuchet ms" x="500.0" y="888.0" text-anchor="middle" dominant-baseline="text-top">History of Sri Lankan Railways</text>
  <g>
    <path fill="none" stroke-width="8.4" stroke-opacity="1" d="M 275.0,650.0 L 325.0,650.0 L 375.0,650.0 L 425.0,650.0 L 475.0,650.0 L 525.0,650.0 L 575.0,650.0 L 625.0,650.0 L 675.0,650.0 L 725.0,650.0" stroke="red"/>
    <rect stroke="none" fill-opacity="1" x="721" y="642" width="8" height="16" fill="red"/>
  </g>
  <g>
    <path fill="none" stroke-width="8.4" stroke-opacity="1" d="M 275.0,650.0 L 275.0,700.0 L 275.0,750.0 L 275.0,800.0" stroke="cyan"/>
    <rect stroke="none" fill-opacity="1" x="267" y="796" width="16" height="8" fill="cyan"/>
  </g>
  <g>
    <path fill="none" stroke-width="8.4" stroke-opacity="1" d="M 525.0,650.0 L 525.0,600.0 L 525.0,550.0 L 525.0,500.0 L 525.0,450.0 L 525.0,400.0 L 525.0,350.0 L 525.0,300.0 L 525.0,250.0 L 525.0,200.0" stroke="orange"/>
    <rect stroke="none" fill-opacity="1" x="517" y="196" width="16" height="8" fill="orange"/>
  </g>
  <g>
    <path fill="none" stroke-width="8.4" stroke-opacity="1" d="M 325.0,650.0 L 325.0,700.0 L 325.0,747.5 C 325.0,748.3333333333334 326.6666666666667,750.0 327.5,750.0 L 375.0,750.0" stroke="darkblue"/>
    <rect stroke="none" fill-opacity="1" x="371" y="742" width="8" height="16" fill="darkblue"/>
  </g>
  <g>
    <path fill="none" stroke-width="8.4" stroke-opacity="1" d="M 575.0,650.0 L 575.0,602.5 C 575.0,601.6666666666666 576.6666666666666,600.0 577.5,600.0 L 625.0,600.0" stroke="purple"/>
    <rect stroke="none" fill-opacity="1" x="621" y="592" width="8" height="16" fill="purple"/>
  </g>
  <g>
    <circle r="8" fill="white" stroke="black" stroke-width="2.0" cx="275" cy="650"/>
    <text fill="black" stroke="none" font-size="15.600000000000001" font-family="trebuchet ms" font-weight="100" text-anchor="end" dominant-baseline="central" x="261.2" y="650" transform="translate(275,650) rotate(0) translate(-275,-650)">COLOMBO Fort</text>
  </g>
  <g>
    <circle r="8" fill="white" stroke="black" stroke-width="2.0" cx="325" cy="650"/>
    <text fill="black" stroke="none" font-size="15.600000000000001" font-family="trebuchet ms" font-weight="100" text-anchor="start" dominant-baseline="central" x="338.8" y="650" transform="translate(325,650) rotate(-45) translate(-325,-650)">Maradana</text>
  </g>
  <g>
    <circle r="8" fill="white" stroke="black" stroke-width="2.0" cx="525" cy="650"/>
    <text fill="black" stroke="none" font-size="15.600000000000001" font-family="trebuchet ms" font-weight="100" text-anchor="start" dominant-baseline="central" x="538.8" y="650" transform="translate(525,650) rotate(-315) translate(-525,-650)">Polgahawela</text>
  </g>
  <g>
    <circle r="8" fill="white" stroke="black" stroke-width="2.0" cx="575" cy="650"/>
    <text fill="black" stroke="none" font-size="15.600000000000001" font-family="trebuchet ms" font-weight="100" text-anchor="start" dominant-baseline="central" x="588.8" y="650" transform="translate(575,650) rotate(-315) translate(-575,-650)">Peradeniya</text>
  </g>
  <g>
    <text fill="black" stroke="none" font-size="15.600000000000001" font-family="trebuchet ms" font-weight="100" text-anchor="start" dominant-baseline="central" x="738.8" y="650" transform="translate(725,650) rotate(0) translate(-725,-650)">Bandarawela</text>
  </g>
  <g>
    <text fill="black" stroke="none" font-size="15.600000000000001" font-family="trebuchet ms" font-weight="100" text-anchor="start" dominant-baseline="central" x="288.8" y="800" transform="translate(275,800) rotate(0) translate(-275,-800)">MATARA</text>
  </g>
  <g>
    <text fill="black" stroke="none" font-size="15.600000000000001" font-family="trebuchet ms" font-weight="100" text-anchor="start" dominant-baseline="central" x="538.8" y="200" transform="translate(525,200) rotate(0) translate(-525,-200)">Kankesanthurai</text>
  </g>
  <g>
    <text fill="black" stroke="none" font-size="15.600000000000001" font-family="trebuchet ms" font-weight="100" text-anchor="start" dominant-baseline="central" x="388.8" y="750" transform="translate(375,750) rotate(0) translate(-375,-750)">Yatiyantota</text>
  </g>
  <g>
    <text fill="black" stroke="none" font-size="15.600000000000001" font-family="trebuchet ms" font-weight="100" text-anchor="start" dominant-baseline="central" x="638.8" y="600" transform="translate(625,600) rotate(0) translate(-625,-600)">MATALE</text>
  </g>
  <g>
    <text fill="black" stroke="none" font-size="13.200000000000001" font-family="trebuchet ms" font-weight="100" text-anchor="start" dominant-baseline="central" x="437.6" y="650" transform="translate(425,650) rotate(-315) translate(-425,-650)">GAMPAHA</text>
  </g>
  <g>
    <text fill="black" stroke="none" font-size="13.200000000000001" font-family="trebuchet ms" font-weight="100" text-anchor="end" dominant-baseline="central" x="262.4" y="750" transform="translate(275,750) rotate(0) translate(-275,-750)">GALLE</text>
  </g>
  <g>
    <text fill="black" stroke="none" font-size="13.200000000000001" font-family="trebuchet ms" font-weight="100" text-anchor="end" dominant-baseline="central" x="512.4" y="600" transform="translate(525,600) rotate(0) translate(-525,-600)">KURUNEGALA</text>
  </g>
  <g>
    <text fill="black" stroke="none" font-size="13.200000000000001" font-family="trebuchet ms" font-weight="100" text-anchor="start" dominant-baseline="central" x="537.6" y="500" transform="translate(525,500) rotate(0) translate(-525,-500)">ANURADHAPURA</text>
  </g>
  <g>
    <text fill="black" stroke="none" font-size="13.200000000000001" font-family="trebuchet ms" font-weight="100" text-anchor="start" dominant-baseline="central" x="537.6" y="350" transform="translate(525,350) rotate(0) translate(-525,-350)">VAVUNIYA</text>
  </g>
  <g>
    <text fill="black" stroke="none" font-size="13.200000000000001" font-family="trebuchet ms" font-weight="100" text-anchor="start" dominant-baseline="central" x="537.6" y="300" transform="translate(525,300) rotate(0) translate(-525,-300)">KILINOCHCHI</text>
  </g>
  <g>
    <text fill="black" stroke="none" font-size="13.200000000000001" font-family="trebuchet ms" font-weight="100" text-anchor="start" dominant-baseline="central" x="537.6" y="250" transform="translate(525,250) rotate(0) translate(-525,-250)">JAFFNA</text>
  </g>
  <g>
    <text fill="black" stroke="none" font-size="13.200000000000001" font-family="trebuchet ms" font-weight="100" text-anchor="start" dominant-baseline="central" x="587.6" y="600" transform="translate(575,600) rotate(-45) translate(-575,-600)">KANDY</text>
  </g>
  <g>
    <text fill="black" stroke="none" font-size="12" font-family="trebuchet ms" font-weight="100" text-anchor="end" dominant-baseline="central" x="363.0" y="650" transform="translate(375,650) rotate(45) translate(-375,-650)">Ragama</text>
  </g>
  <g>
    <text fill="black" stroke="none" font-size="12" font-family="trebuchet ms" font-weight="100" text-anchor="start" dominant-baseline="central" x="487.0" y="650" transform="translate(475,650) rotate(-315) translate(-475,-650)">Ambepussa</text>
  </g>
  <g>
    <text fill="black" stroke="none" font-size="12" font-family="trebuchet ms" font-weight="100" text-anchor="start" dominant-baseline="central" x="637.0" y="650" transform="translate(625,650) rotate(-315) translate(-625,-650)">Nawalapitiya</text>
  </g>
  <g>
    <text fill="black" stroke="none" font-size="12" font-family="trebuchet ms" font-weight="100" text-anchor="start" dominant-baseline="central" x="687.0" y="650" transform="translate(675,650) rotate(-315) translate(-675,-650)">Nanu Oya</text>
  </g>
  <g>
    <text fill="black" stroke="none" font-size="12" font-family="trebuchet ms" font-weight="100" text-anchor="end" dominant-baseline="central" x="263.0" y="700" transform="translate(275,700) rotate(0) translate(-275,-700)">KALUTARA North</text>
  </g>
  <g>
    <text fill="black" stroke="none" font-size="12" font-family="trebuchet ms" font-weight="100" text-anchor="end" dominant-baseline="central" x="513.0" y="550" transform="translate(525,550) rotate(45) translate(-525,-550)">Maho</text>
  </g>
  <g>
    <text fill="black" stroke="none" font-size="12" font-family="trebuchet ms" font-weight="100" text-anchor="start" dominant-baseline="central" x="537.0" y="450" transform="translate(525,450) rotate(0) translate(-525,-450)">Mihintale Junction</text>
  </g>
  <g>
    <text fill="black" stroke="none" font-size="12" font-family="trebuchet ms" font-weight="100" text-anchor="start" dominant-baseline="central" x="537.0" y="400" transform="translate(525,400) rotate(0) translate(-525,-400)">Medavachchiya</text>
  </g>
  <g>
    <text fill="black" stroke="none" font-size="12" font-family="trebuchet ms" font-weight="100" text-anchor="start" dominant-baseline="central" x="337.0" y="700" transform="translate(325,700) rotate(0) translate(-325,-700)">Homagama</text>
  </g>
  <g>
    <text fill="black" stroke="none" font-size="12" font-family="trebuchet ms" font-weight="100" text-anchor="start" dominant-baseline="central" x="337.0" y="750" transform="translate(325,750) rotate(-337.5) translate(-325,-750)">Avissawella</text>
  </g>
</svg>
