<?xml version="1.0" ?>
<svg xmlns="http://www.w3.org/2000/svg" width="1024" height="1024" padding="128">
  <text fill="gray" stroke="none" font-size="60" font-family="GIL_____" x="512.0" y="79.0" text-anchor="middle" dominant-baseline="hanging">1905 (858km)</text>
  <text fill="gray" stroke="none" font-size="15" font-family="GIL_____" x="512.0" y="975.0" text-anchor="middle" dominant-baseline="text-top">History of Sri Lankan Railways</text>
  <g>
    <path fill="none" stroke-width="8.4" stroke-opacity="1" d="M 281.0,793.0 L 329.45,744.55 C 330.3,743.7 333.7164239615649,740.3165841915421 334.57463594234736,739.4748762873132 L 381.52873179711736,693.4237438143657 C 382.3524878647449,692.6158292095771 385.63174757090906,689.368252429091 386.44762135636364,688.5523786436364 L 432.5723810678182,642.4276189321819 C 433.3815873785455,641.6184126214546 436.60262434797903,638.3659516451978 437.40393652196855,637.5489274677968 L 484.2144678994242,589.8205425339204 C 484.8096452662828,589.2136950226136 487.7,588.0 488.55,588.0 L 537.0,588.0 L 585.45,588.0 C 586.3,588.0 589.2020815280172,589.2020815280172 589.8031222920257,589.8031222920257 L 638.1968777079743,638.1968777079743 C 638.7979184719828,638.7979184719828 641.7,640.0 642.55,640.0 L 691.0,640.0 L 742.0,640.0" stroke="red"/>
    <rect stroke="none" fill-opacity="1" x="738" y="632" width="8" height="16" fill="red"/>
  </g>
  <g>
    <path fill="none" stroke-width="8.4" stroke-opacity="1" d="M 281.0,793.0 L 281.0,841.45 C 281.0,842.3 282.1903547337172,845.2136950226136 282.7855321005758,845.8205425339204 L 330.17945746607955,894.1437605536497 C 330.7863049773864,894.7625070357665 333.73333333333335,896.0 334.6,896.0 L 384.0,896.0" stroke="cyan"/>
    <rect stroke="none" fill-opacity="1" x="380" y="888" width="8" height="16" fill="cyan"/>
  </g>
  <g>
    <path fill="none" stroke-width="8.4" stroke-opacity="1" d="M 537.0,588.0 L 537.0,537.0 L 537.0,486.0 L 537.0,435.0 L 537.0,384.0 L 537.0,332.0 L 537.0,281.0 L 537.0,232.55 C 537.0,231.7 535.7979184719828,228.79791847198288 535.1968777079743,228.1968777079743 L 487.8031222920257,180.8031222920257 C 487.2020815280171,180.20208152801712 486.0,177.3 486.0,176.45 L 486.0,128.0" stroke="orange"/>
    <rect stroke="none" fill-opacity="1" x="478" y="124" width="16" height="8" fill="orange"/>
  </g>
  <g>
    <path fill="none" stroke-width="8.4" stroke-opacity="1" d="M 332.0,742.0 L 382.17945746607955,791.2144678994242 C 382.7863049773864,791.8096452662828 385.7,793.0 386.55,793.0 L 432.5775,793.0 C 433.385,793.0 436.1419774516163,791.8580225483837 436.7129661774244,791.2870338225756 L 486.0,742.0" stroke="darkblue"/>
    <rect stroke="none" fill-opacity="1" x="482" y="734" width="8" height="16" fill="darkblue"/>
  </g>
  <g>
    <path fill="none" stroke-width="8.4" stroke-opacity="1" d="M 588.0,588.0 L 638.1794574660796,538.7855321005758 C 638.7863049773864,538.1903547337172 641.7,537.0 642.55,537.0 L 691.0,537.0" stroke="purple"/>
    <rect stroke="none" fill-opacity="1" x="687" y="529" width="8" height="16" fill="purple"/>
  </g>
  <g>
    <text fill="black" stroke="none" font-size="21.0" font-family="GIL_____" font-weight="100" text-anchor="start" dominant-baseline="central" x="758.5" y="640" transform="translate(742,640) rotate(0) translate(-742,-640)">Bandarawela</text>
  </g>
  <g>
    <text fill="black" stroke="none" font-size="21.0" font-family="GIL_____" font-weight="100" text-anchor="start" dominant-baseline="central" x="400.5" y="896" transform="translate(384,896) rotate(0) translate(-384,-896)">MATARA</text>
  </g>
  <g>
    <text fill="black" stroke="none" font-size="21.0" font-family="GIL_____" font-weight="100" text-anchor="start" dominant-baseline="central" x="502.5" y="128" transform="translate(486,128) rotate(0) translate(-486,-128)">Kankesanthurai</text>
  </g>
  <g>
    <text fill="black" stroke="none" font-size="21.0" font-family="GIL_____" font-weight="100" text-anchor="start" dominant-baseline="central" x="502.5" y="742" transform="translate(486,742) rotate(0) translate(-486,-742)">Yatiyantota</text>
  </g>
  <g>
    <text fill="black" stroke="none" font-size="21.0" font-family="GIL_____" font-weight="100" text-anchor="start" dominant-baseline="central" x="707.5" y="537" transform="translate(691,537) rotate(0) translate(-691,-537)">MATALE</text>
  </g>
  <g>
    <circle r="8" fill="white" stroke="black" stroke-width="2.0" cx="281" cy="793"/>
    <text fill="black" stroke="none" font-size="18.0" font-family="GIL_____" font-weight="100" text-anchor="end" dominant-baseline="central" x="266.0" y="793" transform="translate(281,793) rotate(0) translate(-281,-793)">COLOMBO Fort</text>
  </g>
  <g>
    <circle r="8" fill="white" stroke="black" stroke-width="2.0" cx="332" cy="742"/>
    <text fill="black" stroke="none" font-size="18.0" font-family="GIL_____" font-weight="100" text-anchor="start" dominant-baseline="central" x="347.0" y="742" transform="translate(332,742) rotate(0) translate(-332,-742)">Maradana</text>
  </g>
  <g>
    <circle r="8" fill="white" stroke="black" stroke-width="2.0" cx="537" cy="588"/>
    <text fill="black" stroke="none" font-size="18.0" font-family="GIL_____" font-weight="100" text-anchor="start" dominant-baseline="central" x="552.0" y="588" transform="translate(537,588) rotate(-45) translate(-537,-588)">Polgahawela</text>
  </g>
  <g>
    <circle r="8" fill="white" stroke="black" stroke-width="2.0" cx="588" cy="588"/>
    <text fill="black" stroke="none" font-size="18.0" font-family="GIL_____" font-weight="100" text-anchor="start" dominant-baseline="central" x="603.0" y="588" transform="translate(588,588) rotate(0) translate(-588,-588)">Peradeniya</text>
  </g>
  <g>
    <text fill="black" stroke="none" font-size="15.0" font-family="GIL_____" font-weight="100" text-anchor="start" dominant-baseline="central" x="448.5" y="640" transform="translate(435,640) rotate(0) translate(-435,-640)">GAMPAHA</text>
  </g>
  <g>
    <text fill="black" stroke="none" font-size="15.0" font-family="GIL_____" font-weight="100" text-anchor="end" dominant-baseline="central" x="318.5" y="896" transform="translate(332,896) rotate(0) translate(-332,-896)">GALLE</text>
  </g>
  <g>
    <text fill="black" stroke="none" font-size="15.0" font-family="GIL_____" font-weight="100" text-anchor="end" dominant-baseline="central" x="523.5" y="537" transform="translate(537,537) rotate(0) translate(-537,-537)">KURUNEGALA</text>
  </g>
  <g>
    <text fill="black" stroke="none" font-size="15.0" font-family="GIL_____" font-weight="100" text-anchor="start" dominant-baseline="central" x="550.5" y="435" transform="translate(537,435) rotate(0) translate(-537,-435)">ANURADHAPURA</text>
  </g>
  <g>
    <text fill="black" stroke="none" font-size="15.0" font-family="GIL_____" font-weight="100" text-anchor="start" dominant-baseline="central" x="550.5" y="281" transform="translate(537,281) rotate(0) translate(-537,-281)">VAVUNIYA</text>
  </g>
  <g>
    <text fill="black" stroke="none" font-size="15.0" font-family="GIL_____" font-weight="100" text-anchor="start" dominant-baseline="central" x="550.5" y="230" transform="translate(537,230) rotate(0) translate(-537,-230)">KILINOCHCHI</text>
  </g>
  <g>
    <text fill="black" stroke="none" font-size="15.0" font-family="GIL_____" font-weight="100" text-anchor="start" dominant-baseline="central" x="499.5" y="179" transform="translate(486,179) rotate(0) translate(-486,-179)">JAFFNA</text>
  </g>
  <g>
    <text fill="black" stroke="none" font-size="15.0" font-family="GIL_____" font-weight="100" text-anchor="start" dominant-baseline="central" x="653.5" y="537" transform="translate(640,537) rotate(-45) translate(-640,-537)">KANDY</text>
  </g>
  <g>
    <text fill="black" stroke="none" font-size="12.0" font-family="GIL_____" font-weight="100" text-anchor="start" dominant-baseline="central" x="396.0" y="691" transform="translate(384,691) rotate(0) translate(-384,-691)">Ragama</text>
  </g>
  <g>
    <text fill="black" stroke="none" font-size="12.0" font-family="GIL_____" font-weight="100" text-anchor="end" dominant-baseline="central" x="474.0" y="588" transform="translate(486,588) rotate(0) translate(-486,-588)">Ambepussa</text>
  </g>
  <g>
    <text fill="black" stroke="none" font-size="12.0" font-family="GIL_____" font-weight="100" text-anchor="start" dominant-baseline="central" x="652.0" y="640" transform="translate(640,640) rotate(-315) translate(-640,-640)">Nawalapitiya</text>
  </g>
  <g>
    <text fill="black" stroke="none" font-size="12.0" font-family="GIL_____" font-weight="100" text-anchor="start" dominant-baseline="central" x="703.0" y="640" transform="translate(691,640) rotate(-315) translate(-691,-640)">Nanu Oya</text>
  </g>
  <g>
    <text fill="black" stroke="none" font-size="12.0" font-family="GIL_____" font-weight="100" text-anchor="start" dominant-baseline="central" x="293.0" y="844" transform="translate(281,844) rotate(0) translate(-281,-844)">KALUTARA North</text>
  </g>
  <g>
    <text fill="black" stroke="none" font-size="12.0" font-family="GIL_____" font-weight="100" text-anchor="end" dominant-baseline="central" x="525.0" y="486" transform="translate(537,486) rotate(0) translate(-537,-486)">Maho</text>
  </g>
  <g>
    <text fill="black" stroke="none" font-size="12.0" font-family="GIL_____" font-weight="100" text-anchor="start" dominant-baseline="central" x="549.0" y="384" transform="translate(537,384) rotate(0) translate(-537,-384)">Mihintale Junction</text>
  </g>
  <g>
    <text fill="black" stroke="none" font-size="12.0" font-family="GIL_____" font-weight="100" text-anchor="start" dominant-baseline="central" x="549.0" y="332" transform="translate(537,332) rotate(0) translate(-537,-332)">Medavachchiya</text>
  </g>
  <g>
    <text fill="black" stroke="none" font-size="12.0" font-family="GIL_____" font-weight="100" text-anchor="start" dominant-baseline="central" x="396.0" y="793" transform="translate(384,793) rotate(-337.5) translate(-384,-793)">Homagama</text>
  </g>
  <g>
    <text fill="black" stroke="none" font-size="12.0" font-family="GIL_____" font-weight="100" text-anchor="start" dominant-baseline="central" x="447.0" y="793" transform="translate(435,793) rotate(0) translate(-435,-793)">Avissawella</text>
  </g>
</svg>
