<?xml version="1.0" ?>
<svg xmlns="http://www.w3.org/2000/svg" width="1024" height="1024" padding="128">
  <text fill="gray" stroke="none" font-size="60" font-family="GIL_____" x="512.0" y="79.0" text-anchor="middle" dominant-baseline="hanging">1926 (1222km)</text>
  <text fill="gray" stroke="none" font-size="15" font-family="GIL_____" x="512.0" y="975.0" text-anchor="middle" dominant-baseline="text-top">History of Sri Lankan Railways</text>
  <g>
    <path fill="none" stroke-width="8.4" stroke-opacity="1" d="M 256.0,793.0 L 307.0,742.0 L 358.0,691.0 L 406.45,642.55 C 407.3,641.7 410.6834158084579,638.2835760384351 411.5251237126868,637.4253640576527 L 458.17945746607955,589.8562394463503 C 458.7863049773864,589.2374929642335 461.73333333333335,588.0 462.6,588.0 L 512.0,588.0 L 560.45,588.0 C 561.3,588.0 564.1903547337172,589.2136950226136 564.7855321005758,589.8205425339204 L 612.2144678994242,638.1794574660796 C 612.8096452662828,638.7863049773864 615.7,640.0 616.55,640.0 L 665.0,640.0 L 713.45,640.0 C 714.3,640.0 717.2020815280172,638.7979184719828 717.8031222920257,638.1968777079743 L 768.0,588.0" stroke="red"/>
    <rect stroke="none" fill-opacity="1" x="764" y="580" width="8" height="16" fill="red"/>
  </g>
  <g>
    <path fill="none" stroke-width="8.4" stroke-opacity="1" d="M 256.0,793.0 L 256.0,841.45 C 256.0,842.3 257.1903547337172,845.2136950226136 257.7855321005758,845.8205425339204 L 305.2144678994242,894.1794574660796 C 305.8096452662828,894.7863049773864 308.7,896.0 309.55,896.0 L 358.0,896.0" stroke="cyan"/>
    <rect stroke="none" fill-opacity="1" x="354" y="888" width="8" height="16" fill="cyan"/>
  </g>
  <g>
    <path fill="none" stroke-width="8.4" stroke-opacity="1" d="M 512.0,588.0 L 512.0,537.0 L 512.0,486.0 L 512.0,435.0 L 512.0,384.0 L 512.0,332.0 L 512.0,281.0 L 512.0,232.55 C 512.0,231.7 510.7863049773864,228.8096452662828 510.17945746607955,228.2144678994242 L 461.82054253392045,180.7855321005758 C 461.2136950226136,180.1903547337172 460.0,177.3 460.0,176.45 L 460.0,128.0" stroke="orange"/>
    <rect stroke="none" fill-opacity="1" x="452" y="124" width="16" height="8" fill="orange"/>
  </g>
  <g>
    <path fill="none" stroke-width="8.4" stroke-opacity="1" d="M 307.0,742.0 L 356.1968777079743,791.1968777079743 C 356.7979184719829,791.7979184719828 359.7,793.0 360.55,793.0 L 406.5775,793.0 C 407.385,793.0 410.1419774516163,791.8580225483837 410.7129661774244,791.2870338225756 L 460.0,742.0" stroke="darkblue"/>
    <rect stroke="none" fill-opacity="1" x="456" y="734" width="8" height="16" fill="darkblue"/>
  </g>
  <g>
    <path fill="none" stroke-width="8.4" stroke-opacity="1" d="M 409.0,793.0 L 458.161522368915,842.161522368915 C 458.7743482459433,842.7743482459433 461.73333333333335,844.0 462.6,844.0 L 512.0,844.0" stroke="lightblue"/>
    <rect stroke="none" fill-opacity="1" x="508" y="836" width="8" height="16" fill="lightblue"/>
  </g>
  <g>
    <path fill="none" stroke-width="8.4" stroke-opacity="1" d="M 563.0,588.0 L 612.1968777079743,538.8031222920257 C 612.7979184719828,538.2020815280172 615.7,537.0 616.55,537.0 L 665.0,537.0" stroke="purple"/>
    <rect stroke="none" fill-opacity="1" x="661" y="529" width="8" height="16" fill="purple"/>
  </g>
  <g>
    <path fill="none" stroke-width="8.4" stroke-opacity="1" d="M 512.0,332.0 L 461.82054253392045,282.7855321005758 C 461.2136950226136,282.1903547337172 458.3,281.0 457.45,281.0 L 409.0,281.0" stroke="blue"/>
    <rect stroke="none" fill-opacity="1" x="405" y="273" width="8" height="16" fill="blue"/>
  </g>
  <g>
    <path fill="none" stroke-width="8.4" stroke-opacity="1" d="M 358.0,691.0 L 308.838477631085,641.838477631085 C 308.2256517540567,641.2256517540567 307.0,638.2666666666667 307.0,637.4 L 307.0,588.0" stroke="green"/>
    <rect stroke="none" fill-opacity="1" x="299" y="584" width="16" height="8" fill="green"/>
  </g>
  <g>
    <text fill="black" stroke="none" font-size="21.0" font-family="GIL_____" font-weight="100" text-anchor="start" dominant-baseline="central" x="784.5" y="588" transform="translate(768,588) rotate(0) translate(-768,-588)">BADULLA</text>
  </g>
  <g>
    <text fill="black" stroke="none" font-size="21.0" font-family="GIL_____" font-weight="100" text-anchor="start" dominant-baseline="central" x="374.5" y="896" transform="translate(358,896) rotate(0) translate(-358,-896)">MATARA</text>
  </g>
  <g>
    <text fill="black" stroke="none" font-size="21.0" font-family="GIL_____" font-weight="100" text-anchor="start" dominant-baseline="central" x="476.5" y="128" transform="translate(460,128) rotate(0) translate(-460,-128)">Kankesanthurai</text>
  </g>
  <g>
    <text fill="black" stroke="none" font-size="21.0" font-family="GIL_____" font-weight="100" text-anchor="start" dominant-baseline="central" x="476.5" y="742" transform="translate(460,742) rotate(0) translate(-460,-742)">Yatiyantota</text>
  </g>
  <g>
    <text fill="black" stroke="none" font-size="21.0" font-family="GIL_____" font-weight="100" text-anchor="start" dominant-baseline="central" x="528.5" y="844" transform="translate(512,844) rotate(0) translate(-512,-844)">Opanayaka</text>
  </g>
  <g>
    <text fill="black" stroke="none" font-size="21.0" font-family="GIL_____" font-weight="100" text-anchor="start" dominant-baseline="central" x="681.5" y="537" transform="translate(665,537) rotate(0) translate(-665,-537)">MATALE</text>
  </g>
  <g>
    <text fill="black" stroke="none" font-size="21.0" font-family="GIL_____" font-weight="100" text-anchor="end" dominant-baseline="central" x="392.5" y="281" transform="translate(409,281) rotate(0) translate(-409,-281)">Talaimannar Pier</text>
  </g>
  <g>
    <text fill="black" stroke="none" font-size="21.0" font-family="GIL_____" font-weight="100" text-anchor="start" dominant-baseline="central" x="323.5" y="588" transform="translate(307,588) rotate(0) translate(-307,-588)">Periyanurvillu</text>
  </g>
  <g>
    <circle r="8" fill="white" stroke="black" stroke-width="2.0" cx="256" cy="793"/>
    <text fill="black" stroke="none" font-size="18.0" font-family="GIL_____" font-weight="100" text-anchor="end" dominant-baseline="central" x="241.0" y="793" transform="translate(256,793) rotate(0) translate(-256,-793)">COLOMBO Fort</text>
  </g>
  <g>
    <circle r="8" fill="white" stroke="black" stroke-width="2.0" cx="307" cy="742"/>
    <text fill="black" stroke="none" font-size="18.0" font-family="GIL_____" font-weight="100" text-anchor="start" dominant-baseline="central" x="322.0" y="742" transform="translate(307,742) rotate(0) translate(-307,-742)">Maradana</text>
  </g>
  <g>
    <circle r="8" fill="white" stroke="black" stroke-width="2.0" cx="358" cy="691"/>
    <text fill="black" stroke="none" font-size="18.0" font-family="GIL_____" font-weight="100" text-anchor="start" dominant-baseline="central" x="373.0" y="691" transform="translate(358,691) rotate(0) translate(-358,-691)">Ragama</text>
  </g>
  <g>
    <circle r="8" fill="white" stroke="black" stroke-width="2.0" cx="512" cy="588"/>
    <text fill="black" stroke="none" font-size="18.0" font-family="GIL_____" font-weight="100" text-anchor="start" dominant-baseline="central" x="527.0" y="588" transform="translate(512,588) rotate(-45) translate(-512,-588)">Polgahawela</text>
  </g>
  <g>
    <circle r="8" fill="white" stroke="black" stroke-width="2.0" cx="563" cy="588"/>
    <text fill="black" stroke="none" font-size="18.0" font-family="GIL_____" font-weight="100" text-anchor="start" dominant-baseline="central" x="578.0" y="588" transform="translate(563,588) rotate(0) translate(-563,-588)">Peradeniya</text>
  </g>
  <g>
    <circle r="8" fill="white" stroke="black" stroke-width="2.0" cx="512" cy="332"/>
    <text fill="black" stroke="none" font-size="18.0" font-family="GIL_____" font-weight="100" text-anchor="start" dominant-baseline="central" x="527.0" y="332" transform="translate(512,332) rotate(0) translate(-512,-332)">Medavachchiya</text>
  </g>
  <g>
    <circle r="8" fill="white" stroke="black" stroke-width="2.0" cx="409" cy="793"/>
    <text fill="black" stroke="none" font-size="18.0" font-family="GIL_____" font-weight="100" text-anchor="start" dominant-baseline="central" x="424.0" y="793" transform="translate(409,793) rotate(0) translate(-409,-793)">Avissawella</text>
  </g>
  <g>
    <text fill="black" stroke="none" font-size="15.0" font-family="GIL_____" font-weight="100" text-anchor="start" dominant-baseline="central" x="422.5" y="640" transform="translate(409,640) rotate(0) translate(-409,-640)">GAMPAHA</text>
  </g>
  <g>
    <text fill="black" stroke="none" font-size="15.0" font-family="GIL_____" font-weight="100" text-anchor="end" dominant-baseline="central" x="293.5" y="896" transform="translate(307,896) rotate(0) translate(-307,-896)">GALLE</text>
  </g>
  <g>
    <text fill="black" stroke="none" font-size="15.0" font-family="GIL_____" font-weight="100" text-anchor="end" dominant-baseline="central" x="498.5" y="537" transform="translate(512,537) rotate(0) translate(-512,-537)">KURUNEGALA</text>
  </g>
  <g>
    <text fill="black" stroke="none" font-size="15.0" font-family="GIL_____" font-weight="100" text-anchor="start" dominant-baseline="central" x="525.5" y="435" transform="translate(512,435) rotate(0) translate(-512,-435)">ANURADHAPURA</text>
  </g>
  <g>
    <text fill="black" stroke="none" font-size="15.0" font-family="GIL_____" font-weight="100" text-anchor="start" dominant-baseline="central" x="525.5" y="281" transform="translate(512,281) rotate(0) translate(-512,-281)">VAVUNIYA</text>
  </g>
  <g>
    <text fill="black" stroke="none" font-size="15.0" font-family="GIL_____" font-weight="100" text-anchor="start" dominant-baseline="central" x="525.5" y="230" transform="translate(512,230) rotate(0) translate(-512,-230)">KILINOCHCHI</text>
  </g>
  <g>
    <text fill="black" stroke="none" font-size="15.0" font-family="GIL_____" font-weight="100" text-anchor="start" dominant-baseline="central" x="473.5" y="179" transform="translate(460,179) rotate(0) translate(-460,-179)">JAFFNA</text>
  </g>
  <g>
    <text fill="black" stroke="none" font-size="15.0" font-family="GIL_____" font-weight="100" text-anchor="end" dominant-baseline="central" x="446.5" y="844" transform="translate(460,844) rotate(0) translate(-460,-844)">RATNAPURA</text>
  </g>
  <g>
    <text fill="black" stroke="none" font-size="15.0" font-family="GIL_____" font-weight="100" text-anchor="start" dominant-baseline="central" x="627.5" y="537" transform="translate(614,537) rotate(-45) translate(-614,-537)">KANDY</text>
  </g>
  <g>
    <text fill="black" stroke="none" font-size="15.0" font-family="GIL_____" font-weight="100" text-anchor="end" dominant-baseline="central" x="446.5" y="281" transform="translate(460,281) rotate(45) translate(-460,-281)">MANNAR</text>
  </g>
  <g>
    <text fill="black" stroke="none" font-size="12.0" font-family="GIL_____" font-weight="100" text-anchor="start" dominant-baseline="central" x="472.0" y="588" transform="translate(460,588) rotate(-337.5) translate(-460,-588)">Ambepussa</text>
  </g>
  <g>
    <text fill="black" stroke="none" font-size="12.0" font-family="GIL_____" font-weight="100" text-anchor="start" dominant-baseline="central" x="626.0" y="640" transform="translate(614,640) rotate(-315) translate(-614,-640)">Nawalapitiya</text>
  </g>
  <g>
    <text fill="black" stroke="none" font-size="12.0" font-family="GIL_____" font-weight="100" text-anchor="start" dominant-baseline="central" x="677.0" y="640" transform="translate(665,640) rotate(-315) translate(-665,-640)">Nanu Oya</text>
  </g>
  <g>
    <text fill="black" stroke="none" font-size="12.0" font-family="GIL_____" font-weight="100" text-anchor="start" dominant-baseline="central" x="728.0" y="640" transform="translate(716,640) rotate(0) translate(-716,-640)">Bandarawela</text>
  </g>
  <g>
    <text fill="black" stroke="none" font-size="12.0" font-family="GIL_____" font-weight="100" text-anchor="end" dominant-baseline="central" x="244.0" y="844" transform="translate(256,844) rotate(0) translate(-256,-844)">KALUTARA North</text>
  </g>
  <g>
    <text fill="black" stroke="none" font-size="12.0" font-family="GIL_____" font-weight="100" text-anchor="end" dominant-baseline="central" x="500.0" y="486" transform="translate(512,486) rotate(0) translate(-512,-486)">Maho</text>
  </g>
  <g>
    <text fill="black" stroke="none" font-size="12.0" font-family="GIL_____" font-weight="100" text-anchor="start" dominant-baseline="central" x="524.0" y="384" transform="translate(512,384) rotate(0) translate(-512,-384)">Mihintale Junction</text>
  </g>
  <g/>
  <g>
    <text fill="black" stroke="none" font-size="12.0" font-family="GIL_____" font-weight="100" text-anchor="end" dominant-baseline="central" x="295.0" y="640" transform="translate(307,640) rotate(0) translate(-307,-640)">Puttalam</text>
  </g>
</svg>
