<?xml version="1.0" ?>
<svg xmlns="http://www.w3.org/2000/svg" width="1000" height="1000" padding="200">
  <text fill="gray" stroke="none" font-size="48" font-family="Helvetica" x="500.0" y="112.0" text-anchor="middle" dominant-baseline="hanging">All Lines</text>
  <text fill="gray" stroke="none" font-size="12" font-family="Helvetica" x="500.0" y="888.0" text-anchor="middle" dominant-baseline="text-top">History of Sri Lankan Railways</text>
  <g>
    <path fill="none" stroke-width="8.4" stroke-opacity="1" d="M 269.0,615.0 L 315.0,615.0 L 361.0,615.0 L 407.0,615.0 L 453.0,615.0 L 500.0,615.0 L 546.0,615.0 L 592.0,615.0 L 638.0,615.0 L 684.0,615.0 L 730.0,615.0" stroke="red"/>
    <rect stroke="none" fill-opacity="1" x="726" y="607" width="8" height="16" fill="red"/>
  </g>
  <g>
    <path fill="none" stroke-width="8.4" stroke-opacity="1" d="M 269.0,615.0 L 269.0,661.0 L 269.0,707.0 L 269.0,753.0 L 269.0,800.0" stroke="cyan"/>
    <rect stroke="none" fill-opacity="1" x="261" y="796" width="16" height="8" fill="cyan"/>
  </g>
  <g>
    <path fill="none" stroke-width="8.4" stroke-opacity="1" d="M 500.0,615.0 L 500.0,569.0 L 500.0,523.0 L 500.0,476.0 L 500.0,430.0 L 500.0,384.0 L 500.0,338.0 L 500.0,292.0 L 500.0,246.0 L 500.0,200.0" stroke="orange"/>
    <rect stroke="none" fill-opacity="1" x="492" y="196" width="16" height="8" fill="orange"/>
  </g>
  <g>
    <path fill="none" stroke-width="8.4" stroke-opacity="1" d="M 315.0,615.0 L 315.0,661.0 L 315.0,704.7 C 315.0,705.4666666666667 316.53333333333336,707.0 317.3,707.0 L 361.0,707.0" stroke="darkblue"/>
    <rect stroke="none" fill-opacity="1" x="357" y="699" width="8" height="16" fill="darkblue"/>
  </g>
  <g>
    <path fill="none" stroke-width="8.4" stroke-opacity="1" d="M 315.0,707.0 L 315.0,753.0 L 315.0,800.0" stroke="lightblue"/>
    <rect stroke="none" fill-opacity="1" x="307" y="796" width="16" height="8" fill="lightblue"/>
  </g>
  <g>
    <path fill="none" stroke-width="8.4" stroke-opacity="1" d="M 361.0,615.0 L 361.0,569.0 L 361.0,523.0" stroke="green"/>
    <rect stroke="none" fill-opacity="1" x="353" y="519" width="16" height="8" fill="green"/>
  </g>
  <g>
    <path fill="none" stroke-width="8.4" stroke-opacity="1" d="M 546.0,615.0 L 546.0,571.3 C 546.0,570.5333333333333 547.5333333333333,569.0 548.3,569.0 L 592.0,569.0" stroke="purple"/>
    <rect stroke="none" fill-opacity="1" x="588" y="561" width="8" height="16" fill="purple"/>
  </g>
  <g>
    <path fill="none" stroke-width="8.4" stroke-opacity="1" d="M 500.0,430.0 L 546.0,430.0" stroke="yellow"/>
    <rect stroke="none" fill-opacity="1" x="542" y="422" width="8" height="16" fill="yellow"/>
  </g>
  <g>
    <path fill="none" stroke-width="8.4" stroke-opacity="1" d="M 500.0,384.0 L 453.0,384.0 L 407.0,384.0" stroke="blue"/>
    <rect stroke="none" fill-opacity="1" x="403" y="376" width="8" height="16" fill="blue"/>
  </g>
  <g>
    <path fill="none" stroke-width="8.4" stroke-opacity="1" d="M 500.0,523.0 L 546.0,523.0 L 592.0,523.0 L 638.0,523.0" stroke="darkgreen"/>
    <rect stroke="none" fill-opacity="1" x="634" y="515" width="8" height="16" fill="darkgreen"/>
  </g>
  <g>
    <path fill="none" stroke-width="8.4" stroke-opacity="1" d="M 546.0,523.0 L 546.0,476.0" stroke="silver"/>
    <rect stroke="none" fill-opacity="1" x="538" y="472" width="16" height="8" fill="silver"/>
  </g>
  <g>
    <circle r="8" fill="white" stroke="black" stroke-width="2.0" cx="269" cy="615"/>
    <text fill="black" stroke="none" font-size="15.600000000000001" font-family="Helvetica" font-weight="100" text-anchor="end" dominant-baseline="central" x="255.2" y="615" transform="translate(269,615) rotate(0) translate(-269,-615)">COLOMBO Fort</text>
  </g>
  <g>
    <circle r="8" fill="white" stroke="black" stroke-width="2.0" cx="315" cy="615"/>
    <text fill="black" stroke="none" font-size="15.600000000000001" font-family="Helvetica" font-weight="100" text-anchor="start" dominant-baseline="central" x="328.8" y="615" transform="translate(315,615) rotate(-315) translate(-315,-615)">Maradana</text>
  </g>
  <g>
    <circle r="8" fill="white" stroke="black" stroke-width="2.0" cx="361" cy="615"/>
    <text fill="black" stroke="none" font-size="15.600000000000001" font-family="Helvetica" font-weight="100" text-anchor="start" dominant-baseline="central" x="374.8" y="615" transform="translate(361,615) rotate(-45) translate(-361,-615)">Ragama</text>
  </g>
  <g>
    <circle r="8" fill="white" stroke="black" stroke-width="2.0" cx="500" cy="615"/>
    <text fill="black" stroke="none" font-size="15.600000000000001" font-family="Helvetica" font-weight="100" text-anchor="start" dominant-baseline="central" x="513.8" y="615" transform="translate(500,615) rotate(-315) translate(-500,-615)">Polgahawela</text>
  </g>
  <g>
    <circle r="8" fill="white" stroke="black" stroke-width="2.0" cx="546" cy="615"/>
    <text fill="black" stroke="none" font-size="15.600000000000001" font-family="Helvetica" font-weight="100" text-anchor="start" dominant-baseline="central" x="559.8" y="615" transform="translate(546,615) rotate(-315) translate(-546,-615)">Peradeniya</text>
  </g>
  <g>
    <text fill="black" stroke="none" font-size="15.600000000000001" font-family="Helvetica" font-weight="100" text-anchor="start" dominant-baseline="central" x="743.8" y="615" transform="translate(730,615) rotate(0) translate(-730,-615)">BADULLA</text>
  </g>
  <g>
    <text fill="black" stroke="none" font-size="15.600000000000001" font-family="Helvetica" font-weight="100" text-anchor="end" dominant-baseline="central" x="255.2" y="800" transform="translate(269,800) rotate(0) translate(-269,-800)">Beliatta</text>
  </g>
  <g>
    <circle r="8" fill="white" stroke="black" stroke-width="2.0" cx="500" cy="523"/>
    <text fill="black" stroke="none" font-size="15.600000000000001" font-family="Helvetica" font-weight="100" text-anchor="end" dominant-baseline="central" x="486.2" y="523" transform="translate(500,523) rotate(45) translate(-500,-523)">Maho</text>
  </g>
  <g>
    <circle r="8" fill="white" stroke="black" stroke-width="2.0" cx="500" cy="430"/>
    <text fill="black" stroke="none" font-size="15.600000000000001" font-family="Helvetica" font-weight="100" text-anchor="start" dominant-baseline="central" x="513.8" y="430" transform="translate(500,430) rotate(-45) translate(-500,-430)">Mihintale Junction</text>
  </g>
  <g>
    <circle r="8" fill="white" stroke="black" stroke-width="2.0" cx="500" cy="384"/>
    <text fill="black" stroke="none" font-size="15.600000000000001" font-family="Helvetica" font-weight="100" text-anchor="start" dominant-baseline="central" x="513.8" y="384" transform="translate(500,384) rotate(-45) translate(-500,-384)">Medavachchiya</text>
  </g>
  <g>
    <text fill="black" stroke="none" font-size="15.600000000000001" font-family="Helvetica" font-weight="100" text-anchor="start" dominant-baseline="central" x="513.8" y="200" transform="translate(500,200) rotate(0) translate(-500,-200)">Kankesanthurai</text>
  </g>
  <g>
    <circle r="8" fill="white" stroke="black" stroke-width="2.0" cx="315" cy="707"/>
    <text fill="black" stroke="none" font-size="15.600000000000001" font-family="Helvetica" font-weight="100" text-anchor="start" dominant-baseline="central" x="328.8" y="707" transform="translate(315,707) rotate(-315) translate(-315,-707)">Avissawella</text>
  </g>
  <g>
    <text fill="black" stroke="none" font-size="15.600000000000001" font-family="Helvetica" font-weight="100" text-anchor="start" dominant-baseline="central" x="374.8" y="707" transform="translate(361,707) rotate(-315) translate(-361,-707)">Yatiyantota</text>
  </g>
  <g>
    <text fill="black" stroke="none" font-size="15.600000000000001" font-family="Helvetica" font-weight="100" text-anchor="start" dominant-baseline="central" x="328.8" y="800" transform="translate(315,800) rotate(-315) translate(-315,-800)">Opanayaka</text>
  </g>
  <g>
    <text fill="black" stroke="none" font-size="15.600000000000001" font-family="Helvetica" font-weight="100" text-anchor="end" dominant-baseline="central" x="347.2" y="523" transform="translate(361,523) rotate(0) translate(-361,-523)">Periyanurvillu</text>
  </g>
  <g>
    <text fill="black" stroke="none" font-size="15.600000000000001" font-family="Helvetica" font-weight="100" text-anchor="start" dominant-baseline="central" x="605.8" y="569" transform="translate(592,569) rotate(0) translate(-592,-569)">MATALE</text>
  </g>
  <g>
    <text fill="black" stroke="none" font-size="15.600000000000001" font-family="Helvetica" font-weight="100" text-anchor="start" dominant-baseline="central" x="559.8" y="430" transform="translate(546,430) rotate(0) translate(-546,-430)">Mihintale</text>
  </g>
  <g>
    <text fill="black" stroke="none" font-size="15.600000000000001" font-family="Helvetica" font-weight="100" text-anchor="end" dominant-baseline="central" x="393.2" y="384" transform="translate(407,384) rotate(0) translate(-407,-384)">Talaimannar Pier</text>
  </g>
  <g>
    <circle r="8" fill="white" stroke="black" stroke-width="2.0" cx="546" cy="523"/>
    <text fill="black" stroke="none" font-size="15.600000000000001" font-family="Helvetica" font-weight="100" text-anchor="start" dominant-baseline="central" x="559.8" y="523" transform="translate(546,523) rotate(-22.5) translate(-546,-523)">Galoya</text>
  </g>
  <g>
    <text fill="black" stroke="none" font-size="15.600000000000001" font-family="Helvetica" font-weight="100" text-anchor="start" dominant-baseline="central" x="651.8" y="523" transform="translate(638,523) rotate(0) translate(-638,-523)">BATTICALOA</text>
  </g>
  <g/>
  <g>
    <text fill="black" stroke="none" font-size="13.200000000000001" font-family="Helvetica" font-weight="100" text-anchor="start" dominant-baseline="central" x="419.6" y="615" transform="translate(407,615) rotate(-315) translate(-407,-615)">GAMPAHA</text>
  </g>
  <g>
    <text fill="black" stroke="none" font-size="13.200000000000001" font-family="Helvetica" font-weight="100" text-anchor="end" dominant-baseline="central" x="256.4" y="707" transform="translate(269,707) rotate(0) translate(-269,-707)">GALLE</text>
  </g>
  <g>
    <text fill="black" stroke="none" font-size="13.200000000000001" font-family="Helvetica" font-weight="100" text-anchor="end" dominant-baseline="central" x="256.4" y="753" transform="translate(269,753) rotate(0) translate(-269,-753)">MATARA</text>
  </g>
  <g/>
  <g/>
  <g>
    <text fill="black" stroke="none" font-size="13.200000000000001" font-family="Helvetica" font-weight="100" text-anchor="end" dominant-baseline="central" x="487.4" y="338" transform="translate(500,338) rotate(0) translate(-500,-338)">VAVUNIYA</text>
  </g>
  <g>
    <text fill="black" stroke="none" font-size="13.200000000000001" font-family="Helvetica" font-weight="100" text-anchor="end" dominant-baseline="central" x="487.4" y="292" transform="translate(500,292) rotate(0) translate(-500,-292)">KILINOCHCHI</text>
  </g>
  <g>
    <text fill="black" stroke="none" font-size="13.200000000000001" font-family="Helvetica" font-weight="100" text-anchor="start" dominant-baseline="central" x="512.6" y="246" transform="translate(500,246) rotate(0) translate(-500,-246)">JAFFNA</text>
  </g>
  <g>
    <text fill="black" stroke="none" font-size="13.200000000000001" font-family="Helvetica" font-weight="100" text-anchor="start" dominant-baseline="central" x="327.6" y="753" transform="translate(315,753) rotate(-315) translate(-315,-753)">RATNAPURA</text>
  </g>
  <g/>
  <g/>
  <g>
    <text fill="black" stroke="none" font-size="13.200000000000001" font-family="Helvetica" font-weight="100" text-anchor="start" dominant-baseline="central" x="604.6" y="523" transform="translate(592,523) rotate(-22.5) translate(-592,-523)">POLONNARUWA</text>
  </g>
  <g>
    <text fill="black" stroke="none" font-size="12" font-family="Helvetica" font-weight="100" text-anchor="start" dominant-baseline="central" x="465.0" y="615" transform="translate(453,615) rotate(-315) translate(-453,-615)">Ambepussa</text>
  </g>
  <g>
    <text fill="black" stroke="none" font-size="12" font-family="Helvetica" font-weight="100" text-anchor="start" dominant-baseline="central" x="604.0" y="615" transform="translate(592,615) rotate(-315) translate(-592,-615)">Nawalapitiya</text>
  </g>
  <g>
    <text fill="black" stroke="none" font-size="12" font-family="Helvetica" font-weight="100" text-anchor="start" dominant-baseline="central" x="650.0" y="615" transform="translate(638,615) rotate(-315) translate(-638,-615)">Nanu Oya</text>
  </g>
  <g>
    <text fill="black" stroke="none" font-size="12" font-family="Helvetica" font-weight="100" text-anchor="start" dominant-baseline="central" x="696.0" y="615" transform="translate(684,615) rotate(-45) translate(-684,-615)">Bandarawela</text>
  </g>
  <g>
    <text fill="black" stroke="none" font-size="12" font-family="Helvetica" font-weight="100" text-anchor="end" dominant-baseline="central" x="257.0" y="661" transform="translate(269,661) rotate(0) translate(-269,-661)">KALUTARA North</text>
  </g>
  <g/>
  <g>
    <text fill="black" stroke="none" font-size="12" font-family="Helvetica" font-weight="100" text-anchor="end" dominant-baseline="central" x="349.0" y="569" transform="translate(361,569) rotate(0) translate(-361,-569)">Puttalam</text>
  </g>
</svg>
